<svg width="10" height="10" viewBox="0 0 10 10" fill="none" xmlns="http://www.w3.org/2000/svg">
<path d="M5 9.375C3.83968 9.375 2.72688 8.91406 1.90641 8.09359C1.08594 7.27312 0.625 6.16032 0.625 5C0.625 3.83968 1.08594 2.72688 1.90641 1.90641C2.72688 1.08594 3.83968 0.625 5 0.625C6.16032 0.625 7.27312 1.08594 8.09359 1.90641C8.91406 2.72688 9.375 3.83968 9.375 5C9.375 6.16032 8.91406 7.27312 8.09359 8.09359C7.27312 8.91406 6.16032 9.375 5 9.375ZM5 10C6.32608 10 7.59785 9.47322 8.53553 8.53553C9.47322 7.59785 10 6.32608 10 5C10 3.67392 9.47322 2.40215 8.53553 1.46447C7.59785 0.526784 6.32608 0 5 0C3.67392 0 2.40215 0.526784 1.46447 1.46447C0.526784 2.40215 0 3.67392 0 5C0 6.32608 0.526784 7.59785 1.46447 8.53553C2.40215 9.47322 3.67392 10 5 10Z" fill="#C4C4C4"/>
<path d="M3.28474 3.61625C3.28388 3.63643 3.28717 3.65658 3.29438 3.67545C3.3016 3.69432 3.3126 3.71151 3.32671 3.72597C3.34082 3.74043 3.35774 3.75185 3.37642 3.75953C3.39511 3.76721 3.41517 3.77098 3.43536 3.77062H3.95099C4.03724 3.77062 4.10599 3.7 4.11724 3.61437C4.17349 3.20438 4.45474 2.90563 4.95599 2.90563C5.38474 2.90563 5.77724 3.12 5.77724 3.63562C5.77724 4.0325 5.54349 4.215 5.17411 4.4925C4.75349 4.79813 4.42036 5.155 4.44411 5.73438L4.44599 5.87C4.44665 5.91101 4.4634 5.95011 4.49263 5.97887C4.52186 6.00764 4.56123 6.02376 4.60224 6.02375H5.10911C5.15055 6.02375 5.1903 6.00729 5.2196 5.97799C5.2489 5.94868 5.26536 5.90894 5.26536 5.8675V5.80188C5.26536 5.35313 5.43599 5.2225 5.89661 4.87313C6.27724 4.58375 6.67412 4.2625 6.67412 3.58813C6.67412 2.64375 5.87661 2.1875 5.00349 2.1875C4.21161 2.1875 3.34411 2.55625 3.28474 3.61625ZM4.25786 7.21812C4.25786 7.55125 4.52349 7.7975 4.88911 7.7975C5.26974 7.7975 5.53162 7.55125 5.53162 7.21812C5.53162 6.87313 5.26911 6.63063 4.88849 6.63063C4.52349 6.63063 4.25786 6.87313 4.25786 7.21812Z" fill="#C4C4C4"/>
</svg>
