<svg width="19" height="20" viewBox="0 0 19 20" fill="none" xmlns="http://www.w3.org/2000/svg">
<path d="M17.3871 13.7524V6.58032C17.3868 6.26589 17.3038 5.95708 17.1464 5.68486C16.9891 5.41264 16.7629 5.18658 16.4906 5.02937L10.2151 1.44334C9.94248 1.28597 9.63329 1.20312 9.31855 1.20312C9.00381 1.20312 8.69462 1.28597 8.42205 1.44334L2.14651 5.02937C1.8742 5.18658 1.64803 5.41264 1.49068 5.68486C1.33332 5.95708 1.25032 6.26589 1.25 6.58032V13.7524C1.25032 14.0668 1.33332 14.3756 1.49068 14.6478C1.64803 14.92 1.8742 15.1461 2.14651 15.3033L8.42205 18.8893C8.69462 19.0467 9.00381 19.1296 9.31855 19.1296C9.63329 19.1296 9.94248 19.0467 10.2151 18.8893L16.4906 15.3033C16.7629 15.1461 16.9891 14.92 17.1464 14.6478C17.3038 14.3756 17.3868 14.0668 17.3871 13.7524Z" stroke="#968FCC" stroke-width="1.3" stroke-linecap="round" stroke-linejoin="round"/>
<path d="M1.49219 5.64844L9.31868 10.1758L17.1452 5.64844" stroke="#968FCC" stroke-width="1.3" stroke-linecap="round" stroke-linejoin="round"/>
<path d="M9.31836 19.2047V10.168" stroke="#968FCC" stroke-width="1.3" stroke-linecap="round" stroke-linejoin="round"/>
</svg>
