<svg width="19" height="19" viewBox="0 0 19 19" fill="none" xmlns="http://www.w3.org/2000/svg">
<path d="M9.57945 17.4401C14.1581 17.4401 17.8698 13.7284 17.8698 9.14976C17.8698 4.57111 14.1581 0.859375 9.57945 0.859375C5.00079 0.859375 1.28906 4.57111 1.28906 9.14976C1.28906 13.7284 5.00079 17.4401 9.57945 17.4401Z" stroke="#968FCC" stroke-width="1.1975" stroke-linecap="round" stroke-linejoin="round"/>
<path d="M9.58165 14.1242C12.3288 14.1242 14.5559 11.8972 14.5559 9.15001C14.5559 6.40282 12.3288 4.17578 9.58165 4.17578C6.83446 4.17578 4.60742 6.40282 4.60742 9.15001C4.60742 11.8972 6.83446 14.1242 9.58165 14.1242Z" stroke="#968FCC" stroke-width="1.1975" stroke-linecap="round" stroke-linejoin="round"/>
<path d="M9.57995 10.8083C10.4957 10.8083 11.238 10.066 11.238 9.15026C11.238 8.23453 10.4957 7.49219 9.57995 7.49219C8.66422 7.49219 7.92188 8.23453 7.92188 9.15026C7.92188 10.066 8.66422 10.8083 9.57995 10.8083Z" stroke="#968FCC" stroke-width="1.1975" stroke-linecap="round" stroke-linejoin="round"/>
</svg>
