<svg width="39" height="19" viewBox="0 0 39 19" fill="none" xmlns="http://www.w3.org/2000/svg">
<path d="M32.7851 4.89056C30.7941 6.88902 28.62 9.09637 26.6289 11.0948C26.6299 11.0971 26.6309 11.0988 26.6319 11.1004C26.6522 11.1325 26.6714 11.1667 26.6883 11.2054C26.7081 11.2436 26.7229 11.2818 26.7358 11.3194C26.8832 11.6917 26.9697 12.0921 26.995 12.497C29.1542 10.3289 31.4975 7.95199 33.6568 5.78395C33.3169 5.55541 33.0171 5.2505 32.7851 4.89056Z" fill="#F2AB3C"/>
<path d="M16.5047 4.90289C16.474 5.39647 16.3399 5.87152 16.1252 6.29098C17.9348 8.1075 19.9278 10.1329 21.7378 11.9494C21.8318 11.498 22.0084 11.0718 22.2651 10.7096C20.4062 8.84366 18.3636 6.76883 16.5047 4.90289Z" fill="#F2AB3C"/>
<path d="M27.1713 10.2809C27.1494 10.2378 27.125 10.1992 27.0999 10.1642C27.098 10.1617 27.0974 10.1599 27.0962 10.158C26.0693 8.53871 24.0312 8.01786 22.3251 8.91796C21.9304 9.12629 21.6021 9.40449 21.339 9.72948C21.0132 10.1318 20.7895 10.6052 20.6711 11.1061C20.458 12.0031 20.5796 12.9874 21.0507 13.807C21.9843 15.4326 24.0349 15.8704 25.6677 15.1325C27.0254 14.5194 27.6588 13.0991 27.5598 11.7155C27.5278 11.2658 27.4182 10.8204 27.2315 10.4075C27.2152 10.3657 27.1958 10.3233 27.1713 10.2809ZM25.0562 13.7864C24.1784 14.306 22.9924 13.991 22.4084 13.1864C21.7312 12.2532 21.988 10.9383 22.9228 10.2846C23.9472 9.56792 25.2955 9.99832 25.8938 11.0263C26.4063 12.0499 26.0242 13.2132 25.0562 13.7864Z" fill="#C53E2D"/>
<path d="M38.1807 3.34609C38.1299 1.5054 36.5788 0.115435 34.8088 0.00646653C34.7697 0.00213269 34.73 -0.000963194 34.6872 0.00027516C34.645 -0.000963194 34.606 0.00213269 34.5675 0.00646653C32.728 0.114816 31.3475 1.50602 31.1931 3.34609C31.1255 4.15097 31.3754 4.89951 31.8226 5.5075C32.1141 5.90375 32.4893 6.23994 32.916 6.49255C33.5361 6.85969 34.2642 7.05039 34.9992 6.98847C36.8603 6.83183 38.2322 5.18741 38.1807 3.34609ZM34.9564 5.52731C33.6534 5.78487 32.6245 4.54412 32.658 3.34609C32.6877 2.27375 33.6769 1.49487 34.6878 1.46701C35.7434 1.49611 36.6272 2.27498 36.7165 3.34609C36.8095 4.4562 35.9989 5.32114 34.9564 5.52731Z" fill="#2356DF"/>
<path d="M11.6894 6.58415C11.3081 5.94167 11.3094 5.94013 11.1498 5.24016C9.02552 7.34465 6.51988 9.89806 4.42127 12.0047C4.86313 12.424 4.86715 12.4217 5.20295 12.9944C7.46246 10.7803 9.56512 8.75441 11.6894 6.58415Z" fill="#F2AB3C"/>
<path d="M6.97433 14.4532C6.9706 14.4254 6.96625 14.3987 6.96065 14.3721C6.95879 14.3349 6.95568 14.2971 6.94822 14.2581C6.61634 12.4945 4.98305 11.2525 3.19439 11.4024C1.37527 11.5548 0.0508634 13.1041 0.00114371 14.8893C-0.00507117 15.1216 0.0141952 15.3477 0.0552138 15.5658C0.152167 16.083 0.374663 16.5557 0.686653 16.9614C1.37651 17.859 2.50329 18.4239 3.67418 18.3886C4.8948 18.3527 5.93643 17.6391 6.51504 16.6461C6.78477 16.1834 6.95257 15.6593 6.99111 15.1148C7.00664 14.8962 7.00229 14.675 6.97433 14.4532ZM3.67418 16.9218C2.4604 17.0308 1.52754 16.0527 1.4685 14.8893C1.41567 13.8425 2.27955 13.0533 3.23665 12.8644C4.35907 12.6432 5.28883 13.5569 5.5163 14.5697C5.61076 15.7318 4.9091 16.8109 3.67418 16.9218Z" fill="#2356DF"/>
<path d="M18.0083 4.69367C18.0045 4.66579 18.0002 4.63916 17.9946 4.61252C17.9927 4.57535 17.9896 4.53757 17.9822 4.49854C17.6503 2.73496 16.017 1.49296 14.2283 1.64286C12.4092 1.79525 11.0848 3.3445 11.0351 5.12976C11.0289 5.36206 11.0481 5.58816 11.0891 5.8062C11.1861 6.32345 11.4086 6.79609 11.7206 7.20183C12.4104 8.09942 13.5372 8.66436 14.7081 8.62905C15.9287 8.59312 16.9704 7.87951 17.549 6.88653C17.8187 6.4238 17.9865 5.89974 18.025 5.35524C18.0406 5.13658 18.0362 4.91543 18.0083 4.69367ZM14.7081 7.16219C13.4943 7.27121 12.5615 6.29309 12.5024 5.12976C12.4496 4.08289 13.3135 3.2937 14.2706 3.10477C15.393 2.88363 16.3228 3.79732 16.5502 4.81012C16.6447 5.97222 15.943 7.0513 14.7081 7.16219Z" fill="#028744"/>
</svg>
