<svg width="13" height="21" viewBox="0 0 13 21" fill="none" xmlns="http://www.w3.org/2000/svg">
<path d="M6.38962 4.36011C5.68955 4.35274 5.03368 4.47065 4.42204 4.71383C3.81776 4.94965 3.32771 5.28126 2.95188 5.70868C2.57604 6.12872 2.38813 6.62246 2.38813 7.18989C2.38813 7.85313 2.56131 8.36529 2.90766 8.72638C3.26138 9.0801 3.74038 9.34539 4.34466 9.52226C4.94894 9.69912 5.63059 9.85756 6.38962 9.99757C7.3771 10.1671 8.29457 10.4324 9.14203 10.7934C9.98949 11.1472 10.6711 11.6225 11.187 12.2194C11.7028 12.8089 11.9608 13.5385 11.9608 14.4081C11.9608 15.2334 11.7323 15.9593 11.2754 16.5857C10.8259 17.212 10.2253 17.7132 9.47365 18.089C8.72198 18.4648 7.89663 18.6896 6.99758 18.7633V20.9851H5.81482V18.7633C5.05579 18.7117 4.32992 18.5532 3.63721 18.288C2.95188 18.0153 2.35497 17.6505 1.84649 17.1936C1.34538 16.7367 0.984291 16.2025 0.763214 15.5908L2.21127 15.0492C2.37339 15.5061 2.66816 15.9003 3.09558 16.2319C3.53036 16.5562 4.03515 16.8067 4.60995 16.9836C5.19212 17.1605 5.78535 17.2489 6.38962 17.2489C7.09707 17.2489 7.75661 17.131 8.36826 16.8952C8.97991 16.6594 9.47365 16.3314 9.84948 15.9114C10.2253 15.484 10.4132 14.9829 10.4132 14.4081C10.4132 13.8259 10.2179 13.3469 9.82737 12.9711C9.4368 12.5952 8.93201 12.3005 8.31299 12.0867C7.70134 11.8657 7.06022 11.6962 6.38962 11.5783C5.33582 11.394 4.38888 11.1435 3.54878 10.8266C2.71606 10.5097 2.05651 10.0639 1.57014 9.48909C1.08378 8.90692 0.840591 8.14052 0.840591 7.18989C0.840591 6.36454 1.06535 5.63867 1.51488 5.01229C1.97177 4.3859 2.57604 3.88479 3.32771 3.50896C4.08674 3.13313 4.91578 2.91205 5.81482 2.84573V0.557586H6.99758V2.84573C7.72714 2.89732 8.4309 3.05576 9.10887 3.32105C9.78684 3.58634 10.3837 3.94743 10.8996 4.40432C11.4228 4.85385 11.8023 5.39549 12.0381 6.02924L10.568 6.55982C10.4059 6.09556 10.1074 5.70131 9.67261 5.37706C9.2452 5.04545 8.74409 4.79489 8.16929 4.6254C7.59449 4.44854 7.00127 4.36011 6.38962 4.36011Z" fill="#968FCC"/>
</svg>
