<svg width="19" height="19" viewBox="0 0 19 19" fill="none" xmlns="http://www.w3.org/2000/svg">
<path d="M11.4575 4.30581C12.2314 4.45679 12.9426 4.83525 13.5001 5.39275C14.0576 5.95026 14.436 6.66144 14.587 7.43528L11.4575 4.30581ZM11.4575 1.13672C13.0653 1.31533 14.5645 2.03529 15.7091 3.17841C16.8536 4.32153 17.5755 5.81985 17.7561 7.42736L11.4575 1.13672ZM16.9638 13.7497V16.1265C16.9647 16.3472 16.9195 16.5656 16.8311 16.7677C16.7427 16.9699 16.6131 17.1514 16.4505 17.3006C16.2879 17.4497 16.096 17.5633 15.8869 17.634C15.6779 17.7047 15.4564 17.7309 15.2367 17.7111C12.7987 17.4462 10.4569 16.6131 8.39937 15.2788C6.48511 14.0624 4.86214 12.4394 3.64574 10.5251C2.30678 8.45827 1.47352 6.10505 1.21346 3.65614C1.19366 3.43706 1.2197 3.21624 1.28992 3.00777C1.36013 2.79929 1.47299 2.60772 1.6213 2.44525C1.76961 2.28278 1.95012 2.15297 2.15135 2.06409C2.35257 1.97521 2.5701 1.9292 2.79008 1.92899H5.1669C5.5514 1.92521 5.92415 2.06136 6.21568 2.31208C6.50721 2.5628 6.69763 2.91097 6.75145 3.2917C6.85177 4.05233 7.03781 4.79918 7.30604 5.51798C7.41263 5.80156 7.4357 6.10974 7.37251 6.40603C7.30933 6.70231 7.16253 6.97427 6.94951 7.18968L5.94333 8.19587C7.07117 10.1794 8.71347 11.8217 10.697 12.9495L11.7031 11.9433C11.9186 11.7303 12.1905 11.5835 12.4868 11.5203C12.7831 11.4571 13.0913 11.4802 13.3748 11.5868C14.0937 11.855 14.8405 12.0411 15.6011 12.1414C15.986 12.1957 16.3375 12.3895 16.5887 12.6861C16.84 12.9826 16.9735 13.3611 16.9638 13.7497Z" stroke="#968FCC" stroke-width="1.1975" stroke-linecap="round" stroke-linejoin="round"/>
</svg>
