<svg width="36" height="25" viewBox="0 0 36 25" fill="none" xmlns="http://www.w3.org/2000/svg">
<mask id="mask0_32_97" style="mask-type:alpha" maskUnits="userSpaceOnUse" x="0" y="0" width="36" height="25">
<path d="M0 0H35.7204V25H0V0Z" fill="white"/>
</mask>
<g mask="url(#mask0_32_97)">
<path fill-rule="evenodd" clip-rule="evenodd" d="M14.8601 2.7275C16.0123 1.52712 17.6166 0.782267 19.3908 0.782267C21.7492 0.782267 23.807 2.09738 24.9025 4.04996C25.8827 3.61197 26.9445 3.38623 28.0181 3.38755C32.2719 3.38755 35.7205 6.86621 35.7205 11.1576C35.7205 15.449 32.2719 18.9277 28.0181 18.9277C27.4986 18.9277 26.9914 18.8755 26.5007 18.7765C25.5359 20.4974 23.6968 21.6604 21.5864 21.6604C20.7328 21.6615 19.8902 21.4676 19.123 21.0934C18.145 23.3945 15.8656 25.0079 13.2097 25.0079C10.4434 25.0079 8.08568 23.2577 7.18133 20.8031C6.77826 20.8882 6.36742 20.931 5.95548 20.9307C2.66193 20.9307 -0.0078125 18.233 -0.0078125 14.9054C-0.0078125 12.675 1.19152 10.7278 2.9741 9.68612C2.59642 8.81646 2.40207 7.87827 2.40318 6.93014C2.40318 3.10281 5.51007 0 9.34251 0C11.5926 0 13.5923 1.06963 14.8601 2.7275Z" fill="#00A1E0"/>
<path fill-rule="evenodd" clip-rule="evenodd" d="M5.16705 12.9683C5.14461 13.0268 5.17506 13.039 5.18228 13.0494C5.24936 13.098 5.3175 13.1332 5.38628 13.1727C5.75057 13.3655 6.09491 13.4221 6.4546 13.4221C7.18751 13.4221 7.64277 13.0325 7.64277 12.405V12.3926C7.64277 11.8124 7.12883 11.6016 6.64718 11.4494L6.5843 11.4291C6.22106 11.3112 5.90758 11.2092 5.90758 10.9699V10.9577C5.90758 10.7528 6.09084 10.6022 6.37478 10.6022C6.6905 10.6022 7.06463 10.7071 7.30592 10.8403C7.30592 10.8403 7.37707 10.8863 7.40293 10.8176C7.41698 10.7805 7.53893 10.452 7.55193 10.4164C7.56584 10.378 7.54143 10.349 7.51635 10.334C7.24081 10.1661 6.86024 10.0519 6.46628 10.0519L6.39316 10.0521C5.72235 10.0521 5.25396 10.4578 5.25396 11.0383V11.0508C5.25396 11.6625 5.77066 11.8614 6.25467 11.9996L6.33238 12.0238C6.68486 12.1319 6.98928 12.2254 6.98928 12.4734V12.4857C6.98928 12.7128 6.79145 12.8815 6.47285 12.8815C6.34932 12.8815 5.95497 12.8794 5.52885 12.6099C5.47726 12.5798 5.44785 12.5582 5.40808 12.5339C5.38707 12.5212 5.33456 12.4982 5.31172 12.567L5.16705 12.9683ZM15.8962 12.9683C15.8737 13.0268 15.9042 13.039 15.9116 13.0494C15.9785 13.098 16.0467 13.1332 16.1154 13.1727C16.4798 13.3655 16.8241 13.4221 17.1837 13.4221C17.9166 13.4221 18.372 13.0325 18.372 12.405V12.3926C18.372 11.8124 17.8582 11.6016 17.3764 11.4494L17.3135 11.4291C16.9503 11.3112 16.6367 11.2092 16.6367 10.9699V10.9577C16.6367 10.7528 16.8201 10.6022 17.1041 10.6022C17.4197 10.6022 17.7937 10.7071 18.035 10.8403C18.035 10.8403 18.1062 10.8863 18.1322 10.8176C18.1461 10.7805 18.2682 10.452 18.281 10.4164C18.2951 10.378 18.2705 10.349 18.2456 10.334C17.9699 10.1661 17.5895 10.0519 17.1955 10.0519L17.1223 10.0521C16.4516 10.0521 15.9832 10.4578 15.9832 11.0383V11.0508C15.9832 11.6625 16.4998 11.8614 16.9839 11.9996L17.0615 12.0238C17.4141 12.1319 17.7185 12.2254 17.7185 12.4734V12.4857C17.7185 12.7128 17.5206 12.8815 17.2022 12.8815C17.0784 12.8815 16.6841 12.8794 16.2581 12.6099C16.2065 12.5798 16.1763 12.5591 16.1372 12.5339C16.1239 12.5255 16.0621 12.5013 16.041 12.567L15.8962 12.9683ZM23.2206 11.739C23.2206 12.0935 23.1545 12.3733 23.0245 12.5707C22.8953 12.7663 22.7004 12.8614 22.4285 12.8614C22.1567 12.8614 21.9628 12.7664 21.8357 12.5709C21.7074 12.3735 21.6423 12.0935 21.6423 11.739C21.6423 11.3848 21.7074 11.1059 21.8357 10.9105C21.9628 10.7169 22.1567 10.6229 22.4285 10.6229C22.7004 10.6229 22.8953 10.7171 23.0245 10.9107C23.1547 11.1059 23.2206 11.3848 23.2206 11.739ZM23.8326 11.0817C23.7724 10.8784 23.6788 10.6995 23.5542 10.5502C23.4294 10.4005 23.2714 10.2802 23.0842 10.193C22.8973 10.1057 22.6768 10.0615 22.4285 10.0615C22.1803 10.0615 21.9596 10.1057 21.7725 10.193C21.5856 10.2802 21.4276 10.4005 21.3027 10.5505C21.1783 10.7 21.0844 10.8786 21.0244 11.0817C20.9647 11.2835 20.9344 11.5047 20.9344 11.739C20.9344 11.9735 20.9647 12.1948 21.0244 12.3963C21.0844 12.5993 21.178 12.7781 21.3028 12.9279C21.4277 13.0778 21.5861 13.1971 21.7728 13.2822C21.96 13.3672 22.1805 13.4105 22.4285 13.4105C22.6766 13.4105 22.8969 13.3672 23.084 13.2822C23.2709 13.1971 23.4291 13.0778 23.5542 12.9279C23.6788 12.7786 23.7724 12.5995 23.8326 12.3963C23.8922 12.1944 23.9226 11.9732 23.9226 11.739C23.9226 11.505 23.8922 11.2836 23.8326 11.0817ZM28.8561 12.7665C28.8361 12.707 28.778 12.7295 28.778 12.7295C28.6892 12.7635 28.5946 12.795 28.4936 12.8108C28.3917 12.8268 28.2789 12.8348 28.1583 12.8348C27.8625 12.8348 27.6269 12.7467 27.4587 12.5726C27.2898 12.3984 27.1949 12.117 27.1959 11.7363C27.1968 11.3902 27.2806 11.1295 27.4308 10.9308C27.5796 10.7333 27.807 10.632 28.1093 10.632C28.3618 10.632 28.5543 10.6613 28.7561 10.7245C28.7561 10.7245 28.804 10.7454 28.827 10.6823C28.8807 10.5335 28.9203 10.4277 28.9776 10.2643C28.9939 10.2177 28.9539 10.198 28.9394 10.1923C28.8601 10.1614 28.6728 10.1106 28.5314 10.0892C28.3992 10.0689 28.2447 10.0584 28.0723 10.0584C27.8154 10.0584 27.5863 10.1024 27.3905 10.1896C27.195 10.2766 27.0292 10.3969 26.8978 10.5464C26.7664 10.6962 26.6663 10.8751 26.6002 11.0781C26.5339 11.28 26.5004 11.5015 26.5004 11.7365C26.5004 12.2439 26.6373 12.6539 26.9074 12.9542C27.1783 13.2556 27.5847 13.4087 28.1152 13.4087C28.4286 13.4087 28.7501 13.3453 28.9816 13.2542C28.9816 13.2542 29.0258 13.2329 29.0066 13.1815L28.8561 12.7665ZM29.9266 11.3992C29.9558 11.2021 30.0098 11.0384 30.0939 10.9105C30.2209 10.7169 30.4141 10.6102 30.686 10.6102C30.958 10.6102 31.1372 10.7171 31.2664 10.9107C31.3517 11.0387 31.389 11.2092 31.4035 11.3994L29.9266 11.3992ZM31.9861 10.9663C31.934 10.7702 31.8056 10.5721 31.7212 10.4815C31.588 10.3379 31.4575 10.2374 31.3279 10.1818C31.1404 10.1021 30.9387 10.0612 30.735 10.0615C30.4765 10.0615 30.2416 10.1052 30.0511 10.1944C29.8604 10.284 29.7001 10.4063 29.5745 10.5583C29.4486 10.7102 29.3542 10.891 29.2939 11.096C29.2336 11.2999 29.2031 11.5222 29.2031 11.7569C29.2031 11.9955 29.2347 12.218 29.297 12.4181C29.3598 12.6199 29.4608 12.797 29.5971 12.9444C29.7332 13.0923 29.9084 13.2084 30.1178 13.2893C30.3262 13.37 30.5793 13.4119 30.8695 13.4109C31.4679 13.409 31.7825 13.2756 31.9125 13.2038C31.9355 13.1909 31.9571 13.1687 31.9301 13.1048L31.7946 12.7257C31.7739 12.6691 31.7166 12.6896 31.7166 12.6896C31.5682 12.745 31.358 12.8438 30.8665 12.8428C30.5454 12.8423 30.3075 12.7473 30.158 12.5991C30.0051 12.4475 29.93 12.2249 29.9172 11.9103L31.9877 11.9119C31.9877 11.9119 32.0423 11.9114 32.048 11.8581C32.0502 11.836 32.119 11.4328 31.9861 10.9663ZM13.3414 11.3992C13.3707 11.2021 13.4248 11.0384 13.5088 10.9105C13.6359 10.7169 13.8288 10.6102 14.101 10.6102C14.373 10.6102 14.5522 10.7171 14.6813 10.9107C14.7665 11.0387 14.8038 11.2092 14.8184 11.3994L13.3414 11.3992ZM15.401 10.9663C15.349 10.7702 15.2205 10.5721 15.1362 10.4815C15.003 10.3379 14.8726 10.2374 14.7429 10.1818C14.5554 10.1022 14.3537 10.0612 14.1499 10.0615C13.8915 10.0615 13.6566 10.1052 13.4661 10.1944C13.2754 10.284 13.1151 10.4063 12.9892 10.5583C12.8636 10.7102 12.7692 10.891 12.7087 11.096C12.6484 11.2999 12.6181 11.5222 12.6181 11.7569C12.6181 11.9955 12.6495 12.218 12.7121 12.4181C12.7748 12.6199 12.8759 12.797 13.0119 12.9444C13.1482 13.0923 13.3233 13.2084 13.5327 13.2893C13.7411 13.37 13.994 13.4119 14.2845 13.4109C14.8827 13.409 15.1975 13.2756 15.3275 13.2038C15.3503 13.1909 15.3721 13.1687 15.3449 13.1048L15.2096 12.7257C15.1887 12.6691 15.1315 12.6896 15.1315 12.6896C14.9831 12.745 14.773 12.8438 14.2813 12.8428C13.9604 12.8423 13.7224 12.7473 13.5729 12.5991C13.42 12.4475 13.3448 12.2249 13.3321 11.9103L15.4027 11.9119C15.4027 11.9119 15.4573 11.9114 15.4629 11.8581C15.4652 11.836 15.534 11.4328 15.401 10.9663ZM8.86533 12.7552C8.78407 12.6904 8.77278 12.6745 8.74587 12.6324C8.70478 12.5689 8.68378 12.4786 8.68378 12.363C8.68378 12.1812 8.74417 12.0501 8.86861 11.9622C8.8673 11.9625 9.04715 11.807 9.4692 11.8125C9.65748 11.8159 9.84532 11.8319 10.0314 11.8605V12.8017H10.0317C10.0317 12.8017 9.7685 12.8583 9.47222 12.8761C9.05109 12.9015 8.86402 12.7548 8.86533 12.7552ZM9.68935 11.2999C9.60533 11.2937 9.4965 11.2907 9.36602 11.2907C9.18866 11.2907 9.01709 11.3128 8.85601 11.3561C8.69428 11.3997 8.54883 11.4672 8.42372 11.5566C8.2987 11.6459 8.19588 11.7627 8.12324 11.8981C8.04985 12.0348 8.01244 12.1953 8.01244 12.3753C8.01244 12.559 8.04434 12.7181 8.10735 12.848C8.169 12.9769 8.26181 13.0883 8.37738 13.1723C8.49251 13.256 8.63455 13.3175 8.7993 13.355C8.96195 13.3922 9.14626 13.4109 9.34764 13.4109C9.5603 13.4109 9.77179 13.3931 9.97671 13.3586C10.1513 13.3285 10.3251 13.2947 10.4983 13.2572C10.5673 13.2413 10.6435 13.2205 10.6435 13.2205C10.6946 13.2075 10.6907 13.1527 10.6907 13.1527L10.6895 11.259C10.6895 10.8436 10.5787 10.5359 10.3604 10.3448C10.1432 10.1545 9.82325 10.0584 9.40934 10.0584C9.25391 10.0584 9.00422 10.0794 8.85431 10.1095C8.85431 10.1095 8.40219 10.1972 8.21605 10.343C8.21605 10.343 8.17509 10.3683 8.19741 10.4254L8.34404 10.8192C8.36229 10.8702 8.41204 10.8528 8.41204 10.8528C8.41204 10.8528 8.42766 10.8466 8.44604 10.8357C8.84433 10.6191 9.34829 10.6256 9.34829 10.6256C9.57199 10.6256 9.74435 10.6708 9.86013 10.7595C9.97316 10.8462 10.0305 10.9768 10.0305 11.2529V11.3405C9.85291 11.3147 9.68935 11.2999 9.68935 11.2999ZM26.3921 10.233C26.3951 10.2261 26.3967 10.2187 26.3967 10.2111C26.3967 10.2036 26.3953 10.1961 26.3924 10.1892C26.3895 10.1822 26.3852 10.1759 26.3798 10.1706C26.3744 10.1654 26.368 10.1612 26.361 10.1585C26.3257 10.1451 26.1497 10.1079 26.0139 10.0995C25.7536 10.0833 25.6093 10.1271 25.4799 10.1854C25.3515 10.2433 25.2093 10.3369 25.13 10.4436L25.1298 10.191C25.1298 10.1564 25.1052 10.1284 25.0703 10.1284H24.5394C24.505 10.1284 24.4801 10.1564 24.4801 10.191V13.2802C24.4801 13.2969 24.4868 13.3128 24.4985 13.3246C24.5103 13.3364 24.5263 13.343 24.543 13.3431H25.0871C25.1038 13.343 25.1197 13.3364 25.1315 13.3246C25.1433 13.3128 25.1499 13.2968 25.1499 13.2802V11.7371C25.1499 11.5298 25.1727 11.3233 25.2183 11.1934C25.2631 11.0649 25.3242 10.9625 25.3998 10.8889C25.4715 10.8178 25.5592 10.765 25.6555 10.735C25.7458 10.7091 25.8393 10.6959 25.9333 10.6959C26.0416 10.6959 26.1608 10.7237 26.1608 10.7237C26.2007 10.7282 26.2229 10.7038 26.2364 10.6678C26.272 10.5732 26.3728 10.2895 26.3921 10.233Z" fill="#FFFFFE"/>
<path fill-rule="evenodd" clip-rule="evenodd" d="M21.2851 8.8019C21.2179 8.7816 21.1496 8.76538 21.0805 8.75333C20.9875 8.73781 20.8933 8.73052 20.799 8.73154C20.4245 8.73154 20.1292 8.83735 19.922 9.04634C19.7161 9.25375 19.5761 9.56973 19.5058 9.98548L19.4805 10.1258H19.0104C19.0104 10.1258 18.953 10.1234 18.9409 10.1861L18.8638 10.6166C18.8584 10.6579 18.8761 10.6836 18.9312 10.6833H19.3889L18.9245 13.2751C18.8882 13.4838 18.8466 13.6555 18.8005 13.7856C18.7551 13.914 18.7107 14.0102 18.6561 14.0801C18.6032 14.1477 18.553 14.1974 18.4665 14.2264C18.3951 14.2505 18.3129 14.2615 18.2229 14.2615C18.1727 14.2615 18.106 14.2531 18.0568 14.2432C18.0076 14.2335 17.982 14.2225 17.9451 14.207C17.9451 14.207 17.8914 14.1865 17.8703 14.2404C17.8531 14.2843 17.7311 14.6197 17.7167 14.6612C17.702 14.7022 17.7226 14.7345 17.7486 14.7438C17.8095 14.7656 17.8548 14.7795 17.9377 14.7991C18.053 14.8262 18.1501 14.8279 18.2411 14.8279C18.4317 14.8279 18.6054 14.8012 18.7494 14.7492C18.8943 14.6968 19.0205 14.6056 19.1321 14.482C19.2527 14.3488 19.3286 14.2092 19.4012 14.0189C19.473 13.8303 19.5342 13.5961 19.5831 13.3231L20.0497 10.6833H20.7318C20.7318 10.6833 20.7893 10.6854 20.8012 10.6231L20.8784 10.1925C20.8838 10.1513 20.8662 10.1255 20.8108 10.1258H20.1488C20.1521 10.1108 20.1821 9.87796 20.2582 9.65873C20.2906 9.56514 20.3516 9.48965 20.4033 9.4378C20.4516 9.38841 20.5111 9.3514 20.5768 9.32989C20.6487 9.30765 20.7237 9.29684 20.799 9.29786C20.8614 9.29786 20.9225 9.30534 20.9691 9.31506C21.0333 9.32871 21.0583 9.33593 21.0751 9.34092C21.1426 9.36153 21.1516 9.34157 21.1649 9.30889L21.3232 8.8741C21.3395 8.82737 21.2998 8.80768 21.2851 8.8019ZM12.0336 13.2806C12.0336 13.3153 12.009 13.3435 11.9743 13.3435H11.4252C11.3904 13.3435 11.3657 13.3153 11.3657 13.2806V8.86085C11.3657 8.82632 11.3904 8.79836 11.4252 8.79836H11.9743C12.009 8.79836 12.0336 8.82632 12.0336 8.86085V13.2806Z" fill="#FFFFFE"/>
</g>
</svg>
