<svg xmlns="http://www.w3.org/2000/svg" width="37.885" height="66.082" viewBox="0 0 37.885 66.082">
    <defs>
        <style>
            .cls-1{fill:#fff}
        </style>
    </defs>
    <g id="Group_58279" transform="translate(-457.946 -68.969)">
        <g id="PW_logo" transform="translate(457.946 68.969)">
            <path id="Path_13" d="M247.048 273.335l-4.439-5.727s-10.066 25.422-10.6 26c-.515.575.555-2.14.555-2.14l-2.239-.753-1.011 1.724a.175.175 0 0 1-.277-.2l11.136-28.791V253.5l-6.281 6.024-4.577 11.512a10.919 10.919 0 0 0-3.844-.911 33.917 33.917 0 0 0-6.638.911l-9.433 23.183a16.255 16.255 0 0 0 3.963 1.05 5.513 5.513 0 0 0 4.5-3.131l4.121-11.314 3.626-.059-4 10.581s-1.447 4.934 1.209 5.964a6.334 6.334 0 0 0 6.024-1.11s-.694 4.894 5.35 8.54a.728.728 0 0 0 1.07-.357l11.909-29.92a1.018 1.018 0 0 0-.124-1.128zm-19.953 1.228c-.258 2.873-3.666 4.379-3.527 3.071a20.528 20.528 0 0 1 1.7-4.379s2.084-1.585 1.827 1.308z" class="cls-1" transform="translate(-209.4 -253.5)"/>
            <path id="Path_14" d="M224.7 521.876s11.116-1.347 12.9 5.628l-9.769 7.193z" class="cls-1" transform="translate(-221.668 -468.614)"/>
        </g>
    </g>
</svg>
