<svg xmlns="http://www.w3.org/2000/svg" width="346.735" height="218.469" viewBox="0 0 346.735 218.469">
    <defs>
        <style>
            .cls-1{fill:#e0e0e0}.cls-2{fill:#c1c7ce}.cls-3{fill:#c6d1db}.cls-4{fill:#fff}.cls-6{fill:#f5f5f5}.cls-7{fill:#fafafa}.cls-8{fill:#ebebeb}.cls-10{fill:#263238}.cls-11{fill:#658bb1}.cls-12{opacity:.7}.cls-17{opacity:.4}.cls-18{fill:#455a64}.cls-19{fill:#ffbe9d}.cls-20{fill:#213861}.cls-21{opacity:.6}
        </style>
    </defs>
    <g id="Group_57642" transform="translate(-3921 1357.45)">
        <g id="Group_56234" transform="translate(4198.996 -1270.119)">
            <path id="Path_53605" d="M575.335 225.473a32.857 32.857 0 0 1-5.839 1.939 32.9 32.9 0 0 1 5.839-1.939z" class="cls-1" transform="translate(-569.495 -225.464)"/>
        </g>
        <g id="Group_56236" transform="translate(4130.667 -1164.043)">
            <path id="Path_53606" d="M445.985 417.477V441.7h3.244l4.353-24.5z" class="cls-2" transform="translate(-445.985 -417.205)"/>
        </g>
        <g id="Group_56237" transform="translate(4160.155 -1164.043)">
            <path id="Path_53607" d="M499.287 417.477V441.7h3.244l4.353-24.5z" class="cls-2" transform="translate(-499.287 -417.205)"/>
        </g>
        <g id="Group_56238" transform="translate(4189.433 -1164.043)">
            <path id="Path_53608" d="M559.806 417.477V441.7h-3.244l-4.353-24.5z" class="cls-2" transform="translate(-552.209 -417.205)"/>
        </g>
        <g id="Group_56239" transform="translate(4210.149 -1164.043)">
            <path id="Path_53609" d="M597.251 417.477V441.7h-3.244l-4.353-24.5z" class="cls-2" transform="translate(-589.655 -417.205)"/>
        </g>
        <g id="Group_56240" transform="translate(4130.667 -1218.39)">
            <path id="Path_53610" d="M466.249 320.3s-12.818-3.7-16.353 1.231-3.911 52.394-3.911 52.394 22.876.416 23.3 0-3.036-53.625-3.036-53.625z" class="cls-2" transform="translate(-445.985 -318.968)"/>
        </g>
        <g id="Group_56241" transform="translate(4149.453 -1273.595)">
            <path id="Path_53611" d="M547.583 320.681l.56-82.3a19.072 19.072 0 0 0-19.16-19.2h-30.21a18.83 18.83 0 0 0-18.825 19.274l1.94 82.227z" class="cls-3" transform="translate(-479.942 -219.18)"/>
        </g>
        <g id="Group_56242" transform="translate(4134.578 -1190.086)">
            <path id="Path_53612" d="M535.57 388.122s-11.648-17.18-25.335-17.742-43.189 0-43.189 0-13.079.5-13.991 16.7v9.555h82.515z" class="cls-3" transform="translate(-453.054 -370.129)"/>
        </g>
        <g id="Group_56244" transform="translate(4133.911 -1190.112)">
            <g id="Group_56243">
                <path id="Path_53613" d="M508.25 370.85l-33.873-.178c-3.537-.018-7.559-.453-10.987.52-10.095 2.866-11.578 15.779-10.775 24.686.033.365-.537.363-.569 0-.673-7.467.115-17.928 6.5-22.9 3.684-2.868 7.966-2.915 12.363-2.892l37.338.2a.285.285 0 0 1 0 .57z" class="cls-4" transform="translate(-451.848 -370.082)"/>
            </g>
        </g>
        <g id="Group_56246" transform="translate(4158.782 -1271.962)">
            <g id="Group_56245">
                <path id="Path_53614" d="M496.806 223.073a8.1 8.1 0 0 1 .868-.261c.293-.05.654-.119 1.085-.183.431-.046.929-.111 1.491-.16 2.248-.193 5.511-.309 9.541-.332 2.015-.013 4.223 0 6.592.032a68.8 68.8 0 0 1 7.565.348 35.142 35.142 0 0 1 4.04.727 18.541 18.541 0 0 1 4.042 1.439 15.414 15.414 0 0 1 3.556 2.67 15.128 15.128 0 0 1 2.756 3.657 10.585 10.585 0 0 1 .839 2.163 15.405 15.405 0 0 1 .346 2.252c.178 1.488.323 2.957.466 4.4.278 2.888.483 5.679.652 8.339.332 5.32.481 10.119.581 14.147s.134 7.289.159 9.543l.019 2.595v.675a1.375 1.375 0 0 1-.01.23 1.318 1.318 0 0 1-.019-.23l-.027-.674-.074-2.594-.251-9.539c-.126-4.026-.3-8.821-.642-14.135-.175-2.657-.386-5.444-.668-8.328-.145-1.442-.292-2.909-.47-4.394a15.234 15.234 0 0 0-.34-2.213 10.325 10.325 0 0 0-.817-2.1 14.878 14.878 0 0 0-2.7-3.587 15.16 15.16 0 0 0-3.484-2.623 18.341 18.341 0 0 0-3.978-1.423 35.061 35.061 0 0 0-4.006-.731 69.751 69.751 0 0 0-7.536-.373c-2.368-.043-4.574-.066-6.588-.066-4.028 0-7.288.081-9.533.24-.561.04-1.058.1-1.489.133l-1.084.155c-.29.052-.5.124-.653.155a1.4 1.4 0 0 1-.229.046z" class="cls-4" transform="translate(-496.806 -222.132)"/>
            </g>
        </g>
        <g id="Group_56248" transform="translate(4202.392 -1249.39)">
            <g id="Group_56247">
                <path id="Path_53615" d="M580.326 262.943a21.489 21.489 0 0 1-4.691 1.65 21.517 21.517 0 0 1 4.691-1.65z" class="cls-4" transform="translate(-575.634 -262.932)"/>
            </g>
        </g>
        <g id="Group_56250" transform="translate(4202.393 -1244.85)">
            <g id="Group_56249">
                <path id="Path_53616" d="M577.779 271.338c0 .08-.486.123-1.078.1s-1.07-.112-1.066-.192.486-.122 1.079-.1 1.069.113 1.065.192z" class="cls-4" transform="translate(-575.635 -271.139)"/>
            </g>
        </g>
        <g id="Group_56259" transform="translate(4180.836 -1253.847)">
            <g id="Group_56252" transform="translate(3.111 7.321)">
                <g id="Group_56251">
                    <path id="Path_53617" d="M543.5 268.41c-.006-.014.1-.079.319-.091a1.272 1.272 0 0 1 .856.311 1.234 1.234 0 0 1 .418 1.284 1.458 1.458 0 0 1-1.263 1.068 1.508 1.508 0 0 1-1.409-.869 1.389 1.389 0 0 1 .1-1.35 1.463 1.463 0 0 1 .692-.589c.2-.077.324-.072.326-.056a1.939 1.939 0 0 0-.841.747 1.2 1.2 0 0 0-.034 1.131 1.267 1.267 0 0 0 1.152.7 1.214 1.214 0 0 0 1.026-.852 1.03 1.03 0 0 0-.3-1.061 1.269 1.269 0 0 0-.724-.35c-.196-.024-.309 0-.318-.023z" class="cls-4" transform="translate(-542.293 -268.109)"/>
                </g>
            </g>
            <g id="Group_56254" transform="translate(2.94)">
                <g id="Group_56253">
                    <path id="Path_53618" d="M544.474 254.877c.03.039-.367.33-.857.933a5.9 5.9 0 0 0-1.039 5.677c.246.737.514 1.151.472 1.176a2.9 2.9 0 0 1-.663-1.106 5.591 5.591 0 0 1 1.076-5.881 2.9 2.9 0 0 1 1.011-.799z" class="cls-4" transform="translate(-541.983 -254.876)"/>
                </g>
            </g>
            <g id="Group_56256" transform="translate(2.776 9.934)">
                <g id="Group_56255">
                    <path id="Path_53619" d="M543.6 281.194a3.782 3.782 0 0 1-.845-1.132 8.274 8.274 0 0 1-1.025-3.254 7.978 7.978 0 0 1 .035-1.892 2.945 2.945 0 0 1 .584-1.452 1.755 1.755 0 0 1 .876-.591c.246-.065.387-.036.386-.021a2.023 2.023 0 0 0-1.1.738 4.945 4.945 0 0 0-.492 3.19 9.293 9.293 0 0 0 .918 3.187c.373.77.699 1.198.663 1.227z" class="cls-4" transform="translate(-541.688 -272.833)"/>
                </g>
            </g>
            <g id="Group_56258" transform="translate(0 8.056)">
                <g id="Group_56257">
                    <path id="Path_53620" d="M536.674 270a2.105 2.105 0 0 1 2.855-.011 3.914 3.914 0 0 0-2.855.011z" class="cls-4" transform="translate(-536.67 -269.438)"/>
                </g>
            </g>
        </g>
        <g id="Group_56268" transform="translate(4161.615 -1253.847)">
            <g id="Group_56261" transform="translate(3.111 7.321)">
                <g id="Group_56260">
                    <path id="Path_53621" d="M508.761 268.41c-.006-.014.1-.079.319-.091a1.27 1.27 0 0 1 .856.311 1.234 1.234 0 0 1 .419 1.284 1.459 1.459 0 0 1-1.263 1.068 1.507 1.507 0 0 1-1.409-.869 1.389 1.389 0 0 1 .1-1.35 1.465 1.465 0 0 1 .691-.589c.2-.077.324-.072.326-.056a1.936 1.936 0 0 0-.841.747 1.2 1.2 0 0 0-.034 1.131 1.266 1.266 0 0 0 1.152.7 1.214 1.214 0 0 0 1.026-.852 1.031 1.031 0 0 0-.3-1.061 1.269 1.269 0 0 0-.724-.35c-.199-.024-.313 0-.318-.023z" class="cls-4" transform="translate(-507.551 -268.109)"/>
                </g>
            </g>
            <g id="Group_56263" transform="translate(2.94)">
                <g id="Group_56262">
                    <path id="Path_53622" d="M509.731 254.877c.03.039-.367.33-.857.933a5.9 5.9 0 0 0-1.038 5.677c.246.737.513 1.151.472 1.176a2.9 2.9 0 0 1-.663-1.106 5.59 5.59 0 0 1 1.076-5.881 2.9 2.9 0 0 1 1.01-.799z" class="cls-4" transform="translate(-507.24 -254.876)"/>
                </g>
            </g>
            <g id="Group_56265" transform="translate(2.776 9.934)">
                <g id="Group_56264">
                    <path id="Path_53623" d="M508.854 281.194a3.79 3.79 0 0 1-.845-1.132 8.275 8.275 0 0 1-1.025-3.254 7.922 7.922 0 0 1 .035-1.892 2.946 2.946 0 0 1 .584-1.452 1.753 1.753 0 0 1 .876-.591c.245-.065.387-.036.386-.021a2.025 2.025 0 0 0-1.1.738 4.945 4.945 0 0 0-.493 3.19 9.292 9.292 0 0 0 .918 3.187c.377.77.704 1.198.664 1.227z" class="cls-4" transform="translate(-506.945 -272.833)"/>
                </g>
            </g>
            <g id="Group_56267" transform="translate(0 8.056)">
                <g id="Group_56266">
                    <path id="Path_53624" d="M501.931 270a2.106 2.106 0 0 1 2.856-.011 3.915 3.915 0 0 0-2.856.011z" class="cls-4" transform="translate(-501.927 -269.438)"/>
                </g>
            </g>
        </g>
        <g id="Group_56271" transform="translate(4189.433 -1219.453)">
            <g id="Group_56269">
                <path id="Path_53625" d="M579.519 318.89s-19.6-5.07-23.141 1.6-4.17 52.625-4.17 52.625 28.3 1.042 28.366-.15-1.055-54.075-1.055-54.075z" class="cls-2" transform="translate(-552.209 -317.045)"/>
            </g>
            <g id="Group_56270" transform="translate(7.424 .527)">
                <path id="Path_53626" d="M586.573 319.1s-12.943-3.33-16.478 1.6-4.466 53.075-4.466 53.075 20.656.61 21.078.193-.134-54.868-.134-54.868z" class="cls-3" transform="translate(-565.629 -317.997)"/>
            </g>
        </g>
        <g id="Group_56273" transform="translate(4209.32 -1194.164)">
            <g id="Group_56272">
                <path id="Path_53627" d="M589.058 363.088c-.013-.008.05-.112.243-.129a.658.658 0 0 1 .625.411 2.079 2.079 0 0 1 .116 1.091 1.055 1.055 0 0 1-.308.62.857.857 0 0 1-.735.2 1 1 0 0 1-.773-.663 1.317 1.317 0 0 1 .019-.891 1.811 1.811 0 0 1 .823-.9l.016.115c-.217-.092-.33-.153-.323-.175s.134 0 .363.052l.121.029-.105.087a1.945 1.945 0 0 0-.664.872 1.106 1.106 0 0 0 .011.714.725.725 0 0 0 .563.475.628.628 0 0 0 .732-.583 2.063 2.063 0 0 0-.042-.963.548.548 0 0 0-.44-.38c-.149-.02-.229.038-.242.018z" class="cls-4" transform="translate(-588.156 -362.758)"/>
            </g>
        </g>
        <g id="Group_56275" transform="translate(4206.534 -1202.567)">
            <g id="Group_56274">
                <path id="Path_53628" d="M583.124 347.569a5.9 5.9 0 0 1 .806 1.174 27.48 27.48 0 0 1 2.732 6.291 5.912 5.912 0 0 1 .309 1.39 8.446 8.446 0 0 1-.5-1.328c-.29-.825-.71-1.957-1.24-3.179s-1.071-2.3-1.476-3.075a8.564 8.564 0 0 1-.631-1.273z" class="cls-4" transform="translate(-583.121 -347.569)"/>
            </g>
        </g>
        <g id="Group_56277" transform="translate(4210.724 -1201.757)">
            <g id="Group_56276">
                <path id="Path_53629" d="M594.235 349.035a6.442 6.442 0 0 1-.5 1.208c-.335.732-.8 1.743-1.285 2.869s-.907 2.156-1.21 2.9a6.408 6.408 0 0 1-.537 1.192 5.491 5.491 0 0 1 .346-1.263c.256-.767.647-1.813 1.137-2.946s.984-2.134 1.367-2.845a5.464 5.464 0 0 1 .682-1.115z" class="cls-4" transform="translate(-590.695 -349.034)"/>
            </g>
        </g>
        <g id="Group_56279" transform="translate(4206.616 -1191.919)">
            <g id="Group_56278">
                <path id="Path_53630" d="M583.278 380.566a2.106 2.106 0 0 1 .035-.556c.04-.355.113-.867.212-1.5.2-1.262.52-3 .948-4.9s.886-3.609 1.247-4.834c.181-.613.335-1.106.451-1.444a2.07 2.07 0 0 1 .207-.517 16.587 16.587 0 0 1-.463 2.015c-.311 1.236-.734 2.947-1.162 4.844s-.78 3.623-1.03 4.873a16.444 16.444 0 0 1-.445 2.019z" class="cls-4" transform="translate(-583.269 -366.816)"/>
            </g>
        </g>
        <g id="Group_56281" transform="translate(4210.805 -1191.874)">
            <g id="Group_56280">
                <path id="Path_53631" d="M594.284 375.331a7.325 7.325 0 0 1-.465-1.256c-.264-.781-.644-1.853-1.118-3.016s-.954-2.195-1.312-2.938a7.321 7.321 0 0 1-.546-1.223 5.381 5.381 0 0 1 .727 1.129 27.621 27.621 0 0 1 2.443 5.989 5.42 5.42 0 0 1 .271 1.315z" class="cls-4" transform="translate(-590.84 -366.897)"/>
            </g>
        </g>
        <path id="Rectangle_963" d="M0 0H3.745V14.89H0z" class="cls-2" transform="rotate(180 2023.886 -569.72)"/>
        <path id="Rectangle_964" d="M0 0H3.745V14.89H0z" class="cls-2" transform="rotate(180 2000.252 -569.72)"/>
        <path id="Rectangle_965" d="M0 0H3.745V14.89H0z" class="cls-2" transform="rotate(180 2011.432 -569.72)"/>
        <path id="Rectangle_966" d="M0 0H3.745V14.89H0z" class="cls-1" transform="rotate(180 1991.336 -569.72)"/>
        <path id="Rectangle_967" fill="#9ba6b1" d="M0 0H51.083V34.334H0z" transform="translate(3996.689 -1188.663)"/>
        <path id="Rectangle_968" d="M0 0H18.423V34.334H0z" class="cls-2" transform="translate(3978.266 -1188.663)"/>
        <g id="Group_56290" transform="translate(4001.432 -1182.564)">
            <path id="Path_53632" d="M212.465 394.795a1.844 1.844 0 0 0 .008-.194c0-.136 0-.319.009-.556 0-.5.012-1.216.02-2.144l.046-8.024-.084.083 41.115.054c-.06-.061.139.136-.134-.137v10.919l.134-.134-29.328.061-8.64.038-2.331.018-.607.008c-.138 0-.212.009-.212.009a1.614 1.614 0 0 0 .2.008l.591.009 2.3.018 8.609.038 29.42.061h.133v-.134-5.37-2.756-2.793c-.273-.273-.077-.076-.139-.137l-41.115.054h-.084v.083l.046 8.074.02 2.125c0 .231.006.409.008.542a1.338 1.338 0 0 0 .015.177z" class="cls-1" transform="translate(-212.381 -383.727)"/>
        </g>
        <path id="Path_53633" d="M246.439 392.411a1.8 1.8 0 1 0 1.8-1.8 1.8 1.8 0 0 0-1.8 1.8z" class="cls-1" transform="translate(3773.834 -1569.366)"/>
        <path id="Path_53634" d="M274.99 349.031l-2.013 2.893s4.529 1.257 4.529 5.283-2.768 4.78-5.787 4.78-5.912-.881-5.786-4.906a6.479 6.479 0 0 1 3.9-5.535l-1.887-2.516z" class="cls-6" transform="translate(3765.127 -1550.789)"/>
        <g id="Group_56294" transform="translate(3983.252 -1196.421)">
            <path id="Path_53635" d="M179.52 358.678v7.372h31.7a3.686 3.686 0 0 0 3.686-3.686 3.686 3.686 0 0 0-3.686-3.686" class="cls-2" transform="translate(-179.52 -358.678)"/>
        </g>
        <g id="Group_56295" transform="translate(3983.252 -1194.876)">
            <path id="Rectangle_969" d="M1.746 0h10.833v4.281H1.746A1.746 1.746 0 0 1 0 2.536v-.79A1.746 1.746 0 0 1 1.746 0z" class="cls-7" transform="rotate(180 6.29 2.14)"/>
        </g>
        <g id="Group_56297" transform="translate(3983.252 -1203.502)">
            <path id="Path_53636" d="M179.52 345.879v7.372h31.7a3.686 3.686 0 0 0 3.686-3.686 3.686 3.686 0 0 0-3.686-3.686z" class="cls-6" transform="translate(-179.52 -345.879)"/>
        </g>
        <g id="Group_56298" transform="translate(3983.252 -1201.957)">
            <path id="Rectangle_970" d="M1.746 0h10.833v4.281H1.746A1.746 1.746 0 0 1 0 2.536v-.79A1.746 1.746 0 0 1 1.746 0z" class="cls-1" transform="rotate(180 6.29 2.14)"/>
        </g>
        <path id="Rectangle_971" d="M0 0H1.107V57.947H0z" class="cls-2" transform="rotate(-65.376 1091.354 -3933.098)"/>
        <path id="Rectangle_972" d="M0 0H1.106V144.835H0z" class="cls-2" transform="translate(4251.754 -1284.379)"/>
        <rect id="Rectangle_973" width="2.852" height="19.439" class="cls-6" rx="1.426" transform="rotate(180 2126.921 -613.318)"/>
        <path id="Path_53637" d="M589.329 161.913l-1.471 2.532-6.55-3.808 1.669-2.6a3.722 3.722 0 0 1 4.889-1.272 3.722 3.722 0 0 1 1.463 5.148z" class="cls-8" transform="translate(3624.223 -1464.691)"/>
        <path id="Path_53638" d="M574.669 166.93l3.735 17.664-27.078-15.337 16.587-5.137z" class="cls-6" transform="translate(3637.618 -1468.176)"/>
        <path id="Path_53639" d="M548.87 173.732c1.356-2.506 8.828-1.088 16.689 3.167s13.135 9.735 11.779 12.24-8.828 1.088-16.689-3.167-13.135-9.734-11.779-12.24z" class="cls-2" transform="translate(3638.81 -1471.917)"/>
        <path id="Path_53640" d="M668.481 458H637.2s4.654-4.74 15.858-4.283S668.481 458 668.481 458z" class="cls-2" transform="translate(3599.253 -1597.548)"/>
        <path id="Path_53641" d="M662.025 198.012a2.122 2.122 0 1 0 2.122-2.122 2.122 2.122 0 0 0-2.122 2.122z" class="cls-6" transform="translate(3588.16 -1482.37)"/>
        <path id="Path_53642" d="M592.805 155.773l1.483-2.516-1.285-.48-1.172 2.639z" class="cls-8" transform="translate(3619.522 -1463.108)"/>
        <g id="Group_56310" transform="translate(4205.532 -1304.28)">
            <path id="Path_53643" d="M581.309 163.79a10.229 10.229 0 0 1 7.111 3.276 3.243 3.243 0 0 0-.732-.949 8.188 8.188 0 0 0-5.181-2.387 3.244 3.244 0 0 0-1.198.06z" class="cls-1" transform="translate(-581.309 -163.714)"/>
        </g>
        <g id="Group_56312" transform="translate(4198.041 -1295.401)">
            <path id="Path_53644" d="M576.064 181.273v5.265a2.537 2.537 0 0 1-.592 1.681c-.673.766-2.071 1.374-4.9-.122-3.327-1.758-3-3.731-2.459-4.8a2.615 2.615 0 0 1 1.027-1.074l4.225-2.461z" class="cls-7" transform="translate(-567.769 -179.763)"/>
        </g>
        <g id="Group_56314" transform="translate(4200.957 -1294.86)">
            <g id="Group_56313">
                <path id="Path_53645" d="M576.641 180.742a4.151 4.151 0 0 0-.313.615 16.785 16.785 0 0 1-.913 1.631c-.21.334-.454.691-.726 1.067a2.284 2.284 0 0 1-.463.5.615.615 0 0 1-.592.124.489.489 0 0 1 .1-.942 1.362 1.362 0 0 1 .751.176q.394.186.781.413c.257.152.5.314.74.484s.423.344.4.566a1.431 1.431 0 0 1-.291.673c-.141.163-.352.113-.487-.061a.624.624 0 0 1-.061-.607 3.937 3.937 0 0 1 .309-.626l.627-1.136.891-1.656a3.143 3.143 0 0 0 .292-.627 3.186 3.186 0 0 0-.391.571l-.971 1.61-.658 1.119a3.985 3.985 0 0 0-.342.663 1.128 1.128 0 0 0-.068.419.758.758 0 0 0 .158.434.672.672 0 0 0 .411.264.55.55 0 0 0 .489-.174 1.37 1.37 0 0 0 .243-.393 1.345 1.345 0 0 0 .132-.454.714.714 0 0 0-.157-.5 1.7 1.7 0 0 0-.356-.319c-.242-.176-.5-.343-.761-.5s-.533-.3-.8-.425a1.608 1.608 0 0 0-.923-.2.779.779 0 0 0-.643.7.767.767 0 0 0 .5.77.874.874 0 0 0 .843-.171 2.5 2.5 0 0 0 .5-.566c.267-.386.5-.755.705-1.1a12.355 12.355 0 0 0 .841-1.692 2.561 2.561 0 0 0 .203-.65z" class="cls-1" transform="translate(-573.039 -180.742)"/>
            </g>
        </g>
        <g id="Group_56317" transform="translate(3991.751 -1303.444)">
            <path id="Rectangle_974" d="M0 0H59.616V39.196H0z" class="cls-2" transform="rotate(-90 29.808 29.808)"/>
        </g>
        <g id="Group_56319" transform="translate(3993.354 -1301.339)">
            <path id="Rectangle_975" fill="#f4f4f4" d="M0 0H55.438V35.841H0z" transform="rotate(-90 27.719 27.719)"/>
        </g>
        <g id="Group_56321" transform="translate(4006.418 -1282.663)">
            <path id="Rectangle_976" d="M0 0H18.086V9.862H0z" class="cls-2" transform="rotate(-90 9.043 9.043)"/>
        </g>
        <path id="Path_53646" d="M395.616 461.594c0 .08-73.571.144-164.3.144-90.764 0-164.319-.064-164.319-.144s73.554-.144 164.319-.144c90.729 0 164.3.065 164.3.144z" class="cls-10" transform="translate(3854.006 -1601.015)"/>
        <g id="Group_56326" transform="translate(3953.068 -1344.359)">
            <path id="Rectangle_977" d="M7.646 0h24.68v15.293H7.646A7.646 7.646 0 0 1 0 7.646 7.646 7.646 0 0 1 7.646 0z" class="cls-11"/>
        </g>
        <g id="Group_56327" class="cls-12" transform="translate(3953.068 -1344.359)">
            <path id="Rectangle_978" d="M7.646 0h24.68v15.293H7.646A7.646 7.646 0 0 1 0 7.646 7.646 7.646 0 0 1 7.646 0z" class="cls-4"/>
        </g>
        <g id="Group_56328" transform="translate(3985.395 -1344.359)">
            <path id="Rectangle_979" d="M0 0H32.327V15.293H0z" class="cls-11"/>
        </g>
        <g id="Group_56329" opacity="0.5" transform="translate(3985.395 -1344.359)">
            <path id="Rectangle_980" d="M0 0H32.327V15.293H0z" class="cls-4"/>
        </g>
        <g id="Group_56330" transform="translate(4017.722 -1344.359)">
            <path id="Rectangle_981" d="M0 0H32.327V15.293H0z" class="cls-11"/>
        </g>
        <g id="Group_56331" opacity="0.3" transform="translate(4017.722 -1344.359)">
            <path id="Rectangle_982" d="M0 0H32.327V15.293H0z" class="cls-4"/>
        </g>
        <g id="Group_56332" transform="translate(4050.049 -1344.359)">
            <path id="Rectangle_983" d="M0 0H32.327V15.293H0z" class="cls-11"/>
        </g>
        <g id="Group_56333" opacity="0.1" transform="translate(4050.049 -1344.359)">
            <path id="Rectangle_984" d="M0 0H32.327V15.293H0z" class="cls-4"/>
        </g>
        <g id="Group_56334" transform="translate(4082.243 -1344.359)">
            <path id="Rectangle_985" d="M0 0H32.327V15.293H0z" class="cls-11"/>
        </g>
        <g id="Group_56335" transform="translate(4114.46 -1344.359)">
            <path id="Rectangle_986" d="M0 0H32.327V15.293H0z" class="cls-11"/>
        </g>
        <g id="Group_56336" opacity="0.2" transform="translate(4114.46 -1344.359)">
            <path id="Rectangle_987" d="M0 0H32.327V15.293H0z"/>
        </g>
        <g id="Group_56337" transform="translate(4146.677 -1344.359)">
            <path id="Rectangle_988" d="M0 0H32.327V15.293H0z" class="cls-11"/>
        </g>
        <g id="Group_56338" transform="translate(4178.893 -1344.359)">
            <path id="Rectangle_989" d="M0 0h24.68a7.646 7.646 0 0 1 7.646 7.646 7.646 7.646 0 0 1-7.646 7.646H0V0z" class="cls-11"/>
        </g>
        <g id="Group_56339" class="cls-17" transform="translate(4146.677 -1344.359)">
            <path id="Rectangle_990" d="M0 0H32.327V15.293H0z"/>
        </g>
        <g id="Group_56340" class="cls-12" transform="translate(4178.893 -1344.359)">
            <path id="Rectangle_991" d="M0 0h24.68a7.646 7.646 0 0 1 7.646 7.646 7.646 7.646 0 0 1-7.646 7.646H0V0z"/>
        </g>
        <g id="Group_56347" transform="translate(4081.949 -1352.729)">
            <g id="Group_56344">
                <g id="Group_56341" transform="translate(0 2.144)">
                    <circle id="Ellipse_61" cx="11.152" cy="11.152" r="11.152" class="cls-10" transform="rotate(-75.223 13.997 10.784)"/>
                </g>
                <g id="Group_56343" transform="translate(.697)">
                    <g id="Group_56342">
                        <circle id="Ellipse_62" cx="11.152" cy="11.152" r="11.152" class="cls-18" transform="rotate(-45 19.038 7.886)"/>
                    </g>
                </g>
            </g>
            <g id="Group_56346" transform="translate(6.6 5.935)">
                <g id="Group_56345">
                    <path id="Path_53647" d="M389.446 96.7a15.415 15.415 0 0 0-.359-2.361 9.3 9.3 0 0 0-1.087-2.56 9.617 9.617 0 0 0-11.547-4.084A9.009 9.009 0 0 0 374.03 89a8.773 8.773 0 0 0-2.025 2.036 9.542 9.542 0 0 0 0 11.328 8.777 8.777 0 0 0 2.025 2.037 9.007 9.007 0 0 0 2.425 1.308A9.645 9.645 0 0 0 388 101.627a9.314 9.314 0 0 0 1.085-2.564 15.415 15.415 0 0 0 .359-2.36.635.635 0 0 1 .007.158c0 .121-.006.273-.009.464a4.52 4.52 0 0 1-.062.752 6.9 6.9 0 0 1-.185 1.015 9.193 9.193 0 0 1-1.055 2.618 9.8 9.8 0 0 1-6.6 4.663 9.851 9.851 0 0 1-5.174-.411 9.256 9.256 0 0 1-2.5-1.336 9.038 9.038 0 0 1-2.089-2.091 9.8 9.8 0 0 1 0-11.662 9.049 9.049 0 0 1 2.089-2.091 9.251 9.251 0 0 1 2.5-1.335 9.861 9.861 0 0 1 5.174-.412 9.8 9.8 0 0 1 6.6 4.663 9.176 9.176 0 0 1 1.056 2.619 6.9 6.9 0 0 1 .185 1.014 4.524 4.524 0 0 1 .062.752c0 .19.007.343.009.464a.635.635 0 0 1-.006.153z" class="cls-10" transform="translate(-369.854 -86.866)"/>
                </g>
            </g>
        </g>
        <g id="Group_56348" transform="translate(3982.497 -1357.4)">
            <path id="Path_53648" d="M179.773 67.695V72.1h-.623v-3.86h-.995v-.548z" class="cls-10" transform="translate(-178.155 -67.695)"/>
        </g>
        <g id="Group_56349" transform="translate(4016.625 -1357.45)">
            <path id="Path_53649" d="M243.157 71.515v.548h-3.168v-.428l1.795-1.732c.466-.454.554-.731.554-1.008 0-.453-.321-.73-.938-.73a1.385 1.385 0 0 0-1.127.479l-.428-.372a2.034 2.034 0 0 1 1.612-.667c.919 0 1.511.472 1.511 1.228a1.787 1.787 0 0 1-.724 1.385l-1.348 1.3z" class="cls-10" transform="translate(-239.844 -67.604)"/>
        </g>
        <g id="Group_56350" transform="translate(4047.803 -1357.4)">
            <path id="Path_53650" d="M299.489 70.806c0 .743-.548 1.348-1.669 1.348a2.5 2.5 0 0 1-1.618-.536l.289-.5a1.985 1.985 0 0 0 1.329.472c.661 0 1.039-.3 1.039-.781s-.334-.768-1.089-.768h-.352V69.6l1.108-1.36H296.4v-.548h2.909v.428l-1.152 1.423c.885.085 1.332.583 1.332 1.263z" class="cls-10" transform="translate(-296.202 -67.695)"/>
        </g>
        <g id="Group_56351" transform="translate(4080.505 -1357.4)">
            <path id="Path_53651" d="M359.21 71.02h-.838v1.08h-.61v-1.08h-2.45v-.441l2.254-2.884h.68l-2.16 2.783h1.694v-.957h.591v.957h.838z" class="cls-10" transform="translate(-355.312 -67.695)"/>
        </g>
        <g id="Group_56352" transform="translate(4111.823 -1357.4)">
            <path id="Path_53652" d="M415.211 70.78c0 .762-.542 1.373-1.669 1.373a2.525 2.525 0 0 1-1.619-.536l.29-.5a1.98 1.98 0 0 0 1.322.472c.668 0 1.046-.309 1.046-.787 0-.5-.315-.806-1.335-.806h-1l.233-2.3h2.487v.548h-1.958l-.119 1.209h.491c1.314-.002 1.831.547 1.831 1.327z" class="cls-10" transform="translate(-411.923 -67.695)"/>
        </g>
        <g id="Group_56353" transform="translate(4144.729 -1357.45)">
            <path id="Path_53653" d="M474.817 70.721a1.426 1.426 0 0 1-1.562 1.392c-1.184 0-1.851-.793-1.851-2.2a2.033 2.033 0 0 1 2.084-2.311 2.123 2.123 0 0 1 1.1.258l-.24.491a1.529 1.529 0 0 0-.844-.207c-.894 0-1.467.56-1.467 1.662a1.406 1.406 0 0 0 .006.157 1.467 1.467 0 0 1 1.266-.579 1.362 1.362 0 0 1 1.508 1.337zm-.611.025c0-.517-.391-.85-1.007-.85a.915.915 0 0 0-1.014.856c0 .454.365.85 1.046.85a.872.872 0 0 0 .975-.856z" class="cls-10" transform="translate(-471.404 -67.604)"/>
        </g>
        <g id="Group_56354" transform="translate(4178.16 -1357.4)">
            <path id="Path_53654" d="M535.156 67.695v.428l-1.782 3.98h-.667l1.744-3.86h-2.015v.787h-.6v-1.335z" class="cls-10" transform="translate(-531.832 -67.695)"/>
        </g>
        <g id="Group_56357" transform="translate(4093.169 -1338.62)">
            <g id="Group_56356">
                <path id="Path_53655" d="M380.7 105.453a15.347 15.347 0 0 1-2.336-1.825l-.025-.022-.13-.112.133-.108a15.085 15.085 0 0 1 2.358-1.74 15.115 15.115 0 0 1-2.175 1.963v-.221l.025.022a15.306 15.306 0 0 1 2.15 2.043z" class="cls-10" transform="translate(-378.205 -101.642)"/>
            </g>
        </g>
        <g id="Group_56359" transform="translate(4102.177 -1338.62)">
            <g id="Group_56358">
                <path id="Path_53656" d="M394.489 101.645a15.321 15.321 0 0 1 2.336 1.824l.025.022.13.112-.133.108a15.125 15.125 0 0 1-2.358 1.74 15.051 15.051 0 0 1 2.176-1.964v.221l-.025-.022a15.359 15.359 0 0 1-2.151-2.041z" class="cls-10" transform="translate(-394.487 -101.642)"/>
            </g>
        </g>
        <g id="Group_56361" transform="translate(4093.393 -1336.909)">
            <g id="Group_56360">
                <path id="Path_53657" d="M389.364 104.879a100.2 100.2 0 0 1-10.754 0 100.573 100.573 0 0 1 10.754 0z" class="cls-10" transform="translate(-378.61 -104.735)"/>
            </g>
        </g>
        <g id="Group_56364" transform="translate(3925.877 -1345.18)">
            <g id="Group_56363">
                <path id="Path_53658" d="M94.508 99.174a14.976 14.976 0 0 0-.345-2.252 8.875 8.875 0 0 0-1.036-2.445 9.172 9.172 0 0 0-11.011-3.892 8.59 8.59 0 0 0-2.316 1.247 8.378 8.378 0 0 0-1.931 1.942 9.1 9.1 0 0 0 0 10.8 10.339 10.339 0 0 0 .9 1.061 10.229 10.229 0 0 0 1.036.882 8.581 8.581 0 0 0 2.312 1.247 9.2 9.2 0 0 0 11.012-3.892 8.9 8.9 0 0 0 1.036-2.445 14.986 14.986 0 0 0 .345-2.251.591.591 0 0 1 .007.15l-.008.442a4.313 4.313 0 0 1-.059.718 6.542 6.542 0 0 1-.176.968 8.774 8.774 0 0 1-1.006 2.5 9.358 9.358 0 0 1-6.3 4.452 9.406 9.406 0 0 1-4.94-.392 8.82 8.82 0 0 1-2.385-1.275 10.5 10.5 0 0 1-1.07-.906 10.637 10.637 0 0 1-.925-1.09 9.359 9.359 0 0 1 0-11.134 8.621 8.621 0 0 1 1.994-2 8.835 8.835 0 0 1 2.385-1.275 9.416 9.416 0 0 1 4.94-.392 9.358 9.358 0 0 1 6.3 4.452 8.751 8.751 0 0 1 1.006 2.5 6.543 6.543 0 0 1 .176.968 4.3 4.3 0 0 1 .059.718l.008.443a.591.591 0 0 1-.008.151z" class="cls-10" transform="translate(-75.81 -89.783)"/>
            </g>
        </g>
        <g id="Group_56366" transform="translate(3930.554 -1335.934)">
            <g id="Group_56365">
                <path id="Path_53659" d="M93.241 106.641a35.208 35.208 0 0 1-4.488.144 35.208 35.208 0 0 1-4.488-.144 35.022 35.022 0 0 1 4.488-.144 35.022 35.022 0 0 1 4.488.144z" class="cls-10" transform="translate(-84.264 -106.497)"/>
            </g>
        </g>
        <g id="Group_56372" transform="translate(4215.412 -1346.348)">
            <g id="Group_56369">
                <g id="Group_56368">
                    <path id="Path_53660" d="M617.866 97.063a14.8 14.8 0 0 0-.344-2.252 8.88 8.88 0 0 0-1.036-2.445 9.17 9.17 0 0 0-11.011-3.892 8.581 8.581 0 0 0-2.312 1.246 10.282 10.282 0 0 0-1.036.882 10.4 10.4 0 0 0-.895 1.06 9.1 9.1 0 0 0 0 10.8 10.456 10.456 0 0 0 .895 1.06 10.339 10.339 0 0 0 1.036.882 8.586 8.586 0 0 0 2.312 1.247 9.2 9.2 0 0 0 11.011-3.892 8.88 8.88 0 0 0 1.036-2.445 14.813 14.813 0 0 0 .344-2.251.556.556 0 0 1 .007.15c0 .116 0 .262-.008.443a4.3 4.3 0 0 1-.059.718 6.545 6.545 0 0 1-.176.968 8.773 8.773 0 0 1-1.006 2.5 9.358 9.358 0 0 1-6.3 4.452 9.4 9.4 0 0 1-4.94-.392 8.824 8.824 0 0 1-2.384-1.276 8.639 8.639 0 0 1-1.994-2A9.356 9.356 0 0 1 601 91.5a8.609 8.609 0 0 1 1.994-2 8.85 8.85 0 0 1 2.385-1.275 9.407 9.407 0 0 1 4.939-.392 9.355 9.355 0 0 1 6.3 4.451 8.754 8.754 0 0 1 1.006 2.5 6.538 6.538 0 0 1 .176.968 4.3 4.3 0 0 1 .059.718c0 .18.005.326.008.443a.556.556 0 0 1-.001.15z" class="cls-10" transform="translate(-599.168 -87.673)"/>
                </g>
            </g>
            <g id="Group_56371" transform="translate(4.677 9.247)">
                <g id="Group_56370">
                    <path id="Path_53661" d="M616.6 104.531a70.1 70.1 0 0 1-8.977 0 70.112 70.112 0 0 1 8.977 0z" class="cls-10" transform="translate(-607.622 -104.387)"/>
                </g>
            </g>
        </g>
        <g id="Group_56374" transform="translate(4224.433 -1341.602)">
            <g id="Group_56373">
                <path id="Path_53662" d="M615.619 104.922a32.693 32.693 0 0 1-.144-4.335 32.692 32.692 0 0 1 .144-4.336 32.847 32.847 0 0 1 .144 4.336 32.848 32.848 0 0 1-.144 4.335z" class="cls-10" transform="translate(-615.475 -96.251)"/>
            </g>
        </g>
        <g id="Group_56379" transform="translate(3973.321 -1210.439)">
            <g id="Group_56378">
                <g id="Group_56377">
                    <path id="Path_53663" d="M167.119 370.755c-5.34-4.393-6.046-11.822-5.3-18.391a7.179 7.179 0 0 1 .693-3.189 2.246 2.246 0 0 1 2.819-.946c.787.449 1.068 1.427 1.463 2.248a6.452 6.452 0 0 0 2.386 2.665 2.456 2.456 0 0 0 2.242.382c.989-.449 1.2-1.75 1.283-2.845l.443-6.118a10.216 10.216 0 0 1 .586-3.223 3.4 3.4 0 0 1 2.312-2.126 2.065 2.065 0 0 1 2.439 1.579 10.11 10.11 0 0 1-.076 1.364 1.154 1.154 0 0 0 .588 1.136 1.326 1.326 0 0 0 1.24-.408 14.566 14.566 0 0 0 2.92-3.736 20.268 20.268 0 0 1 2.755-3.876 5.93 5.93 0 0 1 4.184-1.932 3.552 3.552 0 0 1 3.441 2.7c.275 1.573-.747 3.067-1.824 4.238a24.5 24.5 0 0 1-5.464 4.445 2.015 2.015 0 0 0-.922.847c-.295.711.339 1.489 1.04 1.785a12.654 12.654 0 0 0 2.53.488 2.467 2.467 0 0 1 2 1.448c.36 1.153-.667 2.251-1.647 2.946a20.973 20.973 0 0 1-6.47 3.086 7.082 7.082 0 0 0-2.388.937 2.031 2.031 0 0 0-.831 2.268 2.068 2.068 0 0 0 2.173 1.037 14.606 14.606 0 0 0 2.472-.728c1.548-.449 3.48-.193 4.341 1.182a3.472 3.472 0 0 1 .127 3.09 7.99 7.99 0 0 1-1.87 2.572 21.088 21.088 0 0 1-9.475 5.6c-3.581.935-6.837 1.008-10.2-.532" class="cls-11" transform="translate(-161.569 -333.34)"/>
                </g>
            </g>
        </g>
        <g id="Group_56382" class="cls-17" transform="translate(3972.768 -1210.439)">
            <g id="Group_56381">
                <g id="Group_56380">
                    <path id="Path_53664" d="M167.119 370.755c-5.34-4.393-6.046-11.822-5.3-18.391a7.179 7.179 0 0 1 .693-3.189 2.246 2.246 0 0 1 2.819-.946c.787.449 1.068 1.427 1.463 2.248a6.452 6.452 0 0 0 2.386 2.665 2.456 2.456 0 0 0 2.242.382c.989-.449 1.2-1.75 1.283-2.845l.443-6.118a10.216 10.216 0 0 1 .586-3.223 3.4 3.4 0 0 1 2.312-2.126 2.065 2.065 0 0 1 2.439 1.579 10.11 10.11 0 0 1-.076 1.364 1.154 1.154 0 0 0 .588 1.136 1.326 1.326 0 0 0 1.24-.408 14.566 14.566 0 0 0 2.92-3.736 20.268 20.268 0 0 1 2.755-3.876 5.93 5.93 0 0 1 4.184-1.932 3.552 3.552 0 0 1 3.441 2.7c.275 1.573-.747 3.067-1.824 4.238a24.5 24.5 0 0 1-5.464 4.445 2.015 2.015 0 0 0-.922.847c-.295.711.339 1.489 1.04 1.785a12.654 12.654 0 0 0 2.53.488 2.467 2.467 0 0 1 2 1.448c.36 1.153-.667 2.251-1.647 2.946a20.973 20.973 0 0 1-6.47 3.086 7.082 7.082 0 0 0-2.388.937 2.031 2.031 0 0 0-.831 2.268 2.068 2.068 0 0 0 2.173 1.037 14.606 14.606 0 0 0 2.472-.728c1.548-.449 3.48-.193 4.341 1.182a3.472 3.472 0 0 1 .127 3.09 7.99 7.99 0 0 1-1.87 2.572 21.088 21.088 0 0 1-9.475 5.6c-3.581.935-6.837 1.008-10.2-.532" transform="translate(-161.569 -333.34)"/>
                </g>
            </g>
        </g>
        <g id="Group_56386" transform="translate(3977.873 -1209.361)">
            <g id="Group_56385">
                <g id="Group_56384">
                    <g id="Group_56383">
                        <path id="Path_53665" d="M195.745 335.288a.782.782 0 0 1-.114.1l-.347.264c-.306.231-.758.571-1.328 1.025a41.182 41.182 0 0 0-4.531 4.18c-.893.949-1.83 2.03-2.813 3.209s-2.023 2.45-3.067 3.824a49.557 49.557 0 0 0-3.066 4.462c-.487.8-.932 1.648-1.386 2.51l-1.374 2.621a100.868 100.868 0 0 0-4.725 10.217 49.01 49.01 0 0 0-2.528 8.831 35.9 35.9 0 0 0-.588 6.168c0 .732.011 1.3.033 1.687l.016.439a.075.075 0 1 1-.02 0l-.037-.438c-.034-.385-.059-.955-.07-1.69a34.261 34.261 0 0 1 .527-6.194 48.123 48.123 0 0 1 2.5-8.873 98.289 98.289 0 0 1 4.72-10.245l1.375-2.622c.454-.859.9-1.712 1.394-2.518a49 49 0 0 1 3.088-4.473c1.051-1.375 2.1-2.642 3.086-3.819s1.935-2.254 2.837-3.2a38.973 38.973 0 0 1 4.587-4.143c.578-.445 1.037-.776 1.352-1l.359-.248a.866.866 0 0 1 .12-.074z" class="cls-10" transform="translate(-169.797 -335.288)"/>
                    </g>
                </g>
            </g>
        </g>
        <g id="Group_56390" transform="translate(3987.787 -1204.566)">
            <g id="Group_56389">
                <g id="Group_56388">
                    <g id="Group_56387">
                        <path id="Path_53666" d="M188.374 356.114a2.237 2.237 0 0 1-.07-.475c-.034-.307-.068-.752-.1-1.3-.069-1.1-.113-2.625-.154-4.305s-.106-3.2-.191-4.3c-.041-.549-.079-.992-.11-1.3a2.214 2.214 0 0 1-.024-.48 2.207 2.207 0 0 1 .1.47c.054.3.114.746.173 1.3.122 1.1.21 2.622.252 4.3l.095 4.3.038 1.3a2.169 2.169 0 0 1-.009.49z" class="cls-10" transform="translate(-187.717 -343.956)"/>
                    </g>
                </g>
            </g>
        </g>
        <g id="Group_56394" transform="translate(3988.444 -1194.022)">
            <g id="Group_56393">
                <g id="Group_56392">
                    <g id="Group_56391">
                        <path id="Path_53667" d="M203.171 363.107a3.053 3.053 0 0 1-.566.023c-.363 0-.889.006-1.538.03-1.3.038-3.091.153-5.063.366s-3.748.489-5.027.723c-.641.113-1.156.217-1.514.288a2.976 2.976 0 0 1-.559.091 3.033 3.033 0 0 1 .542-.169c.352-.094.865-.221 1.5-.352 1.276-.271 3.055-.567 5.033-.784a49.6 49.6 0 0 1 5.081-.307c.652-.006 1.179.013 1.543.034a2.991 2.991 0 0 1 .568.057z" class="cls-10" transform="translate(-188.904 -363.015)"/>
                    </g>
                </g>
            </g>
        </g>
        <g id="Group_56398" transform="translate(3975.422 -1195.78)">
            <g id="Group_56397">
                <g id="Group_56396">
                    <g id="Group_56395">
                        <path id="Path_53668" d="M171.034 378.352a.726.726 0 0 1-.083-.179l-.2-.527c-.172-.459-.4-1.13-.679-1.962-.552-1.664-1.241-3.987-1.968-6.56s-1.394-4.9-1.91-6.573l-.617-1.98-.165-.54a.725.725 0 0 1-.044-.193.755.755 0 0 1 .083.18l.2.527c.172.459.4 1.13.679 1.962.552 1.664 1.241 3.987 1.968 6.561s1.394 4.9 1.91 6.573l.617 1.979.165.54a.735.735 0 0 1 .044.192z" class="cls-10" transform="translate(-165.366 -359.837)"/>
                    </g>
                </g>
            </g>
        </g>
        <g id="Group_56402" transform="translate(3981.09 -1181.82)">
            <g id="Group_56401">
                <g id="Group_56400">
                    <g id="Group_56399">
                        <path id="Path_53669" d="M194.77 385.073a.728.728 0 0 1-.191.062l-.557.139-2.052.491c-1.733.415-4.119 1.016-6.754 1.683s-5.031 1.247-6.772 1.627c-.871.19-1.577.336-2.067.428l-.565.1a.723.723 0 0 1-.2.022.767.767 0 0 1 .191-.062l.557-.139 2.051-.491c1.732-.415 4.119-1.016 6.755-1.683s5.029-1.247 6.771-1.626c.871-.19 1.577-.337 2.067-.428l.565-.1a.75.75 0 0 1 .201-.023z" class="cls-10" transform="translate(-175.612 -385.071)"/>
                    </g>
                </g>
            </g>
        </g>
        <g id="Group_56406" transform="translate(3933.134 -1237.035)">
            <g id="Group_56405">
                <g id="Group_56404">
                    <path id="Path_53670" d="M129.778 343.033c8.246-6.782 9.336-18.253 8.19-28.4-.191-1.693-.146-3.5-1.07-4.924s-2.89-2.3-4.353-1.461c-1.214.693-1.648 2.2-2.258 3.471a9.959 9.959 0 0 1-3.683 4.116 3.794 3.794 0 0 1-3.461.59c-1.528-.693-1.86-2.7-1.982-4.392l-.683-9.446a15.794 15.794 0 0 0-.9-4.975 5.254 5.254 0 0 0-3.578-3.278 3.187 3.187 0 0 0-3.765 2.439 15.68 15.68 0 0 0 .117 2.106 1.782 1.782 0 0 1-.907 1.754 2.048 2.048 0 0 1-1.915-.63 22.526 22.526 0 0 1-4.51-5.768 31.222 31.222 0 0 0-4.253-5.984 9.158 9.158 0 0 0-6.46-2.984 5.484 5.484 0 0 0-5.307 4.17c-.425 2.429 1.153 4.735 2.816 6.543a37.833 37.833 0 0 0 8.436 6.863 3.11 3.11 0 0 1 1.424 1.308c.455 1.1-.523 2.3-1.606 2.756a19.571 19.571 0 0 1-3.906.754 3.808 3.808 0 0 0-3.085 2.235c-.556 1.78 1.03 3.476 2.543 4.549a32.408 32.408 0 0 0 9.99 4.764 10.919 10.919 0 0 1 3.687 1.447 3.136 3.136 0 0 1 1.283 3.5 3.193 3.193 0 0 1-3.356 1.6 22.6 22.6 0 0 1-3.817-1.124c-2.389-.693-5.373-.3-6.7 1.825a5.36 5.36 0 0 0-.2 4.77A12.343 12.343 0 0 0 99.4 335.2a32.573 32.573 0 0 0 14.63 8.652c5.529 1.443 10.557 1.556 15.753-.821" class="cls-11" transform="translate(-88.927 -285.265)"/>
                </g>
            </g>
        </g>
        <g id="Group_56410" transform="translate(3935.462 -1235.371)">
            <g id="Group_56409">
                <g id="Group_56408">
                    <g id="Group_56407">
                        <path id="Path_53671" d="M93.135 288.273a1.146 1.146 0 0 0 .176.148l.536.408c.473.356 1.171.881 2.05 1.582a63.592 63.592 0 0 1 7 6.454c1.38 1.466 2.824 3.135 4.343 4.955s3.124 3.782 4.736 5.9a76.746 76.746 0 0 1 4.733 6.889c.752 1.239 1.439 2.544 2.139 3.875l2.121 4.046a155.561 155.561 0 0 1 7.3 15.776 75.652 75.652 0 0 1 3.9 13.634 55.355 55.355 0 0 1 .908 9.524c0 1.131-.017 2.01-.05 2.605l-.025.678a1.382 1.382 0 0 0 0 .232 1.277 1.277 0 0 0 .03-.23l.056-.676c.053-.594.091-1.474.109-2.608a52.974 52.974 0 0 0-.813-9.564 74.367 74.367 0 0 0-3.853-13.7 151.864 151.864 0 0 0-7.287-15.818l-2.123-4.048c-.7-1.327-1.394-2.643-2.152-3.888a75.8 75.8 0 0 0-4.768-6.906c-1.623-2.123-3.24-4.079-4.765-5.9s-2.988-3.48-4.382-4.941a60.127 60.127 0 0 0-7.082-6.4c-.892-.687-1.6-1.2-2.087-1.537l-.554-.383a1.326 1.326 0 0 0-.196-.107z" class="cls-10" transform="translate(-93.135 -288.272)"/>
                    </g>
                </g>
            </g>
        </g>
        <g id="Group_56414" transform="translate(3959.186 -1227.967)">
            <g id="Group_56413">
                <g id="Group_56412">
                    <g id="Group_56411">
                        <path id="Path_53672" d="M136.038 320.428a3.449 3.449 0 0 0 .108-.733c.052-.474.1-1.161.157-2.012.107-1.7.174-4.052.237-6.646s.164-4.941.3-6.634c.064-.847.122-1.532.169-2a3.373 3.373 0 0 0 .037-.741 3.409 3.409 0 0 0-.157.725c-.084.469-.176 1.153-.267 2-.189 1.695-.325 4.048-.389 6.646l-.147 6.645-.058 2.014a3.354 3.354 0 0 0 .01.736z" class="cls-10" transform="translate(-136.018 -301.657)"/>
                    </g>
                </g>
            </g>
        </g>
        <g id="Group_56418" transform="translate(3937.177 -1211.687)">
            <g id="Group_56417">
                <g id="Group_56416">
                    <g id="Group_56415">
                        <path id="Path_53673" d="M96.235 331.225a4.681 4.681 0 0 0 .874.035c.561.006 1.373.01 2.375.047 2.005.058 4.773.236 7.817.565s5.787.756 7.762 1.117c.989.174 1.786.336 2.337.444a4.57 4.57 0 0 0 .864.141 4.685 4.685 0 0 0-.837-.261c-.544-.146-1.336-.341-2.323-.544-1.969-.419-4.716-.875-7.771-1.212a76.9 76.9 0 0 0-7.845-.474c-1.007-.008-1.821.021-2.382.054a4.618 4.618 0 0 0-.871.088z" class="cls-10" transform="translate(-96.235 -331.083)"/>
                    </g>
                </g>
            </g>
        </g>
        <g id="Group_56422" transform="translate(3970.557 -1214.402)">
            <g id="Group_56421">
                <g id="Group_56420">
                    <g id="Group_56419">
                        <path id="Path_53674" d="M156.575 354.764a1.137 1.137 0 0 0 .128-.277l.309-.814c.266-.709.623-1.744 1.048-3.029.852-2.57 1.917-6.156 3.038-10.129s2.153-7.566 2.95-10.149l.953-3.058.254-.834a1.108 1.108 0 0 0 .069-.3 1.15 1.15 0 0 0-.128.277l-.31.814c-.266.709-.623 1.744-1.048 3.029-.852 2.569-1.917 6.156-3.039 10.13s-2.152 7.565-2.949 10.148l-.953 3.057-.254.833a1.12 1.12 0 0 0-.068.302z" class="cls-10" transform="translate(-156.573 -326.177)"/>
                    </g>
                </g>
            </g>
        </g>
        <g id="Group_56426" transform="translate(3940.98 -1192.848)">
            <g id="Group_56425">
                <g id="Group_56424">
                    <g id="Group_56423">
                        <path id="Path_53675" d="M103.109 365.142a1.162 1.162 0 0 0 .3.1l.86.215 3.168.758c2.675.641 6.359 1.568 10.429 2.6s7.767 1.925 10.456 2.51c1.344.294 2.434.52 3.191.661l.872.157a1.154 1.154 0 0 0 .309.034 1.207 1.207 0 0 0-.3-.1l-.86-.214-3.168-.758c-2.675-.64-6.359-1.568-10.43-2.6s-7.766-1.925-10.455-2.511c-1.344-.293-2.434-.52-3.191-.661l-.872-.157a1.1 1.1 0 0 0-.309-.034z" class="cls-10" transform="translate(-103.109 -365.138)"/>
                    </g>
                </g>
            </g>
        </g>
        <g id="Group_56428" transform="translate(3963.799 -1159.805)">
            <path id="Path_53676" d="M144.356 424.865l.757 20.366h21.942l1.736-20.366z" class="cls-10" transform="translate(-144.356 -424.865)"/>
        </g>
        <g id="Group_56429" transform="translate(3961.679 -1166.537)">
            <path id="Rectangle_992" d="M0 0H29.173V6.732H0z" class="cls-10"/>
        </g>
        <g id="Group_56431" transform="translate(3963.981 -1160.055)">
            <g id="Group_56430">
                <path id="Path_53677" d="M169.244 424.551c0 .075-5.5.137-12.278.137s-12.28-.061-12.28-.137 5.5-.137 12.28-.137 12.278.061 12.278.137z" class="cls-18" transform="translate(-144.686 -424.414)"/>
            </g>
        </g>
        <g id="Group_56434" transform="translate(4100.557 -1253.229)">
            <path id="Path_53678" d="M445.422 366.345L426.9 270.473l.024-.006c-.035-.142-.07-.277-.106-.417v-.018c-2.842-11.273-5.087-14.039-5.087-14.039l-27.705.756c-2.174 3.908-2.449 13.283-2.449 13.283-.3 1.148 3.97 94.412 3.97 94.412l11.484-.034 3.135-88.446 24.778 90.612z" class="cls-10" transform="translate(-391.558 -255.994)"/>
        </g>
        <g id="Group_56436" transform="translate(4112.63 -1236.261)">
            <g id="Group_56435">
                <path id="Path_53679" d="M427.24 286.673c.023.091-3.06.967-6.887 1.958s-6.949 1.719-6.972 1.629 3.059-.968 6.887-1.958 6.948-1.721 6.972-1.629z" class="cls-18" transform="translate(-413.381 -286.665)"/>
            </g>
        </g>
        <g id="Group_56438" transform="translate(4103.869 -1242.008)">
            <g id="Group_56437">
                <path id="Path_53680" d="M400.374 374.691c-.08 0-.776-22.028-1.555-49.2s-1.346-49.212-1.266-49.214.776 22.024 1.555 49.206 1.346 49.206 1.266 49.208z" class="cls-18" transform="translate(-397.545 -276.276)"/>
            </g>
        </g>
        <g id="Group_56440" transform="translate(4109.466 -1242.123)">
            <g id="Group_56439">
                <path id="Path_53681" d="M408.051 372.953c-.079 0-.219-21.69-.311-48.439s-.1-48.445-.024-48.445.219 21.685.312 48.444.103 48.44.023 48.44z" class="cls-18" transform="translate(-407.663 -276.069)"/>
            </g>
        </g>
        <g id="Group_56442" transform="translate(4113.062 -1243.439)">
            <g id="Group_56441">
                <path id="Path_53682" d="M415.822 273.689c.08 0-.225 21.987-.679 49.1s-.888 49.1-.968 49.1.225-21.982.679-49.105.888-49.097.968-49.095z" class="cls-18" transform="translate(-414.162 -273.689)"/>
            </g>
        </g>
        <g id="Group_56444" transform="translate(4118.632 -1243.902)">
            <g id="Group_56443">
                <path id="Path_53683" d="M424.76 283.5a98.443 98.443 0 0 1-.49-10.645 98.481 98.481 0 0 1 .49 10.645z" class="cls-18" transform="translate(-424.231 -272.853)"/>
            </g>
        </g>
        <g id="Group_56446" transform="translate(4122.344 -1243.902)">
            <g id="Group_56445">
                <path id="Path_53684" d="M455.156 373.812c-.078.018-5.561-22.569-12.247-50.444s-12.045-50.5-11.968-50.515 5.56 22.564 12.248 50.448 12.044 50.492 11.967 50.511z" class="cls-18" transform="translate(-430.94 -272.853)"/>
            </g>
        </g>
        <g id="Group_56448" transform="translate(4126.908 -1244.865)">
            <g id="Group_56447">
                <path id="Path_53685" d="M462.149 372.953c-.077.018-5.28-22.768-11.619-50.887s-11.417-50.938-11.339-50.955 5.279 22.763 11.62 50.892 11.416 50.933 11.338 50.95z" class="cls-18" transform="translate(-439.19 -271.111)"/>
            </g>
        </g>
        <g id="Group_56450" transform="translate(4132.045 -1244.865)">
            <g id="Group_56449">
                <path id="Path_53686" d="M468.392 372.384c-.078.016-4.6-22.645-10.1-50.606s-9.9-50.652-9.817-50.666 4.6 22.64 10.1 50.611 9.895 50.646 9.817 50.661z" class="cls-18" transform="translate(-448.475 -271.111)"/>
            </g>
        </g>
        <path id="Path_53687" d="M376.729 146.607l-18.44-15.9.357-22.671.355-.479c.191-.263.41-.552.668-.87a4.241 4.241 0 0 1 1.061-.929 6.5 6.5 0 0 1 1.578-.777c.527-.119.649-.807.205-1a4.569 4.569 0 0 0-3.3 1.149c-1.4 1.047-.709-1.579-.476-2.54s.814-3.965.574-4.263c-.352-.437-.9-.133-1.109.831s-1.046 3.818-1.55 3.684.757-5.01.757-5.01.438-1-.139-1.178c-1.041-.315-1.99 4.959-2.067 5.463-.054.35-.608.224-.529-.149s1.364-4.84.309-5.17c-.81-.253-.822 4.332-1.6 5.122s.366-3.485-.419-3.7c-.292-.079-.522-.1-.825 2.444a49.588 49.588 0 0 0-.555 5.294l-3.2 27.312 18.565 20.865z" class="cls-19" transform="translate(3728.291 -1438.026)"/>
        <g id="Group_56453" transform="translate(4103.525 -1145.035)">
            <path id="Path_53688" d="M398.426 452.041l-1.5 5.013 10.719-.128.477-5.363z" class="cls-20" transform="translate(-396.923 -451.564)"/>
        </g>
        <g id="Group_56455" transform="translate(4103.8 -1140.958)">
            <g id="Group_56454">
                <path id="Path_53689" d="M408.072 459.2a6.651 6.651 0 0 1-1.561.123c-.965.026-2.3.018-3.769-.018l-3.763-.122a7.6 7.6 0 0 1-1.559-.122 6.717 6.717 0 0 1 1.561-.118c.965-.024 2.3-.015 3.769.022l3.762.118a7.7 7.7 0 0 1 1.56.117z" class="cls-10" transform="translate(-397.421 -458.933)"/>
            </g>
        </g>
        <g id="Group_56457" transform="translate(4109.52 -1145.239)">
            <g id="Group_56456">
                <path id="Path_53690" d="M408.094 451.2a15.008 15.008 0 0 1-.25 4.5 15.058 15.058 0 0 1 .25-4.5z" class="cls-10" transform="translate(-407.759 -451.195)"/>
            </g>
        </g>
        <g id="Group_56458" class="cls-21" transform="translate(4103.523 -1140.825)">
            <path id="Path_53691" d="M396.922 460.454l10.719-.128.09-1.015-10.632-.138-.179 1.16" class="cls-4" transform="translate(-396.921 -459.173)"/>
        </g>
        <path id="Path_53692" d="M409.041 97.173c-.7.406 1.5 4.241.546 3.679s-2.149-4.99-2.867-4.536c-.935.591 1.452 4.566 1.628 4.916s-.33.605-.473.28c-.2-.467-2.478-5.319-3.4-4.747-.513.317.168 1.174.168 1.174s2.467 4.391 2.021 4.647-1.988-2.273-2.446-3.161-1.058-1.031-1.286-.518c-.155.35 1.179 3.1 1.652 3.972s1.812 3.229.193 2.577a4.567 4.567 0 0 0-3.485-.261c-.38.3-.085.932.455.912a6.519 6.519 0 0 1 1.725.345 4.26 4.26 0 0 1 1.265.625c.331.241.617.464.869.669l.466.371 9.24 22.781-8.4 19.54 13.012 4.844 5.849-25.84-13.407-25.146a49.549 49.549 0 0 0-1.9-4.973c-.945-2.377-1.166-2.3-1.425-2.15z" class="cls-19" transform="translate(3704.728 -1437.868)"/>
        <g id="Group_56527" transform="translate(4143.837 -1143.023)">
            <g id="Group_56467" transform="translate(.067)">
                <g id="Group_56463">
                    <g id="Group_56462">
                        <g id="Group_56461">
                            <path id="Path_53693" d="M481.025 456.293l-.042-1.093-11.07.32.1 3.6.684.022c3.046.075 15.493.184 17.508-.444 2.244-.698-7.18-2.405-7.18-2.405z" class="cls-20" transform="translate(-469.913 -455.2)"/>
                        </g>
                    </g>
                </g>
                <g id="Group_56466" class="cls-21" transform="translate(.015 .894)">
                    <g id="Group_56465">
                        <g id="Group_56464">
                            <path id="Path_53694" d="M474.014 459.658a3.537 3.537 0 0 0-1.474-2.147 3.922 3.922 0 0 0-2.6-.676l.087 2.864z" class="cls-4" transform="translate(-469.941 -456.816)"/>
                        </g>
                    </g>
                </g>
            </g>
            <g id="Group_56470" class="cls-21" transform="translate(.163 2.08)">
                <g id="Group_56469">
                    <g id="Group_56468">
                        <path id="Path_53695" d="M485.711 458.959s3.309.792 2.915 1.306-12.977.844-18.541.539l.011-.23 14.68-.269s.294-1.305.935-1.346z" class="cls-4" transform="translate(-470.086 -458.959)"/>
                    </g>
                </g>
            </g>
            <g id="Group_56474" transform="translate(0 3.21)">
                <g id="Group_56473">
                    <g id="Group_56472">
                        <g id="Group_56471">
                            <path id="Path_53696" d="M469.792 461.485a1.156 1.156 0 0 0 .19.014l.545.016 2.005.028c1.693.012 4.034 0 6.617-.066s4.921-.174 6.612-.273l2-.13.543-.044a1.173 1.173 0 0 0 .189-.024 1.047 1.047 0 0 0-.191 0l-.544.021-2 .091c-1.691.076-4.027.17-6.61.236s-4.92.092-6.613.1l-2.005.012-.545.007a1.034 1.034 0 0 0-.193.012z" class="cls-10" transform="translate(-469.792 -461.003)"/>
                        </g>
                    </g>
                </g>
            </g>
            <g id="Group_56478" transform="translate(14.833 1.952)">
                <g id="Group_56477">
                    <g id="Group_56476">
                        <g id="Group_56475">
                            <path id="Path_53697" d="M496.626 460.36a4 4 0 0 1 .347-.9 4.331 4.331 0 0 1 .661-.731 1.458 1.458 0 0 0-.777.669 1.3 1.3 0 0 0-.231.962z" class="cls-10" transform="translate(-496.603 -458.728)"/>
                        </g>
                    </g>
                </g>
            </g>
            <g id="Group_56482" transform="translate(11.551 1.267)">
                <g id="Group_56481">
                    <g id="Group_56480">
                        <g id="Group_56479">
                            <path id="Path_53698" d="M490.678 458.359c.032.018.181-.162.335-.4s.252-.448.221-.465-.182.162-.335.4-.253.447-.221.465z" class="cls-10" transform="translate(-490.672 -457.49)"/>
                        </g>
                    </g>
                </g>
            </g>
            <g id="Group_56486" transform="translate(10.649 1.125)">
                <g id="Group_56485">
                    <g id="Group_56484">
                        <g id="Group_56483">
                            <path id="Path_53699" d="M489.043 457.829c.025.025.2-.088.381-.251s.315-.316.289-.341-.2.087-.381.251-.314.312-.289.341z" class="cls-10" transform="translate(-489.04 -457.233)"/>
                        </g>
                    </g>
                </g>
            </g>
            <g id="Group_56490" transform="translate(10.058 .696)">
                <g id="Group_56489">
                    <g id="Group_56488">
                        <g id="Group_56487">
                            <path id="Path_53700" d="M487.973 456.531a2.7 2.7 0 1 0 .575-.071 1.39 1.39 0 0 0-.575.071z" class="cls-10" transform="translate(-487.973 -456.459)"/>
                        </g>
                    </g>
                </g>
            </g>
            <g id="Group_56494" transform="translate(9.843 .08)">
                <g id="Group_56493">
                    <g id="Group_56492">
                        <g id="Group_56491">
                            <path id="Path_53701" d="M487.585 455.356a1.174 1.174 0 0 0 .647.157 1.194 1.194 0 0 0 .661-.1 3.758 3.758 0 0 0-.654-.025 3.829 3.829 0 0 0-.654-.032z" class="cls-10" transform="translate(-487.584 -455.344)"/>
                        </g>
                    </g>
                </g>
            </g>
            <g id="Group_56498" transform="translate(11.904 .274)">
                <g id="Group_56497">
                    <g id="Group_56496">
                        <g id="Group_56495">
                            <path id="Path_53702" d="M491.309 456.653a2.2 2.2 0 0 0 .708-.023 4.424 4.424 0 0 0 .75-.174 2.176 2.176 0 0 0 .427-.177.36.36 0 0 0 .169-.209.251.251 0 0 0-.115-.26 1.357 1.357 0 0 0-1.6.4 1.134 1.134 0 0 0-.217.445c-.026.113-.021.178-.013.178a1.821 1.821 0 0 1 .305-.57 1.287 1.287 0 0 1 .594-.381 1.175 1.175 0 0 1 .846.032c.115.074.075.2-.049.271a2.145 2.145 0 0 1-.393.168 5.109 5.109 0 0 1-.724.2c-.419.072-.689.08-.688.1z" class="cls-10" transform="translate(-491.309 -455.695)"/>
                        </g>
                    </g>
                </g>
            </g>
            <g id="Group_56502" transform="translate(11.133 .003)">
                <g id="Group_56501">
                    <g id="Group_56500">
                        <g id="Group_56499">
                            <path id="Path_53703" d="M490.871 456.462a.613.613 0 0 0 .067-.459 1.034 1.034 0 0 0-.208-.476.722.722 0 0 0-.6-.32.262.262 0 0 0-.209.31.7.7 0 0 0 .129.291 2.042 2.042 0 0 0 .346.389 1.042 1.042 0 0 0 .413.256c.012-.017-.144-.115-.346-.318a2.284 2.284 0 0 1-.309-.388c-.1-.136-.175-.384 0-.419a.644.644 0 0 1 .475.267 1.056 1.056 0 0 1 .213.423 2.233 2.233 0 0 1 .029.444z" class="cls-10" transform="translate(-489.916 -455.205)"/>
                        </g>
                    </g>
                </g>
            </g>
            <g id="Group_56506" transform="translate(.139 .798)">
                <g id="Group_56505">
                    <g id="Group_56504">
                        <g id="Group_56503">
                            <path id="Path_53704" d="M470.044 456.728c0 .023.315-.036.815 0a3.728 3.728 0 0 1 1.8.634 3.34 3.34 0 0 1 1.155 1.429c.181.435.207.73.232.726a.56.56 0 0 0-.006-.207 2.532 2.532 0 0 0-.137-.549 3.18 3.18 0 0 0-1.163-1.5 3.577 3.577 0 0 0-1.871-.622 3.147 3.147 0 0 0-.606.03.661.661 0 0 0-.219.059z" class="cls-10" transform="translate(-470.044 -456.643)"/>
                        </g>
                    </g>
                </g>
            </g>
            <g id="Group_56510" transform="translate(5.512 2.633)">
                <g id="Group_56509">
                    <g id="Group_56508">
                        <g id="Group_56507">
                            <path id="Path_53705" d="M479.756 460.027a9.72 9.72 0 0 0 3.221-.056c0-.036-.723.024-1.61.038s-1.608-.018-1.611.018z" class="cls-10" transform="translate(-479.756 -459.96)"/>
                        </g>
                    </g>
                </g>
            </g>
            <g id="Group_56514" transform="translate(3.348 2.75)">
                <g id="Group_56513">
                    <g id="Group_56512">
                        <g id="Group_56511">
                            <path id="Path_53706" d="M475.848 460.176c-.027.025.063.14.141.292s.122.287.16.284.052-.164-.04-.338-.238-.264-.261-.238z" class="cls-10" transform="translate(-475.843 -460.171)"/>
                        </g>
                    </g>
                </g>
            </g>
            <g id="Group_56518" transform="translate(2.504 1.829)">
                <g id="Group_56517">
                    <g id="Group_56516">
                        <g id="Group_56515">
                            <path id="Path_53707" d="M474.324 458.511c-.025.025.049.129.167.234s.233.169.258.144-.049-.129-.166-.234-.233-.169-.259-.144z" class="cls-10" transform="translate(-474.319 -458.505)"/>
                        </g>
                    </g>
                </g>
            </g>
            <g id="Group_56522" transform="translate(1.331 1.37)">
                <g id="Group_56521">
                    <g id="Group_56520">
                        <g id="Group_56519">
                            <path id="Path_53708" d="M472.2 457.741c.009.035.155.03.319.079s.283.126.311.1-.068-.163-.272-.221-.372.011-.358.042z" class="cls-10" transform="translate(-472.198 -457.677)"/>
                        </g>
                    </g>
                </g>
            </g>
            <g id="Group_56526" transform="translate(.495 1.228)">
                <g id="Group_56525">
                    <g id="Group_56524">
                        <g id="Group_56523">
                            <path id="Path_53709" d="M470.688 457.445c-.012.032.053.083.145.114s.178.029.19 0-.052-.084-.145-.114-.178-.032-.19 0z" class="cls-10" transform="translate(-470.686 -457.42)"/>
                        </g>
                    </g>
                </g>
            </g>
        </g>
        <g id="Group_56529" transform="translate(4089.785 -1308.426)">
            <path id="Path_53710" d="M412.805 187.018L409.8 202.68c6.277 8.737 6.849 16.229 6.849 16.229l-33.777 3.953c.006-6.118 4.454-16.012 4.454-16.012l-5.42-18.506-9.815-12.779 9.74-8.779c-.187.494 9.132 5.887 9.132 5.887l13.384.114a11.245 11.245 0 0 1 1.924.382l6.539-16.95a23.771 23.771 0 0 1 4.717 16.546c-1.054 10.7-2.332 8.039-4.717 14.253" class="cls-11" transform="translate(-372.087 -156.219)"/>
        </g>
        <g id="Group_56531" transform="translate(4105.531 -1263.873)">
            <g id="Group_56530">
                <path id="Path_53711" d="M406.977 236.755c.016.01-.022.116-.118.295a3.087 3.087 0 0 1-.512.7 1.824 1.824 0 0 1-1.188.564 1.4 1.4 0 0 1-.781-.2c-.24-.138-.446-.317-.661-.47a2.034 2.034 0 0 0-1.355-.4 1.994 1.994 0 0 0-1.092.418 3.675 3.675 0 0 0-.715.865 1.5 1.5 0 0 1 .585-1.021 2.1 2.1 0 0 1 1.2-.526 2.231 2.231 0 0 1 1.545.428c.447.339.828.67 1.267.643a1.691 1.691 0 0 0 1.057-.448c.506-.472.723-.881.768-.848z" class="cls-7" transform="translate(-400.548 -236.753)"/>
            </g>
        </g>
        <g id="Group_56533" transform="translate(4122.233 -1253.406)">
            <g id="Group_56532">
                <path id="Path_53712" d="M437.169 255.675c.017.01-.022.116-.118.294a3.075 3.075 0 0 1-.512.7 1.821 1.821 0 0 1-1.188.564 1.4 1.4 0 0 1-.781-.2c-.24-.138-.446-.316-.661-.47a2.03 2.03 0 0 0-1.355-.4 1.992 1.992 0 0 0-1.092.417 3.706 3.706 0 0 0-.715.865 1.507 1.507 0 0 1 .585-1.021 2.1 2.1 0 0 1 1.2-.526 2.228 2.228 0 0 1 1.545.429c.447.339.828.67 1.267.642a1.685 1.685 0 0 0 1.057-.448c.507-.47.724-.879.768-.846z" class="cls-7" transform="translate(-430.741 -255.673)"/>
            </g>
        </g>
        <g id="Group_56535" transform="translate(4116.45 -1269.923)">
            <g id="Group_56534">
                <path id="Path_53713" d="M421.758 225.819c.015-.012.1.061.235.213a3.079 3.079 0 0 1 .48.723 1.826 1.826 0 0 1 .116 1.31 1.4 1.4 0 0 1-.463.662 8.049 8.049 0 0 1-.669.456 2.03 2.03 0 0 0-.844 1.133 2 2 0 0 0 .012 1.168 3.7 3.7 0 0 0 .563.971c0 .028-.461-.2-.755-.9a2.1 2.1 0 0 1-.076-1.308 2.227 2.227 0 0 1 .938-1.3c.473-.3.916-.544 1.043-.965a1.688 1.688 0 0 0-.053-1.146c-.264-.641-.572-.987-.527-1.017z" class="cls-7" transform="translate(-420.287 -225.818)"/>
            </g>
        </g>
        <g id="Group_56537" transform="translate(4119.572 -1259.049)">
            <g id="Group_56536">
                <path id="Path_53714" d="M425.946 249.539c-.019 0-.023-.116 0-.318a3.069 3.069 0 0 1 .209-.842 1.821 1.821 0 0 1 .887-.971 1.4 1.4 0 0 1 .8-.106c.274.037.533.124.789.185a2.032 2.032 0 0 0 1.405-.143 1.991 1.991 0 0 0 .853-.8 3.7 3.7 0 0 0 .336-1.071 1.5 1.5 0 0 1-.155 1.166 2.1 2.1 0 0 1-.912.94 2.226 2.226 0 0 1-1.592.188 2.133 2.133 0 0 0-1.416-.116 1.689 1.689 0 0 0-.809.814c-.295.627-.341 1.088-.395 1.074z" class="cls-7" transform="translate(-425.93 -245.473)"/>
            </g>
        </g>
        <g id="Group_56539" transform="translate(4121.72 -1248.161)">
            <g id="Group_56538">
                <path id="Path_53715" d="M429.814 266.339c-.014-.013.045-.109.174-.265a3.07 3.07 0 0 1 .641-.585 1.825 1.825 0 0 1 1.276-.318 1.4 1.4 0 0 1 .726.355c.207.182.375.4.554.591a2.032 2.032 0 0 0 1.25.659 1.987 1.987 0 0 0 1.152-.193 3.678 3.678 0 0 0 .872-.706c.028 0-.123.486-.776.885a2.1 2.1 0 0 1-1.28.277 2.225 2.225 0 0 1-1.429-.726c-.372-.42-.679-.821-1.115-.881a1.688 1.688 0 0 0-1.124.229c-.59.361-.883.719-.921.678z" class="cls-7" transform="translate(-429.812 -265.154)"/>
            </g>
        </g>
        <g id="Group_56541" transform="translate(4103.526 -1247.169)">
            <g id="Group_56540">
                <path id="Path_53716" d="M396.926 267.679c-.01-.017.071-.094.236-.212a3.081 3.081 0 0 1 .767-.4 1.824 1.824 0 0 1 1.316.017 1.4 1.4 0 0 1 .612.527c.154.229.261.481.387.713a2.029 2.029 0 0 0 1.042.954 1.988 1.988 0 0 0 1.163.106 3.693 3.693 0 0 0 1.023-.461 1.5 1.5 0 0 1-.974.659 2.1 2.1 0 0 1-1.309-.056 2.229 2.229 0 0 1-1.2-1.064c-.252-.5-.449-.966-.855-1.135a1.691 1.691 0 0 0-1.146-.063c-.661.192-1.036.464-1.062.415z" class="cls-7" transform="translate(-396.926 -266.948)"/>
            </g>
        </g>
        <g id="Group_56543" transform="translate(4122.344 -1274.17)">
            <g id="Group_56542">
                <path id="Path_53717" d="M430.941 218.315c0-.019.1-.059.3-.1a3.052 3.052 0 0 1 .865-.066 1.821 1.821 0 0 1 1.2.537 1.393 1.393 0 0 1 .352.726 7.852 7.852 0 0 1 .072.808 2.032 2.032 0 0 0 .578 1.289 2 2 0 0 0 1.026.559 3.694 3.694 0 0 0 1.122-.018 1.5 1.5 0 0 1-1.156.219 2.1 2.1 0 0 1-1.179-.571 2.225 2.225 0 0 1-.678-1.453 2.13 2.13 0 0 0-.335-1.381 1.687 1.687 0 0 0-1.027-.513c-.681-.082-1.136.019-1.14-.036z" class="cls-7" transform="translate(-430.941 -218.14)"/>
            </g>
        </g>
        <g id="Group_56545" transform="translate(4131.081 -1299.187)">
            <g id="Group_56544">
                <path id="Path_53718" d="M447.976 172.922c.014-.013.1.056.245.2a3.06 3.06 0 0 1 .512.7 1.823 1.823 0 0 1 .177 1.3 1.4 1.4 0 0 1-.432.683c-.2.186-.437.329-.648.487a2.03 2.03 0 0 0-.791 1.171 1.99 1.99 0 0 0 .067 1.167 3.677 3.677 0 0 0 .607.944c0 .028-.47-.175-.8-.867a2.1 2.1 0 0 1-.137-1.3 2.229 2.229 0 0 1 .877-1.342c.458-.324.89-.586 1-1.013a1.689 1.689 0 0 0-.106-1.142c-.292-.625-.616-.956-.571-.988z" class="cls-7" transform="translate(-446.734 -172.92)"/>
            </g>
        </g>
        <g id="Group_56547" transform="translate(4115.913 -1277.5)">
            <g id="Group_56546">
                <path id="Path_53719" d="M419.316 212.3c0-.019.1-.058.3-.1a3.08 3.08 0 0 1 .865-.066 1.824 1.824 0 0 1 1.2.537 1.4 1.4 0 0 1 .352.727 8.017 8.017 0 0 1 .072.807 2.032 2.032 0 0 0 .578 1.289 1.992 1.992 0 0 0 1.026.559 3.687 3.687 0 0 0 1.122-.018 1.506 1.506 0 0 1-1.156.219 2.094 2.094 0 0 1-1.179-.571 2.228 2.228 0 0 1-.678-1.453 2.13 2.13 0 0 0-.335-1.381 1.688 1.688 0 0 0-1.027-.513c-.684-.085-1.136.016-1.14-.036z" class="cls-7" transform="translate(-419.316 -212.122)"/>
            </g>
        </g>
        <g id="Group_56549" transform="translate(4127.958 -1291.973)">
            <g id="Group_56548">
                <path id="Path_53720" d="M441.089 186.135c0-.019.1-.059.3-.1a3.08 3.08 0 0 1 .865-.066 1.824 1.824 0 0 1 1.2.537 1.4 1.4 0 0 1 .352.727c.051.272.049.545.072.808a2.031 2.031 0 0 0 .578 1.289 2 2 0 0 0 1.026.559 3.671 3.671 0 0 0 1.122-.018 1.5 1.5 0 0 1-1.156.219 2.1 2.1 0 0 1-1.179-.571 2.225 2.225 0 0 1-.678-1.453 2.132 2.132 0 0 0-.335-1.381 1.689 1.689 0 0 0-1.027-.512c-.684-.084-1.136.017-1.14-.038z" class="cls-7" transform="translate(-441.089 -185.96)"/>
            </g>
        </g>
        <g id="Group_56551" transform="translate(4103.45 -1273.856)">
            <g id="Group_56550">
                <path id="Path_53721" d="M396.79 218.713c.009-.017.117.017.3.1a3.085 3.085 0 0 1 .725.476 1.826 1.826 0 0 1 .623 1.159 1.4 1.4 0 0 1-.165.791 8.092 8.092 0 0 1-.435.683 2.03 2.03 0 0 0-.33 1.374 1.988 1.988 0 0 0 .471 1.069 3.674 3.674 0 0 0 .9.671 1.5 1.5 0 0 1-1.049-.533 2.1 2.1 0 0 1-.585-1.172 2.228 2.228 0 0 1 .351-1.565c.316-.464.628-.86.579-1.3a1.685 1.685 0 0 0-.5-1.033c-.496-.478-.916-.674-.885-.72z" class="cls-7" transform="translate(-396.788 -218.709)"/>
            </g>
        </g>
        <g id="Group_56553" transform="translate(4097.544 -1289.32)">
            <g id="Group_56552">
                <path id="Path_53722" d="M386.113 190.975c0-.019.1-.063.3-.114a3.083 3.083 0 0 1 .861-.1 1.827 1.827 0 0 1 1.223.485 1.4 1.4 0 0 1 .383.711 7.975 7.975 0 0 1 .107.8 2.033 2.033 0 0 0 .633 1.263 1.991 1.991 0 0 0 1.05.513 3.69 3.69 0 0 0 1.12-.066 1.5 1.5 0 0 1-1.145.269 2.1 2.1 0 0 1-1.2-.519 2.227 2.227 0 0 1-.74-1.422 2.133 2.133 0 0 0-.394-1.365 1.688 1.688 0 0 0-1.048-.467c-.696-.053-1.143.067-1.15.012z" class="cls-7" transform="translate(-386.113 -190.756)"/>
            </g>
        </g>
        <g id="Group_56555" transform="translate(4098.422 -1295.712)">
            <g id="Group_56554">
                <path id="Path_53723" d="M387.7 179.421c0-.018.1-.063.3-.114a3.082 3.082 0 0 1 .861-.1 1.826 1.826 0 0 1 1.223.485 1.4 1.4 0 0 1 .384.711c.063.269.073.542.107.8a2.031 2.031 0 0 0 .633 1.263 1.991 1.991 0 0 0 1.049.513 3.694 3.694 0 0 0 1.12-.066 1.5 1.5 0 0 1-1.146.269 2.094 2.094 0 0 1-1.2-.519 2.225 2.225 0 0 1-.74-1.422 2.133 2.133 0 0 0-.394-1.365 1.69 1.69 0 0 0-1.048-.467c-.696-.053-1.143.067-1.149.012z" class="cls-7" transform="translate(-387.699 -179.202)"/>
            </g>
        </g>
        <g id="Group_56557" transform="translate(4098.266 -1280.73)">
            <g id="Group_56556">
                <path id="Path_53724" d="M387.418 206.5c0-.019.1-.063.3-.115a3.059 3.059 0 0 1 .861-.1 1.823 1.823 0 0 1 1.223.484 1.4 1.4 0 0 1 .383.711c.063.269.073.542.108.8a2.029 2.029 0 0 0 .633 1.263 2 2 0 0 0 1.049.514 3.682 3.682 0 0 0 1.12-.067 1.5 1.5 0 0 1-1.146.269 2.1 2.1 0 0 1-1.2-.519 2.226 2.226 0 0 1-.74-1.422 2.133 2.133 0 0 0-.394-1.365 1.692 1.692 0 0 0-1.048-.467c-.696-.05-1.143.071-1.149.014z" class="cls-7" transform="translate(-387.418 -206.283)"/>
            </g>
        </g>
        <g id="Group_56559" transform="translate(4094.009 -1290.322)">
            <g id="Group_56558">
                <path id="Path_53725" d="M379.725 188.948c.009-.017.117.017.3.1a3.09 3.09 0 0 1 .725.476 1.825 1.825 0 0 1 .623 1.158 1.405 1.405 0 0 1-.165.791 8.048 8.048 0 0 1-.436.683 2.031 2.031 0 0 0-.33 1.373 1.992 1.992 0 0 0 .471 1.069 3.712 3.712 0 0 0 .9.672 1.505 1.505 0 0 1-1.049-.533 2.1 2.1 0 0 1-.585-1.172 2.227 2.227 0 0 1 .351-1.564c.316-.464.628-.861.579-1.3a1.687 1.687 0 0 0-.5-1.033c-.495-.478-.915-.674-.884-.72z" class="cls-7" transform="translate(-379.723 -188.944)"/>
            </g>
        </g>
        <g id="Group_56561" transform="translate(4121.392 -1265.946)">
            <g id="Group_56560">
                <path id="Path_53726" d="M429.219 233.182c0-.019.1-.058.3-.1a3.078 3.078 0 0 1 .865-.066 1.824 1.824 0 0 1 1.2.537 1.405 1.405 0 0 1 .352.727c.051.271.049.545.072.807a2.03 2.03 0 0 0 .578 1.289 1.99 1.99 0 0 0 1.026.559 3.707 3.707 0 0 0 1.122-.018 1.5 1.5 0 0 1-1.156.219 2.1 2.1 0 0 1-1.179-.571 2.228 2.228 0 0 1-.678-1.453 2.131 2.131 0 0 0-.335-1.381 1.687 1.687 0 0 0-1.027-.513c-.684-.082-1.136.019-1.14-.036z" class="cls-7" transform="translate(-429.219 -233.007)"/>
            </g>
        </g>
        <g id="Group_56563" transform="translate(4105.625 -1253.65)">
            <g id="Group_56562">
                <path id="Path_53727" d="M400.724 257.58c-.017-.008.012-.117.091-.3a3.076 3.076 0 0 1 .445-.744 1.824 1.824 0 0 1 1.132-.67 1.409 1.409 0 0 1 .8.132c.251.115.473.275.7.407a2.03 2.03 0 0 0 1.386.273 1.991 1.991 0 0 0 1.049-.515 3.675 3.675 0 0 0 .633-.926 1.5 1.5 0 0 1-.49 1.07 2.1 2.1 0 0 1-1.147.632 2.225 2.225 0 0 1-1.577-.286 2.131 2.131 0 0 0-1.321-.525 1.689 1.689 0 0 0-1.012.542c-.463.512-.641.939-.689.91z" class="cls-7" transform="translate(-400.719 -255.233)"/>
            </g>
        </g>
        <g id="Group_56565" transform="translate(4115.254 -1252.56)">
            <g id="Group_56564">
                <path id="Path_53728" d="M418.491 263.258c-.018.006-.074-.091-.149-.28a3.067 3.067 0 0 1-.207-.842 1.826 1.826 0 0 1 .333-1.273 1.4 1.4 0 0 1 .659-.466 8.03 8.03 0 0 1 .784-.2 2.033 2.033 0 0 0 1.177-.781 2 2 0 0 0 .383-1.1 3.677 3.677 0 0 0-.2-1.1 1.5 1.5 0 0 1 .4 1.1 2.1 2.1 0 0 1-.37 1.256 2.225 2.225 0 0 1-1.322.907c-.547.124-1.046.2-1.308.556a1.685 1.685 0 0 0-.337 1.1c.037.681.211 1.11.157 1.123z" class="cls-7" transform="translate(-418.126 -257.203)"/>
            </g>
        </g>
        <g id="Group_56567" transform="translate(4109.747 -1258.806)">
            <g id="Group_56566">
                <path id="Path_53729" d="M408.172 246.87c-.012-.014.058-.1.206-.241a3.094 3.094 0 0 1 .708-.5 1.825 1.825 0 0 1 1.306-.156 1.4 1.4 0 0 1 .676.443 8.059 8.059 0 0 1 .476.655 2.032 2.032 0 0 0 1.158.81 1.99 1.99 0 0 0 1.167-.048 3.689 3.689 0 0 0 .954-.591c.028 0-.183.467-.88.782a2.1 2.1 0 0 1-1.3.116 2.227 2.227 0 0 1-1.328-.9c-.316-.464-.571-.9-1-1.014a1.69 1.69 0 0 0-1.144.087c-.631.287-.971.603-.999.557z" class="cls-7" transform="translate(-408.171 -245.912)"/>
            </g>
        </g>
        <g id="Group_56569" transform="translate(4107.797 -1271.495)">
            <g id="Group_56568">
                <path id="Path_53730" d="M404.647 223.98c-.013-.014.055-.1.2-.247a3.093 3.093 0 0 1 .695-.519 1.824 1.824 0 0 1 1.3-.19 1.4 1.4 0 0 1 .687.425 8.044 8.044 0 0 1 .493.643 2.028 2.028 0 0 0 1.178.779 2 2 0 0 0 1.166-.077 3.694 3.694 0 0 0 .938-.616c.028 0-.17.471-.859.8a2.1 2.1 0 0 1-1.3.149 2.229 2.229 0 0 1-1.351-.864c-.328-.455-.594-.884-1.022-.987a1.688 1.688 0 0 0-1.142.117c-.623.307-.951.631-.983.587z" class="cls-7" transform="translate(-404.645 -222.976)"/>
            </g>
        </g>
        <g id="Group_56573" transform="translate(4100.566 -1321.091)">
            <g id="Group_56571">
                <path id="Path_53731" d="M400.362 136.247c-2.807 1.273-3.935 4.374-4.21 7.224s.016 5.817-1.084 8.486c-.927 2.248-2.83 4.3-2.617 6.708.159 1.8 1.5 3.377 1.741 5.167.474 3.464-3.2 6.565-2.536 10.005a6.312 6.312 0 0 0 2.958 3.855 21.028 21.028 0 0 0 4.783 2.055c2.234.746 4.715 1.481 6.907.7 1.948-.692 3.274-2.471 5.292-2.981 1.938-.49 3.991.311 6.012.354a6.764 6.764 0 0 0 4.969-1.89 4.49 4.49 0 0 0 1.023-4.73c-.9-2.22-3.67-3.648-4.1-5.974-.386-2.1 1.329-4.189.788-6.268-.6-2.315-3.7-3.532-4.45-5.814-.9-2.735 1.974-5.652.855-8.323-.658-1.571-2.551-2.563-3.06-4.176-.35-1.107.027-2.3-.225-3.425-.434-1.947-2.625-3.208-4.762-3.65a11.169 11.169 0 0 0-7.721 1.115 7.869 7.869 0 0 0-4.028 5.962" class="cls-10" transform="translate(-391.575 -133.326)"/>
            </g>
            <g id="Group_56572" transform="translate(12.976 .332)">
                <path id="Path_53732" d="M415.03 134.535a9.457 9.457 0 0 1 12.649 6.994c.43 2.17.111 4.518 1.054 6.519 1.025 2.173 3.428 3.666 3.793 6.041.352 2.294-1.359 4.382-1.716 6.675-.372 2.388.752 4.8.481 7.2a6.257 6.257 0 0 1-10.871 3.479" class="cls-10" transform="translate(-415.03 -133.926)"/>
            </g>
        </g>
        <g id="Group_56574" transform="translate(4120.861 -1320.112)">
            <path id="Path_53733" d="M428.291 139.934a5.519 5.519 0 0 1 7.574-4.433 4.269 4.269 0 0 1 2.188 1.882 4.648 4.648 0 0 1 .205 3.412 6.194 6.194 0 0 1-3.375 3.987 5.019 5.019 0 0 1-5.091-.632 4.232 4.232 0 0 1-1.2-4.873" class="cls-10" transform="translate(-428.259 -135.097)"/>
        </g>
        <g id="Group_56576" transform="translate(4119.059 -1318.139)">
            <g id="Group_56575">
                <path id="Path_53734" fill="#e8505b" d="M431.06 146.419a1.679 1.679 0 0 1-.505.073 11.475 11.475 0 0 1-1.39.025 5.665 5.665 0 0 1-2.034-.441 3.48 3.48 0 0 1-1.8-1.806 4.1 4.1 0 0 1-.222-2.546 4.69 4.69 0 0 1 .939-1.86 5.091 5.091 0 0 1 1.025-.952 1.44 1.44 0 0 1 .448-.247 10.2 10.2 0 0 0-1.312 1.324 4.715 4.715 0 0 0-.841 1.794 3.937 3.937 0 0 0 .227 2.371 3.279 3.279 0 0 0 1.647 1.68 5.828 5.828 0 0 0 1.937.479c1.153.087 1.881.055 1.881.106z" transform="translate(-425.002 -138.663)"/>
            </g>
        </g>
        <g id="Group_56578" transform="translate(4117.953 -1313.321)">
            <g id="Group_56577">
                <path id="Path_53735" d="M430.792 149.73a4.473 4.473 0 0 0-.608 1.328 5.029 5.029 0 0 0-.106 1.715 8.805 8.805 0 0 0 .568 2.232c.3.805.768 1.635 1.228 2.556a12.134 12.134 0 0 1 1.175 3.1 4.917 4.917 0 0 1-.63 3.628 5 5 0 0 1-3.276 2.278l-.178.033.011-.182.128-2.182.277.061a2.827 2.827 0 0 1-.808 1.1 2.993 2.993 0 0 1-2.556.659l-.178-.041.082-.163a13.456 13.456 0 0 0 1.428-3.833 4.992 4.992 0 0 0-.054-1.9 4.68 4.68 0 0 0-.779-1.636c-.7-.975-1.573-1.755-2.175-2.673a7.7 7.7 0 0 1-1.161-2.773 8.025 8.025 0 0 1 .252-4.271 5.727 5.727 0 0 1 .682-1.407 15.133 15.133 0 0 0-.583 1.44 8.127 8.127 0 0 0-.164 4.2 7.571 7.571 0 0 0 1.16 2.685c.59.884 1.466 1.651 2.2 2.652a4.943 4.943 0 0 1 .83 1.722 5.245 5.245 0 0 1 .068 2 13.62 13.62 0 0 1-1.444 3.92l-.1-.2a2.711 2.711 0 0 0 2.305-.6 2.535 2.535 0 0 0 .726-.99l.329-.794-.051.855-.131 2.182-.167-.148a4.733 4.733 0 0 0 3.1-2.143 4.665 4.665 0 0 0 .612-3.437 12.046 12.046 0 0 0-1.127-3.05 27.639 27.639 0 0 1-1.2-2.59 8.76 8.76 0 0 1-.539-2.285 4.98 4.98 0 0 1 .154-1.755 3.5 3.5 0 0 1 .464-1 2.076 2.076 0 0 1 .236-.293z" class="cls-18" transform="translate(-423.004 -147.371)"/>
            </g>
        </g>
        <g id="Group_56580" transform="translate(4122.471 -1319.774)">
            <g id="Group_56579">
                <path id="Path_53736" d="M436.381 135.708a1.24 1.24 0 0 1 .149.43 6.176 6.176 0 0 1 .168 1.229 7.231 7.231 0 0 1-3.93 6.744 6.131 6.131 0 0 1-1.151.46 1.258 1.258 0 0 1-.448.082c-.016-.05.612-.21 1.5-.721a7.516 7.516 0 0 0 3.823-6.562c.008-1.025-.162-1.652-.111-1.662z" class="cls-18" transform="translate(-431.169 -135.708)"/>
            </g>
        </g>
        <g id="Group_56582" transform="translate(4120.722 -1317.344)">
            <g id="Group_56581">
                <path id="Path_53737" d="M433.421 144.619a2.429 2.429 0 0 1-1.148.041 4.943 4.943 0 0 1-4.084-3.421 2.436 2.436 0 0 1-.162-1.138c.048-.006.1.428.353 1.07a5.248 5.248 0 0 0 3.925 3.288c.676.135 1.113.112 1.116.16z" class="cls-18" transform="translate(-428.008 -140.101)"/>
            </g>
        </g>
        <g id="Group_56584" transform="translate(4112.417 -1320.703)">
            <g id="Group_56583">
                <path id="Path_53738" d="M415.117 180.763a6.665 6.665 0 0 0 1.769-1.042 8.248 8.248 0 0 0 2.631-4.825 12.189 12.189 0 0 0-1.618-7.987 40.689 40.689 0 0 0-2.859-4.025 13.034 13.034 0 0 1-1.357-2.271 7.63 7.63 0 0 1-.669-2.652 11.793 11.793 0 0 1 1.061-5.234c.667-1.6 1.513-3.035 2.2-4.45a15.975 15.975 0 0 0 1.5-4.176 10.233 10.233 0 0 0-2.6-8.761 11.641 11.641 0 0 0-1.593-1.311.47.47 0 0 1 .122.061l.345.2a8.028 8.028 0 0 1 1.2.966 10.129 10.129 0 0 1 2.666 4.958 10.258 10.258 0 0 1 .092 3.925 16.049 16.049 0 0 1-1.494 4.25c-.687 1.428-1.525 2.864-2.179 4.442a11.571 11.571 0 0 0-1.034 5.107 9.057 9.057 0 0 0 1.968 4.777 40.021 40.021 0 0 1 2.861 4.06 12.318 12.318 0 0 1 1.586 8.155 8.247 8.247 0 0 1-2.759 4.874 5.723 5.723 0 0 1-1.327.793c-.165.063-.295.1-.381.13a.473.473 0 0 1-.131.036z" class="cls-18" transform="translate(-412.997 -134.028)"/>
            </g>
        </g>
        <g id="Group_56586" transform="translate(4106.212 -1314.327)">
            <g id="Group_56585">
                <path id="Path_53739" d="M405.4 185.668s-.035-.023-.094-.079-.147-.139-.255-.256a4.188 4.188 0 0 1-.7-1.2 4.821 4.821 0 0 1-.256-2.18 4.4 4.4 0 0 1 1.226-2.623 15.06 15.06 0 0 1 3.007-1.816 3.548 3.548 0 0 0 1.329-1.308 3.25 3.25 0 0 0 .329-1.93 6.912 6.912 0 0 0-1.975-3.8 29.249 29.249 0 0 1-3.244-3.52 5.862 5.862 0 0 1-.933-2.277 7.49 7.49 0 0 1-.005-2.386 19.514 19.514 0 0 1 1.308-4.269 17.468 17.468 0 0 0 1.145-3.815 6.775 6.775 0 0 0-.323-3.393 4.492 4.492 0 0 0-.765-1.276 6.981 6.981 0 0 0-.99-.907 14.842 14.842 0 0 1-1.685-1.4 2.633 2.633 0 0 1-.688-1.2 1.392 1.392 0 0 1-.044-.482c.02 0 .012.169.1.467a2.7 2.7 0 0 0 .713 1.137 15.909 15.909 0 0 0 1.7 1.348 7.03 7.03 0 0 1 1.03.914 4.641 4.641 0 0 1 .816 1.321 6.94 6.94 0 0 1 .371 3.5 17.447 17.447 0 0 1-1.135 3.879 19.541 19.541 0 0 0-1.276 4.213 7.246 7.246 0 0 0 .008 2.3 5.577 5.577 0 0 0 .891 2.168 29.667 29.667 0 0 0 3.21 3.486 7.145 7.145 0 0 1 2.032 3.963 3.491 3.491 0 0 1-.37 2.081 3.773 3.773 0 0 1-1.427 1.39 15.388 15.388 0 0 0-2.99 1.758 4.262 4.262 0 0 0-1.208 2.5 4.48 4.48 0 0 0 1.146 3.693z" class="cls-18" transform="translate(-401.78 -145.554)"/>
            </g>
        </g>
        <g id="Group_56588" transform="translate(4118.405 -1304.169)">
            <g id="Group_56587">
                <path id="Path_53740" d="M430.973 189.989a1.134 1.134 0 0 1-.148-.256 2.976 2.976 0 0 1-.275-.8 4.894 4.894 0 0 1-.077-1.344 12.863 12.863 0 0 1 .276-1.753c.133-.641.3-1.337.4-2.091a7.747 7.747 0 0 0 .07-1.167 5.917 5.917 0 0 0-.191-1.213 6.379 6.379 0 0 0-1.28-2.305 22.982 22.982 0 0 0-2.021-2.067 25.008 25.008 0 0 1-2.052-2.087 8.053 8.053 0 0 1-1.422-2.347 8.534 8.534 0 0 1-.222-4.593 20.828 20.828 0 0 1 .839-2.99c.124-.345.224-.611.3-.789a1.117 1.117 0 0 1 .123-.268 1.133 1.133 0 0 1-.069.287l-.244.806a24.947 24.947 0 0 0-.745 2.991 8.475 8.475 0 0 0 .271 4.465 12.262 12.262 0 0 0 3.422 4.318 22.521 22.521 0 0 1 2.042 2.1 6.59 6.59 0 0 1 1.317 2.412 6.1 6.1 0 0 1 .189 1.278 7.806 7.806 0 0 1-.087 1.207c-.114.769-.295 1.465-.44 2.1a13.634 13.634 0 0 0-.313 1.723 5.063 5.063 0 0 0 .027 1.31 7.722 7.722 0 0 0 .31 1.073z" class="cls-18" transform="translate(-423.821 -163.915)"/>
            </g>
        </g>
    </g>
</svg>
