<svg xmlns="http://www.w3.org/2000/svg" width="703.677" height="524.392" viewBox="0 0 703.677 524.392">
    <defs>
        <style>
            .cls-1{fill:#ebebeb}.cls-2{fill:#e6e6e6}.cls-3{fill:#f0f0f0}.cls-4{fill:#fff}.cls-8{fill:none;stroke:#efefef}.cls-9{fill:#fafafa}.cls-15{fill:#648bb0;opacity:.6}.cls-16{fill:#41dda4}.cls-17{fill:#ff8b7b}.cls-18{fill:#263238}.cls-20{opacity:.2}.cls-21{fill:#407bff}.cls-22,.cls-23{fill:#658bb1}.cls-23{opacity:.4}
        </style>
    </defs>
    <g id="Group_57540" transform="translate(0 -54.953)">
        <g id="Background_Complete" transform="translate(0 54.953)">
            <g id="Group_57521">
                <path id="Rectangle_1081" d="M0 0H703.677V0.352H0z" class="cls-1" transform="translate(0 460.831)"/>
                <path id="Rectangle_1082" d="M0 0H35.83V0.352H0z" class="cls-1" transform="translate(408.425 470.415)"/>
                <path id="Rectangle_1083" d="M0 0H84.91V0.352H0z" class="cls-1" transform="translate(556.061 478.031)"/>
                <path id="Rectangle_1084" d="M0 0H87.725V0.352H0z" class="cls-1" transform="translate(313.078 470.591)"/>
                <path id="Rectangle_1085" d="M0 0H18.353V0.352H0z" class="cls-1" transform="translate(237.843 481.119)"/>
                <path id="Rectangle_1086" d="M0 0H83.564V0.352H0z" class="cls-1" transform="translate(274.022 481.119)"/>
                <path id="Rectangle_1087" d="M0 0H54.118V0.352H0z" class="cls-1" transform="translate(73.828 475.177)"/>
                <path id="Path_54177" d="M318 453.019H46.24a8.043 8.043 0 0 1-8.033-8.033v-382a8.042 8.042 0 0 1 8.033-8.032H318a8.041 8.041 0 0 1 8.032 8.032v382a8.043 8.043 0 0 1-8.032 8.033zM46.24 55.3a7.689 7.689 0 0 0-7.681 7.68v382a7.689 7.689 0 0 0 7.681 7.681H318a7.689 7.689 0 0 0 7.68-7.681v-382A7.689 7.689 0 0 0 318 55.3z" class="cls-1" transform="translate(15.564 -54.953)"/>
                <path id="Path_54178" d="M534.294 453.019H262.537a8.042 8.042 0 0 1-8.032-8.033v-382a8.041 8.041 0 0 1 8.032-8.032h271.757a8.042 8.042 0 0 1 8.035 8.032v382a8.043 8.043 0 0 1-8.035 8.033zM262.537 55.3a7.689 7.689 0 0 0-7.68 7.68v382a7.689 7.689 0 0 0 7.68 7.681h271.757a7.69 7.69 0 0 0 7.683-7.681v-382a7.69 7.69 0 0 0-7.683-7.68z" class="cls-1" transform="translate(103.673 -54.953)"/>
            </g>
            <g id="Group_57530" transform="translate(76.467 34.425)">
                <g id="Group_57524" transform="translate(32.401 238.903)">
                    <g id="Group_57522" transform="translate(67.797)">
                        <path id="Path_54179" d="M224.652 314.609H131.2l-5.673-65.442h93.449z" class="cls-2" transform="translate(-125.53 -249.167)"/>
                        <path id="Path_54180" d="M228.092 314.609h-93.449l-5.673-65.442h93.449z" class="cls-3" transform="translate(-124.129 -249.167)"/>
                        <path id="Path_54181" d="M142.978 296.488l-3.115-37.336h65.342l3.115 37.336z" class="cls-4" transform="translate(-119.692 -245.099)"/>
                    </g>
                    <g id="Group_57523" transform="translate(0 65.442)">
                        <path id="Rectangle_1088" d="M0 0H10.964V122.06H0z" class="cls-2" transform="translate(176.964)"/>
                        <path id="Rectangle_1089" d="M0 0H7.615V122.06H0z" class="cls-3" transform="translate(183.773)"/>
                        <path id="Rectangle_1090" d="M0 0H106.128V13.472H0z" class="cls-3" transform="rotate(180 95.694 6.736)"/>
                        <path id="Rectangle_1091" d="M0 0H10.965V108.588H0z" class="cls-2" transform="translate(78.048 13.472)"/>
                        <path id="Rectangle_1092" d="M0 0H7.615V108.588H0z" class="cls-3" transform="translate(84.858 13.472)"/>
                        <path id="Rectangle_1093" d="M0 0H10.965V108.588H0z" class="cls-2" transform="translate(0 13.472)"/>
                        <path id="Rectangle_1094" d="M0 0H7.615V108.588H0z" class="cls-3" transform="translate(6.81 13.472)"/>
                        <path id="Rectangle_1095" d="M0 0H10.965V108.588H0z" class="cls-2" transform="translate(107.576 13.472)"/>
                        <path id="Rectangle_1096" d="M0 0H7.615V108.588H0z" class="cls-3" transform="translate(114.386 13.472)"/>
                        <path id="Rectangle_1097" d="M0 0H85.26V13.472H0z" class="cls-2"/>
                    </g>
                </g>
                <g id="Group_57526" transform="translate(105.797)">
                    <g id="Group_57525">
                        <path id="Rectangle_1098" fill="#e0e0e0" d="M0 0H329.785V183.597H0z"/>
                        <path id="Rectangle_1099" fill="#f5f5f5" d="M0 0H346.23V183.597H0z" transform="translate(1.664)"/>
                        <path id="Rectangle_1100" fill="none" d="M0 0H172.284V334.916H0z" transform="rotate(90 168.291 173.947)"/>
                        <path id="Path_54182" d="M261.271 255.717L324.5 83.433H220.148l-63.232 172.284z" class="cls-8" transform="translate(-118.344 -77.776)"/>
                        <path id="Path_54183" d="M325.226 255.717l63.232-172.284h-78.721L246.5 255.717z" class="cls-8" transform="translate(-81.85 -77.776)"/>
                    </g>
                </g>
                <g id="Group_57528" transform="translate(253.606 251.057)">
                    <g id="Group_57527">
                        <path id="Rectangle_1101" d="M0 0H28.033V175.349H0z" class="cls-2" transform="translate(258.471)"/>
                        <path id="Path_54184" d="M435.111 386.306h7.371V372.8h-15.1z" class="cls-9" transform="translate(-155.978 -210.957)"/>
                        <path id="Rectangle_1102" d="M0 0H28.033V175.349H0z" class="cls-2"/>
                        <path id="Rectangle_1103" d="M0 0H264.903V171.706H0z" class="cls-9" transform="translate(21.6)"/>
                        <path id="Path_54185" d="M508.32 311.206H253.446v-48.495H508.32zM254.853 309.8h252.06v-45.68h-252.06z" class="cls-2" transform="translate(-226.832 -255.804)"/>
                        <path id="Path_54186" d="M454.86 284.5H294.673c-7.439 0-14.6-6-19.647-16.463l-.487-1.009H475l-.487 1.009C469.463 278.5 462.3 284.5 454.86 284.5zm-178.066-16.067c4.761 9.332 11.236 14.658 17.879 14.658H454.86c6.643 0 13.118-5.325 17.88-14.658z" class="cls-2" transform="translate(-218.239 -254.046)"/>
                        <path id="Path_54187" d="M257.254 386.306h-7.371V372.8h15.1z" class="cls-9" transform="translate(-228.283 -210.957)"/>
                        <path id="Path_54188" d="M508.32 350.073H253.446v-48.5H508.32zm-253.467-1.407h252.06v-45.682h-252.06z" class="cls-2" transform="translate(-226.832 -239.972)"/>
                        <path id="Path_54189" d="M454.86 323.364H294.673c-7.439 0-14.6-6-19.647-16.463l-.487-1.009H475l-.487 1.009c-5.05 10.464-12.213 16.463-19.653 16.463zM276.794 307.3c4.761 9.332 11.236 14.658 17.879 14.658H454.86c6.644 0 13.118-5.325 17.88-14.658z" class="cls-2" transform="translate(-218.239 -238.214)"/>
                        <path id="Path_54190" d="M508.32 388.939H253.446v-48.5H508.32zm-253.467-1.407h252.06V341.85h-252.06z" class="cls-2" transform="translate(-226.832 -224.14)"/>
                        <path id="Path_54191" d="M454.86 362.23H294.673c-7.439 0-14.6-6-19.647-16.462l-.487-1.01H475l-.487 1.01c-5.05 10.463-12.213 16.462-19.653 16.462zm-178.066-16.065c4.761 9.332 11.236 14.658 17.879 14.658H454.86c6.644 0 13.118-5.325 17.88-14.658z" class="cls-2" transform="translate(-218.239 -222.382)"/>
                    </g>
                </g>
                <g id="Group_57529" transform="translate(0 177.258)">
                    <path id="Path_54192" d="M130.958 274.283v3.4h-2.179l-1.8 26.691h-26.506l-1.8-26.691H96.5v-3.4z" class="cls-2" transform="translate(-37.159 -177.291)"/>
                    <path id="Path_54193" d="M139.408 236.11c-2.18-15.9-23.636-20.44-50.865-21.023-25.911-.553-34.21-9.722-34.21-9.722s.082 37.125 37.417 50.566c35.45 12.763 49.841-3.894 47.658-19.821z" class="cls-2" transform="translate(-54.334 -205.365)"/>
                    <path id="Path_54194" d="M105.4 258.2c.455-6.54 10.9-18.557 36.01-13.094 18.159 3.95 24.912-5.463 24.912-5.463s-1.682 26.569-28.994 34.558c-25.937 7.58-32.728-4.501-31.928-16.001z" class="cls-2" transform="translate(-33.559 -191.404)"/>
                    <path id="Path_54195" d="M111.515 304.573a.966.966 0 0 0 .74-.343c1.821-2.152.331-7.3-1.73-14.437-2.646-9.153-5.938-20.545-3.15-28.816a116.211 116.211 0 0 1 5.4-12.769c3.942-8.337 7.346-15.537 4.508-23.055a.969.969 0 0 0-1.813.684c2.549 6.75-.538 13.278-4.446 21.544a119.359 119.359 0 0 0-5.487 12.977c-2.982 8.847.4 20.56 3.123 29.972 1.6 5.551 3.264 11.288 2.112 12.648a.969.969 0 0 0 .739 1.594z" class="cls-2" transform="translate(-33.948 -197.56)"/>
                </g>
            </g>
        </g>
        <g id="Shadow" transform="translate(78.968 547.473)">
            <ellipse id="_Path_" cx="272.871" cy="15.936" fill="#193058" rx="272.871" ry="15.936"/>
        </g>
        <g id="Login" transform="translate(140.999 154.37)">
            <g id="Group_57533">
                <path id="Path_54196" fill="#4874a0" d="M310.971 454.074H111.127l-10.939-321.393h199.844z" transform="translate(-100.188 -122.708)"/>
                <g id="Group_57531" fill="#648bb0" transform="translate(9.973)">
                    <path id="Path_54197" d="M318.057 446.987H118.213l-10.939-321.393h199.844z" transform="translate(-107.274 -125.594)"/>
                    <path id="Path_54198" d="M318.057 446.987H118.213l-10.939-321.393h199.844z" opacity="0.3" transform="translate(-107.274 -125.594)"/>
                </g>
                <g id="Group_57532" transform="translate(33.514 12.684)">
                    <ellipse id="Ellipse_75" cx="55.266" cy="57.179" fill="#54779b" rx="55.266" ry="57.179" transform="rotate(-45.5 94.013 39.425)"/>
                    <path id="Path_54199" d="M240.335 204.518a45.03 45.03 0 0 1-4.855 22.1 44.476 44.476 0 0 1-39.96 24.3 48.258 48.258 0 0 1-41.615-24.3 47.254 47.254 0 0 1-6.358-22.1 44.536 44.536 0 0 1 44.816-46.395 48.349 48.349 0 0 1 47.972 46.395z" class="cls-4" transform="translate(-114.421 -125.027)"/>
                    <path id="Path_54200" d="M233.631 210.369a44.476 44.476 0 0 1-39.96 24.3 48.258 48.258 0 0 1-41.615-24.3 71.15 71.15 0 0 1 40.369-12.358 75.19 75.19 0 0 1 41.206 12.358z" class="cls-15" transform="translate(-112.573 -108.779)"/>
                    <ellipse id="Ellipse_76" cx="20.318" cy="21.021" class="cls-15" rx="20.318" ry="21.021" transform="rotate(-45.5 100.465 -27.638)"/>
                </g>
                <path id="Path_54201" d="M265.674 278.593H138.189l-.862-25.332h127.485z" class="cls-4" transform="translate(-85.059 -73.589)"/>
                <path id="Path_54202" d="M266.769 310.767H139.284l-.862-25.332h127.485z" class="cls-4" transform="translate(-84.613 -60.483)"/>
                <path id="Path_54203" d="M204.1 287.914l-30.72 4.177a2.144 2.144 0 0 0-1.853 2.543l4.033 20.587a2.467 2.467 0 0 0 2.729 1.921l30.72-4.178a2.141 2.141 0 0 0 1.853-2.543l-4.033-20.587a2.471 2.471 0 0 0-2.729-1.92zm-8.827 20.856l-5.562.757-.56-6.646a3.915 3.915 0 0 1-2.283-2.808 3.5 3.5 0 0 1 3.03-4.159 4.026 4.026 0 0 1 4.453 3.141 3.425 3.425 0 0 1-1.092 3.268z" class="cls-16" transform="translate(-71.145 -59.482)"/>
                <path id="Path_54204" d="M200.7 292.043a2.184 2.184 0 0 1-2.421-1.7l-.4-2.015a11.582 11.582 0 0 0-12.13-9.232 9.909 9.909 0 0 0-9.1 11.813l.455 2.314a1.9 1.9 0 0 1-1.645 2.256 2.182 2.182 0 0 1-2.421-1.7l-.384-1.965a13.861 13.861 0 0 1 11.222-16.529 15.754 15.754 0 0 1 18.013 12.195l.453 2.314a1.9 1.9 0 0 1-1.642 2.249z" class="cls-16" transform="translate(-70.779 -64.713)"/>
                <path id="Path_54205" d="M238.848 333.412h-82.982l-.561-16.489h82.982z" class="cls-16" transform="translate(-77.735 -47.656)"/>
                <path id="Path_54206" d="M188.9 263.6a4.448 4.448 0 0 1-4.475 4.633 4.83 4.83 0 0 1-4.792-4.633 4.449 4.449 0 0 1 4.477-4.633 4.829 4.829 0 0 1 4.79 4.633z" class="cls-16" transform="translate(-67.826 -71.264)"/>
                <path id="Path_54207" d="M174.728 263.6a4.448 4.448 0 0 1-4.475 4.633 4.829 4.829 0 0 1-4.792-4.633 4.448 4.448 0 0 1 4.475-4.633 4.829 4.829 0 0 1 4.792 4.633z" class="cls-16" transform="translate(-73.599 -71.264)"/>
                <path id="Path_54208" d="M160.555 263.6a4.448 4.448 0 0 1-4.477 4.633 4.829 4.829 0 0 1-4.791-4.633 4.448 4.448 0 0 1 4.475-4.633 4.829 4.829 0 0 1 4.793 4.633z" class="cls-16" transform="translate(-79.373 -71.264)"/>
                <path id="Path_54209" d="M203.074 263.6a4.448 4.448 0 0 1-4.475 4.633 4.828 4.828 0 0 1-4.791-4.633 4.448 4.448 0 0 1 4.475-4.633 4.829 4.829 0 0 1 4.791 4.633z" class="cls-16" transform="translate(-62.052 -71.264)"/>
                <path id="Path_54210" d="M217.248 263.6a4.449 4.449 0 0 1-4.477 4.633 4.829 4.829 0 0 1-4.791-4.633 4.448 4.448 0 0 1 4.475-4.633 4.83 4.83 0 0 1 4.793 4.633z" class="cls-16" transform="translate(-56.279 -71.264)"/>
            </g>
        </g>
        <g id="Character" transform="translate(388.918 157.125)">
            <g id="Group_57538">
                <path id="Path_54211" d="M337.628 174.28c1.877 3 3.428 5.89 5.037 8.883 1.6 2.964 3.054 6.012 4.475 9.086a130.732 130.732 0 0 1 7.178 19.324c.25.835.442 1.717.65 2.582l.308 1.3.153.65.182 1.074a18.811 18.811 0 0 1-.439 7.248 41.052 41.052 0 0 1-4.378 10.495 83.766 83.766 0 0 1-12.506 16.428l-5.926-4.487a157.471 157.471 0 0 0 7.933-16.94 35.738 35.738 0 0 0 2.147-7.923 6.261 6.261 0 0 0-.115-2.487l-.557-1.72c-.231-.707-.435-1.409-.715-2.121a155.613 155.613 0 0 0-7.415-17.006c-2.768-5.6-5.836-11.307-8.857-16.631z" class="cls-17" transform="translate(-256.617 -108.517)"/>
                <path id="Path_54212" d="M333.107 224.425l-6.463 3.431 7.429 8.7s4.637-3.137 4.845-7.928z" class="cls-17" transform="translate(-255.859 -88.091)"/>
                <path id="Path_54213" d="M320.466 232.225l7.961 6.316 8.163-2.98-7.428-8.7z" class="cls-17" transform="translate(-258.376 -87.097)"/>
                <path id="Path_54214" d="M301.7 142.033c-.159.782-.7 1.331-1.215 1.227s-.8-.822-.638-1.6.7-1.333 1.215-1.229.797.82.638 1.602z" class="cls-18" transform="translate(-266.792 -122.312)"/>
                <path id="Path_54215" fill="#ff5652" d="M302.179 142.522s-2.7 4.152-5.1 5.932c1.122 1.573 3.6 1.461 3.6 1.461z" transform="translate(-267.902 -121.454)"/>
                <path id="Path_54216" d="M298.9 164.808l.061-9.224 12.216 1.476s-.21 7.932-7.031 10.264z" class="cls-17" transform="translate(-267.16 -116.133)"/>
                <path id="Path_54217" d="M302.394 150.864l8.6 2.472.164 5.648-12.216-1.476z" class="cls-17" transform="translate(-267.142 -118.056)"/>
                <path id="Path_54218" d="M310.484 153.337l-8.6-2.477-1.675 3.209A13.7 13.7 0 0 0 308.147 166a13.455 13.455 0 0 0 2.491-7.023z" class="cls-20" transform="translate(-266.627 -118.057)"/>
                <path id="Path_54219" d="M304.982 139.577a.462.462 0 0 0 .318-.125.468.468 0 0 0 .027-.661 4.653 4.653 0 0 0-3.99-1.552.469.469 0 0 0 .155.925 3.719 3.719 0 0 1 3.145 1.264.469.469 0 0 0 .345.149z" class="cls-18" transform="translate(-266.326 -123.619)"/>
                <path id="Path_54220" d="M322.888 151.683c-1.42 7.242-2.277 17.275 2.789 22.108 0 0-1.98 7.346-15.436 7.346-14.8 0-7.118-6.447-7.118-6.447 6.15-1.91 6.1-8.916 4.691-14.542z" class="cls-17" transform="translate(-266.251 -117.722)"/>
                <path id="Path_54221" d="M328.306 173.755c1.317-1.866 1.264-7.762-.142-8.8-2.272-1.68-11.986-2.066-25.073.944 1.409 5.711-1.609 8.7-1.609 8.7z" class="cls-18" transform="translate(-266.109 -112.843)"/>
                <path id="Path_54222" d="M352.593 408.843a3.188 3.188 0 0 1-2.464-.135.957.957 0 0 1-.227-1.089 1.086 1.086 0 0 1 .6-.69c1.337-.638 4.408.614 4.539.667a.237.237 0 0 1 .145.21.234.234 0 0 1-.132.218 12.46 12.46 0 0 1-2.461.819zm-1.61-1.582a1.272 1.272 0 0 0-.276.091.628.628 0 0 0-.356.4c-.125.422.031.554.083.6.532.453 2.508.035 3.9-.522a7.731 7.731 0 0 0-3.351-.569z" class="cls-21" transform="translate(-246.412 -13.82)"/>
                <path id="Path_54223" d="M354.567 408.822a.225.225 0 0 1-.114 0c-1.119-.327-3.514-2.028-3.544-3.15a.766.766 0 0 1 .6-.759 1.277 1.277 0 0 1 1.039.083c1.323.676 2.159 3.417 2.194 3.532a.238.238 0 0 1-.058.234.243.243 0 0 1-.117.06zm-2.8-3.5a.927.927 0 0 0-.1.028c-.29.1-.286.243-.284.3.017.664 1.6 2 2.756 2.539-.29-.791-.951-2.352-1.8-2.785a.834.834 0 0 0-.573-.081z" class="cls-21" transform="translate(-245.974 -14.6)"/>
                <path id="Path_54224" d="M300.749 410.107c-1.269 0-2.5-.175-2.908-.746a.886.886 0 0 1 .02-1.025 1.166 1.166 0 0 1 .743-.547c1.647-.449 5.106 1.523 5.254 1.607a.235.235 0 0 1-.072.433 17.437 17.437 0 0 1-3.037.278zm-1.569-1.92a1.748 1.748 0 0 0-.453.053.708.708 0 0 0-.459.328c-.166.291-.106.436-.047.519.462.639 2.963.654 4.8.394a10.582 10.582 0 0 0-3.841-1.293z" class="cls-21" transform="translate(-267.653 -13.424)"/>
                <path id="Path_54225" d="M303 410.52a.231.231 0 0 1-.1-.021c-1.195-.536-3.562-2.677-3.38-3.8.042-.263.229-.59.873-.656a1.709 1.709 0 0 1 1.3.4c1.26 1.034 1.526 3.7 1.537 3.814a.233.233 0 0 1-.1.213.243.243 0 0 1-.13.05zm-2.415-4.014a1.188 1.188 0 0 0-.141.008c-.422.042-.449.208-.457.263-.108.671 1.5 2.355 2.719 3.086a5.5 5.5 0 0 0-1.307-3.053 1.246 1.246 0 0 0-.816-.303z" class="cls-21" transform="translate(-266.911 -14.11)"/>
                <path id="Path_54226" d="M312.874 415.691h-9.9l-.986-22.924h9.9z" class="cls-17" transform="translate(-265.902 -19.516)"/>
                <path id="Path_54227" d="M366.961 411.98l-9.675 2.095-9.714-21.352 9.675-2.095z" class="cls-17" transform="translate(-247.333 -20.387)"/>
                <path id="Path_54228" d="M357.882 407.285l10.869-2.353a.863.863 0 0 1 .967.483l3.773 8.185a1.456 1.456 0 0 1-1.044 2.028c-3.808.756-5.7.933-10.481 1.967-2.94.636-9.578 2.253-13.64 3.133-3.972.86-5.46-3.022-3.876-3.745 7.1-3.244 10.068-6.1 11.989-8.764a2.407 2.407 0 0 1 1.443-.934z" class="cls-18" transform="translate(-248.859 -14.569)"/>
                <path id="Path_54229" d="M309.656 408.242h10.811a.863.863 0 0 1 .842.676l1.956 8.8a1.44 1.44 0 0 1-1.424 1.761c-3.9-.066-9.535-.294-14.435-.294-5.732 0-10.682.312-17.4.312-4.063 0-5.192-4.108-3.49-4.481 7.743-1.693 14.066-1.875 20.758-6a4.577 4.577 0 0 1 2.382-.774z" class="cls-18" transform="translate(-272.518 -13.212)"/>
                <g id="Group_57534" transform="translate(64.635 58.04)">
                    <path id="Path_54230" d="M334.79 169.059c9.277 2.128 16.926 25.812 16.926 25.812l-18.631 14.2s-6.838-6.447-9.881-18.294c-3.189-12.414 2.096-23.892 11.586-21.718z" class="cls-22" transform="translate(-322.274 -168.793)"/>
                    <path id="Path_54231" d="M334.79 169.059c9.277 2.128 16.926 25.812 16.926 25.812l-18.631 14.2s-6.838-6.447-9.881-18.294c-3.189-12.414 2.096-23.892 11.586-21.718z" class="cls-23" transform="translate(-322.274 -168.793)"/>
                </g>
                <path id="Path_54232" d="M304.712 201.273c-2.317 2.5-4.625 4.72-7.016 7.009q-1.78 1.7-3.639 3.344l-1.869 1.637-.471.407c-.228.2-.505.428-.8.656a11.811 11.811 0 0 1-2.719 1.6 8.949 8.949 0 0 1-3.423.708 8.3 8.3 0 0 1-2.955-.525 8.214 8.214 0 0 1-2.816-1.79 8.5 8.5 0 0 1-2.207-3.644 10.178 10.178 0 0 1-.4-2.093 13.557 13.557 0 0 1 .028-2.516c.066-.676.158-1.26.262-1.811a35.412 35.412 0 0 1 1.634-5.673 52.772 52.772 0 0 1 2.179-5.082c.892-1.792 1.756-3.092 2.615-4.592a114.861 114.861 0 0 1 11.895-16.124 108.609 108.609 0 0 1 14.432-13.684l5.179 5.331c-3.638 4.867-7.216 10.085-10.523 15.229a165.615 165.615 0 0 0-9 15.827c-.608 1.326-1.357 2.778-1.779 3.887a38.95 38.95 0 0 0-1.32 3.8 26.907 26.907 0 0 0-.8 3.555 5.131 5.131 0 0 0-.046.556c0 .11.025.169.011-.129a4 4 0 0 0-.182-.922 6.1 6.1 0 0 0-1.624-2.616 6.741 6.741 0 0 0-4.688-1.9 5.937 5.937 0 0 0-2.27.433 5.789 5.789 0 0 0-.7.348l.54-.493 1.689-1.55 3.365-3.151c2.228-2.1 4.467-4.336 6.584-6.412z" class="cls-17" transform="translate(-276.347 -114.699)"/>
                <path id="Path_54233" d="M326.711 181.358c5.04 4.986 6.684 14.068 7.073 21.965l-.822.633s-6.845-6.454-9.889-18.3c-.189-.742-.35-1.483-.486-2.211z" class="cls-20" transform="translate(-257.511 -105.634)"/>
                <g id="Group_57535" transform="translate(16.832 55.738)">
                    <path id="Path_54234" d="M290 179.651c-2.022 10.694-3.289 32.655 2.585 76.145h52.946c.364-8.127-4.741-47.775 3.1-86.071a138.106 138.106 0 0 0-17.724-2.238 194.5 194.5 0 0 0-22.508 0c-2.483.228-4.919.585-7.09.97A14.011 14.011 0 0 0 290 179.651z" class="cls-22" transform="translate(-288.307 -167.157)"/>
                    <path id="Path_54235" d="M290 179.651c-2.022 10.694-3.289 32.655 2.585 76.145h52.946c.364-8.127-4.741-47.775 3.1-86.071a138.106 138.106 0 0 0-17.724-2.238 194.5 194.5 0 0 0-22.508 0c-2.483.228-4.919.585-7.09.97A14.011 14.011 0 0 0 290 179.651z" class="cls-23" transform="translate(-288.307 -167.157)"/>
                </g>
                <path id="Path_54236" d="M298.1 187.929l-9.567-2.291c-.3 5.794-.322 12.977.108 21.856 4.404-5.013 10.022-12.828 9.459-19.565z" class="cls-20" transform="translate(-271.474 -103.89)"/>
                <g id="Group_57536" transform="translate(36.09 370.246)">
                    <path id="Path_54237" d="M301.991 392.772l.506 11.816h9.9l-.506-11.816z" class="cls-20" transform="translate(-301.991 -389.76)"/>
                    <path id="Path_54238" d="M357.252 390.632l-9.679 2.1 5.012 11 9.679-2.1z" class="cls-20" transform="translate(-283.423 -390.632)"/>
                </g>
                <path id="Path_54239" d="M328.484 149.083c-2.543 9.49-3.549 15.173-9.405 19.119-8.809 5.935-19.776-.877-20.118-10.935-.31-9.052 3.9-23.05 14.085-24.962a13.4 13.4 0 0 1 15.438 16.778z" class="cls-17" transform="translate(-267.142 -125.717)"/>
                <path id="Path_54240" d="M304.573 148.7c-.469-1.274-2.663-11.08-.6-13.625s25.489-.715 28.953 2.7c5.748 5.656 1.761 10.7-4.533 17.218-4.732 4.9-4.914 10.417-7.3 11.228-4.183 1.42-10.668.086-11.97-4.38s-4.55-13.141-4.55-13.141z" class="cls-18" transform="translate(-265.449 -124.972)"/>
                <path id="Path_54241" d="M331.6 129.2c-8.282-3.525-23.81.374-32.193-1.647-.3 4.342 2.321 11.3 10.7 13.176 0 0 11.9 2.321 21.11 1.946s7.414-10.482.383-13.475z" class="cls-18" transform="translate(-266.964 -127.552)"/>
                <path id="Path_54242" d="M323.194 137.347s5.121.577 8.758-1.68c1.554 3.742-6.959 4.77-8.758 1.68z" class="cls-18" transform="translate(-257.264 -124.246)"/>
                <path id="Path_54243" d="M309.569 145.883a11.1 11.1 0 0 1-2.781 6.565c-2.157 2.378-4.411.9-4.792-2-.345-2.606.363-6.983 3-8.295 2.604-1.29 4.748.793 4.573 3.73z" class="cls-17" transform="translate(-265.932 -121.763)"/>
                <path id="Path_54244" d="M304.69 230.14s11.235 75.651 17.4 103.991c6.754 31.036 42.968 133.718 42.968 133.718l17.72-3.836s-25.323-83.678-30.991-127.067c-4.353-33.329-12.934-106.805-12.934-106.805z" class="cls-18" transform="translate(-264.802 -85.762)"/>
                <path id="Path_54245" d="M344.571 395.972c-.076.015 3.3 6.408 3.3 6.408l19.937-4.316-1.68-5.994z" class="cls-18" transform="translate(-248.557 -19.8)"/>
                <path id="Path_54246" d="M310.581 249.321c12.99 2.547 11.616 50.988 10.053 75.9-3.746-17.612-9.231-51.5-12.976-75.554a4.44 4.44 0 0 1 2.923-.346z" opacity="0.3" transform="translate(-263.593 -77.99)"/>
                <path id="Path_54247" d="M291.548 230.14s-1.364 74.013-.287 104.2c1.12 31.4 12.088 134.208 12.088 134.208h16.769s.616-100.975 1.362-131.813c.813-33.617 4.872-106.6 4.872-106.6z" class="cls-18" transform="translate(-270.441 -85.762)"/>
                <path id="Path_54248" d="M297.438 394.8c-.077 0 .946 6.962.946 6.962h20.4l.552-6.214z" class="cls-18" transform="translate(-267.758 -18.689)"/>
                <g id="Group_57537" transform="translate(4.06 57.111)">
                    <path id="Path_54249" d="M314.444 182.5c4.746 12.791-23.14 27.859-23.14 27.859l-12.072-15.52s8.053-16.031 17.937-23.257c12.21-8.926 13.661 1.181 17.275 10.918z" class="cls-22" transform="translate(-279.232 -168.133)"/>
                    <path id="Path_54250" d="M314.444 182.5c4.746 12.791-23.14 27.859-23.14 27.859l-12.072-15.52s8.053-16.031 17.937-23.257c12.21-8.926 13.661 1.181 17.275 10.918z" class="cls-23" transform="translate(-279.232 -168.133)"/>
                </g>
            </g>
        </g>
        <g id="Thinking" transform="translate(462.681 66.747)">
            <g id="Group_57539">
                <ellipse id="Ellipse_77" cx="50.787" cy="32.369" class="cls-22" rx="50.787" ry="32.369" transform="translate(23.964)"/>
                <path id="Path_54251" d="M372.948 106.179a14.232 14.232 0 0 1-13.972-11.812 14.381 14.381 0 0 1 10.849-16.276 14.155 14.155 0 0 1 15.232 6.356l32.6-6.729a5.1 5.1 0 0 1 5.976 3.514 4.911 4.911 0 0 1-3.758 6.059l-.856.177a.854.854 0 0 0-.588.433.864.864 0 0 0-.049.73l.574 1.495a2.231 2.231 0 0 1-.867 2.706 2.743 2.743 0 0 0-1.264 1.99 2.177 2.177 0 0 1-1.695 1.953l-.67.138a2.186 2.186 0 0 1-2.329-1.12 2.737 2.737 0 0 0-5.081 1.048 2.183 2.183 0 0 1-1.7 1.951l-.657.135a2.187 2.187 0 0 1-2.328-1.12 2.75 2.75 0 0 0-1.959-1.326 2.233 2.233 0 0 1-1.87-2.142l-.065-1.6a.848.848 0 0 0-.332-.65.857.857 0 0 0-.714-.167l-10.389 2.145a14.187 14.187 0 0 1-11.19 11.812 14.384 14.384 0 0 1-2.898.3zm-2.812-26.716a12.956 12.956 0 0 0-9.773 14.665 12.809 12.809 0 0 0 25.351-.728l.058-.507 11.378-2.349a2.277 2.277 0 0 1 2.737 2.139l.065 1.6a.834.834 0 0 0 .67.806 4.122 4.122 0 0 1 2.969 2.011.8.8 0 0 0 .828.449l.657-.135a.8.8 0 0 0 .583-.74 4.145 4.145 0 0 1 7.7-1.587.791.791 0 0 0 .826.448l.671-.138a.793.793 0 0 0 .578-.736 4.106 4.106 0 0 1 1.92-3.023.832.832 0 0 0 .3-1l-.574-1.5a2.277 2.277 0 0 1 1.668-3.048l.856-.177a3.5 3.5 0 0 0 2.681-4.325 3.678 3.678 0 0 0-4.332-2.49l-33.601 6.932-.252-.443a12.744 12.744 0 0 0-13.964-6.123zm2.83 21.513a9.034 9.034 0 1 1 1.838-.187 9.165 9.165 0 0 1-1.838.187zm.042-16.625a7.771 7.771 0 0 0-1.564.162 7.606 7.606 0 0 0 3.076 14.9 7.607 7.607 0 0 0-1.513-15.059z" class="cls-4" transform="translate(-316.533 -57.517)"/>
                <ellipse id="Ellipse_78" cx="16.693" cy="10.639" fill="#658bb1" opacity="0.6" rx="16.693" ry="10.639" transform="translate(16.712 62.437)"/>
                <ellipse id="Ellipse_79" cx="6.852" cy="4.367" fill="#658bb1" opacity="0.3" rx="6.852" ry="4.367" transform="translate(0 79.348)"/>
            </g>
        </g>
    </g>
</svg>
