<?xml version="1.0" encoding="UTF-8"?>
<!DOCTYPE svg PUBLIC "-//W3C//DTD SVG 1.1//EN" "http://www.w3.org/Graphics/SVG/1.1/DTD/svg11.dtd">
<svg version="1.1" xmlns="http://www.w3.org/2000/svg" xmlns:xlink="http://www.w3.org/1999/xlink" x="0" y="0" width="1994" height="898" viewBox="0, 0, 1994, 898">
  <defs>
    <clipPath id="Clip_1">
      <path d="M0.06,0.544 L1993.56,0.544 L1993.56,898 L0.06,898 z"/>
    </clipPath>
    <clipPath id="Clip_2">
      <path d="M0.06,0.544 L1993.56,0.544 L1993.56,898 L0.06,898 z"/>
    </clipPath>
  </defs>
  <g id="Layer_1">
    <g clip-path="url(#Clip_1)">
      <path d="M379.439,621.14 C369.524,646.466 359.605,671.792 349.586,697.077 C348.919,698.762 349.199,701.644 345.676,701.089 C342.58,700.601 342.837,698.377 342.446,696.32 C339.16,679.025 336.17,661.669 332.013,644.55 C331.609,642.885 331.554,641.418 332.842,639.931 C337.585,634.456 338.68,627.778 338.683,620.836 C338.684,618.93 338.445,617.517 341.031,616.828 C357.991,612.309 373.821,605.221 389.226,595.785 C385.966,604.237 382.742,612.704 379.439,621.14 z M1869.9,395.559 C1862.77,392.983 1863.97,388.904 1865.87,383.905 C1866.16,383.141 1866.25,382.276 1866.3,381.449 C1866.91,372.686 1860.59,366.718 1851.94,367.995 C1849.59,368.341 1847.31,369.114 1844.84,369.73 C1845.28,362.95 1844.3,357.015 1838.54,353.03 C1832.34,348.747 1826.6,351.713 1820.7,354.951 C1819.91,327.43 1813.23,302.092 1800.15,278.542 C1780.01,242.247 1749.54,217.189 1712.62,199.626 C1673.14,180.846 1631.47,173.533 1587.88,177.964 C1562.96,180.498 1538.89,187.066 1514.84,193.711 C1490.99,200.302 1467.56,208.508 1443.06,212.643 C1435.03,213.999 1426.96,215.24 1419.01,216.959 C1413.58,218.131 1411.49,224.245 1415.52,227.576 C1423.74,234.374 1429.23,243.412 1436.21,251.206 C1437.94,253.132 1438.46,254.213 1436.06,256.18 C1420.62,268.827 1406.2,282.754 1389.16,293.402 C1384.2,296.504 1384.31,302.105 1389.38,305.068 C1402.3,312.613 1416.02,318.049 1431.1,319.032 C1435.56,319.323 1436.86,320.713 1436.72,325.2 C1436.19,341.488 1434.54,357.78 1436.6,374.089 C1437.66,382.467 1439.63,390.756 1438.61,399.359 C1438.28,402.214 1437.84,403.229 1434.68,403.341 C1423.81,403.728 1416.67,409.534 1413.59,419.921 C1411.52,426.89 1411.04,434.016 1412.08,441.181 C1414.78,459.952 1425.13,469.042 1444.01,469.143 C1446.96,469.159 1448.33,469.951 1449.31,472.846 C1454.05,486.782 1460.79,499.726 1469.54,511.578 C1487.36,535.707 1511.14,551.483 1539.38,560.764 C1543.21,562.023 1543.29,563.247 1541.54,566.341 C1533.25,580.966 1521.5,591.848 1506.73,599.747 C1502.97,601.76 1501.83,600.693 1500.46,597.132 C1492.06,575.277 1483.42,553.511 1474.87,531.708 C1471.9,524.119 1471.62,523.891 1463.65,523.891 C1414.82,523.887 1365.99,523.889 1317.17,523.889 C1316,523.889 1314.83,523.802 1313.67,523.906 C1311.37,524.115 1311,523.272 1311.33,521.02 C1314.65,498.104 1310.7,475.921 1304.05,454.102 C1296,427.677 1283.73,403.215 1268.5,380.245 C1266.26,376.864 1266.98,375.869 1270.18,374.29 C1278.41,370.232 1285.95,365.041 1293.06,359.231 C1313.18,342.784 1326.89,321.874 1335.55,297.565 C1336.76,294.166 1338.3,292.796 1341.88,293.17 C1344.67,293.461 1347.5,293.241 1350.3,292.547 C1364.37,289.061 1373.67,278.708 1372.96,261.984 C1372.42,249.027 1376.27,238.226 1380.43,226.584 C1395.51,184.449 1389.97,143.613 1369.45,104.643 C1349.43,66.609 1317.76,40.826 1279.36,22.992 C1235.17,2.464 1188.81,-4.566 1140.72,4.318 C1103.5,11.196 1070.9,28.523 1041.48,52.015 C1039.32,53.734 1037.13,54.786 1034.38,55.26 C1019.7,57.794 1005.7,62.445 992.572,69.533 C978.871,76.932 967.003,86.44 959.332,100.324 C950.212,116.832 954.832,133.591 971.096,143.207 C974.641,145.302 978.495,146.878 982.197,148.688 C967.257,172.49 967.809,213.016 990.655,230.892 C982.637,237.038 980.493,245.846 979.97,255.207 C978.809,275.96 988.527,294.634 1013.22,293.171 C1016.58,292.972 1016.86,295.104 1017.63,297.261 C1030.24,332.271 1052.47,358.993 1085.92,375.816 C1089.5,377.615 1089.47,378.704 1087.7,381.843 C1072.68,408.564 1059.17,435.946 1052.58,466.184 C1052.1,468.395 1051.29,469.051 1048.85,468.639 C1038.68,466.919 1028.47,465.392 1018.25,464.005 C1012.36,463.206 1010.24,464.743 1009.26,470.542 C1007.62,480.218 1006.13,489.925 1004.78,499.646 C1004.03,504.98 1005.92,507.33 1011.3,508.21 C1019.51,509.551 1027.74,510.749 1035.96,512.056 C1037.18,512.249 1039.36,511.781 1039.27,513.39 C1039.09,516.662 1038.64,520.098 1037.37,523.064 C1036.57,524.924 1033.74,523.85 1031.85,523.851 C968.355,523.897 904.864,523.889 841.373,523.889 C839.758,523.889 838.142,523.889 835.572,523.889 C840.948,516.115 844.634,508.704 846.634,500.54 C851.339,481.325 847.92,462.828 841.226,444.766 C832.762,421.935 819.789,401.657 804.83,382.606 C802.767,379.978 802.831,378.944 805.934,377.471 C810.577,375.268 815.264,372.912 819.344,369.841 C822.855,367.199 825.218,367.766 828.325,370.188 C834.136,374.718 840.549,378.262 847.833,379.862 C877.451,386.369 913.854,371.525 930.395,346.093 C941.083,329.662 944.925,311.117 945.394,291.96 C946.345,253.06 941.123,214.919 928.351,178.084 C915.245,140.285 895.731,106.199 865.622,79.295 C821.9,40.227 769.982,22.555 711.732,24.077 C653.121,25.608 604.797,50.742 565.421,92.896 C531.959,128.719 511.784,171.919 501.965,219.8 C495.798,249.867 495.235,280.052 504.87,309.637 C512.782,333.928 525.143,355.67 547.758,369.034 C571.309,382.951 595.826,387.844 620.152,369.942 C621.562,368.904 622.434,369.266 623.674,369.99 C629.24,373.242 634.852,376.415 640.578,379.691 C637.695,383.532 634.703,387.317 631.924,391.253 C616.851,412.604 603.322,434.748 597.326,460.618 C592.279,482.399 593.523,503.263 606.696,522.303 C606.93,522.641 606.819,523.218 606.849,523.494 C558.141,523.494 509.531,523.494 460.366,523.494 C471.087,514.484 473.171,503.022 472.3,490.568 C471.803,483.465 470.403,476.434 464.942,471.482 C462.03,468.841 462.238,467.302 464.087,464.355 C474.706,447.433 480.079,428.867 479.437,408.925 C478.732,387.011 471.603,366.877 460.241,348.259 C436.292,309.017 402.323,281.704 359.484,265.71 C313.394,248.502 266.507,244.897 219.266,261.083 C186.822,272.2 158.451,290.152 134.087,314.302 C131.855,316.514 130.047,317.009 127.212,315.997 C121.061,313.799 114.606,312.899 108.126,312.521 C79.376,310.84 53.458,318.21 32.813,338.883 C9.837,361.89 1.102,391.116 0.077,422.79 C-0.863,451.802 6.925,479.055 19.071,505.171 C29.158,526.86 39.7,548.355 45.091,571.888 C51.66,600.56 45.988,624.758 19.984,641.652 C17.228,643.442 16.281,645.927 16.924,648.932 C17.599,652.088 20.054,653.397 23.038,654.017 C37.833,657.092 52.736,657.883 67.731,655.98 C98.159,652.121 122.987,638.69 140.612,613.053 C148.77,601.186 154.144,588.043 158.237,574.126 C158.904,574.499 159.415,574.636 159.701,574.967 C176.257,594.126 196.994,606.847 220.941,614.509 C223.895,615.454 223.705,616.979 223.428,619.308 C219.188,655 214.483,690.628 207.73,725.943 C203.424,748.461 199.269,771.043 190.006,792.264 C187.906,797.074 189.715,800.38 195.163,802.009 C197.834,802.807 198.746,803.866 198.552,806.846 C196.719,835.023 210.47,857.579 236.156,869.08 C248.309,874.522 261.126,877.119 274.309,877.966 C277.94,878.199 278.828,879.142 277.013,882.322 C276.607,883.034 276.408,883.865 276.109,884.639 C273.027,892.624 276.696,898 285.232,898 C724.833,898 1164.43,898 1604.04,898 C1612.59,898 1616.34,892.598 1613.25,884.702 C1608.66,872.948 1604.2,861.136 1599.38,849.474 C1598.06,846.286 1599.02,846.016 1601.8,845.798 C1606.94,845.396 1612.09,844.892 1617.15,843.95 C1641.48,839.421 1661.29,827.943 1674.74,806.521 C1678.43,800.648 1679.15,792.54 1684.61,788.579 C1690.04,784.631 1697.43,783.341 1704.01,781.016 C1708.47,779.439 1710.1,776.512 1709.65,771.805 C1708.63,761.204 1707.91,750.573 1707.08,739.954 C1704.55,707.764 1702.05,675.572 1699.47,643.386 C1699.27,640.897 1699.83,639.033 1701.54,637.104 C1733.48,601.181 1761.22,562.11 1787.46,521.929 C1801.74,500.062 1815.45,477.837 1828.32,455.116 C1830.6,451.087 1833.17,448.146 1837.35,445.963 C1846.86,440.984 1855.12,434.213 1862.11,426.037 C1867.11,420.193 1871.59,413.973 1873.21,406.219 C1874.09,402.036 1873.74,396.948 1869.9,395.559" fill="#6E4100"/>
    </g>
    <path d="M1974.89,304.347 C1974.87,307.412 1973.57,309.675 1970.95,311.374 C1956.72,320.612 1942.56,329.955 1928.33,339.182 C1923.07,342.592 1918.24,342.048 1915.57,338.009 C1912.77,333.769 1914.37,329.117 1919.82,325.554 C1933.74,316.46 1947.66,307.365 1961.57,298.253 C1964.56,296.298 1967.65,295.511 1970.94,297.344 C1973.65,298.849 1974.94,301.241 1974.89,304.347" fill="#FF7164"/>
    <g clip-path="url(#Clip_2)">
      <path d="M1879.68,279.451 C1873.67,279.442 1869.61,273.684 1872.57,268.395 C1879.87,255.342 1888.18,242.899 1897.25,231.005 C1899.96,227.445 1904.43,227.211 1907.99,229.694 C1911.39,232.061 1912.62,236.646 1910.08,240.275 C1901.79,252.119 1893.76,264.122 1886.17,276.424 C1884.77,278.69 1882.35,279.518 1879.68,279.451" fill="#FF7164"/>
      <path d="M1993.54,395.674 C1993.81,399.874 1991.6,402.247 1987.72,403.1 C1974.93,405.918 1961.92,407.675 1949.27,411.22 C1944.49,412.557 1940.64,409.791 1939.68,405.563 C1938.73,401.348 1940.92,397.522 1945.52,395.942 C1958.46,391.502 1972.05,390.011 1985.39,387.445 C1990.25,386.51 1993.63,390.369 1993.54,395.674" fill="#FF7164"/>
    </g>
    <path d="M561.578,644.033 C561.319,652.046 564.227,654.303 571.86,652.206 C619.201,639.2 666.963,636.783 715.114,647.038 C722.619,648.637 729.215,645.776 736.123,644.507 C775.715,637.238 814.937,638.022 853.744,649.301 C856.929,650.226 859.978,651.612 863.144,652.614 C868.937,654.448 873.397,650.64 872.111,644.768 C866.415,618.778 860.553,592.824 854.875,566.831 C854.091,563.243 851.999,561.424 848.75,560.395 C818.238,550.724 787,547.307 755.114,549.551 C744.144,550.323 733.315,552.094 722.506,554.105 C716.503,555.222 710.838,552.203 704.923,551.742 C704.184,551.684 703.716,551.009 703.827,550.323 C704.616,545.464 702.974,541.249 699.286,536.893 C712.114,536.893 723.925,535.687 735.292,537.412 C740.81,538.25 747.468,539.008 752.58,544.082 C757.863,549.326 765.124,547.121 771.411,544.496 C774.167,543.345 776.358,543.669 779.244,544.125 C786.852,545.327 794.658,545.635 802.381,545.58 C805.65,545.556 808.606,543.065 810.626,540.372 C812.749,537.54 815.195,536.795 818.663,536.801 C890.483,536.91 962.303,536.919 1034.12,536.784 C1038.02,536.776 1039.84,537.852 1041.43,541.467 C1045.21,550.042 1052.13,555.702 1061.32,559.808 C1057,561.169 1053.41,562.393 1049.76,563.419 C1046.58,564.315 1044.72,566.24 1043.75,569.414 C1036.41,593.395 1029.01,617.361 1021.54,641.304 C1020.62,644.249 1020.5,646.868 1022.72,649.185 C1024.99,651.544 1027.69,651.305 1030.59,650.494 C1075.79,637.85 1121.37,635.756 1167.36,645.766 C1172.71,646.93 1177.54,644.601 1182.54,643.632 C1223.49,635.692 1263.92,636.519 1303.64,650.375 C1306.33,651.313 1308.83,651.58 1311.14,649.617 C1313.61,647.515 1313.71,644.913 1313.03,641.899 C1307.74,618.207 1302.55,594.49 1297.29,570.791 C1296.86,568.881 1296.83,566.429 1294.91,565.492 C1291.44,563.796 1292.67,562.179 1294.27,559.963 C1298.67,553.893 1302.51,547.45 1305.34,540.504 C1306.44,537.829 1307.74,536.802 1310.75,536.809 C1360.24,536.913 1409.73,536.907 1459.22,536.819 C1461.99,536.814 1463.29,537.619 1464.3,540.237 C1472.25,560.844 1480.3,581.411 1488.49,601.928 C1489.77,605.136 1489.6,606.744 1485.79,607.082 C1481.53,607.46 1477.21,610.226 1473.1,606.398 C1472.52,605.859 1471.17,606.006 1470.19,606.06 C1450.16,607.167 1430.38,605.845 1410.91,600.556 C1406.27,599.295 1400.16,598.369 1396.85,601.529 C1387.46,610.486 1376.28,605.996 1365.91,607.09 C1359.15,607.803 1352.27,607.423 1345.45,607.521 C1338.7,607.617 1337.12,608.928 1335.74,615.632 C1331.93,634.083 1335.35,651.671 1342.16,668.835 C1346.53,679.86 1352.36,690.104 1359.16,699.798 C1360.34,701.484 1361.23,702.927 1360.69,705.214 C1354.67,730.76 1359.44,755.432 1367.02,779.832 C1370.42,790.799 1374.98,801.315 1379.66,811.798 C1381.86,816.738 1385.04,818.641 1390.45,818.617 C1428.44,818.451 1466.44,818.568 1504.43,818.474 C1508.55,818.464 1512.19,819.137 1515.73,821.42 C1521.04,824.836 1526.58,827.896 1532.1,830.95 C1536.8,833.547 1539.91,832.76 1542.61,828.199 C1547.7,819.618 1552.69,810.977 1557.58,802.283 C1560,797.973 1559.07,794.743 1554.82,792.138 C1550.85,789.708 1546.92,787.142 1542.7,785.223 C1537.01,782.633 1533.94,778.471 1531.86,772.602 C1523.29,748.445 1517.97,723.68 1516.7,698.074 C1516.57,695.484 1515.97,693.3 1514.45,691.15 C1512.25,688.039 1510.32,684.722 1508.44,681.398 C1504.69,674.749 1504.75,674.769 1511.97,672.149 C1514.19,671.343 1515.52,670.937 1516.69,673.931 C1544.51,745.265 1572.47,816.549 1600.39,887.844 C1600.44,887.979 1600.37,888.162 1600.33,888.664 C1163.27,888.664 726.171,888.664 288.648,888.664 C293.116,877.17 297.524,865.745 301.996,854.344 C312.487,827.597 323.076,800.887 333.432,774.087 C334.67,770.883 336.001,769.985 339.454,770.34 C347.574,771.174 355.713,770.481 364.397,768.996 C360.894,780.09 356.122,790.117 350.933,799.964 C349.46,802.758 347.724,805.417 346.316,808.242 C343.634,813.624 346.101,817.993 352.02,818.503 C353.178,818.603 354.351,818.529 355.518,818.529 C405.008,818.529 454.5,818.444 503.99,818.64 C509.987,818.663 513.36,816.726 515.887,811.195 C528.232,784.172 537.395,756.417 537.237,726.281 C537.206,720.439 537.004,714.526 535.408,708.947 C534.077,704.293 535.142,700.991 537.823,697.172 C549.13,681.071 556.632,663.264 560.453,643.936 C560.876,643.412 561.251,643.444 561.578,644.033" fill="#FEFEFE"/>
    <path d="M1732.52,460.944 C1719.02,483.337 1703.42,504.243 1687.3,524.771 C1681.14,532.62 1674.66,540.223 1668.33,547.934 C1667.06,549.478 1665.76,550.761 1663.59,551.266 C1617.72,561.923 1572.33,561.592 1528.67,542.516 C1489.07,525.218 1466.78,493.164 1456.62,451.955 C1456.14,450.038 1455.96,448.05 1455.64,446.095 C1457.92,445.806 1458.67,447.84 1459.92,449.018 C1474.51,462.744 1502.9,465.102 1515.11,439.238 C1517.82,433.501 1518.09,427.461 1516.88,421.65 C1514.03,407.973 1504.86,395.886 1491.69,393.635 C1477.07,391.137 1464.07,398.166 1456.59,411.894 C1455.24,414.366 1455.18,417.848 1451.8,418.984 C1450.3,369.921 1463.45,325.799 1497.14,289.207 C1517.44,267.155 1543.35,254.317 1572.26,247.17 C1575.61,246.342 1576.56,248.167 1577.91,250.426 C1591,272.283 1604.65,293.766 1620.46,313.786 C1623.45,317.562 1626.63,321.239 1630.14,324.52 C1635.6,329.628 1639.85,328.669 1642.97,321.97 C1647.39,312.489 1651.88,303.034 1654.81,292.94 C1654.98,292.345 1655.44,291.832 1655.91,291.038 C1662.92,298.952 1669.83,306.609 1677.46,313.566 C1684,319.526 1690.93,324.963 1698.78,329.117 C1705.24,332.53 1709.39,330.519 1710.58,323.403 C1712.49,311.99 1712.13,300.546 1711.02,289.094 C1710.77,286.5 1710.48,283.911 1710.1,280.24 C1717.43,286.055 1722.96,292.171 1728.11,298.602 C1741.59,315.443 1750.83,334.48 1756.93,355.105 C1757.36,356.553 1757.9,357.803 1756.93,359.34 C1751.38,368.189 1752.19,377.741 1754.02,387.38 C1754.89,391.943 1755.77,396.505 1756.64,401.068 C1754.36,401.767 1752.86,400.15 1751.27,399.098 C1742.75,393.454 1733.26,392.496 1723.51,393.664 C1713.69,394.841 1701.23,407.843 1699.2,418.395 C1696.65,431.639 1704.31,448.472 1716,455.228 C1719.63,457.328 1723.47,458.736 1727.78,458.801 C1729.52,458.827 1731.91,458.128 1732.52,460.944" fill="#FEF8EA"/>
    <path d="M1019.87,240.144 C1019.92,182.071 1037.53,131.972 1085.58,95.767 C1089.29,92.974 1093.44,90.774 1097.3,88.169 C1100.06,86.303 1101.07,86.81 1101.65,90.199 C1105.13,110.511 1113.11,128.997 1124.96,145.813 C1130.94,154.311 1137.86,161.912 1146.92,167.305 C1161.71,176.105 1176.31,173.067 1186.26,159.05 C1190.24,153.442 1192.99,147.233 1194.97,140.146 C1203.06,150.154 1212.01,158.725 1222.6,165.494 C1227.65,168.726 1232.87,171.653 1238.45,173.848 C1257.76,181.443 1271.42,174.911 1278.19,154.713 C1285.32,161.382 1292.9,167.261 1301.72,171.376 C1307.81,174.216 1314.09,176.361 1320.88,176.191 C1323.53,176.125 1324.75,177.049 1325.42,179.506 C1330.74,198.989 1335.07,218.598 1333.46,239.014 C1331.06,238.819 1330.96,236.589 1330.18,235.099 C1321.97,219.373 1304.75,214.856 1289.53,218.221 C1277.46,220.888 1261.5,239.659 1268.45,257.951 C1269.34,260.288 1270.34,262.56 1271.43,264.807 C1283.19,289.123 1311.74,288.035 1325.28,268.34 C1326.66,266.329 1327.32,263.321 1330.63,263.267 C1330.68,263.266 1330.78,263.504 1330.79,263.636 C1330.8,263.798 1330.75,263.965 1330.73,264.13 C1322.45,312.983 1298.16,350.409 1250.92,368.704 C1202.49,387.463 1152.79,387.41 1104.04,369.474 C1061.82,353.941 1037.09,321.952 1025.68,279.069 C1025.17,277.148 1024.86,275.174 1024.46,273.224 C1024.52,270.962 1025.92,271.945 1026.77,272.42 C1028.96,273.627 1030.79,275.371 1032.83,276.802 C1043.62,284.363 1061.95,284.967 1071.06,278.061 C1087.61,265.51 1090.21,248.639 1079.1,231.097 C1066.84,211.738 1040.69,213.967 1029.11,229.653 C1026.93,232.605 1024.86,235.594 1023.21,238.89 C1022.58,240.15 1021.97,242.411 1019.87,240.144" fill="#FEF8EA"/>
    <path d="M141.049,504.004 C134.255,471.888 138.139,440.689 149.12,410.101 C149.453,408.522 150.72,407.896 152.037,407.891 C162.4,407.85 172.725,406.851 183.078,406.698 C189.859,411.682 190.506,411.589 197.779,406.533 C201.429,403.996 204.316,400.307 208.849,399.061 C215.189,399.174 221.123,401.494 227.325,402.427 C235.233,403.617 243.062,404.15 250.979,402.734 C252.871,402.396 254.886,401.726 256.729,403.058 C260.561,408.403 263.218,408.916 268.757,405.141 C293.413,388.338 311.087,365.437 325.601,339.81 C327.812,335.907 330.169,332.007 331.711,327.829 C333.191,323.82 335.123,324.129 338.415,325.401 C375.445,339.713 401.819,365.157 417.273,401.597 C430.671,433.187 435.947,465.98 429.564,500.131 C429.014,501.05 429.063,503.366 427.174,501.222 C426.623,500.596 426.602,499.678 426.427,498.865 C423.409,484.882 413.665,478.685 400.53,476.013 C387.514,473.366 378.234,478.874 370.855,488.843 C362.945,499.53 363.14,511.296 371.233,523.764 C383.284,542.333 406.665,542.34 420.021,523.87 C421.345,522.04 421.655,518.906 424.977,519.03 C415.306,553.383 395.057,579.256 362.781,594.879 C334.062,608.78 303.302,612.053 271.821,610.358 C246.974,609.02 222.986,604.132 201.041,591.862 C175.946,577.831 158.522,557.126 148.635,530.106 C150.578,529.092 150.665,528.972 152.718,530.46 C157.967,534.263 163.956,535.944 170.187,537.351 C190.49,541.935 209.133,517.159 203.504,501.019 C199.662,490.004 194.321,480.555 182.565,476.78 C170.413,472.878 157.357,478.042 149.528,489.345 C147.248,492.636 145.452,496.189 144.13,499.986 C143.559,501.629 143.443,503.718 141.049,504.004" fill="#FEF8EA"/>
    <path d="M860.805,293.118 C850.307,327.427 829.61,353.714 796.322,367.375 C744.561,388.617 692.122,388.484 641.058,364.712 C614.029,352.13 596.034,330.136 585.547,302.166 C587.561,300.984 587.621,300.892 590.133,302.506 C594.673,305.425 599.523,307.34 604.872,308.305 C616.202,310.348 625.539,307.213 632.979,298.377 C640.452,289.501 642.722,279.687 638.526,268.664 C633.931,256.591 626.119,247.952 612.602,246.875 C601.126,245.96 592.628,251.936 585.915,260.742 C583.475,263.943 581.794,267.549 580.477,271.357 C579.987,272.772 580.184,274.871 577.837,275.018 C573.602,255.285 573.057,235.496 576.696,215.598 C582.01,186.538 592.071,159.58 611.271,136.615 C623.512,121.974 638.393,110.721 655.408,102.18 C657.791,100.984 659.295,100.767 661.198,103.28 C689.015,140.025 726.241,163.459 768.952,179.062 C770.041,179.46 771.127,179.883 772.246,180.18 C777.458,181.564 781.124,183.552 783.157,189.727 C786.147,198.811 794.592,202.198 803.709,203.05 C812.713,203.89 821.665,202.831 830.544,201.39 C833.861,200.852 835.531,201.05 835.916,205.204 C836.71,213.788 837.814,222.41 840.829,230.579 C845.66,243.669 854.736,249.198 868.604,247.416 C868.56,256.797 867.278,265.965 865.519,275.088 C863.394,274.853 863.628,273.032 863.356,271.683 C860.485,257.473 851.352,249.929 837.523,247.528 C819.963,244.479 804.309,255.972 801.617,273.746 C799.848,285.431 809.927,302.109 821.762,307.077 C832.82,311.72 846.648,307.547 854.758,297.144 C856.189,295.308 857.23,293.094 859.055,291.664 C860.769,290.322 861.431,291.161 860.805,293.118" fill="#FEF8EA"/>
    <path d="M1553.39,571.991 C1554.05,583.383 1558.96,590.732 1568.56,594.624 C1570.83,595.544 1571.27,597.156 1571.83,599.139 C1578.06,621.393 1584.36,643.627 1590.63,665.867 C1591.6,669.281 1592.45,672.819 1596.79,673.421 C1601.31,674.049 1603.18,670.833 1605.11,667.598 C1618.54,645.178 1632.03,622.798 1645.43,600.369 C1647.09,597.6 1648.92,595.519 1652.13,594.199 C1661.9,590.187 1666.7,581.916 1666.11,570.623 C1665.99,568.323 1666.05,566.863 1668.61,566.272 C1670.48,565.843 1671.57,564.231 1672.77,562.837 C1708.33,521.62 1740.54,478.066 1765.78,429.656 C1767.27,426.797 1768.6,426.804 1771.15,428.182 C1784.62,435.46 1798.12,442.671 1811.72,449.688 C1814.77,451.262 1814.88,452.555 1813.23,455.35 C1778.2,514.438 1740.67,571.778 1695.75,623.973 C1691.62,628.768 1687.29,633.389 1682.97,638.013 C1678,643.339 1678.48,647.279 1684.96,650.389 C1687.16,651.442 1687.25,653.06 1687.38,654.81 C1689.48,681.183 1691.52,707.559 1693.58,733.936 C1694.41,744.72 1695.15,755.515 1696.14,766.285 C1696.35,768.541 1696.39,770.044 1693.94,770.996 C1657.14,785.298 1620.02,789.853 1581.96,775.706 C1572.53,772.202 1566.31,767.149 1562.88,757.005 C1556.29,737.493 1548.14,718.502 1540.52,699.345 C1539.35,696.417 1539.14,693.657 1539.8,690.637 C1545.96,662.542 1552.07,634.437 1558.18,606.333 C1559.26,601.369 1557.7,597.991 1553.98,597.052 C1549.51,595.924 1546.66,598.037 1545.43,603.631 C1542.61,616.458 1539.42,629.212 1537.55,642.232 C1537.23,644.454 1536.55,645.86 1533.96,646.135 C1532.6,646.28 1531.28,647.366 1530.06,648.194 C1506.5,664.123 1480.45,669.129 1452.5,666.147 C1449.97,665.877 1449.06,664.791 1448.74,662.493 C1447.09,650.466 1445.41,638.441 1443.64,626.43 C1443.17,623.202 1443.8,622.296 1447.46,622.547 C1474.86,624.42 1500.89,620.234 1524.15,604.417 C1536.21,596.22 1545.52,585.539 1553.39,571.991" fill="#579CD7"/>
    <path d="M1037.66,68.038 C1039.35,66.516 1041.48,67.291 1043.4,66.984 C1047.97,66.253 1052.3,65.413 1053.69,59.919 C1053.97,58.805 1055.27,57.81 1056.31,57.044 C1085.41,35.566 1117.23,19.96 1153.39,15.391 C1192.64,10.431 1230.63,16.321 1267.13,31.761 C1291.19,41.938 1312.78,55.901 1331.09,74.464 C1356.09,99.794 1371.06,130.143 1374.89,165.793 C1377.17,187.077 1374.38,207.559 1366.44,227.403 C1365.16,230.599 1364.05,232.541 1360.29,229.767 C1357.93,228.019 1354.76,227.105 1351.78,227.308 C1347.63,227.59 1346.63,226.155 1346.49,222.038 C1345.95,206.668 1342.27,191.79 1338.31,177.01 C1337.65,174.575 1337.31,172.782 1339.38,170.749 C1341.64,168.532 1341.66,165.522 1339.83,162.979 C1337.9,160.292 1335,159.126 1331.91,160.721 C1323.1,165.281 1314.69,163.375 1306.61,159.109 C1291.03,150.879 1278.61,139.509 1271.83,122.767 C1269.89,117.98 1266.78,116.343 1263.05,117.855 C1259.33,119.359 1257.93,122.791 1259.6,127.401 C1262.09,134.298 1264.48,141.163 1264.76,148.613 C1265.3,162.855 1257.11,166.126 1246.64,162.5 C1225.14,155.055 1208.41,141.226 1198.91,119.856 C1197.49,116.641 1196.79,113.179 1196.72,109.676 C1196.64,105.345 1194.81,102.559 1190.36,102.305 C1186.39,102.078 1183.69,105.624 1183.69,110.521 C1183.69,118.504 1184.12,126.499 1182.67,134.428 C1181.46,141.109 1178.85,147.183 1174.71,152.521 C1169.03,159.832 1162.67,161.124 1154.5,156.514 C1145.11,151.209 1138.37,143.107 1132.84,134.127 C1120.98,114.863 1112.63,94.412 1113.36,71.187 C1113.49,67.054 1112.46,63.258 1107.54,62.752 C1102.77,62.26 1100.64,65.322 1100.13,69.634 C1099.87,71.802 1098.48,72.661 1096.79,73.555 C1047.84,99.457 1022.1,141.87 1010.64,194.524 C1008.66,203.597 1008.2,212.841 1006.62,221.944 C1002.91,210.663 997.542,199.725 997.536,187.582 C997.528,173.018 999.288,158.744 1009.01,146.859 C1006.68,144.073 1004.79,146.738 1002.77,147.084 C1002.5,139.198 1001.93,138.636 993.911,137.966 C993.145,137.902 992.41,137.468 991.66,137.206 C981.092,127.167 979.739,114.139 988.227,100.606 C997.027,86.576 1009.58,77.159 1025.15,71.685 C1026.51,71.28 1027.84,70.769 1029.2,70.351 C1030.28,69.928 1031.38,69.588 1032.55,69.546 C1033.97,68.059 1036.17,69.25 1037.66,68.038" fill="#C9A76F"/>
    <path d="M605.261,76.041 C605.047,75.246 605.33,74.914 606.152,75.081 C607.534,74.188 608.536,72.886 609.708,71.768 C636.613,53.713 665.518,40.589 698.187,37.897 C758.706,32.91 812.741,49.139 858.026,90.159 C889.742,118.888 908.675,155.832 920.48,196.489 C929.017,225.891 932.744,256.103 932.569,286.69 C932.464,304.991 929.703,322.914 919.5,338.759 C905.805,360.027 874.593,372.587 849.98,366.944 C844.809,365.759 840.589,362.787 836.334,359.858 C833.572,357.956 836.302,357.068 837.185,356.236 C849.46,344.665 859.066,331.197 866.163,315.916 C866.514,315.161 866.906,314.423 867.215,313.652 C868.945,309.329 869.775,304.263 872.609,300.869 C875.688,297.182 881.169,300.174 885.618,299.234 C897.67,296.688 905.665,288.986 908.277,275.64 C909.762,268.054 909.551,260.391 907.426,252.933 C904.88,243.996 899.174,238.28 889.03,236.693 C894.107,231.938 898.887,227.491 902.985,222.393 C906.86,217.573 910.465,212.597 913.131,207.003 C919.106,194.471 915.391,183.029 902.853,176.867 C890.419,170.756 877.014,169.493 863.418,170.86 C858.859,171.318 856.754,170.721 855.914,165.636 C853.889,153.379 849.777,141.795 842.123,131.758 C832.104,118.619 818.45,117.533 806.485,128.879 C806.365,128.994 806.25,129.115 806.131,129.231 C798.981,136.137 798.933,136.175 792.726,128.456 C783.53,117.017 775.211,104.974 768.092,92.122 C765.4,87.261 761.788,85.635 758.059,87.568 C754.479,89.423 753.828,93.542 756.577,98.448 C765.56,114.479 775.941,129.544 788.282,143.183 C790.806,145.973 792.004,148.122 789.512,151.711 C786.474,156.085 784.439,161.12 782.995,166.241 C782.148,169.241 780.938,169.392 778.381,168.523 C750.386,159.007 724.455,145.716 701.663,126.687 C688.171,115.422 676.161,102.798 666.491,88.031 C663.262,83.099 658.73,82.701 655.002,86.991 C653.839,88.329 652.539,89.159 651.049,89.874 C608.725,110.171 583.015,144.224 569.718,188.428 C565.305,203.099 561.944,218.023 561.616,233.453 C561.564,235.897 560.898,236.912 558.092,236.842 C545.8,236.535 538.529,242.277 535.445,254.209 C533.402,262.111 533.349,269.972 535.426,277.88 C539.307,292.657 551.614,301.362 566.803,299.56 C569.599,299.228 570.594,299.823 571.454,302.274 C577.871,320.567 587.381,337.028 600.782,351.14 C603.864,354.386 606.951,357.627 610.112,360.951 C605.397,365.296 599.245,366.967 592.759,367.827 C572.623,363.548 559.503,350.147 549.608,333.362 C536.85,311.72 531.89,287.687 529.276,262.914 C525.568,227.765 534.828,195.241 548.215,163.493 C559.792,136.038 574.619,110.442 593.612,87.38 C597.066,83.186 600.58,79 605.261,76.041" fill="#DCAE53"/>
    <path d="M183.668,408.02 C181.786,406.357 179.835,407.788 178.004,408.051 C170.125,409.184 162.219,409.24 154.294,409.091 C152.503,409.057 150.642,408.735 149.119,410.102 C145.493,408.024 141.419,408.9 137.557,408.393 C135.468,408.119 135.306,410.036 134.872,411.378 C129.588,427.723 125.731,444.377 124.882,461.582 C124.718,464.918 123.933,465.466 120.679,465.351 C114.722,465.141 108.967,466.661 104.916,471.444 C102.145,474.715 101.169,473.596 99.852,470.399 C90.461,447.61 88.854,424.387 95.482,400.588 C102.177,376.553 114.525,355.583 130.719,336.921 C161.029,301.992 198.374,277.89 243.716,267.829 C280.898,259.579 317.455,264.281 353.076,277.154 C362.321,280.495 371.135,284.804 379.934,289.152 C381.452,289.902 382.562,291.014 383.743,292.113 C385.129,293.083 386.509,294.061 387.957,294.944 C418.986,319.348 439.487,350.297 446.66,389.492 C449.196,403.347 447.977,417.022 444.21,430.519 C443.724,432.259 443.465,434.165 441.559,435.099 C437.193,416.438 431.391,398.325 422.031,381.456 C404.016,348.987 377.595,326.352 342.949,313.194 C341.182,312.523 339.079,312.49 338.528,309.866 C337.842,306.599 335.543,304.5 332.184,304.53 C328.613,304.562 326.776,307.009 325.444,310.232 C319.197,325.345 311.253,339.545 301.893,352.955 C290.568,369.181 277.505,383.71 260.854,394.678 C257.712,396.747 256.326,399.388 256.73,403.058 C241.846,407.026 227.293,404.348 212.771,400.901 C211.182,400.524 209.544,400.355 207.93,400.09 C207.273,397.892 209.28,397.248 210.369,396.25 C229.26,378.938 243.542,358.2 255.527,335.743 C258.037,331.04 259.977,326.07 262.125,321.203 C264.618,315.555 263.929,312.195 260.476,310.827 C257.296,309.566 254.655,311.567 252.309,316.993 C246.282,330.931 239.055,344.225 230.431,356.718 C219.502,372.551 207.132,387.075 191.101,398.062 C187.434,400.575 184.455,403.436 183.668,408.02" fill="#DCAF79"/>
    <path d="M1449.61,342.26 C1449.61,333.576 1449.64,325.151 1449.6,316.727 C1449.57,309.735 1447.42,307.654 1440.6,306.978 C1428.73,305.8 1416.79,304.75 1405.79,298.57 C1414.54,291.295 1423.03,284.147 1431.62,277.114 C1438.68,271.337 1445.11,264.812 1453.07,260.088 C1456.86,257.834 1456.63,253.339 1452.91,249.919 C1445.89,243.458 1440.71,235.525 1434.37,227.733 C1444.89,225.556 1454.93,223.74 1464.84,221.373 C1491.35,215.039 1517.12,206.009 1543.6,199.478 C1569.88,192.997 1596.33,188.315 1623.52,190.116 C1670.45,193.224 1712.81,208.416 1749.48,238.385 C1777.36,261.166 1795.78,289.89 1804.02,325.029 C1804.21,325.837 1804.32,326.668 1804.57,327.459 C1806.2,332.778 1806.08,336.262 1799.73,339.497 C1791.65,343.615 1787.39,352.341 1782.77,360.037 C1780.7,363.485 1780.21,364.355 1776.52,360.965 C1771.38,356.258 1769.32,350.6 1767.26,344.476 C1755.92,310.756 1736.97,282.434 1707.75,261.538 C1705.34,259.818 1704.6,257.404 1703.65,254.926 C1702.66,252.332 1702.08,249.448 1699.14,248.073 C1696.37,246.784 1693.91,247.204 1691.81,249.286 C1689.4,251.686 1689.38,254.372 1690.64,257.526 C1696.71,272.641 1699.93,296.086 1698.33,312.953 C1692.95,310.569 1689.14,306.431 1685.07,302.783 C1675.76,294.426 1667.92,284.667 1659.69,275.283 C1658.59,274.032 1657.6,272.672 1656.41,271.526 C1654.37,269.57 1652.04,268.526 1649.15,269.736 C1646.4,270.889 1644.88,273.015 1644.74,275.869 C1644.22,286.761 1639.81,296.462 1635.77,306.312 C1634.43,309.6 1633.48,309.14 1631.58,306.768 C1618.55,290.493 1607.29,273.002 1596.24,255.373 C1590.4,246.065 1584.75,236.641 1579.94,226.754 C1578.11,223.017 1575.03,222.257 1571.58,223.386 C1568.33,224.449 1566.63,227.412 1567.77,230.555 C1569.28,234.678 1567.07,235.247 1564.1,235.998 C1541.86,241.629 1521.65,251.472 1503.58,265.602 C1479.03,284.796 1462.39,309.662 1451.57,338.655 C1451.13,339.825 1451.08,341.239 1449.61,342.26" fill="#9D9683"/>
    <path d="M1147.6,523.066 C1152.3,520.754 1156.98,518.419 1161.69,516.134 C1170.7,511.767 1171.29,507.918 1163.94,500.95 C1158.99,496.254 1153.8,491.788 1149.08,486.867 C1146.2,483.864 1142.88,482.679 1138.98,482.15 C1132.23,481.234 1125.51,480.007 1118.74,479.208 C1116.19,478.907 1115.38,477.854 1115.24,475.471 C1114.79,468.165 1114.17,460.87 1113.66,453.568 C1113.3,448.407 1111.17,445.911 1107.03,445.93 C1102.64,445.951 1100.48,448.579 1100.69,454.142 C1100.93,460.458 1101.35,466.77 1101.85,473.072 C1102.04,475.498 1101.45,476.341 1098.85,475.943 C1088.99,474.433 1079.13,472.985 1069.23,471.776 C1065.54,471.325 1064.76,470.086 1065.68,466.415 C1071.46,443.513 1080.93,422.121 1091.87,401.311 C1094.57,396.158 1097.58,391.161 1100.26,385.992 C1101.47,383.661 1102.71,382.978 1105.31,384.003 C1109.32,385.586 1114.64,385.63 1117.27,388.374 C1119.72,390.924 1117.31,396.122 1117.44,400.182 C1117.77,410.544 1122,418.488 1131.25,423.364 C1133.78,424.696 1135.33,426.507 1136.64,428.911 C1147.67,449.05 1158.8,469.138 1169.85,489.269 C1171.42,492.141 1173.04,494.864 1176.79,494.87 C1180.77,494.877 1182.43,491.993 1184.05,488.947 C1194.67,468.97 1205.36,449.027 1215.99,429.055 C1217.42,426.382 1219.1,424.302 1221.92,422.693 C1231.53,417.212 1236.23,406.027 1234.05,393.763 C1233.31,389.638 1233.99,387.675 1238.33,386.958 C1241.58,386.422 1244.97,385.549 1247.8,383.952 C1252.91,381.068 1255.19,383.344 1257.88,387.552 C1276.19,416.262 1290.26,446.656 1297.26,480.227 C1304.37,514.393 1295.49,543.389 1270.74,567.727 C1269.9,568.561 1269.25,571.024 1267.43,568.763 C1260.19,559.77 1249.9,555.156 1240.1,549.906 C1237.05,548.269 1236.46,547.307 1238.59,544.2 C1245.27,534.454 1251.61,524.46 1255.17,513.031 C1256.19,509.771 1256.08,506.71 1253.11,504.463 C1250.7,502.642 1248.12,502.844 1245.64,504.404 C1244,505.441 1243.35,507.174 1242.73,508.929 C1237.48,523.907 1237.47,523.904 1221.62,523.904 C1198.13,523.904 1174.64,523.904 1151.15,523.904 C1150.06,523.904 1148.96,523.904 1147.87,523.904 C1147.78,523.625 1147.69,523.345 1147.6,523.066" fill="#579CD7"/>
    <path d="M118.852,330.161 C108.16,344.02 98.256,358.36 91.061,374.43 C83.293,391.781 78.227,409.862 78.226,428.893 C78.226,450.935 84.234,471.598 95.366,490.667 C96.943,493.368 97.641,496.004 97.718,499.109 C98.122,515.495 107.895,525.768 124.099,528.305 C130.087,529.243 134.804,533.634 137.674,538.947 C140.826,544.783 143.233,551.035 146.748,556.702 C147.889,558.541 148.161,560.397 147.69,562.423 C142.475,584.884 133.671,605.423 116.133,621.278 C101.783,634.251 84.648,640.83 65.679,643.036 C57.269,644.015 48.818,644.799 40.072,643.084 C41.353,639.74 44.276,638.375 46.544,636.395 C46.986,634.952 48.5,634.12 48.733,632.558 C48.63,632.261 48.725,632.058 49.02,631.948 C51.909,629.904 52.836,626.543 54.557,623.706 C64.746,603.196 64.762,581.693 60.8,559.812 C56.946,538.525 49.625,518.354 41.027,498.595 C31.031,475.623 25.643,451.64 27.554,426.583 C29.699,398.479 37.686,372.064 56.016,350.037 C70.897,332.155 90.433,324.42 113.83,327.635 C115.719,327.895 117.959,327.778 118.852,330.161" fill="#DCAF79"/>
    <path d="M431.253,737.261 C431.847,737.668 432.064,737.733 432.11,737.859 C438.269,754.852 454.675,757.922 468.472,764.41 C472.389,766.252 476.435,763.762 476.863,759.335 C477.807,749.574 478.252,739.764 478.881,729.973 C479.008,728.005 477.798,726.529 476.872,724.968 C473.077,718.572 469.265,712.187 464.903,704.863 C474.108,704.863 482.479,704.876 490.849,704.853 C492.841,704.848 494.883,704.982 496.812,704.598 C500.612,703.841 502.608,701.377 502.136,697.43 C501.696,693.745 499.444,691.865 495.697,691.864 C484.204,691.861 472.709,691.733 461.22,691.946 C458.134,692.003 456.496,690.996 454.971,688.391 C445.228,671.755 435.405,655.164 425.381,638.696 C423.47,635.557 423.089,633.066 424.598,629.622 C429.236,619.036 429.08,619.056 440.672,619.188 C474.134,619.569 507.597,619.957 541.06,620.108 C545.751,620.129 547.742,621.05 548.016,626.284 C549.119,647.322 542.24,666.162 531.02,683.097 C523.716,694.122 520.329,703.719 523.105,717.641 C527.583,740.1 520.828,762.14 513.209,783.438 C510.919,789.837 508.053,796.028 505.555,802.356 C504.643,804.666 503.276,805.557 500.693,805.553 C456.219,805.475 411.746,805.453 367.272,805.567 C363.06,805.578 363.376,804.199 364.9,801.316 C370.505,790.716 374.977,779.62 378.605,768.211 C379.962,763.94 382.584,763.096 386.52,763.643 C393.541,764.62 400.495,764.162 407.169,761.654 C411.665,759.965 415.606,757.379 416.741,752.304 C417.327,749.681 419.235,749.552 421.127,749.032 C430.13,746.556 430.339,746.313 431.253,737.261" fill="#FEFEFE"/>
    <path d="M856.953,636.576 C838.151,631.19 819.814,628.148 801.164,627.192 C775.257,625.865 749.598,627.78 724.328,633.845 C720.396,634.788 716.772,633.809 713.023,633.106 C668.359,624.731 623.949,626.265 579.769,636.585 C579.315,636.691 578.837,636.692 577.797,636.803 C581.947,623.26 585.988,610.013 590.07,596.778 C592.224,589.792 594.569,582.861 596.582,575.835 C597.291,573.359 598.354,571.854 600.957,571.254 C607.594,569.723 614.189,568.015 620.794,566.349 C622.521,565.913 623.875,566.262 625.404,567.337 C639.502,577.254 649.104,576.515 661.674,564.693 C662.366,564.043 663,562.869 663.793,564.489 C665.861,568.713 670.204,569.492 673.898,571.223 C679.614,573.903 685.366,576.507 691.124,579.096 C697.848,582.118 701.5,579.959 702.293,572.548 C703.147,564.567 703.528,563.56 710.732,566.29 C718.02,569.05 724.421,567.086 731.159,565.839 C767.644,559.089 803.685,561.007 839.331,571.166 C841.322,571.734 842.831,572.403 843.36,574.853 C847.74,595.132 852.265,615.38 856.953,636.576" fill="#FEFEFE"/>
    <path d="M716.402,523.721 C709.245,523.782 702.086,523.752 694.933,523.955 C692.576,524.022 691.377,523.046 690.245,521.127 C682.049,507.224 673.73,493.394 665.495,479.514 C662.534,474.524 663.831,468.778 662.915,463.419 C661.892,457.44 659.987,455.314 654.051,456.354 C651.572,456.789 651.174,455.465 650.386,454.164 C646.853,448.329 643.367,442.465 639.901,436.59 C635.538,429.198 633.455,428.669 625.929,433.121 C624.378,434.038 622.818,434.942 621.185,435.898 C620.269,433.986 621.639,432.857 622.249,431.645 C630.212,415.817 640.323,401.392 651.175,387.446 C652.849,385.295 654.375,384.888 657.103,385.637 C663.848,387.487 669.124,388.967 668.535,398.504 C667.936,408.193 674.026,415.366 683.342,418.922 C685.936,419.912 687.323,421.687 688.63,423.845 C697.075,437.794 705.533,451.735 714.018,465.659 C718.204,472.528 723.406,472.523 727.596,465.532 C736.064,451.403 744.421,437.207 752.815,423.034 C753.916,421.174 755.054,419.639 757.28,418.664 C767.2,414.318 771.957,406.395 771.594,395.698 C771.443,391.272 772.631,388.997 777.196,388.14 C781.733,387.289 786.82,383.661 790.355,384.923 C793.342,385.989 795.452,391.615 798.059,395.153 C813.339,415.892 826.843,437.598 833.164,462.938 C837.771,481.405 837.131,499.286 825.403,515.382 C823.393,518.14 820.868,520.523 817.941,523.794 C816.483,507.731 807.212,499.811 793.499,496.257 C790.753,495.545 790.573,494.216 790.803,492.019 C791.703,483.419 792.553,474.813 793.4,466.207 C793.66,463.565 794.138,460.89 792.368,458.501 C790.533,456.026 787.996,455.444 785.251,456.208 C782.437,456.991 780.922,459.014 780.64,462.043 C779.777,471.317 778.593,480.568 777.993,489.858 C777.762,493.422 776.573,494.324 773.229,494.108 C763.48,493.478 754.377,495.732 746.177,501.122 C739.539,505.486 734.681,511.456 732.87,519.189 C731.851,523.54 729.854,524.573 726,523.72 C725.333,522.274 726.425,521.194 726.793,519.968 C727.677,517.024 726.72,514.67 724.298,513.008 C721.993,511.427 719.561,511.594 717.345,513.321 C715.103,515.067 714.608,517.359 715.446,520.018 C715.829,521.234 717.05,522.238 716.402,523.721" fill="#579CD7"/>
    <path d="M1404.05,652.46 C1394.37,659.188 1394.99,669.251 1405.49,675.799 C1410.06,678.65 1415.32,679.886 1420.36,679.031 C1434.83,676.574 1449.07,679.01 1463.4,679.953 C1471.55,680.488 1479.72,679.801 1487.76,678.302 C1490.67,677.76 1492.19,678.415 1493.57,681.196 C1496.3,686.691 1499.55,691.933 1502.65,697.241 C1503.25,698.267 1503.72,699.227 1503.78,700.453 C1505.04,723.492 1509.33,745.961 1516.52,767.885 C1516.66,768.321 1516.53,768.844 1516.53,770.003 C1504.93,763.308 1493.66,756.803 1482.39,750.3 C1470.58,743.487 1458.75,736.728 1446.99,729.82 C1444.56,728.393 1442.16,727.832 1439.41,728.079 C1431.12,728.822 1422.82,729.41 1414.53,730.183 C1408.49,730.746 1406.04,734.799 1408.52,740.354 C1412.12,748.383 1415.99,756.288 1419.69,764.27 C1420.74,766.54 1422.65,767.757 1424.69,768.937 C1445.13,780.721 1465.54,792.533 1485.98,804.347 C1485.47,806.191 1484.05,805.458 1483.1,805.46 C1453.77,805.505 1424.45,805.452 1395.13,805.566 C1392.19,805.577 1390.73,804.656 1389.54,801.979 C1379.35,779.011 1371.75,755.367 1370.94,730.021 C1370.67,721.704 1371.52,713.378 1374.23,705.41 C1375.48,701.73 1374.77,698.784 1372.46,695.684 C1360.59,679.765 1351.67,662.452 1348.14,642.687 C1347.02,636.417 1347.02,630.129 1347.54,623.791 C1347.75,621.229 1348.82,620.231 1351.22,620.22 C1362.89,620.169 1374.55,620.065 1386.21,620.07 C1388.46,620.071 1391.61,625.279 1390.44,627.41 C1386.17,635.205 1389.82,640.802 1395.34,645.809 C1398.04,648.253 1401.13,650.258 1404.05,652.46" fill="#FEFEFE"/>
    <path d="M310.661,686.116 C296.904,678.438 284.744,668.617 273.196,658.008 C270.216,655.271 267.186,653.647 263.402,656.001 C260.001,658.116 259.381,663.011 262.587,665.968 C289.657,690.938 319.081,711.646 357.022,716.039 C361.885,716.602 363.407,717.974 362.724,722.985 C361.346,733.107 362.791,742.928 368.379,751.739 C370.074,754.411 368.714,754.654 366.598,755.152 C350.175,759.024 333.892,758.159 317.789,753.54 C296.166,747.338 277.127,736.313 259.997,721.879 C254.264,717.047 250.505,716.361 247.542,719.896 C244.473,723.559 245.568,727.005 251.461,731.893 C271.309,748.351 293.165,761.028 318.459,767.09 C321.488,767.816 321.522,769.075 320.514,771.543 C317.432,779.086 314.501,786.692 311.589,794.303 C310.745,796.51 309.612,797.764 306.976,798.007 C273.913,801.056 241.149,799.493 208.709,792.131 C205.921,791.499 204.772,790.883 205.904,787.637 C215.258,760.824 219.982,732.929 224.668,705.053 C229.218,677.987 233.031,650.808 235.875,623.504 C236.246,619.945 237.155,618.646 241.135,619.712 C246.083,621.037 251.863,620.269 256.226,622.486 C260.625,624.721 259.779,631.253 262.34,635.48 C266.174,641.806 270.661,647.156 278.161,649.051 C279.749,649.452 280.808,650.405 281.802,651.516 C291.794,662.679 301.768,673.859 311.747,685.034 C311.983,685.996 311.727,686.462 310.661,686.116" fill="#579CD7"/>
    <path d="M561.578,644.033 C561.203,644 560.828,643.968 560.453,643.936 C561.092,634.809 561.67,625.706 559.759,616.62 C558.113,608.787 556.981,607.637 548.834,607.531 C509.039,607.014 469.245,606.511 429.45,606.055 C420.07,605.948 420.078,606.043 416.508,614.937 C415.893,616.47 415.171,617.961 414.413,619.661 C406.812,608.656 400.951,619.606 394.031,620.953 C393.782,618.381 395.349,616.321 396.173,614.159 C400.964,601.591 405.95,589.097 410.823,576.56 C412.036,573.44 413.611,570.589 415.655,567.912 C422.144,559.412 427.319,550.116 431.432,540.266 C432.49,537.731 433.694,536.811 436.5,536.816 C493.318,536.906 550.136,536.898 606.954,536.835 C609.499,536.832 610.856,537.119 610.923,540.168 C611.011,544.161 612.04,548.077 613.708,551.739 C614.633,553.772 614.228,554.523 611.984,555.064 C605.527,556.622 599.152,558.519 592.719,560.184 C588.809,561.196 586.709,563.479 585.497,567.476 C578.077,591.953 570.395,616.351 562.789,640.771 C562.445,641.876 561.984,642.946 561.578,644.033" fill="#FEFEFE"/>
    <path d="M1037.33,634.613 C1043.26,615.394 1049.11,596.53 1054.84,577.629 C1055.48,575.51 1056.87,574.815 1058.65,574.3 C1092.5,564.526 1126.85,562.577 1161.3,569.682 C1168.83,571.237 1175.27,570.059 1182.16,568.865 C1184.52,568.456 1185.4,568.698 1186.14,571.289 C1187.8,577.134 1192.1,580.302 1198.13,581.003 C1199.72,581.187 1201.08,580.766 1201.7,583.241 C1203.94,592.245 1210.94,596.492 1220.17,594.379 C1223.21,593.682 1224.66,594.125 1226.5,596.749 C1229.78,601.425 1234.86,602.356 1240.3,601.525 C1241.89,601.282 1243.23,600.807 1245,601.845 C1254.71,607.542 1262.29,605.638 1268.33,596.217 C1269.31,594.692 1270.51,593.013 1270.67,591.317 C1271.32,584.451 1276.56,580.854 1280.68,576.433 C1283.4,573.516 1284.8,574.561 1285.56,578.008 C1289.45,595.701 1293.34,613.396 1297.36,631.063 C1298.06,634.124 1297.16,634.487 1294.46,633.756 C1254.6,622.989 1214.55,623.174 1174.46,632.157 C1169.37,633.298 1164.91,631.726 1160.27,630.912 C1119.54,623.768 1079.11,625.348 1038.91,634.75 C1038.63,634.816 1038.3,634.704 1037.33,634.613" fill="#FEFEFE"/>
    <path d="M605.261,76.041 C578.005,105.764 558.073,139.947 543.973,177.575 C534.685,202.364 528.456,227.817 530.073,254.6 C531.608,280.038 536.043,304.844 547.984,327.699 C557.453,345.82 570.339,360.383 590.925,366.271 C591.626,366.471 592.148,367.295 592.757,367.827 C566.974,369.069 547.64,357.604 532.991,337.215 C517.607,315.803 510.795,291.427 510.874,265.461 C511.069,201.318 535.31,146.48 577.349,98.912 C584.315,91.03 592.354,84.274 600.788,78.016 C602.049,77.081 603.03,74.975 605.261,76.041" fill="#FEFEFE"/>
    <path d="M793.728,178.231 C794.673,168.843 799.177,160.173 804.531,151.867 C808.061,146.39 812.153,141.345 817.123,137.095 C821.965,132.956 825.297,133.024 829.694,137.573 C837.021,145.157 840.065,154.882 842.514,164.762 C843.626,169.25 844.157,173.927 844.493,178.552 C844.952,184.875 847.556,186.903 853.931,185.481 C866.154,182.756 878.349,183.04 890.496,186.008 C891.142,186.166 891.793,186.314 892.42,186.53 C903.584,190.376 905.415,195.157 899.159,205.19 C892.284,216.216 883.638,225.607 872.137,231.955 C861.81,237.654 856.092,235.28 852.528,224.064 C849.638,214.972 849.335,205.418 847.681,196.104 C847.219,193.504 847.207,190.688 845.413,188.575 C843.539,186.367 841.069,185.845 838.178,186.566 C827.182,189.306 816.016,190.789 804.674,190.044 C797.609,189.58 793.738,185.415 793.728,178.231" fill="#FF7164"/>
    <path d="M1853.28,380.877 C1851.48,388.194 1847.48,393.256 1843.66,398.419 C1842.18,400.426 1840.65,402.403 1839.18,404.42 C1836.83,407.651 1836.47,410.969 1839.59,413.812 C1842.49,416.446 1845.57,415.986 1848.62,413.661 C1851.21,411.69 1853.97,409.917 1857.7,408.789 C1857.43,411.356 1855.94,412.717 1854.84,414.18 C1847.61,423.816 1837.8,430.211 1827.86,436.749 C1822.43,440.322 1819.04,438.983 1814.4,436.418 C1802.05,429.59 1789.49,423.135 1777.02,416.527 C1775.57,415.764 1774.05,415.252 1773.53,413.298 C1770.45,401.73 1767.52,390.127 1765.82,378.266 C1765.45,375.712 1765.26,372.941 1766.75,370.027 C1770.08,373.415 1771.36,377.646 1772.4,381.77 C1773.36,385.577 1774.97,388.562 1779.02,388.724 C1783.06,388.886 1784.61,386.026 1786.02,382.319 C1790.17,371.366 1796.46,361.57 1804.15,352.72 C1804.82,351.952 1805.46,350.482 1806.9,351.251 C1807.91,351.788 1807.63,353.024 1807.69,353.963 C1808.06,359.003 1806.64,363.869 1806.17,368.829 C1805.99,370.81 1805.69,372.823 1805.86,374.784 C1806.11,377.601 1807.46,379.959 1810.34,380.826 C1813.32,381.722 1815.85,380.885 1817.87,378.371 C1820.79,374.744 1823.78,371.169 1826.85,367.678 C1828.01,366.365 1829.19,364.855 1831.45,364.665 C1832.61,368.975 1830.96,372.821 1829.82,376.728 C1828.94,379.757 1827.88,382.747 1827.22,385.821 C1826.55,388.889 1827.59,391.555 1830.55,392.882 C1833.35,394.132 1836.12,393.776 1838.33,391.401 C1842.33,387.094 1846.92,383.632 1853.28,380.877" fill="#FEF8EA"/>
    <path d="M304.779,811.476 C297.933,828.96 291.259,845.965 284.631,862.989 C283.913,864.834 282.713,865.473 280.804,865.385 C264.514,864.636 248.653,862.057 234.45,853.436 C218.119,843.523 211.354,828.407 211.354,809.738 C211.354,806.676 212.353,806.263 215.204,806.812 C237.321,811.074 259.661,813.055 282.186,812.61 C289.474,812.465 296.754,811.891 304.779,811.476" fill="#579CD7"/>
    <path d="M1330.73,264.13 C1327.76,265.022 1327.2,268.019 1325.71,270.11 C1315.95,283.76 1297.51,288.947 1283.79,280.432 C1271.22,272.629 1264.49,260.384 1265.83,245.43 C1266.99,232.382 1274.89,222.542 1286.82,217.819 C1301.33,212.073 1323.76,217.412 1331.8,235.45 C1332.33,236.648 1332.9,237.827 1333.46,239.014 C1333.31,247.469 1332.65,255.867 1330.73,264.13" fill="#FFD9B4"/>
    <path d="M118.852,330.161 C99.996,325.305 82.902,329.42 67.561,340.873 C50.633,353.51 42.283,371.843 35.888,391.133 C23.867,427.393 27.26,462.909 42.157,497.62 C51.621,519.672 59.885,542.076 63.263,565.977 C66.157,586.452 65.243,606.432 54.718,624.991 C53.838,625.219 53.34,625.075 53.774,624.023 C66.616,595.749 59.33,568.511 49.377,541.481 C43.063,524.331 34.391,508.197 27.318,491.375 C16.671,466.054 10.542,439.812 13.851,412.16 C16.952,386.249 25.246,362.313 45.692,344.801 C66.626,326.871 91.375,322.188 118.202,327.023 C121.537,327.625 120.993,328.627 118.852,330.161" fill="#FEFEFE"/>
    <path d="M1019.87,240.144 C1022.2,241.166 1021.72,238.914 1022.17,238.021 C1026.91,228.691 1033.32,221.142 1043.56,217.601 C1058.28,212.507 1073.12,217.915 1080.78,231.49 C1085.01,239.008 1089.05,246.73 1086.9,255.943 C1082.09,276.55 1064.51,289.31 1042.71,282.669 C1036.87,280.892 1031.65,278.24 1027.17,274.105 C1026.47,273.462 1025.92,271.764 1024.46,273.225 C1021.48,262.398 1020.43,251.306 1019.87,240.144" fill="#FFD9B4"/>
    <path d="M1451.8,418.984 C1455.66,409.613 1460.79,401.213 1469.87,395.969 C1483.93,387.856 1503.76,390.892 1513.68,409.132 C1524.09,428.265 1518.28,445.605 1500.86,456.863 C1490.35,463.657 1466.19,461.194 1455.64,446.095 C1453.06,437.241 1452.36,428.122 1451.8,418.984" fill="#FFD9B4"/>
    <path d="M860.805,293.118 C859.6,290.262 859.278,293.12 859.029,293.513 C854.148,301.216 847.796,306.982 838.722,309.256 C825.792,312.495 813.157,307.001 806.381,295.531 C795.335,276.83 799.209,263.133 815.201,250.248 C824.334,242.889 838.618,243.981 850.491,250.691 C859.076,255.543 864.001,263.251 864.743,273.334 C864.788,273.934 865.251,274.502 865.519,275.087 C864.385,281.212 863.32,287.355 860.805,293.118" fill="#FFCEB4"/>
    <path d="M424.977,519.03 C421.458,523.813 418.371,528.977 413.483,532.582 C399.505,542.894 381.51,540.947 371.142,525.976 C357.169,505.798 363.842,486.953 383.114,476.59 C400.363,467.316 425.004,480.543 427.722,499.561 C428.072,502.01 428.706,500.757 429.564,500.13 C428.625,506.574 427.223,512.904 424.977,519.03" fill="#FFCEB4"/>
    <path d="M141.049,504.004 C143.569,498.626 145.241,492.883 148.778,487.944 C159.16,473.445 177.516,469.989 191.725,480.032 C207.975,491.518 209.727,514.391 196.556,529.074 C184.333,542.7 167.092,540.321 154.275,533.163 C152.416,532.125 151.348,529.555 148.635,530.107 C144.874,521.764 142.817,512.926 141.049,504.004" fill="#FFCEB4"/>
    <path d="M577.837,275.018 C580.419,265.665 585.054,257.557 592.857,251.633 C608.57,239.702 629.279,245.455 638.104,263.917 C646.527,281.54 640.855,296.411 625.837,306.164 C614.118,313.774 602.024,310.512 590.495,304.353 C588.919,303.511 587.924,301.221 585.548,302.167 C581.757,293.463 579.24,284.399 577.837,275.018" fill="#FFCEB4"/>
    <path d="M1732.52,460.944 C1729.33,459.043 1725.72,460.606 1722.33,459.535 C1713.07,456.602 1706.62,450.567 1702.19,442.183 C1692.23,423.317 1697.64,407.013 1714.42,396.067 C1726.6,388.125 1739.54,391.148 1751.69,397.763 C1753.42,398.709 1754.99,399.959 1756.64,401.068 C1759.53,407.886 1759.8,414.129 1755.77,421.112 C1748.09,434.431 1741.19,448.2 1732.52,460.944" fill="#FFD9B4"/>
    <path d="M441.559,435.099 C450.715,406.98 446.458,380.063 434.047,353.98 C422.944,330.646 406.92,311.17 386.892,294.927 C386.619,294.079 386.716,293.603 387.753,294.068 C423.832,316.538 450.952,346.383 463.078,387.893 C470.885,414.618 465.493,439.521 449.836,462.32 C448.963,463.592 448.26,465.849 446.27,465.183 C444.426,464.565 444.954,462.342 444.945,460.795 C444.897,452.08 442.742,443.655 441.559,435.099" fill="#FEFEFE"/>
    <path d="M1574.91,786.85 C1605.45,799.064 1635.59,799.637 1667.02,793.154 C1661.83,803.722 1655.17,811.952 1646.25,818.323 C1631.17,829.107 1613.89,832.433 1595.82,833.033 C1593.94,833.095 1592.76,832.633 1592.02,830.724 C1586.53,816.489 1580.95,802.288 1574.91,786.85" fill="#579CD7"/>
    <path d="M393.402,751.019 C384.565,751.071 378.689,746.858 376.738,738.576 C373.21,723.608 376.158,710.133 387.212,699.019 C394.732,691.458 403.827,689.364 413.793,693.149 C422.489,696.451 429.96,701.785 435.493,709.371 C439.772,715.237 437.928,719.392 430.749,720.716 C426.187,721.558 421.78,720.713 417.574,718.932 C413.71,717.295 410.19,717.406 408.146,721.423 C406.167,725.314 407.624,728.501 411.429,730.596 C411.865,730.836 412.308,731.09 412.682,731.414 C414.266,732.786 417.117,733.837 416.491,736.093 C416.037,737.727 413.122,737.558 411.238,737.851 C403.356,739.077 402.791,739.594 403.354,747.573 C403.483,749.404 402.408,749.582 401.453,749.811 C398.712,750.469 395.971,751.302 393.402,751.019" fill="#FEF8EA"/>
    <path d="M1542.88,801.539 C1541.39,804.144 1539.84,806.882 1538.27,809.613 C1534.04,816.987 1534.04,816.992 1526.61,812.701 C1497.51,795.884 1468.45,779.007 1439.28,762.321 C1435.9,760.385 1434.56,758.979 1437.28,755.414 C1439.98,751.88 1440.86,745.652 1444.52,744.567 C1448.24,743.465 1452.31,748.11 1456.17,750.323 C1483.87,766.225 1511.52,782.229 1539.15,798.249 C1540.5,799.028 1542.37,799.338 1542.88,801.539" fill="#FFDE79"/>
    <path d="M1099.72,553.037 C1101.21,548.218 1102.39,543.723 1100.74,539.056 C1100.24,537.656 1100.62,536.824 1102.26,536.892 C1102.93,536.919 1103.59,536.884 1104.26,536.884 C1144.38,536.884 1184.5,536.883 1224.62,536.892 C1225.4,536.892 1226.18,537.006 1227.21,537.086 C1225.47,541.356 1223.37,543.554 1218.31,543.07 C1208.24,542.107 1199.22,545.102 1192.22,552.799 C1190.83,554.321 1189.15,554.62 1187.35,554.926 C1183.42,555.596 1179.4,555.943 1175.59,557.018 C1168.57,558.997 1162.17,555.905 1155.52,555.04 C1138.98,552.889 1122.42,551.888 1105.76,553.02 C1103.95,553.143 1102.12,553.037 1099.72,553.037" fill="#FEFEFE"/>
    <path d="M1078.49,550.163 C1068.06,549.449 1058.84,546.184 1053.51,536.471 C1048.31,527.004 1050.26,517.54 1055.79,509.071 C1063.59,497.12 1074.55,489.477 1089.14,487.979 C1093.02,487.58 1096.76,488.363 1100.21,490.263 C1104.38,492.563 1104.56,493.621 1100.91,496.537 C1095.38,500.965 1088.99,503.782 1082.17,505.469 C1078.23,506.44 1075.07,508.066 1075.29,512.565 C1075.52,517.343 1078.98,518.652 1083.21,519.147 C1085.43,519.407 1088.84,519.041 1088.61,522.755 C1088.43,525.736 1086.63,527.201 1083.24,527.206 C1080.22,527.212 1078.01,529.181 1077.55,532.478 C1077.08,535.872 1078.44,538.295 1081.53,539.727 C1082.13,540.004 1082.85,540.056 1083.41,540.385 C1085.52,541.618 1089.12,541.568 1088.28,545.489 C1087.5,549.067 1084.68,549.968 1081.49,550.154 C1080.49,550.212 1079.49,550.163 1078.49,550.163" fill="#FEF8EA"/>
    <path d="M1201.96,427.622 C1193.54,443.356 1185.37,458.64 1176.81,474.636 C1169.14,460.75 1161.84,447.559 1154.57,434.349 C1151.31,428.422 1151.33,428.362 1157.91,426.514 C1166.39,424.131 1172.35,418.579 1176.91,411.267 C1187.34,422.787 1190.94,425.172 1201.96,427.622" fill="#FEFEFE"/>
    <path d="M1599.98,650.667 C1595.06,633.348 1590.46,617.053 1585.78,600.783 C1585.09,598.368 1585.86,597.77 1588.22,597.356 C1599.43,595.385 1602.84,593.287 1611.03,583.844 C1616.42,589.77 1622.54,594.666 1630.46,596.771 C1632.55,597.327 1631.25,598.486 1630.72,599.371 C1620.67,616.17 1610.6,632.96 1599.98,650.667" fill="#FEFEFE"/>
    <path d="M650.639,557.293 C645.95,561.5 642.026,562.107 636.983,559.546 C623.278,552.589 619.786,534.5 629.938,523.055 C641.509,510.011 660.685,509.06 673.707,520.722 C676.492,523.216 675.149,524.165 672.704,525.068 C667.895,526.845 663.152,525.037 658.386,524.684 C656.234,524.524 654.103,524.068 651.951,523.927 C648.033,523.671 645.416,525.573 644.838,529.394 C644.251,533.279 646.429,535.86 650.133,536.663 C653.089,537.304 655.539,538.18 656.518,541.476 C652.38,544.117 645.082,541.961 644.25,549.459 C643.738,554.077 647.236,555.682 650.639,557.293" fill="#FEF8EA"/>
    <path d="M445.597,700.517 C436.964,691.011 427.223,683.158 414.529,679.724 C412.975,679.303 412.013,678.317 411.204,676.949 C404.429,665.489 397.665,654.022 390.735,642.656 C389.31,640.318 389.778,639.231 392.002,638.029 C395.512,636.131 398.976,634.117 402.29,631.898 C404.563,630.377 405.619,630.956 406.92,633.164 C419.835,655.099 432.85,676.976 445.838,698.869 C446.223,699.486 446.143,700.036 445.597,700.517" fill="#FFDE79"/>
    <path d="M661.631,500.282 C655.302,498.807 649.365,499.133 643.526,500.624 C641.627,501.108 640.841,500.355 639.994,498.926 C631.867,485.216 623.738,471.508 615.499,457.866 C614.317,455.91 614.692,454.874 616.549,453.986 C616.699,453.914 616.84,453.825 616.984,453.743 C621.291,451.269 625.854,446.531 629.83,446.982 C633.518,447.4 635.097,454.312 637.566,458.378 C645.06,470.723 652.391,483.167 659.761,495.587 C660.502,496.836 661.624,497.933 661.631,500.282" fill="#FFC6A5"/>
    <path d="M761.622,533.919 C762.248,532.407 762.594,531.536 762.967,530.677 C764.493,527.16 763.947,524.083 760.613,522.025 C757.484,520.093 754.525,520.865 752.122,523.535 C750.333,525.523 748.157,528.565 745.695,526.715 C742.927,524.633 745.675,521.506 746.882,519.205 C750.006,513.254 755.371,509.737 761.678,508.291 C772.571,505.792 783.542,506.434 794.065,510.169 C803.804,513.624 806.779,521.216 802.428,529.776 C796.112,524.041 794.498,524.044 787.802,530.063 C786.204,527.477 784.965,524.479 781.28,524.198 C777.829,523.935 775.856,526.326 773.497,528.06 C770.143,530.528 766.727,532.855 761.622,533.919" fill="#FEF8EA"/>
    <path d="M1002.77,147.084 C1004.73,140.129 1008.85,146.266 1011.36,145.383 C996.583,165.92 995.692,187.978 1004.42,210.947 C1005.82,214.627 1006.87,218.077 1006.62,221.945 C1002.39,223.064 999.226,221.041 996.358,218.352 C990.006,212.397 987.1,204.675 985.854,196.357 C984.286,185.897 985.058,175.531 988.676,165.502 C990.955,159.186 993.802,153.265 1000.28,150.053 C1001.47,149.461 1002.34,148.409 1002.77,147.084" fill="#FEFEFE"/>
    <path d="M1412.75,663.922 C1416.98,662.643 1421.27,661.511 1425.44,660.04 C1428.87,658.829 1431.1,656.397 1430.54,652.468 C1430.02,648.799 1427.45,647.584 1424,646.767 C1416.97,645.099 1410.85,641.354 1405.13,636.989 C1403.45,635.706 1401.92,634.576 1404.99,632.927 C1406.47,632.13 1407.61,629.909 1406.94,628.638 C1404.44,623.863 1406.63,618.355 1403.91,613.108 C1412.51,613.188 1420.32,615.546 1428.16,617.749 C1429.93,618.244 1429.55,619.783 1429.73,621.03 C1431.65,634.185 1433.5,647.351 1435.5,660.493 C1435.94,663.374 1435.34,664.742 1432.19,665.066 C1425.63,665.739 1419.1,667.225 1412.75,663.922" fill="#FEF8EA"/>
    <path d="M1025.65,72.066 C1012.48,78.056 1000.4,85.462 991.805,97.549 C987.78,103.208 984.806,109.314 984.135,116.236 C983.499,122.793 985.614,128.654 989.766,133.827 C990.534,134.784 992.733,135.158 991.66,137.206 C985.373,136.015 979.484,133.833 974.527,129.694 C967.36,123.712 965.86,116.752 969.914,108.335 C974.289,99.251 981.317,92.449 989.463,86.828 C1000.47,79.231 1012.49,73.745 1025.59,70.753 C1026.01,71.172 1026.03,71.61 1025.65,72.066" fill="#FEFEFE"/>
    <path d="M1255.12,590.112 C1256.34,586.156 1256.04,582.778 1252.03,580.91 C1247.79,578.937 1245.19,581.426 1242.71,584.431 C1241.29,586.155 1240.13,588.347 1237.53,588.667 C1236.28,587.31 1237.42,586.079 1237.6,584.876 C1238.06,581.719 1237.88,578.825 1234.88,576.936 C1232.16,575.222 1229.5,575.806 1226.93,577.414 C1224.11,579.178 1221.18,580.747 1217.96,581.663 C1216.98,581.94 1215.88,582.14 1215.12,581.348 C1214.23,580.407 1215.16,579.51 1215.56,578.656 C1216.64,576.347 1218.46,574.645 1220.25,572.887 C1222.95,570.229 1223.72,567.093 1221.25,563.964 C1218.7,560.716 1215.54,560.494 1212,562.756 C1208.01,565.313 1204.05,568.165 1198.87,567.93 C1199.32,560.616 1209.11,553.572 1220.58,556.363 C1233.64,559.541 1245.26,566.235 1255.35,575.089 C1261.16,580.188 1260.79,586.434 1255.12,590.112" fill="#FEF8EA"/>
    <path d="M720.732,451.437 C714.391,441.028 708.467,431.305 702.299,421.18 C710.375,419.163 716.415,414.737 720.916,407.819 C725.642,413.221 730.449,417.942 737.161,420.119 C740,421.04 737.787,422.573 737.239,423.517 C731.983,432.557 726.612,441.531 720.732,451.437" fill="#FEFEFE"/>
    <path d="M1148.77,414.546 C1135.36,414.447 1128.99,407.316 1130.63,394.409 C1130.94,392.047 1131.36,390.824 1134.27,391.414 C1144.7,393.529 1155.3,394.29 1165.91,394.871 C1167.72,394.97 1169.12,394.812 1168.65,397.481 C1166.97,407.006 1158.23,414.615 1148.77,414.546" fill="#FEFEFE"/>
    <path d="M1062.34,483.82 C1056.08,488.753 1050.82,493.263 1046.71,498.898 C1045.59,500.446 1044.1,500.141 1042.65,499.93 C1035.91,498.947 1029.19,497.817 1022.44,496.912 C1019.3,496.49 1018.24,495.242 1019.03,491.99 C1019.9,488.456 1020.25,484.79 1020.71,481.167 C1020.97,479.117 1021.43,477.613 1024.03,478.014 C1036.46,479.93 1048.9,481.788 1062.34,483.82" fill="#ABEB8A"/>
    <path d="M1182.93,395.097 C1195.11,394.469 1206.67,393.703 1218.08,391.56 C1220.19,391.162 1220.47,391.939 1220.9,393.668 C1222.67,400.73 1220.71,407.77 1215.81,411.161 C1209.84,415.29 1201.5,415.518 1195.76,411.443 C1190.11,407.435 1186.13,402.022 1182.93,395.097" fill="#FEFEFE"/>
    <path d="M381.206,652.284 C384.92,658.44 388.167,663.822 391.414,669.204 C392.07,670.292 392.118,671.412 391.508,672.522 C388.672,677.685 386.815,683.361 381.276,686.821 C376.144,690.026 372.672,695.063 369.648,700.298 C369.151,701.159 368.743,702.107 368.097,702.841 C366.484,704.671 364.336,704.093 362.585,703.4 C360.674,702.643 362.121,701.156 362.55,700.054 C368.626,684.444 374.732,668.845 381.206,652.284" fill="#FEFEFE"/>
    <path d="M1424.58,435.52 C1424.67,429.965 1425.12,425.852 1426.7,421.95 C1427.91,418.975 1430.09,417.121 1433.28,416.442 C1436.81,415.689 1438.65,416.317 1438.84,420.677 C1439.3,431.288 1440.72,441.828 1443.35,452.147 C1444.2,455.453 1443.4,456.563 1439.91,456.209 C1432.87,455.494 1427.45,450.89 1425.76,443.505 C1425.06,440.448 1424.83,437.285 1424.58,435.52" fill="#FEF8EA"/>
    <path d="M1360.48,258.129 C1360.43,262.297 1359.96,266.41 1358.46,270.32 C1356.97,274.186 1354.42,277.2 1350.54,278.815 C1347.78,279.963 1344.37,281.463 1342.01,279.717 C1340.12,278.316 1342.18,275.154 1342.65,272.84 C1344.56,263.399 1345.87,253.868 1346.34,244.27 C1346.54,240.364 1348.24,239.821 1351.34,240.363 C1354.91,240.987 1357.35,242.997 1358.58,246.411 C1359.95,250.195 1360.47,254.12 1360.48,258.129" fill="#FEF8EA"/>
    <path d="M992.763,258.231 C993.142,254.311 993.243,250.304 994.756,246.546 C995.922,243.652 997.749,241.433 1000.98,240.63 C1004.54,239.743 1006.79,239.815 1007.05,244.692 C1007.63,255.457 1008.99,266.181 1011.7,276.648 C1012.63,280.22 1011.09,280.52 1008.31,280.207 C1001.77,279.472 997.187,276.153 994.792,270.017 C993.326,266.261 993.167,262.244 992.763,258.231" fill="#FEF8EA"/>
    <path d="M440.055,514.752 C442.375,503.745 444.38,492.693 444.787,481.433 C444.857,479.513 445.791,479.002 447.456,478.623 C452.042,477.58 455.922,479.138 457.557,483.604 C460.517,491.69 460.501,499.911 456.774,507.766 C454.001,513.612 448.191,515.854 440.055,514.752" fill="#FEF8EA"/>
    <path d="M110.502,494.443 C110.527,490.585 110.82,486.831 112.432,483.215 C113.918,479.883 116.558,478.468 119.919,478.352 C122.89,478.249 124.961,478.81 125.169,482.914 C125.666,492.711 126.941,502.478 129.422,512.006 C130.228,515.098 128.911,515.264 126.495,515.249 C117.987,515.198 112.345,510.309 110.949,501.412 C110.589,499.122 110.64,496.768 110.502,494.443" fill="#FEF8EA"/>
    <path d="M546.82,266.195 C547.329,262.275 547.355,258.402 548.892,254.826 C550.077,252.071 551.994,250.244 555.198,249.874 C560.613,249.249 561.39,249.903 561.8,255.386 C562.508,264.852 563.861,274.241 566.004,283.485 C566.624,286.161 565.824,286.576 563.45,286.594 C555.522,286.656 549.779,282.338 547.952,274.469 C547.316,271.729 547.173,268.876 546.82,266.195" fill="#FEF7E9"/>
    <path d="M896.139,265.786 C895.749,270.009 895.783,274.182 893.963,278.073 C891.287,283.79 885.063,287.278 878.881,286.596 C877.098,286.399 876.533,285.827 876.95,284.121 C879.486,273.76 880.817,263.218 881.502,252.592 C881.626,250.67 882.564,250.164 884.277,249.885 C889.508,249.033 892.867,251.016 894.718,256.058 C895.893,259.258 895.691,262.609 896.139,265.786" fill="#FEF8EA"/>
    <path d="M618.38,515.962 C608.691,502.997 606.421,488.77 609.312,473.138 C612.506,478.462 615.703,483.785 618.895,489.11 C621.797,493.951 624.691,498.797 627.596,503.637 C628.471,505.096 629.466,506.496 627.368,507.841 C624.011,509.993 621.398,513.032 618.38,515.962" fill="#579CD7"/>
    <path d="M1602.29,571.174 C1596.99,584.226 1582.55,588.743 1571.24,581.377 C1567.04,578.639 1566.33,574.607 1566.64,570.064 C1566.83,567.375 1568.67,567.963 1570.26,568.147 C1575.54,568.755 1580.79,569.517 1586.08,570.02 C1591.35,570.522 1596.65,570.783 1602.29,571.174" fill="#FEFDFD"/>
    <path d="M1618.27,571.084 C1629.4,569.999 1640.01,569.552 1650.41,567.431 C1651.83,567.14 1652.39,567.481 1652.82,568.927 C1654.43,574.283 1652.11,579.954 1646.93,582.277 C1639.32,585.688 1632.09,585.328 1625.54,579.666 C1622.89,577.375 1620.54,574.837 1618.27,571.084" fill="#FEFDFD"/>
    <path d="M1106.07,509.458 C1111.56,504.673 1116.69,500.77 1116.86,493.64 C1116.89,492.244 1117.94,492.178 1118.99,492.327 C1119.65,492.419 1120.28,492.623 1120.94,492.727 C1136.08,495.146 1136.04,495.135 1132.3,510.305 C1131.77,512.477 1130.91,513.543 1128.61,512.982 C1128.13,512.865 1127.62,512.877 1127.13,512.8 C1120.47,511.746 1113.8,510.686 1106.07,509.458" fill="#ABEA8A"/>
    <path d="M711.875,395.137 C708.816,407.506 696.598,412.525 686.145,405.835 C681.844,403.082 680.932,398.854 681.118,394.131 C681.207,391.871 682.558,391.873 684.184,392.179 C693.324,393.894 702.61,394.323 711.875,395.137" fill="#FDFDFD"/>
    <path d="M317.939,672.113 C311.205,664.611 304.47,657.11 297.74,649.605 C297.41,649.237 296.775,648.627 296.865,648.473 C298.712,645.343 302.369,643.995 304.287,640.808 C305.352,639.037 306.509,641.044 307.57,641.506 C308.478,641.901 309.292,642.756 310.207,642.856 C317.064,643.6 317.439,648.524 317.663,653.818 C317.917,659.776 318.493,665.72 318.929,671.67 C318.599,671.818 318.269,671.965 317.939,672.113" fill="#FDFDFD"/>
    <path d="M728.635,395.45 C738.104,394.499 746.99,393.715 755.841,392.643 C758.126,392.366 758.738,392.852 758.736,395.064 C758.731,399.425 757.943,403.472 753.859,405.775 C749.04,408.494 743.913,409.529 738.759,406.546 C734.361,404.001 731.358,400.129 728.635,395.45" fill="#FDFDFD"/>
    <path d="M450.707,707.039 C454.483,713.251 458.187,719.509 462.076,725.65 C463.42,727.773 462.839,728.845 460.868,729.928 C457.97,731.52 455.26,733.48 452.289,734.909 C450.445,735.796 448.492,739.299 446.186,735.591 C444.497,732.876 441.859,730.645 445.923,726.92 C451.753,721.575 451.713,714.314 449.427,707.073 C449.841,706.603 450.268,706.591 450.707,707.039" fill="#FEDD78"/>
    <path d="M272.022,623.713 C279.324,623.713 286.544,623.783 293.76,623.659 C295.411,623.631 295.964,624.225 295.699,625.606 C294.893,629.804 294.529,634.312 289.717,636.258 C285.152,638.103 279.736,636.81 276.57,633.172 C274.515,630.81 273.249,628.217 272.022,623.713" fill="#FDFDFD"/>
    <path d="M682.528,534.951 C685.241,536.629 686.093,539.988 687.755,542.679 C689.006,544.704 686.606,544.99 685.575,545.663 C682.667,547.564 679.645,549.292 676.642,551.043 C672.666,553.362 669.866,552.101 669.404,547.54 C669.156,545.103 669.141,542.473 669.805,540.154 C670.635,537.26 673.801,538.754 675.786,537.883 C677.903,536.955 680.025,536.039 682.528,534.951" fill="#FFC5A5"/>
    <path d="M716.402,523.721 C713.792,520.925 712.669,517.831 714.76,514.264 C716.32,511.603 718.734,510.333 721.828,510.645 C725.144,510.98 727.286,512.855 728.264,516.018 C729.206,519.067 727.891,521.489 725.998,523.721 C722.801,523.72 719.601,523.72 716.402,523.721" fill="#FDFDFD"/>
    <path d="M325.299,624.735 C324.47,626.719 325.612,631.308 320.661,632.147 C317.005,632.767 311.281,628.937 309.91,625.425 C309.05,623.223 309.897,622.436 312.02,622.214 C315.63,621.835 319.274,621.561 322.815,620.819 C325.553,620.246 326.084,621.188 325.299,624.735" fill="#FDFCFC"/>
    <path d="M1530.29,672.232 C1526.89,665.39 1526.89,665.39 1532.29,662.636 C1532.19,665.896 1531.4,668.793 1530.29,672.232" fill="#F5F2EF"/>
    <path d="M1430,742.101 C1428.71,744.25 1427.89,745.621 1426.97,747.156 C1425.17,746.314 1424.23,744.615 1424.71,743.299 C1425.49,741.147 1427.71,742.329 1430,742.101" fill="#EEE5D4"/>
    <path d="M1150.94,506.727 C1149.13,507.663 1147.72,508.392 1146.24,509.159 C1144.95,507.007 1146.47,505.356 1146.44,502.714 C1148.25,504.323 1149.45,505.398 1150.94,506.727" fill="#F2E9D9"/>
    <path d="M684.756,561.616 C686.397,560.413 687.7,559.169 689.641,558.958 C690.481,560.399 689.698,561.821 689.867,563.588 C687.982,563.69 686.57,562.863 684.756,561.616" fill="#F2E9D9"/>
    <path d="M464.625,742.852 C465.17,744.816 465.557,746.912 464.366,747.722 C463.038,748.626 461.459,747.206 459.901,745.79 C461.556,744.76 462.989,743.869 464.625,742.852" fill="#F2E9D9"/>
    <path d="M53.774,624.023 C54.089,624.345 54.404,624.668 54.718,624.991 C53.174,627.601 52.609,631.012 49.02,631.947 C50.605,629.306 52.19,626.664 53.774,624.023" fill="#ECE4DB"/>
    <path d="M1105.18,523.222 C1104.82,524.191 1103.97,524.067 1103.24,523.993 C1102.63,523.933 1101.86,523.718 1102.03,522.892 C1102.23,521.835 1103.2,522.044 1103.92,522.108 C1104.52,522.161 1105.18,522.363 1105.18,523.222" fill="#5F7F98"/>
    <path d="M387.753,294.068 C387.466,294.355 387.179,294.641 386.892,294.927 C385.449,294.429 384.369,293.525 383.743,292.112 C385.553,291.793 386.63,292.977 387.753,294.068" fill="#E5D9CB"/>
    <path d="M1025.65,72.066 C1025.63,71.628 1025.61,71.191 1025.59,70.754 C1026.37,69.855 1027.44,70.034 1028.45,69.988 C1029.42,69.519 1029.69,69.939 1029.54,70.869 C1028.24,71.268 1026.95,71.667 1025.65,72.066" fill="#F1ECE4"/>
    <path d="M310.661,686.116 C311.023,685.755 311.385,685.395 311.747,685.034 C312.84,685.482 313.528,686.324 314.172,687.625 C312.468,688.106 311.59,687.04 310.661,686.116" fill="#5D83A1"/>
    <path d="M445.597,700.517 C445.677,699.968 445.757,699.418 445.838,698.869 C446.738,700.262 447.638,701.654 448.538,703.047 C448.164,703.562 447.752,703.596 447.299,703.149 C446.485,702.431 445.713,701.686 445.597,700.517" fill="#E4C163"/>
    <path d="M1037.66,68.038 C1036.42,69.779 1034.12,68.917 1032.64,70.067 C1032.3,69.835 1032.19,69.605 1032.31,69.379 C1032.42,69.154 1032.54,69.041 1032.65,69.041 C1034.1,67.583 1035.94,68.145 1037.66,68.038" fill="#CDBAA0"/>
    <path d="M447.299,703.149 C447.712,703.115 448.125,703.081 448.538,703.047 C449.261,704.378 449.984,705.708 450.707,707.039 C450.281,707.051 449.854,707.062 449.427,707.073 C448.718,705.765 448.009,704.457 447.299,703.149" fill="#EBC968"/>
    <path d="M609.708,71.768 C609.103,73.495 608.006,74.694 606.152,75.081 C606.326,72.892 608.119,72.439 609.708,71.768" fill="#DFC9A5"/>
    <path d="M1032.65,69.041 C1032.65,69.383 1032.64,69.725 1032.64,70.067 C1031.61,70.334 1030.58,70.602 1029.54,70.869 C1029.18,70.575 1028.81,70.281 1028.45,69.988 C1029.69,68.979 1031.18,69.048 1032.65,69.041" fill="#ECE3D3"/>
    <path d="M48.733,632.558 C49.058,634.438 47.917,635.482 46.544,636.394 C45.9,634.333 47.658,633.64 48.733,632.558" fill="#E1D1BE"/>
    <path d="M1606.44,462.198 C1617.41,462.198 1628.39,462.248 1639.36,462.173 C1643.57,462.145 1645.72,463.571 1645.85,468.243 C1646.26,482.948 1644.09,497.059 1637.02,510.124 C1629.8,523.46 1617.26,530.196 1603.85,528.168 C1597.13,527.151 1591.73,523.778 1587.34,518.737 C1577.99,508.009 1574.62,494.914 1572.61,481.281 C1572,477.14 1573.52,472.249 1568.12,469.752 C1566.67,469.082 1566.89,466.814 1567.6,465.172 C1568.66,462.759 1570.81,462.57 1573.03,462.535 C1583,462.375 1592.97,462.214 1602.95,462.059 C1604.11,462.041 1605.27,462.057 1606.44,462.057 C1606.44,462.104 1606.44,462.151 1606.44,462.198" fill="#6E4100"/>
    <path d="M1523.61,399.874 C1524.1,392.748 1526.65,386.575 1532.48,382.219 C1537.18,378.714 1542.24,379.212 1546.55,383.176 C1553.16,389.267 1555.32,401.612 1551.13,409.479 C1548.34,414.728 1541.97,417.956 1536.51,416.89 C1530.13,415.644 1524.19,408.503 1523.62,401.373 C1523.58,400.876 1523.61,400.374 1523.61,399.874" fill="#6E4100"/>
    <path d="M1692.62,400.983 C1692.74,405.477 1691.35,410.345 1686.95,413.816 C1682.57,417.274 1677.58,418.423 1672.51,415.596 C1666.38,412.178 1663.08,406.7 1663.12,399.644 C1663.16,393.19 1665.88,387.678 1670.59,383.313 C1675.83,378.459 1682,378.764 1686.9,384.019 C1691.08,388.511 1692.65,394.015 1692.62,400.983" fill="#6E4100"/>
    <path d="M1535.8,297.567 C1542.37,297.84 1547.84,299.772 1551.42,305.348 C1552.97,307.765 1553.8,310.491 1551.1,312.488 C1548.33,314.538 1546,313.482 1543.95,310.727 C1540.72,306.376 1534.82,305.278 1529.7,308.127 C1526.67,309.813 1523.81,310.63 1522.08,307.117 C1520.29,303.479 1522.82,301.242 1525.92,299.707 C1529.12,298.12 1532.6,297.822 1535.8,297.567" fill="#6F4300"/>
    <path d="M1601.14,399.314 C1601.45,396.279 1602.99,394.399 1606.15,394.246 C1609.33,394.091 1613.73,399.522 1613.53,403.523 C1613.38,406.556 1611.69,408.43 1608.51,408.553 C1605.25,408.68 1601.09,403.401 1601.14,399.314" fill="#704501"/>
    <path d="M1121.55,231.343 C1121.39,236.913 1120.22,242.017 1115.55,245.506 C1110.92,248.963 1105.74,249.874 1100.69,246.771 C1094.59,243.027 1091.44,237.256 1091.91,230.06 C1092.28,224.461 1094.69,219.498 1098.68,215.479 C1104.35,209.774 1111.08,210.062 1116.33,216.213 C1120.05,220.573 1121.3,225.836 1121.55,231.343" fill="#6E4100"/>
    <path d="M1260.8,231.571 C1261.03,236.821 1259.65,241.523 1255.59,245.028 C1251.66,248.411 1246.99,249.686 1242.1,247.69 C1236.12,245.244 1232.56,240.39 1231.63,234.091 C1230.51,226.478 1233.35,219.951 1238.87,214.776 C1244.14,209.845 1250.75,210.386 1255.52,215.896 C1259.4,220.372 1261.01,225.683 1260.8,231.571" fill="#6E4100"/>
    <path d="M1175.95,331.629 C1167.41,331.676 1159.51,329.541 1152.38,324.756 C1149.46,322.798 1147.46,320.28 1149.77,316.864 C1152.04,313.496 1154.95,314.409 1158.02,316.262 C1170.47,323.777 1182.85,323.782 1194.92,315.342 C1197.73,313.375 1200.5,312.682 1202.78,315.677 C1205.07,318.678 1203.69,321.283 1201.03,323.385 C1193.67,329.19 1185.21,331.615 1175.95,331.629" fill="#6E4100"/>
    <path d="M1094.99,118.612 C1102.44,118.47 1106.55,120.93 1109.6,125.258 C1111.25,127.595 1111.28,130.008 1108.89,131.846 C1106.74,133.508 1104.64,132.994 1102.68,131.127 C1097.72,126.384 1092.24,126.829 1088.3,132.55 C1086.33,135.414 1084.27,137.28 1081.08,134.938 C1077.94,132.631 1079,129.597 1080.91,127.066 C1084.92,121.767 1090.32,118.897 1094.99,118.612" fill="#6F4300"/>
    <path d="M1181.63,236.102 C1181.47,238.303 1179.86,240.019 1176.68,240.075 C1173.39,240.133 1169.36,234.981 1169.5,230.808 C1169.61,227.658 1171.29,225.959 1174.5,225.925 C1177.96,225.889 1181.73,230.782 1181.63,236.102" fill="#704501"/>
    <path d="M183.668,408.02 C182.633,404.357 183.779,401.65 186.949,399.491 C217.027,378.994 236.02,349.848 250.804,317.438 C251.425,316.076 251.938,314.665 252.587,313.318 C254.367,309.624 257.309,308.004 261.157,309.611 C265.026,311.227 266.042,314.644 264.537,318.341 C262.094,324.344 259.501,330.313 256.534,336.071 C244.078,360.237 228.583,382.133 207.929,400.091 C203.428,403.45 199.028,406.958 194.397,410.13 C189.608,413.41 187.311,412.828 183.668,408.02" fill="#6E4100"/>
    <path d="M225.839,454.13 C224.697,456.762 226.322,458.717 228.074,460.874 C234.559,468.863 234.733,478.655 228.71,485.483 C221.705,493.423 209.888,491.111 206.322,481.102 C202.654,470.809 207.281,459.754 217.197,455.613 C219.192,454.781 219.547,453.47 219.568,451.768 C219.599,449.362 219.487,446.623 222.788,446.698 C226.47,446.781 225.897,449.85 225.919,452.306 C225.923,452.804 225.877,453.303 225.839,454.13" fill="#6E4100"/>
    <path d="M355.856,453.548 C354.694,456.2 356.499,457.975 358.425,460.017 C364.467,466.422 365.808,475.194 362.086,482.069 C358.717,488.292 353.464,491.156 347.437,490.056 C341.639,488.998 337.45,484.083 336.596,477.335 C335.36,467.559 338.962,460.105 347.221,455.905 C348.852,455.076 349.4,453.957 349.517,452.432 C349.717,449.85 348.997,446.659 353.094,446.661 C355.383,446.663 356.1,448.554 355.856,453.548" fill="#6E4100"/>
    <path d="M283.572,559.596 C275.327,559.484 266.055,558.047 257.636,553.069 C254.294,551.093 251.463,548.566 249.501,545.161 C248.097,542.724 248.673,540.639 250.86,539.075 C252.947,537.584 254.912,538.129 256.694,539.824 C269.022,551.555 291.92,554.316 306.636,545.832 C308.812,544.577 310.69,542.998 312.081,540.816 C313.759,538.182 316.177,537.231 318.841,539.221 C321.492,541.2 321.085,543.733 319.386,546.263 C315.56,551.96 309.861,554.912 303.599,556.941 C297.544,558.904 291.266,559.56 283.572,559.596" fill="#6E4100"/>
    <path d="M369.72,379.327 C369.478,381.278 368.701,382.64 367.031,383.432 C365.271,384.266 363.662,383.808 362.476,382.523 C360.896,380.81 359.495,378.987 357.282,377.976 C354.131,376.536 351.195,376.237 348.742,379.212 C346.729,381.655 344.298,382.449 341.888,380.209 C339.371,377.869 340.637,375.355 342.496,373.17 C349.178,365.318 365.118,367.981 369.132,377.61 C369.385,378.216 369.56,378.855 369.72,379.327" fill="#6F4300"/>
    <path d="M293.585,473.17 C293.676,477.082 289.839,482.509 287.101,482.5 C284.065,482.491 282.096,480.965 281.93,477.749 C281.739,474.031 285.393,469.031 288.391,468.912 C291.586,468.785 293.216,470.532 293.585,473.17" fill="#714603"/>
    <path d="M772.483,246.107 C772.674,240.324 774.056,236.088 776.998,232.922 C779.679,230.036 780.2,227.219 779.668,223.603 C779.318,221.23 778.976,218.186 782.705,218.002 C786.203,217.829 785.856,220.557 785.952,222.911 C786.047,225.257 787.05,226.4 789.634,227.27 C797.065,229.769 799.398,236.229 800.194,243.282 C800.898,249.508 799.684,255.238 794.143,259.131 C790.008,262.036 785.523,262.616 781.045,260.059 C775.202,256.721 772.62,251.416 772.483,246.107" fill="#6E4100"/>
    <path d="M641.612,244.961 C641.541,239.893 643.359,235.382 646.75,231.825 C649.123,229.335 650.305,227.023 649.712,223.562 C649.299,221.153 649.094,218.126 652.812,218.01 C656.309,217.9 655.834,220.679 655.999,223.017 C656.138,224.98 656.685,226.386 659.073,227.401 C669.166,231.688 672.787,248.808 665.513,257.012 C661.894,261.094 657.192,262.752 651.975,260.961 C645.937,258.887 642.868,254.03 641.639,247.949 C641.445,246.99 641.612,245.959 641.612,244.961" fill="#6E4100"/>
    <path d="M721.631,331.872 C713.321,331.401 705.386,329.914 699.67,323.043 C697.566,320.514 695.539,317.503 698.805,314.758 C702,312.071 704.273,314.171 706.539,317.034 C713.085,325.309 731.298,324.776 737.714,316.225 C739.642,313.655 741.846,312.699 744.5,314.445 C747.317,316.298 746.852,318.946 745.24,321.46 C740.299,329.163 732.411,330.932 724.126,331.86 C723.304,331.952 722.463,331.872 721.631,331.872" fill="#6E4100"/>
    <path d="M635.555,153.272 C635.389,148.64 640.988,142.238 647.077,140.096 C652.566,138.166 659.384,139.603 662.258,143.276 C663.645,145.049 663.913,146.916 662.534,148.752 C661.109,150.651 659.089,150.62 657.12,149.863 C649.595,146.971 647.705,147.539 643.767,154.566 C642.531,156.772 640.984,157.79 638.545,157.262 C636.451,156.809 635.518,155.378 635.555,153.272" fill="#6F4300"/>
    <path d="M725.188,249.362 C724.879,252.23 723.027,253.855 719.979,253.828 C717.186,253.804 713.372,248.384 713.582,244.86 C713.769,241.704 715.611,240.05 718.743,240.14 C721.579,240.222 725.311,245.534 725.188,249.362" fill="#714502"/>
    <path d="M1600.59,698.706 C1600.53,702.756 1597.4,705.942 1593.42,706.013 C1589.34,706.087 1585.7,702.491 1585.8,698.478 C1585.9,694.584 1589.28,691.23 1593.16,691.176 C1597.36,691.117 1600.66,694.463 1600.59,698.706" fill="#FDFDFD"/>
    <path d="M1591.67,734.147 C1587.44,734.186 1584.37,731.274 1584.23,727.089 C1584.09,722.89 1587.51,719.417 1591.71,719.49 C1595.83,719.562 1598.75,722.637 1598.73,726.892 C1598.71,731.342 1596.02,734.106 1591.67,734.147" fill="#FDFDFE"/>
    <path d="M726.866,599.562 C726.867,605.893 726.94,612.225 726.844,618.554 C726.768,623.504 724.256,626.289 720.126,626.005 C715.606,625.694 713.854,622.855 713.859,618.59 C713.872,605.929 713.819,593.267 713.888,580.606 C713.911,576.225 716.645,573.273 720.362,573.244 C724.063,573.214 726.759,576.116 726.837,580.571 C726.949,586.899 726.866,593.232 726.866,599.562" fill="#6E4300"/>
    <path d="M728.543,490.06 C728.302,494.058 724.953,497.142 720.967,497.035 C716.827,496.924 713.488,493.298 713.738,489.184 C713.986,485.093 717.786,481.827 721.846,482.218 C725.81,482.599 728.783,486.081 728.543,490.06" fill="#FDFDFD"/>
    <path d="M1176.81,600.74 C1176.81,606.715 1176.71,612.692 1176.84,618.664 C1176.94,622.939 1174.78,625.236 1170.82,625.798 C1167.22,626.311 1163.93,623.218 1163.87,618.966 C1163.71,606.852 1163.72,594.733 1163.86,582.619 C1163.91,578.08 1166.58,575.512 1170.52,575.551 C1174.48,575.59 1176.74,578.133 1176.8,582.815 C1176.86,588.789 1176.81,594.765 1176.81,600.74" fill="#6E4100"/>
    <path d="M1636.83,476.809 C1635.85,488.163 1633.75,498.879 1627.44,508.279 C1617.1,523.683 1599.91,523.293 1590.32,507.467 C1584.23,497.404 1582.04,486.222 1581.08,474.683 C1580.88,472.231 1581.74,471.6 1584.11,471.522 C1600.75,470.977 1617.38,470.774 1634.03,471.024 C1639.71,471.11 1635.31,475.331 1636.83,476.809" fill="#FEFEFE"/>
  </g>
</svg>
