<svg xmlns="http://www.w3.org/2000/svg" width="210.47" height="189.31" viewBox="0 0 210.47 189.31">
    <defs>
        <style>
            .cls-1{opacity:.3}.cls-2{fill:#658bb1}.cls-3{fill:#4d6898}.cls-5{fill:#b8d3ef}
        </style>
    </defs>
    <g id="label" transform="translate(-.156 -2.034)">
        <g id="bg" class="cls-1" transform="translate(.156 2.034)">
            <g id="Group_58137" class="cls-1">
                <path id="Path_56592" d="M205.229 111.968c-21.78-34.49-18.867-69.463-29.365-86.083S133.766-19.61 57.3 28.675-.731 131 10.817 149.283c54.058 85.611 232.983 23.774 194.412-37.315z" class="cls-2" transform="translate(-.156 -2.034)"/>
            </g>
        </g>
        <g id="color" transform="translate(39.021 16.579)">
            <g id="Group_58138" transform="translate(0 22.098)">
                <path id="Path_56593" d="M129.559 90.125L117.7 73.553l-1.057-2.953a6.238 6.238 0 0 1 1.062-3.775l11.854-16.573a5.781 5.781 0 0 0-3.775-9.023l-19.639-3.244-.413-.059c-.236-.059-.413-.118-.649-.177a5.8 5.8 0 0 1-4.128-4.6l-2.182-13.324-1.121-6.725a5.758 5.758 0 0 0-9.024-3.775L72.056 21.181a8.158 8.158 0 0 1-1.592.826 6.03 6.03 0 0 1-3.539 0 8.158 8.158 0 0 1-1.592-.826L48.76 9.327a5.758 5.758 0 0 0-9.023 3.773l-3.3 20.052a6.2 6.2 0 0 1-1.062 2.477 4.134 4.134 0 0 1-1.239 1.239 6.2 6.2 0 0 1-2.477 1.062L11.6 41.233A5.725 5.725 0 0 0 8.066 43.3a5.332 5.332 0 0 0-.944 1.71 5.213 5.213 0 0 0-.295 2.831 7.718 7.718 0 0 0 .531 1.651 5.384 5.384 0 0 0 .472.767l4.187 5.841 7.667 10.734a5.853 5.853 0 0 1 0 6.723L7.83 90.125a5.758 5.758 0 0 0 3.77 9.024l20.052 3.3h.059l2.89 1.415a5.762 5.762 0 0 1 1.828 3.3l3.3 20.111a5.788 5.788 0 0 0 9.082 3.775l16.522-11.85c.177-.118.413-.236.59-.354a5.77 5.77 0 0 1 6.134.354l10.852 7.785.118.059 5.6 4.01a5.385 5.385 0 0 0 .767.472 7.717 7.717 0 0 0 1.651.531 5.213 5.213 0 0 0 2.831-.295 5.333 5.333 0 0 0 1.71-.944 5.725 5.725 0 0 0 2.064-3.539l3.3-20.052a5.759 5.759 0 0 1 4.777-4.777l20.052-3.3a5.758 5.758 0 0 0 3.775-9.024z" class="cls-2" transform="translate(-6.746 -8.247)"/>
            </g>
            <g id="Group_58141" transform="translate(0 22.098)">
                <g id="Group_58139">
                    <path id="Path_56594" d="M53.007 127.281L49.7 107.17a5.761 5.761 0 0 0-1.828-3.3l-2.89-1.415h-.059l-20.052-3.3a5.758 5.758 0 0 1-3.771-9.03l11.854-16.572a5.853 5.853 0 0 0 0-6.723L25.287 56.1 21.1 50.257a5.385 5.385 0 0 1-.472-.767 7.719 7.719 0 0 1-.531-1.651 5.213 5.213 0 0 1 .295-2.831 5.332 5.332 0 0 1 .944-1.71 5.725 5.725 0 0 1 3.539-2.064l20.052-3.3a6.2 6.2 0 0 0 2.473-1.065 4.134 4.134 0 0 0 1.239-1.239 6.2 6.2 0 0 0 1.061-2.477L53 13.101a5.165 5.165 0 0 1 .183-.607L48.76 9.327a5.758 5.758 0 0 0-9.023 3.773l-3.3 20.052a6.2 6.2 0 0 1-1.062 2.477 4.134 4.134 0 0 1-1.239 1.239 6.2 6.2 0 0 1-2.477 1.062L11.6 41.233A5.725 5.725 0 0 0 8.066 43.3a5.332 5.332 0 0 0-.944 1.71 5.213 5.213 0 0 0-.295 2.831 7.718 7.718 0 0 0 .531 1.651 5.384 5.384 0 0 0 .472.767l4.187 5.841 7.667 10.734a5.853 5.853 0 0 1 0 6.723L7.83 90.125a5.758 5.758 0 0 0 3.77 9.024l20.052 3.3h.059l2.89 1.415a5.762 5.762 0 0 1 1.828 3.3l3.3 20.111a5.788 5.788 0 0 0 9.082 3.775l4.376-3.143a5.569 5.569 0 0 1-.189-.631z" class="cls-3" transform="translate(-6.746 -8.247)"/>
                </g>
                <g id="Group_58140" transform="translate(68.583 109.884)">
                    <path id="Path_56595" d="M39.341 35.793l-.118-.059-10.851-7.785a5.77 5.77 0 0 0-6.134-.354c-.177.118-.413.236-.59.354L18.375 30.3l7.579 5.438.118.059 5.6 4.01a5.385 5.385 0 0 0 .767.472 7.718 7.718 0 0 0 1.651.531 5.213 5.213 0 0 0 2.831-.295 5.333 5.333 0 0 0 1.71-.944 5.776 5.776 0 0 0 1.852-2.955z" class="cls-3" transform="translate(-18.375 -26.879)"/>
                </g>
            </g>
            <g id="Group_58142" transform="translate(128.297)">
                <path id="Path_56596" fill="#a4afc1" d="M37.347 22.193a8.847 8.847 0 1 1 8.847-8.847 8.857 8.857 0 0 1-8.847 8.847zm0-11.8a2.949 2.949 0 1 0 2.953 2.954 2.954 2.954 0 0 0-2.953-2.947z" transform="translate(-28.5 -4.5)"/>
            </g>
        </g>
        <g id="regular" transform="translate(34.606 34.263)">
            <g id="Group_58143">
                <path id="Path_56597" d="M95.592 140.211a10.128 10.128 0 0 1-5.91-1.911l-16.531-11.866a1.574 1.574 0 0 0-1.657.053L55.039 138.3a10.189 10.189 0 0 1-15.989-6.623l-3.338-20.093a1.328 1.328 0 0 0-1.091-1.085l-20.1-3.338a10.183 10.183 0 0 1-6.634-15.954L19.771 74.64a1.55 1.55 0 0 0-.053-1.657L7.911 56.535a10.194 10.194 0 0 1 6.617-15.989l20.093-3.338a1.329 1.329 0 0 0 1.085-1.085l3.338-20.1A10.183 10.183 0 0 1 55 9.388l16.561 11.89a1.345 1.345 0 0 0 1.586-.006l16.518-11.86a10.2 10.2 0 0 1 15.989 6.617l1.121 6.753-8.723 1.451-1.121-6.759a1.256 1.256 0 0 0-.8-1.009 1.319 1.319 0 0 0-1.292.136L78.312 28.467a10.222 10.222 0 0 1-11.89.006L49.885 16.6a1.294 1.294 0 0 0-1.309-.136 1.251 1.251 0 0 0-.79 1l-3.345 20.109a10.166 10.166 0 0 1-8.357 8.363L15.979 49.28a1.354 1.354 0 0 0-.879 2.105l11.63 16.178a10.636 10.636 0 0 1 .289 12.161L15.1 96.332a1.342 1.342 0 0 0-.142 1.309 1.27 1.27 0 0 0 1.009.79l20.111 3.338a10.166 10.166 0 0 1 8.357 8.363l3.338 20.1a1.272 1.272 0 0 0 .79 1.014 1.353 1.353 0 0 0 1.339-.159l16.5-11.843a10.483 10.483 0 0 1 11.819-.053l16.608 11.919a1.351 1.351 0 0 0 2.1-.873l3.344-20.105a10.166 10.166 0 0 1 8.357-8.363l20.105-3.338a1.271 1.271 0 0 0 1.014-.79 1.363 1.363 0 0 0-.159-1.345L117.744 79.8l7.189-5.16L136.8 91.172a10.209 10.209 0 0 1 1.109 9.89 10.1 10.1 0 0 1-7.732 6.1l-20.094 3.338a1.329 1.329 0 0 0-1.083 1.084l-3.338 20.1a10.231 10.231 0 0 1-10.067 8.528z" class="cls-5" transform="translate(-5.998 -7.499)"/>
            </g>
            <g id="Group_58144" transform="translate(42.596 10.152)">
                <path id="Path_56598" d="M42.885 81.644a4.388 4.388 0 0 1-3.126-1.3L13.22 53.807l6.257-6.257 23.414 23.413L104.634 9.22l6.257 6.257-64.874 64.875a4.43 4.43 0 0 1-3.132 1.292z" class="cls-5" transform="translate(-13.22 -9.22)"/>
            </g>
        </g>
    </g>
</svg>
