<svg xmlns="http://www.w3.org/2000/svg" width="574.585" height="564" viewBox="0 0 574.585 564">
    <defs>
        <style>
            .cls-1{fill:#e0e0e0}.cls-2{fill:#f0f0f0}.cls-3{fill:#fff}.cls-4{fill:#e6e6e6}.cls-5{fill:#263238}.cls-6{fill:#658bb1}.cls-7{fill:#455a64}.cls-10,.cls-11,.cls-12{fill:#9ba6b1}.cls-11{opacity:.1}.cls-12,.cls-13{opacity:.2}.cls-14{fill:#ffbe9d}
        </style>
    </defs>
    <g id="Group_57884" transform="translate(-39.681 -34.054)">
        <g id="Background_Complete" transform="translate(39.681 34.054)">
            <g id="Group_57930">
                <g id="Group_57896" transform="translate(354.193 251.918)">
                    <g id="Group_57890">
                        <g id="Group_57884-2">
                            <path id="Path_56409" d="M523.418 348.923H303.026V221.357h220.392zm-219.047-1.345h217.7V222.7h-217.7z" class="cls-1" transform="translate(-303.026 -221.357)"/>
                        </g>
                        <g id="Group_57885" transform="translate(29.492 68.017)">
                            <path id="Rectangle_1225" d="M0 0H145.439V4.266H0z" class="cls-2"/>
                        </g>
                        <g id="Group_57886" transform="translate(29.492 83.918)">
                            <path id="Rectangle_1226" d="M0 0H155.455V4.655H0z" class="cls-2"/>
                        </g>
                        <g id="Group_57887" transform="translate(29.492 100.002)">
                            <path id="Rectangle_1227" d="M0 0H155.455V4.655H0z" class="cls-2"/>
                        </g>
                        <g id="Group_57888" transform="translate(29.492 44.925)">
                            <path id="Rectangle_1228" d="M0 0H50.829V11.068H0z" class="cls-2"/>
                        </g>
                        <g id="Group_57889" transform="translate(.672 .673)">
                            <path id="Rectangle_1229" d="M0 0H219.047V20.307H0z" class="cls-1"/>
                        </g>
                    </g>
                    <g id="Group_57895" transform="translate(202.845 3.691)">
                        <g id="Group_57892">
                            <g id="Group_57891">
                                <path id="Path_56410" d="M453.862 238.356c-.28-.268 2.543-3.672 6.3-7.6s7.038-6.9 7.318-6.635-2.543 3.67-6.305 7.6-7.033 6.903-7.313 6.635z" class="cls-3" transform="translate(-453.843 -224.102)"/>
                            </g>
                        </g>
                        <g id="Group_57894">
                            <g id="Group_57893">
                                <path id="Path_56411" d="M467.482 238.356c-.28.268-3.556-2.7-7.317-6.635s-6.584-7.335-6.3-7.6 3.553 2.7 7.315 6.635 6.582 7.333 6.302 7.6z" class="cls-3" transform="translate(-453.843 -224.102)"/>
                            </g>
                        </g>
                    </g>
                </g>
                <g id="Group_57909" transform="translate(84.306)">
                    <g id="Group_57903">
                        <g id="Group_57897">
                            <path id="Rectangle_1230" d="M0 0H219.048V126.22H0z" class="cls-4"/>
                        </g>
                        <g id="Group_57898" transform="translate(28.82 67.344)">
                            <path id="Rectangle_1231" d="M0 0H145.438V4.266H0z" class="cls-2"/>
                        </g>
                        <g id="Group_57899" transform="translate(28.82 83.245)">
                            <path id="Rectangle_1232" d="M0 0H155.455V4.654H0z" class="cls-2"/>
                        </g>
                        <g id="Group_57900" transform="translate(28.82 99.329)">
                            <path id="Rectangle_1233" d="M0 0H155.455V4.654H0z" class="cls-2"/>
                        </g>
                        <g id="Group_57901" transform="translate(28.82 44.252)">
                            <path id="Rectangle_1234" d="M0 0H50.829V11.068H0z" class="cls-2"/>
                        </g>
                        <g id="Group_57902">
                            <path id="Rectangle_1235" d="M0 0H219.048V20.307H0z" class="cls-1"/>
                        </g>
                    </g>
                    <g id="Group_57908" transform="translate(201.422 2.921)">
                        <g id="Group_57905">
                            <g id="Group_57904">
                                <path id="Path_56412" d="M252.141 50.482c-.28-.268 2.543-3.672 6.3-7.6s7.037-6.9 7.317-6.636-2.542 3.672-6.3 7.6-7.037 6.903-7.317 6.636z" class="cls-3" transform="translate(-252.122 -36.226)"/>
                            </g>
                        </g>
                        <g id="Group_57907">
                            <g id="Group_57906">
                                <path id="Path_56413" d="M265.761 50.482c-.28.268-3.555-2.7-7.315-6.635s-6.585-7.337-6.305-7.6 3.555 2.7 7.317 6.636 6.583 7.331 6.303 7.599z" class="cls-3" transform="translate(-252.122 -36.226)"/>
                            </g>
                        </g>
                    </g>
                </g>
                <g id="Group_57916" transform="translate(0 106.912)">
                    <g id="Group_57910">
                        <path id="Path_56414" d="M260.073 241.11H39.681V113.544h220.392zm-219.047-1.345h217.7V114.889h-217.7z" class="cls-1" transform="translate(-39.681 -113.544)"/>
                    </g>
                    <g id="Group_57911" transform="translate(29.492 68.017)">
                        <path id="Rectangle_1236" d="M0 0H145.439V4.266H0z" class="cls-2"/>
                    </g>
                    <g id="Group_57912" transform="translate(29.492 83.919)">
                        <path id="Rectangle_1237" d="M0 0H155.456V4.654H0z" class="cls-2"/>
                    </g>
                    <g id="Group_57913" transform="translate(29.492 100.003)">
                        <path id="Rectangle_1238" d="M0 0H155.456V4.654H0z" class="cls-2"/>
                    </g>
                    <g id="Group_57914" transform="translate(29.492 44.925)">
                        <path id="Rectangle_1239" d="M0 0H50.829V11.069H0z" class="cls-2"/>
                    </g>
                    <g id="Group_57915" transform="translate(.672 .673)">
                        <path id="Rectangle_1240" d="M0 0H219.048V20.307H0z" class="cls-1"/>
                    </g>
                </g>
                <g id="Group_57917" transform="translate(216.099 263.71)">
                    <path id="Rectangle_1241" d="M0 0H258.644V231.546H0z" class="cls-4"/>
                </g>
                <g id="Group_57923" transform="translate(26.496 190.769)">
                    <g id="Group_57918">
                        <path id="Rectangle_1242" d="M0 0H202.605V210.501H0z" class="cls-2"/>
                    </g>
                    <g id="Group_57919">
                        <path id="Rectangle_1243" d="M0 0H202.605V22.936H0z" class="cls-1"/>
                    </g>
                    <g id="Group_57920" transform="translate(8.223 6.787)">
                        <path id="Path_56415" d="M74 185.384a4.258 4.258 0 1 1-4.254-4.447A4.353 4.353 0 0 1 74 185.384z" class="cls-3" transform="translate(-65.495 -180.938)"/>
                    </g>
                    <g id="Group_57921" transform="translate(25.478 6.787)">
                        <path id="Path_56416" d="M86.831 185.384a4.258 4.258 0 1 1-4.253-4.447 4.353 4.353 0 0 1 4.253 4.447z" class="cls-3" transform="translate(-78.324 -180.938)"/>
                    </g>
                    <g id="Group_57922" transform="translate(42.733 6.787)">
                        <path id="Path_56417" d="M99.66 185.384a4.258 4.258 0 1 1-4.254-4.447 4.353 4.353 0 0 1 4.254 4.447z" class="cls-3" transform="translate(-91.153 -180.938)"/>
                    </g>
                </g>
                <g id="Group_57929" transform="translate(287.018 46.039)">
                    <g id="Group_57924">
                        <path id="Rectangle_1244" d="M0 0H258.644V257.78H0z" class="cls-2"/>
                    </g>
                    <g id="Group_57925">
                        <path id="Rectangle_1245" d="M0 0H258.644V30.194H0z" class="cls-1"/>
                    </g>
                    <g id="Group_57926" transform="translate(10.826 8.934)">
                        <path id="Path_56418" d="M272.331 80.78a5.606 5.606 0 1 1-5.6-5.853 5.733 5.733 0 0 1 5.6 5.853z" class="cls-3" transform="translate(-261.13 -74.927)"/>
                    </g>
                    <g id="Group_57927" transform="translate(33.414 9.06)">
                        <path id="Path_56419" d="M287.612 76.79a5.605 5.605 0 1 1-8.1-.18 5.73 5.73 0 0 1 8.1.18z" class="cls-3" transform="translate(-277.924 -75.021)"/>
                    </g>
                    <g id="Group_57928" transform="translate(56.258 8.934)">
                        <path id="Path_56420" d="M306.109 80.78a5.605 5.605 0 1 1-5.6-5.853 5.732 5.732 0 0 1 5.6 5.853z" class="cls-3" transform="translate(-294.909 -74.927)"/>
                    </g>
                </g>
            </g>
        </g>
        <g id="Floor" transform="translate(112.3 597.353)">
            <g id="Group_57931">
                <path id="Path_56421" d="M510.843 453.221c0 .194-93.394.351-208.574.351-115.222 0-208.6-.157-208.6-.351s93.374-.35 208.6-.35c115.18 0 208.574.157 208.574.35z" class="cls-5" transform="translate(-93.674 -452.871)"/>
            </g>
        </g>
        <g id="Plant" transform="translate(413.707 289.715)">
            <g id="Group_57949">
                <g id="Group_57933">
                    <g id="Group_57932">
                        <path id="Path_56422" d="M342.529 367.477c-20.777-14.516-25.491-41.46-24.67-65.681.137-4.042-.307-8.3 1.617-11.852s6.41-5.972 10.031-4.268c3 1.414 4.311 4.906 5.991 7.794a23.64 23.64 0 0 0 9.481 9.056c2.576 1.337 5.76 2.153 8.3.752 3.488-1.925 3.9-6.742 3.874-10.764q-.071-11.241-.14-22.483c-.026-4.02-.038-8.126 1.213-11.942s4.013-7.361 7.839-8.433 8.557 1.134 9.364 5.069c.336 1.638 0 3.338.114 5.007s.889 3.516 2.475 3.981c1.6.472 3.214-.668 4.416-1.845 4.151-4.06 6.967-9.29 9.6-14.492s5.186-10.526 8.952-14.953 8.975-7.937 14.733-8.264 11.895 3.228 13.35 8.881c1.459 5.669-1.848 11.42-5.447 16.009a89.785 89.785 0 0 1-18.687 17.814c-1.268.9-2.642 1.871-3.127 3.361-.873 2.681 1.668 5.342 4.313 6.225 3 1 6.25.687 9.385 1.056s6.531 1.753 7.717 4.716c1.648 4.109-1.79 8.417-5.171 11.239A76.923 76.923 0 0 1 395.3 306.6c-2.959 1.081-6.071 2.031-8.456 4.109s-3.825 5.693-2.385 8.524 5.141 3.743 8.239 3.167 5.871-2.257 8.824-3.371c5.525-2.086 12.662-1.705 16.2 3.071 2.327 3.139 2.531 7.51 1.354 11.252s-3.562 6.966-6.1 9.938c-8.857 10.391-20.195 18.756-33.014 23.2s-24.7 5.648-37.435.989" class="cls-6" transform="translate(-317.772 -224.14)"/>
                    </g>
                </g>
                <g id="Group_57936" transform="translate(23.849 3.386)">
                    <g id="Group_57935">
                        <g id="Group_57934">
                            <path id="Path_56423" d="M417.142 226.658a3.033 3.033 0 0 1-.39.382l-1.194 1.064c-1.053.931-2.607 2.305-4.558 4.128a151.012 151.012 0 0 0-15.358 16.577c-2.991 3.727-6.1 7.946-9.357 12.537s-6.687 9.533-10.109 14.857a181.848 181.848 0 0 0-9.921 17.185c-1.551 3.073-2.932 6.29-4.343 9.569s-2.824 6.605-4.266 9.972a369.346 369.346 0 0 0-14.329 38.7 179.534 179.534 0 0 0-6.7 32.994 131.56 131.56 0 0 0-.378 22.711c.211 2.676.416 4.754.605 6.156l.184 1.6a3.3 3.3 0 0 1 .04.551 2.811 2.811 0 0 1-.114-.539c-.063-.394-.151-.92-.26-1.588-.237-1.4-.488-3.473-.744-6.155a125.809 125.809 0 0 1 .145-22.785 176.5 176.5 0 0 1 6.57-33.14 360.1 360.1 0 0 1 14.3-38.79q2.165-5.052 4.272-9.976c1.41-3.271 2.807-6.515 4.37-9.6a179.76 179.76 0 0 1 10-17.232c3.444-5.327 6.909-10.257 10.18-14.842s6.425-8.792 9.451-12.508a142.554 142.554 0 0 1 15.571-16.457c1.983-1.793 3.567-3.132 4.654-4.027l1.24-1.009a2.856 2.856 0 0 1 .439-.335z" class="cls-5" transform="translate(-335.504 -226.657)"/>
                        </g>
                    </g>
                </g>
                <g id="Group_57939" transform="translate(48.279 25.517)">
                    <g id="Group_57938">
                        <g id="Group_57937">
                            <path id="Path_56424" d="M359.552 287.35a8.233 8.233 0 0 1-.393-1.715c-.211-1.111-.463-2.728-.745-4.73-.569-4-1.165-9.56-1.8-15.688s-1.309-11.662-1.937-15.645c-.308-1.993-.573-3.6-.772-4.714a8.135 8.135 0 0 1-.225-1.746 8.008 8.008 0 0 1 .506 1.685c.285 1.095.631 2.7 1 4.683.764 3.976 1.523 9.52 2.157 15.657l1.584 15.7c.2 1.887.374 3.478.511 4.754a7.913 7.913 0 0 1 .114 1.759z" class="cls-5" transform="translate(-353.667 -243.112)"/>
                        </g>
                    </g>
                </g>
                <g id="Group_57942" transform="translate(54.164 60.041)">
                    <g id="Group_57941">
                        <g id="Group_57940">
                            <path id="Path_56425" d="M409.741 268.834a11.244 11.244 0 0 1-2.062.246c-1.328.118-3.247.28-5.613.554-4.736.51-11.251 1.446-18.4 2.792s-13.556 2.865-18.163 4.087c-2.309.594-4.163 1.127-5.448 1.486a10.876 10.876 0 0 1-2.018.495 11.113 11.113 0 0 1 1.933-.773c1.26-.445 3.1-1.056 5.4-1.719 4.584-1.357 11-2.95 18.165-4.313a182.281 182.281 0 0 1 18.48-2.582c2.379-.207 4.312-.289 5.648-.316a10.919 10.919 0 0 1 2.078.043z" class="cls-5" transform="translate(-358.043 -268.78)"/>
                        </g>
                    </g>
                </g>
                <g id="Group_57945" transform="translate(5.612 61.175)">
                    <g id="Group_57944">
                        <g id="Group_57943">
                            <path id="Path_56426" d="M347.977 335.652a2.67 2.67 0 0 1-.354-.629l-.885-1.871c-.76-1.627-1.8-4.012-3.044-6.974-2.495-5.922-5.683-14.211-9.076-23.405s-6.5-17.506-8.87-23.471c-1.159-2.9-2.114-5.286-2.824-7.058-.3-.769-.553-1.4-.757-1.926a2.624 2.624 0 0 1-.218-.693 2.821 2.821 0 0 1 .354.632l.885 1.87c.76 1.627 1.8 4.011 3.044 6.974 2.495 5.922 5.683 14.211 9.077 23.409s6.5 17.5 8.869 23.469c1.161 2.9 2.114 5.286 2.824 7.057l.757 1.926a2.651 2.651 0 0 1 .218.69z" class="cls-5" transform="translate(-321.945 -269.624)"/>
                        </g>
                    </g>
                </g>
                <g id="Group_57948" transform="translate(31.645 105.056)">
                    <g id="Group_57947">
                        <g id="Group_57946">
                            <path id="Path_56427" d="M410 302.256a2.709 2.709 0 0 1-.681.281l-2 .67-7.357 2.383c-6.211 2.015-14.757 4.9-24.2 8.091s-18.024 6-24.28 7.888c-3.127.944-5.664 1.683-7.428 2.156-.815.214-1.488.39-2.035.535a2.638 2.638 0 0 1-.724.136 2.834 2.834 0 0 1 .682-.282c.537-.178 1.2-.4 2-.667l7.354-2.383c6.211-2.013 14.76-4.9 24.2-8.093s18.021-6 24.276-7.887c3.127-.944 5.665-1.683 7.431-2.157l2.034-.534a2.76 2.76 0 0 1 .728-.137z" class="cls-5" transform="translate(-341.3 -302.249)"/>
                        </g>
                    </g>
                </g>
            </g>
        </g>
        <g id="Padlock" transform="translate(407.201 40.305)">
            <g id="Group_57959">
                <g id="Group_57951">
                    <g id="Group_57950">
                        <path id="Path_56428" d="M391.759 66.916l-6.932 2.479-2.963-9.052C376.4 43.65 358.954 34.718 343 40.425s-24.5 23.937-19.035 40.63l2.963 9.052-6.954 2.487a11.059 11.059 0 0 0-6.481 13.825l19.282 58.9a10.389 10.389 0 0 0 13.257 6.873l71.787-25.68a11.115 11.115 0 0 0 6.542-13.955l-19.282-58.9a10.376 10.376 0 0 0-13.32-6.741zm-54.715 9.461c-3-9.149 1.68-19.139 10.433-22.269s18.3 1.771 21.3 10.92l2.963 9.05-31.728 11.35zm40.361 52.256l4.924 15.041a1.209 1.209 0 0 1-.771 1.506l-6.89 2.464a1.116 1.116 0 0 1-1.408-.726l-4.925-15.041a13.445 13.445 0 0 1-12.141-9.42 14.138 14.138 0 0 1 8.327-17.727 13.24 13.24 0 0 1 16.964 8.68 14.368 14.368 0 0 1-4.08 15.223z" class="cls-6" transform="translate(-312.934 -38.702)"/>
                    </g>
                </g>
                <g id="Group_57952" transform="translate(13.684 30.525)">
                    <path id="Path_56429" d="M381.016 61.4c.065.183-12.845 5.015-28.834 10.795s-29.007 10.319-29.073 10.136 12.842-5.014 28.835-10.795S380.95 61.221 381.016 61.4z" class="cls-5" transform="translate(-323.109 -61.397)"/>
                </g>
                <g id="Group_57954" transform="translate(33.734 33.009)">
                    <g id="Group_57953">
                        <path id="Path_56430" d="M391.117 63.244a1.644 1.644 0 0 1 .155.352c.1.274.231.621.391 1.054l1.436 4.077c1.236 3.6 3 8.724 5.161 15.034 2.16 6.371 4.724 13.933 7.568 22.327 1.406 4.214 2.941 8.592 4.413 13.216a19.794 19.794 0 0 1 1.009 7.381 9.821 9.821 0 0 1-1.088 3.722 10.174 10.174 0 0 1-2.542 3 23.955 23.955 0 0 1-6.826 3.485l-6.933 2.491-13.109 4.691c-8.35 2.974-15.873 5.653-22.211 7.908l-15 5.275-4.087 1.4-1.069.347a1.469 1.469 0 0 1-.373.1 1.648 1.648 0 0 1 .348-.163l1.045-.413 4.044-1.524c3.572-1.314 8.658-3.182 14.92-5.483l22.159-8.05 13.1-4.73q3.405-1.231 6.925-2.5a23.342 23.342 0 0 0 6.625-3.376 9.506 9.506 0 0 0 2.369-2.784 9.179 9.179 0 0 0 1.01-3.457 19.219 19.219 0 0 0-.974-7.12c-1.449-4.578-2.983-9-4.367-13.205-2.791-8.41-5.306-15.989-7.427-22.374-2.075-6.34-3.763-11.487-4.948-15.105-.558-1.75-1-3.127-1.313-4.118l-.324-1.076a1.489 1.489 0 0 1-.087-.382z" class="cls-5" transform="translate(-338.016 -63.244)"/>
                    </g>
                </g>
                <g id="Group_57956" transform="translate(20.37 11.86)">
                    <g id="Group_57955">
                        <path id="Path_56431" d="M356.677 50.121c-.035.059-.714-.362-2.035-.894a18.011 18.011 0 0 0-5.872-1.177 19.981 19.981 0 0 0-8.663 1.637 19.337 19.337 0 0 0-8.22 6.87 18.141 18.141 0 0 0-3.161 10.212 31.393 31.393 0 0 0 1.369 8.8c.709 2.456 1.434 4.4 1.911 5.758a14.49 14.49 0 0 1 .7 2.124 12.876 12.876 0 0 1-.951-2.026c-.555-1.325-1.353-3.251-2.13-5.715a30.413 30.413 0 0 1-1.54-8.947 18.547 18.547 0 0 1 3.225-10.6 19.694 19.694 0 0 1 8.546-7.069 19.96 19.96 0 0 1 8.943-1.539 16.834 16.834 0 0 1 5.954 1.422 11.939 11.939 0 0 1 1.462.8c.316.206.476.323.462.344z" class="cls-5" transform="translate(-328.079 -47.519)"/>
                    </g>
                </g>
                <g id="Group_57958" transform="translate(41.605 65.408)">
                    <g id="Group_57957">
                        <path id="Path_56432" d="M351.841 89.016a3.878 3.878 0 0 1 .682-.339 14.354 14.354 0 0 1 2.075-.748 14.724 14.724 0 0 1 3.5-.58 11.8 11.8 0 0 1 4.718.7c3.435 1.208 6.6 4.721 8.159 9.374a13.51 13.51 0 0 1 .062 7.723 17.5 17.5 0 0 1-4.4 7.271l.089-.356c1.786 4.9 3.731 10.237 5.757 15.787l.122.339-.34.113-3.075 1.03-6.693 2.242-.331.11-.109-.331c-1.843-5.578-3.861-10.834-5.328-15.86l.291.229a13.43 13.43 0 0 1-7.2-2.846 16.194 16.194 0 0 1-4.516-5.4 12.474 12.474 0 0 1-1.426-6.058 14.335 14.335 0 0 1 1.128-5.2 14.144 14.144 0 0 1 4.51-5.914 8.556 8.556 0 0 1 2.326-1.3 24.894 24.894 0 0 0-2.2 1.462 14.357 14.357 0 0 0-4.276 5.9 12.746 12.746 0 0 0 .416 10.862 15.73 15.73 0 0 0 4.4 5.169 12.872 12.872 0 0 0 6.871 2.678l.227.013.063.215c1.483 4.99 3.513 10.226 5.372 15.825l-.441-.221 6.691-2.245 3.075-1.03-.218.451-5.719-15.8-.073-.2.16-.159a16.951 16.951 0 0 0 4.25-6.958 12.966 12.966 0 0 0 0-7.383c-1.47-4.519-4.492-7.954-7.771-9.159a11.652 11.652 0 0 0-4.562-.768 15.3 15.3 0 0 0-3.45.475c-1.852.486-2.792.944-2.816.887z" class="cls-5" transform="translate(-343.868 -87.333)"/>
                    </g>
                </g>
            </g>
        </g>
        <g id="Device" transform="translate(251.747 99.802)">
            <g id="Group_58003">
                <g id="Group_57966">
                    <g id="Group_57960">
                        <path id="Path_56433" d="M360.819 478.873l-134.338-.621a29.262 29.262 0 0 1-29.127-29.386l1.423-336.786a29.264 29.264 0 0 1 29.4-29.14l134.338.62a29.263 29.263 0 0 1 29.127 29.388l-1.423 336.788a29.263 29.263 0 0 1-29.4 29.137z" class="cls-7" transform="translate(-197.354 -82.938)"/>
                    </g>
                    <g id="Group_57961" transform="translate(8.92 11.625)">
                        <path id="Path_56434" d="M360.033 92.2l-26.045-.121a6.47 6.47 0 0 0-6.352 6.582l-.02 4.725a6.469 6.469 0 0 1-6.352 6.582l-50.769-.234a6.477 6.477 0 0 1-6.3-6.641l.022-4.725a6.477 6.477 0 0 0-6.3-6.64l-9.159-.043-22.8-.1a20.494 20.494 0 0 0-20.589 20.407l-1.389 328.73a20.493 20.493 0 0 0 20.4 20.581l134.069.619a20.5 20.5 0 0 0 20.589-20.407l1.389-328.73A20.494 20.494 0 0 0 360.033 92.2z" class="cls-3" transform="translate(-203.986 -91.581)"/>
                    </g>
                    <g id="Group_57965" transform="translate(45.372 306.566)">
                        <g id="Group_57964">
                            <g id="Group_57963">
                                <g id="Group_57962">
                                    <path id="Path_56435" fill="#213861" d="M332.641 342.416l-99.7-.46c-1.032-.005-1.864-1.128-1.857-2.51l.11-26.082c.005-1.381.847-2.5 1.879-2.492l99.7.46c1.032.005 1.865 1.128 1.859 2.511l-.11 26.079c-.007 1.378-.849 2.499-1.881 2.494z" transform="translate(-231.088 -310.872)"/>
                                </g>
                                <text id="Sign_In" fill="#e8e8e3" font-family="Montserrat-Regular, Montserrat" font-size="10px" transform="translate(28.919 18.169) skewX(.06)">
                                    <tspan x="0" y="0">Sign In</tspan>
                                </text>
                            </g>
                        </g>
                    </g>
                </g>
                <g id="Group_58002" transform="translate(31.499 51.224)">
                    <g id="Group_57967" transform="translate(.974 57.469)">
                        <path id="Rectangle_1246" d="M0 0H34.588V6.346H0z" class="cls-10" transform="rotate(.264 .015 6.294)"/>
                        <path id="Rectangle_1247" d="M0 0H34.588V6.346H0z" class="cls-11" transform="rotate(.264 .015 6.294)"/>
                    </g>
                    <g id="Group_57969" transform="translate(.501 72.995)">
                        <g id="Group_57968">
                            <path id="Path_56436" d="M357.673 198.874a3.089 3.089 0 0 0 .79-.184 2.128 2.128 0 0 0 1.3-1.81c0-2.145-.009-5.263-.017-9.266v-6.7-1.876a2.586 2.586 0 0 0-.377-1.762 1.985 1.985 0 0 0-1.591-.82h-2.108l-19.427-.038L223.75 176a1.823 1.823 0 0 0-1.482.749 2.6 2.6 0 0 0-.35 1.758l-.017 4.082-.035 8.081-.019 4a11.979 11.979 0 0 0 .055 1.892 1.829 1.829 0 0 0 1.05 1.212 2.036 2.036 0 0 0 .833.143l.985.005 1.962.009 3.9.019 29.869.159c19.03.116 36.169.222 50.574.308l34.1.27 9.268.108 2.41.046c.545.015.823.04.823.04s-.278.023-.823.032l-2.41.023-9.27.023-34.1-.046-50.575-.159-29.868-.117-3.9-.017-1.964-.008h-.985a2.717 2.717 0 0 1-1.1-.2 2.515 2.515 0 0 1-1.454-1.674 3.964 3.964 0 0 1-.083-1.075v-1l.017-4q.014-4.013.032-8.081l.016-4.082a9.422 9.422 0 0 1 .035-1.075 2.459 2.459 0 0 1 .449-1.092 2.525 2.525 0 0 1 2.051-1.038l112.493.623 19.428.141 2.108.017a2.349 2.349 0 0 1 1.882.986 2.925 2.925 0 0 1 .432 1.976c-.005.638-.009 1.264-.015 1.876-.023 2.447-.042 4.685-.059 6.7-.05 4.008-.089 7.13-.114 9.276a2.195 2.195 0 0 1-1.419 1.865 1.6 1.6 0 0 1-.807.119z" class="cls-1" transform="translate(-221.146 -175.295)"/>
                        </g>
                    </g>
                    <g id="Group_57970" transform="translate(10.258 81.881)">
                        <path id="Rectangle_1248" d="M0 0H63.272V5.932H0z" class="cls-10" transform="rotate(.265 .013 5.838)"/>
                        <path id="Rectangle_1249" d="M0 0H63.272V5.932H0z" class="cls-12" transform="rotate(.265 .013 5.838)"/>
                    </g>
                    <g id="Group_57971" transform="translate(.729 115.388)">
                        <path id="Rectangle_1250" d="M0 0H34.588V6.347H0z" class="cls-10" transform="rotate(.264 .015 6.294)"/>
                        <path id="Rectangle_1251" d="M0 0H34.588V6.347H0z" class="cls-11" transform="rotate(.264 .015 6.294)"/>
                    </g>
                    <g id="Group_57973" transform="translate(.256 130.917)">
                        <g id="Group_57972">
                            <path id="Path_56437" d="M356.849 241.933a5.386 5.386 0 0 0 .8-.151 2.787 2.787 0 0 0 1.7-1.524 3.657 3.657 0 0 0 .233-1.705q0-.978-.008-2.136c0-1.549-.007-3.33-.011-5.333s0-4.238 0-6.676v-1.87a2.912 2.912 0 0 0-.393-1.775 2.634 2.634 0 0 0-1.462-1.133 8.262 8.262 0 0 0-2.031-.117l-19.362-.038-112.1-.416a2.473 2.473 0 0 0-2.455 2.165c-.04 1.279-.022 2.693-.035 4.027l-.036 8.052q-.006 2-.017 3.984a8.475 8.475 0 0 0 .085 1.878 2.485 2.485 0 0 0 .982 1.379 2.668 2.668 0 0 0 1.673.43l1.957.011 3.887.019 29.766.157 50.4.308 33.977.269 9.237.108 2.4.046c.542.015.819.04.819.04s-.277.023-.82.032l-2.4.023-9.237.024-33.978-.046-50.4-.159-29.764-.117-3.888-.016-1.957-.008a3.373 3.373 0 0 1-2.059-.549 3.181 3.181 0 0 1-1.26-1.769 8.625 8.625 0 0 1-.11-2.063l.015-3.984q.018-4 .034-8.054c.016-1.368-.011-2.667.039-4.1a3.173 3.173 0 0 1 3.154-2.783l112.1.62 19.361.141a8.4 8.4 0 0 1 2.141.148 3 3 0 0 1 1.661 1.3 3.289 3.289 0 0 1 .43 1.966l-.015 1.87c-.02 2.438-.042 4.668-.059 6.676s-.039 3.783-.055 5.333l-.024 2.136a3.776 3.776 0 0 1-.278 1.763 2.844 2.844 0 0 1-1.813 1.535 2.17 2.17 0 0 1-.824.082z" class="cls-1" transform="translate(-220.963 -218.36)"/>
                        </g>
                    </g>
                    <g id="Group_57974" transform="translate(.474 175.795)">
                        <path id="Rectangle_1252" d="M0 0H34.589V6.347H0z" class="cls-10" transform="rotate(.263 .015 6.318)"/>
                        <path id="Rectangle_1253" d="M0 0H34.589V6.347H0z" class="cls-11" transform="rotate(.263 .015 6.318)"/>
                    </g>
                    <g id="Group_57976" transform="translate(0 191.324)">
                        <g id="Group_57975">
                            <path id="Path_56438" d="M356.657 286.846a5.421 5.421 0 0 0 .8-.149 2.793 2.793 0 0 0 1.7-1.525 3.651 3.651 0 0 0 .231-1.7q0-.983-.007-2.137c0-1.549-.005-3.33-.009-5.332s0-4.239 0-6.678v-1.871a2.93 2.93 0 0 0-.393-1.774 2.653 2.653 0 0 0-1.462-1.134 8.415 8.415 0 0 0-2.034-.116l-19.36-.038-112.1-.416a2.472 2.472 0 0 0-2.456 2.165c-.04 1.279-.022 2.693-.035 4.027q-.016 4.053-.035 8.052l-.017 3.984a8.407 8.407 0 0 0 .083 1.878 2.485 2.485 0 0 0 .982 1.379 2.659 2.659 0 0 0 1.673.43l1.957.009 3.887.02 29.764.157 50.4.309 33.975.268 9.239.109c1.037.019 1.836.034 2.4.046.541.015.818.039.818.039s-.277.023-.818.032l-2.4.023-9.239.024c-8.048-.012-19.65-.027-33.978-.046l-50.4-.159-29.764-.116-3.888-.017-1.956-.008a3.379 3.379 0 0 1-2.06-.549 3.185 3.185 0 0 1-1.26-1.769 8.633 8.633 0 0 1-.11-2.065l.016-3.982.032-8.054c.016-1.369-.011-2.667.039-4.106a3.174 3.174 0 0 1 3.154-2.781l112.1.62 19.36.141a8.408 8.408 0 0 1 2.143.148 3.011 3.011 0 0 1 1.66 1.3 3.293 3.293 0 0 1 .432 1.966l-.016 1.87-.058 6.676c-.018 2.006-.039 3.783-.055 5.333l-.027 2.136a3.759 3.759 0 0 1-.278 1.763 2.837 2.837 0 0 1-1.81 1.535 2.222 2.222 0 0 1-.82.083z" class="cls-1" transform="translate(-220.773 -263.273)"/>
                        </g>
                    </g>
                    <g id="Group_57977" transform="translate(10.013 139.8)">
                        <path id="Rectangle_1254" d="M0 0H63.273V5.932H0z" class="cls-10" transform="rotate(.265 .013 5.838)"/>
                        <path id="Rectangle_1255" d="M0 0H63.273V5.932H0z" class="cls-12" transform="rotate(.265 .013 5.838)"/>
                    </g>
                    <g id="Group_57998" transform="translate(10.255 200.954)">
                        <g id="Group_57987">
                            <g id="Group_57978">
                                <path id="Path_56439" d="M233.93 273.4a2.772 2.772 0 1 1-2.753-2.963 2.862 2.862 0 0 1 2.753 2.963z" class="cls-10" transform="translate(-228.398 -270.434)"/>
                            </g>
                            <g id="Group_57979" transform="translate(8.572 .039)">
                                <path id="Path_56440" d="M240.3 273.427a2.772 2.772 0 1 1-2.753-2.964 2.861 2.861 0 0 1 2.753 2.964z" class="cls-10" transform="translate(-234.771 -270.463)"/>
                            </g>
                            <g id="Group_57980" transform="translate(17.143 .079)">
                                <path id="Path_56441" d="M246.676 273.456a2.772 2.772 0 1 1-2.755-2.963 2.86 2.86 0 0 1 2.755 2.963z" class="cls-10" transform="translate(-241.144 -270.493)"/>
                            </g>
                            <g id="Group_57981" transform="translate(25.715 .118)">
                                <path id="Path_56442" d="M253.048 273.485a2.771 2.771 0 1 1-2.752-2.963 2.86 2.86 0 0 1 2.752 2.963z" class="cls-10" transform="translate(-247.517 -270.522)"/>
                            </g>
                            <g id="Group_57982" transform="translate(34.285 .157)">
                                <path id="Path_56443" d="M259.421 273.514a2.772 2.772 0 1 1-2.752-2.963 2.858 2.858 0 0 1 2.752 2.963z" class="cls-10" transform="translate(-253.889 -270.551)"/>
                            </g>
                            <g id="Group_57983" transform="translate(42.856 .198)">
                                <path id="Path_56444" d="M265.794 273.544a2.772 2.772 0 1 1-2.753-2.963 2.857 2.857 0 0 1 2.753 2.963z" class="cls-10" transform="translate(-260.262 -270.581)"/>
                            </g>
                            <g id="Group_57984" transform="translate(51.428 .238)">
                                <path id="Path_56445" d="M272.168 273.573a2.772 2.772 0 1 1-2.755-2.962 2.865 2.865 0 0 1 2.755 2.962z" class="cls-10" transform="translate(-266.635 -270.611)"/>
                            </g>
                            <g id="Group_57985" transform="translate(59.999 .277)">
                                <path id="Path_56446" d="M278.54 273.6a2.772 2.772 0 1 1-2.753-2.962 2.862 2.862 0 0 1 2.753 2.962z" class="cls-10" transform="translate(-273.008 -270.64)"/>
                            </g>
                            <g id="Group_57986" transform="translate(68.57 .316)">
                                <path id="Path_56447" d="M284.913 273.633a2.772 2.772 0 1 1-2.753-2.964 2.861 2.861 0 0 1 2.753 2.964z" class="cls-10" transform="translate(-279.38 -270.669)"/>
                            </g>
                        </g>
                        <g id="Group_57997" class="cls-13">
                            <g id="Group_57988">
                                <path id="Path_56448" d="M233.93 273.4a2.772 2.772 0 1 1-2.753-2.963 2.862 2.862 0 0 1 2.753 2.963z" class="cls-10" transform="translate(-228.398 -270.434)"/>
                            </g>
                            <g id="Group_57989" transform="translate(8.572 .039)">
                                <path id="Path_56449" d="M240.3 273.427a2.772 2.772 0 1 1-2.753-2.964 2.861 2.861 0 0 1 2.753 2.964z" class="cls-10" transform="translate(-234.771 -270.463)"/>
                            </g>
                            <g id="Group_57990" transform="translate(17.143 .079)">
                                <path id="Path_56450" d="M246.676 273.456a2.772 2.772 0 1 1-2.755-2.963 2.86 2.86 0 0 1 2.755 2.963z" class="cls-10" transform="translate(-241.144 -270.493)"/>
                            </g>
                            <g id="Group_57991" transform="translate(25.715 .118)">
                                <path id="Path_56451" d="M253.048 273.485a2.771 2.771 0 1 1-2.752-2.963 2.86 2.86 0 0 1 2.752 2.963z" class="cls-10" transform="translate(-247.517 -270.522)"/>
                            </g>
                            <g id="Group_57992" transform="translate(34.285 .157)">
                                <path id="Path_56452" d="M259.421 273.514a2.772 2.772 0 1 1-2.752-2.963 2.858 2.858 0 0 1 2.752 2.963z" class="cls-10" transform="translate(-253.889 -270.551)"/>
                            </g>
                            <g id="Group_57993" transform="translate(42.856 .198)">
                                <path id="Path_56453" d="M265.794 273.544a2.772 2.772 0 1 1-2.753-2.963 2.857 2.857 0 0 1 2.753 2.963z" class="cls-10" transform="translate(-260.262 -270.581)"/>
                            </g>
                            <g id="Group_57994" transform="translate(51.428 .238)">
                                <path id="Path_56454" d="M272.168 273.573a2.772 2.772 0 1 1-2.755-2.962 2.865 2.865 0 0 1 2.755 2.962z" class="cls-10" transform="translate(-266.635 -270.611)"/>
                            </g>
                            <g id="Group_57995" transform="translate(59.999 .277)">
                                <path id="Path_56455" d="M278.54 273.6a2.772 2.772 0 1 1-2.753-2.962 2.862 2.862 0 0 1 2.753 2.962z" class="cls-10" transform="translate(-273.008 -270.64)"/>
                            </g>
                            <g id="Group_57996" transform="translate(68.57 .316)">
                                <path id="Path_56456" d="M284.913 273.633a2.772 2.772 0 1 1-2.753-2.964 2.861 2.861 0 0 1 2.753 2.964z" class="cls-10" transform="translate(-279.38 -270.669)"/>
                            </g>
                        </g>
                    </g>
                </g>
            </g>
        </g>
        <g id="Speech_Bubble" transform="translate(116.414 215.109)">
            <g id="Group_58009">
                <g id="Group_58005">
                    <g id="Group_58004">
                        <path id="Path_56459" d="M131.342 168.68a3.66 3.66 0 0 1-.624.07l-1.831.134a20.341 20.341 0 0 0-2.951.394c-.577.116-1.215.163-1.865.355s-1.349.375-2.085.578a34.348 34.348 0 0 0-9.918 4.92 35.15 35.15 0 0 0-9.759 10.862 37.078 37.078 0 0 0-3.42 7.812 39.371 39.371 0 0 0-1.4 13.992c.044.824.222 1.644.327 2.476a17.53 17.53 0 0 0 .472 2.49 35.5 35.5 0 0 0 20.148 24.648 31.915 31.915 0 0 0 11.552 2.594 31.206 31.206 0 0 0 12.058-1.736l1.182-.433.156-.058.141.071 16.964 8.612-.5.43-5.252-16.3-.065-.2.149-.151a36.215 36.215 0 0 0 8.906-14.807 37.206 37.206 0 0 0 1.291-15.764A36.279 36.279 0 0 0 152.9 176.93a37.265 37.265 0 0 0-8.333-5.3 36.581 36.581 0 0 0-7.038-2.218l-2.639-.449-1.946-.136-1.193-.091a2.01 2.01 0 0 1-.4-.052 2.214 2.214 0 0 1 .406-.008l1.2.034 1.96.079 2.663.4a35.815 35.815 0 0 1 7.131 2.137 37.226 37.226 0 0 1 8.479 5.282 36.555 36.555 0 0 1 7.828 9.45 36.96 36.96 0 0 1 4.592 13.54 37.747 37.747 0 0 1-1.256 16.032 36.807 36.807 0 0 1-9.037 15.107l.085-.352 5.276 16.294.266.822-.771-.391-16.968-8.6.3.015-1.208.444a31.92 31.92 0 0 1-12.328 1.771 32.642 32.642 0 0 1-11.8-2.663A36.09 36.09 0 0 1 97.66 212.9a17.953 17.953 0 0 1-.471-2.535c-.1-.846-.282-1.679-.323-2.518a39.77 39.77 0 0 1 1.485-14.208 37.39 37.39 0 0 1 3.514-7.91 35.329 35.329 0 0 1 9.966-10.932 34.129 34.129 0 0 1 10.074-4.861l2.11-.55c.658-.183 1.3-.219 1.884-.325a19.15 19.15 0 0 1 2.975-.327l1.841-.062a4.07 4.07 0 0 1 .627.008z" class="cls-6" transform="translate(-96.733 -168.669)"/>
                    </g>
                </g>
                <g id="Group_58008" transform="translate(21.305 18.891)">
                    <g id="Group_58006">
                        <path id="Path_56460" d="M133.548 195.238h-2.486l-5.424-7.56v-4.962s-3.843-.235-3.391 6.261-.036 4.843-.036 4.843-8.159.031-8.837.74c-.492.515-.716 8.619-.8 13.013a4.759 4.759 0 0 0 3.372 4.793 3.591 3.591 0 0 0 .877.118c2.035 0 12.432-1.654 12.432-1.654h4.293z" class="cls-6" transform="translate(-112.573 -182.715)"/>
                    </g>
                    <g id="Group_58007" transform="translate(22.304 11.161)">
                        <path id="Path_56461" d="M134.942 191.013l-1.529 17h-4.257v-16.658z" class="cls-6" transform="translate(-129.157 -191.013)"/>
                    </g>
                </g>
            </g>
        </g>
        <g id="Character" transform="translate(151.02 223.116)">
            <g id="Group_58079">
                <g id="Group_58078">
                    <g id="Group_58023" transform="translate(44.693 356.5)">
                        <g id="Group_58010">
                            <path id="Path_56462" d="M176.483 451.328v-11.506l-20.62-.138-.171 17.384 1.279.1c5.688.369 28.944.9 32.756-.277 4.25-1.321-13.244-5.563-13.244-5.563z" class="cls-6" transform="translate(-155.692 -439.683)"/>
                        </g>
                        <g id="Group_58012" transform="translate(.07 15.774)">
                            <g id="Group_58011">
                                <path id="Path_56463" d="M190.2 451.759c0 .2-7.713.351-17.225.351s-17.226-.156-17.226-.351 7.712-.348 17.226-.348 17.225.156 17.225.348z" class="cls-5" transform="translate(-155.744 -451.411)"/>
                            </g>
                        </g>
                        <g id="Group_58014" transform="translate(21.084 11.881)">
                            <g id="Group_58013">
                                <path id="Path_56464" d="M171.437 450.629c-.169-.089-.023-.7.42-1.3s.98-.921 1.115-.785-.144.644-.551 1.2-.811.977-.984.885z" class="cls-5" transform="translate(-171.368 -448.517)"/>
                            </g>
                        </g>
                        <g id="Group_58016" transform="translate(22.382 12.235)">
                            <g id="Group_58015">
                                <path id="Path_56465" d="M172.419 451.3c-.178-.067-.086-.749.32-1.466s.939-1.15 1.089-1.032-.1.707-.48 1.376-.748 1.19-.929 1.122z" class="cls-5" transform="translate(-172.333 -448.78)"/>
                            </g>
                        </g>
                        <g id="Group_58018" transform="translate(.333 12.032)">
                            <g id="Group_58017">
                                <path id="Path_56466" d="M161.889 452.668c-.081.057-.387-.245-.834-.752a13.584 13.584 0 0 0-1.809-1.812 4.746 4.746 0 0 0-2.23-.975c-.628-.083-1.038.013-1.075-.087-.035-.075.348-.362 1.091-.408a4.1 4.1 0 0 1 2.642.915 7.511 7.511 0 0 1 1.781 2.075c.352.592.511.99.434 1.044z" class="cls-5" transform="translate(-155.939 -448.629)"/>
                            </g>
                        </g>
                        <g id="Group_58020" transform="translate(19.228 11.745)">
                            <g id="Group_58019">
                                <path id="Path_56467" d="M171.976 448.5c.1.163-.253.562-.842.777s-1.116.143-1.145-.047.387-.417.9-.609.985-.287 1.087-.121z" class="cls-5" transform="translate(-169.988 -448.416)"/>
                            </g>
                        </g>
                        <g id="Group_58022" transform="translate(18.429 10.385)">
                            <g id="Group_58021">
                                <path id="Path_56468" d="M171.858 447.737c.017.192-.531.359-1.228.367s-1.249-.14-1.236-.334.562-.356 1.227-.366 1.217.141 1.237.333z" class="cls-5" transform="translate(-169.394 -447.405)"/>
                            </g>
                        </g>
                    </g>
                    <g id="Group_58037" transform="translate(95.469 356.5)">
                        <g id="Group_58024">
                            <path id="Path_56469" d="M214.233 451.328v-11.506l-20.62-.138-.171 17.208 1.278.094c5.688.369 28.945 1.08 32.757-.1 4.252-1.316-13.244-5.558-13.244-5.558z" class="cls-6" transform="translate(-193.444 -439.683)"/>
                        </g>
                        <g id="Group_58026" transform="translate(.07 15.798)">
                            <g id="Group_58025">
                                <path id="Path_56470" d="M227.948 451.78c0 .192-7.713.351-17.225.351s-17.226-.159-17.226-.351 7.711-.351 17.226-.351 17.225.157 17.225.351z" class="cls-5" transform="translate(-193.496 -451.429)"/>
                            </g>
                        </g>
                        <g id="Group_58028" transform="translate(21.084 11.881)">
                            <g id="Group_58027">
                                <path id="Path_56471" d="M209.189 450.629c-.169-.089-.024-.7.42-1.3s.98-.921 1.115-.785-.144.644-.551 1.2-.812.977-.984.885z" class="cls-5" transform="translate(-209.12 -448.517)"/>
                            </g>
                        </g>
                        <g id="Group_58030" transform="translate(22.381 12.235)">
                            <g id="Group_58029">
                                <path id="Path_56472" d="M210.171 451.3c-.179-.067-.086-.749.32-1.466s.939-1.15 1.089-1.032-.1.707-.48 1.376-.746 1.19-.929 1.122z" class="cls-5" transform="translate(-210.084 -448.78)"/>
                            </g>
                        </g>
                        <g id="Group_58032" transform="translate(.333 12.032)">
                            <g id="Group_58031">
                                <path id="Path_56473" d="M199.64 452.668c-.079.057-.387-.245-.833-.752A13.583 13.583 0 0 0 197 450.1a4.745 4.745 0 0 0-2.231-.975c-.627-.083-1.038.013-1.073-.087-.036-.075.347-.362 1.089-.408a4.1 4.1 0 0 1 2.643.915 7.512 7.512 0 0 1 1.781 2.075c.35.596.509.994.431 1.048z" class="cls-5" transform="translate(-193.691 -448.629)"/>
                            </g>
                        </g>
                        <g id="Group_58034" transform="translate(19.228 11.745)">
                            <g id="Group_58033">
                                <path id="Path_56474" d="M209.728 448.5c.1.163-.253.562-.842.777s-1.116.143-1.145-.047.387-.417.9-.609.985-.287 1.087-.121z" class="cls-5" transform="translate(-207.74 -448.416)"/>
                            </g>
                        </g>
                        <g id="Group_58036" transform="translate(18.427 10.385)">
                            <g id="Group_58035">
                                <path id="Path_56475" d="M209.609 447.737c.019.192-.53.359-1.227.367s-1.249-.14-1.237-.334.564-.356 1.228-.366 1.217.141 1.236.333z" class="cls-5" transform="translate(-207.145 -447.405)"/>
                            </g>
                        </g>
                    </g>
                    <g id="Group_58038" transform="translate(0 8.529)">
                        <path id="Path_56476" d="M314.679 199.1c-.538-.554-1.86-.293-1.86-.293a7.14 7.14 0 0 0-.013-2.332c-.243-.76-1.939-.613-1.939-.613a7.888 7.888 0 0 1 .044-1.913.679.679 0 0 0-.394-.677 6.263 6.263 0 0 0-2.534-.461c-1.04-.742 3.162-6.617 4.721-8.5 1.539-1.857 1.28-3.346-.109-3.344-.947 0-5.852 5.649-7.349 7.545s-5.509 7.169-5.645 2.959-1.829-7.391-2.885-7.934-2.2.73-1.613 1.9a15.337 15.337 0 0 1 .941 4.14 10.08 10.08 0 0 1-.155 3.4 39.231 39.231 0 0 1-1.81 6.074l-.1-.058s-29.36 28.147-31.479 30.157c-1.9 1.808-40.049-2.139-47.692-2.95a52.947 52.947 0 0 0-7.863-.537c-3.315.145-3.906.616-7.223.66a163.155 163.155 0 0 0-24.928 2.191 20.644 20.644 0 0 0-16.222 14.07c-7.712 24.072-25.163 81.059-28.273 113.075a133.8 133.8 0 0 0-6.3 13.01c-2.161 5.884-1.635 6.085-.908 6.221 1.956.362 4.194-10.206 5.029-7.657s-4.239 12.608-2.18 12.9c2.685.383 4.824-10.721 5.076-11.649.242-.9 1.6-.6 1.326.229-.389 1.185-4.173 13.734-1.541 14.136 1.459.223 1.617-2.436 1.617-2.436s2.676-12 3.913-11.77c1.255.235-.078 7.334-.7 9.7-.612 2.335.25 3.575 1.509 2.987.858-.4 2.925-7.59 3.482-9.941s1.973-8.822 3.872-5.064 4.773 5.931 5.961 5.978a1.318 1.318 0 0 0 .66-2.4 15.342 15.342 0 0 1-2.6-3.357 10.071 10.071 0 0 1-1.294-3.15 34.91 34.91 0 0 1-.937-6.806l-.219-1.384c3.011-14.92 11.693-58.692 24.164-86.657l5.135 10.569 2.23 7.822-13.686 33.811 58.39-.769-8.7-33.542 10.576-34.976c11.447.256 40.843.682 45.783-1.527 6.16-2.752 38.035-42.932 38.035-42.932a75.994 75.994 0 0 0 5.957-5.17s1.899-1.535.73-2.735z" class="cls-14" transform="translate(-122.462 -180.964)"/>
                    </g>
                    <g id="Group_58052" transform="translate(20.693 50.521)">
                        <g id="Group_58039">
                            <path id="Path_56477" d="M156.064 285.085c1.689-5.782 10.394-34.372 10.394-34.372s4.272 23.31 3.149 26.117a49.417 49.417 0 0 1-3.67 6.936c-9.872 15.034-8.577 22.549-8.577 22.549L217 304.5c.145-8.34-4.791-27.731-5.824-30.82s2.393-13.229 2.393-13.229 6.738-6.845 6.477-10.367c-.526-7.1-1.174-9.389-1.174-9.389l36.288 1.337-1.144-24.632-52.162-5.22c-1.8 5.136-18.231 2.62-18.231 2.62-17.734.582-18.808 3.844-26.2 9.57s-19.572 54.9-19.572 54.9z" class="cls-6" transform="translate(-137.848 -212.185)"/>
                        </g>
                        <g id="Group_58041" transform="translate(32.215 64.914)">
                            <g id="Group_58040">
                                <path id="Path_56478" d="M183.071 262.62a12.807 12.807 0 0 1-3.143.159c-1.942-.012-4.624-.133-7.572-.428s-5.6-.714-7.508-1.089a12.738 12.738 0 0 1-3.048-.781 15.6 15.6 0 0 1 3.127.293c1.918.247 4.566.584 7.5.88s5.592.494 7.521.631a15.524 15.524 0 0 1 3.123.335z" class="cls-5" transform="translate(-161.8 -260.449)"/>
                            </g>
                        </g>
                        <g id="Group_58043" transform="translate(34.445 61.993)">
                            <g id="Group_58042">
                                <path id="Path_56479" d="M186.581 258.3a13.98 13.98 0 0 1-3.256 1.11 59.126 59.126 0 0 1-16.442 1.953 13.863 13.863 0 0 1-3.424-.317 20.923 20.923 0 0 1 3.423-.178c2.109-.066 5.017-.221 8.21-.6s6.055-.911 8.121-1.341a20.84 20.84 0 0 1 3.368-.627z" class="cls-5" transform="translate(-163.458 -258.277)"/>
                            </g>
                        </g>
                        <g id="Group_58045" transform="translate(72.634 39.389)">
                            <g id="Group_58044">
                                <path id="Path_56480" d="M196.846 241.471a12.9 12.9 0 0 1-.408 3.042c-.347 1.86-.892 4.416-1.579 7.219s-1.387 5.323-1.941 7.132a12.935 12.935 0 0 1-1.045 2.885 13.811 13.811 0 0 1 .568-3.014c.508-2.1 1.093-4.508 1.738-7.17l1.777-7.159a13.828 13.828 0 0 1 .89-2.935z" class="cls-5" transform="translate(-191.852 -241.471)"/>
                            </g>
                        </g>
                        <g id="Group_58047" transform="translate(.653 64.49)">
                            <g id="Group_58046">
                                <path id="Path_56481" d="M156.522 265.119c-.051.187-4.164-.772-9.186-2.141s-9.053-2.632-9-2.82 4.163.773 9.186 2.144 9.051 2.631 9 2.817z" class="cls-5" transform="translate(-138.334 -260.134)"/>
                            </g>
                        </g>
                        <g id="Group_58049" transform="translate(65.059 1.402)">
                            <g id="Group_58048">
                                <path id="Path_56482" d="M202.837 240.016a4.912 4.912 0 0 1-1.544-.008 15.685 15.685 0 0 1-4.1-.978 17.2 17.2 0 0 1-5.352-3.259 16.766 16.766 0 0 1-4.377-6.3 17.317 17.317 0 0 1-1.205-7.58 11.9 11.9 0 0 1 1.84-6 6.209 6.209 0 0 1 3.4-2.507 4.189 4.189 0 0 1 1.149-.153c.265.007.4.035.4.056 0 .067-.558.035-1.467.356a6.224 6.224 0 0 0-3.075 2.523c-1.831 2.878-2.342 8.133-.4 13.044a16.647 16.647 0 0 0 4.163 6.086 17.578 17.578 0 0 0 5.1 3.276 26.467 26.467 0 0 0 5.468 1.444z" class="cls-5" transform="translate(-186.219 -213.227)"/>
                            </g>
                        </g>
                        <g id="Group_58051" transform="translate(112.701 4.562)">
                            <g id="Group_58050">
                                <path id="Path_56483" d="M221.967 240.365c-.192 0-.339-5.549-.324-12.394s.18-12.394.374-12.394.339 5.549.325 12.4-.181 12.389-.375 12.388z" class="cls-5" transform="translate(-221.642 -215.577)"/>
                            </g>
                        </g>
                    </g>
                    <g id="Group_58059" transform="translate(29.213)">
                        <g id="Group_58053" transform="translate(35.11 4.911)">
                            <path id="Path_56484" d="M190.342 225.383c.147-3 .461-6.393.461-6.393s7.422-.818 7.872-8.485 0-25.347 0-25.347l-13.518-6.884-14.87 11.735 2.253 38.333 13.684.87a3.946 3.946 0 0 0 4.118-3.829z" class="cls-14" transform="translate(-170.287 -178.274)"/>
                        </g>
                        <g id="Group_58055" transform="translate(53.415 26.716)">
                            <g id="Group_58054">
                                <path id="Path_56485" fill="#eb996e" d="M186.984 198.848c.022.005.023.143-.117.33a1.052 1.052 0 0 1-.854.375c-.861-.04-1.691-.993-2-2.156a3.687 3.687 0 0 1-.038-1.7 1.46 1.46 0 0 1 .808-1.155.731.731 0 0 1 .57.013.651.651 0 0 1 .3.309c.1.229.023.367 0 .355s-.023-.126-.135-.27a.5.5 0 0 0-.639-.134 1.206 1.206 0 0 0-.553.96 3.6 3.6 0 0 0 .062 1.52c.269 1.041.991 1.894 1.634 1.97a.971.971 0 0 0 .724-.2c.154-.122.209-.231.238-.217z" transform="translate(-183.897 -194.486)"/>
                            </g>
                        </g>
                        <g id="Group_58056">
                            <path id="Path_56486" d="M212.29 182.279c-1.033-3.531-4.784-5.283-8.2-6.251-5.2-1.474-10.835-2.126-15.916-.256s-11.193 5.162-11.192 10.776c-3-.246-4.713 2.382-5.9 5.638a21.523 21.523 0 0 0-1.276 6.186l-.048-.016c-.386 7.348-2.433 17.471-7.2 22.9-2.631 3-6.418 5.075-7.952 8.811-1.333 3.248-.643 7.087-1.9 10.366-1.112 2.894-3.575 4.949-5.341 7.467-3.845 5.485-4.108 13.233-1.282 19.354a24.565 24.565 0 0 0 14.64 12.652 34.3 34.3 0 0 0 19.311.18 32.277 32.277 0 0 0 12.936-6.409 21.677 21.677 0 0 0 7.427-12.538c.948-5.494-.59-11.073-1.722-16.53-3.578-17.264-2.557-18.161 1.96-34.175.1-.282.164-.576.243-.866l.178-.633h-.009a9.873 9.873 0 0 0 .211-1.915 3.676 3.676 0 0 1-3.888-.841 4.066 4.066 0 0 1-.92-4.026 5.825 5.825 0 0 1 3.469-3.268c1.492-.628 3.1-.939 4.561-1.635 3.106-1.477 5.258-4.545 6.724-7.758 1.019-2.25 1.784-4.83 1.086-7.213z" class="cls-5" transform="translate(-144.183 -174.623)"/>
                        </g>
                        <g id="Group_58058" transform="translate(54.718 31.404)">
                            <g id="Group_58057">
                                <path id="Path_56487" fill="#e8505b" d="M187.181 197.972a6.113 6.113 0 0 1 .707 1.33c.4.849.936 2.047 1.531 3.424l.112.261-.284.024-1.369.118c-.939.061-1.722.173-2.631.163a.476.476 0 0 1-.347-.305.791.791 0 0 1-.022-.374c.04-.211.086-.367.128-.545l.237-.952a9.064 9.064 0 0 1 .566-1.863 8.918 8.918 0 0 1-.276 1.926l-.187.963c-.07.324-.187.811-.012.773.668-.03 1.623-.141 2.508-.206l1.369-.109-.172.285c-.576-1.384-1.064-2.6-1.4-3.481a6.1 6.1 0 0 1-.458-1.432z" transform="translate(-184.866 -197.972)"/>
                            </g>
                        </g>
                    </g>
                    <g id="Group_58077" transform="translate(37.316 142.832)">
                        <g id="Group_58060">
                            <path id="Path_56488" d="M153.1 282.637l59.636-1.818 25.934 101.329-4.777 116.232h-31.565l3.913-113.757-23.069-70.54 3.553 188.8-31.867.471-3.358-177.465c-.14-4.932-1.763-16.062-1.158-20.955z" class="cls-5" transform="translate(-150.207 -280.819)"/>
                        </g>
                        <g id="Group_58062" transform="translate(21.388 30.748)">
                            <g id="Group_58061">
                                <path id="Path_56489" d="M185.627 307.63a11.463 11.463 0 0 1-2.925-.173c-1.794-.211-4.262-.59-6.966-1.132s-5.126-1.15-6.862-1.65a11.425 11.425 0 0 1-2.765-.97c.052-.2 4.383.854 9.766 1.933s9.778 1.792 9.752 1.992z" class="cls-7" transform="translate(-166.109 -303.68)"/>
                            </g>
                        </g>
                        <g id="Group_58064" transform="translate(51.478 210.837)">
                            <g id="Group_58063">
                                <path id="Path_56490" d="M220.4 437.926c0 .2-7.147.351-15.96.351s-15.962-.156-15.962-.351 7.145-.348 15.962-.348 15.96.156 15.96.348z" class="cls-7" transform="translate(-188.481 -437.578)"/>
                            </g>
                        </g>
                        <g id="Group_58066" transform="translate(5.266 216.813)">
                            <g id="Group_58065">
                                <path id="Path_56491" d="M185.089 442.371c0 .194-6.932.351-15.483.351s-15.483-.157-15.483-.351 6.931-.35 15.483-.35 15.483.156 15.483.35z" class="cls-7" transform="translate(-154.122 -442.021)"/>
                            </g>
                        </g>
                        <g id="Group_58068" transform="translate(29.044 32.388)">
                            <g id="Group_58067">
                                <path id="Path_56492" d="M174.885 489.19c-.194 0-1.032-41.253-1.872-92.134-.841-50.9-1.365-92.154-1.171-92.157s1.032 41.244 1.872 92.144c.84 50.883 1.365 92.144 1.171 92.147z" class="cls-7" transform="translate(-171.801 -304.9)"/>
                            </g>
                        </g>
                        <g id="Group_58070" transform="translate(57.687 1.818)">
                            <g id="Group_58069">
                                <path id="Path_56493" d="M214.571 491.538a3.268 3.268 0 0 1-.015-.549l.03-1.611c.042-1.454.1-3.533.18-6.194l.79-22.771c.737-19.257 1.753-45.8 2.873-75.117l.032-.791.009.1c-7.068-28.3-13.457-53.883-18.087-72.431-2.273-9.239-4.114-16.725-5.4-21.939-.616-2.565-1.1-4.57-1.432-5.972l-.355-1.556a3.077 3.077 0 0 1-.1-.537 3.411 3.411 0 0 1 .167.519c.1.378.243.889.422 1.54l1.56 5.939 5.611 21.885c4.685 18.534 11.143 44.1 18.289 72.381l.013.048v.051c-.009.247-.022.519-.031.791-1.2 29.314-2.289 55.852-3.079 75.108l-1.013 22.761-.311 6.188c-.042.681-.074 1.213-.1 1.609a3.143 3.143 0 0 1-.053.548z" class="cls-7" transform="translate(-193.097 -282.171)"/>
                            </g>
                        </g>
                        <g id="Group_58072" transform="translate(54.54 101.739)">
                            <g id="Group_58071">
                                <path id="Path_56494" d="M205.09 356.511c.032.191-3.091.886-6.974 1.553-2.9.5-5.4.841-6.5.9v-.273c.363.1.558.176.55.226s-.217.063-.593.047l-.815-.036.814-.237c1.052-.308 3.527-.822 6.426-1.319 3.883-.664 7.058-1.052 7.092-.861z" class="cls-7" transform="translate(-190.758 -356.463)"/>
                            </g>
                        </g>
                        <g id="Group_58074" transform="translate(55.743 104.499)">
                            <g id="Group_58073">
                                <path id="Path_56495" d="M204.178 359.67c-.026.2-2.828-.02-6.278-.285s-6.251-.494-6.247-.69 2.83-.282 6.3-.009 6.247.797 6.225.984z" class="cls-7" transform="translate(-191.652 -358.515)"/>
                            </g>
                        </g>
                        <g id="Group_58075" transform="translate(2.624)">
                            <path id="Path_56496" d="M152.158 284.779c1.442 2.03 3.5 2.741 5.888 3.132a26.659 26.659 0 0 0 7.232-.136c15.393-1.708 31.705-3.284 46.781-6.956-19.514 1.093-40.122.725-59.636 1.818 0 0-.167 1.342-.206 1.666" opacity="0.2" transform="translate(-152.158 -280.819)"/>
                        </g>
                        <g id="Group_58076" class="cls-13" transform="translate(22.739 31.466)">
                            <path id="Path_56497" d="M167.114 304.214l10.994 42.679-.77-40.881z" transform="translate(-167.114 -304.214)"/>
                        </g>
                    </g>
                </g>
            </g>
        </g>
    </g>
</svg>
