<svg xmlns="http://www.w3.org/2000/svg" width="287.767" height="71" viewBox="0 0 287.767 71">
    <defs>
        <style>
            .cls-1{fill:#213861}
        </style>
    </defs>
    <g id="Group_55649" transform="translate(-457.946 -64)">
        <g id="PW_logo" transform="translate(457.946 71.605)">
            <path id="Path_13" d="M242.655 271.02l-3.921-5.058s-8.891 22.456-9.364 22.964c-.455.508.49-1.89.49-1.89l-1.978-.665-.893 1.523a.155.155 0 0 1-.245-.175l9.837-25.432V253.5l-5.548 5.321-4.043 10.169a9.646 9.646 0 0 0-3.4-.805 29.96 29.96 0 0 0-5.863.805l-8.327 20.478a14.36 14.36 0 0 0 3.5.928 4.869 4.869 0 0 0 3.973-2.765l3.641-9.994 3.2-.052-3.536 9.347s-1.278 4.358 1.068 5.268a5.6 5.6 0 0 0 5.321-.98s-.613 4.323 4.726 7.544a.643.643 0 0 0 .945-.315l10.519-26.429a.9.9 0 0 0-.102-1zm-17.625 1.085c-.228 2.538-3.238 3.868-3.115 2.713a18.133 18.133 0 0 1 1.505-3.868s1.838-1.4 1.61 1.156z" class="cls-1" transform="translate(-209.4 -253.5)"/>
            <path id="Path_14" d="M224.7 521.864s9.819-1.19 11.394 4.971l-8.629 6.354z" class="cls-1" transform="translate(-222.022 -474.817)"/>
        </g>
        <text id="PractWorks" fill="#213861" font-family="Caveat" font-size="56px" font-weight="700" letter-spacing="0.02em" transform="translate(498.714 118)">
            <tspan x="0" y="0">PractWorks</tspan>
        </text>
    </g>
</svg>
