<svg xmlns="http://www.w3.org/2000/svg" xmlns:xlink="http://www.w3.org/1999/xlink" width="687.923" height="689.822" viewBox="0 0 687.923 689.822">
    <defs>
        <linearGradient id="linear-gradient" x1="3.614" x2="-.159" y1="-3.257" y2="2.36" gradientUnits="objectBoundingBox">
            <stop offset="0" stop-color="#fdf53f"/>
            <stop offset="1" stop-color="#d93c65"/>
        </linearGradient>
        <linearGradient id="linear-gradient-2" x1="2.711" x2=".627" y1="-4.664" y2="1.782" xlink:href="#linear-gradient"/>
        <linearGradient id="linear-gradient-3" x1="7.173" x2="3.287" y1="-5.873" y2=".341" gradientUnits="objectBoundingBox">
            <stop offset="0" stop-color="#a737d5"/>
            <stop offset="1" stop-color="#ef497a"/>
        </linearGradient>
        <linearGradient id="linear-gradient-4" x1="8.221" x2="4.335" y1="-6.977" y2="-.764" xlink:href="#linear-gradient-3"/>
        <linearGradient id="linear-gradient-5" x1="9.156" x2="4.042" y1="-6.941" y2="-.262" xlink:href="#linear-gradient-3"/>
        <linearGradient id="linear-gradient-6" x1="10.317" x2="6.43" y1="-9.187" y2="-2.973" xlink:href="#linear-gradient-3"/>
        <linearGradient id="linear-gradient-7" x1="-2.509" x2="-7.471" y1="-3.677" y2="1.65" xlink:href="#linear-gradient-3"/>
        <linearGradient id="linear-gradient-8" x1="1.519" x2="-1.484" y1="-.775" y2="2.907" gradientUnits="objectBoundingBox">
            <stop offset="0" stop-color="#658bb1"/>
            <stop offset="1" stop-color="#150e42"/>
        </linearGradient>
        <linearGradient id="linear-gradient-9" x1="1.004" x2="-.074" y1="-2.464" y2="4.125" xlink:href="#linear-gradient-8"/>
        <linearGradient id="linear-gradient-10" x1="-20.07" x2="-19.051" y1=".5" y2=".5" gradientUnits="objectBoundingBox">
            <stop offset="0" stop-color="#090056"/>
            <stop offset="1" stop-color="#020039"/>
        </linearGradient>
        <linearGradient id="linear-gradient-11" x1="-.757" x2="1.326" y1="-8.611" y2="6.389" xlink:href="#linear-gradient-10"/>
        <linearGradient id="linear-gradient-12" x1="-50.677" x2="-49.677" y1=".5" y2=".5" xlink:href="#linear-gradient-10"/>
        <linearGradient id="linear-gradient-13" x1="-4.222" x2=".364" y1="-41.411" y2="-1.05" xlink:href="#linear-gradient-10"/>
        <linearGradient id="linear-gradient-14" x1="-77.341" x2="-76.341" y1=".5" y2=".5" gradientUnits="objectBoundingBox">
            <stop offset="0" stop-color="#febbba"/>
            <stop offset="1" stop-color="#ff928e"/>
        </linearGradient>
        <linearGradient id="linear-gradient-15" x1="-80.282" x2="-79.282" y1=".5" y2=".5" xlink:href="#linear-gradient-14"/>
        <linearGradient id="linear-gradient-16" x1="-109.638" x2="-115.375" y1="-3.524" y2="3.756" gradientUnits="objectBoundingBox">
            <stop offset="0" stop-color="#cb236d"/>
            <stop offset="1" stop-color="#4c246d"/>
        </linearGradient>
        <linearGradient id="linear-gradient-17" x1="-33.221" x2="-33.001" y1=".486" y2="-.519" xlink:href="#linear-gradient-14"/>
        <linearGradient id="linear-gradient-18" x1="-22.661" x2="-23.713" y1="-.379" y2=".372" xlink:href="#linear-gradient-14"/>
        <linearGradient id="linear-gradient-19" x1="-.098" x2="2.001" y1=".38" y2=".905" xlink:href="#linear-gradient-10"/>
        <linearGradient id="linear-gradient-20" x1="-96.555" x2="-100.876" y1="-3.424" y2="-.843" xlink:href="#linear-gradient-14"/>
        <linearGradient id="linear-gradient-21" x1=".031" x2="1.654" y1=".767" y2="-.248" xlink:href="#linear-gradient-14"/>
        <style>
            .cls-2{fill:#648bb0}.cls-3,.cls-4,.cls-8{fill:#fff}.cls-3,.cls-7{opacity:.6}.cls-4{opacity:.78}.cls-13{fill:#c5cdde}.cls-15,.cls-16{fill:#9cbbd9}.cls-16{opacity:.5}.cls-19{fill:#658bb1}.cls-20{fill:#41dda4}
        </style>
    </defs>
    <g id="Group_57541" transform="translate(-410.285 -398.344)">
        <path id="Path_55996" fill="none" d="M1094.734 1047.415c-125.748 132.7-318.9 93.443-347.455 87.134-35.969-7.948-121.546-26.857-185.408-101.515-97.771-114.3-87.9-292.936-12.39-413.37 21.97-35.043 95.909-139.184 234.76-161.827 8.115-1.324 153.106-22.582 269.766 75.3a319.466 319.466 0 0 1 63.371 71.9c69.027 107.963 101.695 311.163-22.644 442.378z" opacity="0.1" transform="translate(-80.408 -56.656)"/>
        <g id="Group_57555" transform="translate(655.19 474.359)">
            <path id="Path_55997" d="M1486.994 568.278a9.85 9.85 0 0 1 12.957-7.309c37.431 13.346 166.528 57.433 277.852 72.113a9.108 9.108 0 0 1 7.826 10.428l-64.764 415.515a10.481 10.481 0 0 1-11.908 8.755c-46.65-6.984-238.625-36.435-304.812-57.789a8.3 8.3 0 0 1-5.576-9.574z" class="cls-2" transform="translate(-1398.399 -560.393)"/>
            <path id="Path_55998" d="M1510.734 622.8a9.479 9.479 0 0 1 12.47-7.034c36.021 12.844 160.257 55.271 267.389 69.4a8.765 8.765 0 0 1 7.532 10.036l-62.325 399.87a10.087 10.087 0 0 1-11.46 8.425c-44.893-6.721-229.639-35.063-293.334-55.613a7.991 7.991 0 0 1-5.365-9.213z" class="cls-3" transform="translate(-1419.771 -603.666)"/>
            <path id="Path_55999" d="M1917.3 807.108a5.856 5.856 0 0 0-7.187 4.744l-13.93 85.608a5.507 5.507 0 0 0 4.147 6.244c15.608 3.752 64.281 15.257 92.209 19.639a6.151 6.151 0 0 0 6.927-4.617c3.878-15.788 14.783-61.82 15.237-81.929a6.942 6.942 0 0 0-5.284-6.885z" class="cls-4" transform="translate(-1791.25 -754.991)"/>
            <circle id="Ellipse_986" cx="18.625" cy="18.625" r="18.625" fill="url(#linear-gradient)" transform="rotate(-68.83 150.573 -48.975)"/>
            <path id="Path_56000" fill="url(#linear-gradient-2)" d="M1986.509 1178.457l58.061 12.237a4.594 4.594 0 0 0 5.236-6.135c-3.305-8.756-11.234-22.268-29.213-25.523-17.327-3.137-29.694 4.952-36.373 11.215a4.8 4.8 0 0 0 2.289 8.206z" transform="translate(-1859.59 -1032.357)"/>
            <g id="Group_57543" class="cls-7" transform="translate(246.271 84.048)">
                <path id="Path_56001" d="M2670.5 988.438a3.069 3.069 0 0 0 3.822-2.165 3.364 3.364 0 0 0-2.777-3.617L2570.159 959.4a2.2 2.2 0 0 0-2.852 2.594l.2 1.485a5.124 5.124 0 0 0 3.747 4.047z" class="cls-8" transform="translate(-2567.278 -959.311)"/>
            </g>
            <g id="Group_57544" class="cls-7" transform="translate(242.94 99.853)">
                <path id="Path_56002" d="M2554.35 1034.409a2.2 2.2 0 0 0-2.85 2.591l.2 1.485a5.124 5.124 0 0 0 3.747 4.047l99.248 20.917a3.07 3.07 0 0 0 3.823-2.165 3.364 3.364 0 0 0-2.777-3.617z" class="cls-8" transform="translate(-2551.468 -1034.325)"/>
            </g>
            <g id="Group_57545" class="cls-7" transform="translate(239.56 115.887)">
                <path id="Path_56003" d="M2538.31 1110.513a2.2 2.2 0 0 0-2.852 2.594l.2 1.485a5.123 5.123 0 0 0 3.747 4.047l99.248 20.917a3.07 3.07 0 0 0 3.823-2.165 3.364 3.364 0 0 0-2.777-3.617z" class="cls-8" transform="translate(-2535.428 -1110.429)"/>
            </g>
            <g id="Group_57546" class="cls-7" transform="translate(97.066 166.419)">
                <path id="Path_56004" d="M2098.407 1408.276a2.938 2.938 0 0 0 3.718-2.187 3.477 3.477 0 0 0-2.889-3.606l-238.016-52.126c-1.815-.4-2.619.636-1.786 2.3l1.432 2.857a7.956 7.956 0 0 0 4.82 3.717z" class="cls-8" transform="translate(-1859.105 -1350.271)"/>
            </g>
            <g id="Group_57547" class="cls-7" transform="translate(93.735 182.224)">
                <path id="Path_56005" d="M1845.411 1425.37c-1.815-.4-2.619.636-1.786 2.3l1.432 2.857a7.956 7.956 0 0 0 4.821 3.717l232.72 49.048a2.939 2.939 0 0 0 3.718-2.187 3.477 3.477 0 0 0-2.889-3.606z" class="cls-8" transform="translate(-1843.296 -1425.285)"/>
            </g>
            <path id="Path_56006" d="M1796.282 1549.732c5.825.769 16.6 2.828 22.529 3.99a5.474 5.474 0 0 1 4.424 5.21 89.209 89.209 0 0 1-2.044 22.166 4.86 4.86 0 0 1-5.78 3.645l-21.757-4.831a5.351 5.351 0 0 1-4.156-5.836l2.406-20.918a3.9 3.9 0 0 1 4.378-3.426z" class="cls-3" transform="translate(-1707.069 -1341.262)"/>
            <g id="Group_57548" class="cls-7" transform="translate(124.071 225.291)">
                <path id="Path_56007" d="M1990.973 1629.8a2.689 2.689 0 0 0-3.472 2.539l-.213 3.627a4.059 4.059 0 0 0 3.108 4.07l52.959 11.161a3.338 3.338 0 0 0 3.962-2.618l.177-.9a3.618 3.618 0 0 0-2.619-4.149z" class="cls-8" transform="translate(-1987.282 -1629.697)"/>
            </g>
            <path id="Path_56008" d="M2360.126 1668.566c5.825.769 16.6 2.828 22.529 3.991a5.473 5.473 0 0 1 4.424 5.21 89.208 89.208 0 0 1-2.044 22.165 4.859 4.859 0 0 1-5.78 3.645l-21.757-4.83a5.352 5.352 0 0 1-4.156-5.836l2.406-20.918a3.9 3.9 0 0 1 4.378-3.427z" class="cls-3" transform="translate(-2152.117 -1435.059)"/>
            <g id="Group_57549" class="cls-7" transform="translate(242.868 250.328)">
                <path id="Path_56009" d="M2554.817 1748.632a2.689 2.689 0 0 0-3.472 2.539l-.213 3.628a4.059 4.059 0 0 0 3.108 4.07l52.959 11.162a3.338 3.338 0 0 0 3.962-2.618l.177-.9a3.618 3.618 0 0 0-2.618-4.149z" class="cls-8" transform="translate(-2551.126 -1748.531)"/>
            </g>
            <g id="Group_57554" transform="translate(50.847 262.019)">
                <path id="Path_56010" d="M1793.866 1850.959l-.055-.012-20.081-4.434a5.528 5.528 0 0 1-4.55-5.764l1.789-17.255a3.749 3.749 0 0 1 1.448-2.576 4.515 4.515 0 0 1 3.4-.87c1.719.242 4.15.541 6.722.859 5.417.668 12.16 1.5 15.9 2.239a5.747 5.747 0 0 1 4.8 5.129c.232 4.1-1.407 11.413-3.253 19.187a5.082 5.082 0 0 1-6.12 3.497zm-18.27-29.347a2.924 2.924 0 0 0-2.206.55 2.18 2.18 0 0 0-.85 1.495l-1.79 17.255a3.956 3.956 0 0 0 3.321 4.06l20.081 4.434.04.008a3.5 3.5 0 0 0 4.257-2.319c1.818-7.655 3.432-14.848 3.213-18.733a4.243 4.243 0 0 0-3.533-3.668c-3.681-.728-10.391-1.556-15.783-2.221-2.58-.318-5.017-.619-6.749-.862z" class="cls-8" transform="translate(-1741.887 -1816.635)"/>
                <path id="Path_56011" d="M1791.012 1837.962c4.288.6 13.672 1.605 18.041 2.47a3.981 3.981 0 0 1 3.331 3.515c.186 3.287-1.232 9.461-2.583 15.151a3.421 3.421 0 0 1-4.184 2.316l-16.047-3.543a3.8 3.8 0 0 1-3.145-3.925l1.43-13.789a2.669 2.669 0 0 1 3.157-2.195z" class="cls-3" transform="translate(-1755.505 -1830.786)"/>
                <g id="Group_57550" class="cls-7" transform="translate(72.009 21.475)">
                    <path id="Path_56012" d="M1981.518 1911.313a5.106 5.106 0 0 0 4.089 4.749l186.508 37.65a3.861 3.861 0 0 0 1.577-7.559l-186-40.088a5.106 5.106 0 0 0-6.174 5.248z" class="cls-8" transform="translate(-1981.512 -1905.948)"/>
                </g>
                <path id="Path_56013" fill="url(#linear-gradient-3)" d="M1801.24 1814.024a3.156 3.156 0 0 1 4.016 2.057l2.469 7.951a1.014 1.014 0 0 0 1.787.3l14.463-19.841a1.123 1.123 0 0 1 2 .917 44.218 44.218 0 0 1-18.936 27.458s-5.419-3.538-7.973-14.978a3.311 3.311 0 0 1 2.174-3.864z" transform="translate(-1765.434 -1804.02)"/>
                <path id="Path_56014" d="M1750.726 2055.648l-.055-.012-20.081-4.434a5.528 5.528 0 0 1-4.551-5.764l1.79-17.256a3.748 3.748 0 0 1 1.448-2.576 4.516 4.516 0 0 1 3.4-.87c1.719.242 4.15.541 6.722.859 5.417.668 12.16 1.5 15.9 2.239l.081.016a5.735 5.735 0 0 1 4.723 5.113c.231 4.1-1.407 11.413-3.254 19.186a5.082 5.082 0 0 1-6.123 3.499zm-18.269-29.348a2.925 2.925 0 0 0-2.206.55 2.182 2.182 0 0 0-.851 1.5l-1.789 17.255a3.956 3.956 0 0 0 3.321 4.06l20.081 4.434.04.008a3.5 3.5 0 0 0 4.257-2.318c1.818-7.656 3.432-14.848 3.213-18.733a4.221 4.221 0 0 0-3.534-3.668c-3.681-.728-10.391-1.556-15.783-2.221-2.58-.318-5.016-.619-6.749-.862z" class="cls-8" transform="translate(-1707.836 -1978.197)"/>
                <path id="Path_56015" d="M1747.872 2042.651c4.288.6 13.672 1.605 18.041 2.469a3.981 3.981 0 0 1 3.331 3.515c.186 3.287-1.232 9.461-2.584 15.151a3.421 3.421 0 0 1-4.184 2.317l-16.047-3.543a3.8 3.8 0 0 1-3.145-3.925l1.43-13.789a2.669 2.669 0 0 1 3.158-2.195z" class="cls-3" transform="translate(-1721.454 -1992.349)"/>
                <g id="Group_57551" class="cls-7" transform="translate(62.92 64.601)">
                    <path id="Path_56016" d="M1938.378 2116a5.106 5.106 0 0 0 4.089 4.749l186.509 37.65a3.861 3.861 0 0 0 1.577-7.559l-186-40.088a5.106 5.106 0 0 0-6.175 5.248z" class="cls-8" transform="translate(-1938.371 -2110.637)"/>
                </g>
                <path id="Path_56017" fill="url(#linear-gradient-4)" d="M1758.1 2018.713a3.156 3.156 0 0 1 4.016 2.057l2.469 7.951a1.013 1.013 0 0 0 1.787.3l14.463-19.841a1.123 1.123 0 0 1 2 .917 44.218 44.218 0 0 1-18.936 27.458s-5.419-3.538-7.973-14.978a3.311 3.311 0 0 1 2.174-3.864z" transform="translate(-1731.384 -1965.583)"/>
                <path id="Path_56018" d="M1707.587 2260.336l-.055-.012-20.081-4.434a5.525 5.525 0 0 1-4.551-5.763l1.789-17.256a3.749 3.749 0 0 1 1.448-2.577 4.513 4.513 0 0 1 3.4-.871c1.72.242 4.15.541 6.723.859 5.417.668 12.16 1.5 15.9 2.239l.081.016a5.735 5.735 0 0 1 4.723 5.112c.232 4.1-1.407 11.413-3.253 19.187a5.081 5.081 0 0 1-6.124 3.5zm-18.27-29.348a2.927 2.927 0 0 0-2.206.55 2.184 2.184 0 0 0-.851 1.5l-1.79 17.255a3.954 3.954 0 0 0 3.321 4.059l20.081 4.434.04.008a3.5 3.5 0 0 0 4.257-2.318c1.818-7.656 3.432-14.848 3.213-18.733a4.213 4.213 0 0 0-3.534-3.667c-3.68-.728-10.391-1.556-15.783-2.221-2.579-.318-5.016-.619-6.749-.862z" class="cls-8" transform="translate(-1673.785 -2139.76)"/>
                <path id="Path_56019" d="M1704.732 2247.34c4.288.6 13.672 1.6 18.041 2.469a3.981 3.981 0 0 1 3.331 3.515c.186 3.287-1.232 9.462-2.584 15.151a3.421 3.421 0 0 1-4.184 2.317l-16.047-3.543a3.8 3.8 0 0 1-3.145-3.925l1.43-13.789a2.669 2.669 0 0 1 3.158-2.195z" class="cls-3" transform="translate(-1687.403 -2153.912)"/>
                <g id="Group_57552" class="cls-7" transform="translate(53.831 107.727)">
                    <path id="Path_56020" d="M1895.239 2320.691a5.105 5.105 0 0 0 4.089 4.749l186.509 37.65a3.861 3.861 0 0 0 1.577-7.559l-186-40.088a5.106 5.106 0 0 0-6.175 5.248z" class="cls-8" transform="translate(-1895.232 -2315.326)"/>
                </g>
                <path id="Path_56021" fill="url(#linear-gradient-5)" d="M1714.961 2223.4a3.156 3.156 0 0 1 4.016 2.057l2.469 7.951a1.013 1.013 0 0 0 1.787.3l14.463-19.841a1.123 1.123 0 0 1 2 .917 44.218 44.218 0 0 1-18.937 27.459s-5.419-3.539-7.972-14.979a3.311 3.311 0 0 1 2.174-3.864z" transform="translate(-1697.333 -2127.146)"/>
                <path id="Path_56022" d="M1664.447 2465.025l-.055-.012-20.081-4.434a5.526 5.526 0 0 1-4.551-5.763l1.789-17.255a3.751 3.751 0 0 1 1.448-2.577 4.515 4.515 0 0 1 3.4-.871c1.719.242 4.15.541 6.722.859 5.417.668 12.16 1.5 15.9 2.239l.081.017a5.734 5.734 0 0 1 4.723 5.112c.232 4.1-1.407 11.413-3.253 19.187a5.082 5.082 0 0 1-6.123 3.498zm-18.27-29.348a2.923 2.923 0 0 0-2.206.55 2.18 2.18 0 0 0-.851 1.5l-1.79 17.256a3.954 3.954 0 0 0 3.32 4.058l20.081 4.434.04.009a3.5 3.5 0 0 0 4.257-2.319c1.818-7.655 3.432-14.848 3.213-18.732a4.207 4.207 0 0 0-3.534-3.668c-3.68-.728-10.391-1.556-15.783-2.221-2.58-.318-5.017-.619-6.749-.862z" class="cls-8" transform="translate(-1639.734 -2301.323)"/>
                <path id="Path_56023" d="M1661.593 2452.028c4.288.6 13.672 1.605 18.041 2.469a3.981 3.981 0 0 1 3.331 3.515c.186 3.286-1.232 9.461-2.583 15.151a3.421 3.421 0 0 1-4.184 2.317l-16.047-3.543a3.8 3.8 0 0 1-3.145-3.925l1.43-13.789a2.669 2.669 0 0 1 3.157-2.195z" class="cls-3" transform="translate(-1653.353 -2315.475)"/>
                <g id="Group_57553" class="cls-7" transform="translate(44.742 150.853)">
                    <path id="Path_56024" d="M1852.1 2525.379a5.106 5.106 0 0 0 4.089 4.749l186.508 37.65a3.861 3.861 0 0 0 1.577-7.559l-186-40.088a5.106 5.106 0 0 0-6.174 5.248z" class="cls-8" transform="translate(-1852.093 -2520.015)"/>
                </g>
                <path id="Path_56025" fill="url(#linear-gradient-6)" d="M1671.821 2428.091a3.156 3.156 0 0 1 4.016 2.056l2.469 7.951a1.013 1.013 0 0 0 1.787.3l14.463-19.841a1.123 1.123 0 0 1 2 .917 44.219 44.219 0 0 1-18.936 27.458s-5.419-3.539-7.973-14.979a3.31 3.31 0 0 1 2.174-3.862z" transform="translate(-1663.282 -2288.709)"/>
            </g>
        </g>
        <g id="Group_57568" transform="translate(462.987 482.01)">
            <path id="Path_56026" d="M486.353 652.991a9.85 9.85 0 0 1 8.993-11.851C535 638.535 670.991 627.767 779 597.06a9.108 9.108 0 0 1 11.322 6.466l105.457 407.094a10.481 10.481 0 0 1-7.456 12.762c-45.591 12.1-233.488 61.259-302.714 67.927a8.3 8.3 0 0 1-8.917-6.575z" class="cls-2" transform="translate(-486.141 -596.709)"/>
            <path id="Path_56027" d="M517.9 705.5a9.479 9.479 0 0 1 8.654-11.4c38.16-2.507 169.031-12.869 272.971-42.42a8.765 8.765 0 0 1 10.9 6.222l101.488 391.764a10.087 10.087 0 0 1-7.175 12.281c-43.874 11.648-224.7 58.952-291.316 65.369a7.991 7.991 0 0 1-8.581-6.327z" class="cls-3" transform="translate(-511.047 -639.825)"/>
            <path id="Path_56028" d="M710.6 934.286l21.189 84.106a5.507 5.507 0 0 0 6.284 4.085c15.815-2.75 65.057-11.508 92.431-18.569a6.151 6.151 0 0 0 4.526-6.987c-2.707-16.03-10.965-62.61-18.529-81.248a6.942 6.942 0 0 0-7.582-4.222l-93.6 15.627a5.856 5.856 0 0 0-4.719 7.208z" class="cls-4" transform="translate(-663.17 -845.063)"/>
            <circle id="Ellipse_987" cx="18.625" cy="18.625" r="18.625" class="cls-13" transform="rotate(-86.1 111.037 16.321)"/>
            <path id="Path_56029" d="M892.86 1272.465l58.15-11.811a4.594 4.594 0 0 0 2.372-7.709c-6.509-6.726-19.149-15.981-36.943-11.833-17.149 4-25.29 16.33-28.936 24.729a4.8 4.8 0 0 0 5.357 6.624z" class="cls-13" transform="translate(-802.619 -1104.529)"/>
            <g id="Group_57556" class="cls-7" transform="translate(175.832 43.597)">
                <path id="Path_56030" d="M1426.333 809.422a3.069 3.069 0 0 0 2.65-3.5A3.364 3.364 0 0 0 1425 803.7l-102.29 18.885a2.2 2.2 0 0 0-1.588 3.513l.769 1.286a5.123 5.123 0 0 0 5.045 2.227z" class="cls-8" transform="translate(-1320.697 -803.634)"/>
            </g>
            <g id="Group_57557" class="cls-7" transform="translate(179.047 59.426)">
                <path id="Path_56031" d="M1337.967 897.713a2.2 2.2 0 0 0-1.588 3.513l.769 1.286a5.123 5.123 0 0 0 5.045 2.227l99.4-20.189a3.069 3.069 0 0 0 2.649-3.5 3.364 3.364 0 0 0-3.984-2.218z" class="cls-8" transform="translate(-1335.956 -878.763)"/>
            </g>
            <g id="Group_57558" class="cls-7" transform="translate(182.309 75.484)">
                <path id="Path_56032" d="M1353.448 973.932a2.2 2.2 0 0 0-1.588 3.513l.769 1.286a5.124 5.124 0 0 0 5.046 2.227l99.4-20.189a3.07 3.07 0 0 0 2.649-3.5 3.364 3.364 0 0 0-3.984-2.218z" class="cls-8" transform="translate(-1351.437 -954.982)"/>
            </g>
            <g id="Group_57559" class="cls-7" transform="translate(71.266 150.985)">
                <path id="Path_56033" d="M1066.7 1319.052a2.938 2.938 0 0 0 2.545-3.483 3.477 3.477 0 0 0-4.083-2.164L826 1360.021c-1.824.355-2.151 1.624-.728 2.818l2.449 2.054a7.957 7.957 0 0 0 5.9 1.5z" class="cls-8" transform="translate(-824.39 -1313.332)"/>
            </g>
            <g id="Group_57560" class="cls-7" transform="translate(74.481 166.814)">
                <path id="Path_56034" d="M841.263 1435.149c-1.824.355-2.152 1.623-.728 2.818l2.449 2.054a7.956 7.956 0 0 0 5.9 1.5l233.074-47.339a2.939 2.939 0 0 0 2.545-3.483 3.478 3.478 0 0 0-4.083-2.164z" class="cls-8" transform="translate(-839.649 -1388.46)"/>
            </g>
            <path id="Path_56035" d="M857.08 1716.286c5.652-1.606 16.361-3.994 22.263-5.278a5.473 5.473 0 0 1 6.128 3.026 89.2 89.2 0 0 1 6.921 21.156 4.86 4.86 0 0 1-3.859 5.639l-21.887 4.2a5.351 5.351 0 0 1-6.131-3.707l-6.093-20.155a3.9 3.9 0 0 1 2.658-4.881z" class="cls-3" transform="translate(-776.695 -1476.137)"/>
            <g id="Group_57561" class="cls-7" transform="translate(120.111 231.554)">
                <path id="Path_56036" d="M1058.6 1704.566a2.689 2.689 0 0 0-2.18 3.708l1.244 3.414a4.06 4.06 0 0 0 4.468 2.5l53.04-10.773a3.338 3.338 0 0 0 2.6-3.975l-.193-.894a3.619 3.619 0 0 0-4.05-2.769z" class="cls-8" transform="translate(-1056.226 -1695.736)"/>
            </g>
            <path id="Path_56037" d="M1421.78 1601.59c5.652-1.606 16.361-3.993 22.262-5.278a5.473 5.473 0 0 1 6.128 3.026 89.2 89.2 0 0 1 6.921 21.156 4.859 4.859 0 0 1-3.859 5.639l-21.887 4.2a5.352 5.352 0 0 1-6.131-3.707l-6.093-20.155a3.9 3.9 0 0 1 2.659-4.881z" class="cls-3" transform="translate(-1222.419 -1385.606)"/>
            <g id="Group_57562" class="cls-7" transform="translate(239.087 207.389)">
                <path id="Path_56038" d="M1623.3 1589.87a2.689 2.689 0 0 0-2.18 3.708l1.244 3.414a4.059 4.059 0 0 0 4.468 2.5l53.04-10.773a3.338 3.338 0 0 0 2.6-3.975l-.193-.894a3.618 3.618 0 0 0-4.05-2.769z" class="cls-8" transform="translate(-1620.926 -1581.042)"/>
            </g>
            <g id="Group_57567" transform="translate(95.668 256.218)">
                <path id="Path_56039" d="M972.3 1990.746l-.055.011-20.191 3.9a5.528 5.528 0 0 1-6.464-3.485l-5.206-16.549a3.748 3.748 0 0 1 .307-2.939 4.516 4.516 0 0 1 2.774-2.148c1.674-.46 4.024-1.15 6.511-1.88 5.238-1.536 11.757-3.448 15.479-4.253a5.747 5.747 0 0 1 6.445 2.8c1.838 3.668 3.238 11.034 4.628 18.9a5.082 5.082 0 0 1-4.228 5.643zm-28.416-19.687a2.924 2.924 0 0 0-1.807 1.38 2.181 2.181 0 0 0-.187 1.71l5.206 16.549a3.956 3.956 0 0 0 4.659 2.408l20.191-3.9.04-.008a3.5 3.5 0 0 0 2.987-3.817c-1.369-7.749-2.742-14.991-4.485-18.47a4.243 4.243 0 0 0-4.7-1.964c-3.667.793-10.155 2.7-15.368 4.225-2.494.732-4.85 1.422-6.537 1.887z" class="cls-8" transform="translate(-940.211 -1931.561)"/>
                <path id="Path_56040" d="M961.606 1987.753c4.175-1.149 13.187-3.952 17.539-4.893a3.981 3.981 0 0 1 4.453 1.9c1.475 2.943 2.624 9.173 3.641 14.932a3.421 3.421 0 0 1-2.921 3.787l-16.136 3.116a3.8 3.8 0 0 1-4.444-2.354l-4.16-13.224a2.669 2.669 0 0 1 2.028-3.264z" class="cls-3" transform="translate(-955.414 -1946.95)"/>
                <g id="Group_57563" class="cls-7" transform="translate(46.976)">
                    <path id="Path_56041" d="M1163.705 1857.166a5.106 5.106 0 0 0 5.638 2.736l186.134-39.461a3.861 3.861 0 0 0-1.552-7.564l-186.634 37.023a5.106 5.106 0 0 0-3.586 7.266z" class="cls-8" transform="translate(-1163.175 -1812.803)"/>
                </g>
                <path id="Path_56042" d="M1013.935 2195.725l-.055.011-20.191 3.9a5.528 5.528 0 0 1-6.464-3.485l-5.205-16.548a3.748 3.748 0 0 1 .307-2.939 4.516 4.516 0 0 1 2.774-2.148c1.674-.46 4.024-1.15 6.511-1.88 5.238-1.536 11.757-3.448 15.479-4.253l.081-.018a5.736 5.736 0 0 1 6.364 2.818c1.838 3.668 3.238 11.034 4.628 18.9a5.081 5.081 0 0 1-4.229 5.642zm-28.416-19.687a2.925 2.925 0 0 0-1.807 1.38 2.182 2.182 0 0 0-.187 1.71l5.206 16.548a3.956 3.956 0 0 0 4.659 2.409l20.191-3.9.04-.008a3.5 3.5 0 0 0 2.987-3.818c-1.369-7.748-2.742-14.991-4.485-18.47a4.221 4.221 0 0 0-4.7-1.965c-3.667.793-10.155 2.7-15.368 4.225-2.494.731-4.85 1.423-6.537 1.887z" class="cls-8" transform="translate(-973.076 -2093.348)"/>
                <path id="Path_56043" d="M1003.244 2192.753c4.175-1.149 13.186-3.952 17.539-4.893a3.981 3.981 0 0 1 4.452 1.9c1.475 2.943 2.624 9.173 3.641 14.932a3.421 3.421 0 0 1-2.921 3.787l-16.136 3.116a3.8 3.8 0 0 1-4.444-2.354l-4.16-13.224a2.669 2.669 0 0 1 2.029-3.264z" class="cls-3" transform="translate(-988.278 -2108.758)"/>
                <g id="Group_57564" class="cls-7" transform="translate(55.749 43.191)">
                    <path id="Path_56044" d="M1205.342 2062.166a5.106 5.106 0 0 0 5.638 2.736l186.134-39.46a3.861 3.861 0 0 0-1.552-7.564l-186.634 37.022a5.106 5.106 0 0 0-3.586 7.266z" class="cls-8" transform="translate(-1204.812 -2017.803)"/>
                </g>
                <path id="Path_56045" d="M1055.572 2400.724l-.055.011-20.191 3.9a5.525 5.525 0 0 1-6.464-3.484l-5.205-16.548a3.75 3.75 0 0 1 .306-2.94 4.514 4.514 0 0 1 2.774-2.148c1.674-.461 4.024-1.15 6.511-1.88 5.238-1.537 11.757-3.448 15.479-4.253l.081-.017a5.735 5.735 0 0 1 6.364 2.818c1.838 3.668 3.238 11.034 4.628 18.9a5.082 5.082 0 0 1-4.228 5.641zm-28.416-19.687a2.925 2.925 0 0 0-1.807 1.38 2.183 2.183 0 0 0-.187 1.711l5.206 16.548a3.954 3.954 0 0 0 4.659 2.408l20.192-3.9.041-.008a3.5 3.5 0 0 0 2.987-3.818c-1.369-7.748-2.742-14.991-4.486-18.469a4.213 4.213 0 0 0-4.7-1.965c-3.667.793-10.155 2.7-15.368 4.225-2.494.732-4.85 1.423-6.537 1.887z" class="cls-8" transform="translate(-1005.941 -2255.156)"/>
                <path id="Path_56046" d="M1044.88 2397.752c4.175-1.149 13.186-3.952 17.539-4.893a3.981 3.981 0 0 1 4.453 1.9c1.475 2.943 2.624 9.173 3.641 14.932a3.421 3.421 0 0 1-2.921 3.787l-16.136 3.116a3.8 3.8 0 0 1-4.444-2.354l-4.16-13.224a2.669 2.669 0 0 1 2.028-3.264z" class="cls-3" transform="translate(-1021.143 -2270.566)"/>
                <g id="Group_57565" class="cls-7" transform="translate(64.521 86.383)">
                    <path id="Path_56047" d="M1246.979 2267.165a5.106 5.106 0 0 0 5.638 2.736l186.134-39.461a3.861 3.861 0 0 0-1.552-7.564l-186.634 37.024a5.106 5.106 0 0 0-3.586 7.265z" class="cls-8" transform="translate(-1246.449 -2222.802)"/>
                </g>
                <path id="Path_56048" d="M1097.209 2605.724l-.055.011-20.192 3.9a5.526 5.526 0 0 1-6.464-3.484l-5.205-16.548a3.749 3.749 0 0 1 .307-2.94 4.516 4.516 0 0 1 2.774-2.148c1.674-.46 4.024-1.15 6.511-1.879 5.238-1.537 11.757-3.448 15.479-4.253l.081-.017a5.735 5.735 0 0 1 6.364 2.818c1.838 3.668 3.238 11.034 4.628 18.9a5.082 5.082 0 0 1-4.228 5.64zm-28.416-19.687a2.926 2.926 0 0 0-1.807 1.38 2.184 2.184 0 0 0-.187 1.711l5.206 16.548a3.954 3.954 0 0 0 4.658 2.408l20.192-3.9.04-.008a3.5 3.5 0 0 0 2.987-3.817c-1.369-7.748-2.742-14.991-4.485-18.47a4.207 4.207 0 0 0-4.7-1.965c-3.667.793-10.155 2.7-15.368 4.226-2.494.731-4.85 1.422-6.537 1.887z" class="cls-8" transform="translate(-1038.805 -2416.964)"/>
                <path id="Path_56049" d="M1086.518 2602.752c4.175-1.149 13.186-3.952 17.539-4.893a3.981 3.981 0 0 1 4.453 1.9c1.475 2.943 2.624 9.173 3.641 14.932a3.421 3.421 0 0 1-2.921 3.787l-16.136 3.116a3.8 3.8 0 0 1-4.444-2.354l-4.16-13.225a2.669 2.669 0 0 1 2.028-3.263z" class="cls-3" transform="translate(-1054.007 -2432.375)"/>
                <g id="Group_57566" class="cls-7" transform="translate(73.294 129.574)">
                    <path id="Path_56050" d="M1288.617 2472.165a5.106 5.106 0 0 0 5.638 2.736l186.134-39.461a3.861 3.861 0 0 0-1.552-7.564L1292.2 2464.9a5.106 5.106 0 0 0-3.583 7.265z" class="cls-8" transform="translate(-1288.087 -2427.802)"/>
                </g>
                <path id="Path_56051" fill="url(#linear-gradient-7)" d="M1097.042 2563.35a3.156 3.156 0 0 1 4.5.294l5.422 6.318a1.013 1.013 0 0 0 1.758-.437l5.4-23.951a1.123 1.123 0 0 1 2.2.048 44.217 44.217 0 0 1-6.484 32.719s-6.378-1.1-13.262-10.584a3.31 3.31 0 0 1 .466-4.407z" transform="translate(-1063.135 -2390.495)"/>
            </g>
        </g>
        <g id="Group_57571" transform="translate(457.473 709.741)">
            <g id="Group_57569" transform="translate(12.343)">
                <path id="Path_56052" d="M632.657 1858.354a538.943 538.943 0 0 0 11.4 67.133h3.275a366.316 366.316 0 0 1-11.122-105.276c1.843-42.45 12.24-93.99-7.147-118.611-16.135-20.491-84.6-23.554-107.113-24.005a3.322 3.322 0 0 0-2.673 5.387c8.631 10.86 26.7 36.012 28.279 57.975 2.076 28.948 24.574 51.67 46.93 61.128s34.397 16.672 38.171 56.269z" class="cls-15" transform="translate(-518.552 -1677.594)"/>
                <path id="Path_56053" d="M665.98 1762.471a107.95 107.95 0 0 1 38.406 18.485 84.49 84.49 0 0 1 15.43 15.026 73.053 73.053 0 0 1 10.753 18.746l.958 2.54c.314.849.548 1.724.825 2.585.255.864.544 1.735.771 2.593l.684 2.573q1.38 5.143 2.691 10.3 2.62 10.322 4.912 20.724c3.065 13.867 5.7 27.824 7.48 41.938a.618.618 0 0 1-1.221.189v-.019c-1.264-6.947-2.663-13.9-4.192-20.8q-2.247-10.373-4.737-20.692l-2.518-10.31-2.634-10.281q-1.313-5.141-2.714-10.26l-.69-2.562c-.229-.855-.5-1.665-.753-2.5s-.48-1.668-.776-2.482l-.905-2.439a72.511 72.511 0 0 0-10.192-18.083 80.185 80.185 0 0 0-6.9-7.838l-.918-.931-.954-.9c-.639-.594-1.263-1.206-1.914-1.787-1.32-1.145-2.626-2.307-4.008-3.381a108.236 108.236 0 0 0-17.645-11.405 112.577 112.577 0 0 0-19.473-8.068l-.031-.01a.5.5 0 0 1 .266-.955z" class="cls-16" transform="translate(-634.431 -1744.577)"/>
            </g>
            <g id="Group_57570" transform="translate(0 135.452)">
                <path id="Path_56054" d="M587.062 2392.067c11.709 17.191 10.206 26.81 10.566 34.957.064 1.447.143 3.491.311 5.907h3.2a70.109 70.109 0 0 1-1.282-9.94c-1.139-22.5-6.215-60.906-25.619-83.878s-40.653-25.069-67.428-4.184c-22.313 17.4-36.231 26.187-44.393 27.82a3.084 3.084 0 0 0-2.069 4.5c5.235 9.641 20.037 31.786 44.888 30.227 31.698-1.992 70.117-22.6 81.826-5.409z" class="cls-15" transform="translate(-459.969 -2320.49)"/>
                <path id="Path_56055" d="M724.749 2457.626a63.77 63.77 0 0 1 5.529-4.625c1.916-1.447 3.891-2.825 5.948-4.082a59.592 59.592 0 0 1 13.129-6.178 41.234 41.234 0 0 1 7.182-1.615 30.667 30.667 0 0 1 7.449-.029c.619.1 1.244.159 1.858.3s1.238.261 1.829.429l3.494 1.084 3.419 1.329 3.314 1.592a41.738 41.738 0 0 1 11.544 9.027 51.858 51.858 0 0 1 8 12.158l.8 1.63c.273.54.471 1.111.711 1.664.451 1.118.936 2.223 1.356 3.351l1.176 3.41c.417 1.129.682 2.3 1.019 3.453a125.706 125.706 0 0 1 3.034 14.019.482.482 0 0 1-.944.2v-.016c-1.116-4.612-2.19-9.231-3.726-13.7-.7-2.257-1.58-4.441-2.4-6.645-.442-1.088-.947-2.149-1.416-3.224-.248-.531-.456-1.082-.737-1.6l-.817-1.553a52.8 52.8 0 0 0-7.921-11.426 40.626 40.626 0 0 0-10.936-8.346l-3.126-1.481-3.239-1.24-3.327-1.012c-.552-.157-1.094-.261-1.641-.4s-1.109-.181-1.662-.277a27.94 27.94 0 0 0-6.786-.016 38.818 38.818 0 0 0-6.753 1.37 64.872 64.872 0 0 0-12.858 5.478c-2.052 1.142-4.086 2.333-6.06 3.625s-3.912 2.659-5.765 4.093l-.012.009a.5.5 0 0 1-.653-.76z" class="cls-16" transform="translate(-668.84 -2415.518)"/>
            </g>
        </g>
        <g id="Group_57585" transform="translate(585.226 488.563)">
            <path id="Path_56056" d="M1066.328 942.38a31.9 31.9 0 0 1 31.895-31.895h271.233a28.1 28.1 0 0 1 28.064 26.671l20.021 393.238a20.722 20.722 0 0 1-20.318 21.772l-310.868 5.65a19.669 19.669 0 0 1-20.026-19.666z" class="cls-2" transform="translate(-1066.328 -850.928)"/>
            <g id="Group_57584" transform="translate(22.221 56.284)">
                <path id="Path_56057" fill="#4874a0" d="M1171.794 904.275a9.264 9.264 0 0 1 10.508-9.24c37.039 5.023 164.408 20.558 269.715 12.474a8.567 8.567 0 0 1 9.226 8.08l20.993 394.991a9.858 9.858 0 0 1-9.262 10.368c-44.29 2.621-226.691 12.753-291.75 5.938a7.81 7.81 0 0 1-6.989-7.73z" transform="translate(-1171.794 -894.949)"/>
                <path id="Path_56058" fill="#fff" d="M1192.5 952.571a8.915 8.915 0 0 1 10.112-8.892c35.645 4.834 158.217 19.784 259.559 12a8.244 8.244 0 0 1 8.878 7.775l20.2 380.117a9.487 9.487 0 0 1-8.913 9.978c-42.622 2.522-218.154 12.273-280.764 5.715a7.516 7.516 0 0 1-6.726-7.439z" opacity="0.3" transform="translate(-1188.139 -933.347)"/>
                <path id="Path_56059" d="M1349.094 1103.7l3.786 81.493a5.18 5.18 0 0 0 5.028 4.942c15.093.426 62.122 1.573 88.677.189a5.786 5.786 0 0 0 5.48-5.593c.506-15.283 1.614-59.765-1.868-78.36a6.53 6.53 0 0 0-6.2-5.312l-89.208-3.12a5.509 5.509 0 0 0-5.695 5.761z" class="cls-4" transform="translate(-1311.734 -1055.166)"/>
                <circle id="Ellipse_988" cx="17.519" cy="17.519" r="17.519" class="cls-19" transform="rotate(-76.717 91.105 2.626)"/>
                <path id="Path_56060" d="M1449.516 1415.909h55.812a4.322 4.322 0 0 0 3.629-6.662c-4.741-7.418-14.659-18.316-31.837-17.824-16.556.474-26.369 10.318-31.3 17.377a4.516 4.516 0 0 0 3.696 7.109z" class="cls-19" transform="translate(-1387.434 -1286.809)"/>
                <g id="Group_57572" class="cls-7" transform="translate(160.271 48.356)">
                    <path id="Path_56061" d="M2032.764 1131.733a2.887 2.887 0 0 0 3.1-2.734 3.165 3.165 0 0 0-3.257-2.79l-97.823-1.743a2.065 2.065 0 0 0-2.122 2.941l.468 1.329a4.819 4.819 0 0 0 4.234 3z" class="cls-8" transform="translate(-1932.49 -1124.465)"/>
                </g>
                <g id="Group_57573" class="cls-7" transform="translate(160.271 63.549)">
                    <path id="Path_56062" d="M1934.781 1196.572a2.065 2.065 0 0 0-2.122 2.941l.468 1.329a4.819 4.819 0 0 0 4.234 3h95.4a2.887 2.887 0 0 0 3.1-2.734 3.165 3.165 0 0 0-3.257-2.791z" class="cls-8" transform="translate(-1932.49 -1196.571)"/>
                </g>
                <g id="Group_57574" class="cls-7" transform="translate(160.271 78.962)">
                    <path id="Path_56063" d="M1934.781 1269.728a2.065 2.065 0 0 0-2.122 2.941l.468 1.329a4.819 4.819 0 0 0 4.234 3h95.4a2.887 2.887 0 0 0 3.1-2.734 3.165 3.165 0 0 0-3.257-2.79z" class="cls-8" transform="translate(-1932.49 -1269.728)"/>
                </g>
                <g id="Group_57575" class="cls-7" transform="translate(38.75 153.261)">
                    <path id="Path_56064" d="M1587.012 1629.673a2.764 2.764 0 0 0 3-2.734 3.27 3.27 0 0 0-3.359-2.759l-229.174-1.807c-1.748-.014-2.287 1.094-1.2 2.461l1.872 2.352a7.484 7.484 0 0 0 5.158 2.486z" class="cls-8" transform="translate(-1355.716 -1622.373)"/>
                </g>
                <g id="Group_57576" class="cls-7" transform="translate(38.75 168.453)">
                    <path id="Path_56065" d="M1357.477 1694.48c-1.748-.014-2.287 1.094-1.2 2.461l1.872 2.352a7.484 7.484 0 0 0 5.158 2.486h223.7a2.764 2.764 0 0 0 3-2.734 3.27 3.27 0 0 0-3.359-2.759z" class="cls-8" transform="translate(-1355.716 -1694.48)"/>
                </g>
                <path id="Path_56066" d="M1346.5 1812.26c5.51-.422 15.829-.618 21.509-.7a5.148 5.148 0 0 1 5.082 3.937 83.894 83.894 0 0 1 2.418 20.8 4.571 4.571 0 0 1-4.613 4.476l-20.961-.226a5.034 5.034 0 0 1-4.958-4.565l-1.843-19.719a3.667 3.667 0 0 1 3.366-4.003z" class="cls-20" transform="translate(-1307.023 -1618.442)"/>
                <g id="Group_57577" class="cls-7" transform="translate(75.502 201.913)">
                    <path id="Path_56067" d="M1532.888 1853.3a2.529 2.529 0 0 0-2.7 3.01l.508 3.38a3.818 3.818 0 0 0 3.65 3.143h50.907a3.14 3.14 0 0 0 3.139-3.178l-.011-.86a3.4 3.4 0 0 0-3.215-3.311z" class="cls-8" transform="translate(-1530.15 -1853.294)"/>
                </g>
                <path id="Path_56068" d="M1888.5 1812.26c5.51-.422 15.829-.618 21.509-.7a5.148 5.148 0 0 1 5.082 3.937 83.911 83.911 0 0 1 2.418 20.8 4.571 4.571 0 0 1-4.613 4.476l-20.961-.226a5.034 5.034 0 0 1-4.958-4.565l-1.843-19.719a3.667 3.667 0 0 1 3.366-4.003z" class="cls-20" transform="translate(-1734.827 -1618.442)"/>
                <g id="Group_57578" class="cls-7" transform="translate(189.695 201.913)">
                    <path id="Path_56069" d="M2074.885 1853.3a2.529 2.529 0 0 0-2.7 3.01l.507 3.38a3.818 3.818 0 0 0 3.65 3.143h50.907a3.139 3.139 0 0 0 3.138-3.178l-.01-.86a3.4 3.4 0 0 0-3.215-3.311z" class="cls-8" transform="translate(-2072.147 -1853.294)"/>
                </g>
                <g id="Group_57583" transform="translate(42.632 238.995)">
                    <path id="Path_56070" d="M1400.559 2086.987h-.053l-19.342-.186a5.2 5.2 0 0 1-5.306-4.422l-1.7-16.229a3.526 3.526 0 0 1 .833-2.652 4.25 4.25 0 0 1 2.96-1.461c1.629-.111 3.924-.306 6.354-.513 5.116-.436 11.483-.977 15.065-1.022a5.406 5.406 0 0 1 5.416 3.788c1.008 3.726.919 10.778.728 18.29a4.78 4.78 0 0 1-4.955 4.407zm-22.507-23.467a2.749 2.749 0 0 0-1.924.934 2.053 2.053 0 0 0-.493 1.541l1.7 16.229a3.721 3.721 0 0 0 3.844 3.092l19.342.186h.039a3.3 3.3 0 0 0 3.468-2.959c.189-7.4.279-14.332-.677-17.865a3.991 3.991 0 0 0-3.964-2.69c-3.529.044-9.866.584-14.957 1.018-2.436.207-4.737.4-6.379.516z" class="cls-8" transform="translate(-1374.139 -2053.927)"/>
                    <path id="Path_56071" d="M1393.247 2078.181c4.063-.278 12.895-1.174 17.083-1.226a3.744 3.744 0 0 1 3.748 2.589c.808 2.989.7 8.947.561 14.446a3.218 3.218 0 0 1-3.4 2.943l-15.457-.148a3.572 3.572 0 0 1-3.656-3l-1.359-12.969a2.511 2.511 0 0 1 2.48-2.635z" class="cls-3" transform="translate(-1387.254 -2066.914)"/>
                    <g id="Group_57579" class="cls-7" transform="translate(43.248 16.256)">
                        <path id="Path_56072" d="M1579.567 2112.482a4.8 4.8 0 0 0 4.685 3.578l178.961-1.526a3.632 3.632 0 0 0-.014-7.263l-178.965-.816a4.8 4.8 0 0 0-4.667 6.027z" class="cls-8" transform="translate(-1579.406 -2106.455)"/>
                    </g>
                    <path id="Path_56073" d="M1400.756 2043.109a2.968 2.968 0 0 1 4.095 1.114l3.815 6.839a.953.953 0 0 0 1.7-.073l9.462-21.066a1.057 1.057 0 0 1 2.02.456 41.592 41.592 0 0 1-12.1 28.945s-5.674-2.205-10.243-12.239a3.114 3.114 0 0 1 1.251-3.976z" class="cls-20" transform="translate(-1393.938 -2029.297)"/>
                    <path id="Path_56074" d="M1400.559 2283.742h-.053l-19.342-.186a5.2 5.2 0 0 1-5.306-4.422l-1.7-16.229a3.526 3.526 0 0 1 .833-2.652 4.247 4.247 0 0 1 2.96-1.46c1.629-.111 3.924-.307 6.354-.513 5.116-.436 11.483-.978 15.065-1.023h.078a5.394 5.394 0 0 1 5.338 3.789c1.008 3.726.919 10.777.728 18.29a4.78 4.78 0 0 1-4.955 4.406zm-22.507-23.467a2.751 2.751 0 0 0-1.924.934 2.053 2.053 0 0 0-.493 1.541l1.7 16.229a3.721 3.721 0 0 0 3.844 3.092l19.342.186h.039a3.3 3.3 0 0 0 3.468-2.96c.189-7.4.279-14.332-.677-17.865a3.969 3.969 0 0 0-3.964-2.69c-3.528.044-9.865.584-14.957 1.017-2.436.207-4.737.4-6.379.516z" class="cls-8" transform="translate(-1374.139 -2209.228)"/>
                    <path id="Path_56075" d="M1393.247 2274.939c4.063-.278 12.895-1.175 17.083-1.227a3.744 3.744 0 0 1 3.748 2.589c.808 2.989.7 8.947.561 14.446a3.218 3.218 0 0 1-3.4 2.944l-15.457-.149a3.571 3.571 0 0 1-3.656-3l-1.359-12.969a2.51 2.51 0 0 1 2.48-2.634z" class="cls-3" transform="translate(-1387.254 -2222.217)"/>
                    <g id="Group_57580" class="cls-7" transform="translate(43.248 57.711)">
                        <path id="Path_56076" d="M1579.567 2309.24a4.8 4.8 0 0 0 4.685 3.578l178.961-1.526a3.632 3.632 0 0 0-.014-7.263l-178.965-.816a4.8 4.8 0 0 0-4.667 6.027z" class="cls-8" transform="translate(-1579.406 -2303.213)"/>
                    </g>
                    <path id="Path_56077" d="M1400.756 2239.868a2.969 2.969 0 0 1 4.095 1.114l3.815 6.839a.953.953 0 0 0 1.7-.074l9.462-21.066a1.057 1.057 0 0 1 2.02.456 41.592 41.592 0 0 1-12.1 28.945s-5.674-2.206-10.243-12.239a3.114 3.114 0 0 1 1.251-3.975z" class="cls-20" transform="translate(-1393.938 -2184.6)"/>
                    <path id="Path_56078" d="M1400.559 2480.5h-.053l-19.342-.186a5.2 5.2 0 0 1-5.306-4.422l-1.7-16.229a3.527 3.527 0 0 1 .833-2.653 4.247 4.247 0 0 1 2.959-1.461c1.629-.111 3.924-.307 6.354-.513 5.116-.436 11.483-.978 15.065-1.022h.078a5.394 5.394 0 0 1 5.338 3.789c1.008 3.726.919 10.777.728 18.29a4.78 4.78 0 0 1-4.954 4.407zm-22.507-23.467a2.752 2.752 0 0 0-1.924.934 2.053 2.053 0 0 0-.493 1.542l1.7 16.229a3.72 3.72 0 0 0 3.844 3.092l19.342.186h.039a3.3 3.3 0 0 0 3.468-2.959c.189-7.4.279-14.332-.677-17.865a3.964 3.964 0 0 0-3.964-2.691c-3.528.044-9.865.584-14.957 1.018-2.436.207-4.737.4-6.379.515z" class="cls-8" transform="translate(-1374.139 -2364.53)"/>
                    <path id="Path_56079" d="M1393.247 2471.7c4.063-.278 12.895-1.175 17.083-1.227a3.744 3.744 0 0 1 3.748 2.589c.808 2.989.7 8.947.561 14.445a3.218 3.218 0 0 1-3.4 2.944l-15.457-.149a3.571 3.571 0 0 1-3.656-3l-1.359-12.969a2.51 2.51 0 0 1 2.48-2.633z" class="cls-3" transform="translate(-1387.254 -2377.519)"/>
                    <g id="Group_57581" class="cls-7" transform="translate(43.248 99.166)">
                        <path id="Path_56080" d="M1579.567 2506a4.8 4.8 0 0 0 4.685 3.578l178.961-1.526a3.631 3.631 0 0 0-.014-7.263l-178.965-.816a4.8 4.8 0 0 0-4.667 6.027z" class="cls-8" transform="translate(-1579.406 -2499.971)"/>
                    </g>
                    <path id="Path_56081" d="M1400.756 2436.625a2.969 2.969 0 0 1 4.095 1.114l3.815 6.839a.953.953 0 0 0 1.7-.074l9.462-21.066a1.057 1.057 0 0 1 2.02.456 41.592 41.592 0 0 1-12.1 28.945s-5.674-2.206-10.243-12.239a3.114 3.114 0 0 1 1.251-3.975z" class="cls-20" transform="translate(-1393.938 -2339.903)"/>
                    <path id="Path_56082" d="M1400.559 2677.257h-.053l-19.342-.186a5.2 5.2 0 0 1-5.306-4.422l-1.7-16.229a3.527 3.527 0 0 1 .833-2.653 4.248 4.248 0 0 1 2.959-1.461c1.629-.111 3.924-.306 6.354-.513 5.116-.436 11.483-.978 15.065-1.022h.078a5.394 5.394 0 0 1 5.338 3.789c1.008 3.726.919 10.777.728 18.29a4.78 4.78 0 0 1-4.954 4.407zm-22.507-23.467a2.753 2.753 0 0 0-1.924.934 2.054 2.054 0 0 0-.493 1.542l1.7 16.229a3.72 3.72 0 0 0 3.844 3.091l19.342.186h.039a3.3 3.3 0 0 0 3.468-2.959c.189-7.4.279-14.331-.677-17.865a3.957 3.957 0 0 0-3.964-2.69c-3.528.044-9.865.584-14.957 1.017-2.436.208-4.737.4-6.379.516z" class="cls-8" transform="translate(-1374.139 -2519.833)"/>
                    <path id="Path_56083" d="M1393.247 2668.454c4.063-.278 12.895-1.175 17.083-1.227a3.744 3.744 0 0 1 3.748 2.589c.808 2.989.7 8.947.561 14.446a3.218 3.218 0 0 1-3.4 2.944l-15.457-.149a3.571 3.571 0 0 1-3.656-3l-1.359-12.969a2.51 2.51 0 0 1 2.48-2.634z" class="cls-3" transform="translate(-1387.254 -2532.822)"/>
                    <g id="Group_57582" class="cls-7" transform="translate(43.248 140.621)">
                        <path id="Path_56084" d="M1579.567 2702.756a4.8 4.8 0 0 0 4.685 3.577l178.961-1.526a3.632 3.632 0 0 0-.014-7.263l-178.965-.816a4.8 4.8 0 0 0-4.667 6.028z" class="cls-8" transform="translate(-1579.406 -2696.729)"/>
                    </g>
                    <path id="Path_56085" d="M1400.756 2633.383a2.968 2.968 0 0 1 4.095 1.114l3.815 6.839a.953.953 0 0 0 1.7-.074l9.462-21.066a1.057 1.057 0 0 1 2.02.456 41.591 41.591 0 0 1-12.1 28.945s-5.674-2.205-10.243-12.239a3.114 3.114 0 0 1 1.251-3.975z" class="cls-20" transform="translate(-1393.938 -2495.206)"/>
                </g>
            </g>
            <path id="Path_56086" fill="url(#linear-gradient-8)" d="M1818.131 633.75c-9.8-6.816-18.316-6.681-24.313-4.911a11.961 11.961 0 0 0-8.5 12.576l2.586 28.228 30.775 2.731s18.666-25.257-.548-38.624zm-13.531 22.773a7.674 7.674 0 1 1 7.674-7.673 7.673 7.673 0 0 1-7.674 7.673z" transform="translate(-1633.798 -627.809)"/>
            <path id="Path_56087" d="M1805.235 673.254a.742.742 0 0 1-.739-.675l-.412-4.5a.743.743 0 1 1 1.479-.135l.412 4.5a.742.742 0 0 1-.672.807c-.022.002-.045.003-.068.003zm-.807-8.81a.743.743 0 0 1-.739-.675l-.313-3.413a11.417 11.417 0 0 1 8.1-11.98 23 23 0 0 1 11.247-.462.743.743 0 1 1-.3 1.455 21.556 21.556 0 0 0-10.529.431 9.93 9.93 0 0 0-7.036 10.42l.313 3.413a.742.742 0 0 1-.672.807c-.026.003-.048.004-.071.004z" class="cls-8" transform="translate(-1648.05 -643.294)"/>
            <path id="Path_56088" fill="url(#linear-gradient-9)" d="M1598.432 827.336v-14.192a8.661 8.661 0 0 1 8.957-8.655l97.85 3.353a8.423 8.423 0 0 1 8.119 7.914l.818 13.637z" transform="translate(-1486.323 -767.26)"/>
            <path id="Path_56089" d="M1753.058 824.325h-4.208a.743.743 0 1 1 0-1.485h4.208a.743.743 0 1 1 0 1.485z" class="cls-8" transform="translate(-1604.464 -781.749)"/>
            <path id="Path_56090" d="M1620.788 837.369a.742.742 0 0 1-.742-.743v-5.741a8.054 8.054 0 0 1 8.045-8.045h15.471a.743.743 0 0 1 0 1.485h-15.472a6.567 6.567 0 0 0-6.56 6.56v5.741a.743.743 0 0 1-.742.743z" class="cls-8" transform="translate(-1503.383 -781.749)"/>
            <path id="Path_56091" fill="#36587b" d="M2098.151 1046.712l-23.035-18.782-23.035 18.782a394.648 394.648 0 0 0 1.721-58.768q-.465-10.219-1.4-19.782a2.916 2.916 0 0 1 2.906-3.195h40.082a2.915 2.915 0 0 1 2.912 2.761q.768 14.679.955 30.36c.18 17.042-.246 33.278-1.106 48.624z" transform="translate(-1844.393 -893.931)"/>
            <path id="Path_56092" d="M1407.751 897.057a9.221 9.221 0 0 1 9.21-8.778h171.109a12.647 12.647 0 0 1 12.462 10.49l.145.836a10.861 10.861 0 0 1-10.7 12.714h-175.55a7.062 7.062 0 0 1-7.053-7.4z" class="cls-2" transform="translate(-1335.512 -833.397)"/>
        </g>
        <g id="Group_57588" transform="translate(859.424 687.64)">
            <path id="Path_56093" fill="url(#linear-gradient-10)" d="M2739.226 3119.237c-8.964.412-17.64.153-23.433-.145 5.274-3.754 17.426-11.922 27.594-15.174l6.98-.417s2.365 3.6 3.209 11.829c-1.157 1.443-4.538 3.456-14.35 3.907z" transform="translate(-2642.466 -2780.976)"/>
            <path id="Path_56094" fill="url(#linear-gradient-11)" d="M2713.514 3163.458l.072-.051c5.793.3 14.469.556 23.433.144 9.812-.452 13.193-2.464 14.35-3.907.039.379.079.755.111 1.154a3.269 3.269 0 0 1-3 3.53c-7.341.555-25.543 1.812-34.32 1.352a1.225 1.225 0 0 1-.646-2.222z" transform="translate(-2640.259 -2825.29)"/>
            <path id="Path_56095" fill="url(#linear-gradient-12)" d="M3131.143 3118.36c.657-4.208 1.709-10.292 2.522-11.847 1.276-2.44 5.644 0 5.644 0a11.6 11.6 0 0 1 4.478 3.813c.9 1.519 3.387 5.841 5.073 8.776a1.969 1.969 0 0 1 .265 1.045l-17.49.612a3.492 3.492 0 0 1-.492-2.399z" transform="translate(-2970.272 -2782.498)"/>
            <path id="Path_56096" fill="url(#linear-gradient-13)" d="M3151.125 3175.285a1.992 1.992 0 0 1-1.938 1.935l-12.46.343a3.517 3.517 0 0 1-3.091-1.667z" transform="translate(-2972.273 -2837.636)"/>
            <path id="Path_56097" fill="url(#linear-gradient-14)" d="M3124.959 3036.012c.151.5 2.411 11.46 3.4 16.268a2.746 2.746 0 0 0 2.826 2.194c.74-.037 1.6-.1 2.5-.22a3.314 3.314 0 0 0 2.883-3.159c.161-4.212.24-12.3-1.307-15.432-2.129-4.323-10.302.349-10.302.349z" transform="translate(-2965.425 -2725.982)"/>
            <path id="Path_56098" fill="url(#linear-gradient-15)" d="M2849.891 3046.021c-.969-.031.387 5-1.08 9.954a2.544 2.544 0 0 1-2.329 2.007c-.755.01-1.649 0-2.556-.078a2.81 2.81 0 0 1-2.589-2.532l-1.193-12.837z" transform="translate(-2740.617 -2732.854)"/>
            <path id="Path_56099" fill="#263238" d="M2757.728 2388.068c.433 2.106 15.7 91.173 16.629 137.26a1.569 1.569 0 0 0 1.35 1.528 30.832 30.832 0 0 0 9.374-.061 1.105 1.105 0 0 0 .911-1.015c.534-8.588 4.825-81.2-.431-115.388 0 0 43.417 91.378 50 116.574a1.324 1.324 0 0 0 1.356.991 32.8 32.8 0 0 0 8.8-1.562 2.3 2.3 0 0 0 1.449-2.7c-3.677-15.079-29.446-118.969-46.943-141.858z" transform="translate(-2675.565 -2211.358)"/>
            <path id="Path_56100" fill="url(#linear-gradient-16)" d="M2865.916 2493.535a.57.57 0 0 0 .407-.969l-5.813-5.945a.57.57 0 0 0-.815.8l5.814 5.945a.567.567 0 0 0 .407.169z" transform="translate(-2755.92 -2293.931)"/>
            <path id="Path_56101" d="M2642.889 1856.193c12.99-1.953 38.484-4.751 55.113.128l-1.8 51.4-60.247-6.5-5.111-7.264s2.364-36.309 12.045-37.764z" class="cls-19" transform="translate(-2575.412 -1794.419)"/>
            <path id="Path_56102" fill="url(#linear-gradient-17)" d="M2756.484 1735.294s1.2 20.443.976 26.8c0 0-16.736 2.739-20.72-.125l3.147-24.233z" transform="translate(-2659 -1701.036)"/>
            <g id="Group_57586" transform="translate(72.396)">
                <path id="Path_56103" fill="url(#linear-gradient-18)" d="M2720.19 1638.117s-6.739 11.829-7.8 18.3-2.923 10.55 4.468 12.673 14.139-.946 18.275-7.065c0 0 6.462-9.418 5.694-13.643s-20.637-10.265-20.637-10.265z" transform="translate(-2711.37 -1624.333)"/>
                <path id="Path_56104" fill="url(#linear-gradient-19)" d="M2741.91 1605.447l-.952-.1s4.789-7.625 1.494-9.409-16.649-6.039-19.073-11.2c-2.337-4.977.845-10.737 4.817-12.017a.51.51 0 0 1 .619.307l.25.628a.515.515 0 0 0 .954 0 .512.512 0 0 1 .932-.042c.746 1.546 2.934 4.165 9.353 6.079 9.108 2.715 14.846 7.138 14.306 13.577a.515.515 0 0 0 .747.5c.731-.344 1.85-.422 3.185.969 2.32 2.421.677 7.874-5.41 11.85a.511.511 0 0 0-.064.822c.943.77 2.285 2.5-1.857 4.175-4.238 1.71-6.584 1.221-7.454.9a.515.515 0 0 1-.33-.571l.965-5.654a.514.514 0 0 0-.452-.6z" transform="translate(-2720.222 -1572.694)"/>
                <path id="Path_56105" fill="url(#linear-gradient-20)" d="M2812.591 1712.561s2.915-7.706 6.229-5.1-2.8 8.684-5.69 8.673z" transform="translate(-2791.265 -1678.642)"/>
            </g>
            <g id="Group_57587" transform="translate(0 91.173)">
                <path id="Path_56106" d="M2470.081 2016.236l1.6-6.281a6.006 6.006 0 0 1 7.021-4.4l150.461 30.7a6.3 6.3 0 0 1 4.907 7.476l-9.173 43.482z" class="cls-20" transform="translate(-2448.522 -2005.429)"/>
                <path id="Path_56107" d="M2402.37 2104.638l11.316-81.335a2.909 2.909 0 0 1 3.512-2.439l154.536 34.317a6.082 6.082 0 0 1 4.608 7.3l-12.97 56.221z" class="cls-8" transform="translate(-2395.077 -2017.557)"/>
                <path id="Path_56108" d="M2421.74 2118.506l4.335-72.6a3.058 3.058 0 0 1 3.686-2.81l156.161 33.045a4.227 4.227 0 0 1 3.3 4.8l-8.318 52.441z" class="cls-8" transform="translate(-2410.366 -2035.11)"/>
                <path id="Path_56109" d="M2367.818 2165.638l9.831-78.633a6.848 6.848 0 0 1 8.065-5.88l160.131 30.224a5.984 5.984 0 0 1 4.77 6.989l-13.525 71.656a6.474 6.474 0 0 1-7.219 5.217l-155.235-20.731a7.929 7.929 0 0 1-6.818-8.842z" class="cls-20" transform="translate(-2367.756 -2065.082)"/>
                <path id="Path_56110" d="M2541.011 2079.5a6.148 6.148 0 0 1-7.181 4.9l-35.7-6.739a6.148 6.148 0 0 1-4.9-7.181 6.148 6.148 0 0 1 7.181-4.9l35.7 6.739a6.147 6.147 0 0 1 4.9 7.181z" class="cls-20" transform="translate(-2466.706 -2052.823)"/>
            </g>
            <path id="Path_56111" d="M2869.848 1888.912l16.8-22.411s27 28.685 32.184 65.095l-16.845 8.214c-5.223-12.26-14.846-28.869-32.139-50.898z" class="cls-19" transform="translate(-2764.062 -1804.599)"/>
            <path id="Path_56112" fill="url(#linear-gradient-21)" d="M2972.548 2233.733c1.991-3.33 5.878-9.671 7.769-11.65a8.116 8.116 0 0 0-5.044-.684c-3.315.407-5.911-1.209-5.813-3.014l15.819-4.852c.71-1.485 3.84-9.911-4.664-29.855l16.845-8.214a75.877 75.877 0 0 1-5.916 43.039s-5.231 16.246-11.24 19.851c-15.685 9.407-8.519-3.343-7.756-4.621z" transform="translate(-2842.686 -2048.466)"/>
        </g>
        <g id="Group_57589" transform="translate(540.017 661.052)">
            <path id="Path_56113" d="M1057.76 1447.555l-3.319 4.2-.013.016a.706.706 0 0 1-1.108-.876l.01-.013 3.443-4.152a.642.642 0 0 1 1 .807z" class="cls-8" transform="translate(-1010.732 -1446.501)"/>
            <path id="Path_56114" d="M993.805 1519l-5.626 8.976-.027.043a.972.972 0 0 1-1.648-1.033l.01-.016 5.852-8.946a.869.869 0 0 1 1.464.936z" class="cls-8" transform="translate(-957.996 -1502.645)"/>
            <path id="Path_56115" d="M938.5 1617.357l-4.513 9.571-.026.057a1.188 1.188 0 1 1-2.149-1.013l.009-.019 4.735-9.6a1.093 1.093 0 0 1 1.97.949z" class="cls-8" transform="translate(-914.857 -1580.087)"/>
            <path id="Path_56116" d="M896.1 1722.067l-3.275 10.045-.025.075a1.4 1.4 0 1 1-2.67-.871c0-.005.006-.018.008-.024l3.5-10.13a1.309 1.309 0 0 1 2.482.832z" class="cls-8" transform="translate(-881.988 -1662.599)"/>
            <path id="Path_56117" d="M868.166 1831.815l-1.954 10.367-.017.091a1.563 1.563 0 1 1-3.071-.579v-.016l2.1-10.524a1.5 1.5 0 0 1 2.954.573z" class="cls-8" transform="translate(-860.706 -1749.157)"/>
            <path id="Path_56118" d="M855.662 1945.124l-.517 10.526-.005.1a1.695 1.695 0 0 1-3.385-.166v-.018l.643-10.721a1.637 1.637 0 0 1 3.268.177z" class="cls-8" transform="translate(-851.752 -1838.636)"/>
            <path id="Path_56119" d="M855.88 2059.744l.933 10.493.01.109a1.827 1.827 0 0 1-3.639.324v-.02l-.837-10.718a1.768 1.768 0 0 1 3.524-.3z" class="cls-8" transform="translate(-852.217 -1929.184)"/>
            <path id="Path_56120" d="M869.5 2173.495l2.358 10.26.026.113a1.959 1.959 0 1 1-3.818.878v-.021l-2.3-10.51a1.9 1.9 0 0 1 3.708-.832z" class="cls-8" transform="translate(-862.778 -2019.073)"/>
            <path id="Path_56121" d="M898.518 2284.238l3.678 9.86.041.111a2.059 2.059 0 1 1-3.859 1.439v-.01l-3.71-10.1a2.032 2.032 0 1 1 3.815-1.4z" class="cls-8" transform="translate(-885.525 -2106.604)"/>
            <path id="Path_56122" d="M942.253 2390.449l4.917 9.306.055.1a2.1 2.1 0 0 1-3.719 1.965v-.007l-4.992-9.531a2.084 2.084 0 1 1 3.692-1.933z" class="cls-8" transform="translate(-920.044 -2190.611)"/>
            <path id="Path_56123" d="M999.294 2490.192l6.048 8.615.067.1a2.147 2.147 0 1 1-3.514 2.467v-.006l-6.15-8.828a2.127 2.127 0 1 1 3.491-2.432z" class="cls-8" transform="translate(-965.102 -2269.507)"/>
            <path id="Path_56124" d="M1068.393 2581.977l7.075 7.787.082.09a2.19 2.19 0 0 1-3.242 2.946l-.005-.006-7.21-7.992a2.171 2.171 0 0 1 3.224-2.908z" class="cls-8" transform="translate(-1019.703 -2342.112)"/>
            <path id="Path_56125" d="M1148.509 2664.272l8.022 6.79.1.087a2.234 2.234 0 0 1-2.886 3.41l-.006-.005-8.2-6.991a2.215 2.215 0 0 1 2.874-3.37z" class="cls-8" transform="translate(-1083.029 -2407.22)"/>
            <path id="Path_56126" d="M1238.9 2735.033l4.448 2.773 2.223 1.387c.745.455 1.471.944 2.235 1.366a2.278 2.278 0 1 1-2.2 3.989h-.008l-.06-.033c-.787-.439-1.533-.944-2.3-1.415l-2.287-1.437-4.57-2.875a2.258 2.258 0 1 1 2.4-3.822z" class="cls-8" transform="translate(-1154.509 -2463.222)"/>
            <path id="Path_56127" d="M1339.247 2791.142q4.764 2.177 9.673 4.029a2.292 2.292 0 0 1-1.611 4.291q-5.055-1.892-9.976-4.13a2.3 2.3 0 0 1 1.913-4.19z" class="cls-8" transform="translate(-1233.964 -2507.675)"/>
            <path id="Path_56128" d="M1447.071 2830.625l10.188 2.526.138.034a2.26 2.26 0 0 1-1.082 4.388l-10.473-2.573a2.273 2.273 0 0 1 1.083-4.416h.006z" class="cls-8" transform="translate(-1319.306 -2538.923)"/>
            <path id="Path_56129" d="M1559.888 2853.911l10.454 1.112.126.013a2.225 2.225 0 0 1-.464 4.427l-10.712-1.1a2.243 2.243 0 0 1 .46-4.462h.008z" class="cls-8" transform="translate(-1408.632 -2557.364)"/>
            <path id="Path_56130" d="M1674.977 2861.5l10.528-.17h.11a2.134 2.134 0 0 1 .085 4.266l-10.75.255a2.174 2.174 0 1 1-.1-4.347h.016z" class="cls-8" transform="translate(-1499.755 -2563.237)"/>
            <path id="Path_56131" d="M1790.342 2851.409l10.458-1.355.1-.012a2.04 2.04 0 0 1 .54 4.044l-10.639 1.464a2.082 2.082 0 0 1-.568-4.126h.016z" class="cls-8" transform="translate(-1591.082 -2554.317)"/>
            <path id="Path_56132" d="M1904.581 2829.527l10.282-2.4.078-.019a1.861 1.861 0 0 1 .871 3.619l-10.406 2.586a1.94 1.94 0 0 1-.936-3.765h.017z" class="cls-8" transform="translate(-1681.512 -2536.194)"/>
            <path id="Path_56133" d="M2016.56 2796.654l10.018-3.375.065-.022a1.682 1.682 0 0 1 1.1 3.181l-10.1 3.568a1.761 1.761 0 1 1-1.173-3.321l.015-.006z" class="cls-8" transform="translate(-1770.147 -2509.44)"/>
            <path id="Path_56134" d="M2125.276 2753.766l9.685-4.267.053-.023a1.5 1.5 0 0 1 1.232 2.743l-9.728 4.458a1.582 1.582 0 1 1-1.318-2.876l.013-.006z" class="cls-8" transform="translate(-1856.168 -2474.852)"/>
            <path id="Path_56135" d="M2230.207 2702.167l9.321-5.038.04-.021a1.23 1.23 0 0 1 1.2 2.15l-9.279 5.308a1.359 1.359 0 1 1-1.35-2.359l.022-.013z" class="cls-8" transform="translate(-1939.184 -2433.501)"/>
            <path id="Path_56136" d="M2330.942 2642.381l8.891-5.786.027-.018a.938.938 0 0 1 1.042 1.559l-8.807 6.037a1.066 1.066 0 1 1-1.206-1.758l.017-.011z" class="cls-8" transform="translate(-2018.885 -2385.721)"/>
            <path id="Path_56137" d="M2427.076 2587.274l4.3-3.218.009-.007a.642.642 0 0 1 .786 1.016l-4.209 3.369a.729.729 0 1 1-.911-1.139l.016-.012z" class="cls-8" transform="translate(-2094.933 -2344.279)"/>
        </g>
    </g>
</svg>
