<svg xmlns="http://www.w3.org/2000/svg" width="706.855" height="716" viewBox="0 0 706.855 716">
    <defs>
        <style>
            .cls-1{fill:#909daa}.cls-2{fill:#ebebeb}.cls-3{fill:#e0e0e0}.cls-4{fill:#263238}.cls-5{fill:#658bb1}.cls-6{fill:#c1d0df}.cls-8{fill:#455a64}.cls-10{opacity:.2}.cls-11,.cls-15{fill:#fff}.cls-11{opacity:.1}.cls-13{fill:#ffbe9d}.cls-14{fill:#eb996e}.cls-16{opacity:.6}
        </style>
    </defs>
    <g id="Group_57883" transform="translate(-52.579 -51.842)">
        <g id="Background_Complete" transform="translate(177.768 93.98)">
            <g id="Group_57648" transform="translate(107.712 7.278)">
                <g id="Group_57642">
                    <g id="Group_57641">
                        <path id="Rectangle_1199" d="M0 0H407.944V560.706H0z" class="cls-1"/>
                    </g>
                </g>
                <g id="Group_57647">
                    <g id="Group_57643">
                        <path id="Rectangle_1200" d="M0 0H407.944V30.475H0z" class="cls-1"/>
                    </g>
                    <g id="Group_57644" transform="translate(10.305 11.137)">
                        <path id="Path_56242" d="M202.01 91.106a4.1 4.1 0 1 1-4.1-4.1 4.1 4.1 0 0 1 4.1 4.1z" class="cls-1" transform="translate(-193.812 -87.006)"/>
                    </g>
                    <g id="Group_57645" transform="translate(41.006 10.257)">
                        <path id="Path_56243" d="M219.839 90.593a4.1 4.1 0 1 1-4.1-4.1 4.1 4.1 0 0 1 4.1 4.1z" class="cls-1" transform="translate(-211.641 -86.495)"/>
                    </g>
                    <g id="Group_57646" transform="translate(26.404 10.257)">
                        <path id="Path_56244" d="M211.361 90.593a4.1 4.1 0 1 1-4.1-4.1 4.1 4.1 0 0 1 4.1 4.1z" class="cls-1" transform="translate(-203.161 -86.495)"/>
                    </g>
                </g>
            </g>
            <g id="Group_57656" transform="translate(419.073 64.968)">
                <path id="Path_56245" d="M509.136 114.5s-16.251-6.74-27.146 31.12-13.705 59.02-13.705 59.02-3.244 8.118-9.118 4.358-15.255-15.834-23.22-11.792c-8.259 4.191-9.251 14.506-4.81 28.522s13.044 45.081 13.812 47.893c.752 2.76-.052 7.2-4.464 5.278s-31.639-22.533-40.646-9.028 9.781 50.519 11.758 54.6 1.49 6.089-.35 7.549-10.339-6.328-18.322-11.873-18.214-10.577-22.758-2.349-.749 37.991 36.469 80.33l18.529 18.489 25.5-6.416c53.728-17.058 72.342-40.593 72.695-49.985s-11-10.363-20.705-9.733-21 2.915-21.821.715-.2-4.167 3.6-6.647 38.995-24.487 38.249-40.7-34.7-12.612-39.474-13.244-3.169-4.847-1.1-6.824c2.108-2.011 25.51-24.179 36.546-33.893s15.512-19.059 10.6-26.912c-4.736-7.572-19-2.073-25.975-1.884s-5.56-8.438-5.56-8.438 8.515-19.576 18.722-57.627-7.642-40.643-7.642-40.643" class="cls-2" transform="translate(-368.64 -114.04)"/>
                <g id="Group_57649" transform="translate(44.833 34.352)">
                    <path id="Path_56246" d="M480.523 133.989s-.043.279-.171.809l-.585 2.351c-.544 2.1-1.329 5.135-2.337 9.02-2.039 7.83-5.073 19.137-8.879 33.094-7.6 27.919-18.422 66.394-30.519 108.845-12.1 42.467-23.022 80.914-30.776 108.786-3.855 13.91-6.979 25.179-9.152 33.014-1.076 3.864-1.915 6.881-2.5 8.973l-.672 2.328c-.155.523-.258.785-.258.785s.043-.279.17-.809l.586-2.351c.544-2.1 1.329-5.133 2.337-9.018 2.039-7.828 5.073-19.135 8.877-33.092 7.6-27.917 18.424-66.4 30.524-108.864 12.1-42.451 23.018-80.895 30.771-108.767l9.153-33.016 2.5-8.975.672-2.328c.155-.523.259-.785.259-.785z" class="cls-3" transform="translate(-394.675 -133.989)"/>
                </g>
                <g id="Group_57650" transform="translate(79.746 100.59)">
                    <path id="Path_56247" d="M414.957 172.455a7.629 7.629 0 0 1 1 1.61c.6 1.061 1.412 2.621 2.4 4.56 1.967 3.881 4.539 9.313 7.267 15.359l6.91 15.508 2.115 4.687a7.687 7.687 0 0 1 .7 1.76 7.736 7.736 0 0 1-1.011-1.6c-.594-1.062-1.41-2.624-2.376-4.574-1.929-3.9-4.429-9.364-7.155-15.41-2.7-5.934-5.133-11.3-7.021-15.452l-2.139-4.68a7.747 7.747 0 0 1-.69-1.768z" class="cls-3" transform="translate(-414.95 -172.454)"/>
                </g>
                <g id="Group_57651" transform="translate(102.59 118.933)">
                    <path id="Path_56248" d="M428.216 208.249c-.112-.22 10.847-6.027 24.475-12.967s24.771-12.39 24.883-12.169-10.844 6.027-24.477 12.968-24.767 12.388-24.881 12.168z" class="cls-3" transform="translate(-428.216 -183.106)"/>
                </g>
                <g id="Group_57652" transform="translate(81.071 197.32)">
                    <path id="Path_56249" d="M415.719 239.748a8.033 8.033 0 0 1 1.877-.47l5.159-.994c4.353-.84 10.361-2.022 16.945-3.563 6.587-1.526 12.5-3.11 16.778-4.288l5.066-1.386a8.074 8.074 0 0 1 1.891-.408 8.049 8.049 0 0 1-1.787.742c-1.169.42-2.871 1-4.99 1.66-4.238 1.336-10.146 3.022-16.753 4.555s-12.65 2.631-17.039 3.313c-2.2.332-3.976.58-5.213.713a8.082 8.082 0 0 1-1.934.126z" class="cls-3" transform="translate(-415.719 -228.627)"/>
                </g>
                <g id="Group_57653" transform="translate(51.753 173.652)">
                    <path id="Path_56250" d="M398.7 214.885a6.97 6.97 0 0 1 1.3 1.233c.79.832 1.913 2.056 3.284 3.58 2.743 3.048 6.487 7.3 10.578 12.03s7.761 9.051 10.382 12.2c1.31 1.577 2.357 2.864 3.067 3.766a6.957 6.957 0 0 1 1.033 1.46 6.837 6.837 0 0 1-1.3-1.231c-.79-.833-1.911-2.056-3.284-3.58-2.743-3.048-6.487-7.3-10.58-12.032s-7.759-9.049-10.379-12.2c-1.31-1.576-2.359-2.862-3.069-3.764a6.883 6.883 0 0 1-1.032-1.462z" class="cls-3" transform="translate(-398.694 -214.883)"/>
                </g>
                <g id="Group_57654" transform="translate(25.536 228.061)">
                    <path id="Path_56251" d="M383.472 246.481a11.231 11.231 0 0 1 1.641 1.6l4.222 4.574c3.537 3.888 8.374 9.3 13.676 15.314s10.069 11.494 13.483 15.491l4.009 4.761a11.166 11.166 0 0 1 1.378 1.827 11.072 11.072 0 0 1-1.639-1.6l-4.222-4.574c-3.537-3.888-8.376-9.3-13.68-15.316s-10.065-11.493-13.48-15.488l-4.009-4.763a11.184 11.184 0 0 1-1.379-1.826z" class="cls-3" transform="translate(-383.469 -246.479)"/>
                </g>
                <g id="Group_57655" transform="translate(63.324 254.578)">
                    <path id="Path_56252" d="M405.413 277.626a12.9 12.9 0 0 1 2.363-.651l6.5-1.491c5.483-1.262 13.051-3.027 21.35-5.207s15.772-4.324 21.169-5.919l6.394-1.88a12.86 12.86 0 0 1 2.378-.591 12.928 12.928 0 0 1-2.271.923c-1.481.539-3.635 1.281-6.313 2.154-5.354 1.751-12.808 4.007-21.129 6.18S419.928 275 414.4 276.1c-2.762.544-5 .961-6.559 1.214a12.831 12.831 0 0 1-2.428.312z" class="cls-3" transform="translate(-405.413 -261.877)"/>
                </g>
            </g>
            <g id="Group_57660">
                <path id="Path_56253" d="M127.031 78.55c4.5-2.6 10.139-2.8 15.121-1.3a34.183 34.183 0 0 1 13.179 8.1c7.363 6.862 12.094 17.439 14.875 27.113-10.919 2.394-22.378-3.682-27.995-7.127-8.88-5.448-21.623-20.687-15.18-26.788" class="cls-2" transform="translate(-125.278 -76.312)"/>
                <path id="Path_56254" d="M166.449 112.485c-5.345-2.28-8.929-7.861-9.452-13.649a21.952 21.952 0 0 1 5.574-16.027c1.758-2.03 4.11-3.892 6.8-3.813a7.079 7.079 0 0 1 5.826 4.178 14.363 14.363 0 0 1 1.042 7.374c-.665 8.589-2.883 16.781-9.784 21.937" class="cls-2" transform="translate(-102.43 -74.376)"/>
                <g id="Group_57657" transform="translate(62.514 18.561)">
                    <path id="Path_56255" d="M180.2 134.092a9.078 9.078 0 0 1-1.476-1.452c-.9-.976-2.18-2.413-3.7-4.245A69.279 69.279 0 0 1 165 112.741c-3.032-6.681-3.849-13.494-3.225-18.25a23.711 23.711 0 0 1 1.273-5.517 7.645 7.645 0 0 1 .87-1.882c.188.059-1.124 2.762-1.51 7.46a36.76 36.76 0 0 0 3.411 17.821 77.8 77.8 0 0 0 9.7 15.627c1.374 1.75 2.535 3.225 3.47 4.414a9.413 9.413 0 0 1 1.211 1.678z" class="cls-3" transform="translate(-161.581 -87.091)"/>
                </g>
                <g id="Group_57658" transform="translate(12.48 12.982)">
                    <path id="Path_56256" d="M132.526 83.854a3.33 3.33 0 0 1 .778.431c.575.37 1.279.827 2.135 1.378 1.846 1.209 4.482 3.007 7.715 5.266 6.466 4.517 15.266 10.949 24.792 18.3s18 14.208 24.091 19.216c2.952 2.457 5.376 4.479 7.174 5.977.77.666 1.4 1.216 1.92 1.662.432.389.651.6.63.629a3.39 3.39 0 0 1-.744-.487l-2.025-1.533-7.353-5.753c-6.192-4.88-14.723-11.646-24.241-19s-18.246-13.852-24.613-18.5l-7.545-5.49-2.04-1.517a3.386 3.386 0 0 1-.674-.579z" class="cls-3" transform="translate(-132.525 -83.851)"/>
                </g>
                <path id="Path_56257" d="M177.449 109.639a38.684 38.684 0 0 0-35.331-.828c-2.8 1.386-5.755 3.737-5.531 6.848s3.506 5.028 6.5 5.931a33.046 33.046 0 0 0 34.887-11.29" class="cls-2" transform="translate(-117.121 -55.64)"/>
                <g id="Group_57659" transform="translate(33.334 53.461)">
                    <path id="Path_56258" d="M144.636 112a8.653 8.653 0 0 1 1.738-1.011 15.133 15.133 0 0 1 2.149-.982 24.683 24.683 0 0 1 2.952-1.05 28.176 28.176 0 0 1 3.692-.909 39.032 39.032 0 0 1 4.326-.6 44.971 44.971 0 0 1 9.983.467 47.54 47.54 0 0 1 9.609 2.736 44.638 44.638 0 0 1 7.236 3.751 31.232 31.232 0 0 1 2.571 1.784 18.877 18.877 0 0 1 1.839 1.477 8.769 8.769 0 0 1 1.45 1.395c-.115.139-2.259-1.765-6.192-4.117a49.563 49.563 0 0 0-7.208-3.523 50.242 50.242 0 0 0-9.45-2.617 47.307 47.307 0 0 0-9.779-.527 41.713 41.713 0 0 0-4.252.5 30.154 30.154 0 0 0-3.649.787c-4.418 1.208-6.932 2.615-7.015 2.439z" class="cls-3" transform="translate(-144.635 -107.358)"/>
                </g>
            </g>
        </g>
        <g id="Speech_Bubble" transform="translate(52.579 166.624)">
            <g id="Group_57661">
                <path id="Path_56259" d="M134.1 178.652s.25.312.68.925c.451.647 1.076 1.55 1.884 2.714l7.1 10.387a.21.21 0 0 1-.055.293.225.225 0 0 1-.122.036l-19.6.012h-.239a.25.25 0 0 1-.214-.382l.455.382a42.792 42.792 0 0 1-18.965 9.943 43.537 43.537 0 0 1-25.1-1.794 43.992 43.992 0 0 1-12.009-7.068 42.484 42.484 0 0 1-9.43-11.171 42.748 42.748 0 0 1 73-44.486 42.43 42.43 0 0 1 6.044 16.337l.277 1.882c.081.617.071 1.231.11 1.829.034 1.2.148 2.349.112 3.453a41.936 41.936 0 0 1-.556 6.01 40.452 40.452 0 0 1-2.19 8.04c-.343.887-.641 1.562-.842 1.989a5.975 5.975 0 0 1-.339.666 4.888 4.888 0 0 1 .25-.687c.184-.467.448-1.131.761-2.03a42.823 42.823 0 0 0 2.49-13.995c.022-1.093-.1-2.232-.15-3.416-.045-.591-.04-1.2-.126-1.806l-.293-1.858a42.025 42.025 0 1 0-77.791 27.633 41.681 41.681 0 0 0 9.221 10.962 43.246 43.246 0 0 0 11.761 6.948 42.875 42.875 0 0 0 24.642 1.851 42.307 42.307 0 0 0 18.725-9.685.3.3 0 0 1 .455.382l-.453-.381a2.587 2.587 0 0 1 .909-.121l.722-.012c.475 0 .949-.007 1.416-.009h2.754l5.187.038 9.013.112-.177.329c-3-4.558-5.343-8.118-6.964-10.577l-1.781-2.748c-.395-.609-.572-.927-.572-.927z" class="cls-4" transform="translate(-52.579 -118.498)"/>
            </g>
            <g id="Group_57662" transform="translate(27.223 22.261)">
                <path id="Path_56260" d="M87.236 149.076a9.147 9.147 0 0 0 5.45-8.462c.021-5.052-3.8-9.168-8.541-9.189a8.872 8.872 0 0 0-8.617 9.109A9.133 9.133 0 0 0 81 149.076c-13.2 1.989-12.6 16.338-12.6 16.338l31.218.143s.705-14.504-12.382-16.481z" class="cls-5" transform="translate(-68.388 -131.425)"/>
            </g>
        </g>
        <g id="Window" transform="translate(252.049 51.842)">
            <g id="Group_57714">
                <g id="Group_57664" transform="translate(.449 .449)">
                    <g id="Group_57663">
                        <path id="Rectangle_1201" d="M0 0H407.944V560.706H0z" class="cls-6"/>
                    </g>
                </g>
                <g id="Group_57669" transform="translate(164.77 285.606)">
                    <g id="Group_57665">
                        <path id="Rectangle_1202" d="M0 0H175.03V29.143H0z" class="cls-2"/>
                    </g>
                    <g id="Group_57666" transform="translate(11.584 10.407)">
                        <path id="Path_56261" d="M276.405 234.9a5.581 5.581 0 1 1 5.581-5.579 5.585 5.585 0 0 1-5.581 5.579zm0-10.732a5.151 5.151 0 1 0 5.151 5.152 5.157 5.157 0 0 0-5.151-5.149z" class="cls-4" transform="translate(-270.826 -223.741)"/>
                    </g>
                    <g id="Group_57668" transform="translate(34.325 16.012)">
                        <g id="Group_57667">
                            <path id="Path_56262" d="M387.88 227.444c0 .248-23.249.449-51.922.449s-51.926-.2-51.926-.449 23.244-.444 51.926-.444 51.922.2 51.922.444z" class="cls-4" transform="translate(-284.032 -226.996)"/>
                        </g>
                    </g>
                </g>
                <g id="Group_57710" transform="translate(.449 .449)">
                    <g id="Group_57670" transform="translate(0 48.883)">
                        <path id="Rectangle_1203" d="M0 0H407.944V104.514H0z" class="cls-4"/>
                    </g>
                    <g id="Group_57671">
                        <path id="Rectangle_1204" fill="#648bb0" d="M0 0H407.944V30.475H0z"/>
                    </g>
                    <g id="Group_57672" transform="translate(10.304 11.138)">
                        <circle id="Ellipse_989" cx="4.1" cy="4.1" r="4.1" class="cls-4"/>
                    </g>
                    <g id="Group_57673" transform="translate(41.006 10.257)">
                        <path id="Path_56263" d="M200.686 62.159a4.1 4.1 0 1 1-4.1-4.1 4.1 4.1 0 0 1 4.1 4.1z" class="cls-4" transform="translate(-192.488 -58.059)"/>
                    </g>
                    <g id="Group_57674" transform="translate(26.404 10.257)">
                        <path id="Path_56264" d="M192.208 62.159a4.1 4.1 0 1 1-4.1-4.1 4.1 4.1 0 0 1 4.1 4.1z" class="cls-4" transform="translate(-184.008 -58.059)"/>
                    </g>
                    <g id="Group_57675" transform="translate(0 30.475)">
                        <path id="Rectangle_1205" d="M0 0H407.944V18.408H0z" class="cls-6"/>
                    </g>
                    <g id="Group_57677" transform="translate(79.192 221.887)">
                        <g id="Group_57676">
                            <path id="Path_56265" d="M275.672 181.405c0 .248-13.659.448-30.5.448s-30.507-.2-30.507-.448 13.656-.449 30.507-.449 30.5.201 30.5.449z" class="cls-4" transform="translate(-214.663 -180.956)"/>
                        </g>
                    </g>
                    <g id="Group_57679" transform="translate(79.192 236.212)">
                        <g id="Group_57678">
                            <path id="Path_56266" d="M275.672 189.723c0 .248-13.659.448-30.5.448s-30.507-.2-30.507-.448 13.656-.448 30.507-.448 30.5.2 30.5.448z" class="cls-4" transform="translate(-214.663 -189.275)"/>
                        </g>
                    </g>
                    <g id="Group_57681" transform="translate(79.192 248.053)">
                        <g id="Group_57680">
                            <path id="Path_56267" d="M249.27 196.6c0 .248-7.747.448-17.3.448s-17.3-.2-17.3-.448 7.746-.449 17.3-.449 17.3.201 17.3.449z" class="cls-4" transform="translate(-214.663 -196.151)"/>
                        </g>
                    </g>
                    <g id="Group_57682" transform="translate(166.066 171.469)">
                        <path id="Rectangle_1206" d="M0 0H174.06V45.884H0z" class="cls-2"/>
                    </g>
                    <g id="Group_57683" transform="translate(172.432 230.395)">
                        <path id="Path_56268" d="M286.916 194.95a9.053 9.053 0 1 1-9.054-9.053 9.054 9.054 0 0 1 9.054 9.053z" class="cls-3" transform="translate(-268.809 -185.897)"/>
                    </g>
                    <g id="Group_57685" transform="translate(209.109 232.498)">
                        <g id="Group_57684">
                            <path id="Path_56269" d="M420.349 187.566c0 .248-29.157.449-65.116.449s-65.125-.2-65.125-.449 29.152-.448 65.125-.448 65.116.201 65.116.448z" class="cls-4" transform="translate(-290.108 -187.118)"/>
                        </g>
                    </g>
                    <g id="Group_57687" transform="translate(209.109 245.418)">
                        <g id="Group_57686">
                            <path id="Path_56270" d="M357.638 195.07c0 .248-15.119.448-33.764.448s-33.767-.2-33.767-.448 15.116-.449 33.767-.449 33.764.201 33.764.449z" class="cls-4" transform="translate(-290.108 -194.621)"/>
                        </g>
                    </g>
                    <g id="Group_57688" transform="translate(304.707 260.524)">
                        <path id="Rectangle_1207" d="M0 0H34.644V4.768H0z" class="cls-5"/>
                    </g>
                    <g id="Group_57689" transform="translate(304.707 371.531)">
                        <path id="Rectangle_1208" d="M0 0H34.644V4.768H0z" class="cls-5"/>
                    </g>
                    <g id="Group_57691" transform="translate(169.2 328.423)">
                        <g id="Group_57690">
                            <path id="Path_56271" d="M402.439 243.271c0 .248-30.337.449-67.749.449-37.428 0-67.758-.2-67.758-.449s30.33-.448 67.758-.448c37.41 0 67.749.201 67.749.448z" class="cls-4" transform="translate(-266.932 -242.823)"/>
                        </g>
                    </g>
                    <g id="Group_57693" transform="translate(169.2 340.046)">
                        <g id="Group_57692">
                            <path id="Path_56272" d="M402.439 250.022c0 .248-30.337.448-67.749.448-37.428 0-67.758-.2-67.758-.448s30.33-.449 67.758-.449c37.41 0 67.749.201 67.749.449z" class="cls-4" transform="translate(-266.932 -249.573)"/>
                        </g>
                    </g>
                    <g id="Group_57695" transform="translate(169.2 351.672)">
                        <g id="Group_57694">
                            <path id="Path_56273" d="M402.439 256.772c0 .248-30.337.449-67.749.449-37.428 0-67.758-.2-67.758-.449s30.33-.448 67.758-.448c37.41 0 67.749.201 67.749.448z" class="cls-4" transform="translate(-266.932 -256.324)"/>
                        </g>
                    </g>
                    <g id="Group_57697" transform="translate(170.497 372.596)">
                        <g id="Group_57696">
                            <path id="Path_56274" d="M309.938 268.923c0 .248-9.459.448-21.126.448s-21.127-.2-21.127-.448 9.457-.448 21.127-.448 21.126.2 21.126.448z" class="cls-4" transform="translate(-267.685 -268.475)"/>
                        </g>
                    </g>
                    <g id="Group_57698" transform="translate(164.321 402.372)">
                        <path id="Rectangle_1209" d="M0 0H175.03V104.8H0z" class="cls-8"/>
                    </g>
                    <g id="Group_57699" transform="translate(164.321 445.023)">
                        <path id="Path_56275" d="M264.1 372.683l72.633-47.526L358.991 341l45.493-30.465 34.644 26.809v35.34z" class="cls-4" transform="translate(-264.099 -310.534)"/>
                    </g>
                    <g id="Group_57700" transform="translate(251.836 426.013)">
                        <circle id="Ellipse_990" cx="12.404" cy="12.404" r="12.404" class="cls-4"/>
                    </g>
                    <g id="Group_57701" transform="translate(75.56 275.068)">
                        <path id="Rectangle_1210" d="M0 0H18.232V18.232H0z" class="cls-3"/>
                    </g>
                    <g id="Group_57702" transform="translate(97.744 275.068)">
                        <path id="Rectangle_1211" d="M0 0H18.232V18.232H0z" class="cls-2"/>
                    </g>
                    <g id="Group_57703" transform="translate(120.105 275.068)">
                        <path id="Rectangle_1212" d="M0 0H18.232V18.232H0z" class="cls-2"/>
                    </g>
                    <g id="Group_57704" transform="translate(75.56 296.859)">
                        <path id="Rectangle_1213" d="M0 0H18.232V18.232H0z" class="cls-2"/>
                    </g>
                    <g id="Group_57705" transform="translate(97.744 296.859)">
                        <path id="Rectangle_1214" fill="#f5f5f5" d="M0 0H18.232V18.232H0z"/>
                    </g>
                    <g id="Group_57706" transform="translate(120.105 296.859)">
                        <path id="Rectangle_1215" d="M0 0H18.232V18.232H0z" class="cls-3"/>
                    </g>
                    <g id="Group_57707" transform="translate(75.56 318.651)">
                        <path id="Rectangle_1216" d="M0 0H18.232V18.232H0z" class="cls-3"/>
                    </g>
                    <g id="Group_57708" transform="translate(97.744 318.651)">
                        <path id="Rectangle_1217" d="M0 0H18.232V18.232H0z" class="cls-2"/>
                    </g>
                    <g id="Group_57709" transform="translate(120.105 318.651)">
                        <path id="Rectangle_1218" d="M0 0H18.232V18.232H0z" class="cls-3"/>
                    </g>
                </g>
                <g id="Group_57711" transform="translate(59.128 72.753)">
                    <path id="Rectangle_1219" d="M0 0H101.161V101.161H0z" class="cls-5" transform="rotate(-.35 101.168 .309)"/>
                    <path id="Path_56276" d="M244.953 125.171a1.858 1.858 0 1 0 2.624-.145 1.857 1.857 0 0 0-2.624.145z" class="cls-10" transform="translate(-172.622 -72.097)"/>
                    <path id="Path_56277" d="M249.775 124.133a4.347 4.347 0 0 0-5.152-.031c-.554.429-.752.828-.656.928.2.226 1.469-.718 3.23-.694 1.762 0 3.024.956 3.224.734.096-.1-.097-.503-.646-.937z" class="cls-10" transform="translate(-173.008 -73.022)"/>
                    <path id="Path_56278" d="M236.446 125.4a1.858 1.858 0 1 0 .623 2.552 1.857 1.857 0 0 0-.623-2.552z" class="cls-10" transform="translate(-180.459 -71.682)"/>
                    <path id="Path_56279" d="M238.667 125.1a4.347 4.347 0 0 0-5.152-.031c-.554.429-.753.828-.656.928.2.226 1.469-.718 3.232-.694 1.76 0 3.022.956 3.222.734.096-.098-.097-.501-.646-.937z" class="cls-10" transform="translate(-181.029 -72.322)"/>
                    <path id="Path_56280" d="M244.12 133.843c-1.956-5.089-3.752-9.132-4.011-9.032s1.118 4.3 3.074 9.392l1.416 3.571a2.49 2.49 0 0 1 .337 1.317c-.031.248-.393.355-.852.408a8.571 8.571 0 0 0-2.846.622 8.546 8.546 0 0 0 2.912.084 2.967 2.967 0 0 0 .785-.108 1.2 1.2 0 0 0 .79-.74 2.946 2.946 0 0 0-.263-1.913c-.438-1.173-.881-2.358-1.342-3.601z" class="cls-10" transform="translate(-175.799 -71.912)"/>
                    <path id="Path_56281" d="M231.732 143.555s4 9.182 16.757 7.951l-.028-1.813-.021-1.321v-.179a29.761 29.761 0 0 1-16.708-4.638z" class="cls-11" transform="translate(-181.825 -58.377)"/>
                    <path id="Path_56282" fill="#fff" d="M270.3 117.5a1.863 1.863 0 0 1-.176.11l-.091-.067c-2.409 1.014-8.717 2.927-16.884-.363-6.891-2.776-14.746-3.773-16.342-2.3s-1.407 8.326-7.813 10.845c0 0 1.448 12.657-3.561 12.915l-.019.026c-.031.029-.074.045-.105.072l-.262-5.576a8.054 8.054 0 0 0-1.047-.236 8.884 8.884 0 0 0-3.749.124c-2 .563-3.835 2.182-3.678 6.309.263 6.91 5.745 7.022 8.04 6.643l1.651 35.151 33.218-.2c.127-2.679.081-4.6.009-6.974l-.05-1.271c-12.758 1.231-16.757-7.951-16.757-7.951a29.761 29.761 0 0 0 16.707 4.637v.179c.248-.04 12.762-2.189 12.841-14.856.06-9.547-1.257-28.3-1.932-37.217zm-47.744 25.439a1.643 1.643 0 0 1-1.384.284c-1.278-.319-2.244-1.932-2.366-3.692a5.169 5.169 0 0 1 .436-2.457 2.137 2.137 0 0 1 1.539-1.415 1.151 1.151 0 0 1 .851.189.976.976 0 0 1 .365.536c.084.358-.072.532-.1.511-.046-.012 0-.189-.126-.429a.774.774 0 0 0-.914-.384 1.761 1.761 0 0 0-1.1 1.212 5.049 5.049 0 0 0-.344 2.2c.1 1.574.937 3.012 1.874 3.315a1.516 1.516 0 0 0 1.137-.065c.253-.129.363-.267.4-.241s-.007.208-.269.435zm42.916-16.059c2.511-.134 4.265 1.1 4.04 1.521-.2.467-1.913.146-3.95.27-2.037.083-3.706.575-3.957.129-.268-.4 1.354-1.8 3.866-1.922zm-23.505.387c.028-.508 1.831-.753 3.937-.846l2.643-.126c.665-.028 1.112-.062 1.254.152.134.2-.167.679-.889 1.063a7.137 7.137 0 0 1-2.917.7c-2.295.099-4.057-.465-4.029-.944zm7.422 8.574a1.857 1.857 0 1 1-.623-2.552 1.857 1.857 0 0 1 .622 2.551zm1.674-2.55c-.2.222-1.462-.737-3.222-.734-1.763-.024-3.036.92-3.232.694-.1-.1.1-.5.656-.928a4.347 4.347 0 0 1 5.152.031c.548.433.741.836.644.935zm4.813 19.039c-2.354-.789-3.389-2.661-3.165-2.754.2-.162 1.4 1.233 3.454 1.906 2.034.722 3.835.353 3.9.606.116.212-1.849 1.056-4.191.24zm6.828-5.311a1.2 1.2 0 0 1-.79.74 2.966 2.966 0 0 1-.785.108 8.546 8.546 0 0 1-2.912-.084 8.571 8.571 0 0 1 2.846-.622c.46-.053.821-.16.852-.408a2.491 2.491 0 0 0-.338-1.317l-1.415-3.571c-1.956-5.089-3.332-9.294-3.074-9.392s2.054 3.943 4.011 9.032c.461 1.243.9 2.428 1.341 3.6a2.946 2.946 0 0 1 .26 1.912zm5.173-11.891a1.858 1.858 0 1 1-.143-2.624 1.857 1.857 0 0 1 .141 2.623zm2.314-3.506c-.2.222-1.462-.737-3.224-.734-1.762-.024-3.034.92-3.23.694-.1-.1.1-.5.656-.928a4.347 4.347 0 0 1 5.152.031c.548.433.741.836.645.936z" opacity="0.2" transform="translate(-192.777 -79.573)"/>
                    <path id="Path_56283" d="M220.351 133.814c-.937-.3-1.77-1.741-1.874-3.315a5.05 5.05 0 0 1 .344-2.2 1.761 1.761 0 0 1 1.1-1.212.774.774 0 0 1 .914.384c.127.239.079.417.126.429.026.021.183-.153.1-.511a.977.977 0 0 0-.365-.536 1.151 1.151 0 0 0-.851-.189 2.137 2.137 0 0 0-1.539 1.415 5.168 5.168 0 0 0-.436 2.457c.122 1.76 1.088 3.373 2.366 3.692a1.643 1.643 0 0 0 1.385-.284c.262-.227.3-.424.269-.439s-.148.112-.4.241a1.516 1.516 0 0 1-1.139.068z" class="cls-11" transform="translate(-191.842 -70.582)"/>
                    <path id="Path_56284" d="M223.461 111.387c.2-.129-.653-1.448-2.409-1.977s-3.2.072-3.1.293c.062.251 1.367.1 2.843.565 1.479.432 2.475 1.293 2.666 1.119z" class="cls-10" transform="translate(-191.782 -83.187)"/>
                    <path id="Path_56285" d="M222.909 113.9a27.9 27.9 0 0 1-1.243-3.671c-.43-2.111-.41-3.955-.689-3.964-.21-.021-.651 1.829-.189 4.152a5.952 5.952 0 0 0 1.96 3.568c.067.034.119.048.141.024s.025-.057.02-.109z" class="cls-10" transform="translate(-189.874 -85.3)"/>
                    <path id="Path_56286" d="M246.688 123.357c2.037-.124 3.747.2 3.95-.27.226-.425-1.529-1.655-4.04-1.521s-4.135 1.521-3.868 1.92c.252.446 1.921-.046 3.958-.129z" class="cls-10" transform="translate(-173.905 -74.261)"/>
                    <path id="Path_56287" d="M235.343 123.148a7.137 7.137 0 0 0 2.917-.7c.722-.384 1.023-.866.889-1.062-.141-.214-.589-.179-1.254-.152l-2.643.126c-2.106.093-3.909.338-3.937.846-.027.476 1.734 1.04 4.028.942z" class="cls-10" transform="translate(-182.126 -74.51)"/>
                    <path id="Path_56288" d="M237.566 134.747c-.224.093.811 1.965 3.165 2.753 2.342.816 4.307-.031 4.186-.241-.062-.253-1.863.115-3.9-.606-2.047-.673-3.246-2.067-3.451-1.906z" class="cls-10" transform="translate(-177.634 -64.746)"/>
                    <path id="Path_56289" d="M272.3 105.6a14.677 14.677 0 0 0-16.475-2.17c-2.406 1.283-4.462 3.258-7.064 4.076-3.115.978-6.464.141-9.721-.105s-7.052.417-8.694 3.239c-1.059 1.817-1.006 4.221-2.423 5.776a4.15 4.15 0 0 1-.809.685c.005.05 0 .09-.021.108s-.074.01-.141-.024c-2.01 1.2-4.878.866-7.214 1.676a7.737 7.737 0 0 0-4.942 6.4 9.206 9.206 0 0 0 3.024 7.639c1.205 1.1 2.719 1.949 3.482 3.391.9 1.71.515 3.742.251 5.684a8.884 8.884 0 0 1 3.749-.124 8.063 8.063 0 0 1 1.047.236l.262 5.576c.031-.028.074-.043.105-.072l.019-.026c5.009-.258 3.561-12.915 3.561-12.915 6.406-2.519 6.216-9.376 7.813-10.845s9.45-.472 16.342 2.3c8.167 3.291 14.475 1.378 16.884.363l.091.067a1.866 1.866 0 0 0 .176-.11c.145-.09.288-.183.432-.272.243-.119.377-.2.377-.2v-.04a9.806 9.806 0 0 0 3.177-4.028A14.678 14.678 0 0 0 272.3 105.6z" class="cls-10" transform="translate(-194.084 -88.501)"/>
                </g>
                <g id="Group_57713">
                    <g id="Group_57712">
                        <path id="Path_56290" d="M576.4 52.291l.406.406c-122.909.012-261.619.028-407.9.041h-.046l.448-.448-.083 560.7-.365-.365 407.947.375-407.943.367h-.364V613l-.084-560.7v-.449h.5l407.9.043h.406v.406c-.239 331.689-.4 557.109-.406 560.7" class="cls-4" transform="translate(-168.414 -51.842)"/>
                    </g>
                </g>
            </g>
        </g>
        <g id="Character" transform="translate(87.124 197.771)">
            <g id="Group_57882">
                <g id="Group_57720" transform="translate(0 122.308)">
                    <g id="Group_57716" transform="translate(0 122.234)">
                        <g id="Group_57715">
                            <path id="Path_56291" d="M93.685 281.206l2.223 4.73a44.681 44.681 0 0 0 3.577 8.026 12.829 12.829 0 0 0 2.712 3.408 19.531 19.531 0 0 0 4.388 3.2c1.548.635 1.519 2.821.045 3.186s-5.783-1.279-9.454-5.219-3.1 4.515-2.95 7.6.174 12.653-.737 13.451c-1.336 1.171-2.838-.045-2.917-3.131-.081-3.122-.971-12.318-2.6-12.159-1.6.157-.613 15.851-.613 15.851s.754 3.322-1.119 3.568c-3.377.444-3.2-16.318-3.141-17.914.038-1.107-1.734-1-1.712.195.022 1.228 1.35 15.632-2.085 16.116-2.635.372.019-13.788-1.917-16.624s-.92 10.943-3.451 11.2c-.944.093-1.66.033-1.1-7.964.573-8.19 5.738-30.125 5.738-30.125l15.324 2.84" class="cls-13" transform="translate(-72.64 -278.594)"/>
                        </g>
                    </g>
                    <g id="Group_57717" transform="translate(2.414)">
                        <path id="Path_56292" d="M153.79 215.024s-48.278 47.073-49.36 53.171-8.054 73.644-8.054 73.644l-22.042-2.192s-2.08-83.275 4.841-91.73 34.387-40.305 34.387-40.305z" class="cls-13" transform="translate(-74.042 -207.611)"/>
                    </g>
                    <g id="Group_57719" transform="translate(8.277 41.807)">
                        <g id="Group_57718">
                            <path id="Path_56293" d="M78.737 239.185c-.029.029-.3-.162-.637-.66a4.28 4.28 0 0 1 1.106-5.736 4.36 4.36 0 0 1 4.546-.46 3.446 3.446 0 0 1 1.7 1.831 3.1 3.1 0 0 1-.057 2.345 2.506 2.506 0 0 1-3.475 1.164 2.056 2.056 0 0 1-.847-2.371c.214-.6.57-.754.582-.722.048.043-.208.269-.3.8a1.768 1.768 0 0 0 .828 1.844 1.949 1.949 0 0 0 2.6-.988 2.438 2.438 0 0 0 0-1.812 2.773 2.773 0 0 0-1.359-1.429 3.741 3.741 0 0 0-3.816.353 3.79 3.79 0 0 0-1.636 2.788 5.6 5.6 0 0 0 .765 3.053z" class="cls-14" transform="translate(-77.446 -231.889)"/>
                        </g>
                    </g>
                </g>
                <g id="Group_57875" transform="translate(1.771)">
                    <g id="Group_57721" transform="translate(173.906 8.677)">
                        <path id="Path_56294" d="M181.141 142.145c-.334.925-4.575 61.775-4.575 61.775L201 202.062l6.03-52.955z" class="cls-8" transform="translate(-173.281 -141.247)"/>
                        <path id="Path_56295" d="M177.943 204.3l-3.285-.936 4.713-61.737 3.539 1z" class="cls-4" transform="translate(-174.658 -141.624)"/>
                        <circle id="Ellipse_991" cx="1.423" cy="1.423" r="1.423" class="cls-4" transform="translate(20.421 14.007)"/>
                    </g>
                    <path id="Path_56296" d="M178.454 222.442l43.037 11.176-6.806-51.018-.873-2.433-15.777-2.437 1.889-11.637a9.466 9.466 0 0 1 11.746-7.484c1.722.456 3.535.939 5.175 1.376a13.448 13.448 0 0 1 8.534 6.864c2.993 5.862 5.91 12.269 5.631 11.718l23.08 62.6a23.671 23.671 0 0 1-2.554 25.236c-7.441 9.661-25.4 2.936-33.855 1.3l-55.129-12.14z" class="cls-13" transform="translate(-9.492 -120.914)"/>
                    <g id="Group_57874">
                        <g id="Group_57873">
                            <g id="Group_57746" transform="translate(71.414)">
                                <path id="Path_56297" d="M126.8 175.942a2.674 2.674 0 0 1-3.59 3.363c-1.81-.8-2.165-3.213-1.925-5.176s.789-4.073-.124-5.827c-.7-1.341-2.1-2.139-3.21-3.165a8.536 8.536 0 0 1-2.76-7.1 7.175 7.175 0 0 1 4.618-5.9c2.549-.864 5.779-.243 7.6-2.221 1.321-1.433 1.286-3.661 2.278-5.342 1.539-2.605 5.063-3.2 8.08-2.952s6.12 1.04 9.013.152c2.416-.744 4.334-2.564 6.573-3.74a13.251 13.251 0 0 1 18.217 17.227 8.456 8.456 0 0 1-3.883 4.284" class="cls-4" transform="translate(-115.139 -136.585)"/>
                                <g id="Group_57737" transform="translate(10.041 16.093)">
                                    <g id="Group_57736">
                                        <g id="Group_57735">
                                            <g id="Group_57722">
                                                <path id="Path_56298" d="M125.6 220.572l28.515-2.277c.177-3.329-.06-16.209-.06-16.209s11.863-1.844 12.009-13.706-1.91-39.1-1.91-39.1a41.223 41.223 0 0 0-41.423 5.207l-1.758 1.354z" class="cls-13" transform="translate(-120.97 -145.93)"/>
                                            </g>
                                            <g id="Group_57726" transform="translate(37.323 19.342)">
                                                <g id="Group_57723" transform="translate(2.564 1.395)">
                                                    <path id="Path_56299" d="M144.7 160.971a1.723 1.723 0 1 1 2.433-.119 1.723 1.723 0 0 1-2.433.119z" class="cls-4" transform="translate(-144.133 -157.973)"/>
                                                </g>
                                                <g id="Group_57725">
                                                    <g id="Group_57724">
                                                        <path id="Path_56300" d="M148.649 158.849c-.186.2-1.35-.691-2.984-.7-1.634-.031-2.819.837-3 .627-.088-.093.1-.463.615-.858a4.023 4.023 0 0 1 4.775.059c.508.407.683.781.594.872z" class="cls-4" transform="translate(-142.644 -157.163)"/>
                                                    </g>
                                                </g>
                                            </g>
                                            <g id="Group_57730" transform="translate(19.577 20.782)">
                                                <g id="Group_57727" transform="translate(2.303 1.416)">
                                                    <path id="Path_56301" d="M136.3 159.076a1.722 1.722 0 1 1-2.369.565 1.724 1.724 0 0 1 2.369-.565z" class="cls-4" transform="translate(-133.676 -158.821)"/>
                                                </g>
                                                <g id="Group_57729">
                                                    <g id="Group_57728">
                                                        <path id="Path_56302" d="M138.344 159.685c-.186.2-1.35-.692-2.984-.7-1.634-.033-2.819.835-3 .627-.088-.095.1-.465.615-.858a4.026 4.026 0 0 1 4.775.057c.508.407.683.783.594.874z" class="cls-4" transform="translate(-132.339 -157.999)"/>
                                                    </g>
                                                </g>
                                            </g>
                                            <g id="Group_57732" transform="translate(31.146 21.741)">
                                                <g id="Group_57731">
                                                    <path id="Path_56303" d="M140.044 172.759a7.957 7.957 0 0 1 2.643-.56c.427-.045.763-.143.794-.372a2.344 2.344 0 0 0-.307-1.224l-1.292-3.32c-1.786-4.729-3.038-8.636-2.8-8.725s1.88 3.668 3.666 8.4l1.223 3.346a2.727 2.727 0 0 1 .234 1.775 1.121 1.121 0 0 1-.737.682 2.76 2.76 0 0 1-.728.1 7.9 7.9 0 0 1-2.696-.102z" class="cls-4" transform="translate(-139.057 -158.556)"/>
                                                </g>
                                            </g>
                                            <g id="Group_57733" transform="translate(26.732 37.749)">
                                                <path id="Path_56304" d="M136.587 167.852a30.572 30.572 0 0 0 8.013 2.328 4.515 4.515 0 0 1-5.328 1.8c-3.551-1.302-2.685-4.128-2.685-4.128z" class="cls-15" transform="translate(-136.494 -167.852)"/>
                                            </g>
                                            <g id="Group_57734" transform="translate(17.637 51.591)">
                                                <path id="Path_56305" d="M146.676 180.285a27.586 27.586 0 0 1-15.464-4.395s3.656 8.536 15.491 7.468z" class="cls-14" transform="translate(-131.212 -175.89)"/>
                                            </g>
                                        </g>
                                    </g>
                                </g>
                                <path id="Path_56306" d="M165.526 153.478s-6.94 4.017-16.654.034c-6.373-2.612-13.65-3.582-15.138-2.228s-1.353 7.711-7.3 10.012c0 0 1.312 12.054-3.539 11.978s-3.224-19.014-3.224-19.014l11.362-6.628 12.683-3.382 12.247.811 9.568 1.874z" class="cls-4" transform="translate(-112.059 -131.051)"/>
                                <g id="Group_57741" transform="translate(3.604 37.917)">
                                    <g id="Group_57738">
                                        <path id="Path_56307" d="M125.131 158.978c-.2-.088-8.15-2.411-7.892 5.7s8.348 6.177 8.355 5.944-.463-11.644-.463-11.644z" class="cls-13" transform="translate(-117.232 -158.604)"/>
                                    </g>
                                    <g id="Group_57740" transform="translate(2.065 2.655)">
                                        <g id="Group_57739">
                                            <path id="Path_56308" d="M122.152 166.514c-.036-.026-.138.1-.374.22a1.416 1.416 0 0 1-1.056.055c-.866-.288-1.631-1.624-1.717-3.084a4.655 4.655 0 0 1 .331-2.035 1.638 1.638 0 0 1 1.028-1.119.72.72 0 0 1 .846.362c.115.222.071.386.114.4.022.019.169-.143.093-.475a.9.9 0 0 0-.334-.5 1.067 1.067 0 0 0-.789-.181 1.985 1.985 0 0 0-1.436 1.3 4.8 4.8 0 0 0-.417 2.276c.1 1.632.99 3.134 2.173 3.435a1.51 1.51 0 0 0 1.285-.255c.244-.203.282-.385.253-.399z" class="cls-14" transform="translate(-118.432 -160.146)"/>
                                        </g>
                                    </g>
                                </g>
                                <g id="Group_57742" transform="translate(5.993 12.665)">
                                    <path id="Path_56309" d="M118.624 144.433c-.093-.222 1.257-.8 2.888-.284s2.416 1.746 2.215 1.877c-.193.17-1.116-.613-2.481-1.021-1.356-.442-2.562-.321-2.622-.572z" class="cls-4" transform="translate(-118.619 -143.94)"/>
                                </g>
                                <g id="Group_57743" transform="translate(10.2 8.042)">
                                    <path id="Path_56310" d="M121.468 141.255c.277.01.263 1.72.647 3.673s1.286 3.354 1.081 3.518c-.16.174-1.534-1.14-1.96-3.337-.416-2.163.018-3.876.232-3.854z" class="cls-4" transform="translate(-121.063 -141.255)"/>
                                </g>
                                <g id="Group_57744" transform="translate(45.394 32.625)">
                                    <path id="Path_56311" d="M141.531 157.363c-.265-.4 1.247-1.725 3.592-1.825s3.969 1.073 3.742 1.5c-.208.465-1.791.191-3.663.294-1.872.062-3.423.476-3.671.031z" class="cls-4" transform="translate(-141.501 -155.531)"/>
                                </g>
                                <g id="Group_57745" transform="translate(27.196 31.104)">
                                    <path id="Path_56312" d="M130.963 156.479c-.265-.4 1.247-1.725 3.592-1.824s3.969 1.071 3.742 1.5c-.208.465-1.789.189-3.661.294-1.874.061-3.425.476-3.673.03z" class="cls-4" transform="translate(-130.933 -154.648)"/>
                                </g>
                            </g>
                            <g id="Group_57756" transform="translate(1.876 534.169)">
                                <path id="Path_56313" d="M104.391 446.785l-2.828 11.872s-19.416 25.221-25.4 23.988c-3.924-.809.9-7.389 8.285-26.545l1.55-7.911z" class="cls-8" transform="translate(-74.758 -446.785)"/>
                                <g id="Group_57747" transform="translate(.61 9.02)">
                                    <path id="Path_56314" d="M75.112 475.138a2.537 2.537 0 0 0 1.037.99 3.591 3.591 0 0 0 3.714-.517 108.613 108.613 0 0 0 9.662-9.158c3.6-3.773 6.616-7.4 8.739-10.076.942-1.212 1.767-2.273 2.481-3.194l.673-.871a1.55 1.55 0 0 1 .255-.289 1.6 1.6 0 0 1-.2.331c-.195.288-.4.587-.62.913-.546.784-1.357 1.9-2.392 3.268a125.75 125.75 0 0 1-8.676 10.165A94.587 94.587 0 0 1 80 475.823a4.582 4.582 0 0 1-2.194.806 3.179 3.179 0 0 1-1.725-.377 2.163 2.163 0 0 1-.816-.759 1.076 1.076 0 0 1-.153-.355z" class="cls-4" transform="translate(-75.112 -452.023)"/>
                                </g>
                                <g id="Group_57748" transform="translate(3.36 23.833)">
                                    <path id="Path_56315" d="M76.709 460.819a3.1 3.1 0 0 1 1.6-.179 8.309 8.309 0 0 1 3.663 1.271 6.7 6.7 0 0 1 2.661 2.812 3.427 3.427 0 0 1 .417 1.553c-.062.017-.186-.589-.644-1.438a7.124 7.124 0 0 0-2.623-2.623 9.249 9.249 0 0 0-3.5-1.324c-.961-.134-1.565-.01-1.574-.072z" class="cls-4" transform="translate(-76.709 -460.625)"/>
                                </g>
                                <g id="Group_57749" transform="translate(21.019 6.154)">
                                    <path id="Path_56316" d="M87.688 462.313a1.893 1.893 0 0 1-.234-.568 10.327 10.327 0 0 1-.384-1.627 8.824 8.824 0 0 1 .9-5.4 8.334 8.334 0 0 1 3.93-3.818 6.418 6.418 0 0 1 1.6-.494 1.8 1.8 0 0 1 .615-.036 14 14 0 0 0-2.109.759 8.584 8.584 0 0 0-3.716 3.749 9.126 9.126 0 0 0-.973 5.207c.161 1.38.433 2.215.371 2.228z" class="cls-4" transform="translate(-86.964 -450.359)"/>
                                </g>
                                <g id="Group_57750" transform="translate(26.659 2.012)">
                                    <path id="Path_56317" d="M91.977 447.954c.088.033-.35 1.691-.711 3.788a12.715 12.715 0 0 1-1.016 3.733c-.079-.029.308-1.694.663-3.8a12.464 12.464 0 0 1 1.064-3.721z" class="cls-4" transform="translate(-90.239 -447.954)"/>
                                </g>
                                <g id="Group_57751" transform="translate(9.34 10.842)">
                                    <path id="Path_56318" d="M80.182 453.229a5.8 5.8 0 0 1 4.739 1.094c-.053.093-1.026-.425-2.33-.718-1.302-.305-2.402-.269-2.409-.376z" class="cls-4" transform="translate(-80.182 -453.081)"/>
                                </g>
                                <g id="Group_57752" transform="translate(8.941 12.818)">
                                    <path id="Path_56319" d="M79.95 454.434a3.915 3.915 0 0 1 3.938.935c-.06.088-.837-.417-1.922-.666-1.081-.266-2-.164-2.016-.269z" class="cls-4" transform="translate(-79.95 -454.229)"/>
                                </g>
                                <g id="Group_57753" transform="translate(7.389 15.201)">
                                    <path id="Path_56320" d="M79.051 455.987a3.169 3.169 0 0 1 4.012.911 9.383 9.383 0 0 0-1.918-.846 9.347 9.347 0 0 0-2.094-.065z" class="cls-4" transform="translate(-79.049 -455.612)"/>
                                </g>
                                <g id="Group_57754" transform="translate(10.677 5.246)">
                                    <path id="Path_56321" d="M80.958 454.723c-.014-.059.9-.245 2.28-.782a17.568 17.568 0 0 0 2.34-1.126c.424-.245.859-.522 1.29-.825.394-.293.828-.723.813-1.18s-.587-.708-1.03-.594a2.826 2.826 0 0 0-1.2.8c-.715.673-1.324 1.316-1.82 1.868-.992 1.111-1.545 1.853-1.589 1.82a2.079 2.079 0 0 1 .327-.565c.236-.348.592-.84 1.069-1.421a25.1 25.1 0 0 1 1.784-1.942 3.068 3.068 0 0 1 1.348-.9 1.136 1.136 0 0 1 1.467.918 1.946 1.946 0 0 1-.966 1.483 15.327 15.327 0 0 1-3.747 1.9 13.216 13.216 0 0 1-1.719.467 2.042 2.042 0 0 1-.647.079z" class="cls-4" transform="translate(-80.958 -449.832)"/>
                                </g>
                                <g id="Group_57755" transform="translate(8.12 3.499)">
                                    <path id="Path_56322" d="M83.049 455.211a20.676 20.676 0 0 1-.358-2.168 9.041 9.041 0 0 0-.663-2.244 4.79 4.79 0 0 0-.723-1.143c-.3-.336-.746-.622-1.106-.41-.353.195-.412.739-.356 1.178a5.432 5.432 0 0 0 .377 1.3 7.478 7.478 0 0 0 1.267 1.953c.9 1 1.6 1.479 1.562 1.531a1.746 1.746 0 0 1-.515-.3 8.915 8.915 0 0 1-1.233-1.057 7.116 7.116 0 0 1-1.383-1.992 5.394 5.394 0 0 1-.424-1.393 1.485 1.485 0 0 1 .532-1.536 1.294 1.294 0 0 1 1.539.489 5 5 0 0 1 .763 1.242 8.482 8.482 0 0 1 .613 2.339c.088.68.112 1.231.126 1.612a1.892 1.892 0 0 1-.018.599z" class="cls-4" transform="translate(-79.473 -448.817)"/>
                                </g>
                            </g>
                            <g id="Group_57806" transform="translate(97.681 523.974)">
                                <g id="Group_57805">
                                    <g id="Group_57759" transform="translate(.41)">
                                        <g id="Group_57758">
                                            <g id="Group_57757">
                                                <path id="Path_56323" d="M160.577 457.059l.091-15.834-29.658-.36-.379 23.165 1.837.139c8.18.554 41.624 2.239 47.116.647 6.124-1.777-19.007-7.757-19.007-7.757z" class="cls-8" transform="translate(-130.631 -440.865)"/>
                                            </g>
                                        </g>
                                    </g>
                                    <g id="Group_57762" transform="translate(0 22.465)">
                                        <g id="Group_57761">
                                            <g id="Group_57760">
                                                <path id="Path_56324" d="M130.393 453.923a2.529 2.529 0 0 0 .51.062l1.464.107 5.386.3c4.551.22 10.844.444 17.794.539s13.251.04 17.806-.06l5.393-.155 1.465-.067a2.722 2.722 0 0 0 .51-.048 2.712 2.712 0 0 0-.511-.024h-1.467l-5.393.041c-4.555.035-10.847.047-17.8-.047s-13.235-.277-17.788-.434l-5.39-.186-1.467-.04a2.81 2.81 0 0 0-.512.012z" class="cls-4" transform="translate(-130.393 -453.911)"/>
                                            </g>
                                        </g>
                                    </g>
                                    <g id="Group_57765" transform="translate(39.897 19.191)">
                                        <g id="Group_57764">
                                            <g id="Group_57763">
                                                <path id="Path_56325" d="M153.61 456.62a7.844 7.844 0 0 1 2.9-4.6 4.794 4.794 0 0 0-2.9 4.6z" class="cls-4" transform="translate(-153.562 -452.01)"/>
                                            </g>
                                        </g>
                                    </g>
                                    <g id="Group_57768" transform="translate(31.237 16.798)">
                                        <g id="Group_57767">
                                            <g id="Group_57766">
                                                <path id="Path_56326" d="M148.547 453.072c.084.055.508-.449.951-1.126s.732-1.267.647-1.323-.508.451-.949 1.126-.732 1.27-.649 1.323z" class="cls-4" transform="translate(-148.533 -450.62)"/>
                                            </g>
                                        </g>
                                    </g>
                                    <g id="Group_57771" transform="translate(28.859 16.3)">
                                        <g id="Group_57770">
                                            <g id="Group_57769">
                                                <path id="Path_56327" d="M147.159 451.981c.065.074.537-.231 1.054-.684s.883-.88.818-.956-.537.232-1.054.685-.883.881-.818.955z" class="cls-4" transform="translate(-147.152 -450.331)"/>
                                            </g>
                                        </g>
                                    </g>
                                    <g id="Group_57774" transform="translate(27.383 14.985)">
                                        <g id="Group_57773">
                                            <g id="Group_57772">
                                                <path id="Path_56328" d="M146.295 449.713a6.757 6.757 0 0 0 3.1.074 6.757 6.757 0 0 0-3.1-.074z" class="cls-4" transform="translate(-146.295 -449.567)"/>
                                            </g>
                                        </g>
                                    </g>
                                    <g id="Group_57777" transform="translate(26.886 13.123)">
                                        <g id="Group_57776">
                                            <g id="Group_57775">
                                                <path id="Path_56329" d="M146.007 448.514a4.353 4.353 0 0 0 3.506.31 9.5 9.5 0 0 0-1.753-.143 9.594 9.594 0 0 0-1.753-.167z" class="cls-4" transform="translate(-146.006 -448.486)"/>
                                            </g>
                                        </g>
                                    </g>
                                    <g id="Group_57780" transform="translate(32.291 14.057)">
                                        <g id="Group_57779">
                                            <g id="Group_57778">
                                                <path id="Path_56330" d="M149.145 451.647a5.432 5.432 0 0 0 1.9.012 10.994 10.994 0 0 0 2.035-.422 5.5 5.5 0 0 0 1.167-.463 1.035 1.035 0 0 0 .479-.586.75.75 0 0 0-.279-.766 3.494 3.494 0 0 0-4.334.968 3.419 3.419 0 0 0-.639 1.264 1.077 1.077 0 0 0-.055.515 5.357 5.357 0 0 1 .889-1.615 3.429 3.429 0 0 1 1.641-1.037 2.959 2.959 0 0 1 2.27.182c.3.229.177.582-.162.778a5.578 5.578 0 0 1-1.076.444 12.972 12.972 0 0 1-1.97.486c-1.139.193-1.866.182-1.866.24z" class="cls-4" transform="translate(-149.145 -449.028)"/>
                                            </g>
                                        </g>
                                    </g>
                                    <g id="Group_57783" transform="translate(30.332 13.066)">
                                        <g id="Group_57782">
                                            <g id="Group_57781">
                                                <path id="Path_56331" d="M150.459 452.164a1.893 1.893 0 0 0 .236-1.321 3.122 3.122 0 0 0-.5-1.4 1.911 1.911 0 0 0-1.574-.992.758.758 0 0 0-.6.871 2.084 2.084 0 0 0 .313.856 5.7 5.7 0 0 0 .885 1.164 2.722 2.722 0 0 0 1.081.785c.034-.045-.375-.346-.894-.956a6.8 6.8 0 0 1-.784-1.154c-.257-.406-.425-1.131.053-1.212.477-.04.959.441 1.245.825a3.148 3.148 0 0 1 .524 1.245 7.021 7.021 0 0 1 .015 1.289z" class="cls-4" transform="translate(-148.007 -448.453)"/>
                                            </g>
                                        </g>
                                    </g>
                                    <g id="Group_57786" transform="translate(.709 14.191)">
                                        <g id="Group_57785">
                                            <g id="Group_57784">
                                                <path id="Path_56332" d="M130.805 449.285c.005.067.851-.069 2.189.105a9.292 9.292 0 0 1 7.689 6.29c.437 1.278.47 2.134.537 2.125a1.724 1.724 0 0 0 .009-.6 7.768 7.768 0 0 0-.3-1.6 9.014 9.014 0 0 0-7.9-6.468 7.849 7.849 0 0 0-1.631.022 1.774 1.774 0 0 0-.593.126z" class="cls-4" transform="translate(-130.805 -449.106)"/>
                                            </g>
                                        </g>
                                    </g>
                                    <g id="Group_57789" transform="translate(3.548 2.068)">
                                        <g id="Group_57788">
                                            <g id="Group_57787">
                                                <path id="Path_56333" d="M132.845 442.066a103.758 103.758 0 0 0-.31 12.187 102.8 102.8 0 0 0 .31-12.187z" class="cls-4" transform="translate(-132.453 -442.066)"/>
                                            </g>
                                        </g>
                                    </g>
                                    <g id="Group_57792" transform="translate(14.935 20.186)">
                                        <g id="Group_57791">
                                            <g id="Group_57790">
                                                <path id="Path_56334" d="M139.066 452.62a24.38 24.38 0 0 0 8.667.191c-.009-.1-1.946-.01-4.334-.067s-4.319-.23-4.333-.124z" class="cls-4" transform="translate(-139.066 -452.587)"/>
                                            </g>
                                        </g>
                                    </g>
                                    <g id="Group_57795" transform="translate(9.109 20.124)">
                                        <g id="Group_57794">
                                            <g id="Group_57793">
                                                <path id="Path_56335" d="M135.7 452.563c-.072.071.153.412.346.859s.294.842.4.837.16-.467-.067-.982-.617-.786-.679-.714z" class="cls-4" transform="translate(-135.683 -452.551)"/>
                                            </g>
                                        </g>
                                    </g>
                                    <g id="Group_57798" transform="translate(6.952 17.367)">
                                        <g id="Group_57797">
                                            <g id="Group_57796">
                                                <path id="Path_56336" d="M134.445 450.964c-.072.069.115.381.418.7s.606.515.678.446-.115-.381-.418-.7-.605-.515-.678-.446z" class="cls-4" transform="translate(-134.43 -450.95)"/>
                                            </g>
                                        </g>
                                    </g>
                                    <g id="Group_57801" transform="translate(3.847 15.932)">
                                        <g id="Group_57800">
                                            <g id="Group_57799">
                                                <path id="Path_56337" d="M132.629 450.281c.019.1.413.1.847.262s.744.394.823.327-.164-.479-.7-.666-.999-.016-.97.077z" class="cls-4" transform="translate(-132.627 -450.117)"/>
                                            </g>
                                        </g>
                                    </g>
                                    <g id="Group_57804" transform="translate(1.619 15.414)">
                                        <g id="Group_57803">
                                            <g id="Group_57802">
                                                <path id="Path_56338" d="M131.338 449.881c-.036.093.133.246.377.344s.474.105.51.012-.131-.246-.375-.344-.474-.103-.512-.012z" class="cls-4" transform="translate(-131.333 -449.816)"/>
                                            </g>
                                        </g>
                                    </g>
                                </g>
                            </g>
                            <g id="Group_57870" transform="translate(0 225.706)">
                                <path id="Path_56339" d="M221.886 267.656L208.044 575.3l-46.185.97 7.67-257.552-51.95 259.52H73.668l58.646-310.577" class="cls-4" transform="translate(-73.668 -267.656)"/>
                                <g id="Group_57838" transform="translate(10.35 6.99)">
                                    <g id="Group_57807" transform="translate(0 299.134)">
                                        <path id="Path_56340" d="M80.383 445.429c.245.041.346.644.229 1.347s-.412 1.24-.656 1.2-.346-.644-.229-1.347.412-1.241.656-1.2z" class="cls-8" transform="translate(-79.679 -445.427)"/>
                                    </g>
                                    <g id="Group_57808" transform="translate(1.361 289.063)">
                                        <path id="Path_56341" d="M81.5 439.579c.245.041.253 1.2.019 2.593s-.62 2.485-.864 2.443-.253-1.2-.019-2.593.623-2.482.864-2.443z" class="cls-8" transform="translate(-80.469 -439.578)"/>
                                    </g>
                                    <g id="Group_57809" transform="translate(3.052 278.991)">
                                        <path id="Path_56342" d="M82.488 433.731c.245.041.251 1.2.019 2.592s-.622 2.487-.866 2.445-.253-1.2-.019-2.593.621-2.486.866-2.444z" class="cls-8" transform="translate(-81.451 -433.729)"/>
                                    </g>
                                    <g id="Group_57810" transform="translate(4.746 268.917)">
                                        <path id="Path_56343" d="M83.47 427.88c.245.041.253 1.2.019 2.592s-.622 2.487-.866 2.445-.251-1.2-.017-2.593.621-2.485.864-2.444z" class="cls-8" transform="translate(-82.435 -427.879)"/>
                                    </g>
                                    <g id="Group_57811" transform="translate(6.442 258.841)">
                                        <path id="Path_56344" d="M84.457 422.029c.245.041.251 1.2.017 2.593s-.622 2.485-.866 2.444-.251-1.2-.017-2.592.621-2.486.866-2.445z" class="cls-8" transform="translate(-83.42 -422.028)"/>
                                    </g>
                                    <g id="Group_57812" transform="translate(8.141 248.768)">
                                        <path id="Path_56345" d="M85.444 416.179c.245.041.253 1.2.017 2.593s-.623 2.485-.868 2.444-.251-1.2-.016-2.593.623-2.485.867-2.444z" class="cls-8" transform="translate(-84.406 -416.178)"/>
                                    </g>
                                    <g id="Group_57813" transform="translate(9.843 238.692)">
                                        <path id="Path_56346" d="M86.437 410.328c.243.043.25 1.2.016 2.6s-.625 2.485-.87 2.444-.251-1.2-.015-2.6.624-2.483.869-2.444z" class="cls-8" transform="translate(-85.395 -410.327)"/>
                                    </g>
                                    <g id="Group_57814" transform="translate(11.551 228.62)">
                                        <path id="Path_56347" d="M87.431 404.479c.245.041.25 1.2.014 2.6s-.627 2.487-.871 2.445-.25-1.2-.014-2.6.626-2.486.871-2.445z" class="cls-8" transform="translate(-86.387 -404.478)"/>
                                    </g>
                                    <g id="Group_57815" transform="translate(13.266 218.548)">
                                        <path id="Path_56348" d="M88.427 398.631c.245.041.25 1.2.014 2.593s-.629 2.483-.871 2.442-.25-1.2-.014-2.593.628-2.486.871-2.442z" class="cls-8" transform="translate(-87.382 -398.629)"/>
                                    </g>
                                    <g id="Group_57816" transform="translate(14.985 208.476)">
                                        <path id="Path_56349" d="M89.43 392.781c.245.041.248 1.2.01 2.593s-.629 2.485-.873 2.442-.248-1.2-.01-2.593.628-2.483.873-2.442z" class="cls-8" transform="translate(-88.381 -392.78)"/>
                                    </g>
                                    <g id="Group_57817" transform="translate(16.713 198.406)">
                                        <path id="Path_56350" d="M90.436 386.933c.245.043.248 1.2.009 2.593s-.63 2.485-.875 2.442-.248-1.2-.009-2.593.631-2.483.875-2.442z" class="cls-8" transform="translate(-89.384 -386.932)"/>
                                    </g>
                                    <g id="Group_57818" transform="translate(18.448 188.339)">
                                        <path id="Path_56351" d="M91.448 381.087c.243.041.246 1.2.005 2.593s-.632 2.481-.877 2.44-.246-1.2-.007-2.593.631-2.483.879-2.44z" class="cls-8" transform="translate(-90.392 -381.086)"/>
                                    </g>
                                    <g id="Group_57819" transform="translate(20.192 178.272)">
                                        <path id="Path_56352" d="M92.464 375.241c.243.041.245 1.2 0 2.593s-.635 2.481-.88 2.44-.245-1.2 0-2.6.636-2.474.88-2.433z" class="cls-8" transform="translate(-91.405 -375.24)"/>
                                    </g>
                                    <g id="Group_57820" transform="translate(21.945 168.207)">
                                        <path id="Path_56353" d="M93.486 369.4c.245.041.246 1.2 0 2.593s-.637 2.481-.882 2.438-.245-1.2 0-2.593.639-2.485.882-2.438z" class="cls-8" transform="translate(-92.423 -369.395)"/>
                                    </g>
                                    <g id="Group_57821" transform="translate(23.71 158.143)">
                                        <path id="Path_56354" d="M94.516 363.553c.243.043.243 1.2 0 2.593s-.641 2.48-.885 2.438-.243-1.205 0-2.6.641-2.475.885-2.431z" class="cls-8" transform="translate(-93.447 -363.551)"/>
                                    </g>
                                    <g id="Group_57822" transform="translate(25.485 148.081)">
                                        <path id="Path_56355" d="M95.552 357.71c.243.043.241 1.2-.005 2.593s-.644 2.48-.887 2.437-.243-1.2 0-2.593.648-2.481.892-2.437z" class="cls-8" transform="translate(-94.478 -357.708)"/>
                                    </g>
                                    <g id="Group_57823" transform="translate(27.273 138.023)">
                                        <path id="Path_56356" d="M96.6 351.869c.243.043.239 1.2-.009 2.593s-.646 2.48-.89 2.435-.239-1.2.009-2.593.641-2.48.89-2.435z" class="cls-8" transform="translate(-95.517 -351.867)"/>
                                    </g>
                                    <g id="Group_57824" transform="translate(29.073 127.967)">
                                        <path id="Path_56357" d="M97.647 346.029c.243.043.238 1.2-.012 2.593s-.649 2.478-.894 2.435-.239-1.205.012-2.6.647-2.473.894-2.428z" class="cls-8" transform="translate(-96.562 -346.027)"/>
                                    </g>
                                    <g id="Group_57825" transform="translate(30.887 117.912)">
                                        <path id="Path_56358" d="M98.706 340.19c.243.045.236 1.205-.015 2.593s-.653 2.478-.9 2.433-.238-1.205.015-2.593.656-2.478.9-2.433z" class="cls-8" transform="translate(-97.615 -340.188)"/>
                                    </g>
                                    <g id="Group_57826" transform="translate(32.716 107.86)">
                                        <path id="Path_56359" d="M99.775 334.353c.243.045.234 1.205-.019 2.593s-.658 2.476-.9 2.431-.236-1.205.019-2.593.656-2.476.9-2.431z" class="cls-8" transform="translate(-98.678 -334.351)"/>
                                    </g>
                                    <g id="Group_57827" transform="translate(34.561 97.812)">
                                        <path id="Path_56360" d="M100.853 328.518c.245.045.234 1.205-.022 2.593s-.661 2.474-.906 2.43-.232-1.205.024-2.593.661-2.475.904-2.43z" class="cls-8" transform="translate(-99.749 -328.516)"/>
                                    </g>
                                    <g id="Group_57828" transform="translate(36.422 87.766)">
                                        <path id="Path_56361" d="M101.941 322.684c.245.046.232 1.207-.028 2.593s-.665 2.475-.909 2.43-.231-1.207.028-2.593.668-2.475.909-2.43z" class="cls-8" transform="translate(-100.83 -322.682)"/>
                                    </g>
                                    <g id="Group_57829" transform="translate(38.302 77.725)">
                                        <path id="Path_56362" d="M103.04 316.853c.245.047.229 1.207-.033 2.593s-.67 2.473-.913 2.426-.229-1.205.033-2.592.673-2.474.913-2.427z" class="cls-8" transform="translate(-101.921 -316.851)"/>
                                    </g>
                                    <g id="Group_57830" transform="translate(40.2 67.687)">
                                        <path id="Path_56363" d="M104.151 311.024c.243.046.227 1.207-.038 2.593s-.673 2.471-.918 2.425-.226-1.207.038-2.593.675-2.472.918-2.425z" class="cls-8" transform="translate(-103.023 -311.022)"/>
                                    </g>
                                    <g id="Group_57831" transform="translate(42.118 57.651)">
                                        <path id="Path_56364" d="M105.273 305.2c.243.048.224 1.209-.043 2.593s-.68 2.471-.923 2.425-.224-1.207.043-2.593.681-2.476.923-2.425z" class="cls-8" transform="translate(-104.137 -305.194)"/>
                                    </g>
                                    <g id="Group_57832" transform="translate(44.056 47.622)">
                                        <path id="Path_56365" d="M106.408 299.372c.243.047.222 1.209-.048 2.593s-.685 2.468-.928 2.421-.222-1.209.048-2.593.686-2.47.928-2.421z" class="cls-8" transform="translate(-105.263 -299.37)"/>
                                    </g>
                                    <g id="Group_57833" transform="translate(46.017 37.597)">
                                        <path id="Path_56366" d="M107.558 293.55c.243.048.219 1.209-.055 2.592s-.691 2.468-.933 2.419-.219-1.207.053-2.592.692-2.469.935-2.419z" class="cls-8" transform="translate(-106.402 -293.548)"/>
                                    </g>
                                    <g id="Group_57834" transform="translate(48.001 27.575)">
                                        <path id="Path_56367" d="M108.72 287.73c.243.05.215 1.211-.06 2.593s-.7 2.466-.94 2.418-.215-1.209.06-2.593.697-2.467.94-2.418z" class="cls-8" transform="translate(-107.554 -287.728)"/>
                                    </g>
                                    <g id="Group_57835" transform="translate(50.01 17.559)">
                                        <path id="Path_56368" d="M109.9 281.914c.243.05.214 1.211-.067 2.593s-.7 2.462-.945 2.414-.214-1.211.067-2.593.7-2.463.945-2.414z" class="cls-8" transform="translate(-108.721 -281.912)"/>
                                    </g>
                                    <g id="Group_57836" transform="translate(52.046 7.541)">
                                        <path id="Path_56369" d="M111.093 276.1c.243.05.208 1.212-.076 2.6s-.709 2.466-.952 2.416-.21-1.212.074-2.6.711-2.469.954-2.416z" class="cls-8" transform="translate(-109.903 -276.094)"/>
                                    </g>
                                    <g id="Group_57837" transform="translate(54.023)">
                                        <path id="Path_56370" d="M111.826 271.718c.241.052.32.658.176 1.355s-.46 1.223-.7 1.171-.322-.656-.177-1.353.458-1.223.701-1.173z" class="cls-8" transform="translate(-111.051 -271.715)"/>
                                    </g>
                                </g>
                                <g id="Group_57865" transform="translate(95.633 52.38)">
                                    <g id="Group_57839" transform="translate(0 253.713)">
                                        <path id="Path_56371" d="M129.722 445.409c.248.012.418.6.382 1.312s-.267 1.279-.515 1.266-.418-.6-.381-1.312.268-1.275.514-1.266z" class="cls-8" transform="translate(-129.204 -445.409)"/>
                                    </g>
                                    <g id="Group_57840" transform="translate(.387 243.465)">
                                        <path id="Path_56372" d="M129.985 439.458c.248.007.4 1.162.351 2.578s-.3 2.557-.546 2.547-.4-1.166-.351-2.58.298-2.555.546-2.545z" class="cls-8" transform="translate(-129.429 -439.458)"/>
                                    </g>
                                    <g id="Group_57841" transform="translate(.731 233.212)">
                                        <path id="Path_56373" d="M130.158 433.5c.246.007.415 1.161.374 2.574s-.276 2.559-.524 2.55-.413-1.159-.374-2.574.276-2.55.524-2.55z" class="cls-8" transform="translate(-129.629 -433.504)"/>
                                    </g>
                                    <g id="Group_57842" transform="translate(1.005 222.959)">
                                        <path id="Path_56374" d="M130.3 427.55c.246.005.42 1.157.386 2.574s-.265 2.559-.511 2.552-.42-1.159-.386-2.574.266-2.559.511-2.552z" class="cls-8" transform="translate(-129.787 -427.55)"/>
                                    </g>
                                    <g id="Group_57843" transform="translate(1.251 212.701)">
                                        <path id="Path_56375" d="M130.443 421.593c.248.005.422 1.159.387 2.574s-.262 2.561-.51 2.555-.42-1.159-.386-2.576.266-2.56.509-2.553z" class="cls-8" transform="translate(-129.93 -421.593)"/>
                                    </g>
                                    <g id="Group_57844" transform="translate(1.508 202.44)">
                                        <path id="Path_56376" d="M130.6 415.634c.248.007.417 1.161.379 2.578s-.27 2.561-.517 2.554-.418-1.161-.379-2.578.271-2.561.517-2.554z" class="cls-8" transform="translate(-130.08 -415.634)"/>
                                    </g>
                                    <g id="Group_57845" transform="translate(1.821 192.182)">
                                        <path id="Path_56377" d="M130.81 409.677c.248.01.408 1.166.356 2.58s-.291 2.555-.539 2.549-.406-1.164-.356-2.58.291-2.559.539-2.549z" class="cls-8" transform="translate(-130.262 -409.677)"/>
                                    </g>
                                    <g id="Group_57846" transform="translate(2.233 181.932)">
                                        <path id="Path_56378" d="M131.068 403.725c.248.01.4 1.166.341 2.581s-.308 2.554-.556 2.543-.4-1.166-.339-2.581.308-2.553.554-2.543z" class="cls-8" transform="translate(-130.5 -403.725)"/>
                                    </g>
                                    <g id="Group_57847" transform="translate(2.645 171.683)">
                                        <path id="Path_56379" d="M131.295 397.773c.248.009.4 1.164.351 2.58s-.3 2.554-.546 2.545-.4-1.164-.35-2.58.299-2.555.545-2.545z" class="cls-8" transform="translate(-130.74 -397.773)"/>
                                    </g>
                                    <g id="Group_57848" transform="translate(3.015 161.43)">
                                        <path id="Path_56380" d="M131.5 391.819c.248.009.41 1.162.362 2.578s-.288 2.557-.536 2.549-.408-1.162-.36-2.578.283-2.558.534-2.549z" class="cls-8" transform="translate(-130.955 -391.819)"/>
                                    </g>
                                    <g id="Group_57849" transform="translate(3.341 151.17)">
                                        <path id="Path_56381" d="M131.674 385.861c.248.007.415 1.161.374 2.576s-.277 2.557-.523 2.549-.415-1.159-.374-2.576.277-2.558.523-2.549z" class="cls-8" transform="translate(-131.144 -385.861)"/>
                                    </g>
                                    <g id="Group_57850" transform="translate(3.624 140.916)">
                                        <path id="Path_56382" d="M131.824 379.906c.248.005.42 1.159.384 2.574s-.265 2.559-.511 2.552-.42-1.157-.384-2.574.263-2.558.511-2.552z" class="cls-8" transform="translate(-131.308 -379.906)"/>
                                    </g>
                                    <g id="Group_57851" transform="translate(3.858 130.661)">
                                        <path id="Path_56383" d="M131.947 373.951c.248 0 .425 1.156.4 2.573s-.251 2.559-.5 2.554-.425-1.157-.4-2.573.253-2.559.5-2.554z" class="cls-8" transform="translate(-131.444 -373.951)"/>
                                    </g>
                                    <g id="Group_57852" transform="translate(4.043 120.405)">
                                        <path id="Path_56384" d="M132.043 367.995c.248 0 .43 1.155.408 2.571s-.241 2.561-.489 2.557-.431-1.155-.408-2.571.241-2.562.489-2.557z" class="cls-8" transform="translate(-131.552 -367.995)"/>
                                    </g>
                                    <g id="Group_57853" transform="translate(4.18 110.149)">
                                        <path id="Path_56385" d="M132.108 362.039c.248 0 .437 1.152.422 2.568s-.229 2.562-.477 2.561-.436-1.154-.42-2.569.228-2.564.475-2.56z" class="cls-8" transform="translate(-131.631 -362.039)"/>
                                    </g>
                                    <g id="Group_57854" transform="translate(4.267 99.89)">
                                        <path id="Path_56386" d="M132.145 356.082c.248 0 .441 1.152.434 2.567s-.217 2.562-.465 2.561-.441-1.15-.432-2.566.218-2.564.463-2.562z" class="cls-8" transform="translate(-131.682 -356.082)"/>
                                    </g>
                                    <g id="Group_57855" transform="translate(4.302 89.634)">
                                        <path id="Path_56387" d="M132.153 350.126c.248 0 .448 1.149.446 2.564s-.2 2.564-.451 2.564-.448-1.149-.446-2.566.203-2.562.451-2.562z" class="cls-8" transform="translate(-131.702 -350.126)"/>
                                    </g>
                                    <g id="Group_57856" transform="translate(4.286 79.376)">
                                        <path id="Path_56388" d="M132.13 344.169c.248 0 .453 1.147.458 2.562s-.189 2.566-.437 2.566-.453-1.145-.458-2.562.19-2.564.437-2.566z" class="cls-8" transform="translate(-131.693 -344.169)"/>
                                    </g>
                                    <g id="Group_57857" transform="translate(4.217 69.118)">
                                        <path id="Path_56389" d="M132.079 338.212c.248 0 .458 1.145.472 2.561s-.177 2.568-.425 2.569-.458-1.145-.472-2.561.177-2.566.425-2.569z" class="cls-8" transform="translate(-131.653 -338.212)"/>
                                    </g>
                                    <g id="Group_57858" transform="translate(4.097 58.862)">
                                        <path id="Path_56390" d="M132 332.256c.248 0 .465 1.142.484 2.557s-.164 2.568-.412 2.571-.465-1.142-.484-2.557.16-2.568.412-2.571z" class="cls-8" transform="translate(-131.583 -332.256)"/>
                                    </g>
                                    <g id="Group_57859" transform="translate(3.925 48.611)">
                                        <path id="Path_56391" d="M131.886 326.3c.246-.005.47 1.14.5 2.555s-.153 2.569-.4 2.573-.47-1.14-.5-2.556.152-2.564.4-2.572z" class="cls-8" transform="translate(-131.483 -326.303)"/>
                                    </g>
                                    <g id="Group_57860" transform="translate(3.706 38.347)">
                                        <path id="Path_56392" d="M131.745 320.343c.248-.007.477 1.138.511 2.555s-.138 2.571-.386 2.576-.475-1.138-.51-2.554.14-2.57.385-2.577z" class="cls-8" transform="translate(-131.356 -320.343)"/>
                                    </g>
                                    <g id="Group_57861" transform="translate(3.377 28.088)">
                                        <path id="Path_56393" d="M131.523 314.385c.246-.012.492 1.128.549 2.545s-.1 2.576-.346 2.583-.494-1.131-.549-2.547.098-2.566.346-2.581z" class="cls-8" transform="translate(-131.165 -314.385)"/>
                                    </g>
                                    <g id="Group_57862" transform="translate(2.827 17.842)">
                                        <path id="Path_56394" d="M131.156 308.435c.246-.019.522 1.114.615 2.53s-.033 2.576-.281 2.59-.522-1.119-.615-2.531.035-2.572.281-2.589z" class="cls-8" transform="translate(-130.846 -308.435)"/>
                                    </g>
                                    <g id="Group_57863" transform="translate(1.942 7.626)">
                                        <path id="Path_56395" d="M130.589 302.5c.245-.029.561 1.094.7 2.506s.06 2.574-.186 2.6-.563-1.1-.706-2.506-.054-2.569.192-2.6z" class="cls-8" transform="translate(-130.332 -302.503)"/>
                                    </g>
                                    <g id="Group_57864" transform="translate(.909)">
                                        <path id="Path_56396" d="M130.03 298.076c.245-.036.525.508.625 1.216s-.015 1.309-.262 1.341-.525-.511-.625-1.216.017-1.305.262-1.341z" class="cls-8" transform="translate(-129.732 -298.074)"/>
                                    </g>
                                </g>
                                <g id="Group_57866" transform="translate(95.284 3.9)">
                                    <path id="Path_56397" d="M137.27 269.921a7.753 7.753 0 0 1 .057 1.9c-.022 1.221-.083 2.986-.177 5.166-.188 4.36-.51 10.379-.921 17.024l-.615 9.366c-.22 2.852-.267 5.531-1.123 7.654a6.485 6.485 0 0 1-3.575 3.8 3.913 3.913 0 0 1-1.417.267c-.331-.009-.5-.052-.5-.077a9.221 9.221 0 0 0 1.779-.511 6.347 6.347 0 0 0 3.117-3.7c.727-1.992.72-4.6.892-7.484l.544-9.37c.412-6.645.833-12.659 1.185-17.008.174-2.175.332-3.933.462-5.149a7.806 7.806 0 0 1 .292-1.878z" class="cls-8" transform="translate(-129.001 -269.921)"/>
                                </g>
                                <g id="Group_57867" transform="translate(96.096 7.617)">
                                    <path id="Path_56398" d="M132.187 272.449c0-.117.771.024 1.054 1.038a1.929 1.929 0 0 1-.372 1.719 1.987 1.987 0 0 1-3.391-1.376 1.928 1.928 0 0 1 .932-1.493c.909-.529 1.562-.093 1.481-.009-.031.129-.572.029-1.109.522a1.389 1.389 0 0 0-.477 1 1.222 1.222 0 0 0 1.954.8 1.386 1.386 0 0 0 .356-1.052c-.039-.729-.497-1.035-.428-1.149z" class="cls-8" transform="translate(-129.473 -272.079)"/>
                                </g>
                                <g id="Group_57868" transform="translate(55.349 5.213)">
                                    <path id="Path_56399" d="M105.811 280.751c.059-.146 1.493.5 3.942.837a16.881 16.881 0 0 0 16.574-7.408c1.383-2.049 1.858-3.549 2.006-3.5a8.893 8.893 0 0 1-1.471 3.835 16.245 16.245 0 0 1-17.215 7.694 8.919 8.919 0 0 1-3.836-1.458z" class="cls-8" transform="translate(-105.81 -270.683)"/>
                                </g>
                                <g id="Group_57869" transform="translate(132.032 3.904)">
                                    <path id="Path_56400" d="M150.468 269.923c.15-.007.183 1.264.777 3.165a13.749 13.749 0 0 0 11.005 9.645c1.963.337 3.227.2 3.241.353a6.531 6.531 0 0 1-3.325.275 13.108 13.108 0 0 1-11.534-10.106 6.534 6.534 0 0 1-.164-3.332z" class="cls-8" transform="translate(-150.342 -269.923)"/>
                                </g>
                            </g>
                            <g id="Group_57872" transform="translate(19.25 83.857)">
                                <path id="Path_56401" d="M223.677 338.073l-101.793-7.041 3.523-48.628.052-27.182-9.89 15.285L84.847 243.8l33.025-43.105v.005a51.843 51.843 0 0 1 20.087-13 41.429 41.429 0 0 1 12.588-2.413 50.447 50.447 0 0 0 30.4.019 147.961 147.961 0 0 1 27.638 5.125l38.547 10.423-12.687 47.326-23.288-7.837s12.756 87.899 12.52 97.73z" class="cls-5" transform="translate(-84.847 -185.282)"/>
                                <g id="Group_57871" transform="translate(39.612 60.314)">
                                    <path id="Path_56402" d="M107.87 231.5c-.207-.136 1.223-2.748 3.193-5.834s3.74-5.486 3.952-5.357-1.217 2.74-3.193 5.834-3.743 5.495-3.952 5.357z" class="cls-5" transform="translate(-107.85 -220.307)"/>
                                </g>
                            </g>
                        </g>
                    </g>
                </g>
                <g id="Group_57876" class="cls-16" transform="translate(54.423 99.47)">
                    <path id="Path_56403" d="M231.713 194.8c0 .248-28.537.448-63.732.448s-63.737-.2-63.737-.448 28.53-.449 63.737-.449 63.732.199 63.732.449z" class="cls-15" transform="translate(-104.244 -194.349)"/>
                </g>
                <g id="Group_57877" class="cls-16" transform="translate(38.159 121.448)">
                    <path id="Path_56404" d="M232.377 207.56c0 .248-30.8.449-68.786.449s-68.793-.2-68.793-.449 30.795-.448 68.793-.448 68.786.201 68.786.448z" class="cls-15" transform="translate(-94.799 -207.112)"/>
                </g>
                <g id="Group_57878" class="cls-16" transform="translate(25.852 145.624)">
                    <path id="Path_56405" d="M210.754 221.6c0 .248-27.559.449-61.548.449s-61.553-.2-61.553-.449 27.554-.448 61.553-.448 61.548.199 61.548.448z" class="cls-15" transform="translate(-87.652 -221.151)"/>
                </g>
                <g id="Group_57879" class="cls-16" transform="translate(61.675 171.931)">
                    <path id="Path_56406" d="M199 236.876c0 .248-20.272.449-45.272.449s-45.275-.2-45.275-.449 20.268-.448 45.275-.448 45.272.201 45.272.448z" class="cls-15" transform="translate(-108.455 -236.428)"/>
                </g>
                <g id="Group_57880" class="cls-16" transform="translate(61.895 199.227)">
                    <path id="Path_56407" d="M201.52 252.728c0 .248-20.805.448-46.467.448s-46.47-.2-46.47-.448 20.8-.449 46.47-.449 46.467.201 46.467.449z" class="cls-15" transform="translate(-108.583 -252.279)"/>
                </g>
                <g id="Group_57881" class="cls-16" transform="translate(58.413 224.261)">
                    <path id="Path_56408" d="M207.171 267.265c0 .248-22.524.448-50.3.448s-50.309-.2-50.309-.448 22.519-.448 50.309-.448 50.3.2 50.3.448z" class="cls-15" transform="translate(-106.561 -266.817)"/>
                </g>
            </g>
        </g>
    </g>
</svg>
