<?xml version="1.0" encoding="iso-8859-1"?>
<!-- Generator: Adobe Illustrator 16.0.0, SVG Export Plug-In . SVG Version: 6.00 Build 0)  -->
<!DOCTYPE svg PUBLIC "-//W3C//DTD SVG 1.1//EN" "http://www.w3.org/Graphics/SVG/1.1/DTD/svg11.dtd">
<svg version="1.1" id="Capa_1" xmlns="http://www.w3.org/2000/svg" xmlns:xlink="http://www.w3.org/1999/xlink" x="0px" y="0px"
	 width="35.176px" height="35.177px" viewBox="0 0 35.176 35.177" style="enable-background:new 0 0 35.176 35.177;"
	 xml:space="preserve">
<g>
	<g>
		<path d="M32.989,19.938v-0.782h-0.758l-0.112-1.991l-0.226,0.088c-0.67,0.262-1.332,0.39-2.022,0.39
			c-0.206,0-0.401-0.019-0.597-0.039v-0.337c-0.021-0.002-0.228-6.451-0.228-6.451l-3.087-0.511c0,0-0.576,1.701-2.16,1.789
			c-1.587,0.089-2.188-1.789-2.188-1.789l-2.762,0.511l-0.203,6.326l-0.049,0.501c-0.691,0-1.353-0.128-2.023-0.39l-0.225-0.088
			l-0.111,1.991h-0.787v0.782h-1.722v-1.422h-1.61V17.73h-2.107v0.786h-6.62C3.117,15.311,2.695,7.677,4.706,5.76
			c1.101-1.052,2.475-1.421,3.771-1.01c1.094,0.346,1.957,1.187,2.289,2.192L9.842,7.031l0.138,1.431L8.55,8.601L7.748,13.03
			l2.807-0.271c0.16,0.505,0.636,0.859,1.186,0.805c0.549-0.053,0.949-0.49,1.009-1.018l2.703-0.263L13.813,8.09l-1.24,0.122
			L12.435,6.78l-1.051,0.102c-0.36-1.248-1.395-2.299-2.722-2.717c-1.515-0.478-3.111-0.06-4.38,1.15
			c-2.208,2.107-1.796,9.883-1.508,13.201H1.62v1.422v0.047v1.752h1.413v13.44h2.616v-13.44h23.09v13.44h2.615v-13.44h2.203v-1.799
			H32.989z M31.795,17.661l0.074,1.317h-7.456c0.021-0.47,0.162-1.75,1.097-1.861c0.416-0.052,0.94,0.121,1.564,0.322
			c0.762,0.246,1.711,0.553,2.796,0.553C30.529,17.992,31.161,17.884,31.795,17.661z M16.675,17.661
			c0.635,0.223,1.267,0.331,1.923,0.331c1.086,0,2.035-0.307,2.795-0.553c0.625-0.201,1.149-0.374,1.565-0.322
			c0.933,0.112,1.076,1.393,1.097,1.861h-7.455L16.675,17.661z"/>
		<path d="M19.856,4.475c-0.051,0.166-0.104,0.331-0.137,0.505c-0.035,0.216-0.057,0.44-0.057,0.667
			c0,2.236,1.887,4.047,4.212,4.047s4.21-1.811,4.21-4.047c0-0.447-0.093-0.869-0.23-1.271l0.854-1.134l-1.532-0.519l0.299-1.504
			l-1.871,0.514L24.744,0l-1.599,1.602l-1.237-1.379l-0.582,1.821l-1.988-0.626l0.749,1.608l-1.445,0.391L19.856,4.475z"/>
	</g>
</g>
<g>
</g>
<g>
</g>
<g>
</g>
<g>
</g>
<g>
</g>
<g>
</g>
<g>
</g>
<g>
</g>
<g>
</g>
<g>
</g>
<g>
</g>
<g>
</g>
<g>
</g>
<g>
</g>
<g>
</g>
</svg>
