<svg xmlns="http://www.w3.org/2000/svg" xmlns:xlink="http://www.w3.org/1999/xlink" width="211.68" height="144.456" viewBox="0 0 211.68 144.456">
    <defs>
        <linearGradient id="linear-gradient" x2="1" y1=".5" y2=".5" gradientUnits="objectBoundingBox">
            <stop offset="0" stop-color="#c0c8db"/>
            <stop offset="1" stop-color="#e9effd"/>
        </linearGradient>
        <linearGradient id="linear-gradient-2" x2="1" y1=".5" y2=".5" gradientUnits="objectBoundingBox">
            <stop offset="0" stop-color="#dae3fe"/>
            <stop offset="1" stop-color="#e9effd"/>
        </linearGradient>
        <linearGradient id="linear-gradient-4" x1="-291.259" x2="-299.259" y1="9.958" y2="10.816" gradientUnits="objectBoundingBox">
            <stop offset="0" stop-color="#4d6898"/>
            <stop offset="1" stop-color="#150e42"/>
        </linearGradient>
        <linearGradient id="linear-gradient-5" x1="14.795" x2="11.798" y1="27.722" y2="31.339" gradientUnits="objectBoundingBox">
            <stop offset="0" stop-color="#09005d"/>
            <stop offset="1" stop-color="#1a0f91"/>
        </linearGradient>
        <linearGradient id="linear-gradient-6" x1=".888" x2="-.19" y1="69.524" y2="75.474" xlink:href="#linear-gradient-5"/>
        <linearGradient id="linear-gradient-7" x1=".528" x2=".494" y1="-2.676" y2="1.364" xlink:href="#linear-gradient-5"/>
        <linearGradient id="linear-gradient-8" x1="-16.412" x2="-19.452" y1="42.852" y2="48.027" xlink:href="#linear-gradient-5"/>
        <linearGradient id="linear-gradient-9" x1="-50.388" x2="-49.587" y1="89.505" y2="89.505" gradientUnits="objectBoundingBox">
            <stop offset="0" stop-color="#ff928e"/>
            <stop offset="1" stop-color="#feb3b1"/>
        </linearGradient>
        <linearGradient id="linear-gradient-10" x1="-17.533" x2="-18.049" y1="-.04" y2="1.274" xlink:href="#linear-gradient-9"/>
        <linearGradient id="linear-gradient-11" x1="-26.834" x2="-27.62" y1=".443" y2="5.492" xlink:href="#linear-gradient-9"/>
        <linearGradient id="linear-gradient-12" x1="-11.736" x2="-14.571" y1="-.484" y2="6.012" xlink:href="#linear-gradient-5"/>
        <linearGradient id="linear-gradient-13" x1="-53.146" x2="-52.146" y1=".5" y2=".5" xlink:href="#linear-gradient-9"/>
        <linearGradient id="linear-gradient-14" x1=".766" x2=".25" y1="-.04" y2="1.274" xlink:href="#linear-gradient-9"/>
        <linearGradient id="linear-gradient-15" x1=".45" x2=".554" y1=".109" y2="1.186" xlink:href="#linear-gradient-9"/>
        <linearGradient id="linear-gradient-16" x1=".337" x2=".623" y1=".249" y2=".854" xlink:href="#linear-gradient-9"/>
        <linearGradient id="linear-gradient-17" x1="-16.243" x2="-17.46" y1=".116" y2="1.618" xlink:href="#linear-gradient-5"/>
        <linearGradient id="linear-gradient-18" x1="-.245" x2=".644" y1="-1.163" y2=".894" xlink:href="#linear-gradient-9"/>
        <linearGradient id="linear-gradient-19" x1=".508" x2="-.278" y1=".443" y2="5.492" xlink:href="#linear-gradient-9"/>
        <style>
            .cls-2{fill:#accceb}.cls-3{fill:#7d97f4}.cls-4{fill:#f0f0f0}.cls-5{fill:url(#linear-gradient-2)}.cls-6{fill:#98bbde}.cls-22,.cls-9{fill:#fff}.cls-8{fill:#febbba}.cls-11{fill:#41dda4}.cls-12{fill:#658bb1}.cls-14{fill:#88b5e0}.cls-15{fill:#213861}.cls-16{fill:#91b3fa}.cls-18{opacity:.6}.cls-22{opacity:.65}
        </style>
    </defs>
    <g id="Group_58212" transform="translate(-163.938 -72.589)">
        <path id="Path_56602" fill="url(#linear-gradient)" d="M393.642 187.7c3.568 7.848 11.2 14.167 11.846 22.789.4 5.348-2.052 10.483-4.843 15.062s-6.031 9.009-7.508 14.164c-2.426 8.467 2.3 14.438 7.238 20.649 2.076 2.612 3.783 5.833 3.355 9.142a7.932 7.932 0 0 1-1.118 3.106c-3.329 5.478-12.529 6.986-18.4 7.449-5.451.43-10.922.624-16.387.76-14.041.351-28.095.234-42.136-.025-21.38-.4-43.742.249-64.952-2.917-13.09-1.954-61.963-12.949-31.174-28.546 0 0-54.137-53.755-20.48-83.341 8.669-7.621 19.146-13.126 30.648-14.76 11.139-1.582 21.164-.132 32.035 2.28 4.8 1.064 9.676 2.135 14.577 1.781 4.683-.338 9.182-1.966 13.838-2.57a29.584 29.584 0 0 1 16.843 2.594c5.076 2.527 9.613 3.368 15.256 1.84 5.515-1.493 10.5-4.47 15.831-6.527 7.2-2.779 15.226-3.838 22.712-1.95 12.668 3.2 19.211 13.329 20.463 25.816.324 3.231.284 6.522 1.091 9.667a21.391 21.391 0 0 0 1.265 3.537z" transform="translate(-30.698 -67.6)"/>
        <g id="Group_58153" transform="translate(163.938 159.493)">
            <path id="Path_56603" d="M193.32 986.859c5.928-3.646 7.251-14.811 3.5-18.142-2.537-2.251-5.746.535-9.2-1.74-4.4-2.9-1.761-9.152-5.6-16.738-3.268-6.456-10.419-12.276-14.244-10.7-4 1.644-5.449 11.833-1.518 17.623 2.557 3.765 6.056 3.71 7.072 7.309 1.179 4.176-2.923 6.411-2.653 10.521.483 7.38 14.8 16.69 22.643 11.867z" class="cls-2" transform="translate(-163.938 -939.275)"/>
            <path id="Path_56604" d="M304.908 1118.137a.251.251 0 0 0 .2-.376c-9.359-16.237-13.14-35.577-13.178-35.771a.251.251 0 1 0-.494.095c.037.194 3.835 19.617 13.236 35.927a.252.252 0 0 0 .236.125z" class="cls-3" transform="translate(-278.648 -1067.497)"/>
            <path id="Path_56605" d="M186.084 978.418a.12.12 0 0 0 .081-.2c-2.812-3.123-6.02-7.888-5.34-12.85a8.589 8.589 0 0 1 2.036-4.613.12.12 0 0 0-.17-.17 8.683 8.683 0 0 0-2.1 4.75c-.382 2.789.244 7.316 5.4 13.044a.12.12 0 0 0 .093.039z" class="cls-4" transform="translate(-178.834 -958.416)"/>
            <path id="Path_56606" d="M449.9 1250.541a.12.12 0 0 0 .1-.059c3.548-6.06 4.58-10.621 3.068-13.555a5.819 5.819 0 0 0-4.32-2.906.12.12 0 0 0-.022.239 5.569 5.569 0 0 1 4.129 2.779c1.47 2.857.439 7.339-3.064 13.321a.12.12 0 0 0 .112.181z" class="cls-4" transform="translate(-420.068 -1204.466)"/>
        </g>
        <g id="Group_58154" transform="translate(242.253 92.908)">
            <path id="Path_56607" d="M1015.206 366.107a5.516 5.516 0 0 1 3.732-3.882 38.183 38.183 0 0 0 13.505-7.347c8.245-6.89 12.8-16.221 13.006-24.808a5.56 5.56 0 0 1 3.292-4.972 53.69 53.69 0 0 0 15.7-11.059c12.822-12.771 17.635-28.727 10.751-35.639s-22.859-2.162-35.681 10.609a53.446 53.446 0 0 0-11.261 15.97 5.607 5.607 0 0 1-5.1 3.357 35.868 35.868 0 0 0-22.322 8.709 39.73 39.73 0 0 0-5.152 5.172 5.533 5.533 0 0 1-5.469 1.871 37.033 37.033 0 0 0-31.73 7.967c-15.451 12.912-18.028 35.285-5.755 49.971s34.748 16.125 50.2 3.213a37.555 37.555 0 0 0 12.284-19.132z" class="cls-2" transform="translate(-944.968 -275.227)"/>
            <path id="Path_56608" d="M1202.325 462.719c-1.527 2.164-3.155 4.245-4.817 6.3s-3.371 4.071-5.124 6.049q-5.251 5.94-10.933 11.48-5.666 5.548-11.744 10.654c-.505.426-1 .861-1.515 1.279l-1.537 1.252c-1.025.835-2.045 1.676-3.1 2.478l-1.555 1.218c-.524.4-1.037.82-1.572 1.208l-3.189 2.363c-.526.4-1.075.77-1.612 1.154l-1.62 1.143c-.542.378-1.079.764-1.626 1.135l-1.651 1.1-1.651 1.1-.825.549c-.276.182-.559.353-.838.531l-3.358 2.11c-.555.359-1.132.684-1.7 1.023l-1.707 1.009-1.707 1.009c-.573.329-1.155.643-1.733.965l-3.472 1.917-3.529 1.811c-.591.3-1.172.612-1.77.894l-1.792.849-1.792.849-.9.424-.448.212-.454.2-3.637 1.581-.909.4-.454.2-.461.183-1.844.73-1.845.726-.923.362c-.307.122-.615.243-.928.349l-3.738 1.32c-.624.216-1.243.448-1.872.652l-1.891.593-3.784 1.176a.2.2 0 0 1-.124-.385h.007l3.751-1.248 1.876-.619c.624-.212 1.237-.453 1.856-.677l3.706-1.371c.31-.11.615-.235.919-.361l.914-.375 1.829-.748 1.83-.744.457-.186.451-.2.9-.4 3.608-1.608.45-.2.444-.215.889-.431 1.777-.861 1.777-.861c.593-.286 1.169-.605 1.755-.906l3.5-1.827 3.452-1.92c.574-.322 1.152-.636 1.722-.966l1.7-1.01 1.7-1.01c.564-.34 1.136-.665 1.688-1.024 4.481-2.767 8.832-5.738 13.112-8.8a231.033 231.033 0 0 0 24.2-20.287q5.7-5.475 11-11.35 2.66-2.923 5.188-5.962c.423-.5.843-1.012 1.256-1.525s.829-1.023 1.238-1.54c.82-1.03 1.629-2.071 2.4-3.133a.2.2 0 0 1 .329.236z" class="cls-5" transform="translate(-1084.912 -443.632)"/>
        </g>
        <g id="Group_58155" transform="translate(305.605 156.842)">
            <path id="Path_56609" d="M1623.213 950.276a17.474 17.474 0 0 0 5.381-11.663 2.007 2.007 0 0 1 1.258-1.814 19.219 19.219 0 0 0 6.227-4.272c5.936-5.86 9.288-14.76 5.84-18.252s-12.39-.254-18.325 5.606a19.994 19.994 0 0 0-4.008 5.409 2.055 2.055 0 0 1-1.989 1.145 17.207 17.207 0 0 0-12.776 5.212 19 19 0 0 0-3.211 4.187 2.084 2.084 0 0 1-2.558.906 16.717 16.717 0 0 0-17.518 3.553c-6.618 6.505-6.311 17.72.672 24.619 6.9 6.815 17.706 7.134 24.249.674a16.057 16.057 0 0 0 4.5-8.509 2.025 2.025 0 0 1 1.795-1.651 17.774 17.774 0 0 0 10.463-5.15z" class="cls-6" transform="translate(-1576.762 -912.833)"/>
            <path id="Path_56610" d="M1693.128 998.461c-.756 1.121-1.566 2.2-2.392 3.269s-1.683 2.11-2.551 3.143c-1.749 2.055-3.566 4.054-5.464 5.975a105.4 105.4 0 0 1-12.2 10.669c-2.16 1.632-4.42 3.136-6.725 4.566a76.8 76.8 0 0 1-7.155 3.9c-.617.288-1.231.581-1.851.863l-1.883.8c-.624.272-1.27.5-1.909.738l-.959.356-.48.178-.488.158-1.953.622c-.323.11-.657.19-.987.281l-.992.265-.992.261c-.331.086-.669.148-1 .223l-2.012.417-.033-.12 1.956-.584c.325-.1.655-.183.976-.292l.962-.329.963-.325c.32-.11.644-.208.958-.336l1.893-.727.474-.179.465-.2.931-.4c.62-.266 1.244-.519 1.848-.817l1.83-.852c.6-.3 1.2-.61 1.8-.914.3-.155.6-.3.9-.462l.882-.485.884-.483c.295-.161.591-.319.877-.494l1.733-1.023c.291-.167.572-.349.856-.528l.852-.535.854-.532.838-.555c.556-.374 1.121-.735 1.67-1.118l1.643-1.157c.547-.387 1.082-.79 1.624-1.183 2.155-1.591 4.249-3.264 6.293-5s4.028-3.536 5.972-5.382 3.831-3.755 5.667-5.715c.464-.485.914-.983 1.37-1.476l1.346-1.5q.337-.375.665-.757c.222-.253.44-.508.658-.764q.659-.763 1.294-1.547z" class="cls-5" transform="translate(-1634.651 -989.807)"/>
        </g>
        <g id="Group_58156" transform="translate(170.553 123.335)">
            <path id="Path_56611" d="M258.325 655.981c-5.132 1.411-12.183-3.791-14.766-9.839-2.658-6.224 1.193-9.184.531-18.036-.751-10.055-6.091-11.2-10.517-24.51-1-3-6.777-20.382-1.413-24.1 4.96-3.436 20.131 4.333 23.482 15.42 2.39 7.906-2.989 11.679-.177 20.885 2.467 8.077 7.425 7.844 9.885 15.631 2.995 9.481-.287 22.696-7.025 24.549z" class="cls-6" transform="translate(-229.91 -578.676)"/>
            <path id="Path_56612" d="M378.994 809.8c.632-10.936-3.3-27.46-6.7-39.4-3.688-12.922-7.575-23.4-7.614-23.5l-.424.158c.039.1 3.921 10.568 7.6 23.474 3.4 11.9 7.312 28.37 6.684 39.242z" class="cls-3" transform="translate(-350.784 -730.034)"/>
        </g>
        <g id="Group_58162" transform="translate(290.802 72.589)">
            <g id="Group_58160">
                <circle id="Ellipse_993" cx="25.451" cy="25.451" r="25.451" fill="#fff" opacity="0.57" transform="rotate(-45 43.449 17.997)"/>
                <g id="Group_58157" transform="translate(5.274 5.274)">
                    <circle id="Ellipse_994" cx="21.722" cy="21.722" r="21.722" class="cls-8" transform="rotate(-45 37.081 15.36)"/>
                    <path id="Path_56613" d="M1588.125 253.864a22.286 22.286 0 1 1 15.759-6.527 22.142 22.142 0 0 1-15.759 6.527zm0-43.444a21.157 21.157 0 1 0 21.157 21.157 21.181 21.181 0 0 0-21.157-21.157z" class="cls-9" transform="translate(-1557.406 -200.858)"/>
                </g>
                <g id="Group_58158" transform="translate(17.266 17.266)">
                    <circle id="Ellipse_995" cx="13.243" cy="13.243" r="13.243" class="cls-8" transform="rotate(-45 22.607 9.364)"/>
                    <path id="Path_56614" d="M1664.208 321.468a13.807 13.807 0 1 1 13.807-13.807 13.823 13.823 0 0 1-13.807 13.807zm0-26.485a12.678 12.678 0 1 0 12.678 12.678 12.692 12.692 0 0 0-12.678-12.679z" class="cls-9" transform="translate(-1645.48 -288.932)"/>
                </g>
                <g id="Group_58159" transform="translate(29.817 29.817)">
                    <circle id="Ellipse_996" cx="5.131" cy="5.131" r="5.131" class="cls-8" transform="rotate(-76.64 6.316 4.992)"/>
                    <path id="Path_56615" d="M1737 386.144a5.7 5.7 0 1 1 5.7-5.7 5.7 5.7 0 0 1-5.7 5.7zm0-10.261a4.566 4.566 0 1 0 4.566 4.566 4.571 4.571 0 0 0-4.566-4.566z" class="cls-9" transform="translate(-1730.821 -374.273)"/>
                </g>
            </g>
            <g id="Group_58161" transform="translate(35.888 1.58)">
                <path id="Rectangle_1270" fill="url(#linear-gradient-4)" d="M0 0H0.97V36.734H0z" transform="rotate(-135 9.078 13.897)"/>
                <path id="Path_56616" d="M1792.518 365.1c.393-.394 2.249 1.462 1.855 1.855l-6.881 5.409a.273.273 0 0 1-.384-.384z" class="cls-11" transform="translate(-1787.047 -337.297)"/>
                <path id="Path_56617" d="M2037.177 130.033l3.495.347-4.8 4.8a7.416 7.416 0 0 1-5.978 2.136z" class="cls-12" transform="translate(-2005.546 -125.853)"/>
                <path id="Path_56618" d="M2030.01 91.836l-.347-3.494-4.8 4.8a7.416 7.416 0 0 0-2.136 5.978z" class="cls-12" transform="translate(-1999.064 -88.342)"/>
            </g>
        </g>
        <g id="Group_58166" opacity="0.83" transform="translate(268.798 151.468)">
            <g id="Group_58164">
                <g id="Group_58163">
                    <path id="Path_56619" d="M1229.628 884.534a13.336 13.336 0 0 1-1.381-4.87c-.308-4.389 2.243-8.431 4.118-12.21 1.723-3.473 3-8.649-2.81-8.188-4.631.367-10.076 4.982-10.7 9.795-.735 5.7 2.038 12.879-1.25 18.053-4.6 7.238-7.917 5.58-7.917 17.794a10.122 10.122 0 0 0 6.2 9.684 13.858 13.858 0 0 0 15.623-2.539 16.31 16.31 0 0 0 5.126-13.817c-.737-5.189-4.812-9.125-7.009-13.702z" class="cls-14" transform="translate(-1209.691 -859.236)"/>
                </g>
                <path id="Path_56620" d="M1420.106 982.537a1.938 1.938 0 0 0-.732-.049c-1.449.167-2.044 1.694-2.469 2.889a6.773 6.773 0 0 0-.579 3.373c.233 1.2 1.505 2.176 2.428.959 1.05-1.383 2.624-3.506 2.634-5.338a1.8 1.8 0 0 0-1.282-1.834z" class="cls-14" transform="translate(-1395.554 -970.116)"/>
            </g>
            <g id="Group_58165" transform="translate(18.769 17.428)">
                <path id="Path_56621" d="M1414.462 1061.363c.593-3.9-.826-8.386-1.534-12.514a19.861 19.861 0 0 1-.2-6.548c.349-2.186 1.376-4.551.429-6.729-1.909-4.388-6.446-2.391-9.045.912-3.016 3.834-3.841 10.1-4.986 14.923a83.6 83.6 0 0 0-2.1 8.855c-.6 4.909.507 8.318 2.855 10.62a7.107 7.107 0 0 0 8.439 1.131c2.496-1.388 5.186-4.352 6.142-10.65z" class="cls-14" transform="translate(-1396.871 -1033.043)"/>
                <path id="Path_56622" d="M1457.315 1108.813a.258.258 0 0 1-.254-.215 97.7 97.7 0 0 1-1.024-14.245c-.024-7.594.791-18.732 4.807-28.662a.258.258 0 1 1 .478.193c-2.2 5.438-4.812 14.791-4.769 28.467a97.151 97.151 0 0 0 1.016 14.161.258.258 0 0 1-.211.3.275.275 0 0 1-.043.001z" class="cls-14" transform="translate(-1450.104 -1062.273)"/>
            </g>
        </g>
        <g id="Group_58186" transform="translate(193.077 77.708)">
            <path id="Path_56648" d="M466.163 276.56l74.041 1.852a7.673 7.673 0 0 1 7.479 7.472l2.78 107.482a5.658 5.658 0 0 1-5.7 5.8l-84.9-.58a5.371 5.371 0 0 1-5.332-5.505l2.7-108.036a8.709 8.709 0 0 1 8.932-8.485z" class="cls-15" transform="translate(-454.535 -261.223)"/>
            <path id="Path_56649" d="M497.208 1292l-9.492-.36a5.757 5.757 0 0 1-5.516-5.874l.359-14.336a.105.105 0 0 1 .105-.1.1.1 0 0 1 .1.105l-.359 14.336a5.551 5.551 0 0 0 5.318 5.664l9.492.36a.1.1 0 0 1 0 .205z" class="cls-16" transform="translate(-479.421 -1156.245)"/>
            <path id="Path_56650" d="M487 1206.413a.1.1 0 0 1-.1-.105l.058-2.322a.106.106 0 0 1 .105-.1.1.1 0 0 1 .1.105l-.058 2.322a.1.1 0 0 1-.105.1z" class="cls-16" transform="translate(-483.651 -1095.567)"/>
            <g id="Group_58184" transform="translate(6.779 14.439)">
                <path id="Path_56651" d="M527.242 267.671c10.077 1.624 44.739 6.734 73.541 5.247a2.339 2.339 0 0 1 2.463 2.269l3.034 107.967a2.692 2.692 0 0 1-2.6 2.767c-12.108.413-61.969 1.934-79.682-.371a2.133 2.133 0 0 1-1.855-2.158l2.166-113.27a2.53 2.53 0 0 1 2.933-2.451z" class="cls-12" transform="translate(-522.144 -267.638)"/>
                <path id="Path_56652" fill="#4d6898" d="M539.068 295.845c9.7 1.563 43.055 6.481 70.772 5.049a2.251 2.251 0 0 1 2.371 2.183l2.919 103.9a2.591 2.591 0 0 1-2.5 2.663c-11.652.4-59.635 1.861-76.681-.357a2.052 2.052 0 0 1-1.785-2.077l2.085-109a2.435 2.435 0 0 1 2.819-2.361z" transform="translate(-532.956 -292.988)"/>
                <g id="Group_58175" class="cls-18" transform="translate(45.514 14.228)">
                    <path id="Path_56653" d="M1003.98 412.213a.388.388 0 0 0 .4-.391v-.691a.426.426 0 0 0-.4-.418l-27.624-1.184a.261.261 0 0 0-.277.364l.407 1.254a.608.608 0 0 0 .525.392z" class="cls-9" transform="translate(-976.054 -409.528)"/>
                </g>
                <g id="Group_58176" class="cls-18" transform="translate(45.411 18.375)">
                    <path id="Path_56654" d="M975.315 450.888a.261.261 0 0 0-.277.364l.407 1.254a.608.608 0 0 0 .525.392l26.976.675a.388.388 0 0 0 .4-.391v-.692a.426.426 0 0 0-.4-.418z" class="cls-9" transform="translate(-975.019 -450.887)"/>
                </g>
                <g id="Group_58177" class="cls-18" transform="translate(45.305 22.582)">
                    <path id="Path_56655" d="M974.266 492.848a.261.261 0 0 0-.277.364l.407 1.254a.608.608 0 0 0 .525.392l26.976.675a.388.388 0 0 0 .4-.391v-.692a.426.426 0 0 0-.4-.418z" class="cls-9" transform="translate(-973.97 -492.847)"/>
                </g>
                <g id="Group_58178" class="cls-18" transform="translate(11.841 30.432)">
                    <path id="Path_56656" d="M704 574.716a.371.371 0 0 0 .384-.391l-.028-.693a.44.44 0 0 0-.417-.414l-63.48-2.089c-.221-.007-.292.131-.159.307l1.058 1.4a.944.944 0 0 0 .643.33z" class="cls-9" transform="translate(-640.229 -571.129)"/>
                </g>
                <g id="Group_58179" class="cls-18" transform="translate(11.737 34.579)">
                    <path id="Path_56657" d="M639.421 612.488c-.22-.007-.292.131-.159.307l1.058 1.4a.944.944 0 0 0 .643.33l62 1.551a.371.371 0 0 0 .385-.391l-.028-.693a.44.44 0 0 0-.417-.414z" class="cls-9" transform="translate(-639.195 -612.487)"/>
                </g>
                <path id="Path_56658" d="M646.157 718.814h-.023l-8.334-.014a2.26 2.26 0 0 1-2.32-1.906l-.784-6.988a1.54 1.54 0 0 1 .355-1.161 1.849 1.849 0 0 1 1.284-.646c.7-.053 1.671-.143 2.735-.241 2.318-.215 4.946-.458 6.491-.489h.034a2.344 2.344 0 0 1 2.331 1.631c.447 1.605.431 4.646.372 7.885a2.08 2.08 0 0 1-2.141 1.929zm-9.772-10.041a1.166 1.166 0 0 0-.812.4.864.864 0 0 0-.2.651l.784 6.988a1.583 1.583 0 0 0 1.646 1.3l8.336.019h.016a1.4 1.4 0 0 0 1.465-1.267c.058-3.187.075-6.173-.348-7.69a1.683 1.683 0 0 0-1.7-1.132c-1.52.03-4.249.283-6.442.486-1.069.1-2.041.189-2.747.243z" class="cls-9" transform="translate(-623.4 -663.271)"/>
                <path id="Path_56659" d="M651.055 723.116c1.75-.133 5.553-.547 7.358-.583a1.614 1.614 0 0 1 1.623 1.1 28.337 28.337 0 0 1 .288 6.223 1.387 1.387 0 0 1-1.456 1.279l-6.661-.015a1.539 1.539 0 0 1-1.585-1.282l-.627-5.584a1.082 1.082 0 0 1 1.06-1.138z" class="cls-9" transform="translate(-637.169 -676.92)"/>
                <g id="Group_58180" class="cls-18" transform="translate(29.428 48.227)">
                    <path id="Path_56660" d="M815.938 748.6a.286.286 0 0 0-.3.381l.919 3.383a.55.55 0 0 0 .506.384l42.535-.313a.392.392 0 0 0 .389-.4l-.068-2.307a.425.425 0 0 0-.413-.407z" class="cls-9" transform="translate(-815.629 -748.596)"/>
                </g>
                <path id="Path_56661" d="M658.4 685.281a1.279 1.279 0 0 1 1.768.467l1.666 2.935a.411.411 0 0 0 .733-.037l4.011-9.108a.455.455 0 0 1 .872.19 17.923 17.923 0 0 1-5.123 12.512s-2.452-.932-4.453-5.242a1.342 1.342 0 0 1 .526-1.717z" class="cls-11" transform="translate(-644.149 -637.991)"/>
                <path id="Path_56662" d="M647.47 896.97h-.023l-8.336-.019a2.26 2.26 0 0 1-2.32-1.906l-.784-6.988a1.54 1.54 0 0 1 .355-1.161 1.849 1.849 0 0 1 1.284-.646c.7-.053 1.671-.143 2.735-.241 2.318-.215 4.946-.458 6.491-.489h.034a2.344 2.344 0 0 1 2.332 1.631c.447 1.6.431 4.646.372 7.885a2.08 2.08 0 0 1-2.14 1.934zm-9.77-10.041a1.166 1.166 0 0 0-.812.4.864.864 0 0 0-.2.651l.784 6.988a1.583 1.583 0 0 0 1.646 1.3l8.336.019h.016a1.4 1.4 0 0 0 1.465-1.267c.058-3.187.075-6.173-.348-7.69a1.694 1.694 0 0 0-1.7-1.133c-1.52.03-4.249.283-6.442.486-1.069.1-2.041.189-2.747.243z" class="cls-9" transform="translate(-624.581 -823.563)"/>
                <path id="Path_56663" d="M652.367 901.273c1.75-.133 5.553-.547 7.358-.583a1.614 1.614 0 0 1 1.623 1.1 28.324 28.324 0 0 1 .288 6.223 1.387 1.387 0 0 1-1.456 1.279l-6.661-.015a1.539 1.539 0 0 1-1.586-1.277l-.627-5.584a1.082 1.082 0 0 1 1.061-1.143z" class="cls-9" transform="translate(-638.349 -837.213)"/>
                <g id="Group_58181" class="cls-18" transform="translate(29.56 66.091)">
                    <path id="Path_56664" d="M817.25 926.755a.286.286 0 0 0-.3.38l.919 3.383a.551.551 0 0 0 .506.384l42.535-.313a.392.392 0 0 0 .389-.4l-.068-2.307a.425.425 0 0 0-.413-.407z" class="cls-9" transform="translate(-816.941 -926.754)"/>
                </g>
                <path id="Path_56665" d="M659.71 863.438a1.279 1.279 0 0 1 1.768.467l1.666 2.935a.411.411 0 0 0 .733-.037l4.011-9.108a.455.455 0 0 1 .872.19 17.923 17.923 0 0 1-5.123 12.512s-2.452-.932-4.453-5.242a1.342 1.342 0 0 1 .526-1.717z" class="cls-11" transform="translate(-645.33 -798.284)"/>
                <path id="Path_56666" d="M640.952 1068.107h-.022l-8.336-.019a2.259 2.259 0 0 1-2.32-1.906l-.784-6.988a1.541 1.541 0 0 1 .355-1.161 1.85 1.85 0 0 1 1.285-.646c.7-.053 1.669-.143 2.733-.241 2.2-.2 4.949-.458 6.494-.489a2.377 2.377 0 0 1 2.365 1.63c.447 1.605.431 4.646.372 7.885a2.081 2.081 0 0 1-2.142 1.935zm-9.771-10.041a1.167 1.167 0 0 0-.812.4.865.865 0 0 0-.2.651l.784 6.988a1.583 1.583 0 0 0 1.646 1.3l8.336.019a1.432 1.432 0 0 0 1.482-1.267c.058-3.187.075-6.173-.348-7.69a1.7 1.7 0 0 0-1.7-1.132c-1.521.03-4.251.283-6.445.486-1.068.1-2.039.189-2.744.242z" class="cls-9" transform="translate(-618.717 -977.541)"/>
                <path id="Path_56667" d="M645.849 1072.4c1.75-.132 5.553-.547 7.358-.583a1.614 1.614 0 0 1 1.623 1.1 28.331 28.331 0 0 1 .288 6.223 1.386 1.386 0 0 1-1.456 1.279l-6.661-.015a1.539 1.539 0 0 1-1.585-1.282l-.627-5.584a1.082 1.082 0 0 1 1.06-1.138z" class="cls-9" transform="translate(-632.485 -991.185)"/>
                <g id="Group_58182" class="cls-18" transform="translate(28.906 83.25)">
                    <path id="Path_56668" d="M810.732 1097.885a.286.286 0 0 0-.3.38l.919 3.383a.55.55 0 0 0 .506.384l42.535-.313a.392.392 0 0 0 .389-.4l-.067-2.307a.425.425 0 0 0-.413-.407z" class="cls-9" transform="translate(-810.423 -1097.885)"/>
                </g>
                <path id="Path_56669" d="M653.192 1034.569a1.279 1.279 0 0 1 1.768.467l1.666 2.935a.411.411 0 0 0 .733-.037l4.011-9.108a.455.455 0 0 1 .872.19 17.923 17.923 0 0 1-5.123 12.512s-2.452-.932-4.453-5.242a1.342 1.342 0 0 1 .526-1.717z" class="cls-11" transform="translate(-639.466 -952.255)"/>
                <path id="Path_56670" d="M632.81 1244.6h-.023l-8.336-.019a2.259 2.259 0 0 1-2.32-1.906l-.784-6.988a1.539 1.539 0 0 1 .355-1.161 1.849 1.849 0 0 1 1.284-.646c.7-.053 1.67-.143 2.735-.241 2.318-.215 4.946-.458 6.491-.489a2.371 2.371 0 0 1 2.365 1.63c.447 1.6.431 4.646.372 7.885a2.08 2.08 0 0 1-2.139 1.935zm-9.772-10.041a1.165 1.165 0 0 0-.812.4.864.864 0 0 0-.2.651l.784 6.988a1.583 1.583 0 0 0 1.646 1.3l8.336.019h.016a1.4 1.4 0 0 0 1.465-1.267c.058-3.187.075-6.173-.347-7.69a1.714 1.714 0 0 0-1.7-1.132c-1.52.03-4.249.283-6.442.486-1.069.1-2.041.189-2.747.243z" class="cls-9" transform="translate(-611.391 -1136.334)"/>
                <path id="Path_56671" d="M637.706 1248.894c1.75-.133 5.553-.547 7.358-.583a1.614 1.614 0 0 1 1.623 1.1 28.327 28.327 0 0 1 .288 6.223 1.387 1.387 0 0 1-1.456 1.28l-6.661-.015a1.539 1.539 0 0 1-1.585-1.282l-.627-5.584a1.082 1.082 0 0 1 1.06-1.139z" class="cls-9" transform="translate(-625.159 -1149.977)"/>
                <g id="Group_58183" class="cls-18" transform="translate(28.09 100.947)">
                    <path id="Path_56672" d="M802.59 1274.374a.286.286 0 0 0-.3.38l.919 3.383a.55.55 0 0 0 .506.384l42.535-.313a.392.392 0 0 0 .389-.4l-.068-2.307a.425.425 0 0 0-.413-.408z" class="cls-9" transform="translate(-802.28 -1274.374)"/>
                </g>
                <path id="Path_56673" d="M645.05 1211.058a1.279 1.279 0 0 1 1.768.467l1.666 2.935a.411.411 0 0 0 .733-.037l4.011-9.108a.455.455 0 0 1 .872.19 17.924 17.924 0 0 1-5.123 12.512s-2.452-.932-4.453-5.242a1.342 1.342 0 0 1 .526-1.717z" class="cls-11" transform="translate(-632.14 -1111.047)"/>
            </g>
            <path id="Path_56674" fill="url(#linear-gradient-5)" d="M908.252 125.376a7.524 7.524 0 0 0-6.6-1.507 3.266 3.266 0 0 0-2.4 3.375l.513 7.723 8.382.956s5.259-6.767.105-10.547zM904.4 131.5a2.1 2.1 0 1 1 2.147-2.042 2.1 2.1 0 0 1-2.147 2.042z" transform="translate(-854.645 -123.635)"/>
            <g id="Group_58185" transform="translate(45.392 .934)">
                <path id="Path_56675" d="M907.718 140.316a.416.416 0 0 1-.263-.36l-.082-1.23a.416.416 0 0 1 .831-.055l.082 1.23a.416.416 0 0 1-.568.415zm-.16-2.41a.416.416 0 0 1-.263-.36l-.062-.934a3.332 3.332 0 0 1 2.449-3.435 6.5 6.5 0 0 1 3.177-.051.416.416 0 0 1-.188.811 5.669 5.669 0 0 0-2.774.044 2.5 2.5 0 0 0-1.834 2.576l.062.934a.416.416 0 0 1-.568.415z" class="cls-16" transform="translate(-907.226 -132.953)"/>
            </g>
            <path id="Path_56676" fill="url(#linear-gradient-6)" d="M788.839 228.009l.1-3.874a2.365 2.365 0 0 1 2.5-2.3l26.688 1.583a2.3 2.3 0 0 1 2.162 2.216l.13 3.728z" transform="translate(-755.318 -211.983)"/>
            <path id="Path_56677" d="M878.181 235.206l-1.149-.029a.1.1 0 0 1 .005-.205l1.149.029a.1.1 0 0 1 0 .205z" class="cls-16" transform="translate(-834.575 -223.808)"/>
            <path id="Path_56678" d="M799.725 234.81a.416.416 0 0 1-.263-.4l.039-1.567a2.411 2.411 0 0 1 2.47-2.349l4.223.106a.416.416 0 0 1-.021.833l-4.223-.106a1.579 1.579 0 0 0-1.617 1.538l-.039 1.567a.416.416 0 0 1-.569.377z" class="cls-16" transform="translate(-764.875 -219.78)"/>
            <path id="Path_56679" fill="url(#linear-gradient-7)" d="M681.175 267.226l46.709 1.167a3.453 3.453 0 0 1 3.33 2.948l.034.229a2.966 2.966 0 0 1-3.008 3.4l-47.921-1.2a1.928 1.928 0 0 1-1.875-2.068l.157-2.142a2.518 2.518 0 0 1 2.574-2.334z" transform="translate(-655.988 -252.827)"/>
        </g>
        <g id="Group_58201" transform="translate(217.771 96.359)">
            <g id="Group_58188" transform="translate(0 10.089)">
                <circle id="Ellipse_997" cx="6.325" cy="6.325" r="6.325" class="cls-9" transform="rotate(-16.845 12.38 1.833)"/>
                <circle id="Ellipse_998" cx="6.114" cy="6.114" r="6.114" class="cls-11" transform="translate(1.772 1.772)"/>
                <path id="Path_56680" d="M728.255 434.91a.1.1 0 0 1-.046-.011.1.1 0 0 1-.045-.138 5.723 5.723 0 0 1 5.136-3.161 5.8 5.8 0 0 1 1.037.093.1.1 0 1 1-.037.2 5.6 5.6 0 0 0-1-.09 5.519 5.519 0 0 0-4.95 3.048.1.1 0 0 1-.095.059z" class="cls-22" transform="translate(-725.41 -429.461)"/>
                <circle id="Ellipse_999" cx="5.175" cy="5.175" r="5.175" class="cls-22" transform="translate(2.844 2.844)"/>
                <g id="Group_58187" transform="translate(5.74 4.357)">
                    <path id="Path_56681" d="M759.827 461.225v-.563a4.59 4.59 0 0 1-1.58-.343.326.326 0 0 1-.18-.385l.143-.524a.328.328 0 0 1 .446-.215 3.812 3.812 0 0 0 1.459.307c.565 0 .987-.192.987-.584 0-.354-.326-.565-1.112-.776-1.121-.307-1.926-.8-1.926-1.782 0-.891.652-1.571 1.782-1.753v-.563a.328.328 0 0 1 .328-.328h.331a.328.328 0 0 1 .328.328v.506a4.189 4.189 0 0 1 1.252.225.326.326 0 0 1 .2.394l-.132.485a.327.327 0 0 1-.432.221 3.415 3.415 0 0 0-1.228-.223c-.671 0-.862.278-.862.527 0 .307.4.517 1.274.786 1.246.374 1.763.891 1.763 1.82a1.92 1.92 0 0 1-1.859 1.811v.63a.328.328 0 0 1-.328.328h-.331a.328.328 0 0 1-.323-.329z" class="cls-11" transform="translate(-758.055 -453.715)"/>
                </g>
            </g>
            <g id="Group_58217" transform="translate(48.825 21.262)">
                <circle id="Ellipse_997-2" cx="11.075" cy="11.075" r="11.075" class="cls-9" transform="rotate(-16.845 21.676 3.21)"/>
                <circle id="Ellipse_998-2" cx="10.707" cy="10.707" r="10.707" class="cls-11" transform="translate(3.103 3.103)"/>
                <path id="Path_56680-2" d="M728.331 437.4a.18.18 0 0 1-.16-.261 10.022 10.022 0 0 1 8.99-5.535 10.152 10.152 0 0 1 1.815.163.18.18 0 1 1-.064.353 9.808 9.808 0 0 0-1.751-.157 9.664 9.664 0 0 0-8.668 5.337.18.18 0 0 1-.162.1z" class="cls-22" transform="translate(-723.351 -427.854)"/>
                <circle id="Ellipse_999-2" cx="9.062" cy="9.062" r="9.062" class="cls-22" transform="translate(4.981 4.981)"/>
                <g id="Group_58187-2" transform="translate(10.052 7.629)">
                    <path id="Path_56681-2" d="M761.157 466.866v-.986a8.039 8.039 0 0 1-2.766-.6.57.57 0 0 1-.315-.674l.251-.918a.575.575 0 0 1 .78-.376 6.675 6.675 0 0 0 2.554.538c.99 0 1.728-.336 1.728-1.023 0-.621-.57-.99-1.946-1.359-1.963-.537-3.373-1.393-3.373-3.121 0-1.56 1.141-2.752 3.121-3.071v-.986a.574.574 0 0 1 .574-.575h.579a.575.575 0 0 1 .575.575v.885a7.336 7.336 0 0 1 2.193.394.572.572 0 0 1 .357.69l-.23.849a.573.573 0 0 1-.756.387 5.98 5.98 0 0 0-2.151-.391c-1.175 0-1.51.487-1.51.923 0 .537.7.906 2.232 1.376 2.181.654 3.087 1.56 3.087 3.188 0 1.493-1.107 2.836-3.255 3.171v1.1a.574.574 0 0 1-.574.574h-.579a.574.574 0 0 1-.576-.57z" class="cls-11" transform="translate(-758.055 -453.715)"/>
                </g>
            </g>
            <g id="Group_58215" transform="translate(39.956 10.089)">
                <circle id="Ellipse_997-3" cx="6.325" cy="6.325" r="6.325" class="cls-9" transform="rotate(-16.845 12.38 1.833)"/>
                <circle id="Ellipse_998-3" cx="6.114" cy="6.114" r="6.114" class="cls-11" transform="translate(1.772 1.772)"/>
                <path id="Path_56680-3" d="M728.255 434.91a.1.1 0 0 1-.046-.011.1.1 0 0 1-.045-.138 5.723 5.723 0 0 1 5.136-3.161 5.8 5.8 0 0 1 1.037.093.1.1 0 1 1-.037.2 5.6 5.6 0 0 0-1-.09 5.519 5.519 0 0 0-4.95 3.048.1.1 0 0 1-.095.059z" class="cls-22" transform="translate(-725.41 -429.461)"/>
                <circle id="Ellipse_999-3" cx="5.175" cy="5.175" r="5.175" class="cls-22" transform="translate(2.844 2.844)"/>
                <g id="Group_58187-3" transform="translate(5.74 4.357)">
                    <path id="Path_56681-3" d="M759.827 461.225v-.563a4.59 4.59 0 0 1-1.58-.343.326.326 0 0 1-.18-.385l.143-.524a.328.328 0 0 1 .446-.215 3.812 3.812 0 0 0 1.459.307c.565 0 .987-.192.987-.584 0-.354-.326-.565-1.112-.776-1.121-.307-1.926-.8-1.926-1.782 0-.891.652-1.571 1.782-1.753v-.563a.328.328 0 0 1 .328-.328h.331a.328.328 0 0 1 .328.328v.506a4.189 4.189 0 0 1 1.252.225.326.326 0 0 1 .2.394l-.132.485a.327.327 0 0 1-.432.221 3.415 3.415 0 0 0-1.228-.223c-.671 0-.862.278-.862.527 0 .307.4.517 1.274.786 1.246.374 1.763.891 1.763 1.82a1.92 1.92 0 0 1-1.859 1.811v.63a.328.328 0 0 1-.328.328h-.331a.328.328 0 0 1-.323-.329z" class="cls-11" transform="translate(-758.055 -453.715)"/>
                </g>
            </g>
            <g id="Group_58213" transform="translate(14.188)">
                <circle id="Ellipse_997-4" cx="8.949" cy="8.949" r="8.949" class="cls-9" transform="rotate(-16.845 17.516 2.593)"/>
                <circle id="Ellipse_998-4" cx="8.652" cy="8.652" r="8.652" class="cls-11" transform="translate(2.507 2.507)"/>
                <path id="Path_56680-4" d="M728.3 436.283a.143.143 0 0 1-.065-.016.145.145 0 0 1-.064-.2 8.1 8.1 0 0 1 7.264-4.472 8.205 8.205 0 0 1 1.467.132.145.145 0 1 1-.052.286 7.925 7.925 0 0 0-1.415-.127 7.809 7.809 0 0 0-7 4.313.145.145 0 0 1-.135.084z" class="cls-22" transform="translate(-724.273 -428.573)"/>
                <circle id="Ellipse_999-4" cx="7.323" cy="7.323" r="7.323" class="cls-22" transform="translate(4.025 4.025)"/>
                <g id="Group_58187-4" transform="translate(8.122 6.165)">
                    <path id="Path_56681-4" d="M760.562 464.341v-.8a6.5 6.5 0 0 1-2.235-.485.461.461 0 0 1-.255-.544l.2-.742a.465.465 0 0 1 .63-.3 5.394 5.394 0 0 0 2.064.435c.8 0 1.4-.271 1.4-.827 0-.5-.461-.8-1.573-1.1-1.586-.434-2.725-1.125-2.725-2.522 0-1.261.922-2.224 2.522-2.481v-.8a.464.464 0 0 1 .464-.464h.468a.464.464 0 0 1 .464.464v.715a5.927 5.927 0 0 1 1.772.318.462.462 0 0 1 .289.558l-.186.686a.463.463 0 0 1-.611.313 4.831 4.831 0 0 0-1.738-.316c-.949 0-1.22.393-1.22.746 0 .434.569.732 1.8 1.112 1.762.529 2.495 1.261 2.495 2.576 0 1.207-.895 2.291-2.63 2.563v.892a.464.464 0 0 1-.464.464h-.468a.464.464 0 0 1-.463-.461z" class="cls-11" transform="translate(-758.055 -453.715)"/>
                </g>
            </g>
            <g id="Group_58214" transform="translate(26.287 20.649)">
                <circle id="Ellipse_997-5" cx="6.473" cy="6.473" r="6.473" class="cls-9" transform="rotate(-16.845 12.67 1.876)"/>
                <circle id="Ellipse_998-5" cx="6.258" cy="6.258" r="6.258" class="cls-11" transform="translate(1.813 1.813)"/>
                <path id="Path_56680-5" d="M728.257 434.987a.105.105 0 0 1-.094-.152 5.857 5.857 0 0 1 5.254-3.235 5.934 5.934 0 0 1 1.061.1.1.1 0 1 1-.038.207 5.73 5.73 0 0 0-1.023-.092 5.648 5.648 0 0 0-5.066 3.119.1.1 0 0 1-.094.053z" class="cls-22" transform="translate(-725.346 -429.411)"/>
                <circle id="Ellipse_999-5" cx="5.297" cy="5.297" r="5.297" class="cls-22" transform="translate(2.911 2.911)"/>
                <g id="Group_58187-5" transform="translate(5.875 4.459)">
                    <path id="Path_56681-5" d="M759.868 461.4v-.576a4.7 4.7 0 0 1-1.617-.351.333.333 0 0 1-.184-.394l.146-.537a.336.336 0 0 1 .456-.22 3.9 3.9 0 0 0 1.493.314c.579 0 1.01-.2 1.01-.6 0-.363-.333-.579-1.138-.794-1.147-.314-1.971-.814-1.971-1.824 0-.912.667-1.608 1.824-1.795v-.576a.336.336 0 0 1 .336-.336h.339a.336.336 0 0 1 .336.336v.517a4.287 4.287 0 0 1 1.282.23.334.334 0 0 1 .209.4l-.135.5a.335.335 0 0 1-.442.226 3.494 3.494 0 0 0-1.257-.228c-.687 0-.883.284-.883.539 0 .314.412.53 1.3.8 1.275.382 1.8.912 1.8 1.863a1.965 1.965 0 0 1-1.9 1.854v.645a.336.336 0 0 1-.336.336h-.336a.336.336 0 0 1-.332-.329z" class="cls-11" transform="translate(-758.055 -453.715)"/>
                </g>
            </g>
            <g id="Group_58216" transform="translate(14.188 35.072)">
                <circle id="Ellipse_997-6" cx="10.816" cy="10.816" r="10.816" class="cls-9" transform="rotate(-16.845 21.17 3.134)"/>
                <circle id="Ellipse_998-6" cx="10.457" cy="10.457" r="10.457" class="cls-11" transform="translate(3.03 3.03)"/>
                <path id="Path_56680-6" d="M728.327 437.26a.176.176 0 0 1-.157-.255 9.787 9.787 0 0 1 8.779-5.405 9.915 9.915 0 0 1 1.773.159.175.175 0 1 1-.063.345 9.578 9.578 0 0 0-1.71-.154 9.438 9.438 0 0 0-8.466 5.212.176.176 0 0 1-.156.098z" class="cls-22" transform="translate(-723.463 -427.942)"/>
                <circle id="Ellipse_999-6" cx="8.85" cy="8.85" r="8.85" class="cls-22" transform="translate(4.864 4.864)"/>
                <g id="Group_58187-6" transform="translate(9.816 7.451)">
                    <path id="Path_56681-6" d="M761.085 466.558v-.958a7.851 7.851 0 0 1-2.7-.586.557.557 0 0 1-.308-.658l.245-.9a.561.561 0 0 1 .762-.367 6.518 6.518 0 0 0 2.494.525c.967 0 1.688-.328 1.688-1 0-.606-.557-.967-1.9-1.327-1.917-.524-3.294-1.36-3.294-3.048 0-1.524 1.114-2.687 3.048-3v-.963a.561.561 0 0 1 .561-.561h.566a.561.561 0 0 1 .561.561v.865a7.164 7.164 0 0 1 2.141.384.558.558 0 0 1 .349.674l-.225.829a.56.56 0 0 1-.739.378 5.84 5.84 0 0 0-2.1-.381c-1.147 0-1.475.475-1.475.9 0 .524.688.885 2.179 1.344 2.13.639 3.015 1.524 3.015 3.113 0 1.458-1.081 2.769-3.179 3.1v1.078a.561.561 0 0 1-.561.561h-.566a.561.561 0 0 1-.562-.563z" class="cls-11" transform="translate(-758.055 -453.715)"/>
                </g>
            </g>
        </g>
        <g id="Group_58202" transform="translate(222.913 131.945)">
            <path id="Path_56694" d="M857.975 1153.221l-.319-.24a.2.2 0 0 1-.047-.24.126.126 0 0 1 .193-.059l.312.245a.2.2 0 0 1 .043.235.122.122 0 0 1-.182.059z" class="cls-9" transform="translate(-847.009 -1103.712)"/>
            <path id="Path_56695" d="M847.6 1144.594l-.308-.262a.22.22 0 0 1-.04-.264.135.135 0 0 1 .212-.05l.3.266a.216.216 0 0 1 .035.258.131.131 0 0 1-.199.052z" class="cls-9" transform="translate(-837.682 -1095.911)"/>
            <path id="Path_56696" d="M837.6 1135.3l-.3-.282a.239.239 0 0 1-.031-.286.144.144 0 0 1 .23-.039l.289.285a.235.235 0 0 1 .026.281.14.14 0 0 1-.214.041z" class="cls-9" transform="translate(-828.696 -1087.512)"/>
            <path id="Path_56697" d="M828.013 1125.4l-.284-.3a.255.255 0 0 1-.02-.305.151.151 0 0 1 .245-.025l.277.3a.251.251 0 0 1 .016.3.149.149 0 0 1-.234.03z" class="cls-9" transform="translate(-820.088 -1078.574)"/>
            <path id="Path_56698" d="M818.856 1114.91l-.272-.319a.268.268 0 0 1-.007-.321.158.158 0 0 1 .258-.009l.264.319a.264.264 0 0 1 0 .317.156.156 0 0 1-.243.013z" class="cls-9" transform="translate(-811.865 -1069.111)"/>
            <path id="Path_56699" d="M810.139 1103.854l-.258-.336a.281.281 0 0 1 .006-.336.166.166 0 0 1 .27.008l.25.336a.277.277 0 0 1-.01.332.163.163 0 0 1-.258-.004z" class="cls-9" transform="translate(-804.037 -1059.139)"/>
            <path id="Path_56700" d="M801.885 1092.258l-.244-.353a.293.293 0 0 1 .021-.35.174.174 0 0 1 .281.026l.236.351a.289.289 0 0 1-.024.346.171.171 0 0 1-.27-.02z" class="cls-9" transform="translate(-796.628 -1048.684)"/>
            <path id="Path_56701" d="M794.122 1080.148l-.229-.368a.3.3 0 0 1 .037-.364.182.182 0 0 1 .292.046l.221.366a.3.3 0 0 1-.041.358.18.18 0 0 1-.28-.038z" class="cls-9" transform="translate(-789.661 -1037.767)"/>
            <path id="Path_56702" d="M786.879 1067.547l-.213-.383a.314.314 0 0 1 .055-.375.191.191 0 0 1 .3.068l.2.38a.309.309 0 0 1-.058.37.189.189 0 0 1-.284-.06z" class="cls-9" transform="translate(-783.164 -1026.411)"/>
            <path id="Path_56703" d="M780.19 1054.48l-.2-.4a.323.323 0 0 1 .074-.386.2.2 0 0 1 .31.092v.005l.188.393a.318.318 0 0 1-.077.38.2.2 0 0 1-.295-.084z" class="cls-9" transform="translate(-777.165 -1014.639)"/>
            <path id="Path_56704" d="M774.092 1040.973l-.178-.411a.33.33 0 0 1 .095-.395.213.213 0 0 1 .317.118v.006l.17.405a.326.326 0 0 1-.1.389.211.211 0 0 1-.304-.112z" class="cls-9" transform="translate(-771.7 -1002.471)"/>
            <path id="Path_56705" d="M768.659 1027.092l-.157-.424a.333.333 0 0 1 .117-.4.222.222 0 0 1 .318.146l.151.416a.329.329 0 0 1-.119.392.221.221 0 0 1-.31-.13z" class="cls-9" transform="translate(-766.835 -989.976)"/>
            <path id="Path_56706" d="M763.908 1012.831l-.136-.436a.332.332 0 0 1 .139-.394.232.232 0 0 1 .316.173v.005l.13.426v.005a.329.329 0 0 1-.141.391.232.232 0 0 1-.308-.17z" class="cls-9" transform="translate(-762.585 -977.143)"/>
            <path id="Path_56707" d="M759.885 998.229l-.114-.446a.331.331 0 0 1 .162-.39.244.244 0 0 1 .313.2v.006l.108.435v.006a.328.328 0 0 1-.164.386.243.243 0 0 1-.305-.197z" class="cls-9" transform="translate(-758.99 -964.004)"/>
            <path id="Path_56708" d="M756.641 983.331l-.089-.455a.328.328 0 0 1 .187-.383.257.257 0 0 1 .308.232v.009l.084.443v.006a.325.325 0 0 1-.188.379.256.256 0 0 1-.302-.231z" class="cls-9" transform="translate(-756.097 -950.604)"/>
            <path id="Path_56709" d="M754.228 968.193l-.064-.462a.323.323 0 0 1 .212-.373.271.271 0 0 1 .3.264v.009l.059.449v.007a.32.32 0 0 1-.213.369.27.27 0 0 1-.294-.263z" class="cls-9" transform="translate(-753.952 -936.99)"/>
            <path id="Path_56710" d="M752.7 952.878l-.036-.467a.318.318 0 0 1 .238-.359.287.287 0 0 1 .288.3v.01l.032.453v.007a.315.315 0 0 1-.239.355.286.286 0 0 1-.283-.299z" class="cls-9" transform="translate(-752.601 -923.221)"/>
            <path id="Path_56711" d="M752.091 937.467l-.008-.469a.311.311 0 0 1 .264-.342.3.3 0 0 1 .275.329V937.457a.308.308 0 0 1-.265.338.3.3 0 0 1-.266-.328z" class="cls-9" transform="translate(-752.083 -909.37)"/>
            <path id="Path_56712" d="M752.251 922.046l.022-.469a.3.3 0 0 1 .29-.321.323.323 0 0 1 .258.361v.011l-.024.452v.008a.3.3 0 0 1-.29.316.322.322 0 0 1-.256-.358z" class="cls-9" transform="translate(-752.233 -895.515)"/>
            <path id="Path_56713" d="M753.326 906.715l.053-.466a.3.3 0 0 1 .316-.3.343.343 0 0 1 .237.393v.011l-.054.448v.008a.293.293 0 0 1-.316.291.342.342 0 0 1-.236-.385z" class="cls-9" transform="translate(-753.199 -881.744)"/>
            <path id="Path_56714" d="M755.4 891.576l.083-.459a.289.289 0 0 1 .34-.267.363.363 0 0 1 .214.423v.008l-.083.441v.008a.287.287 0 0 1-.34.262.362.362 0 0 1-.214-.416z" class="cls-9" transform="translate(-755.06 -868.15)"/>
            <path id="Path_56715" d="M758.456 876.729l.112-.449a.283.283 0 0 1 .362-.237.383.383 0 0 1 .19.451v.008l-.111.432v.008a.281.281 0 0 1-.362.232.382.382 0 0 1-.191-.445z" class="cls-9" transform="translate(-757.805 -854.821)"/>
            <path id="Path_56716" d="M762.444 862.255l.14-.437a.279.279 0 0 1 .382-.2.4.4 0 0 1 .164.476v.008l-.138.42v.008a.276.276 0 0 1-.381.2.4.4 0 0 1-.167-.475z" class="cls-9" transform="translate(-761.387 -841.829)"/>
            <path id="Path_56717" d="M767.3 848.222l.165-.422a.275.275 0 0 1 .4-.172.418.418 0 0 1 .138.5v.007l-.162.406v.007a.273.273 0 0 1-.4.167.416.416 0 0 1-.141-.493z" class="cls-9" transform="translate(-765.751 -829.236)"/>
            <path id="Path_56718" d="M772.99 834.736l.189-.406a.27.27 0 0 1 .41-.136.427.427 0 0 1 .109.511v.007l-.184.392v.007a.27.27 0 0 1-.41.135.427.427 0 0 1-.114-.51z" class="cls-9" transform="translate(-770.857 -817.137)"/>
            <path id="Path_56719" d="M779.429 821.768l.21-.389a.267.267 0 0 1 .418-.1.436.436 0 0 1 .082.521v.006l-.2.377v.006a.267.267 0 0 1-.418.1.434.434 0 0 1-.092-.521z" class="cls-9" transform="translate(-776.641 -805.504)"/>
            <path id="Path_56720" d="M786.532 809.351l.229-.372a.265.265 0 0 1 .424-.07.441.441 0 0 1 .056.528v.005l-.223.361v.005a.265.265 0 0 1-.424.069.44.44 0 0 1-.062-.526z" class="cls-9" transform="translate(-783.021 -794.363)"/>
            <path id="Path_56721" d="M794.231 797.493l.245-.355a.264.264 0 0 1 .428-.039.445.445 0 0 1 .032.534l-.239.344a.264.264 0 0 1-.428.039.444.444 0 0 1-.038-.523z" class="cls-9" transform="translate(-789.938 -783.724)"/>
            <path id="Path_56722" d="M802.462 786.2l.26-.337a.265.265 0 0 1 .431-.01.448.448 0 0 1 .008.537l-.254.328a.264.264 0 0 1-.431.01.447.447 0 0 1-.014-.528z" class="cls-9" transform="translate(-797.334 -773.59)"/>
            <path id="Path_56723" d="M811.17 775.465l.273-.32a.266.266 0 0 1 .433.017.45.45 0 0 1-.014.539l-.267.311a.265.265 0 0 1-.432-.018.449.449 0 0 1 .007-.529z" class="cls-9" transform="translate(-805.158 -763.961)"/>
            <path id="Path_56724" d="M820.3 765.275l.286-.3a.268.268 0 0 1 .433.043.451.451 0 0 1-.034.539l-.28.3a.267.267 0 0 1-.433-.044.449.449 0 0 1 .028-.538z" class="cls-9" transform="translate(-813.364 -754.818)"/>
            <path id="Path_56725" d="M829.817 755.638l.3-.286a.27.27 0 0 1 .433.068.45.45 0 0 1-.054.539l-.29.28a.27.27 0 0 1-.432-.068.449.449 0 0 1 .043-.533z" class="cls-9" transform="translate(-821.915 -746.173)"/>
            <path id="Path_56726" d="M839.668 746.54l.306-.27a.273.273 0 0 1 .432.091.449.449 0 0 1-.073.538l-.3.264a.273.273 0 0 1-.431-.092.448.448 0 0 1 .066-.531z" class="cls-9" transform="translate(-830.768 -738.011)"/>
            <path id="Path_56727" d="M849.826 737.973l.314-.254a.276.276 0 0 1 .43.114.448.448 0 0 1-.091.535l-.308.248a.276.276 0 0 1-.429-.115.446.446 0 0 1 .084-.528z" class="cls-9" transform="translate(-839.898 -730.325)"/>
            <path id="Path_56728" d="M860.263 729.93l.322-.238a.28.28 0 0 1 .427.136.445.445 0 0 1-.109.532l-.316.233a.28.28 0 0 1-.427-.137.444.444 0 0 1 .103-.526z" class="cls-9" transform="translate(-849.278 -723.11)"/>
            <path id="Path_56729" d="M870.955 722.4l.329-.223a.284.284 0 0 1 .425.156.443.443 0 0 1-.125.529l-.323.218a.284.284 0 0 1-.424-.157.441.441 0 0 1 .118-.523z" class="cls-9" transform="translate(-858.888 -716.356)"/>
            <path id="Path_56730" d="M881.859 715.362l.335-.208a.289.289 0 0 1 .421.176.44.44 0 0 1-.141.525l-.329.2a.288.288 0 0 1-.421-.177.439.439 0 0 1 .135-.516z" class="cls-9" transform="translate(-868.69 -710.042)"/>
            <path id="Path_56731" d="M892.959 708.814l.34-.193a.294.294 0 0 1 .418.195.437.437 0 0 1-.157.52l-.335.189a.293.293 0 0 1-.417-.2.436.436 0 0 1 .151-.511z" class="cls-9" transform="translate(-878.667 -704.169)"/>
            <path id="Path_56732" d="M904.238 702.761l.346-.178a.3.3 0 0 1 .414.214.434.434 0 0 1-.172.515l-.34.174a.3.3 0 0 1-.413-.215.432.432 0 0 1 .165-.51z" class="cls-9" transform="translate(-888.806 -698.742)"/>
            <path id="Path_56733" d="M915.684 697.2l.35-.163a.3.3 0 0 1 .409.232.43.43 0 0 1-.187.509l-.344.159a.3.3 0 0 1-.408-.233.428.428 0 0 1 .18-.504z" class="cls-9" transform="translate(-899.094 -693.759)"/>
            <path id="Path_56734" d="M927.28 692.145l.355-.148a.31.31 0 0 1 .4.251.426.426 0 0 1-.2.5l-.349.144a.31.31 0 0 1-.4-.251.424.424 0 0 1 .194-.496z" class="cls-9" transform="translate(-909.517 -689.225)"/>
            <path id="Path_56735" d="M939.012 687.6l.359-.131a.315.315 0 0 1 .4.269.419.419 0 0 1-.216.493l-.352.13a.315.315 0 0 1-.4-.268.421.421 0 0 1 .215-.495z" class="cls-9" transform="translate(-920.062 -685.155)"/>
            <path id="Path_56736" d="M950.894 683.577l.362-.116a.318.318 0 0 1 .387.284.411.411 0 0 1-.228.482l-.356.115a.318.318 0 0 1-.388-.283.412.412 0 0 1 .228-.483z" class="cls-9" transform="translate(-930.744 -681.553)"/>
            <path id="Path_56737" d="M962.883 680.059l.365-.1a.322.322 0 0 1 .377.3.4.4 0 0 1-.24.469l-.359.1a.322.322 0 0 1-.378-.3.4.4 0 0 1 .239-.471z" class="cls-9" transform="translate(-941.523 -678.404)"/>
            <path id="Path_56738" d="M974.968 677.047l.368-.086a.326.326 0 0 1 .367.313.4.4 0 0 1-.251.457l-.361.085a.326.326 0 0 1-.368-.312.4.4 0 0 1 .251-.458z" class="cls-9" transform="translate(-952.388 -675.71)"/>
            <path id="Path_56739" d="M987.133 674.545l.37-.07a.33.33 0 0 1 .356.327.387.387 0 0 1-.262.444l-.363.07a.33.33 0 0 1-.357-.326.388.388 0 0 1 .262-.445z" class="cls-9" transform="translate(-963.325 -673.475)"/>
            <path id="Path_56740" d="M999.365 672.552l.371-.054a.334.334 0 0 1 .345.339.378.378 0 0 1-.273.43l-.365.055a.334.334 0 0 1-.347-.339.379.379 0 0 1 .272-.432z" class="cls-9" transform="translate(-974.322 -671.698)"/>
            <path id="Path_56741" d="M1011.647 671.073l.373-.039a.338.338 0 0 1 .334.352.37.37 0 0 1-.283.417l-.366.039a.339.339 0 0 1-.336-.352.371.371 0 0 1 .282-.418z" class="cls-9" transform="translate(-985.364 -670.381)"/>
            <path id="Path_56742" d="M1023.967 670.108l.374-.023a.343.343 0 0 1 .323.364.362.362 0 0 1-.292.4l-.367.024a.343.343 0 0 1-.324-.364.363.363 0 0 1 .292-.4z" class="cls-9" transform="translate(-996.441 -669.528)"/>
            <path id="Path_56743" d="M1036.308 669.66l.374-.008a.347.347 0 0 1 .311.375.354.354 0 0 1-.3.388l-.368.009a.347.347 0 0 1-.313-.375.355.355 0 0 1 .3-.39z" class="cls-9" transform="translate(-1007.537 -669.14)"/>
            <path id="Path_56744" d="M1048.658 669.659l.374.008a.352.352 0 0 1 .3.386.345.345 0 0 1-.31.373l-.368-.007a.352.352 0 0 1-.3-.386.346.346 0 0 1 .31-.375z" class="cls-9" transform="translate(-1018.641 -669.146)"/>
            <path id="Path_56745" d="M1061 670.11l.373.024a.356.356 0 0 1 .287.4.337.337 0 0 1-.318.358l-.367-.022a.356.356 0 0 1-.289-.4.338.338 0 0 1 .318-.359z" class="cls-9" transform="translate(-1029.739 -669.551)"/>
            <path id="Path_56746" d="M1073.327 671.084l.372.04a.361.361 0 0 1 .275.407.33.33 0 0 1-.327.342l-.366-.038a.361.361 0 0 1-.276-.406.331.331 0 0 1 .326-.344z" class="cls-9" transform="translate(-1040.82 -670.427)"/>
            <path id="Path_56747" d="M1085.616 672.583l.371.056a.365.365 0 0 1 .262.416.322.322 0 0 1-.334.326l-.365-.054a.365.365 0 0 1-.263-.416.323.323 0 0 1 .334-.328z" class="cls-9" transform="translate(-1051.869 -671.775)"/>
            <path id="Path_56748" d="M1097.854 674.61l.369.072a.37.37 0 0 1 .249.425.315.315 0 0 1-.341.31l-.363-.069a.37.37 0 0 1-.25-.425.316.316 0 0 1 .341-.312z" class="cls-9" transform="translate(-1062.873 -673.596)"/>
            <path id="Path_56749" d="M1110.029 677.165l.367.088a.374.374 0 0 1 .236.433.307.307 0 0 1-.348.293l-.361-.085a.374.374 0 0 1-.237-.433.308.308 0 0 1 .348-.3z" class="cls-9" transform="translate(-1073.819 -675.893)"/>
            <path id="Path_56750" d="M1122.124 680.252l.364.1a.379.379 0 0 1 .222.441.3.3 0 0 1-.354.277l-.358-.1a.378.378 0 0 1-.223-.441.3.3 0 0 1 .354-.278z" class="cls-9" transform="translate(-1084.694 -678.668)"/>
            <path id="Path_56751" d="M1134.126 683.871l.361.12a.382.382 0 0 1 .208.448.294.294 0 0 1-.36.259l-.355-.117a.382.382 0 0 1-.209-.448.3.3 0 0 1 .36-.261z" class="cls-9" transform="translate(-1095.485 -681.921)"/>
            <path id="Path_56752" d="M1146.018 688.025l.357.136a.386.386 0 0 1 .194.455.287.287 0 0 1-.365.242l-.352-.133a.386.386 0 0 1-.2-.455.288.288 0 0 1 .365-.243z" class="cls-9" transform="translate(-1106.176 -685.656)"/>
            <path id="Path_56753" d="M1157.786 692.683l.353.151a.389.389 0 0 1 .181.46.282.282 0 0 1-.369.226l-.348-.147a.389.389 0 0 1-.182-.46.282.282 0 0 1 .369-.227z" class="cls-9" transform="translate(-1116.758 -689.844)"/>
            <path id="Path_56754" d="M1169.43 697.81l.349.164a.391.391 0 0 1 .169.464.276.276 0 0 1-.373.21l-.345-.16a.392.392 0 0 1-.17-.464.277.277 0 0 1 .373-.212z" class="cls-9" transform="translate(-1127.229 -694.454)"/>
            <path id="Path_56755" d="M1180.945 703.37l.345.176a.393.393 0 0 1 .157.467.271.271 0 0 1-.375.2l-.341-.173a.394.394 0 0 1-.158-.468.272.272 0 0 1 .375-.2z" class="cls-9" transform="translate(-1137.585 -699.453)"/>
            <path id="Path_56756" d="M1192.33 709.329l.341.187a.4.4 0 0 1 .146.47.267.267 0 0 1-.377.182l-.338-.184a.4.4 0 0 1-.147-.47.268.268 0 0 1 .377-.184z" class="cls-9" transform="translate(-1147.824 -704.811)"/>
            <path id="Path_56757" d="M1203.588 715.651l.337.2a.4.4 0 0 1 .136.472.264.264 0 0 1-.379.17l-.333-.194a.4.4 0 0 1-.137-.472.264.264 0 0 1 .379-.171z" class="cls-9" transform="translate(-1157.949 -710.496)"/>
            <path id="Path_56758" d="M1214.717 722.3l.333.207a.4.4 0 0 1 .127.473.26.26 0 0 1-.38.158l-.331-.2a.4.4 0 0 1-.128-.473.261.261 0 0 1 .38-.16z" class="cls-9" transform="translate(-1167.959 -716.475)"/>
            <path id="Path_56759" d="M1225.733 729.249l.33.215a.4.4 0 0 1 .119.473.257.257 0 0 1-.38.148l-.327-.212a.4.4 0 0 1-.12-.474.258.258 0 0 1 .38-.149z" class="cls-9" transform="translate(-1177.868 -722.724)"/>
            <path id="Path_56760" d="M1236.639 736.462l.327.222a.4.4 0 0 1 .111.473.254.254 0 0 1-.38.139l-.324-.22a.4.4 0 0 1-.113-.474.255.255 0 0 1 .38-.14z" class="cls-9" transform="translate(-1187.679 -729.211)"/>
            <path id="Path_56761" d="M1247.443 743.907l.323.229a.4.4 0 0 1 .1.473.251.251 0 0 1-.38.13l-.322-.226a.4.4 0 0 1-.106-.473.252.252 0 0 1 .38-.132z" class="cls-9" transform="translate(-1197.398 -735.908)"/>
            <path id="Path_56762" d="M1258.155 751.555l.321.234a.4.4 0 0 1 .1.472.249.249 0 0 1-.379.123l-.319-.232a.4.4 0 0 1-.1-.472.25.25 0 0 1 .379-.125z" class="cls-9" transform="translate(-1207.034 -742.787)"/>
            <path id="Path_56763" d="M1268.785 759.375l.318.239a.394.394 0 0 1 .094.47.247.247 0 0 1-.378.117l-.317-.237a.394.394 0 0 1-.1-.471.247.247 0 0 1 .378-.118z" class="cls-9" transform="translate(-1216.598 -749.822)"/>
            <path id="Path_56764" d="M1279.345 767.342l.316.242a.392.392 0 0 1 .09.469.245.245 0 0 1-.376.112l-.315-.24a.393.393 0 0 1-.091-.469.245.245 0 0 1 .377-.113z" class="cls-9" transform="translate(-1226.099 -756.988)"/>
            <path id="Path_56765" d="M1289.846 775.425l.315.245a.391.391 0 0 1 .086.467.243.243 0 0 1-.375.107l-.314-.244a.391.391 0 0 1-.088-.467.244.244 0 0 1 .375-.11z" class="cls-9" transform="translate(-1235.548 -764.26)"/>
            <path id="Path_56766" d="M1300.3 783.6l.313.247a.389.389 0 0 1 .084.465.241.241 0 0 1-.373.1l-.313-.246a.389.389 0 0 1-.085-.465.242.242 0 0 1 .374-.106z" class="cls-9" transform="translate(-1244.956 -771.616)"/>
            <path id="Path_56767" d="M1310.721 791.843l.312.249a.387.387 0 0 1 .082.463.24.24 0 0 1-.371.1l-.312-.248a.387.387 0 0 1-.083-.463.24.24 0 0 1 .372-.1z" class="cls-9" transform="translate(-1254.333 -779.03)"/>
            <path id="Path_56768" d="M1321.121 800.125l.312.25a.385.385 0 0 1 .081.46.238.238 0 0 1-.369.1l-.312-.248a.385.385 0 0 1-.082-.461.239.239 0 0 1 .37-.1z" class="cls-9" transform="translate(-1263.691 -786.482)"/>
            <path id="Path_56769" d="M1331.511 808.422l.312.249a.382.382 0 0 1 .08.457.236.236 0 0 1-.367.1l-.312-.248a.383.383 0 0 1-.081-.458.237.237 0 0 1 .368-.1z" class="cls-9" transform="translate(-1273.042 -793.947)"/>
            <path id="Path_56770" d="M1341.906 816.709l.312.249a.38.38 0 0 1 .081.454.235.235 0 0 1-.365.1l-.313-.248a.381.381 0 0 1-.081-.455.236.236 0 0 1 .365-.1z" class="cls-9" transform="translate(-1282.396 -801.404)"/>
            <path id="Path_56771" d="M1352.317 824.962l.313.247a.378.378 0 0 1 .082.451.234.234 0 0 1-.362.1l-.314-.247a.377.377 0 0 1-.082-.452.235.235 0 0 1 .363-.1z" class="cls-9" transform="translate(-1291.766 -808.83)"/>
            <path id="Path_56772" d="M1362.758 833.154l.314.244a.374.374 0 0 1 .084.448.233.233 0 0 1-.36.1l-.315-.244a.375.375 0 0 1-.084-.449.234.234 0 0 1 .36-.1z" class="cls-9" transform="translate(-1301.164 -816.202)"/>
            <path id="Path_56773" d="M1373.242 841.26l.315.241a.372.372 0 0 1 .085.445.232.232 0 0 1-.356.107l-.317-.241a.372.372 0 0 1-.086-.445.233.233 0 0 1 .357-.108z" class="cls-9" transform="translate(-1310.6 -823.497)"/>
            <path id="Path_56774" d="M1383.783 849.259l.317.238a.368.368 0 0 1 .088.439.23.23 0 0 1-.351.11l-.319-.237a.368.368 0 0 1-.09-.44.232.232 0 0 1 .354-.112z" class="cls-9" transform="translate(-1320.089 -830.695)"/>
            <path id="Path_56775" d="M1394.4 857.133l.319.233a.362.362 0 0 1 .09.432.228.228 0 0 1-.346.113l-.322-.232a.363.363 0 0 1-.093-.433.229.229 0 0 1 .348-.115z" class="cls-9" transform="translate(-1329.651 -837.781)"/>
            <path id="Path_56776" d="M1405.1 864.837l.321.227a.356.356 0 0 1 .094.425.226.226 0 0 1-.34.118l-.324-.226a.357.357 0 0 1-.1-.426.227.227 0 0 1 .342-.12z" class="cls-9" transform="translate(-1339.286 -844.716)"/>
            <path id="Path_56777" d="M1415.894 872.342l.324.221a.35.35 0 0 1 .1.417.224.224 0 0 1-.334.123l-.327-.22a.35.35 0 0 1-.1-.418.225.225 0 0 1 .336-.125z" class="cls-9" transform="translate(-1349.001 -851.471)"/>
            <path id="Path_56778" d="M1426.784 879.617l.327.213a.343.343 0 0 1 .1.41.223.223 0 0 1-.328.129l-.331-.212a.344.344 0 0 1-.105-.411.224.224 0 0 1 .329-.131z" class="cls-9" transform="translate(-1358.807 -858.019)"/>
            <path id="Path_56779" d="M1437.784 886.628l.331.2a.337.337 0 0 1 .109.4.221.221 0 0 1-.321.136l-.334-.2a.337.337 0 0 1-.111-.4.222.222 0 0 1 .323-.138z" class="cls-9" transform="translate(-1368.713 -864.33)"/>
            <path id="Path_56780" d="M1448.9 893.343l.335.195a.329.329 0 0 1 .114.393.22.22 0 0 1-.314.143l-.339-.194a.331.331 0 0 1-.116-.394.221.221 0 0 1 .316-.145z" class="cls-9" transform="translate(-1378.725 -870.375)"/>
            <path id="Path_56781" d="M1460.147 899.726l.337.184a.322.322 0 0 1 .121.383.219.219 0 0 1-.307.151l-.342-.183a.323.323 0 0 1-.123-.384.22.22 0 0 1 .309-.153z" class="cls-9" transform="translate(-1388.851 -876.121)"/>
            <path id="Path_56782" d="M1471.515 905.737l.342.172a.315.315 0 0 1 .127.374.218.218 0 0 1-.3.159l-.346-.172a.316.316 0 0 1-.129-.375.219.219 0 0 1 .3-.161z" class="cls-9" transform="translate(-1399.088 -881.533)"/>
            <path id="Path_56783" d="M1483.018 911.346l.346.159a.307.307 0 0 1 .134.364.218.218 0 0 1-.291.168l-.35-.159a.307.307 0 0 1-.136-.364.219.219 0 0 1 .292-.17z" class="cls-9" transform="translate(-1409.448 -886.582)"/>
            <path id="Path_56784" d="M1494.653 916.512l.349.145a.3.3 0 0 1 .142.353.218.218 0 0 1-.282.177l-.354-.145a.3.3 0 0 1-.144-.354.219.219 0 0 1 .284-.179z" class="cls-9" transform="translate(-1419.926 -891.233)"/>
            <path id="Path_56785" d="M1506.417 921.2l.353.13a.29.29 0 0 1 .149.341.218.218 0 0 1-.273.186l-.358-.13a.291.291 0 0 1-.151-.342.219.219 0 0 1 .275-.188z" class="cls-9" transform="translate(-1430.521 -895.453)"/>
            <path id="Path_56786" d="M1518.3 925.372l.357.114a.282.282 0 0 1 .156.33.218.218 0 0 1-.263.2l-.362-.113a.282.282 0 0 1-.158-.33.22.22 0 0 1 .265-.2z" class="cls-9" transform="translate(-1441.227 -899.21)"/>
            <path id="Path_56787" d="M1530.306 929l.36.1a.273.273 0 0 1 .164.317.219.219 0 0 1-.254.2l-.365-.1a.273.273 0 0 1-.166-.317.22.22 0 0 1 .255-.207z" class="cls-9" transform="translate(-1452.036 -902.475)"/>
            <path id="Path_56788" d="M1542.411 932.048l.362.079a.263.263 0 0 1 .171.3.22.22 0 0 1-.243.213l-.368-.078a.264.264 0 0 1-.173-.3.221.221 0 0 1 .244-.216z" class="cls-9" transform="translate(-1462.937 -905.22)"/>
            <path id="Path_56789" d="M1554.6 934.487l.365.06a.254.254 0 0 1 .179.29.222.222 0 0 1-.232.223l-.371-.058a.254.254 0 0 1-.181-.29.223.223 0 0 1 .233-.225z" class="cls-9" transform="translate(-1473.913 -907.417)"/>
            <path id="Path_56790" d="M1566.871 936.253l.367.039a.244.244 0 0 1 .186.275.223.223 0 0 1-.22.232l-.372-.038a.245.245 0 0 1-.188-.275.225.225 0 0 1 .221-.234z" class="cls-9" transform="translate(-1484.968 -909.007)"/>
            <path id="Path_56791" d="M1579.182 937.337l.367.019a.235.235 0 0 1 .192.26.225.225 0 0 1-.208.24l-.373-.017a.236.236 0 0 1-.194-.26.226.226 0 0 1 .209-.242z" class="cls-9" transform="translate(-1496.055 -909.983)"/>
            <path id="Path_56792" d="M1591.519 937.743h.37a.252.252 0 0 1 0 .492h-.373a.253.253 0 0 1 0-.495z" class="cls-9" transform="translate(-1507.166 -910.348)"/>
            <path id="Path_56793" d="M1603.856 937.314l.367-.02a.217.217 0 0 1 .2.231.227.227 0 0 1-.184.252l-.372.023a.217.217 0 0 1-.2-.231.229.229 0 0 1 .185-.255z" class="cls-9" transform="translate(-1518.278 -909.944)"/>
            <path id="Path_56794" d="M1616.173 936.237l.367-.039a.208.208 0 0 1 .207.216.229.229 0 0 1-.173.257l-.371.042a.209.209 0 0 1-.209-.216.23.23 0 0 1 .174-.26z" class="cls-9" transform="translate(-1529.369 -908.957)"/>
            <path id="Path_56795" d="M1628.447 934.521l.365-.058a.2.2 0 0 1 .21.2.23.23 0 0 1-.161.261l-.369.062a.2.2 0 0 1-.212-.2.231.231 0 0 1 .162-.264z" class="cls-9" transform="translate(-1540.422 -907.395)"/>
            <path id="Path_56796" d="M1640.66 932.177l.363-.077a.193.193 0 0 1 .213.188.23.23 0 0 1-.15.265l-.367.081a.193.193 0 0 1-.215-.187.232.232 0 0 1 .15-.267z" class="cls-9" transform="translate(-1551.42 -905.268)"/>
            <path id="Path_56797" d="M1652.787 929.218l.36-.1a.186.186 0 0 1 .215.174.231.231 0 0 1-.139.267l-.364.1a.186.186 0 0 1-.217-.173.232.232 0 0 1 .139-.27z" class="cls-9" transform="translate(-1562.341 -902.588)"/>
            <path id="Path_56798" d="M1664.819 925.653l.357-.114a.179.179 0 0 1 .216.16.23.23 0 0 1-.127.269l-.361.117a.179.179 0 0 1-.218-.159.232.232 0 0 1 .128-.272z" class="cls-9" transform="translate(-1573.175 -899.362)"/>
            <path id="Path_56799" d="M1676.735 921.491l.354-.131a.172.172 0 0 1 .217.146.23.23 0 0 1-.116.27l-.357.135a.173.173 0 0 1-.219-.146.232.232 0 0 1 .117-.273z" class="cls-9" transform="translate(-1583.904 -895.599)"/>
            <path id="Path_56800" d="M1688.51 916.747l.349-.149a.166.166 0 0 1 .217.133.23.23 0 0 1-.106.271l-.352.153a.166.166 0 0 1-.219-.132.231.231 0 0 1 .106-.273z" class="cls-9" transform="translate(-1594.507 -891.313)"/>
            <path id="Path_56801" d="M1700.131 911.43l.344-.166a.16.16 0 0 1 .217.12.228.228 0 0 1-.1.27l-.347.17a.161.161 0 0 1-.219-.119.23.23 0 0 1 .1-.273z" class="cls-9" transform="translate(-1604.97 -886.511)"/>
            <path id="Path_56802" d="M1711.579 905.561l.339-.182a.153.153 0 0 1 .215.107.226.226 0 0 1-.084.267l-.341.188a.154.154 0 0 1-.218-.105.228.228 0 0 1 .085-.271z" class="cls-9" transform="translate(-1615.277 -881.214)"/>
            <path id="Path_56803" d="M1722.855 899.15l.333-.2a.146.146 0 0 1 .211.093.221.221 0 0 1-.073.262l-.335.2a.147.147 0 0 1-.214-.091.224.224 0 0 1 .073-.267z" class="cls-9" transform="translate(-1625.431 -875.429)"/>
            <path id="Path_56804" d="M1733.922 892.2l.327-.215a.14.14 0 0 1 .207.08.216.216 0 0 1-.063.257l-.328.22a.141.141 0 0 1-.21-.078.219.219 0 0 1 .063-.261z" class="cls-9" transform="translate(-1635.396 -869.154)"/>
            <path id="Path_56805" d="M1744.763 884.707l.32-.231a.133.133 0 0 1 .2.067.211.211 0 0 1-.053.251l-.321.236a.134.134 0 0 1-.2-.065.213.213 0 0 1 .052-.255z" class="cls-9" transform="translate(-1645.157 -862.399)"/>
            <path id="Path_56806" d="M1755.359 876.692l.312-.247a.127.127 0 0 1 .2.055.205.205 0 0 1-.043.244l-.313.252a.128.128 0 0 1-.2-.053.207.207 0 0 1 .043-.248z" class="cls-9" transform="translate(-1654.697 -855.171)"/>
            <path id="Path_56807" d="M1765.69 868.161l.3-.262a.121.121 0 0 1 .191.043.2.2 0 0 1-.034.237l-.3.267a.122.122 0 0 1-.193-.042.2.2 0 0 1 .033-.241z" class="cls-9" transform="translate(-1663.999 -847.48)"/>
            <path id="Path_56808" d="M1775.742 859.123l.295-.277a.116.116 0 0 1 .185.032.193.193 0 0 1-.025.229l-.3.282a.117.117 0 0 1-.187-.031.2.2 0 0 1 .025-.233z" class="cls-9" transform="translate(-1673.049 -839.332)"/>
            <path id="Path_56809" d="M1785.489 849.591l.285-.292a.11.11 0 0 1 .178.022.185.185 0 0 1-.017.221l-.286.3a.112.112 0 0 1-.18-.02.188.188 0 0 1 .016-.225z" class="cls-9" transform="translate(-1681.824 -830.74)"/>
            <path id="Path_56810" d="M1794.911 839.576l.275-.306a.105.105 0 0 1 .171.012.178.178 0 0 1-.009.212l-.276.312a.107.107 0 0 1-.173-.01.18.18 0 0 1 .008-.216z" class="cls-9" transform="translate(-1690.307 -821.714)"/>
            <path id="Path_56811" d="M1803.989 829.089l.265-.32a.1.1 0 0 1 .164 0 .17.17 0 0 1 0 .2l-.264.325a.1.1 0 0 1-.166 0 .173.173 0 0 1 0-.207z" class="cls-9" transform="translate(-1698.48 -812.263)"/>
            <path id="Path_56812" d="M1812.709 818.135l.253-.334a.1.1 0 0 1 .156-.005.163.163 0 0 1 0 .194l-.253.339a.1.1 0 0 1-.159.007.165.165 0 0 1-.006-.2z" class="cls-9" transform="translate(-1706.33 -802.394)"/>
            <path id="Path_56813" d="M1821.045 806.732l.242-.347a.092.092 0 0 1 .149-.013.155.155 0 0 1 .011.184l-.241.353a.093.093 0 0 1-.151.015.157.157 0 0 1-.012-.188z" class="cls-9" transform="translate(-1713.834 -792.12)"/>
            <path id="Path_56814" d="M1828.977 794.894l.229-.36a.088.088 0 0 1 .141-.02.146.146 0 0 1 .017.174l-.228.365a.089.089 0 0 1-.143.022.148.148 0 0 1-.018-.178z" class="cls-9" transform="translate(-1720.975 -781.456)"/>
            <path id="Path_56815" d="M1836.481 782.642l.216-.373a.083.083 0 0 1 .132-.027.138.138 0 0 1 .022.164l-.215.378a.085.085 0 0 1-.134.029.14.14 0 0 1-.023-.167z" class="cls-9" transform="translate(-1727.729 -770.419)"/>
            <path id="Path_56816" d="M1843.542 769.975l.2-.385a.08.08 0 0 1 .124-.032.129.129 0 0 1 .026.153l-.2.39a.081.081 0 0 1-.126.034.131.131 0 0 1-.028-.157z" class="cls-9" transform="translate(-1734.085 -759.009)"/>
            <path id="Path_56817" d="M1850.035 756.8l.178-.4a.076.076 0 0 1 .114-.041.119.119 0 0 1 .033.141l-.177.409a.078.078 0 0 1-.116.043.121.121 0 0 1-.035-.145z" class="cls-9" transform="translate(-1739.931 -747.14)"/>
            <path id="Path_56818" d="M1855.6 742.95l.141-.423a.074.074 0 0 1 .1-.053.108.108 0 0 1 .043.127l-.14.432a.076.076 0 0 1-.1.055.11.11 0 0 1-.044-.13z" class="cls-9" transform="translate(-1744.939 -734.65)"/>
            <path id="Path_56819" d="M1859.725 728.357l.086-.443a.074.074 0 0 1 .089-.067.094.094 0 0 1 .054.11l-.085.454a.076.076 0 0 1-.09.07.1.1 0 0 1-.056-.112z" class="cls-9" transform="translate(-1748.657 -721.492)"/>
            <path id="Path_56820" d="M1861.794 713.209l.012-.455v-.006a.076.076 0 0 1 .07-.082.079.079 0 0 1 .066.087l-.009.467a.079.079 0 0 1-.072.085.081.081 0 0 1-.068-.089z" class="cls-9" transform="translate(-1750.521 -707.841)"/>
            <path id="Path_56821" d="M1860.3 698.131l-.086-.442v-.006a.081.081 0 0 1 .046-.094.063.063 0 0 1 .076.057l.092.454a.083.083 0 0 1-.047.1.065.065 0 0 1-.078-.058z" class="cls-9" transform="translate(-1749.098 -694.272)"/>
            <path id="Path_56822" d="M1855.459 684.175l-.178-.4v-.005a.082.082 0 0 1 .022-.1.052.052 0 0 1 .078.027l.186.407a.084.084 0 0 1-.022.1.053.053 0 0 1-.081-.028z" class="cls-9" transform="translate(-1744.653 -681.747)"/>
            <path id="Path_56823" d="M1847.66 672.5l-.264-.314a.077.077 0 0 1 0-.092.045.045 0 0 1 .074 0l.274.321a.079.079 0 0 1 0 .095.047.047 0 0 1-.076 0z" class="cls-9" transform="translate(-1737.549 -671.31)"/>
            <path id="Path_56824" d="M1837.169 664.828l-.338-.171h-.005a.064.064 0 0 1-.026-.076.044.044 0 0 1 .061-.032l.35.173a.066.066 0 0 1 .027.079.046.046 0 0 1-.063.034z" class="cls-9" transform="translate(-1728.031 -664.542)"/>
        </g>
        <g id="Group_58204" transform="translate(284.573 138.075)">
            <path id="Path_56825" fill="url(#linear-gradient-8)" d="M1697.932 1228.5s.825-1.221 1.725-2.351a.96.96 0 0 1 1.354-.208c1.308 1.111 4.095 3.5 5.012 4.443a.323.323 0 0 1-.116.5.7.7 0 0 1-.507.06l-6.553-1.852z" transform="translate(-1664.75 -1175.6)"/>
            <path id="Path_56826" fill="url(#linear-gradient-9)" d="M1690.881 1248.138l1.338-1.132s1.245.406 1.414 1.414l-1.683 1.083z" transform="translate(-1658.406 -1194.731)"/>
            <path id="Path_56827" fill="url(#linear-gradient-10)" d="M1370.025 777.171c-2.088-4.686-4.059-11.689-1.763-18.688l1.331-1.33s0 10.962 2.728 16.406q-1.144 1.809-2.296 3.612z" transform="translate(-1367.211 -753.996)"/>
            <path id="Path_56828" fill="url(#linear-gradient-11)" d="M1369.717 726.732l.5.753a.807.807 0 0 1 .1.7 6.982 6.982 0 0 1-1.314 2.481c-.895.895-1.789-1.252-1.968-1.968s1.073-2.5 1.431-2.863 1.787-.177 1.251.897z" transform="translate(-1367.016 -725.67)"/>
            <path id="Path_56829" fill="url(#linear-gradient-12)" d="M1387.218 1471.777s.257 1.455.383 2.9a.993.993 0 0 1-.949 1.076c-1.919.08-6.022.235-7.495.17a.323.323 0 0 1-.284-.442.722.722 0 0 1 .37-.39l6.779-3.115z" transform="translate(-1377.663 -1396.964)"/>
            <path id="Path_56830" fill="url(#linear-gradient-13)" d="M1444.624 1460.837l-.207 1.741a2.16 2.16 0 0 1-2-.07l.492-1.94z" transform="translate(-1434.858 -1386.878)"/>
            <path id="Path_56831" d="M1445.75 1123.38c.089.455.479 22.685-1.9 32.648a.338.338 0 0 0 .2.393 5.894 5.894 0 0 0 1.935.393.583.583 0 0 0 .578-.418c.679-2.311 5.346-15.686 5.771-26.749.474-12.362-1.69-6.268-1.69-6.268z" class="cls-15" transform="translate(-1436.139 -1082.148)"/>
            <path id="Path_56832" d="M1478.719 1140.83c1.993 5.026 2.644 5.811 3.534 11.549 1.066 6.88 6.272 2.129 9.051-.1.351-.282 1.4.729 1.5 2.15.133 1.853-11.1 10.653-14.135 4.432-1.94-3.973-2.478-8.445-3.766-10.919a1.505 1.505 0 0 0-.743-.689l-3.964-1.7-1.119-3.89z" class="cls-15" transform="translate(-1458.84 -1099.201)"/>
            <path id="Path_56833" fill="url(#linear-gradient-14)" d="M1566.3 783.2c2.088-4.686 4.059-11.689 1.763-18.688l-1.33-1.33s0 10.962-2.728 16.406q1.14 1.812 2.295 3.612z" transform="translate(-1544.25 -759.421)"/>
            <path id="Path_56834" d="M1384.494 908.96h6.558a2.565 2.565 0 0 0 1.769-.707 7.951 7.951 0 0 0 1.954-3.119.471.471 0 0 1 .577-.294 6.349 6.349 0 0 1 3.659 2.633.479.479 0 0 1-.009.5l-4.091 6.33.4 15.616s-10.279 1.612-11.69 0l-1.411-14.31s-5.039-3.023-6.45-7.86l4.233-2.419s.493.02.914 1.154a3.818 3.818 0 0 0 3.587 2.476z" class="cls-12" transform="translate(-1374.887 -886.857)"/>
            <path id="Path_56835" fill="url(#linear-gradient-15)" d="M1483.257 898.52l.151 5.061a.732.732 0 0 1-.5.719 5.9 5.9 0 0 1-3.047.192.731.731 0 0 1-.557-.842l.693-3.987z" transform="translate(-1468.035 -881.188)"/>
            <g id="Group_58203" transform="translate(9.451 10.076)">
                <path id="Path_56836" fill="url(#linear-gradient-16)" d="M1463.576 849.82c-.046.057-1.576 4.221-2.249 6.055a.865.865 0 0 0 .555 1.123l1.48.27a2.138 2.138 0 0 0 2.349-1.26l1.782-2.076a2.3 2.3 0 0 0-.689-3.55c-1.304-.664-2.737-1.182-3.228-.562z" transform="translate(-1461.274 -847.198)"/>
                <path id="Path_56837" fill="url(#linear-gradient-17)" d="M1475.6 833.353l-.423-.212s1.694-2.753-.212-2.965-3.6-.635-3.6-1.694 0-2.965 2.33-2.118 2.118 2.33 3.389 2.542 2.33.424 1.906 1.694-1.271 2.118-.847 2.542-1.487 2.54-2.543.211z" transform="translate(-1470.349 -826.152)"/>
                <path id="Path_56838" fill="url(#linear-gradient-18)" d="M1509.095 889.044s.352-1.862 1.138-1.908 1.508.64.67 1.647c-1.042 1.254-1.808.261-1.808.261z" transform="translate(-1504.3 -881.019)"/>
            </g>
            <path id="Path_56839" fill="url(#linear-gradient-19)" d="M1582.294 732.762l-.5.753a.807.807 0 0 0-.1.7 6.982 6.982 0 0 0 1.314 2.481c.894.894 1.789-1.252 1.968-1.968s-1.074-2.5-1.431-2.863-1.788-.176-1.251.897z" transform="translate(-1560.133 -731.095)"/>
        </g>
    </g>
</svg>
