<svg xmlns="http://www.w3.org/2000/svg" xmlns:xlink="http://www.w3.org/1999/xlink" width="146.802" height="148.419" viewBox="0 0 146.802 148.419">
    <defs>
        <linearGradient id="linear-gradient" x1="-3.286" x2="-6.984" y1="-12.945" y2="11.133" gradientUnits="objectBoundingBox">
            <stop offset="0" stop-color="#4f52ff"/>
            <stop offset="1" stop-color="#4042e2"/>
        </linearGradient>
        <linearGradient id="linear-gradient-2" x1="51.736" x2="51.229" y1="-.843" y2="2.39" gradientUnits="objectBoundingBox">
            <stop offset="0" stop-color="#febbba"/>
            <stop offset="1" stop-color="#ff928e"/>
        </linearGradient>
        <linearGradient id="linear-gradient-3" x1="15.358" x2="12.842" y1="-5.387" y2="17.678" xlink:href="#linear-gradient"/>
        <linearGradient id="linear-gradient-4" x1="56.072" x2="55.557" y1="-.224" y2="2.539" xlink:href="#linear-gradient-2"/>
        <linearGradient id="linear-gradient-5" x1="0" x2="1" y1=".5" y2=".5" xlink:href="#linear-gradient-2"/>
        <linearGradient id="linear-gradient-6" x1="89.133" x2="90.565" y1="-17.55" y2="-17.81" xlink:href="#linear-gradient-2"/>
        <linearGradient id="linear-gradient-7" x1="260.579" x2="264.76" y1="-59.657" y2="-60.509" xlink:href="#linear-gradient-2"/>
        <linearGradient id="linear-gradient-8" x1=".799" x2=".056" y1="-.337" y2="1.68" xlink:href="#linear-gradient-2"/>
        <linearGradient id="linear-gradient-9" x1="51.24" x2="50.618" y1="19.431" y2="21.835" xlink:href="#linear-gradient-2"/>
        <style>
            .cls-2{fill:#95bce2}.cls-10,.cls-3,.cls-9{fill:#fff}.cls-3{opacity:.5}.cls-4,.cls-6{fill:#213861}.cls-5{fill:#4d6898}.cls-10,.cls-6{opacity:.76}.cls-7{fill:#658bb1}.cls-11{fill:#dae9f7}
        </style>
    </defs>
    <g id="Group_58232" transform="translate(-470.251 -455)">
        <path id="Path_56871" fill="#c2cadd" d="M610.927 559.527c-14.243 33.536-52.182 52.323-85.084 47.256-5.354-.825-20.031-3.281-33.026-14.87-25.017-22.313-30.365-66.484-10.185-97.613 14.687-22.658 41.015-35.5 66.032-34.859 5.389.138 26.04.991 44.189 15.957A68.063 68.063 0 0 1 606.7 491.1c12.44 19.462 13.51 46.571 4.227 68.427z" opacity="0.3" transform="translate(-.027 -4.182)"/>
        <g id="Group_58218" transform="translate(475.293 506.014)">
            <path id="Path_56872" d="M613.573 1500.042s-14.9-53.089-41.043-81.586a2.987 2.987 0 0 0-5.227 1.474c-3.353 17.101-8.69 68.846 46.27 80.112z" class="cls-2" transform="translate(-565.378 -1417.406)"/>
            <path id="Path_56873" d="M743.228 1804.966c.129.124-.02.33-.163.225-5.264-3.88-25.859-23.083-35.319-62.167a.094.094 0 1 1 .18-.055c2.974 9.039 14.902 42.346 35.302 61.997z" class="cls-3" transform="translate(-700.196 -1725.645)"/>
        </g>
        <g id="Group_58219" transform="translate(504.621 501.167)">
            <path id="Path_56874" d="M1137.789 1394.079s7.734-39.2-.841-66.41a2.422 2.422 0 0 0-4.171-.83c-8.209 9.854-29.677 41.305 5.012 67.24z" class="cls-2" transform="translate(-1118.655 -1325.968)"/>
            <path id="Path_56875" d="M1319.362 1609.525a.106.106 0 0 1-.191.089c-2.363-4.285-10.23-23.635-3.478-51.979a.074.074 0 0 1 .145.026c-1.012 6.821-4.052 32.292 3.524 51.864z" class="cls-3" transform="translate(-1302.714 -1545.3)"/>
        </g>
        <g id="Group_58220" transform="translate(552.564 496.135)">
            <path id="Path_56876" d="M2023.133 1303.248s14.456-46.916 39.579-71.367a2.976 2.976 0 0 1 5 1.531c3.142 15.441 8.056 61.971-44.579 69.836z" class="cls-2" transform="translate(-2023.133 -1231.031)"/>
            <path id="Path_56877" d="M2115.717 1574.42a.13.13 0 0 0 .155.208c5.052-3.26 24.831-19.616 34.03-54.217a.091.091 0 0 0-.172-.057c-2.876 7.971-14.419 37.301-34.013 54.066z" class="cls-3" transform="translate(-2110.764 -1504.962)"/>
        </g>
        <g id="Group_58222" transform="translate(520.874 525.864)">
            <path id="Rectangle_1275" d="M19.411 0a19.411 19.411 0 0 1 19.411 19.411v57.765H0V19.411A19.411 19.411 0 0 1 19.411 0z" class="cls-4" transform="translate(9.862)"/>
            <path id="Rectangle_1276" d="M19.411 0a19.411 19.411 0 0 1 19.411 19.411v57.765H0V19.411A19.411 19.411 0 0 1 19.411 0z" class="cls-5"/>
            <g id="Group_58221" transform="translate(2.334 3.377)">
                <path id="Path_56878" d="M1469.574 1866.628a.269.269 0 0 1-.269-.269v-5.476a5.061 5.061 0 0 1 4.777-5.294h7.455a.269.269 0 0 1 0 .538h-7.455a4.525 4.525 0 0 0-4.239 4.756v5.476a.269.269 0 0 1-.269.269z" class="cls-6" transform="translate(-1469.305 -1855.59)"/>
                <path id="Path_56879" d="M1469.574 2123.892a.269.269 0 0 1-.269-.269v-2.231a.269.269 0 0 1 .538 0v2.231a.269.269 0 0 1-.269.269z" class="cls-6" transform="translate(-1469.305 -2107.048)"/>
            </g>
        </g>
        <path id="Rectangle_1277" d="M16.726 0a16.726 16.726 0 0 1 16.726 16.726V54.51H0V16.726A16.726 16.726 0 0 1 16.726 0z" class="cls-4" transform="translate(491.286 548.531)"/>
        <path id="Rectangle_1278" d="M16.726 0a16.726 16.726 0 0 1 16.726 16.726V54.51H0V16.726A16.726 16.726 0 0 1 16.726 0z" class="cls-7" transform="translate(481.425 548.531)"/>
        <g id="Group_58223" opacity="0.73" transform="translate(483.917 551.131)">
            <path id="Path_56880" d="M728.34 2281.48a.269.269 0 0 1-.269-.269v-6.46c0-3.417 2.507-6.2 5.588-6.2h8.8a.269.269 0 1 1 0 .538h-8.8c-2.785 0-5.05 2.539-5.05 5.66v6.46a.269.269 0 0 1-.269.271z" class="cls-9" transform="translate(-728.071 -2268.554)"/>
            <path id="Path_56881" d="M728.34 2585.006a.269.269 0 0 1-.269-.269v-2.632a.269.269 0 0 1 .538 0v2.632a.269.269 0 0 1-.269.269z" class="cls-9" transform="translate(-728.071 -2565.231)"/>
        </g>
        <path id="Rectangle_1279" d="M16.726 0a16.726 16.726 0 0 1 16.726 16.726V54.51H0V16.726A16.726 16.726 0 0 1 16.726 0z" class="cls-4" transform="translate(573.75 548.531)"/>
        <path id="Rectangle_1280" d="M16.726 0a16.726 16.726 0 0 1 16.726 16.726V54.51H0V16.726A16.726 16.726 0 0 1 16.726 0z" class="cls-7" transform="translate(563.888 548.531)"/>
        <g id="Group_58225" transform="translate(566.381 551.131)">
            <path id="Path_56882" d="M2284.062 2281.48a.269.269 0 0 1-.269-.269v-6.46c0-3.417 2.507-6.2 5.588-6.2h8.8a.269.269 0 0 1 0 .538h-8.8c-2.785 0-5.05 2.539-5.05 5.66v6.46a.269.269 0 0 1-.269.271z" class="cls-10" transform="translate(-2283.793 -2268.554)"/>
            <path id="Path_56883" d="M2284.062 2585.006a.269.269 0 0 1-.269-.269v-2.632a.269.269 0 0 1 .538 0v2.632a.269.269 0 0 1-.269.269z" class="cls-10" transform="translate(-2283.793 -2565.231)"/>
        </g>
        <g id="Group_58227" transform="translate(470.251 501.368)">
            <path id="Path_56884" d="M2210.367 1420.787l27.458-52.6h-5.625a1.229 1.229 0 0 1-.95-2.008l29.265-35.667a2.064 2.064 0 0 1 3.656 1.431l-2.057 34.878a3.485 3.485 0 0 1-3.875 3.257l-3.922-.449-27.244 59a4.338 4.338 0 0 1-3.938 2.519h-9.442z" class="cls-11" transform="translate(-2118.129 -1329.749)"/>
            <path id="Path_56885" d="M1782.091 2218.454l19.385 43.061a7.109 7.109 0 0 0 6.482 4.191h9.993a3.649 3.649 0 0 0 3.191-1.879l.355-.641a2.857 2.857 0 0 1-2.545-1.558l-25.828-50.605z" class="cls-11" transform="translate(-1712.554 -2164.309)"/>
            <path id="Path_56886" d="M1107.232 2126.772a4.24 4.24 0 0 0-6.156.979l-28.5 42.82a12.312 12.312 0 0 1-10.249 5.49h-4.01l-3.264-9.4s26.5-40.626 33.325-46.772c0 0 6.8-6.129 13.507-1.495a11.189 11.189 0 0 1 3.938 4.962z" class="cls-11" transform="translate(-1024.054 -2074.948)"/>
            <path id="Path_56887" d="M470.251 2459.785a21.525 21.525 0 0 1 14.016-6.891s4.391 1.5 13.138 17.17 14.554 22.823 21.368 18.918l-.564.937a10.275 10.275 0 0 1-8.8 4.974h-3.768c-4.149 0-7.752-6.391-10.175-9.759-6.811-9.464-21.033-23.88-25.215-25.349z" class="cls-11" transform="translate(-470.251 -2393.36)"/>
            <path id="Path_56888" d="M3158.278 1539.044h-.031a.268.268 0 0 1-.237-.3l.193-1.7a.269.269 0 0 1 .534.061l-.193 1.7a.268.268 0 0 1-.266.239z" class="cls-9" transform="translate(-3015.54 -1525.828)"/>
            <path id="Path_56889" d="M2697.418 1408.831a.269.269 0 0 1-.213-.433l24.166-31.4a1.01 1.01 0 0 1 1.8.73l-.427 3.764a.269.269 0 0 1-.534-.061l.427-3.764a.473.473 0 0 0-.845-.341l-24.165 31.4a.269.269 0 0 1-.209.105z" class="cls-9" transform="translate(-2579.109 -1374.118)"/>
            <path id="Path_56890" d="M1663.192 2249.866a.269.269 0 0 1-.223-.419l12.5-18.525a2.2 2.2 0 0 1 3.812.289.269.269 0 1 1-.486.23 1.662 1.662 0 0 0-2.88-.218l-12.5 18.525a.268.268 0 0 1-.223.118z" class="cls-9" transform="translate(-1599.703 -2182.235)"/>
            <path id="Path_56891" d="M1601.922 2665.626a.265.265 0 0 1-.15-.046.269.269 0 0 1-.073-.373l.8-1.188a.269.269 0 1 1 .446.3l-.8 1.188a.268.268 0 0 1-.223.119z" class="cls-9" transform="translate(-1541.681 -2593.182)"/>
        </g>
        <g id="Group_58231" transform="translate(522.065 455)">
            <g id="Group_58228" transform="translate(40.036 1.49)">
                <path id="Path_56892" fill="#41dda4" d="M2204.363 497.157a28.8 28.8 0 0 1 14.457-.538c3.349.886 4.46 1.55 7.425 1.884 2.635.3 9.638-1.835 8.741-.231-1.169 2.09-.849 10.278.9 13.691.254.5-8.04 1.726-13.064.808-6.927-1.266-9.158-3.389-13.707-2.423a13.51 13.51 0 0 0-4.712 2.019c.46-5.048-.503-10.167-.04-15.21z" transform="translate(-2204.169 -495.265)"/>
                <path id="Path_56893" fill="#26264f" d="M2203.3 552.912a.269.269 0 0 1-.269-.269v-69.268a.269.269 0 0 1 .538 0v69.268a.269.269 0 0 1-.269.269z" transform="translate(-2203.03 -483.106)"/>
            </g>
            <g id="Group_58230">
                <path id="Path_56894" d="M1646.207 1739.989a.407.407 0 0 1 .011-.109 5.688 5.688 0 0 1 2.766-3.26l1.069.084c.615 1.9 1.011 2.827.912 3.346 0 .015-.007.028-.011.042a25.364 25.364 0 0 1-4.747-.103z" class="cls-5" transform="translate(-1635.686 -1668.685)"/>
                <path id="Path_56895" fill="url(#linear-gradient)" d="M1651.2 1800.279a.463.463 0 0 1-.339.343 14.666 14.666 0 0 1-4.086-.058.389.389 0 0 1-.323-.388 25.364 25.364 0 0 0 4.748.103z" transform="translate(-1635.92 -1728.872)"/>
                <path id="Path_56896" fill="url(#linear-gradient-2)" d="M1682 1705.232l.468 2.253a.368.368 0 0 0 .315.3 3.122 3.122 0 0 0 .725-.011.463.463 0 0 0 .367-.544l-.325-2z" transform="translate(-1669.58 -1638.961)"/>
                <path id="Path_56897" fill="url(#linear-gradient-3)" d="M1870.478 1796.566a6.176 6.176 0 0 1-2.038-.291v.349a.225.225 0 0 0 .215.229l6.27-.04a.286.286 0 0 0 .23-.417c-.818.068-2.912.22-4.677.17z" transform="translate(-1846.14 -1725.178)"/>
                <path id="Path_56898" d="M1875.434 1743.673a.274.274 0 0 0-.025-.047 7.99 7.99 0 0 0-4.75-2.982l-1.337-.042a6.415 6.415 0 0 0-.606 2.951 6.175 6.175 0 0 0 2.038.291c1.765.049 3.858-.103 4.68-.171z" class="cls-5" transform="translate(-1846.401 -1672.455)"/>
                <path id="Path_56899" fill="url(#linear-gradient-4)" d="M1875.481 1696.588c.015.1.2 1.614.269 2.2a.291.291 0 0 0 .245.263 3.069 3.069 0 0 0 .918-.014.4.4 0 0 0 .3-.4v-2.377z" transform="translate(-1852.808 -1630.468)"/>
                <path id="Path_56900" d="M1675.442 1146.971s-2.139 19.015-.951 30.9a9.191 9.191 0 0 0 2.139-.238s2.223-18.591 2.942-23.911a.179.179 0 0 1 .353-.011c.887 4.476 4.372 22.027 4.786 23.685a2.963 2.963 0 0 0 2.139 0s-1.9-25.432-3.328-29.948z" class="cls-5" transform="translate(-1662.132 -1110.292)"/>
                <path id="Path_56901" d="M1617.574 722.35a56.269 56.269 0 0 1 13.754.019 3 3 0 0 1 2.535 3.368l-.6 4.456s-1.9 10.22-3.328 14.736c0 0-5.467.951-8.081-.475 0 0-2.139-12.835-3.327-14.736-.002 0-1.19-4.991-.953-7.368z" class="cls-7" transform="translate(-1608.542 -707.775)"/>
                <path id="Path_56902" fill="url(#linear-gradient-5)" d="M1720.432 607.433l-.9 6.085s2.514 1.155 4.274-.05l-.379-4.294z" transform="translate(-1705.125 -599.353)"/>
                <g id="Group_58229" transform="translate(13.589 1.635)">
                    <path id="Path_56903" fill="url(#linear-gradient-6)" d="M1732.692 525.911c.028.051.571 3.12.9 5.019a1.333 1.333 0 0 1-1.234 1.561l-.728.043a2.6 2.6 0 0 1-2.72-2.2l-.527-3.44s3.617-2.231 4.309-.983z" transform="translate(-1727.1 -523.427)"/>
                    <path id="Path_56904" d="M1704.6 489.312a1.021 1.021 0 0 1 .072-1.5 1.44 1.44 0 0 1 1.718-.248.479.479 0 0 0 .565-.112.305.305 0 0 1 .284-.105.448.448 0 0 0 .507-.39 1.183 1.183 0 0 1 1.044-1.087c1.4-.27 2.1 1.13 2.072 2.114s-1.558 1.191-2.429 1.028a1.669 1.669 0 0 0-1.44.748.463.463 0 0 0-.091.4l.221.951a4.387 4.387 0 0 1-.519.85.939.939 0 0 1-.5.324c-.261-.486-.991-.568-1.33-.579a.464.464 0 0 1-.336-.159 1.017 1.017 0 0 1 .11-1.591.462.462 0 0 0 .052-.644z" class="cls-4" transform="translate(-1704.099 -485.837)"/>
                    <path id="Path_56905" fill="url(#linear-gradient-7)" d="M1714.619 592.554s-.03-1.717-.725-1.878-1.445.341-.85 1.369c.739 1.279 1.575.509 1.575.509z" transform="translate(-1712.366 -585.091)"/>
                </g>
                <path id="Path_56906" d="M1460.838 530.311s-20.408-5.555-10.275-19.842l.686.971s-3.053 9.676 7.061 10.6c0-.004 2.619 6.751 2.528 8.271z" class="cls-7" transform="translate(-1447.74 -507.529)"/>
                <path id="Path_56907" fill="url(#linear-gradient-8)" d="M1499.437 458.014s-.23-2.758 1.149-2.988 1.839 1.149 2.069 1.839-2.069 2.069-2.528 2.069-.69-.92-.69-.92z" transform="translate(-1496.683 -455)"/>
                <path id="Path_56908" d="M1902.317 779.334s2.638 10.44 15.87-1.061l-1.014-.619s-11.649 8.265-13.7-5.833c-.003-.001-1.156 6.245-1.156 7.513z" class="cls-7" transform="translate(-1878.221 -755.026)"/>
                <path id="Path_56909" fill="url(#linear-gradient-9)" d="M2183.186 836.026s2.768.045 2.9-1.346-1.27-1.758-1.973-1.941-1.926 2.2-1.9 2.661.973.626.973.626z" transform="translate(-2143.29 -812.707)"/>
            </g>
        </g>
    </g>
</svg>
