<svg xmlns="http://www.w3.org/2000/svg" xmlns:xlink="http://www.w3.org/1999/xlink" width="253.019" height="161.667" viewBox="0 0 253.019 161.667">
    <defs>
        <linearGradient id="linear-gradient" x2="1" y1=".5" y2=".5" gradientUnits="objectBoundingBox">
            <stop offset="0" stop-color="#dae3fe"/>
            <stop offset="1" stop-color="#e9effd"/>
        </linearGradient>
        <linearGradient id="linear-gradient-4" x1="-49.431" x2="-48.431" y1=".5" y2=".5" gradientUnits="objectBoundingBox">
            <stop offset="0" stop-color="#09005d"/>
            <stop offset="1" stop-color="#1a0f91"/>
        </linearGradient>
        <linearGradient id="linear-gradient-5" x1="-47.169" x2="-50.868" y1="-12.946" y2="11.134" gradientUnits="objectBoundingBox">
            <stop offset="0" stop-color="#4042e2"/>
            <stop offset="1" stop-color="#4f52ff"/>
        </linearGradient>
        <linearGradient id="linear-gradient-6" x1="119.923" x2="119.417" y1="-.843" y2="2.39" gradientUnits="objectBoundingBox">
            <stop offset="0" stop-color="#ff928e"/>
            <stop offset="1" stop-color="#feb3b1"/>
        </linearGradient>
        <linearGradient id="linear-gradient-7" x1="34.372" x2="31.856" y1="-5.387" y2="17.68" xlink:href="#linear-gradient-5"/>
        <linearGradient id="linear-gradient-8" x1="33.392" x2="34.392" y1=".5" y2=".5" xlink:href="#linear-gradient-4"/>
        <linearGradient id="linear-gradient-9" x1="130.141" x2="129.627" y1="-.224" y2="2.539" xlink:href="#linear-gradient-6"/>
        <linearGradient id="linear-gradient-10" x1=".556" x2=".411" y1=".134" y2="2.184" xlink:href="#linear-gradient-6"/>
        <linearGradient id="linear-gradient-11" x1="-119.701" x2="-118.328" y1="-23.241" y2="-23.683" xlink:href="#linear-gradient-6"/>
        <linearGradient id="linear-gradient-12" x1="-.113" x2=".893" y1="-.662" y2="1.086" xlink:href="#linear-gradient-4"/>
        <linearGradient id="linear-gradient-13" x1="-352.235" x2="-348.225" y1="-78.428" y2="-79.876" xlink:href="#linear-gradient-6"/>
        <linearGradient id="linear-gradient-14" x1=".799" x2=".056" y1="-.337" y2="1.68" gradientUnits="objectBoundingBox">
            <stop offset="0" stop-color="#f9b776"/>
            <stop offset="1" stop-color="#f47960"/>
        </linearGradient>
        <linearGradient id="linear-gradient-15" x1="-.156" x2=".645" y1="-3.73" y2="1.465" xlink:href="#linear-gradient-6"/>
        <linearGradient id="linear-gradient-16" x1=".536" x2=".195" y1="-.067" y2="1.247" gradientUnits="objectBoundingBox">
            <stop offset="0" stop-color="#fe7062"/>
            <stop offset="1" stop-color="#ff928e"/>
        </linearGradient>
        <linearGradient id="linear-gradient-17" x1=".8" x2=".018" y1="-.055" y2=".795" xlink:href="#linear-gradient-16"/>
        <linearGradient id="linear-gradient-18" x1="-5.993" x2="-6.053" y1="-34.381" y2="-26.382" xlink:href="#linear-gradient-16"/>
        <linearGradient id="linear-gradient-19" x1="-5.79" x2="-7.045" y1="-11.606" y2="-7.186" xlink:href="#linear-gradient-16"/>
        <linearGradient id="linear-gradient-20" x1="-2.665" x2="-4.468" y1="-7.809" y2=".4" xlink:href="#linear-gradient-16"/>
        <linearGradient id="linear-gradient-21" x1="-6.035" x2="-7.709" y1="-5.062" y2="-2.134" xlink:href="#linear-gradient-16"/>
        <linearGradient id="linear-gradient-22" x1="74.37" x2="72.204" y1="-3.428" y2="-1.212" xlink:href="#linear-gradient-16"/>
        <linearGradient id="linear-gradient-23" x1="-9.023" x2=".995" y1=".427" y2=".503" xlink:href="#linear-gradient-6"/>
        <linearGradient id="linear-gradient-24" x1="0" x2="1" y1=".5" y2=".5" xlink:href="#linear-gradient-4"/>
        <linearGradient id="linear-gradient-25" x1="-81.201" x2="-80.201" y1=".5" y2=".5" xlink:href="#linear-gradient-4"/>
        <linearGradient id="linear-gradient-26" x1=".515" x2=".471" y1="-.083" y2="1.632" xlink:href="#linear-gradient-16"/>
        <style>
            .cls-2{opacity:.4}.cls-3{fill:#658bb1}.cls-4{fill:#bac6d1}.cls-6{fill:url(#linear-gradient)}.cls-39,.cls-44,.cls-45{fill:#fff}.cls-12{fill:#4d6898}.cls-15{fill:#213861}.cls-16{fill:#bdd0fb}.cls-17{fill:#c6ddf4}.cls-39{mix-blend-mode:soft-light;isolation:isolate}.cls-44{opacity:.2}
        </style>
    </defs>
    <g id="Group_58268" transform="translate(-77.98 -87.274)">
        <path id="Path_56910" fill="#c2cadd" d="M372.4 188.429c-6.563-9.426-20.474-14.477-20.836-28.6-.235-9.179 3.816-14.155-2.666-21.99-15.668-18.941-39.814-21.161-60.43-13.248s-37.08 23.766-59.993 22.81c-12.478-.52-24.072-6.612-36.424-7.755a30.564 30.564 0 0 0-10.686.826c-12.464 3.284-23.469 15.617-27.613 29.318-3.359 11.106.933 22.071-4.342 32.947-5.622 11.593-16.694 19.644-19.483 33.028-3.348 16.063 9.443 30.032 23.184 30.469 8.746.278 24.958-1.159 32.388-6.71 9.047-6.759 17.939-7.2 28.486-6.945 20.072.493 40.143 5.139 59.955 8.447 16.977 2.834 33.71 7.032 50.916 7.565 12.636.391 23.359.567 30.2-13.55 8.173-16.879 31.114-46.841 17.344-66.612z" opacity="0.3" transform="translate(-45.709 -29.35)"/>
        <g id="Group_58233" class="cls-2" transform="translate(77.98 191.738)">
            <path id="Path_56911" d="M120.848 1032.232H79.577a1.6 1.6 0 0 1-1.6-1.6 1.6 1.6 0 0 1 1.6-1.6h41.271a1.6 1.6 0 0 1 1.6 1.6 1.6 1.6 0 0 1-1.6 1.6z" class="cls-3" transform="translate(-77.98 -1029.038)"/>
            <path id="Path_56912" d="M165.554 1088.628h-41.271a1.6 1.6 0 0 1-1.6-1.6 1.6 1.6 0 0 1 1.6-1.6h41.271a1.6 1.6 0 0 1 1.6 1.6 1.6 1.6 0 0 1-1.6 1.6z" class="cls-3" transform="translate(-117.727 -1079.178)"/>
            <path id="Path_56913" d="M153.818 1201.421h-29.535a1.6 1.6 0 0 1-1.6-1.6 1.6 1.6 0 0 1 1.6-1.6h29.535a1.6 1.6 0 0 1 1.6 1.6 1.6 1.6 0 0 1-1.6 1.6z" class="cls-3" transform="translate(-117.727 -1179.46)"/>
            <path id="Path_56914" d="M207.28 1145.024h-41.271a1.6 1.6 0 0 1-1.6-1.6 1.6 1.6 0 0 1 1.6-1.6h41.271a1.6 1.6 0 0 1 1.6 1.6 1.6 1.6 0 0 1-1.6 1.6z" class="cls-3" transform="translate(-154.825 -1129.319)"/>
        </g>
        <g id="Group_58234" class="cls-2" transform="translate(274.874 162.959)">
            <path id="Path_56915" d="M1941.046 772.785h41.271a1.6 1.6 0 0 0 1.6-1.6 1.6 1.6 0 0 0-1.6-1.6h-41.271a1.6 1.6 0 0 0-1.6 1.6 1.6 1.6 0 0 0 1.6 1.6z" class="cls-3" transform="translate(-1929.862 -769.591)"/>
            <path id="Path_56916" d="M1896.34 829.182h41.271a1.6 1.6 0 0 0 1.6-1.6 1.6 1.6 0 0 0-1.6-1.6h-41.271a1.6 1.6 0 0 0-1.6 1.6 1.6 1.6 0 0 0 1.6 1.6z" class="cls-3" transform="translate(-1890.115 -819.732)"/>
            <path id="Path_56917" d="M2002.144 941.975h29.535a1.6 1.6 0 0 0 1.6-1.6 1.6 1.6 0 0 0-1.6-1.6h-29.535a1.6 1.6 0 0 0-1.6 1.6 1.6 1.6 0 0 0 1.6 1.6z" class="cls-3" transform="translate(-1984.182 -920.014)"/>
            <path id="Path_56918" d="M1854.614 885.578h41.271a1.6 1.6 0 0 0 1.6-1.6 1.6 1.6 0 0 0-1.6-1.6h-41.271a1.6 1.6 0 0 0-1.6 1.6 1.6 1.6 0 0 0 1.6 1.6z" class="cls-3" transform="translate(-1853.017 -869.873)"/>
        </g>
        <g id="Group_58238" transform="translate(123.113 129.443)">
            <g id="Group_58237">
                <g id="Group_58235" transform="translate(0 .895)">
                    <path id="Path_56919" d="M487.851 533.744a2.982 2.982 0 0 1-1.7-5.432L502.2 517.16a2.983 2.983 0 0 1 3.573.128l11.132 8.977 57.188-38.908a2.981 2.981 0 0 1 3.637.218l10.024 8.74 24.441-20.126a2.982 2.982 0 0 1 3.791 4.6l-26.392 21.732a2.983 2.983 0 0 1-3.855-.054l-10.194-8.888-57.113 38.857a2.983 2.983 0 0 1-3.549-.144l-11.115-8.963-14.218 9.878a2.969 2.969 0 0 1-1.699.537z" class="cls-4" transform="translate(-484.866 -475.508)"/>
                </g>
                <g id="Group_58236" transform="translate(106.858)">
                    <path id="Path_56920" d="M1465.214 491.823a2.984 2.984 0 0 1-2.823-3.943l4.7-13.831-15.484 2.163a2.982 2.982 0 0 1-.825-5.907l20.279-2.833a2.982 2.982 0 0 1 3.236 3.914l-6.263 18.415a2.983 2.983 0 0 1-2.82 2.022z" class="cls-4" transform="translate(-1448.215 -467.443)"/>
                </g>
            </g>
        </g>
        <g id="Group_58239" transform="translate(286.73 200.161)">
            <path id="Path_56921" fill="#98bbde" d="M2001.13 1136.433c-1.053-6.869-6.307-6.049-8.645-1.988s-4.44 3.5-3.051-.314 3.13-6.3.252-10.105-3.177-5.417-1.56-8.808 3.648-8.2-2.787-9.913-12.847 3.554-11.346 10.449 2.4 7.646.335 10.2-1.206 3.6-.913 5.266-2.865 2.052-2.8-.29 4.084-7.869 1.342-10.447-8.116-2.606-9.492 3.356 3.033 8.641 2.814 10.8-2.588-1.113-4.651 1.085.715 3.925 2.758 5.116 5.125 3.326 2.193 4.877a2.573 2.573 0 0 0 1.2 4.848h27.063a3.835 3.835 0 0 0 3.1-1.576c1.833-2.514 4.943-7.636 4.188-12.556z" transform="translate(-1959.905 -1104.977)"/>
            <path id="Path_56922" d="M2127.537 1152.748a3.4 3.4 0 0 0-.577.361 4.288 4.288 0 0 0-.5.444 5.018 5.018 0 0 0-.79 1.052 6.07 6.07 0 0 0-.737 2.45c-.014.106-.018.212-.023.318s-.012.213-.009.318v.318l.017.317.01.159.017.158.035.316c.035.208.06.419.105.626s.085.415.141.619l.079.308.082.3.331 1.187c.438 1.582.86 3.164 1.191 4.754a20.853 20.853 0 0 1 .5 4.782 10.113 10.113 0 0 1-.1 1.181 7.934 7.934 0 0 1-.243 1.152 6.871 6.871 0 0 1-.419 1.1 7.728 7.728 0 0 0-.459 1.224 17.715 17.715 0 0 0-.452 2.47c-.1.821-.172 1.64-.232 2.457-.126 1.633-.233 3.26-.5 4.865-.033.2-.069.4-.111.6s-.085.4-.131.6-.1.393-.155.59c-.029.1-.062.194-.092.291s-.06.195-.1.289l-.108.286c-.036.1-.083.187-.123.281-.079.189-.182.368-.276.552a5.044 5.044 0 0 1-.758 1l.073.065a5.31 5.31 0 0 0 .866-.972 7.288 7.288 0 0 0 .61-1.119 12.9 12.9 0 0 0 .758-2.385 47.776 47.776 0 0 0 .749-4.882c.1-.812.192-1.623.317-2.425a17.108 17.108 0 0 1 .51-2.358 7.473 7.473 0 0 1 .436-1.092 7.675 7.675 0 0 0 .491-1.214 8.725 8.725 0 0 0 .29-1.253 10.955 10.955 0 0 0 .131-1.263 20.99 20.99 0 0 0-.471-4.975 48.142 48.142 0 0 0-1.244-4.814c-.123-.4-.246-.791-.374-1.184l-.1-.295-.088-.287c-.062-.191-.11-.385-.161-.578s-.089-.388-.134-.582l-.051-.293c-.018-.1-.033-.2-.045-.293a8.225 8.225 0 0 1-.08-1.179 6.033 6.033 0 0 1 .11-1.173 5.793 5.793 0 0 1 .34-1.138 5.252 5.252 0 0 1 .271-.54 4.458 4.458 0 0 1 .335-.514 4.146 4.146 0 0 1 .892-.89z" class="cls-6" transform="translate(-2105.046 -1147.449)"/>
            <path id="Path_56923" d="M2235.609 1374.63a35 35 0 0 1-.8 3.818q-.253.943-.56 1.872c-.049.155-.107.308-.159.462s-.11.307-.167.46c-.109.307-.233.61-.354.913s-.255.6-.4.9-.281.592-.426.886c-.3.582-.626 1.157-.983 1.715a18.722 18.722 0 0 1-1.168 1.62 18.386 18.386 0 0 1-1.386 1.489l.07.068a12.069 12.069 0 0 0 1.58-1.371 15.135 15.135 0 0 0 1.307-1.591 17.5 17.5 0 0 0 1.058-1.732c.152-.3.309-.6.446-.9s.268-.612.4-.919.243-.62.351-.933c.057-.156.109-.313.159-.471s.1-.314.149-.473c.2-.632.356-1.271.5-1.913a21.344 21.344 0 0 0 .5-3.892z" class="cls-6" transform="translate(-2199.333 -1344.719)"/>
        </g>
        <g id="Group_58240" transform="translate(91.972 190.828)">
            <path id="Path_56924" fill="#95bce2" d="M254.091 1058.947c-1.276-8.327-7.646-7.32-10.48-2.4s-5.382 4.255-3.7-.374 3.794-7.639.305-12.247-3.851-6.564-1.89-10.676 4.423-9.937-3.379-12.016-15.573 4.309-13.754 12.667 2.912 9.27.406 12.366-1.462 4.368-1.106 6.383-3.473 2.487-3.392-.351 4.951-9.538 1.627-12.664-9.838-3.159-11.506 4.068 3.677 10.475 3.411 13.089-3.137-1.35-5.637 1.315.866 4.758 3.344 6.2 6.213 4.032 2.659 5.911a9.762 9.762 0 0 1-2.194.809 2.547 2.547 0 0 0 .639 5.021h38.073s7.85-8.775 6.574-17.101z" transform="translate(-204.117 -1020.842)"/>
            <path id="Path_56925" d="M407.325 1078.758a4.141 4.141 0 0 0-.7.437 5.172 5.172 0 0 0-.607.538 6.072 6.072 0 0 0-.957 1.275 7.355 7.355 0 0 0-.893 2.97c-.016.128-.021.257-.028.385s-.014.258-.011.386v.386l.021.385.012.193.021.191.043.383c.043.252.073.508.128.759s.1.5.171.75l.1.373.1.36.4 1.439c.531 1.918 1.042 3.835 1.444 5.762a25.279 25.279 0 0 1 .6 5.8 12.3 12.3 0 0 1-.119 1.431 9.64 9.64 0 0 1-.294 1.4 8.344 8.344 0 0 1-.508 1.331 9.369 9.369 0 0 0-.557 1.484 21.47 21.47 0 0 0-.548 2.994c-.117 1-.209 1.988-.281 2.978-.152 1.979-.283 3.952-.6 5.9-.04.243-.083.486-.134.727s-.1.482-.159.722-.125.477-.187.716c-.035.118-.075.235-.112.353s-.073.236-.12.351l-.132.347c-.044.116-.1.227-.149.341-.1.23-.22.446-.334.669a6.113 6.113 0 0 1-.919 1.21l.089.078a6.446 6.446 0 0 0 1.05-1.179 8.8 8.8 0 0 0 .739-1.356 15.638 15.638 0 0 0 .919-2.891 57.91 57.91 0 0 0 .908-5.918c.124-.984.233-1.967.385-2.94a20.777 20.777 0 0 1 .618-2.858 9.059 9.059 0 0 1 .528-1.324 9.312 9.312 0 0 0 .6-1.472 10.559 10.559 0 0 0 .352-1.519 13.281 13.281 0 0 0 .159-1.531 25.454 25.454 0 0 0-.571-6.031 58.412 58.412 0 0 0-1.508-5.835c-.149-.479-.3-.958-.454-1.435l-.117-.357-.107-.348c-.076-.232-.133-.466-.2-.7s-.107-.47-.163-.705l-.061-.355c-.022-.118-.041-.237-.054-.356a9.925 9.925 0 0 1-.1-1.429 7.316 7.316 0 0 1 .134-1.422 7.029 7.029 0 0 1 .412-1.38 6.436 6.436 0 0 1 .328-.655 5.454 5.454 0 0 1 .407-.623 5.031 5.031 0 0 1 1.081-1.079z" class="cls-6" transform="translate(-380.061 -1072.334)"/>
            <path id="Path_56926" fill="#fff" d="M538.333 1347.73a42.44 42.44 0 0 1-.973 4.629q-.307 1.143-.679 2.269c-.059.188-.129.374-.193.561s-.133.372-.2.557c-.132.372-.282.739-.428 1.107s-.31.73-.481 1.089-.341.718-.517 1.074c-.369.706-.759 1.4-1.192 2.079a22.69 22.69 0 0 1-1.417 1.964 22.268 22.268 0 0 1-1.68 1.805l.085.082a14.6 14.6 0 0 0 1.915-1.662 18.3 18.3 0 0 0 1.585-1.928 21.214 21.214 0 0 0 1.282-2.1c.184-.363.375-.724.541-1.093s.324-.742.481-1.114.294-.751.426-1.131c.069-.189.132-.38.192-.571s.126-.381.18-.574c.237-.766.432-1.541.6-2.319a25.839 25.839 0 0 0 .6-4.718z" opacity="0.62" transform="translate(-494.359 -1311.47)"/>
        </g>
        <g id="Group_58244" transform="translate(241.893 176.23)">
            <path id="Path_56959" fill="#50c99d" d="M1660.695 889.236h-45.577c-2.358 0-4.241 1.528-4.241 3.46v67.174h52.586a1.4 1.4 0 0 0 1.449-1.421V892.7c0-1.936-1.859-3.464-4.217-3.464z" transform="translate(-1604.755 -889.236)"/>
            <path id="Path_56960" fill="#41dda4" d="M1605.541 889.236h-45.576c-2.358 0-4.275 1.528-4.275 3.46v65.731a1.463 1.463 0 0 0 1.5 1.443h51.119a1.472 1.472 0 0 0 1.533-1.421V892.7c0-1.936-1.942-3.464-4.301-3.464z" transform="translate(-1555.689 -889.236)"/>
        </g>
        <g id="Group_58245" transform="translate(190.126 189.421)">
            <path id="Path_56961" fill="#3f5276" d="M1217.392 1065.652h-59.342v-53.927c0-1.971 1.912-3.568 4.27-3.568h50.8c2.358 0 4.27 1.6 4.27 3.568z" transform="translate(-1150.391 -1008.157)"/>
            <path id="Path_56962" d="M1148.341 1065.652H1089v-53.927c0-1.971 1.912-3.568 4.27-3.568h50.8c2.358 0 4.27 1.6 4.27 3.568z" class="cls-12" transform="translate(-1088.998 -1008.157)"/>
        </g>
        <g id="Group_58246" transform="translate(153.247 202.718)">
            <path id="Path_56963" fill="#6589af" d="M866.919 1128.03h-40.264c-2.358 0-4.327 1.586-4.327 3.557v40.59h47.36a1.453 1.453 0 0 0 1.5-1.45v-39.14c-.005-1.971-1.911-3.557-4.269-3.557z" transform="translate(-815.029 -1128.03)"/>
            <path id="Path_56964" fill="#88a6c4" d="M801.107 1128.03h-40.265c-2.358 0-4.315 1.586-4.315 3.557v40.59h47.348a1.463 1.463 0 0 0 1.507-1.45v-39.14c0-1.971-1.917-3.557-4.275-3.557z" transform="translate(-756.527 -1128.03)"/>
        </g>
        <g id="Group_58252" transform="translate(250.425 208.239)">
            <path id="Path_56983" d="M1639.676 1367.527l.476 14.8a4.815 4.815 0 0 0 4.795 4.649l35.438.209a3.474 3.474 0 0 0 3.464-2.957 65 65 0 0 0 .465-16.7z" class="cls-15" transform="translate(-1638.892 -1346.482)"/>
            <g id="Group_58250" transform="translate(1.827 21.002)">
                <path id="Path_56984" d="M1687.487 1385.93h-.258a.043.043 0 0 1 0-.086h.258a.043.043 0 1 1 0 .086zm.6 0a.043.043 0 0 1 0-.086c.085-.005.17-.014.253-.026a.044.044 0 0 1 .049.037.043.043 0 0 1-.037.049c-.086.012-.173.021-.26.026zm-1.463 0h-.258a.043.043 0 0 1 0-.086h.259a.043.043 0 0 1 0 .086zm-.86-.005h-.258a.043.043 0 0 1 0-.086h.258a.043.043 0 0 1 0 .086zm-.86-.005h-.258a.043.043 0 0 1-.043-.043.044.044 0 0 1 .043-.043h.258a.043.043 0 1 1 0 .086zm-.86-.005h-.258a.043.043 0 0 1 0-.086h.258a.043.043 0 0 1 0 .086zm-.861-.005h-.258a.043.043 0 0 1 0-.086h.258a.043.043 0 0 1 0 .086zm-.86-.005h-.258a.043.043 0 0 1 0-.086h.258a.043.043 0 0 1 0 .086zm-.86-.005h-.259a.043.043 0 0 1 0-.086h.258a.043.043 0 0 1 0 .086zm-.861-.005h-.258a.043.043 0 1 1 0-.086h.258a.043.043 0 0 1 0 .086zm-.86-.005h-.258a.043.043 0 0 1 0-.086h.258a.043.043 0 0 1 0 .086zm-.86-.005h-.258a.043.043 0 0 1 0-.086h.258a.043.043 0 0 1 0 .086zm-.86-.005h-.258a.043.043 0 0 1 0-.086h.258a.043.043 0 0 1 0 .086zm-.86-.005h-.258a.043.043 0 0 1-.043-.043.04.04 0 0 1 .043-.043h.258a.043.043 0 0 1 0 .086zm-.86-.005h-.258a.043.043 0 0 1 0-.086h.258a.043.043 0 0 1 0 .086zm-.86 0h-.258a.043.043 0 0 1 0-.086h.258a.043.043 0 0 1 0 .086zm-.86-.005h-.258a.043.043 0 0 1-.043-.043.041.041 0 0 1 .043-.043h.258a.043.043 0 0 1 0 .086zm-.86-.005h-.258a.043.043 0 0 1 0-.086h.259a.043.043 0 0 1 0 .086zm-.861-.005h-.258a.043.043 0 0 1 0-.086h.258a.043.043 0 0 1 0 .086zm-.86-.005h-.258a.043.043 0 0 1 0-.086h.257a.043.043 0 0 1 0 .086zm-.86-.005h-.258a.043.043 0 0 1-.043-.043.042.042 0 0 1 .043-.043h.258a.043.043 0 0 1 0 .086zm-.861-.005h-.258a.043.043 0 1 1 0-.086h.258a.043.043 0 0 1 0 .086zm-.86-.005h-.258a.043.043 0 0 1 0-.086h.258a.043.043 0 0 1 0 .086zm-.86-.005h-.258a.043.043 0 0 1-.043-.043.044.044 0 0 1 .043-.043h.258a.043.043 0 0 1 0 .086zm-.86-.005h-.258a.043.043 0 0 1 0-.086h.258a.043.043 0 0 1 0 .086zm-.86-.005h-.258a.043.043 0 0 1 0-.086h.258a.043.043 0 0 1 0 .086zm-.86 0h-.258a.043.043 0 0 1 0-.086h.258a.043.043 0 0 1 0 .086zm-.86-.005h-.258a.043.043 0 0 1 0-.086h.258a.043.043 0 0 1 0 .086zm-.86-.005h-.258a.043.043 0 0 1 0-.086h.258a.043.043 0 0 1 0 .086zm-.86-.005h-.258a.043.043 0 0 1 0-.086h.258a.043.043 0 0 1 0 .086zm-.86-.005h-.258a.043.043 0 0 1 0-.086h.258a.043.043 0 0 1 0 .086zm-.86-.005h-.258a.043.043 0 1 1 0-.086h.258a.043.043 0 0 1 0 .086zm-.86 0h-.258a.043.043 0 0 1-.043-.043.04.04 0 0 1 .043-.043h.258a.043.043 0 0 1 0 .086zm-.86-.005h-.258a.043.043 0 0 1 0-.086h.258a.043.043 0 0 1 0 .086zm28.979 0a.043.043 0 0 1-.013-.084c.08-.027.161-.057.238-.09a.043.043 0 0 1 .033.079c-.08.034-.162.065-.245.092zm-29.839 0h-.258a.043.043 0 1 1 0-.086h.258a.043.043 0 0 1 0 .086zm-.86-.005h-.258a.043.043 0 0 1 0-.086h.258a.043.043 0 0 1 0 .086zm-.86-.005h-.258a.043.043 0 0 1-.043-.043.043.043 0 0 1 .043-.043h.258a.043.043 0 0 1 0 .086zm-.86-.005h-.258a.043.043 0 0 1 0-.086h.258a.043.043 0 0 1 0 .086zm-.86-.005h-.258a.043.043 0 1 1 0-.086h.258a.043.043 0 0 1 0 .086zm-.86-.005h-.258a.043.043 0 0 1-.043-.043.042.042 0 0 1 .043-.043h.258a.043.043 0 0 1 0 .086zm-.86-.01c-.086 0-.173-.011-.26-.02a.043.043 0 0 1-.038-.047.044.044 0 0 1 .047-.038c.085.009.17.016.255.02a.043.043 0 0 1 0 .086zm-.85-.122h-.01c-.084-.02-.168-.043-.251-.068a.043.043 0 0 1 .025-.082c.081.024.164.047.247.067a.043.043 0 0 1-.01.085zm36.624-.216a.043.043 0 0 1-.024-.079c.071-.047.141-.1.207-.148a.043.043 0 1 1 .053.068c-.068.053-.14.1-.213.152a.043.043 0 0 1-.037-.021zm-37.437-.063a.042.042 0 0 1-.018 0c-.079-.036-.157-.074-.234-.114a.043.043 0 1 1 .04-.076c.075.039.152.077.23.112a.043.043 0 0 1-.018.082zm-.746-.425a.042.042 0 0 1-.025-.008c-.071-.049-.141-.1-.209-.155a.043.043 0 0 1 .053-.068c.067.053.136.1.2.152a.043.043 0 0 1-.025.078zm38.833-.071a.043.043 0 0 1-.032-.072c.057-.063.111-.129.162-.2a.043.043 0 1 1 .068.052c-.052.069-.108.136-.167.2a.043.043 0 0 1-.04-.008zm-39.487-.485a.043.043 0 0 1-.031-.013c-.06-.062-.12-.127-.176-.192a.043.043 0 1 1 .065-.057c.056.064.114.127.173.188a.043.043 0 0 1-.031.073zm39.972-.222a.045.045 0 0 1-.02 0 .043.043 0 0 1-.019-.058c.038-.075.074-.153.106-.231a.043.043 0 1 1 .08.033c-.033.081-.07.16-.109.237a.043.043 0 0 1-.047-.01zm-40.511-.446a.043.043 0 0 1-.036-.019c-.048-.072-.094-.147-.138-.221a.043.043 0 1 1 .074-.043c.043.073.088.146.135.217a.043.043 0 0 1-.036.067zm40.8-.363h-.009a.043.043 0 0 1-.033-.051c.013-.064.025-.129.034-.193l.009-.059a.043.043 0 0 1 .085.012l-.009.06c-.01.065-.021.132-.035.2a.043.043 0 0 1-.056.002zm-41.2-.4a.043.043 0 0 1-.04-.026c-.034-.08-.065-.162-.094-.243a.043.043 0 1 1 .081-.029c.028.08.059.16.092.239a.043.043 0 0 1-.023.056.044.044 0 0 1-.031-.021zm41.33-.455h-.006a.043.043 0 0 1-.037-.048l.035-.256a.043.043 0 0 1 .085.012l-.035.256a.043.043 0 0 1-.057.012zm-41.585-.366a.043.043 0 0 1-.042-.034c-.018-.085-.033-.171-.046-.256a.043.043 0 1 1 .085-.013c.013.084.028.168.045.252a.043.043 0 0 1-.033.051zm41.7-.487h-.005a.043.043 0 0 1-.037-.048l.032-.256a.042.042 0 0 1 .048-.037.043.043 0 0 1 .037.048l-.032.256a.043.043 0 0 1-.059.012zm-41.794-.366a.043.043 0 0 1-.043-.042l-.008-.258a.043.043 0 0 1 .042-.044.042.042 0 0 1 .044.042l.008.258a.043.043 0 0 1-.042.044zm41.9-.488a.043.043 0 0 1-.038-.047l.029-.256a.043.043 0 1 1 .086.01l-.029.257a.043.043 0 0 1-.067.011zm-41.926-.372a.043.043 0 0 1-.043-.042l-.008-.258a.043.043 0 0 1 .042-.044.04.04 0 0 1 .045.042l.008.258a.043.043 0 0 1-.042.044zm42.02-.484a.043.043 0 0 1-.038-.047l.026-.257a.044.044 0 0 1 .047-.039.043.043 0 0 1 .038.047l-.026.257a.043.043 0 0 1-.065.015zm-42.048-.376a.043.043 0 0 1-.043-.042l-.008-.258a.043.043 0 0 1 .042-.045.043.043 0 0 1 .044.042l.008.258a.043.043 0 0 1-.042.044zm42.132-.48a.043.043 0 0 1-.039-.047l.023-.257a.044.044 0 0 1 .047-.039.043.043 0 0 1 .039.047l-.023.257a.043.043 0 0 1-.065.014zm-42.16-.38a.043.043 0 0 1-.043-.042l-.008-.258a.043.043 0 0 1 .042-.044.041.041 0 0 1 .044.042l.008.258a.043.043 0 0 1-.042.044zm42.234-.477a.043.043 0 0 1-.039-.046l.02-.257a.044.044 0 0 1 .046-.04.043.043 0 0 1 .04.046l-.021.257a.043.043 0 0 1-.064.015zm-42.262-.383a.043.043 0 0 1-.043-.042l-.008-.258a.043.043 0 0 1 .042-.044.04.04 0 0 1 .044.042l.008.258a.043.043 0 0 1-.042.044zm42.326-.476a.043.043 0 0 1-.04-.046l.017-.258a.043.043 0 0 1 .046-.04.043.043 0 0 1 .04.046l-.017.258a.043.043 0 0 1-.064.016zm-42.353-.384a.043.043 0 0 1-.043-.042l-.008-.258a.043.043 0 0 1 .086 0l.008.258a.043.043 0 0 1-.042.044zm42.407-.475a.043.043 0 0 1-.041-.045l.014-.258a.043.043 0 0 1 .086 0l-.014.258a.043.043 0 0 1-.063.021zm-42.435-.385a.043.043 0 0 1-.043-.042l-.008-.258a.043.043 0 0 1 .042-.044.043.043 0 0 1 .043.042l.008.258a.043.043 0 0 1-.042.044zm42.477-.474a.043.043 0 0 1-.041-.045q.006-.128.01-.258a.043.043 0 0 1 .086 0l-.011.258a.043.043 0 0 1-.062.02zm-42.5-.386a.043.043 0 0 1-.043-.042l-.008-.258a.043.043 0 0 1 .042-.044.041.041 0 0 1 .044.042l.008.258a.043.043 0 0 1-.042.044zm42.536-.474a.043.043 0 0 1-.042-.044c0-.086 0-.172.007-.258a.044.044 0 0 1 .044-.042.043.043 0 0 1 .042.044q0 .129-.007.258a.043.043 0 0 1-.067.017zm-42.563-.386a.043.043 0 0 1-.043-.042l-.008-.258a.043.043 0 0 1 .042-.044.042.042 0 0 1 .044.042l.008.258a.043.043 0 0 1-.042.044zm42.583-.474a.043.043 0 0 1-.043-.044v-.258a.043.043 0 0 1 .043-.043.043.043 0 0 1 .043.043v.258a.043.043 0 0 1-.066.019zm-42.61-.385a.043.043 0 0 1-.043-.042l-.008-.258a.043.043 0 0 1 .042-.044.042.042 0 0 1 .044.042l.008.258a.043.043 0 0 1-.042.044zm42.617-.475a.043.043 0 0 1-.043-.043v-.021-.237a.043.043 0 0 1 .043-.043.043.043 0 0 1 .043.043v.258a.043.043 0 0 1-.066.017zm-42.645-.385a.043.043 0 0 1-.043-.042l-.008-.258a.043.043 0 0 1 .042-.044.04.04 0 0 1 .045.042l.008.258a.043.043 0 0 1-.042.044zm42.639-.475a.043.043 0 0 1-.043-.042v-.258a.043.043 0 0 1 .042-.044.047.047 0 0 1 .044.042v.258a.043.043 0 0 1-.042.044zm-42.666-.385a.043.043 0 0 1-.043-.042l-.008-.258a.043.043 0 0 1 .042-.044.04.04 0 0 1 .044.042l.008.258a.043.043 0 0 1-.042.044zm42.646-.475a.043.043 0 0 1-.043-.042q0-.129-.009-.258a.043.043 0 0 1 .042-.045.043.043 0 0 1 .045.041q0 .129.009.258a.043.043 0 0 1-.042.044zm-42.674-.385a.043.043 0 0 1-.043-.042l-.008-.258a.043.043 0 1 1 .086 0l.008.258a.043.043 0 0 1-.042.044zm42.639-.475a.043.043 0 0 1-.043-.041q-.006-.129-.014-.257a.043.043 0 0 1 .041-.045.042.042 0 0 1 .045.041l.013.258a.043.043 0 0 1-.041.045zm-42.667-.385a.043.043 0 0 1-.043-.042l-.008-.258a.043.043 0 0 1 .042-.044.042.042 0 0 1 .044.042l.008.258a.043.043 0 0 1-.042.045zm42.616-.474a.043.043 0 0 1-.043-.04l-.018-.257a.043.043 0 1 1 .086-.006l.018.258a.043.043 0 0 1-.04.046zm-42.644-.386a.043.043 0 0 1-.043-.042l-.008-.258a.043.043 0 0 1 .042-.044.042.042 0 0 1 .044.042l.008.258a.043.043 0 0 1-.042.044zm42.577-.472a.043.043 0 0 1-.043-.039l-.023-.257a.043.043 0 0 1 .086-.008l.023.257a.043.043 0 0 1-.039.047zm-42.6-.388a.043.043 0 0 1-.043-.042l-.008-.258a.043.043 0 0 1 .042-.044.043.043 0 0 1 .044.042l.008.258a.043.043 0 0 1-.042.044zm42.521-.468a.043.043 0 0 1-.043-.038l-.029-.256a.043.043 0 1 1 .085-.01l.029.257a.043.043 0 0 1-.038.047zm-42.548-.392a.043.043 0 0 1-.043-.042l-.01-.3h.156a.043.043 0 0 1 0 .086h-.067l.007.214a.043.043 0 0 1-.042.044zm42.266-.258h-.258a.043.043 0 0 1 0-.086h.258a.043.043 0 0 1 0 .086zm-.86 0h-.258a.043.043 0 1 1 0-.086h.258a.043.043 0 0 1 0 .086zm-.86 0h-.258a.043.043 0 0 1 0-.086h.258a.043.043 0 1 1 0 .086zm-.86 0h-.258a.043.043 0 1 1 0-.086h.258a.043.043 0 1 1 0 .086zm-.86 0h-.258a.043.043 0 1 1 0-.086h.258a.043.043 0 0 1 0 .086zm-.86 0h-.258a.043.043 0 0 1 0-.086h.258a.043.043 0 0 1 0 .086zm-.861 0h-.258a.043.043 0 1 1 0-.086h.258a.043.043 0 1 1 0 .086zm-.86 0h-.258a.043.043 0 0 1 0-.086h.258a.043.043 0 0 1 0 .086zm-.86 0h-.258a.043.043 0 0 1 0-.086h.258a.043.043 0 0 1 0 .086zm-.86 0h-.258a.043.043 0 1 1 0-.086h.258a.043.043 0 1 1 0 .086zm-.86 0h-.258a.043.043 0 0 1 0-.086h.258a.043.043 0 0 1 0 .086zm-.86 0h-.258a.043.043 0 0 1 0-.086h.258a.043.043 0 1 1 0 .086zm-.86 0h-.258a.043.043 0 1 1 0-.086h.258a.043.043 0 1 1 0 .086zm-.86 0h-.258a.043.043 0 0 1 0-.086h.258a.043.043 0 0 1 0 .086zm-.86 0h-.258a.043.043 0 0 1 0-.086h.258a.043.043 0 1 1 0 .086zm-.861 0h-.258a.043.043 0 1 1 0-.086h.258a.043.043 0 1 1 0 .086zm-.86 0h-.258a.043.043 0 0 1 0-.086h.258a.043.043 0 0 1 0 .086zm-.86 0h-.258a.043.043 0 0 1 0-.086h.258a.043.043 0 0 1 0 .086zm-.86 0h-.258a.043.043 0 1 1 0-.086h.258a.043.043 0 1 1 0 .086zm-.86 0h-.258a.043.043 0 0 1 0-.086h.258a.043.043 0 0 1 0 .086zm-.861 0h-.258a.043.043 0 0 1 0-.086h.258a.043.043 0 1 1 0 .086zm-.86 0h-.258a.043.043 0 1 1 0-.086h.258a.043.043 0 1 1 0 .086zm-.86 0h-.258a.043.043 0 1 1 0-.086h.258a.043.043 0 0 1 0 .086zm-.86 0h-.258a.043.043 0 0 1 0-.086h.258a.043.043 0 1 1 0 .086zm-.86 0h-.258a.043.043 0 0 1 0-.086h.258a.043.043 0 0 1 0 .086zm-.86 0h-.258a.043.043 0 0 1 0-.086h.258a.043.043 0 0 1 0 .086zm-.86 0h-.258a.043.043 0 1 1 0-.086h.258a.043.043 0 0 1 0 .086zm-.86 0h-.258a.043.043 0 1 1 0-.086h.258a.043.043 0 1 1 0 .086zm-.86 0h-.258a.043.043 0 0 1 0-.086h.258a.043.043 0 0 1 0 .086zm-.86 0h-.258a.043.043 0 0 1 0-.086h.258a.043.043 0 0 1 0 .086zm-.861 0h-.258a.043.043 0 1 1 0-.086h.258a.043.043 0 1 1 0 .086zm-.86 0h-.258a.043.043 0 0 1 0-.086h.258a.043.043 0 0 1 0 .086zm-.86 0h-.258a.043.043 0 0 1 0-.086h.258a.043.043 0 1 1 0 .086zm-.86 0h-.258a.043.043 0 1 1 0-.086h.218a.043.043 0 1 1 0 .086zm-.86 0h-.258a.043.043 0 0 1 0-.086h.258a.043.043 0 0 1 0 .086zm-.861 0h-.258a.043.043 0 1 1 0-.086h.258a.043.043 0 1 1 0 .086zm-.86 0h-.258a.043.043 0 1 1 0-.086h.258a.043.043 0 1 1 0 .086zm-.86 0h-.258a.043.043 0 0 1 0-.086h.258a.043.043 0 0 1 0 .086zm-.86 0h-.258a.043.043 0 1 1 0-.086h.258a.043.043 0 0 1 0 .086zm-.86 0h-.258a.043.043 0 1 1 0-.086h.258a.043.043 0 0 1 0 .086zm-.86 0h-.258a.043.043 0 0 1 0-.086h.258a.043.043 0 0 1 0 .086zm-.86 0h-.258a.043.043 0 0 1 0-.086h.258a.043.043 0 1 1 0 .086zm-.86 0H1655a.043.043 0 1 1 0-.086h.258a.043.043 0 1 1 0 .086zm-.86 0h-.258a.043.043 0 0 1 0-.086h.258a.043.043 0 0 1 0 .086zm-.861 0h-.258a.043.043 0 1 1 0-.086h.258a.043.043 0 1 1 0 .086zm-.86 0h-.258a.043.043 0 1 1 0-.086h.258a.043.043 0 1 1 0 .086zm-.86 0h-.258a.043.043 0 0 1 0-.086h.258a.043.043 0 0 1 0 .086zm-.86 0h-.258a.043.043 0 1 1 0-.086h.258a.043.043 0 1 1 0 .086zm-.86 0h-.258a.043.043 0 0 1 0-.086h.258a.043.043 0 0 1 0 .086z" class="cls-16" transform="translate(-1649.077 -1367.139)"/>
            </g>
            <path id="Path_56985" d="M1733.305 1255.913l.107-1.141a.877.877 0 0 1 .666-.512c1.1-.176 3.842-.485 5.161.5l.2 1.326z" class="cls-15" transform="translate(-1722.136 -1245.61)"/>
            <path id="Path_56986" d="M1754.053 1226.765a1.583 1.583 0 0 1-.764 0 .69.69 0 0 1-.526-.669v-3.574h1.819v3.571a.692.692 0 0 1-.529.672z" class="cls-15" transform="translate(-1739.435 -1217.561)"/>
            <path id="Path_56987" d="M1892.113 1255.913l.107-1.141a.877.877 0 0 1 .665-.512c1.1-.176 3.842-.485 5.161.5l.2 1.326z" class="cls-15" transform="translate(-1863.328 -1245.61)"/>
            <path id="Path_56988" d="M1912.862 1223.748a1.584 1.584 0 0 1-.764 0 .69.69 0 0 1-.526-.669v-3.95h1.819v3.948a.692.692 0 0 1-.529.671z" class="cls-15" transform="translate(-1880.629 -1214.543)"/>
            <path id="Path_56989" d="M1743.523 1183.634l19.559-.647a.943.943 0 0 0 .9-.774 7.969 7.969 0 0 0 .061-2.479 2.256 2.256 0 0 0-2.187-1.909c-3.649-.087-12.938-.084-18.057 1.941a1.788 1.788 0 0 0-1.08 1.241 4.335 4.335 0 0 0-.047 1.986.842.842 0 0 0 .851.641z" class="cls-15" transform="translate(-1730.38 -1177.797)"/>
            <path id="Path_56990" d="M1747.235 1192.472a.086.086 0 0 1-.086-.077 4.587 4.587 0 0 1 .117-1.474 1.63 1.63 0 0 1 1.111-1.129 21.486 21.486 0 0 1 4.873-.911.086.086 0 1 1 0 .172 21.336 21.336 0 0 0-4.829.9 1.457 1.457 0 0 0-.993 1.009 4.49 4.49 0 0 0-.112 1.412.086.086 0 0 1-.077.094z" class="cls-16" transform="translate(-1734.431 -1187.652)"/>
            <path id="Path_56991" d="M1634.7 1265.838c6.319-.081 33.654-.368 41.594.59a1.617 1.617 0 0 1 1.39 1.252 53.4 53.4 0 0 1 1.3 11.933 1.415 1.415 0 0 1-1.159 1.35l-18.125 3.429h-6.438l-19.312-3.839a1.51 1.51 0 0 1-1.218-1.4 62.781 62.781 0 0 1 .343-11.934 1.671 1.671 0 0 1 1.625-1.381z" class="cls-15" transform="translate(-1632.61 -1255.98)"/>
            <g id="Group_58251" transform="translate(1.519 11.273)">
                <path id="Path_56992" d="M1671.729 1295.046h-.258a.043.043 0 0 1 0-.086h.258a.043.043 0 0 1 0 .086zm-.86 0h-.258a.043.043 0 1 1 0-.086h.258a.043.043 0 1 1 0 .086zm-.86 0h-.258a.043.043 0 1 1 0-.086h.258a.043.043 0 1 1 0 .086zm-.86 0h-.258a.043.043 0 0 1 0-.086h.258a.043.043 0 0 1 0 .086zm-.86 0h-.258a.043.043 0 0 1 0-.086h.258a.043.043 0 0 1 0 .086zm-.86 0h-.258a.043.043 0 1 1 0-.086h.258a.043.043 0 0 1 0 .086zm-.86 0h-.258a.043.043 0 0 1 0-.086h.258a.043.043 0 0 1 0 .086zm-.86 0h-.112l-.262-.051a.043.043 0 1 1 .017-.084l.253.05h.1a.043.043 0 1 1 0 .086zm6.615-.111a.043.043 0 0 1-.008-.085l.254-.048a.043.043 0 1 1 .016.084l-.254.048zm-7.571-.056h-.008l-.253-.05a.043.043 0 1 1 .017-.084l.253.05a.043.043 0 0 1-.008.085zm8.417-.1a.043.043 0 0 1-.008-.085l.254-.048a.043.043 0 0 1 .016.085l-.254.048zm-9.261-.064h-.008l-.253-.05a.043.043 0 1 1 .017-.084l.253.05a.043.043 0 0 1-.008.085zm10.106-.1a.043.043 0 0 1-.008-.085l.254-.048a.043.043 0 0 1 .05.034.043.043 0 0 1-.034.05l-.254.048zm-10.95-.072h-.009l-.253-.05a.043.043 0 1 1 .017-.084l.253.05a.043.043 0 0 1-.008.085zm11.8-.088a.043.043 0 0 1-.008-.085l.254-.048a.043.043 0 1 1 .016.084l-.254.048zm-12.64-.08h-.009l-.253-.05a.043.043 0 1 1 .017-.084l.253.05a.043.043 0 0 1-.008.085zm13.485-.08a.043.043 0 0 1-.008-.085l.254-.048a.043.043 0 1 1 .016.085l-.254.048zm-14.329-.087h-.009l-.253-.05a.043.043 0 0 1 .017-.084l.253.05a.043.043 0 0 1-.008.085zm15.174-.073a.043.043 0 0 1-.008-.085l.254-.048a.043.043 0 1 1 .016.084l-.254.048zm-16.018-.1h-.009l-.253-.05a.043.043 0 1 1 .017-.084l.253.05a.043.043 0 0 1-.008.085zm16.864-.065a.043.043 0 0 1-.008-.085l.254-.048a.043.043 0 1 1 .016.084l-.254.048zm-17.708-.1h-.008l-.253-.05a.043.043 0 1 1 .017-.084l.253.05a.043.043 0 0 1-.008.085zm18.553-.057a.043.043 0 0 1-.008-.085l.254-.048a.043.043 0 1 1 .016.085l-.254.048zm-19.4-.111h-.009l-.253-.05a.043.043 0 0 1-.034-.051.042.042 0 0 1 .051-.034l.253.05a.043.043 0 0 1-.008.085zm20.243-.049a.043.043 0 0 1-.008-.085l.254-.048a.043.043 0 0 1 .05.034.043.043 0 0 1-.034.05l-.254.048zm-21.087-.119h-.008l-.253-.05a.043.043 0 0 1 .017-.084l.253.05a.043.043 0 0 1-.008.085zm21.932-.041a.043.043 0 0 1-.008-.085l.254-.048a.043.043 0 0 1 .016.084l-.254.048zm-22.776-.127h-.008l-.253-.05a.043.043 0 0 1 .017-.084l.253.05a.043.043 0 0 1-.008.085zm23.621-.033a.043.043 0 0 1-.008-.085l.254-.048a.043.043 0 0 1 .016.085l-.254.048zm-24.465-.134h-.009l-.253-.05a.043.043 0 1 1 .017-.084l.253.05a.043.043 0 0 1-.008.085zm25.311-.026a.043.043 0 0 1-.008-.085l.254-.048a.043.043 0 1 1 .016.084l-.254.048zm-26.155-.142h-.009l-.253-.05a.043.043 0 1 1 .017-.084l.253.05a.043.043 0 0 1-.008.085zm27-.018a.043.043 0 0 1-.008-.085l.254-.048a.043.043 0 0 1 .016.085l-.254.048zm-27.844-.15h-.009l-.253-.05a.043.043 0 1 1 .017-.084l.253.05a.043.043 0 0 1-.008.085zm28.69-.01a.043.043 0 0 1-.008-.085l.254-.048a.043.043 0 0 1 .016.085l-.254.048zm-29.534-.158h-.009l-.253-.05a.043.043 0 1 1 .017-.084l.253.05a.043.043 0 0 1-.008.085zm30.379 0a.043.043 0 0 1-.008-.085l.254-.048a.043.043 0 0 1 .016.085l-.254.048zm.845-.16a.043.043 0 0 1-.008-.085l.254-.048a.043.043 0 1 1 .016.084l-.254.048zm-32.068-.005h-.008l-.253-.05a.043.043 0 0 1 .017-.084l.253.05a.043.043 0 0 1-.008.085zm32.914-.155a.043.043 0 0 1-.008-.085l.254-.048a.043.043 0 0 1 .016.085l-.254.048zm-33.758-.013h-.008l-.253-.05a.043.043 0 0 1 .017-.084l.253.05a.043.043 0 0 1-.008.085zm34.6-.147a.043.043 0 0 1-.008-.085l.254-.048a.043.043 0 1 1 .016.084l-.254.048zm-35.447-.021h-.009l-.253-.05a.043.043 0 0 1-.034-.051.043.043 0 0 1 .051-.034l.253.05a.043.043 0 0 1-.008.085zm36.293-.139a.043.043 0 0 1-.008-.085l.254-.048a.043.043 0 1 1 .016.084l-.254.048zm-37.137-.029h-.009l-.253-.05a.043.043 0 1 1 .017-.084l.253.05a.043.043 0 0 1-.008.085zm37.982-.131a.043.043 0 0 1-.008-.085l.254-.048a.043.043 0 0 1 .016.085l-.254.048zm-38.826-.037h-.008l-.253-.05a.043.043 0 1 1 .017-.084l.253.05a.043.043 0 0 1-.008.085zm39.672-.123a.043.043 0 0 1-.008-.085l.254-.048a.043.043 0 0 1 .016.085l-.254.048zm-40.516-.045h-.008l-.253-.05a.043.043 0 1 1 .017-.084l.253.05a.043.043 0 0 1-.008.085zm-.844-.168h-.008l-.253-.05a.043.043 0 1 1 .017-.084l.253.05a.043.043 0 0 1-.008.085zm-.844-.168h-.008l-.253-.05a.043.043 0 1 1 .017-.084l.253.05a.043.043 0 0 1-.008.085zm42.582-.171a.043.043 0 0 1-.043-.043v-.258a.043.043 0 0 1 .043-.043.043.043 0 0 1 .043.043v.258a.043.043 0 0 1-.043.044zm-43.156-.23a.043.043 0 0 1-.043-.041l-.012-.258a.043.043 0 0 1 .041-.045.04.04 0 0 1 .045.041l.012.258a.043.043 0 0 1-.041.045zm43.149-.631a.043.043 0 0 1-.043-.042c0-.086 0-.172-.006-.258a.043.043 0 0 1 .042-.044.043.043 0 0 1 .043.042q0 .129.006.258a.043.043 0 0 1-.042.044zm-43.187-.229a.043.043 0 0 1-.043-.041l-.01-.258a.043.043 0 0 1 .041-.045.043.043 0 0 1 .043.042l.01.258a.043.043 0 0 1-.042.045zm43.16-.63a.043.043 0 0 1-.043-.041l-.011-.257a.043.043 0 1 1 .086 0l.011.257a.043.043 0 0 1-.041.045zm-43.19-.23a.043.043 0 0 1-.043-.042l-.007-.258a.043.043 0 0 1 .042-.044.043.043 0 0 1 .043.042l.007.258a.043.043 0 0 1-.042.044zm43.146-.629a.043.043 0 0 1-.043-.04l-.017-.257a.043.043 0 0 1 .04-.046.042.042 0 0 1 .046.04l.017.258a.043.043 0 0 1-.04.046zm-43.168-.232a.043.043 0 0 1-.043-.042l-.005-.258a.043.043 0 0 1 .042-.044.044.044 0 0 1 .044.042l.005.258a.043.043 0 0 1-.042.044zm43.107-.627a.043.043 0 0 1-.043-.04l-.021-.257a.043.043 0 0 1 .086-.007l.021.258a.043.043 0 0 1-.039.046zm-43.121-.233a.043.043 0 0 1-.043-.042v-.258a.043.043 0 0 1 .043-.044.043.043 0 0 1 .043.043v.258a.043.043 0 0 1-.043.043zm43.045-.624a.043.043 0 0 1-.043-.039l-.026-.257a.043.043 0 0 1 .038-.047.044.044 0 0 1 .047.038l.026.257a.043.043 0 0 1-.039.047zm-43.051-.237a.043.043 0 0 1-.043-.043v-.258a.043.043 0 0 1 .043-.043.043.043 0 0 1 .043.043v.258a.043.043 0 0 1-.043.043zm42.96-.62a.043.043 0 0 1-.043-.038l-.03-.256a.043.043 0 1 1 .085-.01l.03.257a.043.043 0 0 1-.038.048zm-42.957-.241a.043.043 0 0 1-.043-.043v-.258a.042.042 0 0 1 .043-.043.043.043 0 0 1 .043.044v.258a.043.043 0 0 1-.043.044zm42.852-.614a.043.043 0 0 1-.042-.038l-.034-.256a.043.043 0 0 1 .037-.048.043.043 0 0 1 .048.037l.034.256a.043.043 0 0 1-.037.048zm-42.839-.246a.043.043 0 0 1-.042-.044c0-.086 0-.172.006-.258a.045.045 0 0 1 .044-.042.043.043 0 0 1 .042.044q0 .129-.006.258a.043.043 0 0 1-.043.044zm42.721-.606a.043.043 0 0 1-.042-.037l-.038-.255a.043.043 0 0 1 .036-.049.044.044 0 0 1 .049.036l.038.255a.043.043 0 0 1-.036.049zm-42.7-.254a.043.043 0 0 1-.042-.045c0-.086.006-.172.01-.258a.042.042 0 0 1 .045-.041.043.043 0 0 1 .041.045c0 .086-.007.172-.01.258a.043.043 0 0 1-.04.043zm42.566-.6a.043.043 0 0 1-.042-.036l-.042-.255a.043.043 0 1 1 .085-.014l.042.255a.043.043 0 0 1-.036.049zm-42.527-.263a.043.043 0 0 1-.041-.045l.014-.258a.043.043 0 1 1 .086.005l-.014.258a.043.043 0 0 1-.041.045zm42.385-.586a.043.043 0 0 1-.042-.036l-.045-.254a.043.043 0 0 1 .085-.015l.045.255a.043.043 0 0 1-.035.05zm-42.331-.274a.043.043 0 0 1-.04-.046l.02-.258a.043.043 0 0 1 .046-.04.043.043 0 0 1 .039.046l-.02.257a.043.043 0 0 1-.041.046zm42.176-.573a.043.043 0 0 1-.042-.035l-.049-.253a.043.043 0 1 1 .084-.017l.049.254a.043.043 0 0 1-.034.05zm-42.1-.284a.043.043 0 0 1-.039-.047l.026-.257a.044.044 0 0 1 .047-.038.043.043 0 0 1 .038.047q-.014.127-.026.257a.043.043 0 0 1-.045.043zm41.935-.56a.043.043 0 0 1-.042-.034l-.053-.253a.043.043 0 1 1 .084-.018l.053.253a.043.043 0 0 1-.033.051zm-41.839-.295h-.006a.043.043 0 0 1-.037-.048l.035-.256a.043.043 0 0 1 .085.012l-.035.255a.043.043 0 0 1-.041.042zm41.563-.454h-.005l-.256-.029a.043.043 0 0 1-.038-.047.044.044 0 0 1 .047-.038l.257.029a.043.043 0 0 1-.005.086zm-.856-.089l-.257-.023a.043.043 0 0 1-.039-.047.043.043 0 0 1 .047-.039l.257.023a.043.043 0 0 1 0 .086zm-.858-.072l-.257-.019a.043.043 0 1 1 .006-.086l.258.019a.043.043 0 0 1 0 .086zm-.858-.061l-.257-.016a.043.043 0 0 1-.04-.046.042.042 0 0 1 .046-.04l.258.017a.043.043 0 0 1 0 .086zm-.859-.052l-.258-.014a.043.043 0 0 1-.041-.045.041.041 0 0 1 .045-.041l.258.014a.043.043 0 0 1 0 .086zm-.859-.046l-.258-.013a.043.043 0 0 1-.041-.045.042.042 0 0 1 .045-.041l.258.012a.043.043 0 0 1 0 .086zm-.859-.04l-.258-.011a.043.043 0 0 1-.041-.045.041.041 0 0 1 .045-.041l.258.011a.043.043 0 0 1 0 .086zm-.86-.036l-.258-.01a.043.043 0 0 1-.041-.045.041.041 0 0 1 .045-.041l.258.01a.043.043 0 0 1 0 .086zm-35.425 0h-.007a.043.043 0 0 1-.035-.05l.014-.081a.152.152 0 0 1 .149-.128h.022a.044.044 0 0 1 .044.042.043.043 0 0 1-.042.044h-.023a.067.067 0 0 0-.065.057l-.014.081a.043.043 0 0 1-.042.039zm34.565-.032l-.258-.009a.043.043 0 0 1-.042-.044.044.044 0 0 1 .045-.042l.258.009a.043.043 0 0 1 0 .086zm-.86-.029l-.258-.008a.043.043 0 0 1 0-.086l.258.008a.043.043 0 0 1 0 .086zm-.86-.026l-.258-.007a.043.043 0 0 1-.042-.044.045.045 0 0 1 .044-.042l.258.007a.043.043 0 0 1 0 .086zm-.86-.024l-.258-.007a.043.043 0 0 1-.042-.044.045.045 0 0 1 .044-.042l.258.006a.043.043 0 0 1 0 .086zm-.86-.021l-.258-.006a.043.043 0 0 1-.042-.044.044.044 0 0 1 .044-.042l.258.006a.043.043 0 0 1 0 .086zm-.86-.019l-.258-.005a.043.043 0 0 1-.042-.044.046.046 0 0 1 .044-.042l.258.005a.043.043 0 0 1 0 .086zm-.86-.017h-.258a.043.043 0 0 1-.042-.044.046.046 0 0 1 .044-.042h.258a.043.043 0 0 1 0 .086zm-28.657-.013a.043.043 0 0 1 0-.086h.258a.043.043 0 0 1 0 .086h-.258zm27.8 0h-.258a.043.043 0 0 1 0-.086h.258a.043.043 0 0 1 0 .086zm-26.936-.008a.043.043 0 0 1 0-.086h.258a.043.043 0 0 1 .043.043.043.043 0 0 1-.042.044h-.258zm26.076-.006h-.258a.043.043 0 0 1 0-.086h.258a.043.043 0 0 1 0 .086zm-25.215 0a.043.043 0 0 1 0-.086h.258a.042.042 0 0 1 .043.043.043.043 0 0 1-.043.043h-.258zm.861-.009a.043.043 0 0 1 0-.086h.258a.043.043 0 0 1 0 .086h-.258zm23.494 0h-.258a.043.043 0 0 1-.042-.044.042.042 0 0 1 .044-.042h.258a.043.043 0 0 1 0 .086zm-22.633-.008a.043.043 0 0 1 0-.086h.258a.043.043 0 0 1 0 .086h-.258zm21.773 0h-.258a.043.043 0 0 1 0-.086h.258a.043.043 0 0 1 0 .086zm-20.912 0a.043.043 0 0 1 0-.086h.258a.043.043 0 0 1 0 .086h-.258zm20.051-.006h-.258a.043.043 0 0 1 0-.086h.258a.043.043 0 0 1 0 .086zm-19.19 0a.043.043 0 0 1 0-.086h.258a.043.043 0 0 1 0 .086h-.258zm.861-.007a.043.043 0 0 1 0-.086h.258a.043.043 0 0 1 0 .086h-.258zm17.469 0h-.258a.043.043 0 0 1 0-.086h.258a.043.043 0 0 1 0 .086zm-16.609-.006a.043.043 0 0 1 0-.086h.258a.043.043 0 0 1 0 .086h-.258zm15.748 0h-.258a.043.043 0 0 1 0-.086h.258a.043.043 0 0 1 0 .086zm-14.887 0a.043.043 0 0 1 0-.086h.258a.043.043 0 1 1 0 .086h-.258zm14.027 0h-.258a.043.043 0 0 1 0-.086h.258a.043.043 0 0 1 0 .086zm-13.166 0a.043.043 0 0 1 0-.086h.258a.043.043 0 0 1 0 .086h-.259zm12.306 0h-.258a.043.043 0 0 1 0-.086h.258a.043.043 0 0 1 0 .086zm-11.445 0a.043.043 0 0 1 0-.086h.258a.043.043 0 1 1 0 .086h-.258zm10.584 0h-.258a.043.043 0 0 1 0-.086h.258a.043.043 0 1 1 0 .086zm-9.724 0a.043.043 0 0 1 0-.086h.258a.041.041 0 0 1 .043.043.043.043 0 0 1-.043.043h-.259zm.861 0a.043.043 0 0 1 0-.086h.258a.043.043 0 0 1 0 .086h-.258zm8 0h-.258a.043.043 0 0 1 0-.086h.258a.043.043 0 1 1 0 .086zm-7.142 0a.043.043 0 0 1 0-.086h.258a.043.043 0 0 1 0 .086zm6.282 0h-.258a.043.043 0 1 1 0-.086h.258a.043.043 0 0 1 0 .086zm-5.421 0a.043.043 0 1 1 0-.086h.258a.043.043 0 0 1 0 .086h-.258zm4.56 0h-.258a.043.043 0 0 1 0-.086h.258a.043.043 0 0 1 0 .086zm-3.7 0a.043.043 0 0 1 0-.086h.258a.043.043 0 0 1 0 .086zm2.839 0h-.258a.043.043 0 1 1 0-.086h.258a.043.043 0 0 1 0 .086zm-1.979 0a.043.043 0 1 1 0-.086h.258a.043.043 0 0 1 0 .086zm1.118 0h-.258a.043.043 0 0 1 0-.086h.258a.043.043 0 1 1 0 .086z" class="cls-16" transform="translate(-1646.3 -1279.426)"/>
            </g>
            <path id="Path_56993" d="M1809.288 1391.508h-5.64a1.457 1.457 0 0 1-1.449-1.28l-.652-5.428a1.455 1.455 0 0 1 1.449-1.625h6.776a1.456 1.456 0 0 1 1.454 1.581l-.484 5.428a1.457 1.457 0 0 1-1.454 1.324z" class="cls-12" transform="translate(-1782.798 -1360.394)"/>
            <path id="Path_56994" d="M1817.877 1398.464h-4.293a1.109 1.109 0 0 1-1.1-.974l-.5-4.131a1.108 1.108 0 0 1 1.1-1.237h5.157a1.108 1.108 0 0 1 1.107 1.2l-.368 4.131a1.109 1.109 0 0 1-1.103 1.011z" class="cls-3" transform="translate(-1792.081 -1368.348)"/>
        </g>
        <g id="Group_58254" transform="translate(123.972 112.703)">
            <g id="Group_58253">
                <path id="Path_56995" d="M500.085 910.459l-.262-.654a.158.158 0 0 1 .293-.117v.007l.255.641v.006a.157.157 0 0 1-.292.117z" class="cls-17" transform="translate(-499.013 -843.804)"/>
                <path id="Path_56996" d="M494.327 890.292l-.147-.691a.159.159 0 1 1 .311-.066v.009l.142.673v.009a.159.159 0 0 1-.311.066z" class="cls-17" transform="translate(-494.002 -825.863)"/>
                <path id="Path_56997" d="M492.611 869.445q-.01-.354.006-.708a.161.161 0 0 1 .321.014q-.016.342-.007.685a.16.16 0 0 1-.32.009z" class="cls-17" transform="translate(-492.608 -807.347)"/>
                <path id="Path_56998" d="M494.649 848.788q.079-.346.185-.685a.162.162 0 0 1 .309.1q-.1.326-.179.66a.162.162 0 0 1-.315-.072z" class="cls-17" transform="translate(-494.419 -789.038)"/>
                <path id="Path_56999" d="M501.935 829.7q.165-.314.353-.615a.164.164 0 1 1 .278.173q-.182.29-.342.593a.163.163 0 0 1-.289-.152z" class="cls-17" transform="translate(-500.883 -772.166)"/>
                <path id="Path_57000" d="M513.794 813.172l.48-.519a.165.165 0 0 1 .242.224l-.007.007-.467.5-.007.007a.165.165 0 0 1-.241-.224z" class="cls-17" transform="translate(-511.405 -757.574)"/>
                <path id="Path_57001" d="M529.009 799.523l.564-.423a.166.166 0 0 1 .2.266h-.006l-.552.413h-.006a.166.166 0 0 1-.2-.266z" class="cls-17" transform="translate(-524.913 -745.541)"/>
                <path id="Path_57002" d="M546.4 788.5l.617-.339a.168.168 0 0 1 .162.294h-.006l-.606.332h-.006a.167.167 0 0 1-.161-.294z" class="cls-17" transform="translate(-540.356 -735.826)"/>
                <path id="Path_57003" d="M565.167 779.747l.65-.267a.169.169 0 1 1 .129.313l-.641.262a.169.169 0 0 1-.128-.313z" class="cls-17" transform="translate(-557.025 -728.116)"/>
                <path id="Path_57004" d="M584.812 772.942l.671-.2a.171.171 0 0 1 .1.327l-.663.2a.17.17 0 0 1-.1-.326z" class="cls-17" transform="translate(-574.477 -722.126)"/>
                <path id="Path_57005" d="M605.018 767.823l.685-.151a.172.172 0 0 1 .074.336l-.677.149a.172.172 0 0 1-.074-.336z" class="cls-17" transform="translate(-592.429 -717.625)"/>
                <path id="Path_57006" d="M625.581 764.187l.693-.1a.174.174 0 0 1 .052.344l-.686.1a.173.173 0 0 1-.051-.343z" class="cls-17" transform="translate(-610.7 -714.437)"/>
                <path id="Path_57007" d="M646.365 761.888l.7-.061a.175.175 0 0 1 .03.349l-.692.059a.175.175 0 0 1-.03-.348z" class="cls-17" transform="translate(-629.168 -712.433)"/>
                <path id="Path_57008" d="M667.266 760.813l.7-.021a.177.177 0 1 1 .011.353l-.694.02a.176.176 0 0 1-.01-.352z" class="cls-17" transform="translate(-647.741 -711.513)"/>
                <path id="Path_57009" d="M688.214 760.75l.7.016a.178.178 0 0 1-.008.356l-.694-.017a.178.178 0 0 1 .009-.355z" class="cls-17" transform="translate(-666.355 -711.475)"/>
                <path id="Path_57010" d="M709.145 761.616l.7.052a.18.18 0 1 1-.027.358l-.693-.052a.179.179 0 0 1 .027-.357z" class="cls-17" transform="translate(-684.955 -712.245)"/>
                <path id="Path_57011" d="M730 763.533l.694.086a.181.181 0 1 1-.045.359l-.689-.086a.181.181 0 0 1 .045-.358z" class="cls-17" transform="translate(-703.492 -713.948)"/>
                <path id="Path_57012" d="M750.744 766.467l.69.12a.182.182 0 1 1-.062.359l-.684-.12a.182.182 0 0 1 .062-.359z" class="cls-17" transform="translate(-721.921 -716.556)"/>
                <path id="Path_57013" d="M771.327 770.377l.684.146a.184.184 0 1 1-.077.359l-.68-.146a.183.183 0 0 1 .076-.359z" class="cls-17" transform="translate(-740.213 -720.03)"/>
                <path id="Path_57014" d="M791.773 774.927l.679.163a.185.185 0 1 1-.086.359l-.676-.163a.185.185 0 0 1 .086-.359z" class="cls-17" transform="translate(-758.386 -724.075)"/>
                <path id="Path_57015" d="M812.1 780l.675.18a.186.186 0 1 1-.1.359l-.672-.18a.186.186 0 0 1 .1-.359z" class="cls-17" transform="translate(-776.449 -728.587)"/>
                <path id="Path_57016" d="M832.284 785.584l.67.2a.187.187 0 0 1-.105.359l-.668-.2a.187.187 0 0 1 .105-.359z" class="cls-17" transform="translate(-794.392 -733.547)"/>
                <path id="Path_57017" d="M852.332 791.647l.666.212a.188.188 0 0 1-.114.359l-.663-.212a.188.188 0 0 1 .114-.358z" class="cls-17" transform="translate(-812.212 -738.937)"/>
                <path id="Path_57018" d="M872.235 798.17l.661.227a.19.19 0 1 1-.123.359l-.658-.227a.189.189 0 0 1 .123-.358z" class="cls-17" transform="translate(-829.903 -744.735)"/>
                <path id="Path_57019" d="M891.991 805.128l.656.241a.191.191 0 1 1-.132.358l-.653-.241a.19.19 0 0 1 .132-.357z" class="cls-17" transform="translate(-847.462 -750.92)"/>
                <path id="Path_57020" d="M911.6 812.5l.65.254a.192.192 0 1 1-.14.358l-.648-.254a.192.192 0 1 1 .139-.357z" class="cls-17" transform="translate(-864.887 -757.475)"/>
                <path id="Path_57021" d="M931.051 820.258l.646.266a.193.193 0 1 1-.147.357l-.643-.266a.193.193 0 1 1 .146-.357z" class="cls-17" transform="translate(-882.18 -764.37)"/>
                <path id="Path_57022" d="M950.357 828.376l.641.278a.194.194 0 0 1-.155.357l-.638-.278a.194.194 0 1 1 .154-.356z" class="cls-17" transform="translate(-899.341 -771.586)"/>
                <path id="Path_57023" d="M969.518 836.832l.636.289a.2.2 0 0 1-.162.356l-.634-.289a.2.2 0 1 1 .161-.356z" class="cls-17" transform="translate(-916.372 -779.102)"/>
                <path id="Path_57024" d="M988.538 845.6l.631.3a.2.2 0 1 1-.168.356l-.629-.3a.2.2 0 1 1 .167-.355z" class="cls-17" transform="translate(-933.278 -786.897)"/>
                <path id="Path_57025" d="M1007.421 854.657l.627.308a.2.2 0 0 1-.174.355l-.625-.307a.2.2 0 1 1 .174-.355z" class="cls-17" transform="translate(-950.063 -794.948)"/>
                <path id="Path_57026" d="M1026.175 863.979l.622.316a.2.2 0 1 1-.18.355l-.621-.316a.2.2 0 1 1 .179-.355z" class="cls-17" transform="translate(-966.733 -803.234)"/>
                <path id="Path_57027" d="M1044.806 873.544l.618.323a.2.2 0 0 1-.186.355l-.617-.323a.2.2 0 1 1 .185-.355z" class="cls-17" transform="translate(-983.294 -811.737)"/>
                <path id="Path_57028" d="M1063.323 883.326l.615.33a.2.2 0 0 1-.191.355l-.613-.33a.2.2 0 1 1 .19-.355z" class="cls-17" transform="translate(-999.754 -820.434)"/>
                <path id="Path_57029" d="M1081.734 893.306l.611.336a.2.2 0 1 1-.2.355l-.61-.336a.2.2 0 1 1 .195-.355z" class="cls-17" transform="translate(-1016.12 -829.305)"/>
                <path id="Path_57030" d="M1100.05 903.46l.608.342a.2.2 0 1 1-.2.355l-.607-.342a.2.2 0 1 1 .2-.355z" class="cls-17" transform="translate(-1032.401 -838.332)"/>
                <path id="Path_57031" d="M1118.28 913.766l.606.346a.205.205 0 1 1-.2.356l-.6-.346a.2.2 0 1 1 .2-.356z" class="cls-17" transform="translate(-1048.605 -847.495)"/>
                <path id="Path_57032" d="M1136.435 924.2l.6.35a.206.206 0 1 1-.207.357l-.6-.35a.206.206 0 1 1 .206-.356z" class="cls-17" transform="translate(-1064.744 -856.773)"/>
                <path id="Path_57033" d="M1154.526 934.751l.6.353a.207.207 0 0 1-.21.358l-.6-.354a.207.207 0 1 1 .209-.357z" class="cls-17" transform="translate(-1080.826 -866.15)"/>
                <path id="Path_57034" d="M1172.565 945.386l.6.356a.209.209 0 1 1-.213.359l-.6-.356a.208.208 0 0 1 .212-.358z" class="cls-17" transform="translate(-1096.862 -875.605)"/>
                <path id="Path_57035" d="M1190.564 956.089l.6.357a.21.21 0 0 1-.215.36l-.6-.358a.209.209 0 0 1 .215-.36z" class="cls-17" transform="translate(-1112.863 -885.12)"/>
                <path id="Path_57036" d="M1208.536 966.833l.6.358a.211.211 0 0 1-.217.362l-.6-.358a.211.211 0 0 1 .216-.361z" class="cls-17" transform="translate(-1128.84 -894.672)"/>
                <path id="Path_57037" d="M1226.5 977.587l.6.358a.212.212 0 1 1-.218.364l-.6-.358a.212.212 0 0 1 .217-.363z" class="cls-17" transform="translate(-1144.809 -904.233)"/>
                <path id="Path_57038" d="M1244.471 988.33l.6.357a.213.213 0 0 1-.218.367l-.6-.358a.213.213 0 0 1 .218-.366z" class="cls-17" transform="translate(-1160.785 -913.784)"/>
                <path id="Path_57039" d="M1262.461 999.04l.6.355a.215.215 0 1 1-.218.369l-.6-.356a.214.214 0 1 1 .219-.368z" class="cls-17" transform="translate(-1176.779 -923.306)"/>
                <path id="Path_57040" d="M1280.486 1009.693l.6.353a.216.216 0 1 1-.218.372l-.6-.354a.215.215 0 1 1 .219-.371z" class="cls-17" transform="translate(-1192.803 -932.778)"/>
                <path id="Path_57041" d="M1298.556 1020.269l.6.35a.217.217 0 1 1-.217.375l-.6-.351a.217.217 0 1 1 .218-.374z" class="cls-17" transform="translate(-1208.867 -942.181)"/>
                <path id="Path_57042" d="M1316.683 1030.744l.6.346a.218.218 0 0 1-.216.379l-.605-.347a.218.218 0 1 1 .217-.378z" class="cls-17" transform="translate(-1224.984 -951.495)"/>
                <path id="Path_57043" d="M1334.881 1041.1l.607.341a.219.219 0 0 1-.214.383l-.608-.342a.219.219 0 1 1 .215-.381z" class="cls-17" transform="translate(-1241.163 -960.699)"/>
                <path id="Path_57044" d="M1353.161 1051.3l.61.336a.22.22 0 0 1-.212.387l-.611-.337a.22.22 0 1 1 .213-.385z" class="cls-17" transform="translate(-1257.415 -969.775)"/>
                <path id="Path_57045" d="M1371.533 1061.343l.614.33a.222.222 0 1 1-.209.391l-.614-.331a.221.221 0 1 1 .21-.389z" class="cls-17" transform="translate(-1273.749 -978.701)"/>
                <path id="Path_57046" d="M1390.008 1071.19l.617.323a.223.223 0 0 1-.205.4l-.618-.324a.223.223 0 1 1 .207-.394z" class="cls-17" transform="translate(-1290.175 -987.458)"/>
                <path id="Path_57047" d="M1408.6 1080.824l.621.315a.224.224 0 1 1-.2.4l-.622-.317a.224.224 0 1 1 .2-.4z" class="cls-17" transform="translate(-1306.702 -996.023)"/>
                <path id="Path_57048" d="M1427.3 1090.219l.625.307a.225.225 0 0 1-.2.405l-.626-.308a.225.225 0 1 1 .2-.4z" class="cls-17" transform="translate(-1323.336 -1004.378)"/>
                <path id="Path_57049" d="M1446.143 1099.352l.63.3a.226.226 0 1 1-.192.41l-.631-.3a.226.226 0 1 1 .194-.408z" class="cls-17" transform="translate(-1340.085 -1012.498)"/>
                <path id="Path_57050" d="M1465.117 1108.2l.634.287a.228.228 0 0 1-.186.416l-.636-.289a.227.227 0 1 1 .189-.413z" class="cls-17" transform="translate(-1356.956 -1020.366)"/>
                <path id="Path_57051" d="M1484.231 1116.733l.639.276a.229.229 0 1 1-.182.42l-.641-.278a.228.228 0 0 1 .182-.419z" class="cls-17" transform="translate(-1373.952 -1027.953)"/>
                <path id="Path_57052" d="M1503.492 1124.935l.644.265a.23.23 0 0 1-.175.425l-.646-.267a.23.23 0 1 1 .175-.424z" class="cls-17" transform="translate(-1391.078 -1035.247)"/>
                <path id="Path_57053" d="M1522.9 1132.778l.648.252a.231.231 0 0 1-.168.431l-.651-.254a.231.231 0 1 1 .168-.43z" class="cls-17" transform="translate(-1408.337 -1042.222)"/>
                <path id="Path_57054" d="M1542.462 1140.239l.653.239a.232.232 0 1 1-.16.436l-.656-.241a.232.232 0 0 1 .16-.436z" class="cls-17" transform="translate(-1425.73 -1048.857)"/>
                <path id="Path_57055" d="M1562.172 1147.295l.658.225a.233.233 0 0 1-.151.442l-.661-.227a.233.233 0 1 1 .151-.441z" class="cls-17" transform="translate(-1443.256 -1055.131)"/>
                <path id="Path_57056" d="M1582.03 1153.921l.663.21a.235.235 0 1 1-.142.447l-.666-.212a.234.234 0 1 1 .142-.447z" class="cls-17" transform="translate(-1460.914 -1061.024)"/>
                <path id="Path_57057" d="M1602.033 1160.1l.668.2a.236.236 0 1 1-.132.453l-.671-.2a.235.235 0 1 1 .133-.452z" class="cls-17" transform="translate(-1478.702 -1066.518)"/>
                <path id="Path_57058" d="M1622.175 1165.8l.672.177a.237.237 0 0 1-.121.458l-.676-.179a.237.237 0 0 1 .121-.458z" class="cls-17" transform="translate(-1496.613 -1071.589)"/>
                <path id="Path_57059" d="M1642.465 1170.95l.677.158a.238.238 0 1 1-.109.464l-.681-.16a.238.238 0 0 1 .109-.463z" class="cls-17" transform="translate(-1514.657 -1076.169)"/>
                <path id="Path_57060" d="M1662.893 1175.519l.681.139a.239.239 0 0 1-.1.469l-.685-.141a.239.239 0 0 1 .1-.468z" class="cls-17" transform="translate(-1532.824 -1080.232)"/>
                <path id="Path_57061" d="M1683.444 1179.507l.685.12a.241.241 0 0 1-.083.474l-.689-.121a.24.24 0 1 1 .083-.473z" class="cls-17" transform="translate(-1551.099 -1083.778)"/>
                <path id="Path_57062" d="M1704.1 1182.91l.688.1a.242.242 0 1 1-.07.479l-.692-.1a.241.241 0 1 1 .07-.478z" class="cls-17" transform="translate(-1569.469 -1086.806)"/>
                <path id="Path_57063" d="M1724.844 1185.722l.69.08a.243.243 0 0 1-.056.483l-.695-.082a.243.243 0 0 1 .057-.482z" class="cls-17" transform="translate(-1587.917 -1089.306)"/>
                <path id="Path_57064" d="M1745.661 1187.932l.693.06a.244.244 0 1 1-.042.486l-.7-.061a.244.244 0 1 1 .043-.486z" class="cls-17" transform="translate(-1606.431 -1091.272)"/>
                <path id="Path_57065" d="M1766.536 1189.528l.694.039a.245.245 0 1 1-.028.49l-.7-.04a.245.245 0 1 1 .028-.489z" class="cls-17" transform="translate(-1624.995 -1092.691)"/>
                <path id="Path_57066" d="M1787.45 1190.492l.695.018a.247.247 0 0 1-.013.493l-.7-.019a.246.246 0 0 1 .013-.492z" class="cls-17" transform="translate(-1643.595 -1093.549)"/>
                <path id="Path_57067" d="M1808.383 1190.774h.695a.248.248 0 0 1 0 .5h-.7a.247.247 0 0 1 0-.495z" class="cls-17" transform="translate(-1662.212 -1093.796)"/>
                <path id="Path_57068" d="M1829.316 1190.229l.694-.027a.249.249 0 0 1 .019.5l-.7.026a.249.249 0 1 1-.019-.5z" class="cls-17" transform="translate(-1680.829 -1093.291)"/>
                <path id="Path_57069" d="M1850.225 1188.977l.693-.051a.25.25 0 1 1 .036.5l-.7.051a.25.25 0 0 1-.036-.5z" class="cls-17" transform="translate(-1699.425 -1092.155)"/>
                <path id="Path_57070" d="M1871.084 1186.985l.69-.076a.251.251 0 1 1 .055.5l-.7.076a.251.251 0 0 1-.054-.5z" class="cls-17" transform="translate(-1717.977 -1090.361)"/>
                <path id="Path_57071" d="M1891.864 1184.219l.687-.1a.252.252 0 0 1 .074.5l-.693.1a.252.252 0 1 1-.073-.5z" class="cls-17" transform="translate(-1736.459 -1087.878)"/>
                <path id="Path_57072" d="M1912.529 1180.643l.682-.129a.254.254 0 0 1 .094.5l-.688.13a.253.253 0 1 1-.094-.5z" class="cls-17" transform="translate(-1754.84 -1084.673)"/>
                <path id="Path_57073" d="M1933.039 1176.214l.676-.158a.255.255 0 1 1 .116.5l-.682.159a.254.254 0 1 1-.115-.5z" class="cls-17" transform="translate(-1773.083 -1080.708)"/>
                <path id="Path_57074" d="M1953.348 1170.889l.668-.188a.256.256 0 0 1 .139.493l-.675.189a.256.256 0 0 1-.138-.492z" class="cls-17" transform="translate(-1791.148 -1075.943)"/>
                <path id="Path_57075" d="M1973.4 1164.623l.658-.22a.257.257 0 1 1 .163.488l-.665.222a.257.257 0 0 1-.162-.487z" class="cls-17" transform="translate(-1808.986 -1070.341)"/>
                <path id="Path_57076" d="M1993.134 1157.369l.646-.253a.258.258 0 1 1 .189.481l-.653.255a.258.258 0 0 1-.188-.481z" class="cls-17" transform="translate(-1826.541 -1063.857)"/>
                <path id="Path_57077" d="M2012.475 1149.083l.63-.287a.26.26 0 0 1 .215.472l-.639.291a.259.259 0 1 1-.215-.472z" class="cls-17" transform="translate(-1843.747 -1056.454)"/>
                <path id="Path_57078" d="M2031.341 1139.724l.613-.323a.261.261 0 0 1 .244.461l-.621.327a.26.26 0 0 1-.243-.461z" class="cls-17" transform="translate(-1860.532 -1048.095)"/>
                <path id="Path_57079" d="M2049.637 1129.258l.591-.36a.262.262 0 1 1 .273.447l-.6.365a.262.262 0 0 1-.272-.447z" class="cls-17" transform="translate(-1876.81 -1038.75)"/>
                <path id="Path_57080" d="M2067.26 1117.662l.567-.4a.263.263 0 1 1 .3.431l-.575.4a.263.263 0 1 1-.3-.431z" class="cls-17" transform="translate(-1892.491 -1028.399)"/>
                <path id="Path_57081" d="M2084.1 1104.936l.539-.435a.264.264 0 0 1 .332.411l-.547.441a.264.264 0 1 1-.331-.411z" class="cls-17" transform="translate(-1907.478 -1017.041)"/>
                <path id="Path_57082" d="M2100.074 1091.117l.508-.47a.266.266 0 0 1 .361.39l-.516.477a.265.265 0 0 1-.36-.39z" class="cls-17" transform="translate(-1921.689 -1004.713)"/>
                <path id="Path_57083" d="M2115.093 1076.267l.475-.5a.267.267 0 0 1 .388.366l-.483.511a.266.266 0 0 1-.387-.366z" class="cls-17" transform="translate(-1935.053 -991.468)"/>
                <path id="Path_57084" d="M2129.1 1060.456l.44-.534a.268.268 0 1 1 .413.341l-.448.542a.267.267 0 1 1-.412-.341z" class="cls-17" transform="translate(-1947.514 -977.372)"/>
                <path id="Path_57085" d="M2142.033 1043.771l.4-.562a.269.269 0 1 1 .437.314l-.411.57a.269.269 0 1 1-.436-.314z" class="cls-17" transform="translate(-1959.025 -962.499)"/>
                <path id="Path_57086" d="M2153.867 1026.3l.367-.587a.27.27 0 0 1 .458.287l-.373.6a.27.27 0 0 1-.457-.287z" class="cls-17" transform="translate(-1969.555 -946.93)"/>
                <path id="Path_57087" d="M2164.575 1008.13l.33-.609a.271.271 0 1 1 .477.259l-.335.617a.271.271 0 1 1-.476-.259z" class="cls-17" transform="translate(-1979.083 -930.744)"/>
                <path id="Path_57088" d="M2174.149 989.356l.292-.628a.273.273 0 1 1 .494.23l-.3.636a.272.272 0 0 1-.493-.23z" class="cls-17" transform="translate(-1987.602 -914.022)"/>
                <path id="Path_57089" d="M2182.588 970.063l.255-.644a.274.274 0 1 1 .509.2l-.259.652a.274.274 0 0 1-.509-.2z" class="cls-17" transform="translate(-1995.111 -896.84)"/>
                <path id="Path_57090" d="M2189.9 950.331l.218-.658a.275.275 0 0 1 .522.173l-.222.666a.275.275 0 1 1-.521-.173z" class="cls-17" transform="translate(-2001.618 -879.271)"/>
                <path id="Path_57091" d="M2196.1 930.238l.182-.669a.276.276 0 0 1 .533.145l-.184.677a.276.276 0 1 1-.532-.145z" class="cls-17" transform="translate(-2007.134 -861.384)"/>
                <path id="Path_57092" d="M2201.2 909.856l.146-.677a.277.277 0 1 1 .542.116l-.148.686a.277.277 0 1 1-.542-.117z" class="cls-17" transform="translate(-2011.672 -843.24)"/>
                <path id="Path_57093" d="M2205.221 889.246l.11-.684a.279.279 0 1 1 .55.088l-.112.693a.278.278 0 1 1-.549-.089z" class="cls-17" transform="translate(-2015.248 -824.897)"/>
                <path id="Path_57094" d="M2208.177 868.475l.076-.689a.28.28 0 0 1 .556.061l-.078.7a.279.279 0 1 1-.555-.062z" class="cls-17" transform="translate(-2017.878 -806.413)"/>
                <path id="Path_57095" d="M2210.113 847.6l.042-.692a.281.281 0 1 1 .561.034l-.044.7a.281.281 0 0 1-.56-.035z" class="cls-17" transform="translate(-2019.6 -787.834)"/>
                <path id="Path_57096" d="M2211.043 826.66l.009-.693a.282.282 0 0 1 .564.008l-.01.7a.282.282 0 0 1-.563-.008z" class="cls-17" transform="translate(-2020.428 -769.207)"/>
                <path id="Path_57097" d="M2210.787 805.716l-.023-.693a.283.283 0 1 1 .566-.019l.023.7a.283.283 0 1 1-.565.018z" class="cls-17" transform="translate(-2020.179 -750.574)"/>
                <path id="Path_57098" d="M2209.479 784.81l-.056-.691a.284.284 0 1 1 .567-.046l.055.7a.284.284 0 0 1-.566.045z" class="cls-17" transform="translate(-2018.987 -731.975)"/>
                <path id="Path_57099" d="M2207.213 763.985l-.087-.688a.286.286 0 1 1 .567-.072l.087.7a.285.285 0 0 1-.566.071z" class="cls-17" transform="translate(-2016.943 -713.45)"/>
                <path id="Path_57100" d="M2204.007 743.284l-.118-.683a.287.287 0 0 1 .565-.1l.118.691a.286.286 0 1 1-.565.1z" class="cls-17" transform="translate(-2014.063 -695.037)"/>
                <path id="Path_57101" d="M2199.882 722.744l-.148-.677a.288.288 0 1 1 .563-.123l.149.685a.288.288 0 1 1-.562.122z" class="cls-17" transform="translate(-2010.367 -676.769)"/>
                <path id="Path_57102" d="M2194.863 702.4l-.177-.67a.289.289 0 0 1 .559-.148l.178.678a.289.289 0 1 1-.559.147z" class="cls-17" transform="translate(-2005.875 -658.68)"/>
                <path id="Path_57103" d="M2188.972 682.3l-.206-.662a.29.29 0 0 1 .555-.172l.208.669a.29.29 0 0 1-.554.172z" class="cls-17" transform="translate(-2000.609 -640.8)"/>
                <path id="Path_57104" d="M2182.234 662.462l-.234-.653a.292.292 0 0 1 .549-.2l.236.66a.291.291 0 0 1-.549.2z" class="cls-17" transform="translate(-1994.59 -623.159)"/>
                <path id="Path_57105" d="M2174.674 642.922l-.26-.643a.293.293 0 0 1 .543-.22l.263.65a.292.292 0 1 1-.542.219z" class="cls-17" transform="translate(-1987.841 -605.784)"/>
                <path id="Path_57106" d="M2166.318 623.709l-.287-.632a.294.294 0 1 1 .535-.243l.289.638a.294.294 0 0 1-.535.242z" class="cls-17" transform="translate(-1980.385 -588.701)"/>
                <path id="Path_57107" d="M2157.191 604.848l-.312-.62a.3.3 0 1 1 .527-.265l.314.626a.295.295 0 1 1-.527.265z" class="cls-17" transform="translate(-1972.243 -571.932)"/>
                <path id="Path_57108" d="M2147.321 586.368l-.336-.607a.3.3 0 1 1 .518-.287l.339.613a.3.3 0 1 1-.518.286z" class="cls-17" transform="translate(-1963.44 -555.503)"/>
                <path id="Path_57109" d="M2136.73 568.291l-.36-.593a.3.3 0 0 1 .509-.309l.363.6a.3.3 0 0 1-.509.308z" class="cls-17" transform="translate(-1953.998 -539.432)"/>
                <path id="Path_57110" d="M2125.446 550.638l-.382-.579a.3.3 0 1 1 .5-.329l.386.585a.3.3 0 1 1-.5.328z" class="cls-17" transform="translate(-1943.94 -523.741)"/>
                <path id="Path_57111" d="M2113.494 533.43l-.4-.564a.3.3 0 0 1 .488-.349l.407.57a.3.3 0 1 1-.487.349z" class="cls-17" transform="translate(-1933.288 -508.444)"/>
                <path id="Path_57112" d="M2100.9 516.685l-.425-.548a.3.3 0 0 1 .476-.369l.429.554a.3.3 0 1 1-.476.368z" class="cls-17" transform="translate(-1922.065 -493.561)"/>
                <path id="Path_57113" d="M2087.685 500.422l-.446-.532a.3.3 0 1 1 .463-.388l.449.538a.3.3 0 0 1-.463.387z" class="cls-17" transform="translate(-1910.293 -479.107)"/>
                <path id="Path_57114" d="M2073.884 484.657l-.465-.515a.3.3 0 1 1 .451-.406l.468.521a.3.3 0 1 1-.451.405z" class="cls-17" transform="translate(-1897.999 -465.097)"/>
                <path id="Path_57115" d="M2059.529 469.394l-.482-.5a.3.3 0 1 1 .438-.423l.486.5a.3.3 0 0 1-.438.423z" class="cls-17" transform="translate(-1885.213 -451.532)"/>
                <path id="Path_57116" d="M2044.655 454.637l-.5-.482a.306.306 0 1 1 .425-.44l.5.487a.305.305 0 0 1-.425.439z" class="cls-17" transform="translate(-1871.967 -438.419)"/>
                <path id="Path_57117" d="M2029.292 440.388l-.515-.465a.307.307 0 0 1 .412-.456l.519.47a.307.307 0 1 1-.411.455z" class="cls-17" transform="translate(-1858.288 -425.758)"/>
                <path id="Path_57118" d="M2013.473 426.647l-.53-.448a.308.308 0 0 1 .4-.471l.534.453a.308.308 0 1 1-.4.469z" class="cls-17" transform="translate(-1844.203 -413.549)"/>
                <path id="Path_57119" d="M1997.223 413.417l-.544-.432a.309.309 0 0 1 .385-.485l.548.436a.309.309 0 0 1-.385.484z" class="cls-17" transform="translate(-1829.736 -401.794)"/>
                <path id="Path_57120" d="M1980.57 400.7l-.557-.415a.311.311 0 1 1 .371-.5l.561.419a.31.31 0 0 1-.371.5z" class="cls-17" transform="translate(-1814.911 -390.493)"/>
                <path id="Path_57121" d="M1963.538 388.49l-.569-.4a.312.312 0 0 1 .357-.511l.573.4a.311.311 0 1 1-.357.51z" class="cls-17" transform="translate(-1799.75 -379.648)"/>
                <path id="Path_57122" d="M1946.15 376.793l-.581-.381a.313.313 0 0 1 .343-.523l.585.384a.313.313 0 1 1-.343.522z" class="cls-17" transform="translate(-1784.273 -369.257)"/>
                <path id="Path_57123" d="M1928.428 365.609l-.592-.364a.314.314 0 0 1 .329-.535l.6.367a.314.314 0 1 1-.329.534z" class="cls-17" transform="translate(-1768.5 -359.323)"/>
                <path id="Path_57124" d="M1910.392 354.939l-.6-.347a.315.315 0 0 1 .315-.546l.606.35a.315.315 0 1 1-.315.546z" class="cls-17" transform="translate(-1752.448 -349.845)"/>
                <path id="Path_57125" d="M1892.062 344.783l-.611-.33a.316.316 0 1 1 .3-.557l.615.333a.316.316 0 1 1-.3.556z" class="cls-17" transform="translate(-1736.136 -340.826)"/>
                <path id="Path_57126" d="M1873.456 335.144l-.62-.312a.318.318 0 1 1 .286-.567l.625.315a.317.317 0 0 1-.286.566z" class="cls-17" transform="translate(-1719.579 -332.265)"/>
                <path id="Path_57127" d="M1854.591 326.021l-.629-.3a.319.319 0 1 1 .271-.577l.633.3a.318.318 0 0 1-.271.576z" class="cls-17" transform="translate(-1702.791 -324.164)"/>
                <path id="Path_57128" d="M1835.485 317.419l-.636-.278a.32.32 0 1 1 .256-.587l.641.281a.32.32 0 0 1-.257.586z" class="cls-17" transform="translate(-1685.789 -316.526)"/>
            </g>
        </g>
        <g id="Group_58255" transform="translate(112.161 212.254)">
            <path id="Path_57129" fill="#5882ac" d="M494.783 1213.995h-39.655c-2.358 0-4.257 1.653-4.257 3.624v30.987h46.68a1.413 1.413 0 0 0 1.469-1.428v-29.559c0-1.971-1.879-3.624-4.237-3.624z" transform="translate(-443.69 -1213.995)"/>
            <path id="Path_57130" fill="#839eb9" d="M430 1213.995h-39.65a3.958 3.958 0 0 0-4.219 3.624v29.559a1.4 1.4 0 0 0 1.45 1.428h45.2a1.477 1.477 0 0 0 1.5-1.472v-29.515c-.001-1.971-1.918-3.624-4.281-3.624z" transform="translate(-386.131 -1213.995)"/>
        </g>
        <g id="Group_58267" transform="translate(245.787 87.274)">
            <g id="Group_58262">
                <g id="Group_58257" transform="translate(7.843 24.796)">
                    <path id="Path_57131" fill="url(#linear-gradient-4)" d="M1746.462 862.479a.372.372 0 0 1 .01-.1 5.1 5.1 0 0 1 2.478-2.92l.958.075c.551 1.7.906 2.532.817 3 0 .013-.006.025-.01.038a22.733 22.733 0 0 1-4.253-.093z" transform="translate(-1737.038 -798.603)"/>
                    <path id="Path_57132" fill="url(#linear-gradient-5)" d="M1750.716 886.761a.415.415 0 0 1-.3.307 13.149 13.149 0 0 1-3.66-.052.349.349 0 0 1-.289-.347 22.733 22.733 0 0 0 4.249.092z" transform="translate(-1737.039 -822.793)"/>
                    <path id="Path_57133" fill="url(#linear-gradient-6)" d="M1761.784 846.024l.419 2.019a.33.33 0 0 0 .282.272 2.8 2.8 0 0 0 .65-.01.415.415 0 0 0 .329-.488l-.292-1.793z" transform="translate(-1750.66 -786.656)"/>
                    <path id="Path_57134" fill="url(#linear-gradient-7)" d="M1843.54 885.26a5.532 5.532 0 0 1-1.826-.261v.312a.2.2 0 0 0 .193.205l5.617-.036a.256.256 0 0 0 .206-.373c-.73.061-2.609.193-4.19.153z" transform="translate(-1821.724 -821.308)"/>
                    <path id="Path_57135" fill="url(#linear-gradient-8)" d="M1847.735 863.917a.251.251 0 0 0-.022-.042 7.156 7.156 0 0 0-4.256-2.672l-1.2-.038a5.746 5.746 0 0 0-.543 2.644 5.533 5.533 0 0 0 1.826.261c1.583.044 3.46-.092 4.195-.153z" transform="translate(-1821.726 -800.118)"/>
                    <path id="Path_57136" fill="url(#linear-gradient-9)" d="M1844.612 842.475c.013.089.177 1.446.241 1.972a.26.26 0 0 0 .22.235 2.74 2.74 0 0 0 .823-.013.354.354 0 0 0 .268-.356v-2.13z" transform="translate(-1824.301 -783.243)"/>
                    <path id="Path_57137" d="M1759.59 607.039s-1.916 17.034-.852 27.68a8.237 8.237 0 0 0 1.916-.213s1.991-16.655 2.635-21.421a.16.16 0 0 1 .316-.01c.795 4.01 3.917 19.733 4.288 21.218a2.654 2.654 0 0 0 1.916 0s-1.7-22.783-2.981-26.829z" class="cls-15" transform="translate(-1747.666 -574.181)"/>
                    <path id="Path_57138" d="M1734.22 424.833s8.091-1.277 14.479.426l-.426 6.6s-1.7 9.156-2.981 13.2c0 0-4.9.852-7.239-.426 0 0-1.916-11.5-2.981-13.2 0 .001-1.065-4.471-.852-6.6z" class="cls-3" transform="translate(-1726.129 -411.776)"/>
                    <path id="Path_57139" fill="url(#linear-gradient-10)" d="M1778.658 376.068l-.806 5.451s2.252 1.034 3.829-.044l-.339-3.847z" transform="translate(-1764.946 -368.83)"/>
                    <g id="Group_58256" transform="translate(11.79 2.36)">
                        <path id="Path_57140" fill="url(#linear-gradient-11)" d="M1770.626 349.425c-.025.046-.511 2.795-.81 4.5a1.194 1.194 0 0 0 1.106 1.4l.652.039a2.326 2.326 0 0 0 2.436-1.97l.472-3.082s-3.24-2.005-3.856-.887z" transform="translate(-1769.575 -347.2)"/>
                        <path id="Path_57141" fill="url(#linear-gradient-12)" d="M1773.4 335.205a.915.915 0 0 0-.064-1.343 1.29 1.29 0 0 0-1.539-.223.429.429 0 0 1-.506-.1.273.273 0 0 0-.255-.095.4.4 0 0 1-.454-.349 1.059 1.059 0 0 0-.935-.974c-1.253-.242-1.879 1.012-1.856 1.894s1.4 1.067 2.176.921a1.5 1.5 0 0 1 1.29.67.414.414 0 0 1 .082.355l-.2.852a3.928 3.928 0 0 0 .465.761.84.84 0 0 0 .452.29c.234-.435.887-.509 1.191-.519a.416.416 0 0 0 .3-.143.911.911 0 0 0-.1-1.425.414.414 0 0 1-.047-.572z" transform="translate(-1767.794 -332.092)"/>
                        <path id="Path_57142" fill="url(#linear-gradient-13)" d="M1804.227 378.669s.027-1.538.649-1.682 1.294.306.762 1.226c-.662 1.145-1.411.456-1.411.456z" transform="translate(-1800.186 -371.983)"/>
                    </g>
                    <path id="Path_57143" d="M1673.234 352.333s-18.283-4.976-9.2-17.775l.614.87s-2.735 8.668 6.325 9.492c-.004 0 2.343 6.052 2.261 7.413z" class="cls-3" transform="translate(-1661.501 -331.924)"/>
                    <path id="Path_57144" fill="url(#linear-gradient-14)" d="M1683.639 313.512s-.206-2.471 1.03-2.677 1.647 1.03 1.853 1.647-1.853 1.853-2.265 1.853-.618-.823-.618-.823z" transform="translate(-1681.172 -310.813)"/>
                    <path id="Path_57145" d="M1826.721 357.9s18.283-4.976 9.2-17.775l-.614.87s2.735 8.668-6.325 9.492c.005.003-2.342 6.055-2.261 7.413z" class="cls-3" transform="translate(-1808.393 -336.876)"/>
                    <path id="Path_57146" fill="url(#linear-gradient-15)" d="M1887.053 319.082s.206-2.471-1.03-2.677-1.647 1.03-1.853 1.647 1.853 1.853 2.265 1.853.618-.823.618-.823z" transform="translate(-1859.458 -315.764)"/>
                </g>
                <g id="Group_58258">
                    <path id="Path_57147" fill="url(#linear-gradient-16)" d="M1671.821 290.663l-2.053-.479-1.012-10.244 9.1 1.548z" transform="translate(-1660.108 -258.568)"/>
                    <path id="Path_57148" fill="url(#linear-gradient-17)" d="M1647.958 109.478c-.2.8-3.856 16.484 3.512 20.889s14.061-8.028 15.981-17.546z" transform="translate(-1640.655 -107.015)"/>
                    <path id="Rectangle_1283" fill="url(#linear-gradient-18)" d="M0 0H13.072V1.587H0z" transform="rotate(13.131 -136.199 33.221)"/>
                    <path id="Path_57149" fill="url(#linear-gradient-19)" d="M1639.457 369.189l-12.73-2.97 3.625-.977 6.286 1.467z" transform="translate(-1622.741 -334.409)"/>
                    <path id="Path_57150" fill="url(#linear-gradient-20)" d="M1638.2 87.3a1.314 1.314 0 0 0-1.539.853l-.281 1.207a1.145 1.145 0 0 0 1.037 1.3l22.1 3.917a1.3 1.3 0 0 0 1.538-.844l.322-1.378a1.135 1.135 0 0 0-1.039-1.292z" transform="translate(-1631.303 -87.274)"/>
                    <path id="Path_57151" fill="url(#linear-gradient-21)" d="M1729.82 249.426a1 1 0 0 1-.83-.992.925.925 0 0 1 1.113-.737c.108.014 7.612.949 9.241-2.9a1.737 1.737 0 0 0-.173-2.072 2.626 2.626 0 0 0-2.336-.308 1.2 1.2 0 0 0-.961 1.18.882.882 0 0 1-.991.854 1.064 1.064 0 0 1-1.074-.917 2.8 2.8 0 0 1 2.15-2.774 5.009 5.009 0 0 1 4.6.747 3.193 3.193 0 0 1 .735 4.006c-.911 2.15-3.2 3.509-6.623 3.929a20.642 20.642 0 0 1-4.733 0c-.038 0-.08-.007-.118-.016z" transform="translate(-1713.657 -223.512)"/>
                    <path id="Path_57152" fill="url(#linear-gradient-22)" d="M1599.358 209.079a1 1 0 0 0 1.183-.522.925.925 0 0 0-.672-1.153c-.1-.035-7.246-2.517-7.005-6.687.04-.7.26-1.583 1.072-1.782a2.625 2.625 0 0 1 2.231.758 1.2 1.2 0 0 1 .34 1.483.882.882 0 0 0 .511 1.2 1.063 1.063 0 0 0 1.369-.347 2.8 2.8 0 0 0-.7-3.439 5.009 5.009 0 0 0-4.456-1.366 3.194 3.194 0 0 0-2.432 3.267c-.135 2.332 1.318 4.563 4.2 6.454a20.649 20.649 0 0 0 4.243 2.1c.039.015.078.025.116.034z" transform="translate(-1590.791 -184.937)"/>
                    <path id="Path_57153" d="M1794.523 127.349h-.031l-1.973-.35a.175.175 0 1 1 .061-.345l1.973.35a.175.175 0 0 1-.03.347z" class="cls-39" transform="translate(-1770.014 -122.281)"/>
                    <path id="Path_57154" d="M1668.257 104.967a.158.158 0 0 1-.031 0l-11.789-2.09a.175.175 0 1 1 .061-.345l11.789 2.09a.175.175 0 0 1-.031.347z" class="cls-39" transform="translate(-1649.027 -100.835)"/>
                    <path id="Path_57155" d="M1669.132 167.375a.175.175 0 0 1-.059-.01c-2.053-.735-3.339-2.846-3.822-6.275a32.612 32.612 0 0 1 .1-8.122.175.175 0 0 1 .347.043c-.458 3.677-1.036 12.4 3.489 14.024a.175.175 0 0 1-.059.34z" class="cls-39" transform="translate(-1656.802 -145.545)"/>
                    <path id="Path_57156" d="M1670.237 131.917h-.029a.175.175 0 0 1-.144-.2c.081-.486.136-.763.139-.775a.175.175 0 1 1 .343.069s-.057.284-.137.763a.175.175 0 0 1-.172.143z" class="cls-39" transform="translate(-1661.268 -125.97)"/>
                </g>
                <path id="Path_57157" fill="url(#linear-gradient-23)" d="M1667.721 340.064s1.636-.725 1.426.491.229 2.1-.7 2.2-1.047-1.855-.726-2.691z" transform="translate(-1659.045 -311.833)"/>
                <g id="Group_58261" transform="translate(18.673 36.84)">
                    <g id="Group_58260">
                        <path id="Path_57158" fill="url(#linear-gradient-24)" d="M1760.885 419.949a.864.864 0 0 0-.71-.535c-.379-.056-1.067.017-1.04.532.08 1.527.57 5.387 3.413 7.356l.576-.578c-.393-.8-.735-1.625-1.079-2.446-.3-.712-.5-1.459-.748-2.189a5.448 5.448 0 0 1-.286-1.09 5.047 5.047 0 0 0-.107-1q-.004-.024-.019-.05z" transform="translate(-1759.135 -419.398)"/>
                        <path id="Path_57159" fill="url(#linear-gradient-25)" d="M1801.441 419.949a.864.864 0 0 1 .71-.535c.379-.056 1.067.017 1.04.532-.08 1.527-.57 5.387-3.414 7.356l-.576-.578c.393-.8.735-1.625 1.079-2.446.3-.712.5-1.459.748-2.189a5.448 5.448 0 0 0 .286-1.09 5.056 5.056 0 0 1 .107-1l.02-.05z" transform="translate(-1794.757 -419.398)"/>
                        <g id="Group_58259" transform="translate(1.609 5.571)">
                            <circle id="Ellipse_1000" cx="2.517" cy="2.517" r="2.517" fill="url(#linear-gradient-26)" transform="rotate(-7.031 5.013 .308)"/>
                            <circle id="Ellipse_1001" cx="1.85" cy="1.85" r="1.85" class="cls-44" transform="rotate(-2.613 24.29 -19.582)"/>
                        </g>
                    </g>
                    <path id="Path_57160" d="M1779.29 488.914a.059.059 0 0 1-.059-.054 2.611 2.611 0 0 1 .084-.962.059.059 0 1 1 .113.033 2.5 2.5 0 0 0-.08.919.059.059 0 0 1-.054.064z" class="cls-44" transform="translate(-1776.992 -480.262)"/>
                    <path id="Path_57161" d="M1781.863 475.652a.059.059 0 0 1-.051-.089 2.423 2.423 0 0 1 1.565-1.063.059.059 0 0 1 .02.116 2.347 2.347 0 0 0-1.484 1.006.058.058 0 0 1-.05.03z" class="cls-44" transform="translate(-1779.29 -468.387)"/>
                </g>
            </g>
            <g id="Group_58266" transform="translate(8.211 7.006)">
                <g id="Group_58263" transform="translate(1.26)">
                    <path id="Path_57162" d="M1676.51 156.633a12.051 12.051 0 0 1-.132-5.179l.054-.2.245-.1a10.837 10.837 0 0 1 11.459 2.372l.122.122.146.148-.032.206a12.009 12.009 0 0 1-2.195 4.631l-.669-.48a12.253 12.253 0 0 0 2.008-4.081 10.013 10.013 0 0 0-10.383-2.208 12.3 12.3 0 0 0 .184 4.6z" class="cls-45" transform="translate(-1676.172 -150.438)"/>
                </g>
                <g id="Group_58264" transform="translate(0 5.756)">
                    <path id="Path_57163" d="M1699.263 211.939l-.127-.012-.04.444.118.011c.2.019.3-.048.323-.213.015-.135-.076-.211-.274-.23z" class="cls-45" transform="translate(-1695.294 -210.862)"/>
                    <path id="Path_57164" d="M1681.49 211.418a.162.162 0 0 0 .07-.14c0-.111-.088-.168-.271-.169h-.182v.354h.191a.335.335 0 0 0 .192-.045z" class="cls-45" transform="translate(-1679.3 -210.134)"/>
                    <path id="Path_57165" d="M1717.635 214.644l-.021-.291c-.008-.119-.012-.2-.012-.254-.017.043-.049.115-.095.214s-.124.257-.244.5a.063.063 0 0 0 0 .058.07.07 0 0 0 .05.034l.256.05a.07.07 0 0 0 .059-.013.063.063 0 0 0 .023-.053l-.016-.245z" class="cls-45" transform="translate(-1711.44 -212.793)"/>
                    <path id="Path_57166" d="M1681.519 217.8a.332.332 0 0 0-.2-.061h-.2v.407h.212c.172 0 .26-.059.263-.2a.165.165 0 0 0-.075-.146z" class="cls-45" transform="translate(-1679.304 -216.025)"/>
                    <path id="Path_57167" d="M1754.838 226.432l-.172-.071-.428 1.045.129.053a.466.466 0 0 0 .4.013.685.685 0 0 0 .286-.352.606.606 0 0 0 .059-.421.445.445 0 0 0-.274-.267z" class="cls-45" transform="translate(-1744.319 -223.695)"/>
                    <path id="Path_57168" d="M1677.583 205.114a.267.267 0 0 0-.139-.152 28.2 28.2 0 0 0-12.363-2.629.267.267 0 0 0-.263.274l.064 2.444a.267.267 0 0 0 .271.26 25.219 25.219 0 0 1 11.013 2.342.267.267 0 0 0 .354-.127l1.053-2.207a.267.267 0 0 0 .01-.205zm-10.137-.382a.949.949 0 0 1-.564.135h-.714c-.037 0-.074-.015-.075-.052l-.048-1.849c0-.037.039-.054.079-.055q.346-.008.692-.005a1.337 1.337 0 0 1 .658.128.384.384 0 0 1 .2.375.456.456 0 0 1-.106.28.391.391 0 0 1-.22.143c-.008 0-.005.012-.007.019a.443.443 0 0 1 .269.169.462.462 0 0 1 .073.3.508.508 0 0 1-.237.412zm2.188.32a.062.062 0 0 1-.063.02q-.222-.031-.444-.058a.062.062 0 0 1-.055-.033q-.154-.345-.32-.687a.07.07 0 0 0-.056-.039h-.032a.08.08 0 0 0-.087.059l-.053.586c0 .037-.023.052-.06.048q-.2-.018-.405-.032c-.037 0-.08-.022-.078-.059l.118-1.846c0-.037.052-.049.092-.047q.321.022.641.053c.593.058.861.291.807.676a.585.585 0 0 1-.421.477q.22.407.421.819a.06.06 0 0 1-.005.062zm1.988.394a.062.062 0 0 1-.058.008q-.217-.053-.434-.1a.066.066 0 0 1-.053-.061l-.014-.281a.079.079 0 0 0-.052-.073q-.272-.057-.545-.107a.075.075 0 0 0-.075.044l-.123.264a.062.062 0 0 1-.071.031q-.221-.038-.443-.072a.061.061 0 0 1-.051-.028.052.052 0 0 1 0-.053q.437-.873.926-1.73a.07.07 0 0 1 .076-.029q.335.06.668.131a.069.069 0 0 1 .059.055q.135.976.214 1.949a.055.055 0 0 1-.024.051zm2.7-1.151l-.622 1.742c-.012.035-.05.039-.085.027q-.283-.1-.569-.192c-.024-.008-.046-.013-.051-.037q-.135-.749-.317-1.5h-.013c-.039.207-.074.362-.106.474l-.225.8c-.01.035-.042.043-.078.034l-.332-.09c-.036-.009-.072-.036-.063-.072l.461-1.791c.009-.036.057-.04.1-.029q.316.082.63.174c.026.008.05.016.056.04q.183.747.32 1.493h.008c.05-.191.086-.338.124-.453l.261-.788c.012-.035.053-.038.091-.025q.18.06.359.124c.038.007.068.034.055.069zm1.766 1.69a1.011 1.011 0 0 1-.58.565 1.133 1.133 0 0 1-.822-.074q-.268-.112-.539-.216c-.035-.013-.062-.041-.049-.076l.658-1.729c.013-.034.055-.035.093-.021q.319.123.635.255a1.156 1.156 0 0 1 .647.544.85.85 0 0 1-.038.751z" class="cls-45" transform="translate(-1664.817 -202.329)"/>
                </g>
                <g id="Group_58265" transform="translate(1.931 8.337)">
                    <path id="Path_57169" d="M1685.345 230.884a.719.719 0 0 1-.455-.317c-1.563-2.467-2.385-4.04-2.666-4.6l.737-.368c.272.544 1.061 2.055 2.565 4.436a22.613 22.613 0 0 0 3.781-3.154l.6.568a23.53 23.53 0 0 1-4.014 3.333.72.72 0 0 1-.548.102z" class="cls-45" transform="translate(-1682.224 -225.597)"/>
                </g>
            </g>
        </g>
    </g>
</svg>
