<svg xmlns="http://www.w3.org/2000/svg" width="103" height="103" viewBox="0 0 103 103">
    <defs>
        <style>
            .cls-2{fill:#213861}
        </style>
    </defs>
    <g id="Group_211" transform="translate(-40 -135)">
        <path id="Path_23" fill="#213861" d="M51.5 0A51.5 51.5 0 1 1 0 51.5 51.5 51.5 0 0 1 51.5 0z" opacity="0.05" transform="translate(40 135)"/>
        <g id="avatar" transform="translate(73.456 164.973)">
            <g id="Group_208">
                <path id="Path_21" d="M146.024 22.673h.279a8.041 8.041 0 0 0 6.143-2.658c3.355-3.782 2.8-10.265 2.736-10.884-.218-4.644-2.414-6.866-4.226-7.9A9.688 9.688 0 0 0 146.268 0h-.148a9.7 9.7 0 0 0-4.688 1.194c-1.83 1.037-4.061 3.259-4.278 7.938-.061.619-.619 7.1 2.736 10.884a8.009 8.009 0 0 0 6.134 2.657zM139.48 9.35c0-.026.009-.052.009-.07.288-6.248 4.723-6.919 6.622-6.919h.1c2.353.052 6.352 1.011 6.623 6.919a.17.17 0 0 0 .009.07c.009.061.619 5.986-2.152 9.106a5.711 5.711 0 0 1-4.488 1.865h-.087a5.693 5.693 0 0 1-4.479-1.865c-2.759-3.102-2.166-9.056-2.157-9.106z" class="cls-2" transform="translate(-128.28)"/>
                <path id="Path_22" d="M71.863 270.08v-.026c0-.07-.009-.139-.009-.218-.052-1.725-.166-5.76-3.947-7.05l-.087-.026a25.141 25.141 0 0 1-7.232-3.294 1.176 1.176 0 0 0-1.351 1.926 27.137 27.137 0 0 0 7.956 3.634c2.03.723 2.257 2.893 2.318 4.88a1.748 1.748 0 0 0 .009.218 15.818 15.818 0 0 1-.183 2.693 32.069 32.069 0 0 1-15.362 3.573 32.253 32.253 0 0 1-15.375-3.582 14.974 14.974 0 0 1-.183-2.693c0-.07.009-.139.009-.218.061-1.987.288-4.156 2.318-4.88a27.39 27.39 0 0 0 7.956-3.634 1.176 1.176 0 0 0-1.351-1.926 24.865 24.865 0 0 1-7.232 3.294c-.035.009-.061.017-.087.026-3.782 1.3-3.9 5.333-3.947 7.05a1.749 1.749 0 0 1-.009.218v.026a13.362 13.362 0 0 0 .444 3.947 1.118 1.118 0 0 0 .453.549c.261.174 6.527 4.165 17.009 4.165s16.748-4 17.009-4.165a1.166 1.166 0 0 0 .453-.549 14.019 14.019 0 0 0 .421-3.938z" class="cls-2" transform="translate(-36.073 -236.654)"/>
            </g>
        </g>
    </g>
</svg>
