<svg width="25" height="25" viewBox="0 0 25 25" fill="none" xmlns="http://www.w3.org/2000/svg">
<path d="M21.2383 3.125H3.23828C2.13828 3.125 1.23828 4.0625 1.23828 5.20833V17.7083C1.23828 18.8542 2.13828 19.7917 3.23828 19.7917H8.23828V21.875H16.2383V19.7917H21.2383C22.3383 19.7917 23.2283 18.8542 23.2283 17.7083L23.2383 5.20833C23.2383 4.0625 22.3383 3.125 21.2383 3.125ZM21.2383 17.7083H3.23828V5.20833H21.2383V17.7083ZM19.2383 8.33333H8.23828V10.4167H19.2383V8.33333ZM19.2383 12.5H8.23828V14.5833H19.2383V12.5ZM7.23828 8.33333H5.23828V10.4167H7.23828V8.33333ZM7.23828 12.5H5.23828V14.5833H7.23828V12.5Z" fill="white"/>
</svg>
