<svg width="23" height="26" viewBox="0 0 23 26" fill="none" xmlns="http://www.w3.org/2000/svg">
<path d="M13.9883 0H2.98828C1.47578 0 0.238281 1.17 0.238281 2.6V23.4C0.238281 24.83 1.47578 26 2.98828 26H19.4883C21.0008 26 22.2383 24.83 22.2383 23.4V7.8L13.9883 0ZM15.3633 11.7H9.86328V13H13.9883C14.7445 13 15.3633 13.585 15.3633 14.3V18.2C15.3633 18.915 14.7445 19.5 13.9883 19.5H12.6133V20.8H9.86328V19.5H7.11328V16.9H12.6133V15.6H8.48828C7.73203 15.6 7.11328 15.015 7.11328 14.3V10.4C7.11328 9.685 7.73203 9.1 8.48828 9.1H9.86328V7.8H12.6133V9.1H15.3633V11.7Z" fill="white"/>
</svg>
