<svg width="23" height="23" viewBox="0 0 23 23" fill="none" xmlns="http://www.w3.org/2000/svg">
<path d="M19.6491 12.626C19.6962 12.2667 19.7198 11.8953 19.7198 11.5C19.7198 11.1167 19.6962 10.7333 19.6373 10.374L22.0286 8.48125C22.2406 8.31354 22.2995 7.9901 22.17 7.75052L19.9082 3.77344C19.7669 3.5099 19.4724 3.42604 19.2132 3.5099L16.3978 4.6599C15.8089 4.20469 15.1845 3.82135 14.4895 3.53385L14.0654 0.491146C14.0183 0.203646 13.7827 0 13.5 0H8.97655C8.69384 0 8.47002 0.203646 8.4229 0.491146L7.99883 3.53385C7.30382 3.82135 6.66771 4.21667 6.0905 4.6599L3.27512 3.5099C3.01596 3.41406 2.72147 3.5099 2.58011 3.77344L0.330164 7.75052C0.188806 8.00208 0.235926 8.31354 0.471522 8.48125L2.86283 10.374C2.80393 10.7333 2.75681 11.1286 2.75681 11.5C2.75681 11.8714 2.78037 12.2667 2.83927 12.626L0.447962 14.5188C0.235926 14.6865 0.177027 15.0099 0.306605 15.2495L2.56833 19.2266C2.70969 19.4901 3.00418 19.574 3.26334 19.4901L6.07872 18.3401C6.66771 18.7953 7.29204 19.1786 7.98705 19.4661L8.41112 22.5089C8.47002 22.7964 8.69384 23 8.97655 23H13.5C13.7827 23 14.0183 22.7964 14.0537 22.5089L14.4777 19.4661C15.1727 19.1786 15.8089 18.7953 16.3861 18.3401L19.2014 19.4901C19.4606 19.5859 19.7551 19.4901 19.8965 19.2266L22.1582 15.2495C22.2995 14.9859 22.2406 14.6865 22.0168 14.5188L19.6491 12.626ZM11.2383 15.8125C8.90588 15.8125 6.99754 13.8719 6.99754 11.5C6.99754 9.12813 8.90588 7.1875 11.2383 7.1875C13.5707 7.1875 15.479 9.12813 15.479 11.5C15.479 13.8719 13.5707 15.8125 11.2383 15.8125Z" fill="#FDFDFF"/>
</svg>
