<svg width="29" height="29" viewBox="0 0 29 29" fill="none" xmlns="http://www.w3.org/2000/svg">
<path d="M24.7386 9.66675C23.0469 9.66675 22.1019 11.4067 22.4869 12.6997L18.3453 17.0013C17.9953 16.8926 17.4819 16.8926 17.1319 17.0013L14.1569 13.9201C14.5536 12.6272 13.6086 10.8751 11.9053 10.8751C10.2136 10.8751 9.25694 12.6151 9.65361 13.9201L4.33361 19.418C3.08527 19.0192 1.40527 19.998 1.40527 21.7501C1.40527 23.0792 2.45527 24.1667 3.73861 24.1667C5.43027 24.1667 6.37527 22.4267 5.99027 21.1338L11.2986 15.6238C11.6486 15.7326 12.1619 15.7326 12.5119 15.6238L15.4869 18.7051C15.0903 19.998 16.0353 21.7501 17.7386 21.7501C19.4303 21.7501 20.3869 20.0101 19.9903 18.7051L24.1436 14.4155C25.3919 14.8142 27.0719 13.8355 27.0719 12.0834C27.0719 10.7542 26.0219 9.66675 24.7386 9.66675Z" fill="white"/>
<path d="M17.7383 10.875L18.8349 8.37375L21.2383 7.25L18.8349 6.12625L17.7383 3.625L16.6649 6.12625L14.2383 7.25L16.6649 8.37375L17.7383 10.875Z" fill="white"/>
<path d="M4.32194 13.2917L4.90527 10.875L7.23861 10.2708L4.90527 9.66667L4.32194 7.25L3.73861 9.66667L1.40527 10.2708L3.73861 10.875L4.32194 13.2917Z" fill="white"/>
</svg>
