<?xml version="1.0" encoding="UTF-8" standalone="no"?>
<!-- Created with Inkscape (http://www.inkscape.org/) -->

<svg
   width="1200"
   height="400"
   viewBox="0 0 317.5 105.83333"
   version="1.1"
   id="svg5"
   inkscape:export-filename="R:\h4.png"
   inkscape:export-xdpi="96"
   inkscape:export-ydpi="96"
   inkscape:version="1.1 (c68e22c387, 2021-05-23)"
   sodipodi:docname="h11.svg"
   xmlns:inkscape="http://www.inkscape.org/namespaces/inkscape"
   xmlns:sodipodi="http://sodipodi.sourceforge.net/DTD/sodipodi-0.dtd"
   xmlns="http://www.w3.org/2000/svg"
   xmlns:svg="http://www.w3.org/2000/svg">
  <sodipodi:namedview
     id="namedview7"
     pagecolor="#ffffff"
     bordercolor="#666666"
     borderopacity="1.0"
     inkscape:pageshadow="2"
     inkscape:pageopacity="0.0"
     inkscape:pagecheckerboard="0"
     inkscape:document-units="mm"
     showgrid="false"
     units="px"
     inkscape:zoom="0.70710678"
     inkscape:cx="700.74282"
     inkscape:cy="191.62594"
     inkscape:window-width="1920"
     inkscape:window-height="1057"
     inkscape:window-x="-8"
     inkscape:window-y="-8"
     inkscape:window-maximized="1"
     inkscape:current-layer="text1677" />
  <defs
     id="defs2" />
  <g
     inkscape:groupmode="layer"
     id="layer3"
     inkscape:label="Layer 2"
     style="display:inline">
    <g
       id="g835"
       transform="matrix(0.07107043,3.0826458e-4,-3.0718829e-4,0.07131944,12.461394,-5.7273795)"
       style="display:inline;fill:#8fff93;fill-opacity:1">
      <path
         id="p12967oIC7"
         d="m 533.5357,963.06983 c -50.79012,-22.30633 -94.84375,-57.94857 -118.38093,-87.69047 -60,-81 -103.03492,-136.67222 -106.03492,-227.67222 -7.94841,-60.81032 -12.27618,-73.18968 31.72382,-119.18968 22.33742,-18.21467 50.77678,-26.71433 75.66636,-33.09151 33.19961,-8.50637 85.56807,0.47736 109.61382,18.73214 16.17705,12.2811 37.86449,41.04132 46.66356,60.55817 6.26056,10.38198 13.87507,50.72733 20.97022,51.59507 4,0 9.24237,-3.31133 16.24237,-12.31133 16.4527,-19.56537 29.67701,-35.57004 52.76059,-49.95469 28.82842,-17.96459 68.37325,-32.0708 95.02921,-32.0708 40,0 61.34829,8.45644 83.34829,35.45644 48.86208,40.4711 37.96584,107.51081 6.56818,158.2729 -13.57679,21.95025 -45.3406,62.56118 -60.22373,82.60725 -60.90466,78.72376 -156.60867,186.43002 -253.94684,154.75873 z"
         sodipodi:nodetypes="ccccsscccsscscc"
         style="fill:#8fff93;fill-opacity:1" />
    </g>
    <g
       aria-label="HungerLink"
       id="text1677"
       style="font-size:42.3333px;line-height:1.25;font-family:Unna;-inkscape-font-specification:'Unna, Normal';fill:#754336;stroke-width:0.264583">
      <path
         d="m 96.79533,74.934741 1.650999,0.08467 q 0.804333,0 0.804333,-0.931333 V 52.963758 q 0,-0.931333 -0.804333,-0.889 l -1.650999,0.08467 v -1.269999 h 9.31333 v 1.269999 l -2.07434,-0.08467 h -0.0847 q -0.381,0 -0.59267,0.254 -0.16933,0.254 -0.16933,0.635 v 9.567326 h 12.44599 v -9.567326 q 0,-0.931333 -0.80433,-0.889 l -2.07434,0.08467 v -1.269999 h 9.271 v 1.269999 l -1.651,-0.08467 h -0.0847 q -0.33866,0 -0.55033,0.254 -0.16933,0.254 -0.16933,0.635 v 21.124317 q 0,0.931333 0.80433,0.931333 l 1.651,-0.08467 v 1.227666 h -9.271 v -1.227666 l 2.07434,0.08467 q 0.80433,0 0.80433,-0.931333 V 63.716416 h -12.44599 v 10.371659 q 0,0.931333 0.84666,0.931333 l 2.07434,-0.08467 v 1.227666 h -9.31333 z"
         id="path1988" />
      <path
         d="m 144.84359,75.061741 v 1.100666 h -6.01133 q 0.21167,-0.508 0.21167,-3.047998 v -0.550333 q -0.84667,1.947332 -2.58233,3.005665 -1.69333,1.015999 -4.064,1.015999 -2.83633,0 -4.10633,-1.566332 -1.22767,-1.566332 -1.22767,-5.12233 v -9.651992 q 0,-0.846666 -0.55033,-0.846666 l -1.524,0.08467 V 58.38242 h 5.715 v 11.514658 q 0,2.878665 0.508,4.106331 0.508,1.185332 2.07433,1.185332 2.413,0 3.97933,-1.820332 1.56633,-1.862665 1.778,-5.079996 l 0.0423,-8.000994 q 0,-0.888999 -0.508,-0.888999 l -1.98966,0.08467 V 58.38242 h 6.18066 v 15.959655 q 0,0.804333 0.55033,0.804333 z m -5.75733,-8.21266 v -0.254 z"
         id="path1990" />
      <path
         d="m 167.7035,75.061741 v 1.100666 h -8.25499 v -1.100666 l 1.94733,0.08467 q 0.55033,-0.127 0.55033,-0.804333 v -9.609659 q 0,-2.031999 -0.21166,-3.132665 -0.16934,-1.100666 -0.762,-1.693332 -0.59267,-0.592666 -1.86267,-0.592666 -2.413,0 -3.937,2.074332 -1.48166,2.031998 -1.60866,5.503329 v 7.450661 q 0,0.804333 0.55033,0.804333 l 1.94733,-0.08467 v 1.100666 h -8.25499 v -1.100666 l 1.56633,0.08467 q 0.55033,-0.127 0.55033,-0.804333 V 60.245086 q 0,-0.719667 -0.55033,-0.846666 l -1.56633,0.08467 V 58.38242 h 5.96899 q -0.21166,0.635 -0.21166,1.481666 v 2.328331 q 0.889,-1.989665 2.54,-3.090331 1.651,-1.142999 3.80999,-1.142999 3.00567,0 4.318,1.439333 1.35467,1.396998 1.35467,4.571996 v 10.371659 q 0,0.804333 0.55033,0.804333 z"
         id="path1992" />
      <path
         d="m 185.06014,57.239421 q -0.42333,0 -1.35466,0.465666 -0.889,0.465667 -1.43933,1.143 3.13266,1.566332 3.13266,5.460995 0,2.793998 -1.98967,4.571997 -1.98966,1.735665 -5.24932,1.735665 -1.778,0 -3.302,-0.634999 -1.43933,0.888999 -1.43933,1.862665 0,1.566332 2.37066,1.566332 h 5.63033 q 3.13266,0 4.699,1.354666 1.60866,1.354666 1.60866,4.529663 0,2.158999 -1.27,3.809997 -1.22766,1.650999 -3.51366,2.539998 -2.286,0.889 -5.29166,0.889 -3.72534,0 -5.75733,-1.439332 -1.98967,-1.439333 -1.98967,-4.190997 0,-1.693332 0.93133,-2.878665 0.97367,-1.185332 2.87867,-2.074332 -3.13267,-0.592666 -3.13267,-2.793997 0,-0.804333 0.42334,-1.354666 0.46566,-0.592666 1.56633,-1.481666 l 1.143,-0.931332 q -1.27,-0.804333 -2.032,-2.074332 -0.71967,-1.312332 -0.71967,-3.005665 0,-2.836331 1.98967,-4.571996 2.032,-1.777999 5.207,-1.777999 1.77799,0 3.21733,0.508 1.05833,-1.439332 2.58233,-2.539998 1.56633,-1.142999 2.413,-1.142999 1.05833,0 1.48166,0.592666 0.46567,0.550333 0.46567,1.269999 0,0.550333 -0.381,1.058332 -0.381,0.508 -0.97367,0.508 -0.508,0 -0.762,-0.127 -0.254,-0.169333 -0.55033,-0.507999 -0.254,-0.338667 -0.59267,-0.338667 z m -6.90032,12.403657 q 1.98966,0 2.70933,-1.185332 0.762,-1.227666 0.762,-4.148664 0,-2.836331 -0.762,-4.021663 -0.762,-1.185333 -2.70933,-1.185333 -1.94734,0 -2.70934,1.143 -0.71966,1.100665 -0.71966,4.063996 0,2.074332 0.29633,3.217331 0.29633,1.143 1.016,1.650999 0.762,0.465666 2.11667,0.465666 z m -1.60867,6.519329 q -1.22767,0 -2.286,0.677333 -1.05833,0.677333 -1.69333,1.735665 -0.59267,1.100666 -0.59267,2.243665 0,2.074332 1.397,3.344331 1.43933,1.269999 4.23333,1.269999 3.51367,0 5.41866,-1.608665 1.905,-1.608666 1.905,-4.233331 0,-1.735665 -1.016,-2.582331 -0.97366,-0.846666 -3.13266,-0.846666 z"
         id="path1994" />
      <path
         d="m 198.01409,57.959087 q 3.34433,0 5.37633,2.158999 2.07433,2.116665 2.159,5.841995 v 1.227666 h -12.19199 q 0,3.85233 1.31233,5.926662 1.35466,2.031999 4.02166,2.074332 2.11667,0 3.556,-1.058333 1.48166,-1.058332 2.159,-2.624664 l 0.97366,0.719666 q -0.84666,2.031998 -2.87866,3.217331 -1.98967,1.142999 -4.40266,1.142999 -8.59366,0 -8.59366,-9.270993 0,-4.61433 2.15899,-6.984995 2.159,-2.370665 6.35,-2.370665 z m 0,1.142999 q -2.37067,0 -3.51366,1.947332 -1.10067,1.947332 -1.10067,5.079996 h 7.70466 q 0.42333,0 0.635,-0.296333 0.21167,-0.296333 0.21167,-1.100665 0,-2.878665 -0.93134,-4.233331 -0.889,-1.396999 -3.00566,-1.396999 z"
         id="path1996" />
      <path
         d="m 219.18072,57.959087 q 1.651,0 2.53999,0.931333 0.93134,0.931333 0.93134,2.370665 0,0.973666 -0.508,1.481665 -0.46567,0.508 -1.27,0.508 -0.59267,0 -1.10067,-0.296333 -0.46566,-0.338667 -0.46566,-1.015999 0,-0.381 0.16933,-0.973666 0.16933,-0.592667 0.16933,-0.931333 0,-0.338666 -0.254,-0.592666 -0.21166,-0.296333 -0.71966,-0.296333 -1.31234,0 -2.286,1.269999 -0.97367,1.227665 -1.524,3.090331 -0.55033,1.820332 -0.635,3.513664 v 7.323661 q 0,0.804333 0.55033,0.804333 l 2.58233,-0.08467 v 1.100666 h -8.67832 v -1.100666 l 1.35466,0.08467 q 0.55034,0 0.55034,-0.804333 V 60.245086 q 0,-0.846666 -0.55034,-0.846666 l -1.524,0.08467 V 58.38242 h 5.969 q -0.0847,0.254 -0.16933,0.846666 -0.0847,0.550333 -0.0847,1.100666 v 2.074332 q 0.97367,-2.370665 2.159,-3.386664 1.22766,-1.058333 2.794,-1.058333 z"
         id="path1998" />
      <path
         d="m 225.36136,74.892408 1.82033,0.127 q 0.635,0 0.635,-0.931333 V 52.963758 q 0,-0.381 -0.254,-0.635 -0.21167,-0.296333 -0.55034,-0.254 l -1.65099,0.08467 v -1.269999 h 9.31332 v 1.269999 l -2.07433,-0.08467 h -0.0847 q -0.33866,0 -0.55033,0.254 -0.21167,0.254 -0.21167,0.635 v 21.462984 q 0,0.550332 0.508,0.550332 h 4.78367 q 2.92099,0 4.40266,-1.523998 1.524,-1.566333 1.524,-4.529664 h 1.10066 v 7.365995 q -0.762,-0.127 -5.24933,-0.127 h -13.46198 z"
         id="path2000" />
      <path
         d="m 250.12633,48.942094 q 1.016,0 1.651,0.550333 0.67733,0.550333 0.67733,1.439332 0,0.973666 -0.635,1.523999 -0.635,0.508 -1.69333,0.508 -1.016,0 -1.651,-0.508 -0.635,-0.550333 -0.635,-1.523999 0,-0.888999 0.635,-1.439332 0.635,-0.550333 1.651,-0.550333 z m 2.11666,25.399981 q 0,0.804333 0.55034,0.804333 l 1.52399,-0.08467 v 1.100666 h -7.83166 v -1.100666 l 1.56634,0.08467 q 0.55033,0 0.55033,-0.804333 V 60.245086 q 0,-0.719667 -0.508,-0.846666 l -1.56633,0.08467 V 58.38242 h 5.71499 z"
         id="path2002" />
      <path
         d="m 277.17728,75.061741 v 1.100666 h -8.25499 v -1.100666 l 1.94733,0.08467 q 0.55033,-0.127 0.55033,-0.804333 v -9.609659 q 0,-2.031999 -0.21166,-3.132665 -0.16934,-1.100666 -0.762,-1.693332 -0.59267,-0.592666 -1.86267,-0.592666 -2.413,0 -3.93699,2.074332 -1.48167,2.031998 -1.60867,5.503329 v 7.450661 q 0,0.804333 0.55033,0.804333 l 1.94733,-0.08467 v 1.100666 h -8.25499 v -1.100666 l 1.56633,0.08467 q 0.55034,-0.127 0.55034,-0.804333 V 60.245086 q 0,-0.719667 -0.55034,-0.846666 l -1.56633,0.08467 V 58.38242 h 5.969 q -0.21167,0.635 -0.21167,1.481666 v 2.328331 q 0.889,-1.989665 2.54,-3.090331 1.651,-1.142999 3.81,-1.142999 3.00566,0 4.31799,1.439333 1.35467,1.396998 1.35467,4.571996 v 10.371659 q 0,0.804333 0.55033,0.804333 z"
         id="path2004" />
      <path
         d="m 299.35991,75.061741 v 1.100666 h -9.10166 v -1.100666 l 1.905,0.08467 h 0.0847 q 0.29633,0 0.38099,-0.169334 0.0847,-0.211666 -0.0847,-0.423333 l -5.88433,-8.127993 -1.397,1.185332 v 6.730995 q 0,0.804333 0.55033,0.804333 l 1.94734,-0.08467 v 1.100666 h -8.255 v -1.100666 l 1.56633,0.08467 q 0.55034,-0.127 0.55034,-0.804333 V 47.121762 q 0,-0.888999 -0.508,-0.888999 l -1.56634,0.08467 v -1.058332 h 5.715 v 20.870317 l 6.90033,-5.926662 q 0.254,-0.254 0.254,-0.550333 0,-0.127 -0.127,-0.211666 -0.0847,-0.127 -0.254,-0.08467 l -1.82033,0.08467 V 58.38242 h 6.85799 v 1.058333 l -1.524,-0.08467 q -0.635,0 -1.31233,0.592666 l -4.953,4.233331 7.40833,10.202325 q 0.254,0.338667 0.55033,0.550333 0.33867,0.211667 0.59267,0.211667 z"
         id="path2006" />
    </g>
  </g>
  <g
     inkscape:label="Layer 1"
     inkscape:groupmode="layer"
     id="layer1"
     style="display:inline">
    <g
       id="g855"
       transform="matrix(0.06675448,0,0,0.06675448,15.461551,23.24885)"
       style="display:inline">
      <g
         id="l69v4fg1jbHoExVxEbBksc2"
         fill="#e4894c"
         transform="translate(-38.069835,-252.21261)">
        <g
           id="g825">
          <path
             id="pAxfulEGF"
             d="m 815,1333 c -399,-35 -482,-45 -523,-65 -45,-21 -74.46801,-58.6819 -74.46801,-97.7382 0,-53.7298 47.34489,-34.8703 97.46801,-21.2618 74,20 406,36 485,24 83,-13 101,-26 135,-98 33,-71 44,-124 56,-278 12,-168 34,-285 57,-317 35,-47 54,-92 48,-115 C 1080,301 996,245 862,208 797,190 755,187 600,186 c -169,-1 -195,2 -297,27 -49.99338,2.65885 -189.63587,76.14738 -216,32 -6,-11 -6,-20 0,-24 5,-3 12,-13 16,-22 16,-44 132,-100 292,-139 52.15193,-13.37229 75.41961,-19.182618 121.77477,-21.444267 22.97502,-1.120941 57.9673,-3.273905 92.43139,-1.285591 41.58289,2.168432 82.90045,1.806538 121.03618,7.26023 40.24933,5.755951 77.14603,17.510828 114.58223,26.774233 C 1049.9971,122.07354 1199.1692,231.07622 1270,372 c 50,101 38,174 -34,198 -46,15 -50,30 -81,275 -47,368 -58,415 -115,455 -71.94605,37.5141 -151.12893,39.6616 -225,33 z"
             sodipodi:nodetypes="ccccccccccccccccscssccccc" />
        </g>
      </g>
      <g
         id="l1g2mojCtPZl6q44v89cKvQ"
         fill="#754336"
         transform="translate(1963.6478,705.70902)">
        <path
           id="pgD7UsvYH"
           d="m -1532.2111,229.54984 c -87,-5.99996 -201,-25 -237,-40.00004 -75,-29.99998 -91,-77.00004 -103,-316.00031 -7,-120.99999 -6,-136.99999 8,-136.99999 18,0 21,18 36,222.99999 6,96.0002 14,146.00024 25,163.00031 36,54.00001 153,74.00002 437.0001,74.00002 334.8739,34.89575 331.34,-190.51199 370.0003,-465.00032 29,-216.00003 32,-224.00003 82,-260.00002 36,-27.00005 42,-36.00005 45,-71.99995 7,-96.9999 -72,-158.9998 -303.0005,-239.9998 -224.9999,-79 -667.9999,7 -762.9999,146.9999 -35,52 -25,93.9999 33,144.9998 36,31.00004 47,49.00004 52,80.00004 9,60.00002 105,253.00003 153,308.00002 35.2057,31.52361 108.1575,80.25836 180.9681,107.13468 67.4701,24.90503 123.2381,30.31348 136.025,23.31207 30.0884,-17.51761 68.712,-54.48874 106.6312,-102.13592 84.8352,-106.59924 174.5058,-263.69881 114.3756,-348.31085 -16,-19 -80.4235,-15.59873 -125.4233,7.40127 -46.5724,22.26519 -63.3091,50.12249 -81.518,69.08883 -34.4085,35.83961 -45.9602,45.33833 -76.4512,-36.64049 -28.6569,-68.85359 -81.6232,-110.47417 -156.7067,-90.3556 -36.8484,10.14369 -60.5231,33.87259 -73.6635,51.57545 -26.6772,35.93969 -12.5628,75.92826 4.4972,129.23413 18.0137,54.72454 52.118,131.26704 24.6365,114.35032 -54.0343,-58.83128 -83.0412,-145.39102 -70.8626,-218.76612 32.5031,-133.65291 220.6365,-142.44317 281.8171,-45.45897 6.3955,10.13815 12.3538,21.20328 19.3129,34.77536 16.0824,39.94956 22.5709,35.36097 47.5206,11.47829 76,-70 191.7893,-100.25141 235.7893,-56.25152 17.2515,17.25144 31.6696,32.06898 32.3334,74.88527 0.4136,26.67682 -13.372,80.89302 -20.2818,109.68381 -15,66 -120.9998,232.99999 -188.9997,298.99999 -57,56.00024 -85.0001,59.00024 -195.0001,23 -110,-37 -181,-83 -236,-152 -48,-60.99999 -123,-210 -141,-283.00001 -10,-37.00001 -25,-62.00001 -61,-97 -43,-43.99995 -47,-50.99995 -47,-95.99995 0,-64.9999 28,-103.9998 107,-151.9998 165,-99 480,-149 656.9999,-104 143.0001,36 282.0005,103 340.0005,163 35,35.9999 40,46.9999 44,98.9998 5,67.9999 -12,102.99994 -60,127.99994 -36,18 -44,39.00001 -52,134.00002 -12,126.00001 -55,360 -83.0004,448.00022 -30,95.00009 -57,124.00015 -137.0001,142.00013 -43,8.99996 -244.9999,10.99996 -360.9999,3 z"
           sodipodi:nodetypes="sccscccccccccccscsccsccscccsccssccccccsccccccccs" />
      </g>
    </g>
  </g>
</svg>
