<?xml version="1.0" encoding="UTF-8" standalone="no"?>
<!-- Created with Inkscape (http://www.inkscape.org/) -->

<svg
   width="50"
   height="50"
   viewBox="0 0 158.75 158.75"
   version="1.1"
   id="svg5"
   xmlns="http://www.w3.org/2000/svg"
   xmlns:svg="http://www.w3.org/2000/svg">
  <defs
     id="defs2" />
  <g
     id="layer3"
     style="display:inline">
    <g
       id="g835"
       transform="matrix(0.11838865,5.1350512e-4,-5.1171224e-4,0.11880345,5.4867258,-16.681382)"
       style="display:inline;fill:#8fff93;fill-opacity:1">
      <path
         id="p12967oIC7"
         d="m 533.5357,963.06983 c -50.79012,-22.30633 -94.84375,-57.94857 -118.38093,-87.69047 -60,-81 -103.03492,-136.67222 -106.03492,-227.67222 -7.94841,-60.81032 -12.27618,-73.18968 31.72382,-119.18968 22.33742,-18.21467 50.77678,-26.71433 75.66636,-33.09151 33.19961,-8.50637 85.56807,0.47736 109.61382,18.73214 16.17705,12.2811 37.86449,41.04132 46.66356,60.55817 6.26056,10.38198 13.87507,50.72733 20.97022,51.59507 4,0 9.24237,-3.31133 16.24237,-12.31133 16.4527,-19.56537 29.67701,-35.57004 52.76059,-49.95469 28.82842,-17.96459 68.37325,-32.0708 95.02921,-32.0708 40,0 61.34829,8.45644 83.34829,35.45644 48.86208,40.4711 37.96584,107.51081 6.56818,158.2729 -13.57679,21.95025 -45.3406,62.56118 -60.22373,82.60725 -60.90466,78.72376 -156.60867,186.43002 -253.94684,154.75873 z"
         style="fill:#8fff93;fill-opacity:1" />
    </g>
  </g>
  <g
     id="layer1"
     style="display:inline">
    <g
       id="g855"
       transform="matrix(0.11119917,0,0,0.11119917,10.484369,31.58703)"
       style="display:inline">
      <g
         id="l69v4fg1jbHoExVxEbBksc2"
         fill="#e4894c"
         transform="translate(-38.069835,-252.21261)">
        <g
           id="g825">
          <path
             id="pAxfulEGF"
             d="m 815,1333 c -399,-35 -482,-45 -523,-65 -45,-21 -74.46801,-58.6819 -74.46801,-97.7382 0,-53.7298 47.34489,-34.8703 97.46801,-21.2618 74,20 406,36 485,24 83,-13 101,-26 135,-98 33,-71 44,-124 56,-278 12,-168 34,-285 57,-317 35,-47 54,-92 48,-115 C 1080,301 996,245 862,208 797,190 755,187 600,186 c -169,-1 -195,2 -297,27 -49.99338,2.65885 -189.63587,76.14738 -216,32 -6,-11 -6,-20 0,-24 5,-3 12,-13 16,-22 16,-44 132,-100 292,-139 52.15193,-13.37229 75.41961,-19.182618 121.77477,-21.444267 22.97502,-1.120941 57.9673,-3.273905 92.43139,-1.285591 41.58289,2.168432 82.90045,1.806538 121.03618,7.26023 40.24933,5.755951 77.14603,17.510828 114.58223,26.774233 C 1049.9971,122.07354 1199.1692,231.07622 1270,372 c 50,101 38,174 -34,198 -46,15 -50,30 -81,275 -47,368 -58,415 -115,455 -71.94605,37.5141 -151.12893,39.6616 -225,33 z" />
        </g>
      </g>
      <g
         id="l1g2mojCtPZl6q44v89cKvQ"
         fill="#754336"
         transform="translate(1963.6478,705.70902)">
        <path
           id="pgD7UsvYH"
           d="m -1532.2111,229.54984 c -87,-5.99996 -201,-25 -237,-40.00004 -75,-29.99998 -91,-77.00004 -103,-316.00031 -7,-120.99999 -6,-136.99999 8,-136.99999 18,0 21,18 36,222.99999 6,96.0002 14,146.00024 25,163.00031 36,54.00001 153,74.00002 437.0001,74.00002 334.8739,34.89575 331.34,-190.51199 370.0003,-465.00032 29,-216.00003 32,-224.00003 82,-260.00002 36,-27.00005 42,-36.00005 45,-71.99995 7,-96.9999 -72,-158.9998 -303.0005,-239.9998 -224.9999,-79 -667.9999,7 -762.9999,146.9999 -35,52 -25,93.9999 33,144.9998 36,31.00004 47,49.00004 52,80.00004 9,60.00002 105,253.00003 153,308.00002 35.2057,31.52361 108.1575,80.25836 180.9681,107.13468 67.4701,24.90503 123.2381,30.31348 136.025,23.31207 30.0884,-17.51761 68.712,-54.48874 106.6312,-102.13592 84.8352,-106.59924 174.5058,-263.69881 114.3756,-348.31085 -16,-19 -80.4235,-15.59873 -125.4233,7.40127 -46.5724,22.26519 -63.3091,50.12249 -81.518,69.08883 -34.4085,35.83961 -45.9602,45.33833 -76.4512,-36.64049 -28.6569,-68.85359 -81.6232,-110.47417 -156.7067,-90.3556 -36.8484,10.14369 -60.5231,33.87259 -73.6635,51.57545 -26.6772,35.93969 -12.5628,75.92826 4.4972,129.23413 18.0137,54.72454 52.118,131.26704 24.6365,114.35032 -54.0343,-58.83128 -83.0412,-145.39102 -70.8626,-218.76612 32.5031,-133.65291 220.6365,-142.44317 281.8171,-45.45897 6.3955,10.13815 12.3538,21.20328 19.3129,34.77536 16.0824,39.94956 22.5709,35.36097 47.5206,11.47829 76,-70 191.7893,-100.25141 235.7893,-56.25152 17.2515,17.25144 31.6696,32.06898 32.3334,74.88527 0.4136,26.67682 -13.372,80.89302 -20.2818,109.68381 -15,66 -120.9998,232.99999 -188.9997,298.99999 -57,56.00024 -85.0001,59.00024 -195.0001,23 -110,-37 -181,-83 -236,-152 -48,-60.99999 -123,-210 -141,-283.00001 -10,-37.00001 -25,-62.00001 -61,-97 -43,-43.99995 -47,-50.99995 -47,-95.99995 0,-64.9999 28,-103.9998 107,-151.9998 165,-99 480,-149 656.9999,-104 143.0001,36 282.0005,103 340.0005,163 35,35.9999 40,46.9999 44,98.9998 5,67.9999 -12,102.99994 -60,127.99994 -36,18 -44,39.00001 -52,134.00002 -12,126.00001 -55,360 -83.0004,448.00022 -30,95.00009 -57,124.00015 -137.0001,142.00013 -43,8.99996 -244.9999,10.99996 -360.9999,3 z" />
      </g>
    </g>
  </g>
</svg>
