<svg width="218" height="57" viewBox="0 0 218 57" fill="none" xmlns="http://www.w3.org/2000/svg">
<rect x="11.7461" y="0.882812" width="206" height="56" fill="white"/>
<path d="M48.3328 23.8188C45.8172 26.3438 43.0703 29.1327 40.5547 31.6577C40.5559 31.6605 40.5572 31.6626 40.5584 31.6648C40.5841 31.7052 40.6084 31.7485 40.6297 31.7974C40.6547 31.8457 40.6734 31.8939 40.6897 31.9414C40.8759 32.4118 40.9853 32.9177 41.0172 33.4292C43.7453 30.69 46.7059 27.6868 49.4341 24.9476C49.0047 24.6588 48.6259 24.2736 48.3328 23.8188Z" fill="#F2AB3C"/>
<path d="M27.7655 23.8342C27.7268 24.4578 27.5574 25.058 27.2861 25.588C29.5724 27.8831 32.0905 30.4421 34.3774 32.7372C34.4961 32.1668 34.7193 31.6283 35.0436 31.1707C32.6949 28.8132 30.1143 26.1918 27.7655 23.8342Z" fill="#F2AB3C"/>
<path d="M27.8652 23.2078C27.8615 23.1759 27.8571 23.1454 27.8515 23.1149C27.8496 23.0723 27.8465 23.029 27.839 22.9843C27.5052 20.9645 25.8627 19.542 24.064 19.7137C22.2346 19.8883 20.9027 21.6626 20.8527 23.7073C20.8465 23.9733 20.8658 24.2323 20.9071 24.482C21.0046 25.0744 21.2283 25.6157 21.5421 26.0804C22.2358 27.1084 23.369 27.7555 24.5465 27.715C25.774 27.6739 26.8215 26.8566 27.4033 25.7193C27.6746 25.1893 27.8433 24.5891 27.8821 23.9655C27.8977 23.7151 27.8933 23.4618 27.8652 23.2078ZM24.5465 26.035C23.3258 26.1599 22.3877 25.0396 22.3283 23.7073C22.2752 22.5083 23.144 21.6044 24.1065 21.3881C25.2352 21.1348 26.1702 22.1812 26.399 23.3412C26.494 24.6721 25.7883 25.908 24.5465 26.035Z" fill="#028744"/>
<path d="M13.9238 35.5389C13.9201 35.5069 13.9157 35.4764 13.9101 35.4459C13.9082 35.4034 13.9051 35.3601 13.8976 35.3154C13.5638 33.2956 11.9213 31.8731 10.1226 32.0448C8.29318 32.2193 6.96131 33.9937 6.91131 36.0383C6.90506 36.3044 6.92443 36.5633 6.96568 36.8131C7.06318 37.4055 7.28693 37.9468 7.60068 38.4115C8.29443 39.4395 9.42756 40.0865 10.6051 40.0461C11.8326 40.0049 12.8801 39.1876 13.4619 38.0504C13.7332 37.5204 13.9019 36.9202 13.9407 36.2966C13.9563 36.0461 13.9519 35.7929 13.9238 35.5389ZM10.6051 38.3661C9.38443 38.4909 8.44631 37.3707 8.38693 36.0383C8.33381 34.8393 9.20256 33.9355 10.1651 33.7191C11.2938 33.4658 12.2288 34.5123 12.4576 35.6723C12.5526 37.0032 11.8469 38.2391 10.6051 38.3661Z" fill="#2356DF"/>
<path d="M40.7465 31.6656C40.7246 31.6166 40.7003 31.5726 40.6753 31.5329C40.6734 31.5301 40.6728 31.5279 40.6715 31.5258C39.6471 29.6841 37.614 29.0917 35.9121 30.1154C35.5184 30.3524 35.1909 30.6688 34.9284 31.0384C34.6034 31.496 34.3803 32.0345 34.2621 32.6042C34.0496 33.6244 34.1709 34.7439 34.6409 35.6761C35.5721 37.525 37.6178 38.023 39.2465 37.1837C40.6009 36.4863 41.2328 34.8709 41.134 33.2973C41.1021 32.7858 40.9928 32.2793 40.8065 31.8096C40.7903 31.7621 40.7709 31.7138 40.7465 31.6656ZM38.6365 35.6527C37.7609 36.2437 36.5778 35.8854 35.9953 34.9702C35.3196 33.9089 35.5759 32.4133 36.5084 31.6698C37.5303 30.8547 38.8753 31.3442 39.4721 32.5134C39.9834 33.6776 39.6021 35.0007 38.6365 35.6527Z" fill="#C53E2D"/>
<path d="M54.6252 21.4741C54.5739 19.3649 53.0108 17.7722 51.227 17.6473C51.1877 17.6423 51.1477 17.6388 51.1045 17.6402C51.062 17.6388 51.0227 17.6423 50.9839 17.6473C49.1302 17.7715 47.7389 19.3656 47.5833 21.4741C47.5152 22.3964 47.767 23.2542 48.2177 23.9509C48.5114 24.4049 48.8895 24.7901 49.3195 25.0796C49.9445 25.5003 50.6783 25.7188 51.4189 25.6479C53.2945 25.4684 54.677 23.5841 54.6252 21.4741ZM51.3758 23.9736C50.0627 24.2687 49.0258 22.8469 49.0595 21.4741C49.0895 20.2453 50.0864 19.3528 51.1052 19.3209C52.1689 19.3543 53.0595 20.2468 53.1495 21.4741C53.2433 22.7462 52.4264 23.7373 51.3758 23.9736Z" fill="#2356DF"/>
<path d="M21.6806 25.9585C21.1987 25.1468 21.2004 25.1448 20.9988 24.2604C18.3148 26.9194 15.1491 30.1455 12.4976 32.8072C13.0558 33.3369 13.0609 33.334 13.4852 34.0575C16.34 31.2601 18.9966 28.7005 21.6806 25.9585Z" fill="#F2AB3C"/>
<path d="M77.9661 41.2728C76.5461 41.2728 75.2111 40.9928 73.9611 40.4328C72.7111 39.8628 71.6111 39.0778 70.6611 38.0778C69.7211 37.0778 68.9811 35.9228 68.4411 34.6128C67.9111 33.2928 67.6461 31.8828 67.6461 30.3828C67.6461 28.8728 67.9111 27.4628 68.4411 26.1528C68.9811 24.8328 69.7211 23.6778 70.6611 22.6878C71.6111 21.6878 72.7111 20.9078 73.9611 20.3478C75.2111 19.7778 76.5461 19.4928 77.9661 19.4928C79.6661 19.4928 81.2311 19.8878 82.6611 20.6778C84.0911 21.4578 85.2761 22.5028 86.2161 23.8128L82.5261 25.8078C81.9661 25.1478 81.2911 24.6228 80.5011 24.2328C79.7111 23.8328 78.8661 23.6328 77.9661 23.6328C77.1161 23.6328 76.3161 23.8078 75.5661 24.1578C74.8161 24.5078 74.1561 24.9928 73.5861 25.6128C73.0261 26.2328 72.5861 26.9478 72.2661 27.7578C71.9461 28.5678 71.7861 29.4428 71.7861 30.3828C71.7861 31.3128 71.9461 32.1878 72.2661 33.0078C72.5861 33.8178 73.0261 34.5328 73.5861 35.1528C74.1561 35.7628 74.8161 36.2478 75.5661 36.6078C76.3161 36.9578 77.1161 37.1328 77.9661 37.1328C78.8761 37.1328 79.7211 36.9328 80.5011 36.5328C81.2911 36.1328 81.9661 35.6028 82.5261 34.9428L86.2161 36.9528C85.2761 38.2528 84.0911 39.2978 82.6611 40.0878C81.2311 40.8778 79.6661 41.2728 77.9661 41.2728ZM89.5677 40.8828V18.3828H93.7077V40.8828H89.5677ZM97.3449 25.8828H101.485V40.8828H97.3449V25.8828ZM99.4299 23.8578C98.8399 23.8578 98.3399 23.6578 97.9299 23.2578C97.5199 22.8578 97.3149 22.3628 97.3149 21.7728C97.3149 21.1828 97.5199 20.6878 97.9299 20.2878C98.3399 19.8878 98.8399 19.6878 99.4299 19.6878C100.02 19.6878 100.515 19.8878 100.915 20.2878C101.325 20.6878 101.53 21.1828 101.53 21.7728C101.53 22.3628 101.325 22.8578 100.915 23.2578C100.515 23.6578 100.02 23.8578 99.4299 23.8578ZM113.349 41.2728C111.969 41.2728 110.709 40.9178 109.569 40.2078C108.439 39.4978 107.534 38.5428 106.854 37.3428C106.184 36.1428 105.849 34.8178 105.849 33.3678C105.849 32.2778 106.044 31.2578 106.434 30.3078C106.824 29.3478 107.359 28.5078 108.039 27.7878C108.729 27.0578 109.529 26.4878 110.439 26.0778C111.349 25.6678 112.319 25.4628 113.349 25.4628C114.539 25.4628 115.624 25.7178 116.604 26.2278C117.594 26.7378 118.429 27.4328 119.109 28.3128C119.799 29.1928 120.289 30.1878 120.579 31.2978C120.879 32.4078 120.929 33.5628 120.729 34.7628H110.319C110.449 35.2028 110.649 35.6028 110.919 35.9628C111.199 36.3128 111.539 36.5928 111.939 36.8028C112.349 37.0128 112.819 37.1228 113.349 37.1328C113.869 37.1428 114.349 37.0228 114.789 36.7728C115.229 36.5228 115.604 36.1878 115.914 35.7678L120.144 36.7428C119.534 38.0728 118.624 39.1628 117.414 40.0128C116.204 40.8528 114.849 41.2728 113.349 41.2728ZM110.169 31.7028H116.544C116.414 31.2028 116.194 30.7528 115.884 30.3528C115.574 29.9528 115.199 29.6378 114.759 29.4078C114.329 29.1778 113.859 29.0628 113.349 29.0628C112.849 29.0628 112.379 29.1778 111.939 29.4078C111.509 29.6378 111.139 29.9528 110.829 30.3528C110.529 30.7428 110.309 31.1928 110.169 31.7028ZM137.796 33.2178V40.8828H133.656V33.2778C133.656 32.5778 133.511 31.9378 133.221 31.3578C132.931 30.7778 132.521 30.3128 131.991 29.9628C131.471 29.6128 130.866 29.4378 130.176 29.4378C129.496 29.4378 128.916 29.6128 128.436 29.9628C127.956 30.3128 127.591 30.7778 127.341 31.3578C127.091 31.9378 126.966 32.5778 126.966 33.2778V40.8828H122.826V25.8828H126.966V27.4278C127.446 26.8378 128.011 26.3628 128.661 26.0028C129.321 25.6428 130.071 25.4628 130.911 25.4628C132.321 25.4628 133.536 25.8128 134.556 26.5128C135.586 27.2128 136.381 28.1528 136.941 29.3328C137.501 30.5028 137.786 31.7978 137.796 33.2178ZM149.245 30.0228H146.545V40.8828H142.405V30.0228H140.335V25.8828H142.405V21.1728H146.545V25.8828H149.245V30.0228ZM158.115 41.2728C156.735 41.2728 155.475 40.9178 154.335 40.2078C153.205 39.4978 152.3 38.5428 151.62 37.3428C150.95 36.1428 150.615 34.8178 150.615 33.3678C150.615 32.2778 150.81 31.2578 151.2 30.3078C151.59 29.3478 152.125 28.5078 152.805 27.7878C153.495 27.0578 154.295 26.4878 155.205 26.0778C156.115 25.6678 157.085 25.4628 158.115 25.4628C159.305 25.4628 160.39 25.7178 161.37 26.2278C162.36 26.7378 163.195 27.4328 163.875 28.3128C164.565 29.1928 165.055 30.1878 165.345 31.2978C165.645 32.4078 165.695 33.5628 165.495 34.7628H155.085C155.215 35.2028 155.415 35.6028 155.685 35.9628C155.965 36.3128 156.305 36.5928 156.705 36.8028C157.115 37.0128 157.585 37.1228 158.115 37.1328C158.635 37.1428 159.115 37.0228 159.555 36.7728C159.995 36.5228 160.37 36.1878 160.68 35.7678L164.91 36.7428C164.3 38.0728 163.39 39.1628 162.18 40.0128C160.97 40.8528 159.615 41.2728 158.115 41.2728ZM154.935 31.7028H161.31C161.18 31.2028 160.96 30.7528 160.65 30.3528C160.34 29.9528 159.965 29.6378 159.525 29.4078C159.095 29.1778 158.625 29.0628 158.115 29.0628C157.615 29.0628 157.145 29.1778 156.705 29.4078C156.275 29.6378 155.905 29.9528 155.595 30.3528C155.295 30.7428 155.075 31.1928 154.935 31.7028ZM167.82 40.8828V18.3828H171.96V40.8828H167.82ZM175.642 40.8828V18.3828H179.782V40.8828H175.642Z" fill="#0D0A23"/>
</svg>
