<svg width="38" height="19" viewBox="0 0 38 19" fill="none" xmlns="http://www.w3.org/2000/svg">
<path d="M32.9375 5.88672C30.9464 7.88518 28.7723 10.0925 26.7812 12.091C26.7822 12.0932 26.7832 12.0949 26.7842 12.0966C26.8045 12.1286 26.8238 12.1629 26.8406 12.2016C26.8604 12.2398 26.8752 12.278 26.8881 12.3156C27.0355 12.6879 27.1221 13.0882 27.1473 13.4931C29.3066 11.3251 31.6498 8.94814 33.8091 6.7801C33.4693 6.55156 33.1695 6.24665 32.9375 5.88672Z" fill="#F2AB3C"/>
<path d="M16.6568 5.89844C16.6261 6.39202 16.492 6.86706 16.2773 7.28652C18.0869 9.10305 20.0799 11.1285 21.8899 12.945C21.9839 12.4935 22.1605 12.0673 22.4172 11.7051C20.5583 9.8392 18.5157 7.76438 16.6568 5.89844Z" fill="#F2AB3C"/>
<path d="M16.7367 5.4016C16.7337 5.37633 16.7303 5.35219 16.7258 5.32804C16.7243 5.29435 16.7219 5.2601 16.7159 5.22472C16.4518 3.62607 15.1518 2.50021 13.7281 2.6361C12.2802 2.77424 11.226 4.17861 11.1865 5.79691C11.1815 6.00749 11.1968 6.21244 11.2295 6.4101C11.3067 6.87897 11.4838 7.30741 11.7321 7.67521C12.2812 8.48886 13.178 9.00096 14.11 8.96896C15.0815 8.93639 15.9106 8.28951 16.3711 7.38939C16.5858 6.96994 16.7194 6.49489 16.7501 6.00131C16.7624 5.80309 16.759 5.60263 16.7367 5.4016ZM14.11 7.63927C13.1439 7.7381 12.4014 6.85145 12.3544 5.79691C12.3123 4.84794 12.9999 4.13256 13.7617 3.9613C14.6551 3.76083 15.3951 4.58908 15.5762 5.50717C15.6514 6.56059 15.0929 7.53876 14.11 7.63927Z" fill="#028744"/>
<path d="M5.70351 15.1633C5.70054 15.1381 5.69708 15.1139 5.69262 15.0898C5.69114 15.0561 5.68867 15.0218 5.68273 14.9864C5.41857 13.3878 4.11857 12.2619 2.69489 12.3978C1.24698 12.536 0.192828 13.9403 0.153254 15.5586C0.148307 15.7692 0.163642 15.9742 0.196291 16.1718C0.27346 16.6407 0.450554 17.0691 0.69888 17.4369C1.24797 18.2506 2.14482 18.7627 3.07678 18.7307C4.04832 18.6981 4.8774 18.0512 5.33794 17.1511C5.55263 16.7317 5.68619 16.2566 5.71686 15.763C5.72923 15.5648 5.72577 15.3643 5.70351 15.1633ZM3.07678 17.401C2.11068 17.4998 1.36818 16.6132 1.32118 15.5586C1.27913 14.6097 1.96673 13.8943 2.72853 13.723C3.62191 13.5226 4.36195 14.3508 4.543 15.2689C4.61819 16.3223 4.0597 17.3005 3.07678 17.401Z" fill="#2356DF"/>
<path d="M26.9348 12.0982C26.9175 12.0595 26.8982 12.0246 26.8785 11.9932C26.877 11.991 26.8765 11.9893 26.8755 11.9876C26.0647 10.5299 24.4555 10.061 23.1085 10.8713C22.7969 11.0588 22.5377 11.3093 22.3299 11.6018C22.0727 11.964 21.8961 12.3902 21.8026 12.8411C21.6344 13.6486 21.7304 14.5347 22.1024 15.2725C22.8394 16.7358 24.4585 17.13 25.7476 16.4657C26.8196 15.9138 27.3197 14.6352 27.2415 13.3897C27.2163 12.9848 27.1297 12.5839 26.9823 12.2122C26.9695 12.1746 26.9541 12.1364 26.9348 12.0982ZM25.2648 15.254C24.5718 15.7217 23.6354 15.4381 23.1743 14.7138C22.6396 13.8737 22.8424 12.69 23.5805 12.1016C24.3892 11.4564 25.4538 11.8438 25.9262 12.7692C26.3308 13.6907 26.0291 14.7379 25.2648 15.254Z" fill="#C53E2D"/>
<path d="M37.9162 4.03081C37.8756 2.36141 36.6385 1.10079 35.2267 1.00196C35.1955 0.998028 35.1638 0.99522 35.1297 0.996343C35.0961 0.99522 35.0649 0.998028 35.0342 1.00196C33.567 1.10023 32.4659 2.36197 32.3427 4.03081C32.2888 4.76079 32.4881 5.43967 32.8448 5.99109C33.0773 6.35046 33.3766 6.65537 33.7169 6.88447C34.2116 7.21745 34.7923 7.3904 35.3785 7.33425C36.863 7.19219 37.9573 5.70078 37.9162 4.03081ZM35.3444 6.00906C34.3051 6.24265 33.4844 5.11736 33.5111 4.03081C33.5349 3.05826 34.3239 2.35186 35.1302 2.32659C35.9721 2.35298 36.677 3.05938 36.7483 4.03081C36.8225 5.03762 36.1759 5.82207 35.3444 6.00906Z" fill="#2356DF"/>
<path d="M11.841 7.57957C11.4597 6.93709 11.461 6.93555 11.3015 6.23558C9.17713 8.34007 6.67149 10.8935 4.57288 13.0002C5.01474 13.4194 5.01876 13.4171 5.35457 13.9898C7.61408 11.7757 9.71673 9.74984 11.841 7.57957Z" fill="#F2AB3C"/>
</svg>
