<svg width="690" height="640" viewBox="0 0 690 640" fill="none" xmlns="http://www.w3.org/2000/svg">
<path opacity="0.6" d="M590.365 452.988C590.365 453.007 590.365 453.007 590.365 453.025C586.085 475.577 577.674 496.46 566.048 514.944C533.88 566.065 476.984 599.021 413.732 599.021H292.314C243.006 599.021 195.96 578.737 162.073 543.063C160.615 541.526 159.175 539.951 157.755 538.358C138.877 517.025 125.251 491.661 117.98 464.367C115.55 455.275 113.83 445.958 112.858 436.51C112.84 436.285 112.821 436.06 112.784 435.835C111.045 418.682 110.559 402.148 111.438 386.551C113.4 351.833 122.129 321.671 139.007 299.175C158.652 273.006 189.343 257.24 233.268 256.753C235.1 256.734 236.931 256.734 238.782 256.771C359.808 258.608 355.771 313.947 454.891 338.242C477.544 343.791 505.581 347.728 541.749 349.021C542.572 349.059 543.357 349.096 544.16 349.153C594.945 352.396 600.403 400.105 590.365 452.988Z" fill="#D8D2F2"/>
<path opacity="0.5" d="M544.179 349.134C509.88 367.093 456.311 386.326 391.77 379.315C293.827 368.686 170.539 348.103 111.438 386.57C113.4 351.852 122.129 321.69 139.007 299.194C159.698 294.376 185.997 294.189 219.23 302.793C291.229 321.446 384.705 341.804 454.909 338.242C477.563 343.791 505.6 347.728 541.768 349.021C542.59 349.04 543.394 349.078 544.179 349.134Z" fill="white"/>
<path opacity="0.5" d="M590.365 453.007C586.085 475.558 577.674 496.442 566.048 514.925C541.263 522.405 508.273 525.161 465.544 515.806C361.153 492.936 246.669 493.348 162.072 543.063C160.614 541.526 159.175 539.951 157.755 538.358C138.876 517.025 125.25 491.661 117.979 464.367C147.549 450.326 221.585 423.05 317.023 444.889C417.657 467.929 533.039 486.244 590.365 453.007Z" fill="white"/>
<path opacity="0.6" d="M0 194.496C0 196.858 0.953257 199.014 2.52333 200.57C4.07471 202.145 6.20551 203.101 8.56062 203.101H191.96C196.67 203.101 200.52 199.239 200.52 194.496C200.52 192.134 199.567 189.979 197.997 188.423C196.446 186.848 194.315 185.892 191.96 185.892H183.287C179.866 177.906 171.96 172.338 162.745 172.338C156.558 172.338 150.951 174.869 146.895 178.956C141.493 169.77 131.531 163.584 120.11 163.584C116.97 163.584 113.961 164.053 111.101 164.915C105.176 153.667 93.3818 146 79.7745 146C63.4383 146 49.7189 157.06 45.5694 172.095C42.5601 170.595 39.1583 169.714 35.5696 169.714C25.3828 169.714 16.8035 176.538 14.0932 185.873H8.56062C3.85041 185.892 0 189.754 0 194.496Z" fill="#D8D2F2"/>
<path opacity="0.6" d="M389.864 234.538C389.864 236.075 389.247 237.463 388.219 238.475C387.209 239.487 385.826 240.125 384.294 240.125H265.379C262.333 240.125 259.828 237.613 259.828 234.538C259.828 233.001 260.445 231.614 261.473 230.602C262.482 229.589 263.865 228.952 265.398 228.952H271.024C273.248 223.778 278.37 220.16 284.332 220.16C288.351 220.16 291.977 221.81 294.613 224.453C298.108 218.491 304.575 214.499 311.977 214.499C314.014 214.499 315.977 214.798 317.809 215.361C321.678 208.069 329.322 203.101 338.145 203.101C348.724 203.101 357.64 210.262 360.331 220.029C362.275 219.054 364.481 218.491 366.817 218.491C373.415 218.491 378.985 222.916 380.742 228.971H384.331C387.359 228.952 389.864 231.464 389.864 234.538Z" fill="#D8D2F2"/>
<path d="M519.226 283.579L520.74 275.836L513.506 274.412C513.506 272.5 513.17 270.587 512.553 268.75L518.515 264.739L514.123 258.196L508.422 262.039C506.721 260.315 504.721 258.984 502.572 258.084L503.992 250.829L496.273 249.311L494.815 256.79C493.226 256.884 491.656 257.184 490.123 257.709L486.123 251.729L479.6 256.134L483.432 261.852C481.712 263.558 480.385 265.564 479.488 267.719L473.17 266.482L471.656 274.224L478.198 275.518C478.31 277.542 478.759 279.567 479.581 281.479L473.881 285.322L478.273 291.864L484.236 287.853C485.936 289.352 487.899 290.477 489.974 291.208L488.553 298.501L496.273 300.019L497.824 292.108C499.525 291.921 501.207 291.49 502.815 290.796L506.646 296.513L513.17 292.108L509.17 286.128C510.235 284.91 511.114 283.56 511.787 282.116L519.226 283.579ZM499.843 280.485C496.553 282.716 492.067 281.816 489.843 278.517C487.619 275.218 488.516 270.719 491.805 268.488C495.095 266.257 499.581 267.157 501.805 270.456C504.03 273.756 503.151 278.255 499.843 280.485Z" fill="#D8D2F2"/>
<path d="M116.466 307.03L117.98 299.288L110.746 297.863C110.746 295.951 110.41 294.039 109.793 292.202L115.756 288.19L111.363 281.648L105.662 285.491C103.961 283.766 101.961 282.435 99.8119 281.535L101.232 274.28L93.5129 272.762L92.055 280.242C90.4663 280.335 88.8962 280.635 87.3635 281.16L83.3636 275.18L76.8403 279.586L80.672 285.303C78.9524 287.009 77.6253 289.015 76.7281 291.171L70.4105 289.933L68.8965 297.676L75.4384 298.969C75.5506 300.994 75.9992 303.018 76.8216 304.93L71.1207 308.773L75.5132 315.316L81.4757 311.304C83.1766 312.804 85.1392 313.91 87.214 314.66L85.7934 321.952L93.5129 323.47L95.0643 315.56C96.7652 315.372 98.4474 314.941 100.055 314.247L103.887 319.965L110.41 315.56L106.41 309.58C107.475 308.361 108.354 307.011 109.027 305.568L116.466 307.03ZM97.083 303.918C93.7933 306.149 89.3074 305.249 87.0831 301.95C84.8589 298.65 85.756 294.151 89.0457 291.921C92.3354 289.69 96.8213 290.59 99.0456 293.889C101.27 297.207 100.391 301.706 97.083 303.918Z" fill="#D8D2F2"/>
<path d="M558.889 246.348L559.712 242.112L555.768 241.343C555.768 240.293 555.581 239.262 555.244 238.25L558.497 236.057L556.104 232.476L552.983 234.576C552.048 233.638 550.964 232.907 549.787 232.42L550.572 228.464L546.347 227.64L545.544 231.726C544.684 231.783 543.824 231.933 542.983 232.232L540.796 228.971L537.226 231.37L539.319 234.501C538.385 235.438 537.656 236.525 537.17 237.706L533.712 237.031L532.89 241.268L536.46 241.98C536.516 243.087 536.777 244.193 537.226 245.242L534.105 247.342L536.497 250.922L539.749 248.729C540.684 249.554 541.749 250.154 542.889 250.566L542.104 254.559L546.329 255.384L547.17 251.054C548.104 250.96 549.02 250.716 549.899 250.323L551.992 253.453L555.562 251.054L553.375 247.792C553.955 247.117 554.441 246.386 554.814 245.599L558.889 246.348ZM548.31 244.661C546.516 245.88 544.048 245.392 542.852 243.593C541.637 241.793 542.123 239.319 543.917 238.119C545.712 236.9 548.179 237.388 549.375 239.187C550.59 240.987 550.104 243.443 548.31 244.661Z" fill="#D8D2F2"/>
<path d="M91.2135 361.956L92.0359 357.72L88.092 356.951C88.092 355.901 87.9051 354.87 87.5687 353.858L90.821 351.665L88.4285 348.084L85.307 350.184C84.3725 349.246 83.2884 348.515 82.1108 348.028L82.8959 344.072L78.6716 343.248L77.8679 347.334C77.0081 347.39 76.1483 347.54 75.3072 347.84L73.1203 344.579L69.5503 346.978L71.6437 350.109C70.7091 351.046 69.9802 352.133 69.4942 353.314L66.0363 352.639L65.2139 356.876L68.7839 357.588C68.84 358.694 69.1017 359.8 69.5503 360.85L66.4288 362.95L68.8213 366.53L72.0736 364.337C73.0082 365.162 74.0736 365.762 75.2137 366.174L74.4287 370.167L78.6529 370.992L79.494 366.662C80.4286 366.568 81.3445 366.324 82.223 365.93L84.3164 369.061L87.8864 366.662L85.6995 363.4C86.279 362.725 86.765 361.994 87.1388 361.206L91.2135 361.956ZM80.6155 360.25C78.8211 361.469 76.3539 360.981 75.1576 359.182C73.9427 357.382 74.4287 354.908 76.2231 353.708C78.0174 352.489 80.4847 352.977 81.6809 354.776C82.8959 356.576 82.4286 359.032 80.6155 360.25Z" fill="#D8D2F2"/>
<path opacity="0.6" d="M428.648 208.706C428.648 210.956 429.564 213.018 431.06 214.499C432.536 215.998 434.592 216.917 436.835 216.917H611.954C616.459 216.917 620.141 213.224 620.141 208.706C620.141 206.457 619.225 204.395 617.73 202.914C616.253 201.414 614.197 200.495 611.954 200.495H603.674C600.403 192.884 592.852 187.542 584.067 187.542C578.16 187.542 572.796 189.96 568.927 193.859C563.768 185.086 554.254 179.181 543.357 179.181C540.366 179.181 537.488 179.631 534.759 180.456C529.058 169.714 517.806 162.384 504.815 162.384C489.227 162.384 476.106 172.938 472.143 187.317C469.265 185.873 466.031 185.048 462.592 185.048C452.872 185.048 444.667 191.553 442.087 200.477H436.817C432.331 200.477 428.648 204.17 428.648 208.706Z" fill="#D8D2F2"/>
<path opacity="0.6" d="M620.215 623.541C620.215 632.633 491.207 640 332.051 640C172.913 640 43.8867 632.633 43.8867 623.541C43.8867 614.449 172.894 607.082 332.051 607.082C491.189 607.082 620.215 614.449 620.215 623.541Z" fill="#D8D2F2"/>
<path d="M600.215 622.81H577.841C574.795 622.81 572.103 619.904 571.169 615.611L561.673 572.345C561.281 570.583 562.122 568.727 563.374 568.596C580.664 566.609 597.766 566.609 614.701 568.596C615.953 568.746 616.776 570.583 616.402 572.345L606.907 615.611C605.953 619.904 603.262 622.81 600.215 622.81Z" fill="#FFAC00"/>
<path d="M589.169 573.826C603.105 573.826 614.402 572.894 614.402 571.745C614.402 570.596 603.105 569.664 589.169 569.664C575.233 569.664 563.936 570.596 563.936 571.745C563.936 572.894 575.233 573.826 589.169 573.826Z" fill="#2E3062"/>
<path d="M624.72 513.257C613.43 510.276 596.197 533.765 590.963 556.654V523.286C593.599 518.6 598.608 511.57 607.729 504.128C621.897 492.561 634.944 477.714 623.635 474.715C613.038 471.922 597.206 492.449 590.963 513.913V471.078C592.795 468.229 595.785 464.498 600.552 460.599C609.486 453.307 617.692 443.952 610.57 442.059C604.383 440.428 595.374 451.394 590.944 463.786V449.895C591.673 445.602 592.701 439.472 595.542 433.192C602.103 418.664 605.654 403.685 597 404.791C588.328 405.897 582.72 431.786 587.449 451.657V458.799C584.253 444.252 573.262 429.199 566.104 431.092C558.982 432.967 567.206 442.34 576.122 449.632C582.926 455.181 586.103 460.374 587.449 463.167V496.91C582.309 473.89 564.963 450.138 553.618 453.138C542.31 456.118 555.356 470.965 569.524 482.551C580.234 491.286 585.281 499.497 587.449 503.94V544.413C581.954 521.824 565.038 499.029 553.917 501.953C542.609 504.934 552.309 515.788 568.234 528.91C579.057 537.833 584.851 547.244 587.449 552.362V571.426C588.72 571.783 589.898 571.783 590.944 571.426V563.834C593.15 559.335 598.215 551.237 608.795 542.595C622.981 531.103 636.009 516.256 624.72 513.257Z" fill="#5C17B2"/>
<path d="M80.8022 620.973H85.1199L69.1576 579.375C69.9426 575.551 71.6248 570.302 75.1575 564.115C81.7555 552.549 86.7274 539.071 78.2789 540.008C70.9519 540.814 65.7744 556.373 66.1296 571.539L60.3913 556.598C59.4007 551.668 57.9802 544.638 58.4474 536.709C59.5128 518.337 57.139 500.753 48.2794 505.552C39.4197 510.351 44.0551 540.533 57.3633 559.954L60.3166 567.64C50.8588 553.318 32.8217 541.676 25.8872 546.7C19.0088 551.687 31.7189 558.342 44.3355 562.485C53.9428 565.634 59.5128 569.908 62.1109 572.345L76.0546 608.656C61.0268 586.03 32.5226 567.677 21.5695 575.607C10.6351 583.518 30.803 594.072 50.8401 600.652C65.98 605.62 74.8023 612.331 78.9705 616.23L80.8022 620.973Z" fill="#5C17B2"/>
<path d="M537.17 365.387C537.17 365.387 551.824 386.345 558.908 401.511C571.394 417.539 571.132 427.156 581.954 438.685L576.067 444.14L554.291 414.296C553.114 412.346 551.151 409.909 549.88 407.678L537.675 386.345L537.17 365.387Z" fill="#5C17B2"/>
<path d="M521.638 504.184C521.656 511.476 521.769 518.056 521.937 524.036C523.245 569.796 528.31 590.754 530.647 615.686C533.282 616.849 536.647 615.48 538.89 614.112L539.282 527.56L539.637 504.165H521.638V504.184Z" fill="#FDA893"/>
<path d="M521.638 504.184C521.656 511.476 521.769 518.056 521.937 524.036C523.825 523.342 525.974 522.949 528.871 523.98C533.731 525.742 535.021 527.541 539.282 527.56L539.637 504.165H521.638V504.184Z" fill="#FD896B"/>
<path d="M537.001 613.755C537.001 613.755 538.665 611.412 540.029 611.487C541.393 611.562 552.047 619.679 555.655 620.298C559.262 620.916 558.627 623.578 557.991 624.947C557.356 626.315 529.338 625.059 529.338 625.059C529.338 625.059 528.384 616.717 529.244 614.149C530.085 611.562 534.197 614.43 537.001 613.755Z" fill="#7742CA"/>
<path d="M493.432 500.659L493.749 521.187L495.189 613.737L502.198 614.111C504.684 587.492 511.02 572.776 512.441 524.317C512.646 517.25 512.777 509.433 512.796 500.659H493.432Z" fill="#FDA893"/>
<path d="M493.432 500.659L493.749 521.187C495.955 521.074 498.777 521.243 501.749 522.33C505.899 523.848 509.488 524.373 512.46 524.317C512.665 517.25 512.796 509.433 512.815 500.659H493.432Z" fill="#FD896B"/>
<path d="M499.545 613.062C499.545 613.062 495.918 612.012 494.909 612.012C493.9 612.012 487.003 619.473 484.722 619.867C480.573 620.598 480.461 627.065 482.965 627.421C490.218 628.49 502.703 625.64 502.703 625.64C502.703 625.64 504.012 617.373 503.563 614.749C503.077 612.162 501.563 613.868 499.545 613.062Z" fill="#7742CA"/>
<path d="M481.824 513.332C481.824 513.332 481.918 513.669 482.179 514.176C483.095 515.956 486.123 519.724 494.703 517.194C494.983 517.119 495.245 517.044 495.506 516.969C497.301 516.519 498.759 516.481 500.086 516.631C505.076 517.231 507.973 520.774 518.16 517.569C527.338 514.682 529.73 517.231 533.992 518.618C534.833 518.9 535.749 519.125 536.795 519.256C537.3 519.312 537.805 519.35 538.309 519.331C542.309 519.237 546.16 516.894 548.459 515.15C549.823 514.119 550.646 513.313 550.646 513.313C550.44 512.488 550.253 511.607 550.048 510.67C549.281 507.052 548.496 502.684 547.73 497.904C547.487 496.479 547.263 494.998 547.038 493.499C546.478 489.862 545.935 486.094 545.412 482.326C545.412 482.307 545.412 482.288 545.393 482.27C545.169 480.714 544.964 479.139 544.758 477.583C544.739 477.508 544.739 477.433 544.721 477.358C544.048 472.372 543.431 467.516 542.889 463.111C542.683 461.424 542.478 459.812 542.309 458.293C541.3 449.895 540.665 444.102 540.665 444.102L516.235 445.096L494.03 444.177C494.03 444.177 492.516 446.989 491.974 451.713C491.805 453.194 491.207 455.331 491.002 457.112C490.441 461.836 489.151 467.048 488.347 473.065C488.142 474.64 487.918 476.233 487.712 477.827C486.179 489.074 484.422 500.847 482.721 509.17C482.422 510.708 482.123 512.095 481.824 513.332Z" fill="#2E3062"/>
<path d="M538.141 406.535L543.244 457.262C522.571 466.41 489.899 457.262 489.899 457.262L498.441 413.396L488.366 372.998L495.618 369.342L497.076 368.592L500.254 366.98L502.572 365.818L510.31 361.9L524.235 363.718L529.057 364.337L533.338 364.899L535.001 365.106L537.132 365.387L537.674 388.201C539.169 391.463 540.422 395.099 540.496 398.324C540.571 401.192 539.618 403.423 538.347 405.11C538.347 405.129 538.328 405.129 538.309 405.147C538.235 405.241 538.16 405.335 538.085 405.429L538.104 406.46V406.535H538.141Z" fill="#7742CA"/>
<path d="M524.273 363.718C522.964 367.468 520.516 370.523 515.301 371.086C509.712 371.685 505.264 369.38 502.609 365.837L510.348 361.919L524.273 363.718Z" fill="#FDA893"/>
<path d="M538.122 405.429L538.141 406.46V406.535C535.169 407.622 529.917 409.215 523.319 409.947C519.674 410.34 515.637 410.471 511.338 410.096C511.001 410.059 510.74 409.778 510.777 409.422C510.814 409.084 511.113 408.822 511.45 408.859C523.88 409.947 534.197 406.722 538.347 405.147C538.272 405.241 538.197 405.335 538.122 405.429Z" fill="#5C17B2"/>
<path d="M514.18 319.234C514.18 319.234 514.685 308.548 508.199 306.486C498.105 303.281 495.302 308.548 493.75 312.016C491.75 316.459 492.61 325.176 498.629 326.02C507.6 327.276 513.619 322.233 514.18 319.234Z" fill="#18315B"/>
<path d="M520.684 354.983C525.936 354.983 530.46 351.29 531.525 346.153C532.291 342.442 533.058 339.161 533.058 337.324V337.268C533.114 336.687 533.133 336.105 533.133 335.524C533.207 327.088 528.011 311.698 509.787 314.135C509.787 314.135 494.666 315.859 492.946 330.688C492.946 330.688 492.236 337.53 491.75 342.479C491.75 342.573 491.731 342.648 491.731 342.742C491.058 349.284 496.198 354.964 502.759 354.964H520.684V354.983Z" fill="#18315B"/>
<path d="M526.872 338.28C526.872 338.28 529.47 334.962 531.414 337.699C533.358 340.436 530.61 348.515 525.862 346.547L526.872 338.28Z" fill="#FD896B"/>
<path d="M526.909 344.054C527.077 344.054 527.245 343.941 527.301 343.773C528.03 341.279 530.741 340.267 530.778 340.248C530.984 340.173 531.096 339.948 531.002 339.761C530.927 339.555 530.685 339.461 530.479 339.536C530.348 339.573 527.357 340.679 526.516 343.566C526.46 343.773 526.572 343.979 526.797 344.035C526.834 344.054 526.871 344.054 526.909 344.054Z" fill="#D65C48"/>
<path d="M529.637 342.798C529.712 342.798 529.787 342.779 529.862 342.742C530.049 342.629 530.105 342.385 529.974 342.217C529.955 342.179 529.469 341.486 528.479 341.054C528.273 340.961 528.049 341.054 527.955 341.242C527.862 341.429 527.955 341.654 528.161 341.748C528.946 342.085 529.32 342.61 529.32 342.629C529.376 342.742 529.507 342.798 529.637 342.798Z" fill="#D65C48"/>
<path d="M525.694 346.491C525.245 346.997 524.965 347.653 524.965 348.365C524.965 349.921 526.236 351.196 527.787 351.196C529.339 351.196 530.61 349.921 530.61 348.365C530.61 347.466 530.198 346.66 529.544 346.153C529.208 345.891 528.834 345.704 528.404 345.61C528.329 345.422 528.367 345.235 528.498 345.066C529.04 345.179 529.526 345.422 529.937 345.779C530.684 346.397 531.152 347.334 531.152 348.365C531.152 350.221 529.638 351.74 527.787 351.74C525.937 351.74 524.423 350.221 524.423 348.365C524.423 347.559 524.703 346.828 525.17 346.247C525.357 346.341 525.526 346.416 525.694 346.491Z" fill="white"/>
<path d="M506.797 355.189V365.106C506.797 365.106 511.395 368.667 514.984 368.967C518.572 369.286 519.806 365.049 519.806 365.049V355.826L506.797 355.189Z" fill="#FDA893"/>
<path d="M506.797 356.164V360.119C509.208 362.8 513.47 363.737 519.787 362.8V356.782L506.797 356.164Z" fill="#FD896B"/>
<path d="M528.441 342.048C528.329 343.004 528.198 343.979 528.011 344.954C526.871 351.402 522.815 358.357 517.675 359.538C506.591 362.069 501.993 353.333 500.217 346.884C500.03 346.172 500.385 345.347 500.236 344.504C499.862 342.498 499.058 340.211 498.871 337.961C498.74 336.405 498.647 334.868 498.591 333.481C498.404 329.563 500.666 325.964 504.217 324.558C509.32 322.533 517.058 320.921 524.385 325.233C527.095 326.826 528.796 329.769 528.852 332.994C528.889 335.449 528.833 338.674 528.441 342.048Z" fill="#FDA893"/>
<path d="M514.367 347.034C514.161 347.034 513.974 346.884 513.937 346.678C513.899 346.434 514.049 346.228 514.292 346.172L515.769 345.928L513.731 340.492C513.656 340.267 513.769 340.023 513.974 339.929C514.199 339.854 514.442 339.967 514.535 340.173L516.946 346.603L514.442 347.034C514.423 347.034 514.404 347.034 514.367 347.034Z" fill="#FD896B"/>
<path d="M519.675 339.836C519.675 340.792 520.161 341.56 520.759 341.56C521.357 341.56 521.843 340.792 521.843 339.836C521.843 338.88 521.357 338.111 520.759 338.111C520.161 338.111 519.675 338.88 519.675 339.836Z" fill="#18315B"/>
<path d="M507.601 339.836C507.601 340.792 508.087 341.56 508.685 341.56C509.283 341.56 509.769 340.792 509.769 339.836C509.769 338.88 509.283 338.111 508.685 338.111C508.087 338.111 507.601 338.88 507.601 339.836Z" fill="#18315B"/>
<path d="M523.973 335.318C523.095 335.149 521.319 334.868 519.431 334.924C518.927 334.943 518.534 335.318 518.609 335.712V335.73C518.665 336.049 519.001 336.255 519.394 336.237C520.684 336.143 524.048 336.162 525.618 336.63C525.655 336.405 525.506 336.162 525.282 335.955C524.964 335.618 524.497 335.412 523.973 335.318Z" fill="#18315B"/>
<path d="M506.423 335.524C507.301 335.337 509.077 335.037 510.964 335.074C511.469 335.093 511.862 335.449 511.806 335.862V335.88C511.75 336.199 511.413 336.424 511.021 336.386C509.731 336.312 506.366 336.368 504.796 336.855C504.759 336.63 504.89 336.386 505.114 336.162C505.451 335.843 505.918 335.637 506.423 335.524Z" fill="#18315B"/>
<path d="M519.675 349.603C519.357 351.121 518.292 353.895 514.722 353.895C511.133 353.895 510.142 351.346 509.787 349.603H519.675Z" fill="white"/>
<path d="M514.778 356.501C515.806 356.501 516.722 355.939 516.759 355.92C516.965 355.789 517.021 355.545 516.89 355.339C516.759 355.133 516.516 355.076 516.311 355.208C516.311 355.208 515.563 355.657 514.778 355.657C513.918 355.657 513.171 355.208 513.152 355.208C512.946 355.095 512.685 355.151 512.572 355.358C512.46 355.564 512.516 355.826 512.722 355.939C512.759 355.957 513.675 356.501 514.778 356.501Z" fill="#FD896B"/>
<path d="M528.89 341.035C528.778 341.129 528.684 341.092 528.591 340.923C527.133 338.336 528.497 333.162 524.161 331.194C520.853 329.675 519.675 326.582 519.675 326.582C518.927 327.876 516.946 329.057 516.946 329.057C516.946 329.057 511.956 332.019 506.778 334.024C505.245 334.624 504.143 335.224 503.376 335.749C503.432 335.768 503.47 335.768 503.47 335.768C503.47 335.768 502.031 338.111 503.077 341.729C504.124 345.366 502.778 351.346 500.442 352.733C500.479 352.639 502.236 348.496 501.246 345.103C500.685 343.173 500.685 340.079 500.143 338.242C499.545 337.83 498.161 337.136 497.694 336.855C497.563 335.262 497.47 333.706 497.395 332.281C497.208 328.288 499.582 324.614 503.32 323.189C508.685 321.127 516.853 319.477 524.572 323.864C527.432 325.495 529.226 328.494 529.282 331.775C529.357 334.306 529.301 337.586 528.89 341.035Z" fill="#18315B"/>
<path d="M500.161 338.242C500.161 338.242 497.133 334.549 495.338 337.211C493.544 339.873 496.198 348.009 500.572 346.097L500.161 338.242Z" fill="#FDA893"/>
<path d="M500.292 346.247C500.609 346.847 500.722 347.54 500.535 348.253C500.161 349.771 498.628 350.69 497.114 350.315C495.6 349.94 494.684 348.403 495.058 346.884C495.282 346.003 495.88 345.328 496.628 344.991C497.002 344.822 497.432 344.728 497.862 344.747C497.936 344.578 497.974 344.41 497.899 344.203C497.338 344.185 496.815 344.316 496.329 344.541C495.469 344.953 494.778 345.741 494.535 346.753C494.086 348.553 495.189 350.39 496.983 350.84C498.778 351.29 500.609 350.183 501.058 348.384C501.245 347.596 501.151 346.828 500.834 346.153C500.647 346.172 500.479 346.209 500.292 346.247Z" fill="white"/>
<path d="M499.507 343.379C499.338 343.379 499.189 343.266 499.151 343.116C498.478 340.698 495.974 339.705 495.936 339.705C495.75 339.63 495.656 339.423 495.731 339.217C495.806 339.03 496.011 338.936 496.198 339.011C496.31 339.048 499.077 340.136 499.862 342.91C499.918 343.116 499.806 343.304 499.6 343.36C499.581 343.379 499.544 343.379 499.507 343.379Z" fill="#FD896B"/>
<path d="M496.984 342.16C496.909 342.16 496.853 342.141 496.778 342.104C496.61 341.991 496.554 341.766 496.666 341.598C496.684 341.56 497.133 340.885 498.049 340.473C498.236 340.398 498.46 340.473 498.535 340.66C498.61 340.848 498.535 341.073 498.348 341.148C497.638 341.466 497.283 341.991 497.283 341.991C497.226 342.104 497.096 342.16 496.984 342.16Z" fill="#FD896B"/>
<path d="M576.72 409.066C586.814 434.804 574.178 463.88 548.497 474.002C544.983 475.39 541.413 476.346 537.843 476.889C533.357 477.583 528.852 477.658 524.441 477.133C520.516 476.664 516.665 475.746 512.983 474.377C511.862 473.965 510.74 473.515 509.656 473.009C504.852 470.834 500.404 467.91 496.479 464.311C495.712 463.617 494.965 462.886 494.236 462.136C489.806 457.543 486.198 452.013 483.731 445.696C483.507 445.115 483.283 444.533 483.096 443.952C474.217 418.664 486.871 390.657 511.955 380.759C518.123 378.322 524.497 377.216 530.74 377.272C531.955 377.291 533.151 377.347 534.347 377.441C539.581 377.872 544.665 379.147 549.45 381.153C550.497 381.602 551.543 382.071 552.571 382.577C556.216 384.396 559.637 386.664 562.739 389.345C565.954 392.1 568.833 395.287 571.3 398.868C573.094 401.473 574.664 404.304 575.973 407.322C576.253 407.903 576.496 408.484 576.72 409.066Z" fill="#FFCE4F"/>
<path opacity="0.3" d="M571.319 398.887L537.843 476.871C533.357 477.564 528.853 477.639 524.441 477.114L562.759 389.345C565.973 392.119 568.871 395.306 571.319 398.887Z" fill="white"/>
<path opacity="0.3" d="M534.367 377.441L496.498 464.311C495.732 463.617 494.984 462.886 494.255 462.136L530.759 377.291C531.974 377.291 533.17 377.347 534.367 377.441Z" fill="white"/>
<path opacity="0.3" d="M552.59 382.596L513.002 474.396C511.88 473.984 510.759 473.534 509.675 473.028L549.487 381.171C550.534 381.602 551.581 382.071 552.59 382.596Z" fill="white"/>
<path d="M567.393 412.74C567.618 413.302 567.823 413.883 568.029 414.465C574.87 434.579 564.758 456.793 544.833 464.629C524.927 472.484 502.422 463.111 493.787 443.709C493.544 443.146 493.301 442.584 493.077 442.021C485.021 421.476 495.152 398.193 515.637 390.132C536.123 382.052 559.338 392.194 567.393 412.74Z" fill="#FA8A00"/>
<path d="M568.029 414.465C574.87 434.579 564.758 456.794 544.833 464.629C544.384 464.798 543.936 464.967 543.487 465.136C538.982 466.729 534.366 467.46 529.824 467.404C525.282 467.348 520.814 466.523 516.609 464.986C515.543 464.592 514.497 464.161 513.45 463.692C508.759 461.499 504.46 458.425 500.889 454.525C500.03 453.607 499.207 452.613 498.441 451.601C496.609 449.201 495.058 446.558 493.768 443.709C486.927 423.594 497.039 401.38 516.945 393.525C519.469 392.532 522.029 391.819 524.609 391.369C525.917 391.144 527.226 390.976 528.553 390.882C533.917 390.47 539.244 391.182 544.235 392.869C545.319 393.225 546.365 393.638 547.412 394.106C551.468 395.868 555.244 398.305 558.533 401.324C561.748 404.267 564.515 407.791 566.664 411.784C567.169 412.628 567.617 413.527 568.029 414.465Z" fill="#FFAC00"/>
<path opacity="0.2" d="M566.702 411.746L543.506 465.117C539.002 466.71 534.385 467.441 529.843 467.385L558.571 401.286C561.786 404.248 564.534 407.753 566.702 411.746Z" fill="white"/>
<path opacity="0.2" d="M528.572 390.863L500.909 454.525C500.049 453.607 499.226 452.613 498.46 451.601L524.628 391.369C525.936 391.125 527.263 390.976 528.572 390.863Z" fill="white"/>
<path opacity="0.2" d="M547.431 394.087L516.609 464.986C515.544 464.592 514.497 464.161 513.45 463.692L544.235 392.85C545.319 393.206 546.384 393.619 547.431 394.087Z" fill="white"/>
<path d="M543.693 446.483L546.123 452.669L538.291 455.762L535.974 449.857C530.273 451.713 524.292 452.332 520.161 451.582L520.628 440.315C525.152 441.047 530.591 440.503 534.871 438.816C538.591 437.354 539.619 436.041 539.095 434.71C537.17 429.799 517.208 442.246 511.507 427.681C509.04 421.382 511.526 414.277 520.142 409.403L517.768 403.329L525.6 400.236L527.937 406.197C532.198 404.96 536.628 404.454 540.497 404.979L540.291 416.077C535.693 415.645 531.712 416.114 528.31 417.445C524.479 418.964 523.694 420.557 524.217 421.888C526.049 426.575 546.048 414.183 551.674 428.58C553.992 434.617 551.712 441.571 543.693 446.483Z" fill="#FA8A00"/>
<path d="M542.646 444.515L545.076 450.701L537.245 453.794L534.927 447.889C529.245 449.745 523.245 450.364 519.114 449.614L519.581 438.347C524.105 439.078 529.544 438.535 533.824 436.847C537.544 435.385 538.572 434.073 538.048 432.742C536.123 427.831 516.161 440.278 510.46 425.712C507.993 419.414 510.479 412.309 519.095 407.435L516.722 401.361L524.553 398.268L526.89 404.229C531.151 402.992 535.581 402.486 539.45 403.011L539.245 414.108C534.647 413.677 530.665 414.146 527.263 415.477C523.432 416.995 522.647 418.589 523.17 419.92C525.002 424.606 545.002 412.215 550.628 426.612C552.964 432.648 550.684 439.603 542.646 444.515Z" fill="#FFCE4F"/>
<path d="M518.291 476.833C519.151 475.408 515.917 473.853 514.815 472.165C513.712 470.478 511.562 465.698 512.646 465.304C513.712 464.911 515.058 464.911 515.992 464.817C516.927 464.723 518.16 463.617 517.487 463.073C516.796 462.511 513.787 462.342 512.366 462.586C511.861 462.68 510.74 463.242 510.048 463.505C508.983 463.898 507.899 463.955 506.927 463.58C506.534 462.267 506.142 460.805 505.787 460.037C504.441 459.437 498.404 460.224 498.086 463.336C498.404 465.492 499.207 468.172 499.207 468.172C502.46 476.983 506.198 478.595 507.693 479.326C509.189 480.076 510.31 478.633 510.31 478.633C511.843 479.008 512.534 477.714 512.534 477.714C514.927 478.277 515.357 476.702 515.357 476.702C515.357 476.702 517.431 478.239 518.291 476.833Z" fill="#FDA893"/>
<path d="M500.235 383.496C497.675 403.142 496.273 415.946 495.693 419.863C495.656 420.051 495.637 420.238 495.619 420.388C495.562 420.763 495.525 420.951 495.525 420.951L492.572 421.944L492.048 422.113C492.048 422.113 492.048 422.113 492.03 422.113L485.058 424.475C484.946 424.156 484.852 423.819 484.759 423.463C481.058 410.19 488.404 372.998 488.404 372.998C496.104 369.53 500.235 383.496 500.235 383.496Z" fill="#7742CA"/>
<path d="M506.591 461.349C503.413 463.767 500.628 464.817 498.086 464.986C490.684 447.533 486.124 435.892 484.722 423.463L489.376 422.376L490.983 422.001C490.983 422.001 490.983 422.001 491.002 422.001L495.525 420.932C495.525 420.932 495.581 421.101 495.675 421.401C495.731 421.57 495.806 421.794 495.899 422.076C496.796 424.925 499.282 433.061 501.394 441.722C503.974 452.426 506.591 461.349 506.591 461.349Z" fill="#7742CA"/>
<path d="M495.506 420.932C495.506 420.932 495.562 421.101 495.656 421.401C494.329 421.626 493.039 421.888 492.03 422.113C492.03 422.113 492.03 422.113 492.011 422.113C490.889 422.357 490.123 422.563 490.086 422.563C490.03 422.582 489.955 422.582 489.899 422.582C489.693 422.582 489.506 422.507 489.357 422.357C489.263 422.263 489.189 422.15 489.151 422C489.039 421.588 489.301 421.176 489.693 421.082C489.88 421.044 492.702 420.313 495.656 419.826C495.618 420.013 495.6 420.201 495.581 420.351C495.544 420.744 495.506 420.932 495.506 420.932Z" fill="#5C17B2"/>
<path d="M579.188 438.047L581.131 437.485C581.131 437.485 582.982 433.192 581.748 431.711C581.3 431.167 580.608 431.111 580.029 431.373L579.188 438.047Z" fill="#FD896B"/>
<path d="M585.785 445.04C587.337 443.446 587.823 441.047 586.851 439.041C586.327 437.972 585.393 436.979 583.767 436.36C578.851 434.504 574.328 434.598 573.972 436.791C573.842 437.616 576.29 439.303 578.608 439.828C578.608 439.828 575.898 439.566 573.337 438.478C570.776 437.391 569.786 440.84 573.001 442.228C576.215 443.615 576.832 443.615 576.832 443.615C576.832 443.615 573.842 443.296 572.384 442.434C570.926 441.571 569.692 443.971 572.645 445.489C574.01 446.202 575.58 447.008 575.58 447.008C575.58 447.008 573.393 446.296 572.272 445.939C571.15 445.583 569.655 446.389 571.468 448.058C572.888 449.37 577 452.65 579.243 451.113C580.795 450.045 583.935 446.933 585.785 445.04Z" fill="#FDA893"/>
<path d="M374.78 367.468H315.397V622.66H374.78V367.468Z" fill="#7742CA"/>
<path d="M315.397 555.342C336.444 548.818 356.163 537.14 374.78 524.58V622.641H315.397V555.342Z" fill="#5C17B2"/>
<path d="M277.715 438.366H218.333V622.641H277.715V438.366Z" fill="#7742CA"/>
<path d="M266.725 559.672C270.426 560.216 274.089 560.535 277.715 560.685V622.66H218.333V561.266C228.838 557.779 244.22 556.373 266.725 559.672Z" fill="#5C17B2"/>
<path d="M471.843 291.208H412.461V622.641H471.843V291.208Z" fill="#7742CA"/>
<path d="M471.843 472.859V622.66H412.461V498.297C433.563 483.919 453.227 472.784 471.843 472.859Z" fill="#5C17B2"/>
<path d="M189.903 625.285H136.857C136.857 622.548 137.96 620.092 139.736 618.292C141.512 616.493 143.979 615.405 146.708 615.405H146.801C146.801 615.405 158.053 613.924 158.053 604.701V549.681H168.689V604.701C168.689 613.924 179.941 615.405 179.941 615.405H180.034C185.492 615.405 189.903 619.829 189.903 625.285Z" fill="#5C17B2"/>
<path d="M168.708 549.681V551.856L158.054 555.024V549.681H168.708Z" fill="#4A0681"/>
<path d="M214.389 549.681H112.372C114.054 540.345 122.185 533.559 131.643 533.597L163.381 533.691L195.119 533.597C204.595 533.559 212.707 540.345 214.389 549.681Z" fill="#7742CA"/>
<path d="M147.774 429.949C145.101 439.828 131.68 465.567 126.447 469.26C119.662 474.059 98.3724 483.076 87.2885 487.668C85.2885 488.493 92.7089 497.267 92.7089 497.267C92.7089 497.267 121.344 489.956 133.026 482.495C136.334 480.376 143.475 473.196 152.54 458.818C155.287 454.45 161.642 445.789 162.353 439.603C163.138 432.461 155.138 427.568 147.774 429.949Z" fill="#FA8A00"/>
<path d="M115.774 601.364L116.148 612.106C116.148 612.106 113.494 614.074 108.017 613.099L105.774 601.533L115.774 601.364Z" fill="#FDA893"/>
<path d="M110.503 613.024C110.503 613.024 108.821 610.681 107.438 610.756C106.073 610.831 95.3816 619.098 91.7555 619.754C88.1294 620.391 88.2976 624.928 89.7369 625.434C91.363 626.015 118.185 625.509 118.185 625.509C118.185 625.509 119.213 615.93 118.316 613.343C117.437 610.756 113.325 613.662 110.503 613.024Z" fill="#5C17B2"/>
<path d="M143.792 509.751C143.792 509.751 102.316 502.89 89.8491 510.708C80.41 516.631 104.54 603.576 104.54 603.576C108.877 604.926 114.858 604.289 117.475 602.62C117.475 602.62 121.25 591.016 117.737 561.097C117.269 557.123 117.737 548.05 113.512 532.003L145.082 518.019L143.792 509.751Z" fill="#1D1A45"/>
<path d="M102.484 597.634C102.484 597.634 102.914 602.883 103.643 604.664C103.643 604.664 115.512 606.763 119.419 602.077L118.895 596.828C118.914 596.828 109.064 598.965 102.484 597.634Z" fill="#2E3062"/>
<path d="M180.727 417.351C180.727 417.351 192.222 421.119 198.371 426.518C204.521 431.936 199.381 448.076 199.53 457.243C199.68 466.41 198.166 519.649 185.082 526.323C175.194 531.366 133.55 523.699 136.596 510.089C138.615 501.034 142.466 484.407 145.12 461.892C146.877 447.045 146.129 436.079 147.793 429.911C149.437 423.744 168.689 416.677 168.689 416.677L180.727 417.351Z" fill="#FFAC00"/>
<path d="M177.343 500.172C177.549 500.172 177.736 500.003 177.754 499.797C177.773 499.572 177.624 499.347 177.381 499.328C161.904 497.547 155.493 470.665 155.418 470.384C155.362 470.159 155.138 470.009 154.914 470.066C154.689 470.122 154.54 470.347 154.596 470.572C154.857 471.696 161.213 498.297 177.287 500.153C177.306 500.172 177.324 500.172 177.343 500.172Z" fill="#FA8A00"/>
<path d="M171.176 492.036C171.325 492.036 171.456 491.961 171.531 491.83C171.662 491.624 171.587 491.361 171.4 491.249C163.157 486.15 161.942 478.651 161.923 478.577C161.886 478.352 161.68 478.183 161.438 478.22C161.213 478.258 161.045 478.464 161.082 478.708C161.138 479.026 162.353 486.675 170.951 491.98C171.026 492.018 171.101 492.036 171.176 492.036Z" fill="#FA8A00"/>
<path d="M157.605 483.994L163.213 499.404L173.344 484.763L174.147 437.897L174.166 435.629L171.493 435.142L171.007 438.178L157.605 483.994Z" fill="white"/>
<path d="M171.007 438.179L172.24 439.847L174.147 437.897L174.166 435.629L171.493 435.142L171.007 438.179Z" fill="#EDEDED"/>
<path d="M178.053 432.63L172.689 437.935L168.913 432.498L173.53 424.175L178.053 432.63Z" fill="white"/>
<path d="M180.82 416.583L182.39 417.801C182.82 418.139 183.25 418.476 183.643 418.87C184.839 420.013 185.25 420.782 184.857 422.694C184.801 422.994 184.727 423.238 184.652 423.444L181.044 438.16L173.25 423.725C173.213 423.706 179.007 423.2 180.82 416.583Z" fill="#FA8A00"/>
<path d="M167.924 416.245C167.924 416.245 162.802 421.213 163.811 425.806L167.381 435.348L173.531 424.175C173.531 424.175 168.709 422.3 167.924 416.245Z" fill="#FA8A00"/>
<path d="M153.961 392.363C155.587 401.623 164.391 407.791 173.624 406.16C182.858 404.529 189.007 395.7 187.381 386.439C185.755 377.178 176.951 371.011 167.718 372.642C158.484 374.292 152.335 383.102 153.961 392.363Z" fill="#1D1A45"/>
<path d="M153.699 389.307C153.699 389.307 148.746 388.838 148.559 384.114C148.391 380.103 153.437 381.827 152.484 378.847C151.549 375.847 150.148 373.223 153.961 371.761C157.306 370.486 157.774 372.848 161.699 368.593C166.334 363.569 172.129 372.267 176.951 371.704C184.072 370.88 185.68 374.723 186.932 377.797C188.184 380.871 185.867 383.608 185.867 383.608L153.699 389.307Z" fill="#1D1A45"/>
<path d="M157.587 396.543C157.587 396.543 154.316 393.469 152.858 396.749C151.4 400.03 155.718 408.166 160.148 405.204L157.587 396.543Z" fill="#FD896B"/>
<path d="M158.652 402.729C158.466 402.767 158.297 402.673 158.204 402.504C156.989 399.974 154.036 399.374 154.017 399.374C153.793 399.336 153.643 399.111 153.681 398.886C153.718 398.661 153.942 398.511 154.167 398.549C154.297 398.568 157.55 399.224 158.951 402.129C159.045 402.336 158.97 402.579 158.765 402.692C158.709 402.711 158.671 402.729 158.652 402.729Z" fill="#D65C48"/>
<path d="M155.624 401.886C155.55 401.905 155.475 401.886 155.4 401.867C155.195 401.773 155.082 401.53 155.176 401.323C155.195 401.286 155.55 400.461 156.484 399.824C156.671 399.692 156.933 399.749 157.064 399.936C157.195 400.124 157.138 400.386 156.952 400.517C156.223 401.005 155.942 401.661 155.942 401.661C155.886 401.773 155.755 401.848 155.624 401.886Z" fill="#D65C48"/>
<path d="M179.624 409.328L181.138 417.914C181.138 417.914 179.587 423.538 174.577 424.194C171.157 424.644 168.652 420.426 168.652 420.426L167.194 412.159L179.624 409.328Z" fill="#FDA893"/>
<path d="M179.624 409.328L180.297 413.134C178.428 416.133 174.428 417.501 168.185 417.67L167.213 412.14L179.624 409.328Z" fill="#FD896B"/>
<path d="M184.764 385.652C185.194 389.026 185.605 393.244 185.567 396.712C185.549 397.574 185.511 398.38 185.437 399.13C184.745 405.785 182.147 417.445 168.727 415.158C162.801 414.146 159.119 408.372 156.839 402.242C155.306 398.08 154.409 393.75 153.923 390.638C153.418 387.451 154.633 384.246 157.119 382.202C163.829 376.635 171.96 376.822 177.493 377.909C181.362 378.64 184.278 381.771 184.764 385.652Z" fill="#FDA893"/>
<path d="M164.129 396.543C164.297 397.462 163.942 398.286 163.362 398.399C162.783 398.493 162.185 397.837 162.016 396.918C161.848 395.999 162.203 395.175 162.783 395.062C163.362 394.968 163.979 395.625 164.129 396.543Z" fill="#1D1A45"/>
<path d="M176.465 394.368C176.633 395.287 176.278 396.112 175.698 396.224C175.119 396.318 174.521 395.662 174.352 394.743C174.184 393.825 174.539 393 175.119 392.888C175.698 392.775 176.296 393.45 176.465 394.368Z" fill="#1D1A45"/>
<path d="M158.764 392.232C158.764 392.232 162.839 389.72 166.465 390.582V392.194C166.465 392.194 162.671 392.025 159.325 393.994C158.97 393.338 158.596 393.038 158.764 392.232Z" fill="#1D1A45"/>
<path d="M178.82 388.689C178.82 388.689 174.128 387.733 171.007 389.795L171.568 391.313C171.568 391.313 175.082 389.851 178.895 390.544C178.988 389.776 179.231 389.382 178.82 388.689Z" fill="#1D1A45"/>
<path d="M171.12 402.055C171.811 401.923 172.447 401.548 172.54 401.473C172.727 401.342 172.783 401.099 172.671 400.911C172.559 400.724 172.297 400.667 172.11 400.78C171.774 400.986 170.933 401.38 170.503 401.23C170.428 401.192 170.297 401.136 170.241 400.892C169.849 399.486 169.381 394.65 169.381 394.594C169.363 394.369 169.157 394.2 168.933 394.219C168.709 394.237 168.54 394.444 168.559 394.669C168.578 394.875 169.026 399.636 169.438 401.117C169.587 401.68 169.942 401.905 170.204 402.017C170.484 402.111 170.802 402.111 171.12 402.055Z" fill="#FD896B"/>
<path d="M166.446 405.447C167.082 407.06 168.727 409.965 172.446 409.29C176.184 408.634 176.727 405.616 176.745 403.61L166.446 405.447Z" fill="white"/>
<path d="M172.763 411.447C173.81 411.259 174.614 410.565 174.651 410.528C174.819 410.378 174.838 410.116 174.689 409.947C174.539 409.778 174.277 409.759 174.109 409.909C174.109 409.909 173.436 410.472 172.633 410.622C171.885 410.753 171.081 410.453 171.081 410.453C170.876 410.359 170.633 410.472 170.539 410.678C170.446 410.884 170.558 411.128 170.763 411.222C170.801 411.24 171.773 411.615 172.763 411.447Z" fill="#FD896B"/>
<path d="M157.642 399.355C157.044 397.724 156.353 395.606 156.371 394.462C156.427 392.419 157.848 390.976 156.969 389.176C156.091 387.358 157.736 384.958 159.156 384.358C160.577 383.758 164.147 383.871 167.25 381.659C170.222 379.54 176.035 379.653 177.324 381.565C178.876 383.89 177.418 384.396 180.913 386.589C182.315 387.47 181.38 390.544 181.492 392.419C181.549 393.281 181.605 393.694 181.81 394.594L181.904 395.044L185.53 394.406C185.436 391.482 185.1 388.295 184.763 385.652C184.277 381.771 181.343 378.641 177.511 377.891C171.979 376.804 163.848 376.616 157.138 382.184C154.67 384.227 153.455 387.433 153.941 390.619C154.334 393.094 154.969 396.318 155.979 399.636L157.642 399.355Z" fill="#1D1A45"/>
<path d="M184.203 396.262C184.016 395.306 183.923 394.35 183.923 393.375C183.923 392.063 184.091 390.825 185.306 390.057C186.278 389.438 187.399 389.232 188.409 390.282C190.895 392.85 190.297 402.354 185.119 401.098L184.203 396.262Z" fill="#FDA893"/>
<path d="M185.586 398.287C185.755 398.212 185.867 398.043 185.848 397.855C185.568 395.062 187.773 393.019 187.811 393C187.979 392.85 187.997 392.588 187.848 392.419C187.698 392.25 187.437 392.232 187.269 392.381C187.156 392.475 184.727 394.725 185.044 397.949C185.063 398.174 185.269 398.343 185.493 398.324C185.512 398.305 185.549 398.305 185.586 398.287Z" fill="#FD896B"/>
<path d="M187.717 395.981C187.792 395.962 187.848 395.906 187.904 395.831C188.035 395.643 187.997 395.381 187.81 395.25C187.773 395.231 187.044 394.706 185.904 394.65C185.68 394.631 185.474 394.818 185.474 395.043C185.455 395.268 185.642 395.475 185.866 395.475C186.745 395.512 187.324 395.925 187.324 395.925C187.455 396.018 187.605 396.037 187.717 395.981Z" fill="#FD896B"/>
<path d="M139.008 601.364L139.905 613.38C139.905 613.38 136.727 614.093 131.251 613.099L129.008 601.533L139.008 601.364Z" fill="#FDA893"/>
<path d="M133.437 613.024C133.437 613.024 131.755 610.681 130.372 610.756C129.008 610.831 118.316 619.098 114.69 619.754C111.064 620.391 111.232 624.928 112.671 625.434C114.298 626.015 141.12 625.509 141.12 625.509C141.12 625.509 142.148 615.93 141.25 613.343C140.372 610.756 136.26 613.661 133.437 613.024Z" fill="#7742CA"/>
<path d="M193.848 510.745C193.848 510.745 121.923 506.771 109.569 510.708C98.9519 514.082 127.979 604.251 127.979 604.251C132.316 605.601 138.334 603.726 140.69 601.364C140.69 601.364 142.895 595.984 139.381 566.065C138.914 562.091 138.428 549.7 134.204 533.634L181.923 533.878C192.147 533.878 195.38 525.236 194.296 515.038L193.848 510.745Z" fill="#2E3062"/>
<path d="M125.812 600.614C125.812 600.614 126.372 604.42 127.251 606.145C127.251 606.145 135.98 607.663 142.428 602.92L141.886 597.521C141.905 597.521 133.101 600.558 125.812 600.614Z" fill="#524E86"/>
<path d="M124.54 488.625C124.54 488.625 113.718 490.462 109.195 494.249C104.671 498.035 98.6154 501.278 99.5313 503.247C100.428 505.196 106.802 501.053 106.802 501.053C106.802 501.053 108.316 504.578 113.55 506.115C118.765 507.652 129.942 498.635 129.942 498.635L124.54 488.625Z" fill="#FDA893"/>
<path d="M195.922 424.625C189.885 433.811 166.764 465.548 161.549 469.241C154.764 474.04 135.755 484.013 124.689 488.625C122.689 489.45 129.119 498.898 129.119 498.898C129.119 498.898 156.446 489.956 168.109 482.476C171.418 480.358 185.137 466.579 193.885 454.338C196.875 450.139 201.754 444.327 202.464 438.141C203.286 431.018 201.043 427.212 195.922 424.625Z" fill="#FA8A00"/>
<path d="M140.278 510.708H84.4659C83.2697 510.708 82.3164 509.752 82.3164 508.552V505.009C82.3164 503.809 83.2697 502.853 84.4659 502.853H140.278C141.474 502.853 142.428 503.809 142.428 505.009V508.552C142.428 509.733 141.456 510.708 140.278 510.708Z" fill="#5C17B2"/>
<path d="M72.2048 510.708L59.9806 464.761C59.2891 462.174 61.233 459.643 63.8871 459.643H90.8026C92.6157 459.643 94.2044 460.862 94.7091 462.605L108.186 510.689H72.2048V510.708Z" fill="#7742CA"/>
<path d="M94.6907 462.624L108.055 510.314H111.139L97.7747 462.624C97.2888 460.862 95.6813 459.662 93.8682 459.662H90.7842C92.6159 459.643 94.2047 460.862 94.6907 462.624Z" fill="#5C17B2"/>
<path d="M87.7745 487.238C88.466 490.274 86.5969 492.73 83.5689 492.73C80.5409 492.73 77.5316 490.274 76.84 487.238C76.1485 484.201 78.0176 481.745 81.0456 481.745C84.0549 481.745 87.0829 484.201 87.7745 487.238Z" fill="#906ADD"/>
<path d="M191.212 253.228C187.212 253.228 183.941 249.967 183.941 245.936C183.941 241.924 187.194 238.644 191.212 238.644C195.212 238.644 198.483 241.906 198.483 245.936C198.465 249.948 195.212 253.228 191.212 253.228ZM191.212 250.941C193.96 250.941 196.203 248.692 196.203 245.936C196.203 243.18 193.96 240.931 191.212 240.931C188.465 240.931 186.222 243.18 186.222 245.936C186.222 248.692 188.465 250.941 191.212 250.941Z" fill="#FFAC00"/>
<path d="M217.661 277.28C213.661 277.28 210.39 274.018 210.39 269.987C210.39 265.957 213.642 262.695 217.661 262.695C221.661 262.695 224.932 265.957 224.932 269.987C224.932 274.018 221.679 277.28 217.661 277.28ZM217.661 274.993C220.408 274.993 222.651 272.743 222.651 269.987C222.651 267.232 220.408 264.982 217.661 264.982C214.913 264.982 212.67 267.232 212.67 269.987C212.689 272.762 214.913 274.993 217.661 274.993Z" fill="#7742CA"/>
<path d="M227.249 235.644C227.249 235.007 226.744 234.501 226.109 234.501H221.081C220.445 234.501 219.94 235.007 219.94 235.644C219.94 236.282 220.445 236.788 221.081 236.788H226.109C226.744 236.788 227.249 236.282 227.249 235.644Z" fill="#FFAC00"/>
<path d="M236.034 235.644C236.034 235.007 235.529 234.501 234.894 234.501H229.866C229.23 234.501 228.726 235.007 228.726 235.644C228.726 236.282 229.23 236.788 229.866 236.788H234.894C235.529 236.788 236.034 236.282 236.034 235.644Z" fill="#FFAC00"/>
<path d="M229.137 242.712V238.175C229.137 237.538 228.632 237.031 227.997 237.031C227.361 237.031 226.856 237.538 226.856 238.175V242.712C226.856 243.349 227.361 243.855 227.997 243.855C228.632 243.855 229.137 243.349 229.137 242.712Z" fill="#FFAC00"/>
<path d="M229.137 233.095V228.558C229.137 227.921 228.632 227.415 227.997 227.415C227.361 227.415 226.856 227.921 226.856 228.558V233.095C226.856 233.732 227.361 234.238 227.997 234.238C228.632 234.238 229.137 233.732 229.137 233.095Z" fill="#FFAC00"/>
<path d="M174.035 274.993C174.035 274.355 173.53 273.849 172.895 273.849H167.867C167.231 273.849 166.727 274.355 166.727 274.993C166.727 275.63 167.231 276.136 167.867 276.136H172.895C173.53 276.136 174.035 275.63 174.035 274.993Z" fill="#7742CA"/>
<path d="M182.839 274.993C182.839 274.355 182.334 273.849 181.698 273.849H176.67C176.035 273.849 175.53 274.355 175.53 274.993C175.53 275.63 176.035 276.136 176.67 276.136H181.698C182.315 276.136 182.839 275.63 182.839 274.993Z" fill="#7742CA"/>
<path d="M175.923 282.079V277.542C175.923 276.905 175.418 276.398 174.783 276.398C174.147 276.398 173.643 276.905 173.643 277.542V282.079C173.643 282.716 174.147 283.222 174.783 283.222C175.418 283.222 175.923 282.697 175.923 282.079Z" fill="#7742CA"/>
<path d="M175.923 272.462V267.925C175.923 267.288 175.418 266.782 174.783 266.782C174.147 266.782 173.643 267.288 173.643 267.925V272.462C173.643 273.099 174.147 273.605 174.783 273.605C175.418 273.605 175.923 273.08 175.923 272.462Z" fill="#7742CA"/>
<path d="M581.113 325.251C581.113 329.263 577.861 332.544 573.842 332.544C569.842 332.544 566.571 329.282 566.571 325.251C566.571 321.24 569.824 317.959 573.842 317.959C577.861 317.978 581.113 321.24 581.113 325.251ZM568.87 325.251C568.87 328.007 571.113 330.257 573.861 330.257C576.608 330.257 578.851 328.007 578.851 325.251C578.851 322.496 576.608 320.246 573.861 320.246C571.113 320.265 568.87 322.496 568.87 325.251Z" fill="#7742CA"/>
<path d="M607.579 301.2C607.579 305.212 604.327 308.492 600.308 308.492C596.289 308.492 593.037 305.23 593.037 301.2C593.037 297.188 596.289 293.908 600.308 293.908C604.327 293.908 607.579 297.17 607.579 301.2ZM595.317 301.2C595.317 303.956 597.56 306.205 600.308 306.205C603.056 306.205 605.299 303.956 605.299 301.2C605.299 298.444 603.056 296.195 600.308 296.195C597.56 296.195 595.317 298.444 595.317 301.2Z" fill="#FFAC00"/>
<path d="M609.897 335.562C609.897 336.199 609.392 336.705 608.757 336.705H603.729C603.093 336.705 602.589 336.199 602.589 335.562C602.589 334.925 603.093 334.418 603.729 334.418H608.757C609.392 334.418 609.897 334.925 609.897 335.562Z" fill="#7742CA"/>
<path d="M618.682 335.562C618.682 336.199 618.178 336.705 617.542 336.705H612.514C611.879 336.705 611.374 336.199 611.374 335.562C611.374 334.925 611.879 334.418 612.514 334.418H617.542C618.178 334.418 618.682 334.925 618.682 335.562Z" fill="#7742CA"/>
<path d="M611.785 328.476V333.012C611.785 333.65 611.281 334.156 610.645 334.156C610.01 334.156 609.505 333.65 609.505 333.012V328.476C609.505 327.838 610.01 327.332 610.645 327.332C611.281 327.332 611.785 327.857 611.785 328.476Z" fill="#7742CA"/>
<path d="M611.785 338.092V342.629C611.785 343.266 611.281 343.773 610.645 343.773C610.01 343.773 609.505 343.266 609.505 342.629V338.092C609.505 337.455 610.01 336.949 610.645 336.949C611.281 336.949 611.785 337.474 611.785 338.092Z" fill="#7742CA"/>
<path d="M556.683 296.195C556.683 296.832 556.179 297.338 555.543 297.338H550.515C549.88 297.338 549.375 296.832 549.375 296.195C549.375 295.557 549.88 295.051 550.515 295.051H555.543C556.179 295.051 556.683 295.557 556.683 296.195Z" fill="#FFAC00"/>
<path d="M565.468 296.195C565.468 296.832 564.964 297.338 564.328 297.338H559.3C558.665 297.338 558.16 296.832 558.16 296.195C558.16 295.557 558.665 295.051 559.3 295.051H564.328C564.964 295.051 565.468 295.557 565.468 296.195Z" fill="#FFAC00"/>
<path d="M558.571 289.127V293.664C558.571 294.301 558.067 294.808 557.431 294.808C556.796 294.808 556.291 294.301 556.291 293.664V289.127C556.291 288.49 556.796 287.984 557.431 287.984C558.067 287.984 558.571 288.49 558.571 289.127Z" fill="#FFAC00"/>
<path d="M558.571 298.744V303.281C558.571 303.918 558.067 304.424 557.431 304.424C556.796 304.424 556.291 303.918 556.291 303.281V298.744C556.291 298.107 556.796 297.601 557.431 297.601C558.067 297.601 558.571 298.107 558.571 298.744Z" fill="#FFAC00"/>
<path d="M646.519 0.476898L548.901 35.4842L579.428 58.432L446.499 236.254L385.441 190.323L220.478 411.018C214.18 419.442 215.877 431.381 224.283 437.704C232.688 444.026 244.592 442.334 250.89 433.909L393.054 243.73L454.112 289.661L609.805 81.3282L640.331 104.276L646.519 0.476898Z" fill="#FFAC00"/>
</svg>
