<svg width="10" height="11" viewBox="0 0 10 11" fill="none" xmlns="http://www.w3.org/2000/svg">
<path d="M8.86057 5.00995L4.95682 9.05984C4.47859 9.55598 3.82996 9.83471 3.15362 9.83471C2.47729 9.83471 1.82866 9.55598 1.35043 9.05984C0.872187 8.5637 0.603516 7.89079 0.603516 7.18913C0.603516 6.48748 0.872187 5.81457 1.35043 5.31843L5.25417 1.26853C5.573 0.937773 6.00542 0.751953 6.4563 0.751953C6.90719 0.751953 7.33961 0.937773 7.65844 1.26853C7.97726 1.5993 8.15638 2.0479 8.15638 2.51567C8.15638 2.98344 7.97726 3.43205 7.65844 3.76281L3.75044 7.8127C3.59103 7.97808 3.37482 8.07099 3.14938 8.07099C2.92393 8.07099 2.70772 7.97808 2.54831 7.8127C2.3889 7.64732 2.29934 7.42302 2.29934 7.18913C2.29934 6.95525 2.3889 6.73095 2.54831 6.56557L6.15471 2.82856" stroke="white" stroke-width="0.825706" stroke-linecap="round" stroke-linejoin="round"/>
</svg>
